<?xml version="1.0" encoding="UTF-8"?>
<svg xmlns="http://www.w3.org/2000/svg" xmlns:xlink="http://www.w3.org/1999/xlink"
     width="600" height="600.0" viewBox="-7.0 -7.0 14 14">
<defs>
</defs>
<path d="M0.5000000000000001,0.8660254037844386 A1.0,1.0,0,1,0,0.4694715627858902,0.8829475928589272 L0.9389431255717804,1.7658951857178544 A2.0,2.0,0,1,1,1.0000000000000002,1.7320508075688772 Z" fill="red" stroke="black" stroke-width="0.07" />
<path d="M-0.18302705977008232,2.092008865992666 A2.1,2.1,0,0,0,1.0500000000000003,1.818653347947321 L1.5500000000000005,2.68467875173176 A3.1,3.1,0,0,1,-0.2701828025177406,3.088203564084411 Z" fill="#ff0000" stroke="black" stroke-width="0.07" />
<path d="M-1.4321965561312477,1.5358427734002573 A2.1,2.1,0,0,0,-0.2922635120161364,2.079562944357298 L-0.43143661297620134,3.0698310130988684 A3.1,3.1,0,0,1,-2.1141949161937466,2.2671964750194276 Z" fill="#f6080b" stroke="black" stroke-width="0.07" />
<path d="M-2.074145515249789,0.32851237658448457 A2.1,2.1,0,0,0,-1.5106135807111674,1.4587825779638945 L-2.2299533810498184,2.153440948422892 A3.1,3.1,0,0,1,-3.061833855844927,0.4849468416247153 Z" fill="#aa5777" stroke="black" stroke-width="0.07" />
<path d="M-1.8367013849927312,-1.018100202517308 A2.1,2.1,0,0,0,-2.088495980273374,0.21950977286207143 L-3.0830178756416475,0.3240382361297245 A3.1,3.1,0,0,1,-2.7113210921321267,-1.5029098227636453 Z" fill="#887ba6" stroke="black" stroke-width="0.07" />
<path d="M-0.8205353698274747,-1.933060192250125 A2.1,2.1,0,0,0,-1.7809010019284945,-1.1128304548897303 L-2.6289490980849206,-1.6427497191229352 A3.1,3.1,0,0,1,-1.2112664983167483,-2.8535650457025654 Z" fill="#7b999c" stroke="black" stroke-width="0.07" />
<path d="M0.5435199947152936,-2.0284442352070435 A2.1,2.1,0,0,0,-0.7182423009839043,-1.9733545036504079 L-1.060262444309573,-2.913047124436316 A3.1,3.1,0,0,1,0.8023390398178143,-2.9943700614961117 Z" fill="#7cc25b" stroke="black" stroke-width="0.07" />
<path d="M1.677134571099315,-1.2638115486193013 A2.1,2.1,0,0,0,0.6489356881873897,-1.9972186842198225 L0.9579526825623371,-2.948275200514976 A3.1,3.1,0,0,1,2.475770081146608,-1.8656265717713496 Z" fill="#e0f015" stroke="black" stroke-width="0.07" />
<path d="M2.099680159828422,0.036650053518295374 A2.1,2.1,0,0,0,1.7409789023655875,-1.1743050972885685 L2.570016474920629,-1.7334980007593155 A3.1,3.1,0,0,1,3.099527854984813,0.054102459955578885 Z" fill="#efd000" stroke="black" stroke-width="0.07" />
<path d="M1.632006519059639,1.3215728212046587 A2.1,2.1,0,0,0,2.094884505545631,0.14648859486266314 L3.092448555805455,0.21624506860678844 A3.1,3.1,0,0,1,2.40915248051661,1.950893212254496 Z" fill="#e87b00" stroke="black" stroke-width="0.07" />
<path d="M1.1437419735315573,1.7612081926853904 A2.1,2.1,0,0,0,1.560604133502528,1.4051742733536023 L2.3037489589799223,2.074304879712461 A3.1,3.1,0,0,1,1.6883810085465845,2.5998787606308142 Z" fill="#f82100" stroke="black" stroke-width="0.07" />
<path d="M1.4027876697250479,2.876140948157335 A3.2,3.2,0,0,0,1.6000000000000005,2.7712812921102037 L2.1000000000000005,3.637306695894642 A4.2,4.2,0,0,1,1.8411588165141253,3.7749349944565016 Z" fill="#ff0000" stroke="black" stroke-width="0.07" />
<path d="M1.0418180942629003,3.0256594419178144 A3.2,3.2,0,0,0,1.2503396111656753,2.94561553104781 L1.6410707396549487,3.8661203845002503 A4.2,4.2,0,0,1,1.3673862487200565,3.9711780175171314 Z" fill="#ff0000" stroke="black" stroke-width="0.07" />
<path d="M0.6653174106168275,3.1300723223481786 A3.2,3.2,0,0,0,0.8820395386143981,3.0760374270026203 L1.1576768944313975,4.037299122940939 A4.2,4.2,0,0,1,0.873229101434586,4.108219923081984 Z" fill="#ff0000" stroke="black" stroke-width="0.07" />
<path d="M0.27889837679250523,3.187823033893586 A3.2,3.2,0,0,0,0.5005902881287382,3.160602689904441 L0.6570247531689689,4.148291030499578 A4.2,4.2,0,0,1,0.36605411954016315,4.184017731985332 Z" fill="#ff0000" stroke="black" stroke-width="0.07" />
<path d="M-0.11167838944800529,3.1980506464611063 A3.2,3.2,0,0,0,0.11167838944800411,3.1980506464611067 L0.14657788615050538,4.197441473480202 A4.2,4.2,0,0,1,-0.14657788615050693,4.197441473480202 Z" fill="#ff0000" stroke="black" stroke-width="0.07" />
<path d="M-0.6653174106168314,3.130072322348178 A3.2,3.2,0,0,0,-0.44535392307220784,3.1688578199730255 L-0.5845270240322727,4.159125888714596 A4.2,4.2,0,0,1,-0.8732291014345911,4.108219923081983 Z" fill="#ff0000" stroke="black" stroke-width="0.07" />
<path d="M-1.0418180942629014,3.025659441917814 A3.2,3.2,0,0,0,-0.828220944328066,3.090962644125019 L-1.0870399894305867,4.056888470414087 A4.2,4.2,0,0,1,-1.3673862487200579,3.971178017517131 Z" fill="#ff0000" stroke="black" stroke-width="0.07" />
<path d="M-1.4027876697250488,2.876140948157334 A3.2,3.2,0,0,0,-1.1987410989309193,2.9669883346137196 L-1.5733476923468317,3.894172189180507 A4.2,4.2,0,0,1,-1.8411588165141266,3.7749349944565007 Z" fill="#f90507" stroke="black" stroke-width="0.07" />
<path d="M-1.7428449120480864,2.6837458174253572 A3.2,3.2,0,0,0,-1.551390784788278,2.7987830628460673 L-2.0362004050346147,3.6734027699854632 A4.2,4.2,0,0,1,-2.287483947063113,3.5224163853707813 Z" fill="#eb131b" stroke="black" stroke-width="0.07" />
<path d="M-2.0569203509969265,2.4513422179807294 A3.2,3.2,0,0,0,-1.8809128073359145,2.5888543819998318 L-2.468698059628388,3.3978713763747788 A4.2,4.2,0,0,1,-2.6997079606834657,3.2173866610997073 Z" fill="#dd222f" stroke="black" stroke-width="0.07" />
<path d="M-2.6529202321761343,1.7894172911063895 A3.2,3.2,0,0,0,-2.3018873610836836,2.222906785468792 L-3.0212271614223347,2.917565155927789 A4.2,4.2,0,0,1,-3.481957804731176,2.348610194577136 Z" fill="#c33d53" stroke="black" stroke-width="0.07" />
<path d="M-2.987457364791046,1.1467774385449614 A3.2,3.2,0,0,0,-2.74293536224676,1.6481218397121733 L-3.600102662948872,2.1631599146222276 A4.2,4.2,0,0,1,-3.9210377912882475,1.5051453880902619 Z" fill="#a95878" stroke="black" stroke-width="0.07" />
<path d="M-3.168857819973025,0.44535392307220967 A3.2,3.2,0,0,0,-3.0433808521444914,0.9888543819998328 L-3.994437368439645,1.2978713763747804 A4.2,4.2,0,0,1,-4.159125888714596,0.5845270240322752 Z" fill="#956d94" stroke="black" stroke-width="0.07" />
<path d="M-3.187823033893586,-0.2788983767925077 A3.2,3.2,0,0,0,-3.182470065178475,0.3344910824564898 L-4.176991960546748,0.43901954572414287 A4.2,4.2,0,0,1,-4.184017731985332,-0.3660541195401663 Z" fill="#8f749d" stroke="black" stroke-width="0.07" />
<path d="M-3.0256594419178136,-1.0418180942629025 A3.2,3.2,0,0,0,-3.168857819973025,-0.4453539230722104 L-4.159125888714596,-0.5845270240322762 A4.2,4.2,0,0,1,-3.9711780175171305,-1.3673862487200596 Z" fill="#877ca8" stroke="black" stroke-width="0.07" />
<path d="M-2.771281292110204,-1.5999999999999999 A3.2,3.2,0,0,0,-2.9669883346137196,-1.1987410989309193 L-3.894172189180507,-1.5733476923468315 A4.2,4.2,0,0,1,-3.6373066958946425,-2.0999999999999996 Z" fill="#8184b1" stroke="black" stroke-width="0.07" />
<path d="M-1.8354445963233468,-2.621286541724775 A3.2,3.2,0,0,0,-2.7137539077005632,-1.6957416455462557 L-3.561802003856989,-2.2256609097794606 A4.2,4.2,0,0,1,-2.4090210326743926,-3.4404385860137667 Z" fill="#7c92a7" stroke="black" stroke-width="0.07" />
<path d="M-1.1987410989309186,-2.96698833461372 A3.2,3.2,0,0,0,-1.6957416455462555,-2.7137539077005637 L-2.22566090977946,-3.5618020038569895 A4.2,4.2,0,0,1,-1.5733476923468308,-3.8941721891805074 Z" fill="#7aa785" stroke="black" stroke-width="0.07" />
<path d="M-0.555674168534177,-3.1513848096390658 A3.2,3.2,0,0,0,-1.09446445864214,-3.0070163865149073 L-1.4364846019678086,-3.9467090073008158 A4.2,4.2,0,0,1,-0.7293223462011073,-4.136192562651273 Z" fill="#79b471" stroke="black" stroke-width="0.07" />
<path d="M0.1674750599774207,-3.1956145112146364 A3.2,3.2,0,0,0,-0.3899818988964716,-3.176147685252231 L-0.5118512423016189,-4.168693836893553 A4.2,4.2,0,0,1,0.21981101622036467,-4.19424404596921 Z" fill="#7dc25a" stroke="black" stroke-width="0.07" />
<path d="M0.8820395386143973,-3.0760374270026207 A3.2,3.2,0,0,0,0.33449108245649106,-3.1824700651784745 L0.43901954572414453,-4.176991960546748 A4.2,4.2,0,0,1,1.1576768944313964,-4.037299122940939 Z" fill="#a0d242" stroke="black" stroke-width="0.07" />
<path d="M2.182394752199995,-2.3403318451813457 A3.2,3.2,0,0,0,0.9888543819998319,-3.0433808521444914 L1.2978713763747793,-3.994437368439645 A4.2,4.2,0,0,1,2.8643931122624937,-3.071685546800516 Z" fill="#d3ea1e" stroke="black" stroke-width="0.07" />
<path d="M2.588854381999832,-1.880912807335914 A3.2,3.2,0,0,0,2.301887361083684,-2.2229067854687914 L3.021227161422335,-2.9175651559277886 A4.2,4.2,0,0,1,3.3978713763747797,-2.4686980596283874 Z" fill="#fdfa00" stroke="black" stroke-width="0.07" />
<path d="M3.1980506464611067,0.11167838944800311 A3.2,3.2,0,0,0,2.6529202321761334,-1.7894172911063901 L3.481957804731175,-2.348610194577137 A4.2,4.2,0,0,1,4.197441473480202,0.14657788615050407 Z" fill="#efd000" stroke="black" stroke-width="0.07" />
<path d="M2.90018491851728,1.3523784375702383 A3.2,3.2,0,0,0,3.192204960831438,0.22322071598120097 L4.189769011091262,0.29297718972532627 A4.2,4.2,0,0,1,3.80649270555393,1.7749966993109376 Z" fill="#e49100" stroke="black" stroke-width="0.07" />
<path d="M2.45134221798073,2.0569203509969256 A3.2,3.2,0,0,0,2.8254322971485664,1.5023090009148508 L3.7083798900074934,1.9717805637007415 A4.2,4.2,0,0,1,3.2173866610997077,2.699707960683465 Z" fill="#ef5300" stroke="black" stroke-width="0.07" />
<path d="M1.7428449120480871,2.683745817425357 A3.2,3.2,0,0,0,2.3780634415276616,2.1412179403483464 L3.121208267005056,2.8103485467072047 A4.2,4.2,0,0,1,2.2874839470631145,3.522416385370781 Z" fill="#f82100" stroke="black" stroke-width="0.07" />
<path d="M1.8172585254850087,3.8971234842575955 A4.300000000000001,4.300000000000001,0,0,0,2.150000000000001,3.723909236273087 L2.650000000000001,4.589934640057526 A5.300000000000001,5.300000000000001,0,0,1,2.2398767872257084,4.8034312712942455 Z" fill="#ff0000" stroke="black" stroke-width="0.07" />
<path d="M1.3287730758122733,4.089543020069161 A4.300000000000001,4.300000000000001,0,0,0,1.6801438525038763,3.9581708698454947 L2.0708749809931497,4.878675723297936 A5.300000000000001,5.300000000000001,0,0,1,1.6377900701872206,5.040599536364315 Z" fill="#ff0000" stroke="black" stroke-width="0.07" />
<path d="M0.8204786801191404,4.220996888824956 A4.300000000000001,4.300000000000001,0,0,0,1.1852406300130975,4.133425292534771 L1.4608779858300969,5.09468698847309 A5.300000000000001,5.300000000000001,0,0,1,1.0112876754956845,5.20262407227262 Z" fill="#ff0000" stroke="black" stroke-width="0.07" />
<path d="M0.29995283709973847,4.289525416117245 A4.300000000000001,4.300000000000001,0,0,0,0.672668199672992,4.247059864559093 L0.8291026647132227,5.234748205154231 A5.300000000000001,5.300000000000001,0,0,1,0.3697093108438637,5.287089466377069 Z" fill="#ff0000" stroke="black" stroke-width="0.07" />
<path d="M-0.1500678358207571,4.297380556182112 A4.300000000000001,4.300000000000001,0,0,0,0.15006783582075553,4.297380556182112 L0.1849673325232568,5.296771383201208 A5.300000000000001,5.300000000000001,0,0,1,-0.18496733252325875,5.296771383201207 Z" fill="#ff0000" stroke="black" stroke-width="0.07" />
<path d="M-0.9672895336786207,4.189791278576512 A4.300000000000001,4.300000000000001,0,0,0,-0.5984443341282794,4.258152695588754 L-0.7376174350883443,5.248420764330324 A5.300000000000001,5.300000000000001,0,0,1,-1.192240588022486,5.164161343361747 Z" fill="#ff0000" stroke="black" stroke-width="0.07" />
<path d="M-1.4706866163003787,4.040678269379406 A4.300000000000001,4.300000000000001,0,0,0,-1.112921893940839,4.153481053042994 L-1.3717409390433595,5.119406879332063 A5.300000000000001,5.300000000000001,0,0,1,-1.812706759626048,4.9803708901653145 Z" fill="#ff0000" stroke="black" stroke-width="0.07" />
<path d="M-2.0187277199793305,3.7966746492933865 A4.300000000000001,4.300000000000001,0,0,0,-1.610808351688423,3.986890574637186 L-1.9854149451043355,4.914074429203973 A5.300000000000001,5.300000000000001,0,0,1,-2.4881992827652213,4.6796222421523135 Z" fill="#f7070a" stroke="black" stroke-width="0.07" />
<path d="M-2.4045294849242134,3.5648615619866786 A4.300000000000001,4.300000000000001,0,0,0,-2.0846813670592486,3.7608647406994034 L-2.569490987305586,4.635484447838799 A5.300000000000001,5.300000000000001,0,0,1,-2.963722388394961,4.39389913454172 Z" fill="#ea141c" stroke="black" stroke-width="0.07" />
<path d="M-2.821053824659183,3.245251194957919 A4.300000000000001,4.300000000000001,0,0,0,-2.5274765848576353,3.478773075812274 L-3.1152618371501086,4.287790070187222 A5.300000000000001,5.300000000000001,0,0,1,-3.477112853649691,3.9999607751806905 Z" fill="#dc2330" stroke="black" stroke-width="0.07" />
<path d="M-3.388446240508906,2.647344343900329 A4.300000000000001,4.300000000000001,0,0,0,-3.0931611414562004,2.9870309929736893 L-3.8125009417948514,3.6816893634326866 A5.300000000000001,5.300000000000001,0,0,1,-4.176456994115628,3.263005819225987 Z" fill="#c7394e" stroke="black" stroke-width="0.07" />
<path d="M-4.0406782693794066,1.4706866163003756 A4.300000000000001,4.300000000000001,0,0,0,-3.6858193930190835,2.214663722113233 L-4.542986693721196,2.7297017970232873 A5.300000000000001,5.300000000000001,0,0,1,-4.980370890165315,1.8127067596260442 Z" fill="#a8597a" stroke="black" stroke-width="0.07" />
<path d="M-4.276444150083576,0.4494723920509082 A4.300000000000001,4.300000000000001,0,0,0,-4.0895430200691605,1.3287730758122756 L-5.040599536364314,1.6377900701872232 A5.300000000000001,5.300000000000001,0,0,1,-5.27096604545185,0.5540008553185612 Z" fill="#956e95" stroke="black" stroke-width="0.07" />
<path d="M-4.2764441500835755,-0.4494723920509111 A4.300000000000001,4.300000000000001,0,0,0,-4.276444150083576,0.4494723920509082 L-5.27096604545185,0.5540008553185612 A5.300000000000001,5.300000000000001,0,0,1,-5.270966045451849,-0.5540008553185649 Z" fill="#8f759e" stroke="black" stroke-width="0.07" />
<path d="M-4.0657298750770625,-1.3999430641657755 A4.300000000000001,4.300000000000001,0,0,0,-4.258152695588753,-0.5984443341282828 L-5.248420764330323,-0.7376174350883485 A5.300000000000001,5.300000000000001,0,0,1,-5.011248450676379,-1.7255112186229324 Z" fill="#877ca8" stroke="black" stroke-width="0.07" />
<path d="M-3.7239092362730872,-2.15 A4.300000000000001,4.300000000000001,0,0,0,-3.986890574637186,-1.6108083516884228 L-4.914074429203973,-1.985414945104335 A5.300000000000001,5.300000000000001,0,0,1,-4.589934640057526,-2.65 Z" fill="#8184b1" stroke="black" stroke-width="0.07" />
<path d="M-2.9870309929736876,-3.0931611414562017 A4.300000000000001,4.300000000000001,0,0,0,-3.646606813472632,-2.2786528362027814 L-4.494654909629058,-2.8085721004359865 A5.300000000000001,5.300000000000001,0,0,1,-3.681689363432685,-3.812500941794853 Z" fill="#7c8eae" stroke="black" stroke-width="0.07" />
<path d="M-2.404529484924211,-3.56486156198668 A4.300000000000001,4.300000000000001,0,0,0,-2.8210538246591828,-3.2452511949579192 L-3.47711285364969,-3.999960775180691 A5.300000000000001,5.300000000000001,0,0,1,-2.9637223883949577,-4.393899134541722 Z" fill="#7b9c97" stroke="black" stroke-width="0.07" />
<path d="M-1.6108083516884222,-3.9868905746371865 A4.300000000000001,4.300000000000001,0,0,0,-2.278652836202781,-3.6466068134726326 L-2.8085721004359856,-4.494654909629059 A5.300000000000001,5.300000000000001,0,0,1,-1.9854149451043341,-4.914074429203974 Z" fill="#7aa785" stroke="black" stroke-width="0.07" />
<path d="M-0.6726681996729935,-4.247059864559093 A4.300000000000001,4.300000000000001,0,0,0,-1.4706866163003758,-4.0406782693794066 L-1.8127067596260444,-4.980370890165315 A5.300000000000001,5.300000000000001,0,0,1,-0.8291026647132246,-5.23474820515423 Z" fill="#78b570" stroke="black" stroke-width="0.07" />
<path d="M0.2999528370997395,-4.289525416117245 A4.300000000000001,4.300000000000001,0,0,0,-0.5240381766421337,-4.267948452057686 L-0.6459075200472811,-5.260494603699008 A5.300000000000001,5.300000000000001,0,0,1,0.36970931084386494,-5.287089466377069 Z" fill="#7fc359" stroke="black" stroke-width="0.07" />
<path d="M1.2571983303077683,-4.112110450641053 A4.300000000000001,4.300000000000001,0,0,0,0.44947239205090994,-4.2764441500835755 L0.5540008553185634,-5.270966045451849 A5.300000000000001,5.300000000000001,0,0,1,1.549570035030505,-5.068415206604088 Z" fill="#a1d341" stroke="black" stroke-width="0.07" />
<path d="M2.5878045995538086,-3.4341326932033596 A4.300000000000001,4.300000000000001,0,0,0,1.3287730758122742,-4.0895430200691605 L1.6377900701872217,-5.040599536364314 A5.300000000000001,5.300000000000001,0,0,1,3.1896196227058566,-4.232768203250653 Z" fill="#cbe624" stroke="black" stroke-width="0.07" />
<path d="M2.9870309929736893,-3.0931611414562004 A4.300000000000001,4.300000000000001,0,0,0,2.76398672165212,-3.2939911054116062 L3.406774331338659,-4.060035548530584 A5.300000000000001,5.300000000000001,0,0,1,3.6816893634326866,-3.8125009417948514 Z" fill="#f1f809" stroke="black" stroke-width="0.07" />
<path d="M3.4787730758122746,-2.527476584857635 A4.300000000000001,4.300000000000001,0,0,0,3.093161141456201,-2.987030992973689 L3.812500941794852,-3.681689363432686 A5.300000000000001,5.300000000000001,0,0,1,4.2877900701872225,-3.115261837150108 Z" fill="#fdfa00" stroke="black" stroke-width="0.07" />
<path d="M4.220996888824955,-0.8204786801191428 A4.300000000000001,4.300000000000001,0,0,0,3.5648615619866795,-2.404529484924212 L4.393899134541721,-2.963722388394959 A5.300000000000001,5.300000000000001,0,0,1,5.20262407227262,-1.0112876754956877 Z" fill="#f3db00" stroke="black" stroke-width="0.07" />
<path d="M4.297380556182112,0.1500678358207542 A4.300000000000001,4.300000000000001,0,0,0,4.258152695588754,-0.5984443341282815 L5.248420764330324,-0.7376174350883469 A5.300000000000001,5.300000000000001,0,0,1,5.296771383201208,0.18496733252325517 Z" fill="#e7b900" stroke="black" stroke-width="0.07" />
<path d="M3.864814399086419,1.884995931193033 A4.300000000000001,4.300000000000001,0,0,0,4.289525416117245,0.29995283709973886 L5.287089466377069,0.36970931084386416 A5.300000000000001,5.300000000000001,0,0,1,4.763608445385586,2.3233670779821107 Z" fill="#e49000" stroke="black" stroke-width="0.07" />
<path d="M3.2939911054116062,2.7639867216521194 A4.300000000000001,4.300000000000001,0,0,0,3.7966746492933865,2.018727719979331 L4.6796222421523135,2.4881992827652217 A5.300000000000001,5.300000000000001,0,0,1,4.060035548530584,3.4067743313386587 Z" fill="#ef5300" stroke="black" stroke-width="0.07" />
<path d="M2.341947850564617,3.6062834421653234 A4.300000000000001,4.300000000000001,0,0,0,3.195522749552796,2.8772616073430908 L3.93866757503019,3.546392213701949 A5.300000000000001,5.300000000000001,0,0,1,2.8865868855796446,4.444954010110748 Z" fill="#f82100" stroke="black" stroke-width="0.07" />
</svg>