<?xml version="1.0" encoding="UTF-8"?>
<svg xmlns="http://www.w3.org/2000/svg" xmlns:xlink="http://www.w3.org/1999/xlink"
     width="600" height="600.0" viewBox="-7.0 -7.0 14 14">
<defs>
</defs>
<path d="M0.6427876096865393,0.7660444431189781 A1.0,1.0,0,1,0,0.615661475325659,0.7880107536067213 L1.231322950651318,1.5760215072134427 A2.0,2.0,0,1,1,1.2855752193730785,1.5320888862379562 Z" fill="red" stroke="black" stroke-width="0.07" />
<path d="M0.6520258581311388,2.0067292493827744 A2.1100000000000003,2.1100000000000003,0,0,0,1.356281856438598,1.6163537749810442 L1.9990694661251374,2.3823982181000223 A3.1100000000000003,3.1100000000000003,0,0,1,0.961042852506086,2.957785765677928 Z" fill="#ff0000" stroke="black" stroke-width="0.07" />
<path d="M-0.2571443145848606,2.09427237996319 A2.1100000000000003,2.1100000000000003,0,0,0,0.5461081851663196,2.0381034934699342 L0.8049272302688408,3.0040293197590024 A3.1100000000000003,3.1100000000000003,0,0,1,-0.37901365799000775,3.086818531604512 Z" fill="#ff0000" stroke="black" stroke-width="0.07" />
<path d="M-1.1181296475320628,1.789381482890059 A2.1100000000000003,2.1100000000000003,0,0,0,-0.36639765487722303,2.0779443588557593 L-0.5400458325441534,3.0627521118679675 A3.1100000000000003,3.1100000000000003,0,0,1,-1.6480489117652677,2.637429579046485 Z" fill="#eb131b" stroke="black" stroke-width="0.07" />
<path d="M-1.769594898364845,1.1491883638817073 A2.1100000000000003,2.1100000000000003,0,0,0,-1.210246280700708,1.7284108134497724 L-1.7838227170517544,2.547562857738764 A3.1100000000000003,3.1100000000000003,0,0,1,-2.608265466310269,1.6938273988967345 Z" fill="#b94762" stroke="black" stroke-width="0.07" />
<path d="M-2.0894656250447134,0.2936552430257383 A2.1100000000000003,2.1100000000000003,0,0,0,-1.8273136019851657,1.0550000000000004 L-2.6933390057696043,1.5550000000000006 A3.1100000000000003,3.1100000000000003,0,0,1,-3.0797336937862836,0.43282834398580383 Z" fill="#936f97" stroke="black" stroke-width="0.07" />
<path d="M-2.017803035082005,-0.6169042969649753 A2.1100000000000003,2.1100000000000003,0,0,0,-2.1019708129735832,0.1838986171975583 L-3.098165511065329,0.2710543599452162 A3.1100000000000003,3.1100000000000003,0,0,1,-2.9741077910450406,-0.9092760016877123 Z" fill="#867ea9" stroke="black" stroke-width="0.07" />
<path d="M-1.5680355817573017,-1.4118655794171913 A2.1100000000000003,2.1100000000000003,0,0,0,-1.982751429858267,-0.7216625024171615 L-2.922444050644175,-1.0636826457428303 A3.1100000000000003,3.1100000000000003,0,0,1,-2.3111804072346955,-2.0809961857760495 Z" fill="#7c90ab" stroke="black" stroke-width="0.07" />
<path d="M-0.8244426811123674,-1.9422652407846495 A2.1100000000000003,2.1100000000000003,0,0,0,-1.4919953083036153,-1.4919953083036157 L-2.1991020894901627,-2.199102089490163 A3.1100000000000003,3.1100000000000003,0,0,1,-1.2151738096016411,-2.86277009423709 Z" fill="#79aa80" stroke="black" stroke-width="0.07" />
<path d="M0.07363793804227729,-2.1087146450102923 A2.1100000000000003,2.1100000000000003,0,0,0,-0.7216625024171611,-1.9827514298582671 L-1.06368264574283,-2.9224440506441756 A3.1100000000000003,3.1100000000000003,0,0,1,0.10853743474477837,-3.108105472029388 Z" fill="#85c655" stroke="black" stroke-width="0.07" />
<path d="M0.9579199544504439,-1.8800237660374564 A2.1100000000000003,2.1100000000000003,0,0,0,0.1838986171975587,-2.1019708129735832 L0.2710543599452168,-3.098165511065329 A3.1100000000000003,3.1100000000000003,0,0,1,1.4119104541899907,-2.771030290225824 Z" fill="#c7e527" stroke="black" stroke-width="0.07" />
<path d="M1.6627026901101838,-1.2990457129371389 A2.1100000000000003,2.1100000000000003,0,0,0,1.0550000000000004,-1.8273136019851657 L1.5550000000000006,-2.6933390057696043 A3.1100000000000003,3.1100000000000003,0,0,1,2.450713443716906,-1.914707188262797 Z" fill="#fcf800" stroke="black" stroke-width="0.07" />
<path d="M2.055920836696847,-0.47464672466555524 A2.1100000000000003,2.1100000000000003,0,0,0,1.7284108134497729,-1.2102462807007073 L2.5475628577387646,-1.7838227170517533 A3.1100000000000003,3.1100000000000003,0,0,1,3.030290901482082,-0.6995977790094202 Z" fill="#eecc00" stroke="black" stroke-width="0.07" />
<path d="M2.0638914375483304,0.43869366762547224 A2.1100000000000003,2.1100000000000003,0,0,0,2.0779443588557593,-0.36639765487722303 L3.0627521118679675,-0.5400458325441534 A3.1100000000000003,3.1100000000000003,0,0,1,3.042039038282136,0.6466053584432315 Z" fill="#e29d00" stroke="black" stroke-width="0.07" />
<path d="M1.6851209261997881,1.269829698850822 A2.1100000000000003,2.1100000000000003,0,0,0,2.0381034934699342,0.5461081851663189 L3.004029319759003,0.8049272302688396 A3.1100000000000003,3.1100000000000003,0,0,1,2.4837564362470808,1.8716447220028702 Z" fill="#f14d00" stroke="black" stroke-width="0.07" />
<path d="M1.439016539731872,1.5431563104164499 A2.1100000000000003,2.1100000000000003,0,0,0,1.616353774981044,1.356281856438598 L2.382398218100022,1.9990694661251374 A3.1100000000000003,3.1100000000000003,0,0,1,2.1210148997943703,2.2745100120356203 Z" fill="#fb1400" stroke="black" stroke-width="0.07" />
<path d="M0.9414368892072122,3.079301314200974 A3.22,3.22,0,0,0,2.0697761031906565,2.4666631068431095 L2.712563712877196,3.2327075499620883 A4.220000000000001,4.220000000000001,0,0,1,1.233808593929949,4.03560607016401 Z" fill="#ff0000" stroke="black" stroke-width="0.07" />
<path d="M-0.4481373850914091,3.1886631813478568 A3.22,3.22,0,0,0,0.8333973252301181,3.1102811606508 L1.0922163703326393,4.0762069869398685 A4.220000000000001,4.220000000000001,0,0,1,-0.5873104860514742,4.178931250089428 Z" fill="#ff0000" stroke="black" stroke-width="0.07" />
<path d="M-0.8875522857307364,3.0952626609213874 A3.22,3.22,0,0,0,-0.5591471320875157,3.17108096469931 L-0.7327953097544461,4.155888717711519 A4.220000000000001,4.220000000000001,0,0,1,-1.1631896415477354,4.056524356859707 Z" fill="#fb0304" stroke="black" stroke-width="0.07" />
<path d="M-1.360830802805054,2.9183110742580123 A3.22,3.22,0,0,0,-1.0483294573520445,3.0445698134298005 L-1.3738976118092012,3.990088389029118 A4.220000000000001,4.220000000000001,0,0,1,-1.783449064545754,3.8246188612946623 Z" fill="#e9151e" stroke="black" stroke-width="0.07" />
<path d="M-1.8006011491758063,2.6695009836272336 A3.22,3.22,0,0,0,-1.5116984321705682,2.843091249005745 L-1.9811699949564592,3.7260388418646726 A4.220000000000001,4.220000000000001,0,0,1,-2.3597940526465537,3.4985385561822753 Z" fill="#d72837" stroke="black" stroke-width="0.07" />
<path d="M-2.2768838354206835,2.276883835420683 A3.22,3.22,0,0,0,-1.8469161250503694,2.637669582610553 L-2.420492561401416,3.456821626899545 A4.220000000000001,4.220000000000001,0,0,1,-2.983990616607232,2.9839906166072305 Z" fill="#c53b51" stroke="black" stroke-width="0.07" />
<path d="M-2.730714869623692,1.7063400308309196 A3.22,3.22,0,0,0,-2.3929263380372094,2.154600552475524 L-3.1360711635146044,2.823731158834382 A4.220000000000001,4.220000000000001,0,0,1,-3.5787629657801188,2.2362592950641247 Z" fill="#ab5676" stroke="black" stroke-width="0.07" />
<path d="M-2.941616373609176,1.3096919907040756 A3.22,3.22,0,0,0,-2.7886018001858925,1.6100000000000005 L-3.6546272039703314,2.1100000000000008 A4.220000000000001,4.220000000000001,0,0,1,-3.855161831251777,1.7164286337798755 Z" fill="#976b92" stroke="black" stroke-width="0.07" />
<path d="M-3.1102811606508003,0.8333973252301156 A3.22,3.22,0,0,0,-3.00612897332099,1.1539447975358674 L-3.939709399818192,1.5123127470811681 A4.220000000000001,4.220000000000001,0,0,1,-4.076206986939869,1.092216370332636 Z" fill="#937098" stroke="black" stroke-width="0.07" />
<path d="M-3.2023605030858406,0.33658165172184284 A3.22,3.22,0,0,0,-3.1496352743628546,0.6694756444331842 L-4.127782875096661,0.8773873352509434 A4.220000000000001,4.220000000000001,0,0,1,-4.196882398454115,0.441110114989496 Z" fill="#8e759f" stroke="black" stroke-width="0.07" />
<path d="M-3.195998608285057,-0.39241928576457513 A3.22,3.22,0,0,0,-3.2077469278554207,0.2806414916474586 L-4.2039416259471665,0.3677972343951166 A4.220000000000001,4.220000000000001,0,0,1,-4.188544759926379,-0.5142886291697227 Z" fill="#897ba6" stroke="black" stroke-width="0.07" />
<path d="M-3.0624019824703947,-0.995034721887331 A3.22,3.22,0,0,0,-3.17108096469931,-0.5591471320875155 L-4.155888717711519,-0.7327953097544458 A4.220000000000001,4.220000000000001,0,0,1,-4.013458498765549,-1.3040517162622787 Z" fill="#8283af" stroke="black" stroke-width="0.07" />
<path d="M-2.537394626613645,-1.9824299505486203 A3.22,3.22,0,0,0,-3.025810238930625,-1.1013048615086538 L-3.965502859716534,-1.443325004834323 A4.220000000000001,4.220000000000001,0,0,1,-3.325405380220367,-2.5980914258742787 Z" fill="#7c8eae" stroke="black" stroke-width="0.07" />
<path d="M-1.8006011491758045,-2.6695009836272345 A3.22,3.22,0,0,0,-2.276883835420683,-2.2768838354206835 L-2.9839906166072305,-2.9839906166072314 A4.220000000000001,4.220000000000001,0,0,1,-2.3597940526465515,-3.4985385561822766 Z" fill="#7aa58a" stroke="black" stroke-width="0.07" />
<path d="M-1.206233230799237,-2.9855320117050557 A3.22,3.22,0,0,0,-1.6584226012103749,-2.760078708260802 L-2.1734606761204294,-3.6172460089629146 A4.220000000000001,4.220000000000001,0,0,1,-1.5808398242151491,-3.9127158662718435 Z" fill="#79b273" stroke="black" stroke-width="0.07" />
<path d="M-0.056196748728052796,-3.21950957840358 A3.22,3.22,0,0,0,-1.1013048615086534,-3.0258102389306254 L-1.4433250048343222,-3.9655028597165343 A4.220000000000001,4.220000000000001,0,0,1,-0.07364915516533628,-4.219357273559972 Z" fill="#81c458" stroke="black" stroke-width="0.07" />
<path d="M0.6144049651124747,-3.160839530701478 A3.22,3.22,0,0,0,0.2806414916474592,-3.2077469278554207 L0.3677972343951174,-4.2039416259471665 A4.220000000000001,4.220000000000001,0,0,1,0.8052139604890197,-4.142466714149142 Z" fill="#b2db35" stroke="black" stroke-width="0.07" />
<path d="M1.1013048615086536,-3.025810238930625 A3.22,3.22,0,0,0,0.7789885038309307,-3.124352238608709 L1.0209103994305986,-4.094647964884706 A4.220000000000001,4.220000000000001,0,0,1,1.4433250048343227,-3.965502859716534 Z" fill="#cae625" stroke="black" stroke-width="0.07" />
<path d="M1.5610869771932057,-2.8162754569888544 A3.22,3.22,0,0,0,1.258154233735462,-2.964025628116858 L1.6488853622247364,-3.8845304815692985 A4.220000000000001,4.220000000000001,0,0,1,2.045896597439543,-3.690895164128251 Z" fill="#e1f114" stroke="black" stroke-width="0.07" />
<path d="M2.605034721887331,-1.8926685123817637 A3.22,3.22,0,0,0,1.6100000000000005,-2.7886018001858925 L2.1100000000000008,-3.6546272039703314 A4.220000000000001,4.220000000000001,0,0,1,3.4140517162622785,-2.480453764674237 Z" fill="#fcf600" stroke="black" stroke-width="0.07" />
<path d="M3.095262660921387,-0.8875522857307374 A3.22,3.22,0,0,0,2.637669582610554,-1.8469161250503683 L3.4568216268995458,-2.4204925614014146 A4.220000000000001,4.220000000000001,0,0,1,4.056524356859707,-1.1631896415477367 Z" fill="#efcf00" stroke="black" stroke-width="0.07" />
<path d="M3.1374716086084575,0.7243423949872454 A3.22,3.22,0,0,0,3.17108096469931,-0.5591471320875157 L4.155888717711519,-0.7327953097544461 A4.220000000000001,4.220000000000001,0,0,1,4.111841673393694,0.9492934493311105 Z" fill="#e29b00" stroke="black" stroke-width="0.07" />
<path d="M2.869041007886545,1.4618494091613405 A3.22,3.22,0,0,0,3.1102811606508003,0.8333973252301168 L4.0762069869398685,1.0922163703326377 A4.220000000000001,4.220000000000001,0,0,1,3.760047532074913,1.9158399089008875 Z" fill="#ee5d00" stroke="black" stroke-width="0.07" />
<path d="M2.537394626613645,1.9824299505486194 A3.22,3.22,0,0,0,2.788601800185893,1.6099999999999999 L3.654627203970332,2.11 A4.220000000000001,4.220000000000001,0,0,1,3.3254053802203676,2.5980914258742778 Z" fill="#f53300" stroke="black" stroke-width="0.07" />
<path d="M2.1960347194012453,2.354958919213729 A3.22,3.22,0,0,0,2.4666631068431095,2.0697761031906565 L3.232707549962088,2.712563712877196 A4.220000000000001,4.220000000000001,0,0,1,2.878033079463744,3.0863126208328997 Z" fill="#fb1400" stroke="black" stroke-width="0.07" />
<path d="M1.26596948144945,4.140799593319944 A4.33,4.33,0,0,0,2.783270349942715,3.3169724387051756 L3.4260579596292544,4.083016881824154 A5.33,5.33,0,0,1,1.5583411861721868,5.097104349282979 Z" fill="#ff0000" stroke="black" stroke-width="0.07" />
<path d="M-0.6026195271570812,4.287860737651 A4.33,4.33,0,0,0,1.1206864652939166,4.182458827831665 L1.3795055103964375,5.148384654120734 A5.33,5.33,0,0,1,-0.7417926281171461,5.27812880639257 Z" fill="#ff0000" stroke="black" stroke-width="0.07" />
<path d="M-1.2659694814494518,4.140799593319943 A4.33,4.33,0,0,0,-0.7518966092978083,4.26421757054286 L-0.9255447869647386,5.249025323555069 A5.33,5.33,0,0,1,-1.5583411861721888,5.097104349282978 Z" fill="#fa0405" stroke="black" stroke-width="0.07" />
<path d="M-1.6918657863585558,3.9857860154490665 A4.33,4.33,0,0,0,-1.4097101087994883,4.094095432345042 L-1.735278263256645,5.039614007944359 A5.33,5.33,0,0,1,-2.0825969148478296,4.906290868901507 Z" fill="#eb131b" stroke="black" stroke-width="0.07" />
<path d="M-2.358287021615067,3.631443559203686 A4.33,4.33,0,0,0,-2.032811866862907,3.823163077079154 L-2.5022834296487977,4.706110669938081 A5.33,5.33,0,0,1,-2.902926056630094,4.4701141271491105 Z" fill="#d82736" stroke="black" stroke-width="0.07" />
<path d="M-3.114741335466359,3.007870744087459 A4.33,4.33,0,0,0,-2.483585969400031,3.5469283517713337 L-3.057162405751077,4.366080396060325 A5.33,5.33,0,0,1,-3.83408113580501,3.702529114546456 Z" fill="#c43c52" stroke="black" stroke-width="0.07" />
<path d="M-3.458091758504779,2.6058590502483683 A4.33,4.33,0,0,0,-3.217817094317117,2.8973355255338564 L-3.9609619197945114,3.5664661318927147 A5.33,5.33,0,0,1,-4.256727268552072,3.2076740734004163 Z" fill="#b0516e" stroke="black" stroke-width="0.07" />
<path d="M-3.985786015449067,1.6918657863585544 A4.33,4.33,0,0,0,-3.749889998386619,2.1650000000000005 L-4.615915402171058,2.6650000000000005 A5.33,5.33,0,0,1,-4.9062908689015075,2.082596914847828 Z" fill="#976b92" stroke="black" stroke-width="0.07" />
<path d="M-4.201380494775065,1.0475218079465602 A4.33,4.33,0,0,0,-4.042403246732883,1.551733221531151 L-4.975983673230085,1.9101011710764513 A5.33,5.33,0,0,1,-5.171676221051062,1.2894437035462278 Z" fill="#927098" stroke="black" stroke-width="0.07" />
<path d="M-4.313523042737258,0.3773843660973589 A4.33,4.33,0,0,0,-4.235379111177378,0.9002576212408968 L-5.213526711911184,1.1081693120586558 A5.33,5.33,0,0,1,-5.3097177408290035,0.46454010884501684 Z" fill="#8e759f" stroke="black" stroke-width="0.07" />
<path d="M-4.324065885487305,-0.2266146905319467 A4.33,4.33,0,0,0,-4.313523042737258,0.3773843660973589 L-5.3097177408290035,0.46454010884501684 A5.33,5.33,0,0,1,-5.322695420241879,-0.2789506467748905 Z" fill="#8a7aa4" stroke="black" stroke-width="0.07" />
<path d="M-4.140799593319944,-1.2659694814494515 A4.33,4.33,0,0,0,-4.26421757054286,-0.7518966092978081 L-5.249025323555069,-0.9255447869647384 A5.33,5.33,0,0,1,-5.097104349282979,-1.5583411861721885 Z" fill="#8282af" stroke="black" stroke-width="0.07" />
<path d="M-3.365042013108683,-2.7249572932457973 A4.33,4.33,0,0,0,-4.068869048002983,-1.4809472206001462 L-5.008561668788891,-1.822967363925815 A5.33,5.33,0,0,1,-4.142187974565654,-3.354277684295635 Z" fill="#7c8eae" stroke="black" stroke-width="0.07" />
<path d="M-2.545110142426408,-3.5030435856435225 A4.33,4.33,0,0,0,-3.0617723625377504,-3.061772362537751 L-3.768879143724298,-3.7688791437242988 A5.33,5.33,0,0,1,-3.132895394718881,-4.31206058001847 Z" fill="#7aa38b" stroke="black" stroke-width="0.07" />
<path d="M-1.6220465494908993,-4.014706090274189 A4.33,4.33,0,0,0,-2.230114864360535,-3.7115344120401463 L-2.7451529392705893,-4.568701712742259 A5.33,5.33,0,0,1,-1.9966531429068113,-4.941889944840977 Z" fill="#79b273" stroke="black" stroke-width="0.07" />
<path d="M-0.1511148207218282,-4.327362280992685 A4.33,4.33,0,0,0,-1.4809472206001455,-4.068869048002983 L-1.8229673639258142,-5.008561668788892 A5.33,5.33,0,0,1,-0.18601431742432892,-5.326753108011781 Z" fill="#80c458" stroke="black" stroke-width="0.07" />
<path d="M0.9002576212408985,-4.235379111177378 A4.33,4.33,0,0,0,0.37738436609735976,-4.313523042737258 L0.4645401088450179,-5.3097177408290035 A5.33,5.33,0,0,1,1.108169312058658,-5.213526711911184 Z" fill="#b3db34" stroke="black" stroke-width="0.07" />
<path d="M1.5517332215311506,-4.042403246732883 A4.33,4.33,0,0,0,1.047521807946562,-4.201380494775065 L1.2894437035462298,-5.171676221051062 A5.33,5.33,0,0,1,1.910101171076451,-4.975983673230085 Z" fill="#cbe624" stroke="black" stroke-width="0.07" />
<path d="M2.1650000000000005,-3.749889998386619 A4.33,4.33,0,0,0,1.6918657863585562,-3.9857860154490665 L2.08259691484783,-4.906290868901507 A5.33,5.33,0,0,1,2.6650000000000005,-4.615915402171058 Z" fill="#e3f113" stroke="black" stroke-width="0.07" />
<path d="M3.5469283517713346,-2.4835859694000293 A4.33,4.33,0,0,0,2.1650000000000005,-3.749889998386619 L2.6650000000000005,-4.615915402171058 A5.33,5.33,0,0,1,4.366080396060326,-3.0571624057510753 Z" fill="#fbf500" stroke="black" stroke-width="0.07" />
<path d="M3.8917782204753935,-1.8981470655967052 A4.33,4.33,0,0,0,3.5469283517713346,-2.4835859694000293 L4.366080396060326,-3.0571624057510753 A5.33,5.33,0,0,1,4.790572266774561,-2.3365182123857826 Z" fill="#f1d700" stroke="black" stroke-width="0.07" />
<path d="M4.201380494775065,-1.0475218079465614 A4.33,4.33,0,0,0,3.985786015449067,-1.6918657863585551 L4.9062908689015075,-2.0825969148478287 A5.33,5.33,0,0,1,5.171676221051062,-1.289443703546229 Z" fill="#eac200" stroke="black" stroke-width="0.07" />
<path d="M4.219022380520069,0.9740380653089354 A4.33,4.33,0,0,0,4.26421757054286,-0.7518966092978083 L5.249025323555069,-0.9255447869647386 A5.33,5.33,0,0,1,5.193392445305304,1.1989891196528004 Z" fill="#e29b00" stroke="black" stroke-width="0.07" />
<path d="M3.823163077079154,2.0328118668629074 A4.33,4.33,0,0,0,4.182458827831666,1.1206864652939148 L5.1483846541207345,1.3795055103964355 A5.33,5.33,0,0,1,4.706110669938081,2.502283429648798 Z" fill="#ee5b00" stroke="black" stroke-width="0.07" />
<path d="M3.4120865631171062,2.6658141881601 A4.33,4.33,0,0,0,3.7498899983866196,2.1649999999999996 L4.6159154021710584,2.6649999999999996 A5.33,5.33,0,0,1,4.200097316723828,3.2814756634857583 Z" fill="#f53300" stroke="black" stroke-width="0.07" />
<path d="M3.007870744087459,3.114741335466359 A4.33,4.33,0,0,0,3.3169724387051747,2.783270349942715 L4.083016881824153,3.4260579596292544 A5.33,5.33,0,0,1,3.702529114546456,3.83408113580501 Z" fill="#fa1600" stroke="black" stroke-width="0.07" />
<path d="M1.590502073691688,5.202297872438913 A5.44,5.44,0,0,0,3.496764596694774,4.167281770567241 L4.139552206381313,4.933326213686219 A6.44,6.44,0,0,1,1.8828737784144245,6.158602628401948 Z" fill="#ff0000" stroke="black" stroke-width="0.07" />
<path d="M1.0380009348484007,5.340051877955293 A5.44,5.44,0,0,0,1.407975605357715,5.254636495012531 L1.6667946504602362,6.2205623213016 A6.44,6.44,0,0,1,1.2288099302249451,6.321679061402957 Z" fill="#ff0000" stroke="black" stroke-width="0.07" />
<path d="M0.3794752171680412,5.426748433413445 A5.44,5.44,0,0,0,0.7571016692227562,5.387058293954143 L0.8962747701828216,6.3773263626957135 A6.44,6.44,0,0,1,0.4492316909121664,6.424312483673269 Z" fill="#ff0000" stroke="black" stroke-width="0.07" />
<path d="M-0.28470760196161704,5.432544669064882 A5.44,5.44,0,0,0,0.09494109101882023,5.439171461650769 L0.11239349745610336,6.43901915680716 A6.44,6.44,0,0,1,-0.33704355820456133,6.431174203819456 Z" fill="#ff0000" stroke="black" stroke-width="0.07" />
<path d="M-1.59050207369169,5.202297872438913 A5.44,5.44,0,0,0,-0.9446460865081011,5.357354176386412 L-1.1182942641750313,6.34216192939862 A6.44,6.44,0,0,1,-1.8828737784144272,6.1586026284019475 Z" fill="#fa0405" stroke="black" stroke-width="0.07" />
<path d="M-2.1255773389816497,5.0075464027812755 A5.44,5.44,0,0,0,-1.7710907602469323,5.143621051260284 L-2.096658914704089,6.089139626859601 A6.44,6.44,0,0,1,-2.5163084674709237,5.928051256233716 Z" fill="#eb131b" stroke="black" stroke-width="0.07" />
<path d="M-3.042009394880865,4.509964394699425 A5.44,5.44,0,0,0,-2.5539253015552457,4.803234905152563 L-3.0233968643411364,5.68618249801149 A6.44,6.44,0,0,1,-3.6012022983516125,5.339001967254467 Z" fill="#d72837" stroke="black" stroke-width="0.07" />
<path d="M-3.913208513842262,3.778941535296946 A5.44,5.44,0,0,0,-3.1202558137496927,4.456187120932115 L-3.693832250100739,5.275339165221106 A6.44,6.44,0,0,1,-4.632548314180913,4.473599905755943 Z" fill="#c43c52" stroke="black" stroke-width="0.07" />
<path d="M-4.286778499620569,3.349198425771579 A5.44,5.44,0,0,0,-4.042707850597025,3.640070498592189 L-4.785852676074419,4.309201104951048 A6.44,6.44,0,0,1,-5.074789253227292,3.964859901097237 Z" fill="#b1506d" stroke="black" stroke-width="0.07" />
<path d="M-4.711178196587347,2.7200000000000006 A5.44,5.44,0,0,0,-4.509964394699428,3.042009394880862 L-5.33900196725447,3.601202298351609 A6.44,6.44,0,0,1,-5.577203600371785,3.220000000000001 Z" fill="#a16084" stroke="black" stroke-width="0.07" />
<path d="M-4.930314361479376,2.2990433438694042 A5.44,5.44,0,0,0,-4.711178196587347,2.7200000000000006 L-5.577203600371785,3.220000000000001 A6.44,6.44,0,0,1,-5.836622148516026,2.7216616056101035 Z" fill="#986a90" stroke="black" stroke-width="0.07" />
<path d="M-5.202297872438914,1.590502073691686 A5.44,5.44,0,0,0,-5.078677520144778,1.9495216455264346 L-6.01225794664198,2.307889595071735 A6.44,6.44,0,0,1,-6.158602628401949,1.8828737784144225 Z" fill="#936f97" stroke="black" stroke-width="0.07" />
<path d="M-5.419299157619096,0.47412724054725924 A5.44,5.44,0,0,0,-5.3211229479919036,1.1310395980486094 L-6.299270548725709,1.3389512888663684 A6.44,6.44,0,0,1,-6.415493855710841,0.5612829832949172 Z" fill="#8e759f" stroke="black" stroke-width="0.07" />
<path d="M-5.426748433413444,-0.3794752171680429 A5.44,5.44,0,0,0,-5.419299157619096,0.47412724054725924 L-6.415493855710841,0.5612829832949172 A6.44,6.44,0,0,1,-6.424312483673268,-0.4492316909121684 Z" fill="#8a7aa5" stroke="black" stroke-width="0.07" />
<path d="M-5.173747448645636,-1.6810524493997145 A5.44,5.44,0,0,0,-5.357354176386412,-0.9446460865081008 L-6.34216192939862,-1.118294264175031 A6.44,6.44,0,0,1,-6.1248039649407895,-1.990069443774662 Z" fill="#8283af" stroke="black" stroke-width="0.07" />
<path d="M-4.889439611867469,-2.384739038532581 A5.44,5.44,0,0,0,-5.111927857075342,-1.8605895796916387 L-6.05162047786125,-2.2026097230173076 A6.44,6.44,0,0,1,-5.788233658166636,-2.823110185321658 Z" fill="#7d88b6" stroke="black" stroke-width="0.07" />
<path d="M-4.456187120932115,-3.1202558137496927 A5.44,5.44,0,0,0,-4.757931206838313,-2.6373643341400745 L-5.632550913977709,-3.1221739543864118 A6.44,6.44,0,0,1,-5.275339165221106,-3.693832250100739 Z" fill="#7c91a9" stroke="black" stroke-width="0.07" />
<path d="M-3.4967645966947742,-4.16728177056724 A5.44,5.44,0,0,0,-3.8466608896548187,-3.846660889654819 L-4.553767670841366,-4.553767670841367 A6.44,6.44,0,0,1,-4.139552206381314,-4.933326213686219 Z" fill="#7aa18f" stroke="black" stroke-width="0.07" />
<path d="M-2.037859868182562,-5.043880168843324 A5.44,5.44,0,0,0,-2.8018071275106955,-4.6629901158194915 L-3.3168452024207498,-5.520157416521604 A6.44,6.44,0,0,1,-2.412466461598474,-5.971064023410111 Z" fill="#79b273" stroke="black" stroke-width="0.07" />
<path d="M-0.09494109101882212,-5.439171461650769 A5.44,5.44,0,0,0,-1.8605895796916379,-5.111927857075342 L-2.2026097230173067,-6.051620477861251 A6.44,6.44,0,0,1,-0.11239349745610559,-6.43901915680716 Z" fill="#81c458" stroke="black" stroke-width="0.07" />
<path d="M0.9446460865081016,-5.357354176386412 A5.44,5.44,0,0,0,0.4741272405472603,-5.419299157619096 L0.5612829832949184,-6.415493855710841 A6.44,6.44,0,0,1,1.118294264175032,-6.34216192939862 Z" fill="#b1da36" stroke="black" stroke-width="0.07" />
<path d="M1.9495216455264341,-5.078677520144778 A5.44,5.44,0,0,0,1.3160551120621935,-5.278408750941421 L1.5579770076618613,-6.248704477217418 A6.44,6.44,0,0,1,2.3078895950717344,-6.01225794664198 Z" fill="#cbe624" stroke="black" stroke-width="0.07" />
<path d="M2.801807127510696,-4.662990115819491 A5.44,5.44,0,0,0,2.1255773389816506,-5.0075464027812755 L2.516308467470924,-5.928051256233716 A6.44,6.44,0,0,1,3.31684520242075,-5.520157416521603 Z" fill="#e4f212" stroke="black" stroke-width="0.07" />
<path d="M3.846660889654819,-3.8466608896548187 A5.44,5.44,0,0,0,2.7200000000000006,-4.711178196587347 L3.220000000000001,-5.577203600371785 A6.44,6.44,0,0,1,4.553767670841367,-4.553767670841366 Z" fill="#fefe00" stroke="black" stroke-width="0.07" />
<path d="M4.456187120932116,-3.1202558137496905 A5.44,5.44,0,0,0,4.042707850597025,-3.640070498592189 L4.785852676074419,-4.309201104951048 A6.44,6.44,0,0,1,5.275339165221108,-3.6938322501007366 Z" fill="#f6e500" stroke="black" stroke-width="0.07" />
<path d="M4.6629901158194915,-2.8018071275106946 A5.44,5.44,0,0,0,4.456187120932116,-3.1202558137496905 L5.275339165221108,-3.6938322501007366 A6.44,6.44,0,0,1,5.520157416521604,-3.316845202420749 Z" fill="#f3dc00" stroke="black" stroke-width="0.07" />
<path d="M4.969687289575749,-2.212647338332353 A5.44,5.44,0,0,0,4.803234905152563,-2.553925301555246 L5.68618249801149,-3.023396864341137 A6.44,6.44,0,0,1,5.88323274721835,-2.619383981408153 Z" fill="#efd000" stroke="black" stroke-width="0.07" />
<path d="M5.229263625904455,-1.4994672156444755 A5.44,5.44,0,0,0,5.007546402781276,-2.1255773389816492 L5.928051256233716,-2.516308467470923 A6.44,6.44,0,0,1,6.190525321842774,-1.7751045714614748 Z" fill="#ebc400" stroke="black" stroke-width="0.07" />
<path d="M5.30057315243168,1.2237337356306257 A5.44,5.44,0,0,0,5.357354176386412,-0.9446460865081011 L6.34216192939862,-1.1182942641750313 A6.44,6.44,0,0,1,6.274943217216915,1.4486847899744908 Z" fill="#e29b00" stroke="black" stroke-width="0.07" />
<path d="M4.803234905152563,2.553925301555246 A5.44,5.44,0,0,0,5.254636495012532,1.4079756053577128 L6.220562321301601,1.6667946504602336 A6.44,6.44,0,0,1,5.68618249801149,3.023396864341137 Z" fill="#ee5b00" stroke="black" stroke-width="0.07" />
<path d="M4.286778499620568,3.3491984257715806 A5.44,5.44,0,0,0,4.711178196587347,2.7199999999999998 L5.577203600371786,3.2199999999999998 A6.44,6.44,0,0,1,5.07478925322729,3.9648599010972387 Z" fill="#f53300" stroke="black" stroke-width="0.07" />
<path d="M3.710071078739992,3.978564136808288 A5.44,5.44,0,0,0,4.16728177056724,3.496764596694774 L4.933326213686219,4.139552206381313 A6.44,6.44,0,0,1,4.392069438802491,4.709917838427458 Z" fill="#fb1400" stroke="black" stroke-width="0.07" />
</svg>