<?xml version="1.0" encoding="UTF-8"?>
<svg xmlns="http://www.w3.org/2000/svg" xmlns:xlink="http://www.w3.org/1999/xlink"
     width="600" height="600.0" viewBox="-7.0 -7.0 14 14">
<defs>
</defs>
<path d="M0.5000000000000001,0.8660254037844386 A1.0,1.0,0,1,0,0.4694715627858902,0.8829475928589272 L0.9389431255717804,1.7658951857178544 A2.0,2.0,0,1,1,1.0000000000000002,1.7320508075688772 Z" fill="red" stroke="black" stroke-width="0.07" />
<path d="M0.39879080033697745,2.0516008134056176 A2.09,2.09,0,0,0,1.0450000000000002,1.8099930939094766 L1.5450000000000004,2.676018497693915 A3.09,3.09,0,0,1,0.5895997957135217,3.033227996853282 Z" fill="#ff0000" stroke="black" stroke-width="0.07" />
<path d="M-0.39879080033698,2.051600813405617 A2.09,2.09,0,0,0,0.2908717810065368,2.0696602636698818 L0.4300448819666023,3.0599283324114523 A3.09,3.09,0,0,1,-0.5895997957135255,3.0332279968532814 Z" fill="#ff0000" stroke="black" stroke-width="0.07" />
<path d="M-1.1382955831814063,1.7528214870059362 A2.09,2.09,0,0,0,-0.5056167618033056,2.0279180679168327 L-0.7475386574029734,2.998213794192829 A3.09,3.09,0,0,1,-1.6829346181964333,2.59149205495136 Z" fill="#fa0405" stroke="black" stroke-width="0.07" />
<path d="M-1.7120277725639932,1.1987747519736858 A2.09,2.09,0,0,0,-1.228471177291269,1.69084551824364 L-1.8162564295837422,2.4998625126185874 A3.09,3.09,0,0,1,-2.531179816852985,1.7723511883247316 Z" fill="#ce3244" stroke="black" stroke-width="0.07" />
<path d="M-2.0364334354011415,0.47014770357867774 A2.09,2.09,0,0,0,-1.7724205209669304,1.1075312622473978 L-2.620468617123356,1.6374505264806027 A3.09,3.09,0,0,1,-3.010803500186377,0.6950987579225427 Z" fill="#a25f82" stroke="black" stroke-width="0.07" />
<path d="M-2.0642686318438375,-0.32694803193408273 A2.09,2.09,0,0,0,-2.0582482037955145,0.36292469132388466 L-3.0430559568077227,0.5365728689908151 A3.09,3.09,0,0,1,-3.0519569724389752,-0.4833824969743137 Z" fill="#8f749d" stroke="black" stroke-width="0.07" />
<path d="M-1.7914796584674144,-1.0764295765620135 A2.09,2.09,0,0,0,-2.044328485533654,-0.4345354338091169 L-3.0224760862674596,-0.6424471246268763 A3.09,3.09,0,0,1,-2.6486469591695267,-1.591467651472068 Z" fill="#8381ad" stroke="black" stroke-width="0.07" />
<path d="M-1.257793398387781,-1.6691482159988418 A2.09,2.09,0,0,0,-1.732688526640037,-1.168713168253861 L-2.5617260991950785,-1.7279060717246078 A3.09,3.09,0,0,1,-1.8596084215398294,-2.4677837260461346 Z" fill="#7c92a7" stroke="black" stroke-width="0.07" />
<path d="M-0.5409318042642686,-2.018784976944153 A2.09,2.09,0,0,0,-1.1687131682538605,-1.7326885266400371 L-1.727906071724607,-2.561726099195079 A3.09,3.09,0,0,1,-0.7997508493667894,-2.984710803233221 Z" fill="#79aa81" stroke="black" stroke-width="0.07" />
<path d="M0.25470692771675824,-2.074421456930363 A2.09,2.09,0,0,0,-0.4345354338091165,-2.044328485533654 L-0.6424471246268757,-3.0224760862674596 A3.09,3.09,0,0,1,0.3765762711219057,-3.0669676085716846 Z" fill="#7cc25b" stroke="black" stroke-width="0.07" />
<path d="M1.0132521063148445,-1.827955187921337 A2.09,2.09,0,0,0,0.36292469132388455,-2.0582482037955145 L0.5365728689908149,-3.0430559568077227 A3.09,3.09,0,0,1,1.4980617265611815,-2.702574895060733 Z" fill="#b6dd33" stroke="black" stroke-width="0.07" />
<path d="M1.6242350594450692,-1.31527961729416 A2.09,2.09,0,0,0,1.107531262247398,-1.7724205209669301 L1.637450526480603,-2.620468617123356 A3.09,3.09,0,0,1,2.40138102090204,-1.9446000083439974 Z" fill="#f0f80a" stroke="black" stroke-width="0.07" />
<path d="M1.998676939962744,-0.6110568628705199 A2.09,2.09,0,0,0,1.6908455182436402,-1.2284711772912689 L2.4998625126185874,-1.816256429583742 A3.09,3.09,0,0,1,2.9549816959257793,-0.9034285675932566 Z" fill="#f5e200" stroke="black" stroke-width="0.07" />
<path d="M2.082046919011748,0.18215550234260555 A2.09,2.09,0,0,0,2.0279180679168327,-0.5056167618033055 L2.998213794192829,-0.7475386574029732 A3.09,3.09,0,0,1,3.0782416171034934,0.2693112450902637 Z" fill="#e8bb00" stroke="black" stroke-width="0.07" />
<path d="M1.8622036355536888,0.9488401444556527 A2.09,2.09,0,0,0,2.0696602636698818,0.29087178100653677 L3.0599283324114523,0.4300448819666022 A3.09,3.09,0,0,1,2.7532101597420566,1.4028306441951994 Z" fill="#e68800" stroke="black" stroke-width="0.07" />
<path d="M1.37116337059016,1.5773430226655933 A2.09,2.09,0,0,0,1.8099930939094768,1.0449999999999997 L2.6760184976939154,1.5449999999999997 A3.09,3.09,0,0,1,2.0272223995806673,2.3320526028883655 Z" fill="#f34100" stroke="black" stroke-width="0.07" />
<path d="M1.1382955831814068,1.752821487005936 A2.09,2.09,0,0,0,1.2867324834306257,1.6469424750380488 L1.9023939587562841,2.434953228644771 A3.09,3.09,0,0,1,1.682934618196434,2.59149205495136 Z" fill="#fb1100" stroke="black" stroke-width="0.07" />
<path d="M0.5522012049808374,3.131688654578822 A3.18,3.18,0,0,0,1.5900000000000005,2.753960784034515 L2.0900000000000003,3.619986187818953 A4.18,4.18,0,0,1,0.7258493826477672,4.11649640759103 Z" fill="#ff0000" stroke="black" stroke-width="0.07" />
<path d="M-0.6611591768004762,3.110509370333502 A3.18,3.18,0,0,0,0.4425704610530082,3.149052458598194 L0.5817435620130736,4.1393205273397635 A4.18,4.18,0,0,1,-0.8690708676182358,4.088656971067307 Z" fill="#ff0000" stroke="black" stroke-width="0.07" />
<path d="M-1.7782334330369762,2.6363394807250318 A3.18,3.18,0,0,0,-0.7693116280069436,3.085540409557669 L-1.0112335236066112,4.055836135833665 A4.18,4.18,0,0,1,-2.3374263365077232,3.465377053280073 Z" fill="#f90507" stroke="black" stroke-width="0.07" />
<path d="M-2.636339480725033,1.7782334330369745 A3.18,3.18,0,0,0,-1.869157102290065,2.572674042112333 L-2.456942354582538,3.38169103648728 A4.18,4.18,0,0,1,-3.4653770532800747,2.337426336507721 Z" fill="#cd3345" stroke="black" stroke-width="0.07" />
<path d="M-3.110509370333502,0.6611591768004739 A3.18,3.18,0,0,0,-2.696792945777435,1.6851432602615912 L-3.5448410419338607,2.2150625244947957 A4.18,4.18,0,0,1,-4.088656971067308,0.8690708676182328 Z" fill="#a16084" stroke="black" stroke-width="0.07" />
<path d="M-3.131688654578822,-0.5522012049808384 A3.18,3.18,0,0,0,-3.131688654578822,0.5522012049808389 L-4.116496407591029,0.7258493826477693 A4.18,4.18,0,0,1,-4.116496407591029,-0.7258493826477685 Z" fill="#8f759e" stroke="black" stroke-width="0.07" />
<path d="M-2.696792945777435,-1.6851432602615917 A3.18,3.18,0,0,0,-3.110509370333502,-0.6611591768004746 L-4.088656971067308,-0.8690708676182338 A4.18,4.18,0,0,1,-3.5448410419338603,-2.215062524494796 Z" fill="#8381ae" stroke="black" stroke-width="0.07" />
<path d="M-1.8691571022900644,-2.572674042112333 A3.18,3.18,0,0,0,-2.6363394807250327,-1.7782334330369753 L-3.465377053280074,-2.337426336507722 A4.18,4.18,0,0,1,-2.4569423545825373,-3.3816910364872803 Z" fill="#7c93a6" stroke="black" stroke-width="0.07" />
<path d="M-0.7693116280069436,-3.085540409557669 A3.18,3.18,0,0,0,-1.7782334330369745,-2.6363394807250327 L-2.337426336507721,-3.4653770532800743 A4.18,4.18,0,0,1,-1.0112335236066112,-4.055836135833665 Z" fill="#79aa80" stroke="black" stroke-width="0.07" />
<path d="M0.4425704610530089,-3.1490524585981934 A3.18,3.18,0,0,0,-0.6611591768004741,-3.110509370333502 L-0.869070867618233,-4.088656971067308 A4.18,4.18,0,0,1,0.5817435620130745,-4.1393205273397635 Z" fill="#7dc25a" stroke="black" stroke-width="0.07" />
<path d="M1.5900000000000005,-2.753960784034515 A3.18,3.18,0,0,0,0.5522012049808388,-3.131688654578822 L0.7258493826477691,-4.116496407591029 A4.18,4.18,0,0,1,2.0900000000000003,-3.619986187818953 Z" fill="#b7dd32" stroke="black" stroke-width="0.07" />
<path d="M2.5058741964693763,-1.957803491535593 A3.18,3.18,0,0,0,1.6851432602615917,-2.696792945777435 L2.215062524494796,-3.5448410419338603 A4.18,4.18,0,0,1,3.2938849500760976,-2.573464966861251 Z" fill="#f1f809" stroke="black" stroke-width="0.07" />
<path d="M3.056812193083854,-0.8765267914980573 A3.18,3.18,0,0,0,2.572674042112333,-1.8691571022900646 L3.3816910364872803,-2.4569423545825377 A4.18,4.18,0,0,1,4.0180738890221726,-1.1521641473150563 Z" fill="#f5e100" stroke="black" stroke-width="0.07" />
<path d="M3.1625796272711093,0.332400513191138 A3.18,3.18,0,0,0,3.085540409557669,-0.7693116280069434 L4.055836135833665,-1.011233523606611 A4.18,4.18,0,0,1,4.157101522639382,0.4369289764587914 Z" fill="#e8bb00" stroke="black" stroke-width="0.07" />
<path d="M2.807773345291388,1.4929195696591329 A3.18,3.18,0,0,0,3.149052458598194,0.4425704610530081 L4.1393205273397635,0.5817435620130735 A4.18,4.18,0,0,1,3.6907209381503145,1.9623911324450234 Z" fill="#e68600" stroke="black" stroke-width="0.07" />
<path d="M2.044064598803195,2.43602132911835 A3.18,3.18,0,0,0,2.7539607840345153,1.5899999999999999 L3.6199861878189536,2.0899999999999994 A4.18,4.18,0,0,1,2.6868522084897344,3.202065772237328 Z" fill="#f34000" stroke="black" stroke-width="0.07" />
<path d="M1.7319521313477866,2.6669724060664484 A3.18,3.18,0,0,0,1.9578034915355935,2.5058741964693763 L2.5734649668612515,3.2938849500760976 A4.18,4.18,0,0,1,2.2765911663628136,3.505642974011872 Z" fill="#fb1100" stroke="black" stroke-width="0.07" />
<path d="M0.7414777186377911,4.205129105362129 A4.2700000000000005,4.2700000000000005,0,0,0,2.1350000000000007,3.697928474159553 L2.6350000000000007,4.563953877943992 A5.2700000000000005,5.2700000000000005,0,0,1,0.9151258963047211,5.189936858374337 Z" fill="#ff0000" stroke="black" stroke-width="0.07" />
<path d="M-0.8877829197918344,4.176690255133351 A4.2700000000000005,4.2700000000000005,0,0,0,0.5942691410994796,4.228444653526506 L0.7334422420595451,5.2187127222680765 A5.2700000000000005,5.2700000000000005,0,0,1,-1.0956946106095942,5.1548378558671555 Z" fill="#ff0000" stroke="black" stroke-width="0.07" />
<path d="M-2.387753697820091,3.539990434810027 A4.2700000000000005,4.2700000000000005,0,0,0,-1.0330064942105817,4.143162751198505 L-1.2749283898102493,5.113458477474502 A5.2700000000000005,5.2700000000000005,0,0,1,-2.946946601290838,4.369028007365069 Z" fill="#f90507" stroke="black" stroke-width="0.07" />
<path d="M-3.5399904348100293,2.3877536978200884 A4.2700000000000005,4.2700000000000005,0,0,0,-2.509843027288861,3.4545025659810253 L-3.0976282795813344,4.263519560355973 A5.2700000000000005,5.2700000000000005,0,0,1,-4.369028007365071,2.9469466012908354 Z" fill="#cd3345" stroke="black" stroke-width="0.07" />
<path d="M-4.176690255133351,0.8877829197918313 A4.2700000000000005,4.2700000000000005,0,0,0,-3.62116537058794,2.2627552582757846 L-4.469213466744366,2.7926745225089893 A5.2700000000000005,5.2700000000000005,0,0,1,-5.154837855867156,1.0956946106095904 Z" fill="#a16084" stroke="black" stroke-width="0.07" />
<path d="M-4.205129105362129,-0.7414777186377923 A4.2700000000000005,4.2700000000000005,0,0,0,-4.205129105362129,0.7414777186377932 L-5.189936858374336,0.9151258963047236 A5.2700000000000005,5.2700000000000005,0,0,1,-5.189936858374336,-0.9151258963047226 Z" fill="#8f759e" stroke="black" stroke-width="0.07" />
<path d="M-3.6211653705879394,-2.262755258275785 A4.2700000000000005,4.2700000000000005,0,0,0,-4.176690255133351,-0.8877829197918323 L-5.154837855867156,-1.0956946106095917 A5.2700000000000005,5.2700000000000005,0,0,1,-4.469213466744365,-2.79267452250899 Z" fill="#8381ae" stroke="black" stroke-width="0.07" />
<path d="M-2.50984302728886,-3.454502565981026 A4.2700000000000005,4.2700000000000005,0,0,0,-3.539990434810028,-2.3877536978200897 L-4.36902800736507,-2.9469466012908363 A5.2700000000000005,5.2700000000000005,0,0,1,-3.097628279581333,-4.263519560355974 Z" fill="#7c93a6" stroke="black" stroke-width="0.07" />
<path d="M-1.0330064942105817,-4.143162751198505 A4.2700000000000005,4.2700000000000005,0,0,0,-2.3877536978200884,-3.5399904348100284 L-2.9469466012908354,-4.3690280073650705 A5.2700000000000005,5.2700000000000005,0,0,1,-1.2749283898102493,-5.113458477474502 Z" fill="#79aa80" stroke="black" stroke-width="0.07" />
<path d="M0.5942691410994806,-4.2284446535265054 A4.2700000000000005,4.2700000000000005,0,0,0,-0.8877829197918315,-4.176690255133351 L-1.0956946106095906,-5.154837855867156 A5.2700000000000005,5.2700000000000005,0,0,1,0.7334422420595462,-5.218712722268076 Z" fill="#7dc25a" stroke="black" stroke-width="0.07" />
<path d="M2.1350000000000007,-3.697928474159553 A4.2700000000000005,4.2700000000000005,0,0,0,0.741477718637793,-4.205129105362129 L0.9151258963047234,-5.189936858374336 A5.2700000000000005,5.2700000000000005,0,0,1,2.6350000000000007,-4.563953877943992 Z" fill="#b7dd32" stroke="black" stroke-width="0.07" />
<path d="M3.3648059179007035,-2.6288744996405606 A4.2700000000000005,4.2700000000000005,0,0,0,2.262755258275785,-3.6211653705879394 L2.79267452250899,-4.469213466744365 A5.2700000000000005,5.2700000000000005,0,0,1,4.152816671507425,-3.244535974966219 Z" fill="#f1f809" stroke="black" stroke-width="0.07" />
<path d="M4.104587441656622,-1.1769715093385866 A4.2700000000000005,4.2700000000000005,0,0,0,3.454502565981026,-2.5098430272888606 L4.263519560355974,-3.097628279581334 A5.2700000000000005,5.2700000000000005,0,0,1,5.065849137594941,-1.4526088651555857 Z" fill="#f5e100" stroke="black" stroke-width="0.07" />
<path d="M4.246608493222527,0.4463365381528803 A4.2700000000000005,4.2700000000000005,0,0,0,4.143162751198505,-1.0330064942105812 L5.113458477474502,-1.274928389810249 A5.2700000000000005,5.2700000000000005,0,0,1,5.2411303885908005,0.5508650014205337 Z" fill="#e8bb00" stroke="black" stroke-width="0.07" />
<path d="M3.7701862215076187,2.004643573095754 A4.2700000000000005,4.2700000000000005,0,0,0,4.228444653526506,0.5942691410994795 L5.2187127222680765,0.7334422420595449 A5.2700000000000005,5.2700000000000005,0,0,1,4.653133814366545,2.474115135881645 Z" fill="#e68600" stroke="black" stroke-width="0.07" />
<path d="M2.7447030933615233,3.2710097721180365 A4.2700000000000005,4.2700000000000005,0,0,0,3.6979284741595535,2.135 L4.563953877943993,2.635 A5.2700000000000005,5.2700000000000005,0,0,1,3.3874907030480625,4.037054215237014 Z" fill="#f34000" stroke="black" stroke-width="0.07" />
<path d="M2.325608679514166,3.5811233251269607 A4.2700000000000005,4.2700000000000005,0,0,0,2.628874499640561,3.3648059179007035 L3.2445359749662193,4.152816671507425 A5.2700000000000005,5.2700000000000005,0,0,1,2.8702477145291936,4.419793893072384 Z" fill="#fb1100" stroke="black" stroke-width="0.07" />
</svg>