<?xml version="1.0" encoding="UTF-8"?>
<svg xmlns="http://www.w3.org/2000/svg" xmlns:xlink="http://www.w3.org/1999/xlink"
     width="600" height="600.0" viewBox="-7.0 -7.0 14 14">
<defs>
</defs>
<path d="M0.5000000000000001,0.8660254037844386 A1.0,1.0,0,1,0,0.4694715627858902,0.8829475928589272 L0.9389431255717804,1.7658951857178544 A2.0,2.0,0,1,1,1.0000000000000002,1.7320508075688772 Z" fill="red" stroke="black" stroke-width="0.07" />
<path d="M0.6869488059046,1.9950441945145592 A2.1100000000000003,2.1100000000000003,0,0,0,1.0550000000000004,1.8273136019851657 L1.5550000000000006,2.6933390057696043 A3.1100000000000003,3.1100000000000003,0,0,1,1.0125169603617563,2.940562770113876 Z" fill="#ff0000" stroke="black" stroke-width="0.07" />
<path d="M0.18389861719755818,2.1019708129735832 A2.1100000000000003,2.1100000000000003,0,0,0,0.5815948207738688,2.028262178429853 L0.8572321765908681,2.989523874368172 A3.1100000000000003,3.1100000000000003,0,0,1,0.27105435994521604,3.098165511065329 Z" fill="#ff0000" stroke="black" stroke-width="0.07" />
<path d="M-0.3300767212348875,2.084022398655741 A2.1100000000000003,2.1100000000000003,0,0,0,0.07363793804227771,2.1087146450102923 L0.10853743474477899,3.108105472029388 A3.1100000000000003,3.1100000000000003,0,0,1,-0.4865111862751186,3.0717107392508782 Z" fill="#ff0000" stroke="black" stroke-width="0.07" />
<path d="M-0.8244426811123678,1.9422652407846492 A2.1100000000000003,2.1100000000000003,0,0,0,-0.43869366762547324,2.06389143754833 L-0.646605358443233,3.0420390382821356 A3.1100000000000003,3.1100000000000003,0,0,1,-1.2151738096016418,2.8627700942370895 Z" fill="#ff0000" stroke="black" stroke-width="0.07" />
<path d="M-1.269829698850822,1.6851209261997881 A2.1100000000000003,2.1100000000000003,0,0,0,-0.9249631197249542,1.8964554376912424 L-1.363334266514032,2.795249483990409 A3.1100000000000003,3.1100000000000003,0,0,1,-1.8716447220028702,2.4837564362470808 Z" fill="#ea141c" stroke="black" stroke-width="0.07" />
<path d="M-1.6397779786742086,1.3278660251151575 A2.1100000000000003,2.1100000000000003,0,0,0,-1.3562818564385986,1.6163537749810437 L-1.999069466125138,2.3823982181000214 A3.1100000000000003,3.1100000000000003,0,0,1,-2.4169239401311793,1.9571864161649952 Z" fill="#ce3244" stroke="black" stroke-width="0.07" />
<path d="M-1.9123094306473318,0.8917245322728756 A2.1100000000000003,2.1100000000000003,0,0,0,-1.7070258581311397,1.2402268823371183 L-2.516042852506087,1.8280121346295912 A3.1100000000000003,3.1100000000000003,0,0,1,-2.818617217683982,1.3143427940135748 Z" fill="#b24f6c" stroke="black" stroke-width="0.07" />
<path d="M-2.071233357074571,0.4026069802445094 A2.1100000000000003,2.1100000000000003,0,0,0,-1.9563579331359218,0.7904199121075745 L-2.883541787702709,1.1650265055234865 A3.1100000000000003,3.1100000000000003,0,0,1,-3.0528605405222353,0.5934159756210542 Z" fill="#976b92" stroke="black" stroke-width="0.07" />
<path d="M-2.107108318332151,-0.11042886767261145 A2.1100000000000003,2.1100000000000003,0,0,0,-2.0894656250447134,0.2936552430257383 L-3.0797336937862836,0.43282834398580383 A3.1100000000000003,3.1100000000000003,0,0,1,-3.105737853086725,-0.16276482391555525 Z" fill="#90739c" stroke="black" stroke-width="0.07" />
<path d="M-2.017803035082005,-0.6169042969649753 A2.1100000000000003,2.1100000000000003,0,0,0,-2.098441199227057,-0.2205550574947494 L-3.0929630945953304,-0.32508352076240316 A3.1100000000000003,3.1100000000000003,0,0,1,-2.9741077910450406,-0.9092760016877123 Z" fill="#887ba6" stroke="black" stroke-width="0.07" />
<path d="M-1.808623004481457,-1.086730338060215 A2.1100000000000003,2.1100000000000003,0,0,0,-1.982751429858267,-0.7216625024171615 L-2.922444050644175,-1.0636826457428303 A3.1100000000000003,3.1100000000000003,0,0,1,-2.6657903051835694,-1.6017684129702692 Z" fill="#8183b0" stroke="black" stroke-width="0.07" />
<path d="M-1.4919953083036153,-1.4919953083036157 A2.1100000000000003,2.1100000000000003,0,0,0,-1.749269278091138,-1.1798970263232762 L-2.5783068506461797,-1.739089929794023 A3.1100000000000003,3.1100000000000003,0,0,1,-2.1991020894901627,-2.199102089490163 Z" fill="#7c8eae" stroke="black" stroke-width="0.07" />
<path d="M-1.0867303380602147,-1.8086230044814573 A2.1100000000000003,2.1100000000000003,0,0,0,-1.411865579417191,-1.5680355817573022 L-2.0809961857760495,-2.3111804072346964 A3.1100000000000003,3.1100000000000003,0,0,1,-1.601768412970269,-2.66579030518357 Z" fill="#7b9d96" stroke="black" stroke-width="0.07" />
<path d="M-0.6169042969649744,-2.017803035082005 A2.1100000000000003,2.1100000000000003,0,0,0,-0.9905849974782291,-1.8630194209323365 L-1.4600565602641198,-2.7459670137912635 A3.1100000000000003,3.1100000000000003,0,0,1,-0.909276001687711,-2.9741077910450406 Z" fill="#79ac7e" stroke="black" stroke-width="0.07" />
<path d="M-0.11042886767261105,-2.107108318332151 A2.1100000000000003,2.1100000000000003,0,0,0,-0.5104551997152991,-2.047323982442353 L-0.7523770953149669,-3.017619708718349 A3.1100000000000003,3.1100000000000003,0,0,1,-0.16276482391555466,-3.105737853086725 Z" fill="#78bb66" stroke="black" stroke-width="0.07" />
<path d="M0.40260698024450986,-2.071233357074571 A2.1100000000000003,2.1100000000000003,0,0,0,1.2920023731004579e-16,-2.1100000000000003 L1.9043257726741343e-16,-3.1100000000000003 A3.1100000000000003,3.1100000000000003,0,0,1,0.5934159756210547,-3.0528605405222353 Z" fill="#91cb4c" stroke="black" stroke-width="0.07" />
<path d="M0.891724532272876,-1.9123094306473316 A2.1100000000000003,2.1100000000000003,0,0,0,0.5104551997152993,-2.047323982442353 L0.7523770953149672,-3.017619708718349 A3.1100000000000003,3.1100000000000003,0,0,1,1.3143427940135755,-2.8186172176839817 Z" fill="#b6dd33" stroke="black" stroke-width="0.07" />
<path d="M1.3278660251151573,-1.6397779786742086 A2.1100000000000003,2.1100000000000003,0,0,0,0.9905849974782299,-1.863019420932336 L1.4600565602641207,-2.745967013791263 A3.1100000000000003,3.1100000000000003,0,0,1,1.9571864161649948,-2.4169239401311793 Z" fill="#dbee19" stroke="black" stroke-width="0.07" />
<path d="M1.6851209261997881,-1.269829698850822 A2.1100000000000003,2.1100000000000003,0,0,0,1.411865579417191,-1.568035581757302 L2.0809961857760495,-2.311180407234696 A3.1100000000000003,3.1100000000000003,0,0,1,2.4837564362470808,-1.8716447220028702 Z" fill="#fefe00" stroke="black" stroke-width="0.07" />
<path d="M1.9422652407846495,-0.8244426811123676 A2.1100000000000003,2.1100000000000003,0,0,0,1.749269278091138,-1.1798970263232762 L2.5783068506461797,-1.739089929794023 A3.1100000000000003,3.1100000000000003,0,0,1,2.86277009423709,-1.2151738096016413 Z" fill="#f6e500" stroke="black" stroke-width="0.07" />
<path d="M2.084022398655741,-0.3300767212348872 A2.1100000000000003,2.1100000000000003,0,0,0,1.9827514298582671,-0.7216625024171611 L2.9224440506441756,-1.06368264574283 A3.1100000000000003,3.1100000000000003,0,0,1,3.0717107392508787,-0.4865111862751181 Z" fill="#eecd00" stroke="black" stroke-width="0.07" />
<path d="M2.1019708129735832,0.18389861719755876 A2.1100000000000003,2.1100000000000003,0,0,0,2.098441199227057,-0.22055505749474882 L3.0929630945953304,-0.32508352076240227 A3.1100000000000003,3.1100000000000003,0,0,1,3.098165511065329,0.2710543599452169 Z" fill="#e6b400" stroke="black" stroke-width="0.07" />
<path d="M1.995044194514559,0.6869488059046006 A2.1100000000000003,2.1100000000000003,0,0,0,2.089465625044714,0.29365524302573814 L3.079733693786284,0.43282834398580355 A3.1100000000000003,3.1100000000000003,0,0,1,2.9405627701138757,1.0125169603617572 Z" fill="#e39500" stroke="black" stroke-width="0.07" />
<path d="M1.769594898364845,1.1491883638817073 A2.1100000000000003,2.1100000000000003,0,0,0,1.9563579331359218,0.7904199121075745 L2.883541787702709,1.1650265055234865 A3.1100000000000003,3.1100000000000003,0,0,1,2.608265466310269,1.6938273988967345 Z" fill="#ec6800" stroke="black" stroke-width="0.07" />
<path d="M1.439016539731872,1.5431563104164499 A2.1100000000000003,2.1100000000000003,0,0,0,1.7070258581311393,1.2402268823371185 L2.5160428525060867,1.8280121346295917 A3.1100000000000003,3.1100000000000003,0,0,1,2.1210148997943703,2.2745100120356203 Z" fill="#f43b00" stroke="black" stroke-width="0.07" />
<path d="M1.1491883638817075,1.7695948983648448 A2.1100000000000003,2.1100000000000003,0,0,0,1.3562818564385983,1.616353774981044 L1.9990694661251376,2.382398218100022 A3.1100000000000003,3.1100000000000003,0,0,1,1.6938273988967347,2.608265466310269 Z" fill="#fb1400" stroke="black" stroke-width="0.07" />
<path d="M0.9950347218873301,3.0624019824703947 A3.22,3.22,0,0,0,1.6100000000000005,2.7886018001858925 L2.1100000000000008,3.6546272039703314 A4.220000000000001,4.220000000000001,0,0,1,1.3040517162622776,4.013458498765549 Z" fill="#ff0000" stroke="black" stroke-width="0.07" />
<path d="M0.2246158454560832,3.2121562418366345 A3.22,3.22,0,0,0,0.8875522857307381,3.0952626609213865 L1.1631896415477376,4.056524356859706 A4.220000000000001,4.220000000000001,0,0,1,0.29437231920020845,4.209720292096459 Z" fill="#ff0000" stroke="black" stroke-width="0.07" />
<path d="M-0.5591471320875157,3.17108096469931 A3.22,3.22,0,0,0,0.11237637938205414,3.2180384630014887 L0.14727587608455542,4.2174292900205845 A4.220000000000001,4.220000000000001,0,0,1,-0.7327953097544461,4.155888717711519 Z" fill="#ff0000" stroke="black" stroke-width="0.07" />
<path d="M-1.3096919907040765,2.9416163736091754 A3.22,3.22,0,0,0,-0.6694756444331865,3.149635274362854 L-0.8773873352509465,4.12778287509666 A4.220000000000001,4.220000000000001,0,0,1,-1.7164286337798766,3.8551618312517766 Z" fill="#ff0000" stroke="black" stroke-width="0.07" />
<path d="M-1.7063400308309202,2.7307148696236916 A3.22,3.22,0,0,0,-1.4115550926608305,2.8941168290833175 L-1.8499262394499083,3.7929108753824847 A4.220000000000001,4.220000000000001,0,0,1,-2.2362592950641256,3.578762965780118 Z" fill="#ef0f15" stroke="black" stroke-width="0.07" />
<path d="M-2.4301648483173257,2.112510073349434 A3.22,3.22,0,0,0,-2.0697761031906574,2.466663106843109 L-2.712563712877197,3.2327075499620874 A4.220000000000001,4.220000000000001,0,0,1,-3.184874428540098,2.7685691023399417 Z" fill="#d03041" stroke="black" stroke-width="0.07" />
<path d="M-2.760078708260802,1.6584226012103744 A3.22,3.22,0,0,0,-2.605034721887331,1.8926685123817633 L-3.4140517162622794,2.4804537646742366 A4.220000000000001,4.220000000000001,0,0,1,-3.6172460089629146,2.173460676120429 Z" fill="#b84863" stroke="black" stroke-width="0.07" />
<path d="M-2.964025628116858,1.258154233735461 A3.22,3.22,0,0,0,-2.8430912490057447,1.5116984321705687 L-3.726038841864672,1.9811699949564598 A4.220000000000001,4.220000000000001,0,0,1,-3.884530481569299,1.6488853622247346 Z" fill="#a8597a" stroke="black" stroke-width="0.07" />
<path d="M-3.1496352743628546,0.6694756444331842 A3.22,3.22,0,0,0,-2.9855320117050557,1.2062332307992367 L-3.9127158662718435,1.580839824215149 A4.220000000000001,4.220000000000001,0,0,1,-4.127782875096661,0.8773873352509434 Z" fill="#976b92" stroke="black" stroke-width="0.07" />
<path d="M-3.2180384630014887,-0.11237637938205225 A3.22,3.22,0,0,0,-3.1886631813478563,0.448137385091411 L-4.178931250089427,0.5873104860514766 A4.220000000000001,4.220000000000001,0,0,1,-4.2174292900205845,-0.14727587608455298 Z" fill="#90739c" stroke="black" stroke-width="0.07" />
<path d="M-3.160839530701478,-0.6144049651124749 A3.22,3.22,0,0,0,-3.20236050308584,-0.33658165172184507 L-4.196882398454114,-0.4411101149894988 A4.220000000000001,4.220000000000001,0,0,1,-4.142466714149142,-0.8052139604890199 Z" fill="#8a79a4" stroke="black" stroke-width="0.07" />
<path d="M-3.0445698134298,-1.0483294573520456 A3.22,3.22,0,0,0,-3.124352238608709,-0.7789885038309301 L-4.094647964884706,-1.020910399430598 A4.220000000000001,4.220000000000001,0,0,1,-3.9900883890291174,-1.3738976118092028 Z" fill="#867eaa" stroke="black" stroke-width="0.07" />
<path d="M-2.8430912490057443,-1.5116984321705693 A3.22,3.22,0,0,0,-3.025810238930625,-1.1013048615086538 L-3.965502859716534,-1.443325004834323 A4.220000000000001,4.220000000000001,0,0,1,-3.7260388418646717,-1.9811699949564607 Z" fill="#8283af" stroke="black" stroke-width="0.07" />
<path d="M-2.2367999528779707,-2.3162741570904575 A3.22,3.22,0,0,0,-2.669500983627234,-1.8006011491758052 L-3.498538556182276,-2.3597940526465524 A4.220000000000001,4.220000000000001,0,0,1,-2.931458323336968,-3.0356139574291094 Z" fill="#7c8fad" stroke="black" stroke-width="0.07" />
<path d="M-1.6099999999999994,-2.788601800185893 A3.22,3.22,0,0,0,-2.154600552475524,-2.3929263380372094 L-2.823731158834382,-3.1360711635146044 A4.220000000000001,4.220000000000001,0,0,1,-2.1099999999999994,-3.654627203970332 Z" fill="#7b9e95" stroke="black" stroke-width="0.07" />
<path d="M-0.887552285730737,-3.095262660921387 A3.22,3.22,0,0,0,-1.5116984321705675,-2.8430912490057456 L-1.9811699949564583,-3.726038841864673 A4.220000000000001,4.220000000000001,0,0,1,-1.163189641547736,-4.056524356859707 Z" fill="#79ad7d" stroke="black" stroke-width="0.07" />
<path d="M-0.11237637938205237,-3.2180384630014887 A3.22,3.22,0,0,0,-0.7789885038309303,-3.124352238608709 L-1.0209103994305981,-4.094647964884706 A4.220000000000001,4.220000000000001,0,0,1,-0.14727587608455311,-4.2174292900205845 Z" fill="#78bc65" stroke="black" stroke-width="0.07" />
<path d="M0.6694756444331855,-3.149635274362854 A3.22,3.22,0,0,0,1.9716813466272387e-16,-3.22 L2.5840047462009157e-16,-4.220000000000001 A4.220000000000001,4.220000000000001,0,0,1,0.877387335250945,-4.12778287509666 Z" fill="#92cc4c" stroke="black" stroke-width="0.07" />
<path d="M0.9950347218873309,-3.0624019824703947 A3.22,3.22,0,0,0,0.7789885038309307,-3.124352238608709 L1.0209103994305986,-4.094647964884706 A4.220000000000001,4.220000000000001,0,0,1,1.3040517162622784,-4.013458498765549 Z" fill="#add839" stroke="black" stroke-width="0.07" />
<path d="M1.3608308028050522,-2.918311074258013 A3.22,3.22,0,0,0,1.1539447975358672,-3.00612897332099 L1.512312747081168,-3.939709399818192 A4.220000000000001,4.220000000000001,0,0,1,1.783449064545752,-3.824618861294663 Z" fill="#bfe12c" stroke="black" stroke-width="0.07" />
<path d="M1.8926685123817637,-2.605034721887331 A3.22,3.22,0,0,0,1.5116984321705687,-2.8430912490057447 L1.9811699949564598,-3.726038841864672 A4.220000000000001,4.220000000000001,0,0,1,2.480453764674237,-3.4140517162622785 Z" fill="#d7ec1b" stroke="black" stroke-width="0.07" />
<path d="M2.3549589192137295,-2.1960347194012453 A3.22,3.22,0,0,0,2.154600552475524,-2.3929263380372094 L2.823731158834382,-3.136071163514604 A4.220000000000001,4.220000000000001,0,0,1,3.0863126208329,-2.878033079463744 Z" fill="#f8fb04" stroke="black" stroke-width="0.07" />
<path d="M2.637669582610554,-1.8469161250503683 A3.22,3.22,0,0,0,2.4666631068431095,-2.0697761031906565 L3.232707549962088,-2.712563712877196 A4.220000000000001,4.220000000000001,0,0,1,3.4568216268995458,-2.4204925614014146 Z" fill="#fbf500" stroke="black" stroke-width="0.07" />
<path d="M2.9855320117050557,-1.2062332307992367 A3.22,3.22,0,0,0,2.669500983627234,-1.8006011491758052 L3.498538556182276,-2.3597940526465524 A4.220000000000001,4.220000000000001,0,0,1,3.9127158662718435,-1.580839824215149 Z" fill="#f6e500" stroke="black" stroke-width="0.07" />
<path d="M3.1886631813478568,-0.4481373850914107 A3.22,3.22,0,0,0,3.0258102389306254,-1.1013048615086534 L3.9655028597165343,-1.4433250048343222 A4.220000000000001,4.220000000000001,0,0,1,4.178931250089428,-0.5873104860514763 Z" fill="#eecc00" stroke="black" stroke-width="0.07" />
<path d="M3.20236050308584,0.3365816517218442 A3.22,3.22,0,0,0,3.20236050308584,-0.3365816517218442 L4.196882398454114,-0.44111011498949765 A4.220000000000001,4.220000000000001,0,0,1,4.196882398454114,0.44111011498949765 Z" fill="#e6b400" stroke="black" stroke-width="0.07" />
<path d="M3.0258102389306254,1.1013048615086534 A3.22,3.22,0,0,0,3.1886631813478568,0.4481373850914107 L4.178931250089428,0.5873104860514763 A4.220000000000001,4.220000000000001,0,0,1,3.9655028597165343,1.4433250048343222 Z" fill="#e49300" stroke="black" stroke-width="0.07" />
<path d="M2.669500983627234,1.8006011491758052 A3.22,3.22,0,0,0,2.9855320117050557,1.2062332307992367 L3.9127158662718435,1.580839824215149 A4.220000000000001,4.220000000000001,0,0,1,3.498538556182276,2.3597940526465524 Z" fill="#ec6600" stroke="black" stroke-width="0.07" />
<path d="M2.4301648483173266,2.112510073349433 A3.22,3.22,0,0,0,2.605034721887331,1.8926685123817637 L3.4140517162622785,2.480453764674237 A4.220000000000001,4.220000000000001,0,0,1,3.1848744285400987,2.768569102339941 Z" fill="#f24400" stroke="black" stroke-width="0.07" />
<path d="M2.1125100733494335,2.430164848317326 A3.22,3.22,0,0,0,2.316274157090457,2.236799952877971 L3.0356139574291086,2.931458323336969 A4.220000000000001,4.220000000000001,0,0,1,2.7685691023399412,3.1848744285400983 Z" fill="#f72b00" stroke="black" stroke-width="0.07" />
<path d="M1.7537376927483876,2.700519228784265 A3.22,3.22,0,0,0,2.069776103190657,2.4666631068431095 L2.7125637128771967,3.232707549962088 A4.220000000000001,4.220000000000001,0,0,1,2.298376727763415,3.5391897967296897 Z" fill="#fb1400" stroke="black" stroke-width="0.07" />
<path d="M1.3380435856435215,4.1180747155580155 A4.33,4.33,0,0,0,2.1650000000000005,3.749889998386619 L2.6650000000000005,4.615915402171058 A5.33,5.33,0,0,1,1.6470605800184688,5.069131231853169 Z" fill="#ff0000" stroke="black" stroke-width="0.07" />
<path d="M0.3020455313120622,4.319452337625039 A4.33,4.33,0,0,0,1.1935097506876073,4.16226314341292 L1.4691471065046067,5.123524839351239 A5.33,5.33,0,0,1,0.37180200505618743,5.3170163878848635 Z" fill="#ff0000" stroke="black" stroke-width="0.07" />
<path d="M-0.7518966092978083,4.26421757054286 A4.33,4.33,0,0,0,0.15111482072183055,4.327362280992685 L0.18601431742433183,5.326753108011781 A5.33,5.33,0,0,1,-0.9255447869647386,5.249025323555069 Z" fill="#ff0000" stroke="black" stroke-width="0.07" />
<path d="M-1.7611696645182144,3.9556518315924625 A4.33,4.33,0,0,0,-0.9002576212408999,4.235379111177378 L-1.1081693120586598,5.213526711911184 A5.33,5.33,0,0,1,-2.1679063075940146,4.869197289235063 Z" fill="#ff0000" stroke="black" stroke-width="0.07" />
<path d="M-2.165000000000002,3.7498899983866183 A4.33,4.33,0,0,0,-1.8981470655967065,3.8917782204753926 L-2.3365182123857844,4.790572266774559 A5.33,5.33,0,0,1,-2.6650000000000023,4.615915402171057 Z" fill="#f10d12" stroke="black" stroke-width="0.07" />
<path d="M-2.724957293245795,3.365042013108685 A4.33,4.33,0,0,0,-2.483585969400031,3.5469283517713337 L-3.057162405751077,4.366080396060325 A5.33,5.33,0,0,1,-3.3542776842956323,4.1421879745656565 Z" fill="#df202c" stroke="black" stroke-width="0.07" />
<path d="M-3.2678924823646023,2.840735595528897 A4.33,4.33,0,0,0,-2.783270349942716,3.316972438705174 L-3.4260579596292553,4.083016881824152 A5.33,5.33,0,0,1,-4.022602062587374,3.4967946245194046 Z" fill="#d03041" stroke="black" stroke-width="0.07" />
<path d="M-3.749889998386619,2.1650000000000005 A4.33,4.33,0,0,0,-3.503043585643523,2.545110142426408 L-4.31206058001847,3.132895394718881 A5.33,5.33,0,0,1,-4.615915402171058,2.6650000000000005 Z" fill="#b74a64" stroke="black" stroke-width="0.07" />
<path d="M-4.014706090274189,1.622046549490899 A4.33,4.33,0,0,0,-3.8231630770791534,2.0328118668629074 L-4.70611066993808,2.502283429648798 A5.33,5.33,0,0,1,-4.941889944840977,1.996653142906811 Z" fill="#a75a7b" stroke="black" stroke-width="0.07" />
<path d="M-4.182458827831667,1.1206864652939132 A4.33,4.33,0,0,0,-4.014706090274189,1.622046549490899 L-4.941889944840977,1.996653142906811 A5.33,5.33,0,0,1,-5.1483846541207345,1.3795055103964335 Z" fill="#9a688e" stroke="black" stroke-width="0.07" />
<path d="M-4.324065885487305,-0.2266146905319467 A4.33,4.33,0,0,0,-4.287860737650999,0.6026195271570837 L-5.278128806392569,0.7417926281171492 A5.33,5.33,0,0,1,-5.322695420241879,-0.2789506467748905 Z" fill="#90739c" stroke="black" stroke-width="0.07" />
<path d="M-4.250445704328385,-0.8262029499804397 A4.33,4.33,0,0,0,-4.306279806944623,-0.45260824594894067 L-5.300801702312897,-0.5571367092165944 A5.33,5.33,0,0,1,-5.232072887776049,-1.0170119453569848 Z" fill="#8a79a4" stroke="black" stroke-width="0.07" />
<path d="M-4.068869048002983,-1.4809472206001462 A4.33,4.33,0,0,0,-4.201380494775065,-1.0475218079465614 L-5.171676221051062,-1.289443703546229 A5.33,5.33,0,0,1,-5.008561668788891,-1.822967363925815 Z" fill="#867eaa" stroke="black" stroke-width="0.07" />
<path d="M-3.9243127178686943,-1.8299370733372289 A4.33,4.33,0,0,0,-4.068869048002983,-1.4809472206001462 L-5.008561668788891,-1.822967363925815 A5.33,5.33,0,0,1,-4.830620504905344,-2.252555335077928 Z" fill="#8382ae" stroke="black" stroke-width="0.07" />
<path d="M-3.007870744087457,-3.114741335466361 A4.33,4.33,0,0,0,-3.58973268916333,-2.4213052720283343 L-4.418770261718372,-2.980498175499081 A5.33,5.33,0,0,1,-3.7025291145464543,-3.834081135805012 Z" fill="#7c8fad" stroke="black" stroke-width="0.07" />
<path d="M-2.230114864360535,-3.7115344120401463 A4.33,4.33,0,0,0,-2.8973355255338564,-3.217817094317117 L-3.5664661318927147,-3.9609619197945114 A5.33,5.33,0,0,1,-2.7451529392705893,-4.568701712742259 Z" fill="#7b9d96" stroke="black" stroke-width="0.07" />
<path d="M-1.4097101087994874,-4.094095432345042 A4.33,4.33,0,0,0,-2.032811866862906,-3.8231630770791543 L-2.5022834296487964,-4.706110669938082 A5.33,5.33,0,0,1,-1.7352782632566437,-5.039614007944359 Z" fill="#79ab7f" stroke="black" stroke-width="0.07" />
<path d="M-0.22661469053194588,-4.324065885487305 A4.33,4.33,0,0,0,-1.0475218079465616,-4.201380494775065 L-1.2894437035462294,-5.171676221051062 A5.33,5.33,0,0,1,-0.2789506467748895,-5.322695420241879 Z" fill="#78bb66" stroke="black" stroke-width="0.07" />
<path d="M0.9002576212408985,-4.235379111177378 A4.33,4.33,0,0,0,2.65136032015402e-16,-4.33 L3.263683719727696e-16,-5.33 A5.33,5.33,0,0,1,1.108169312058658,-5.213526711911184 Z" fill="#92cc4c" stroke="black" stroke-width="0.07" />
<path d="M1.4097101087994888,-4.094095432345042 A4.33,4.33,0,0,0,1.047521807946562,-4.201380494775065 L1.2894437035462298,-5.171676221051062 A5.33,5.33,0,0,1,1.7352782632566455,-5.039614007944358 Z" fill="#aed938" stroke="black" stroke-width="0.07" />
<path d="M1.9657788638722378,-3.8580582497356324 A4.33,4.33,0,0,0,1.5517332215311506,-4.042403246732883 L1.910101171076451,-4.975983673230085 A5.33,5.33,0,0,1,2.4197693636117843,-4.749064773924 Z" fill="#c2e22a" stroke="black" stroke-width="0.07" />
<path d="M2.6058590502483696,-3.458091758504778 A4.33,4.33,0,0,0,2.0328118668629074,-3.8231630770791534 L2.502283429648798,-4.70611066993808 A5.33,5.33,0,0,1,3.207674073400418,-4.256727268552071 Z" fill="#d8ed1b" stroke="black" stroke-width="0.07" />
<path d="M3.217817094317117,-2.8973355255338564 A4.33,4.33,0,0,0,2.8973355255338564,-3.2178170943171165 L3.5664661318927147,-3.960961919794511 A5.33,5.33,0,0,1,3.9609619197945114,-3.5664661318927147 Z" fill="#f9fc03" stroke="black" stroke-width="0.07" />
<path d="M3.631443559203686,-2.3582870216150673 A4.33,4.33,0,0,0,3.3169724387051747,-2.783270349942715 L4.083016881824153,-3.4260579596292544 A5.33,5.33,0,0,1,4.4701141271491105,-2.9029260566300943 Z" fill="#fbf300" stroke="black" stroke-width="0.07" />
<path d="M4.014706090274189,-1.622046549490899 A4.33,4.33,0,0,0,3.58973268916333,-2.4213052720283343 L4.418770261718372,-2.980498175499081 A5.33,5.33,0,0,1,4.941889944840977,-1.996653142906811 Z" fill="#f6e500" stroke="black" stroke-width="0.07" />
<path d="M4.287860737651,-0.6026195271570833 A4.33,4.33,0,0,0,4.068869048002983,-1.4809472206001455 L5.008561668788892,-1.8229673639258142 A5.33,5.33,0,0,1,5.27812880639257,-0.7417926281171487 Z" fill="#eecc00" stroke="black" stroke-width="0.07" />
<path d="M4.306279806944623,0.4526082459489395 A4.33,4.33,0,0,0,4.306279806944623,-0.4526082459489395 L5.300801702312897,-0.557136709216593 A5.33,5.33,0,0,1,5.300801702312897,0.557136709216593 Z" fill="#e6b400" stroke="black" stroke-width="0.07" />
<path d="M4.068869048002983,1.4809472206001455 A4.33,4.33,0,0,0,4.287860737651,0.6026195271570833 L5.27812880639257,0.7417926281171487 A5.33,5.33,0,0,1,5.008561668788892,1.8229673639258142 Z" fill="#e49300" stroke="black" stroke-width="0.07" />
<path d="M3.58973268916333,2.4213052720283343 A4.33,4.33,0,0,0,4.014706090274189,1.622046549490899 L4.941889944840977,1.996653142906811 A5.33,5.33,0,0,1,4.418770261718372,2.980498175499081 Z" fill="#ec6600" stroke="black" stroke-width="0.07" />
<path d="M3.217817094317117,2.8973355255338564 A4.33,4.33,0,0,0,3.5030435856435225,2.5451101424264087 L4.31206058001847,3.132895394718882 A5.33,5.33,0,0,1,3.9609619197945114,3.5664661318927147 Z" fill="#f24300" stroke="black" stroke-width="0.07" />
<path d="M2.7832703499427156,3.3169724387051747 A4.33,4.33,0,0,0,3.1147413354663596,3.0078707440874584 L3.834081135805011,3.7025291145464556 A5.33,5.33,0,0,1,3.426057959629255,4.083016881824153 Z" fill="#f72900" stroke="black" stroke-width="0.07" />
<path d="M2.4835859694000297,3.5469283517713346 A4.33,4.33,0,0,0,2.7832703499427156,3.3169724387051747 L3.426057959629255,4.083016881824153 A5.33,5.33,0,0,1,3.0571624057510762,4.366080396060326 Z" fill="#fa1800" stroke="black" stroke-width="0.07" />
<path d="M1.681052449399713,5.173747448645636 A5.44,5.44,0,0,0,2.7200000000000006,4.711178196587347 L3.220000000000001,5.577203600371785 A6.44,6.44,0,0,1,1.9900694437746602,6.1248039649407895 Z" fill="#ff0000" stroke="black" stroke-width="0.07" />
<path d="M0.3794752171680412,5.426748433413445 A5.44,5.44,0,0,0,1.4994672156444768,5.229263625904455 L1.7751045714614762,6.190525321842773 A6.44,6.44,0,0,1,0.4492316909121664,6.424312483673269 Z" fill="#ff0000" stroke="black" stroke-width="0.07" />
<path d="M-0.9446460865081011,5.357354176386412 A5.44,5.44,0,0,0,0.189853262061607,5.436686098983881 L0.22475275876410827,6.436076926002977 A6.44,6.44,0,0,1,-1.1182942641750313,6.34216192939862 Z" fill="#ff0000" stroke="black" stroke-width="0.07" />
<path d="M-2.212647338332353,4.96968728957575 A5.44,5.44,0,0,0,-1.1310395980486134,5.321122947991903 L-1.338951288866373,6.299270548725708 A6.44,6.44,0,0,1,-2.619383981408153,5.883232747218351 Z" fill="#ff0000" stroke="black" stroke-width="0.07" />
<path d="M-2.801807127510697,4.662990115819491 A5.44,5.44,0,0,0,-2.384739038532583,4.889439611867468 L-2.823110185321661,5.788233658166635 A6.44,6.44,0,0,1,-3.316845202420751,5.520157416521602 Z" fill="#f00e14" stroke="black" stroke-width="0.07" />
<path d="M-3.496764596694775,4.16728177056724 A5.44,5.44,0,0,0,-3.1202558137496927,4.456187120932115 L-3.693832250100739,5.275339165221106 A6.44,6.44,0,0,1,-4.139552206381315,4.933326213686218 Z" fill="#de212d" stroke="black" stroke-width="0.07" />
<path d="M-3.8466608896548196,3.8466608896548187 A5.44,5.44,0,0,0,-3.496764596694775,4.16728177056724 L-4.139552206381315,4.933326213686218 A6.44,6.44,0,0,1,-4.553767670841367,4.553767670841366 Z" fill="#d42b3b" stroke="black" stroke-width="0.07" />
<path d="M-4.711178196587347,2.7200000000000006 A5.44,5.44,0,0,0,-4.401052449399715,3.1975517724710536 L-5.210069443774662,3.7853370247635265 A6.44,6.44,0,0,1,-5.577203600371785,3.220000000000001 Z" fill="#b74a64" stroke="black" stroke-width="0.07" />
<path d="M-5.078677520144778,1.9495216455264346 A5.44,5.44,0,0,0,-4.8032349051525625,2.5539253015552466 L-5.6861824980114895,3.0233968643411373 A6.44,6.44,0,0,1,-6.01225794664198,2.307889595071735 Z" fill="#a65b7d" stroke="black" stroke-width="0.07" />
<path d="M-5.30057315243168,1.2237337356306255 A5.44,5.44,0,0,0,-5.043880168843324,2.0378598681825615 L-5.971064023410111,2.4124664615984734 A6.44,6.44,0,0,1,-6.274943217216915,1.4486847899744906 Z" fill="#986a90" stroke="black" stroke-width="0.07" />
<path d="M-5.432544669064882,-0.2847076019616143 A5.44,5.44,0,0,0,-5.3870582939541425,0.7571016692227565 L-6.377326362695713,0.896274770182822 A6.44,6.44,0,0,1,-6.431174203819456,-0.3370435582045581 Z" fill="#90739c" stroke="black" stroke-width="0.07" />
<path d="M-5.340051877955292,-1.0380009348484047 A5.44,5.44,0,0,0,-5.410199110803407,-0.5686348401760364 L-6.40472100617168,-0.6731633034436901 A6.44,6.44,0,0,1,-6.321679061402956,-1.2288099302249498 Z" fill="#8a79a4" stroke="black" stroke-width="0.07" />
<path d="M-5.111927857075342,-1.8605895796916387 A5.44,5.44,0,0,0,-5.278408750941421,-1.3160551120621926 L-6.248704477217418,-1.5579770076618602 A6.44,6.44,0,0,1,-6.05162047786125,-2.2026097230173076 Z" fill="#867eaa" stroke="black" stroke-width="0.07" />
<path d="M-4.930314361479376,-2.2990433438694056 A5.44,5.44,0,0,0,-5.111927857075342,-1.8605895796916387 L-6.05162047786125,-2.2026097230173076 A6.44,6.44,0,0,1,-5.836622148516026,-2.721661605610105 Z" fill="#8382ae" stroke="black" stroke-width="0.07" />
<path d="M-4.16728177056724,-3.496764596694775 A5.44,5.44,0,0,0,-4.509964394699427,-3.0420093948808633 L-5.339001967254468,-3.6012022983516103 A6.44,6.44,0,0,1,-4.933326213686218,-4.139552206381315 Z" fill="#7c8bb2" stroke="black" stroke-width="0.07" />
<path d="M-3.7100710787399915,-3.9785641368082882 A5.44,5.44,0,0,0,-3.978564136808288,-3.7100710787399924 L-4.709917838427458,-4.3920694388024915 A6.44,6.44,0,0,1,-4.39206943880249,-4.709917838427459 Z" fill="#7b94a4" stroke="black" stroke-width="0.07" />
<path d="M-2.719999999999999,-4.711178196587347 A5.44,5.44,0,0,0,-3.640070498592189,-4.042707850597025 L-4.309201104951048,-4.785852676074419 A6.44,6.44,0,0,1,-3.219999999999999,-5.577203600371786 Z" fill="#7b9e95" stroke="black" stroke-width="0.07" />
<path d="M-1.9495216455264337,-5.078677520144778 A5.44,5.44,0,0,0,-2.5539253015552448,-4.803234905152563 L-3.023396864341135,-5.686182498011491 A6.44,6.44,0,0,1,-2.307889595071734,-6.01225794664198 Z" fill="#79aa81" stroke="black" stroke-width="0.07" />
<path d="M-0.189853262061604,-5.436686098983881 A5.44,5.44,0,0,0,-1.3160551120621928,-5.278408750941421 L-1.5579770076618606,-6.248704477217418 A6.44,6.44,0,0,1,-0.22475275876410475,-6.436076926002977 Z" fill="#78bc65" stroke="black" stroke-width="0.07" />
<path d="M1.1310395980486114,-5.321122947991903 A5.44,5.44,0,0,0,3.3310392936808007e-16,-5.44 L3.9433626932544775e-16,-6.44 A6.44,6.44,0,0,1,1.338951288866371,-6.299270548725708 Z" fill="#92cc4c" stroke="black" stroke-width="0.07" />
<path d="M1.7710907602469328,-5.143621051260284 A5.44,5.44,0,0,0,1.3160551120621935,-5.278408750941421 L1.5579770076618613,-6.248704477217418 A6.44,6.44,0,0,1,2.0966589147040895,-6.0891396268596 Z" fill="#aed938" stroke="black" stroke-width="0.07" />
<path d="M2.5539253015552466,-4.8032349051525625 A5.44,5.44,0,0,0,1.9495216455264341,-5.078677520144778 L2.3078895950717344,-6.01225794664198 A6.44,6.44,0,0,1,3.0233968643411373,-5.6861824980114895 Z" fill="#c3e329" stroke="black" stroke-width="0.07" />
<path d="M3.2738737259471433,-4.344577174657274 A5.44,5.44,0,0,0,2.5539253015552466,-4.8032349051525625 L3.0233968643411373,-5.6861824980114895 A6.44,6.44,0,0,1,3.875688749099192,-5.143212684704566 Z" fill="#d8ed1b" stroke="black" stroke-width="0.07" />
<path d="M4.105620116411881,-3.5689611177083593 A5.44,5.44,0,0,0,3.640070498592189,-4.042707850597024 L4.309201104951048,-4.785852676074419 A6.44,6.44,0,0,1,4.860329696634653,-4.225020146698866 Z" fill="#fafc03" stroke="black" stroke-width="0.07" />
<path d="M4.613381643090958,-2.882760797428635 A5.44,5.44,0,0,0,4.16728177056724,-3.496764596694774 L4.933326213686219,-4.139552206381313 A6.44,6.44,0,0,1,5.461429739247383,-3.4126800616618396 Z" fill="#fbf300" stroke="black" stroke-width="0.07" />
<path d="M5.043880168843324,-2.0378598681825615 A5.44,5.44,0,0,0,4.509964394699427,-3.0420093948808633 L5.339001967254468,-3.6012022983516103 A6.44,6.44,0,0,1,5.971064023410111,-2.4124664615984734 Z" fill="#f6e500" stroke="black" stroke-width="0.07" />
<path d="M5.37302457283755,-0.851003489818856 A5.44,5.44,0,0,0,5.111927857075342,-1.8605895796916379 L6.051620477861251,-2.2026097230173067 A6.44,6.44,0,0,1,6.360712913432687,-1.0074379548590868 Z" fill="#eecd00" stroke="black" stroke-width="0.07" />
<path d="M5.419299157619096,0.47412724054726046 A5.44,5.44,0,0,0,5.410199110803407,-0.5686348401760348 L6.40472100617168,-0.6731633034436884 A6.44,6.44,0,0,1,6.415493855710841,0.5612829832949187 Z" fill="#e6b400" stroke="black" stroke-width="0.07" />
<path d="M5.202297872438913,1.5905020736916882 A5.44,5.44,0,0,0,5.387058293954143,0.757101669222756 L6.3773263626957135,0.8962747701828214 A6.44,6.44,0,0,1,6.158602628401948,1.882873778414425 Z" fill="#e39800" stroke="black" stroke-width="0.07" />
<path d="M4.509964394699427,3.0420093948808633 A5.44,5.44,0,0,0,5.043880168843324,2.0378598681825615 L5.971064023410111,2.4124664615984734 A6.44,6.44,0,0,1,5.339001967254468,3.6012022983516103 Z" fill="#ec6600" stroke="black" stroke-width="0.07" />
<path d="M4.042707850597025,3.640070498592189 A5.44,5.44,0,0,0,4.401052449399715,3.197551772471054 L5.210069443774662,3.7853370247635274 A6.44,6.44,0,0,1,4.785852676074419,4.309201104951048 Z" fill="#f24300" stroke="black" stroke-width="0.07" />
<path d="M3.4967645966947742,4.16728177056724 A5.44,5.44,0,0,0,3.913208513842263,3.7789415352969455 L4.632548314180914,4.473599905755942 A6.44,6.44,0,0,1,4.139552206381314,4.933326213686219 Z" fill="#f72900" stroke="black" stroke-width="0.07" />
<path d="M3.042009394880863,4.509964394699427 A5.44,5.44,0,0,0,3.4967645966947742,4.16728177056724 L4.139552206381314,4.933326213686219 A6.44,6.44,0,0,1,3.6012022983516094,5.339001967254469 Z" fill="#fa1600" stroke="black" stroke-width="0.07" />
</svg>