<?xml version="1.0" encoding="UTF-8"?>
<svg xmlns="http://www.w3.org/2000/svg" xmlns:xlink="http://www.w3.org/1999/xlink"
     width="600" height="600.0" viewBox="-7.0 -7.0 14 14">
<defs>
</defs>
<path d="M0.5000000000000001,0.8660254037844386 A1.0,1.0,0,1,0,0.4694715627858902,0.8829475928589272 L0.9389431255717804,1.7658951857178544 A2.0,2.0,0,1,1,1.0000000000000002,1.7320508075688772 Z" fill="red" stroke="black" stroke-width="0.07" />
<path d="M0.1457910301252217,2.0849088650430327 A2.09,2.09,0,0,0,1.0450000000000002,1.8099930939094766 L1.5450000000000004,2.676018497693915 A3.09,3.09,0,0,1,0.21554750386934693,3.082472915302857 Z" fill="#ff0000" stroke="black" stroke-width="0.07" />
<path d="M-0.8832721670380628,1.8941832749065979 A2.09,2.09,0,0,0,0.03647552945392174,2.0896816828768574 L0.05392793589120487,3.089529378033249 A3.09,3.09,0,0,1,-1.3058904287787627,2.8004910619432475 Z" fill="#ff0000" stroke="black" stroke-width="0.07" />
<path d="M-1.6908455182436404,1.2284711772912686 A2.09,2.09,0,0,0,-0.9811955662225116,1.8453604690751573 L-1.4506671290084023,2.7283080619340843 A3.09,3.09,0,0,1,-2.499862512618588,1.8162564295837416 Z" fill="#d72837" stroke="black" stroke-width="0.07" />
<path d="M-2.074421456930363,0.25470692771675874 A2.09,2.09,0,0,0,-1.7528214870059362,1.1382955831814066 L-2.59149205495136,1.6829346181964335 A3.09,3.09,0,0,1,-3.0669676085716846,0.3765762711219065 Z" fill="#9d6589" stroke="black" stroke-width="0.07" />
<path d="M-1.9378142560445855,-0.7829277802392566 A2.09,2.09,0,0,0,-2.0849088650430327,0.14579103012522088 L-3.082472915302857,0.2155475038693457 A3.09,3.09,0,0,1,-2.864998110611373,-1.1575343736551689 Z" fill="#8a7aa4" stroke="black" stroke-width="0.07" />
<path d="M-1.3152796172941599,-1.6242350594450694 A2.09,2.09,0,0,0,-1.8941832749065983,-0.8832721670380619 L-2.8004910619432484,-1.3058904287787614 A3.09,3.09,0,0,1,-1.9446000083439972,-2.4013810209020403 Z" fill="#7c8cb0" stroke="black" stroke-width="0.07" />
<path d="M-0.36292469132388433,-2.0582482037955145 A2.09,2.09,0,0,0,-1.2284711772912686,-1.6908455182436402 L-1.8162564295837416,-2.4998625126185874 A3.09,3.09,0,0,1,-0.5365728689908146,-3.0430559568077227 Z" fill="#79ab7f" stroke="black" stroke-width="0.07" />
<path d="M0.6804374428154576,-1.9761338230025718 A2.09,2.09,0,0,0,-0.25470692771675796,-2.074421456930363 L-0.37657627112190534,-3.066967608571685 A3.09,3.09,0,0,1,1.0060055972726143,-2.9216523986018887 Z" fill="#92cc4c" stroke="black" stroke-width="0.07" />
<path d="M1.5531726852477539,-1.3984829672900136 A2.09,2.09,0,0,0,0.7829277802392559,-1.9378142560445857 L1.157534373655168,-2.864998110611373 A3.09,3.09,0,0,1,2.296317510725148,-2.0676135736488717 Z" fill="#dff016" stroke="black" stroke-width="0.07" />
<path d="M2.0364334354011415,-0.4701477035786778 A2.09,2.09,0,0,0,1.6242350594450692,-1.31527961729416 L2.40138102090204,-1.9446000083439974 A3.09,3.09,0,0,1,3.010803500186377,-0.6950987579225428 Z" fill="#f5e100" stroke="black" stroke-width="0.07" />
<path d="M2.0090369445110863,0.5760820736575282 A2.09,2.09,0,0,0,2.0582482037955145,-0.3629246913238844 L3.0430559568077227,-0.5365728689908147 A3.09,3.09,0,0,1,2.970298640449405,0.8517194294745274 Z" fill="#e4ae00" stroke="black" stroke-width="0.07" />
<path d="M1.4778531726798843,1.477853172679884 A2.09,2.09,0,0,0,1.976133823002572,0.6804374428154574 L2.9216523986018887,1.006005597272614 A3.09,3.09,0,0,1,2.1849599538664317,2.1849599538664317 Z" fill="#ee5900" stroke="black" stroke-width="0.07" />
<path d="M1.1382955831814068,1.752821487005936 A2.09,2.09,0,0,0,1.3984829672900136,1.5531726852477536 L2.0676135736488717,2.2963175107251477 A3.09,3.09,0,0,1,1.682934618196434,2.59149205495136 Z" fill="#fa1800" stroke="black" stroke-width="0.07" />
<path d="M0.16642834085256175,3.1756419205195447 A3.18,3.18,0,0,0,1.5900000000000005,2.753960784034515 L2.0900000000000003,3.619986187818953 A4.18,4.18,0,0,1,0.21876429709550568,4.174271455274118 Z" fill="#ff0000" stroke="black" stroke-width="0.07" />
<path d="M-1.3940202467892673,2.8581650672313508 A3.18,3.18,0,0,0,0.05549865247056036,3.179515670597324 L0.07295105890784348,4.179363365753715 A4.18,4.18,0,0,1,-1.832391393578345,3.756959113530517 Z" fill="#ff0000" stroke="black" stroke-width="0.07" />
<path d="M-1.9137717736235136,2.539660921950391 A3.18,3.18,0,0,0,-1.4929195696591326,2.807773345291388 L-1.9623911324450232,3.6907209381503145 A4.18,4.18,0,0,1,-2.5155867967755614,3.338296431997684 Z" fill="#e8171f" stroke="black" stroke-width="0.07" />
<path d="M-2.3999764651084146,2.0862677121898137 A3.18,3.18,0,0,0,-2.0440645988031956,2.4360213291183497 L-2.686852208489735,3.2020657722373276 A4.18,4.18,0,0,1,-3.1546860453311862,2.7423267411803205 Z" fill="#d03041" stroke="black" stroke-width="0.07" />
<path d="M-2.9050745553034716,1.2934225249810436 A3.18,3.18,0,0,0,-2.666972406066449,1.7319521313477861 L-3.5056429740118724,2.276591166362813 A4.18,4.18,0,0,1,-3.8186200129460723,1.700159168056843 Z" fill="#ae5371" stroke="black" stroke-width="0.07" />
<path d="M-3.110509370333502,0.6611591768004739 A3.18,3.18,0,0,0,-2.9687857562611017,1.1396100795540554 L-3.902366182758303,1.4979780290993556 A4.18,4.18,0,0,1,-4.088656971067308,0.8690708676182328 Z" fill="#976b92" stroke="black" stroke-width="0.07" />
<path d="M-3.085540409557669,-0.7693116280069434 A3.18,3.18,0,0,0,-3.1722536798262415,0.22182558650631698 L-4.1698177300860655,0.29158206025044175 A4.18,4.18,0,0,1,-4.055836135833665,-1.011233523606611 Z" fill="#8c77a1" stroke="black" stroke-width="0.07" />
<path d="M-2.92720543397876,-1.242524988595892 A3.18,3.18,0,0,0,-3.041049123962453,-0.9297420210183038 L-3.997353879925488,-1.2221137257410408 A4.18,4.18,0,0,1,-3.8477102874311995,-1.6332561170851658 Z" fill="#8480ac" stroke="black" stroke-width="0.07" />
<path d="M-2.4360213291183497,-2.0440645988031956 A3.18,3.18,0,0,0,-2.882058762776547,-1.3439260723354245 L-3.7883665498131966,-1.7665443340761238 A4.18,4.18,0,0,1,-3.2020657722373276,-2.686852208489735 Z" fill="#7d87b5" stroke="black" stroke-width="0.07" />
<path d="M-1.9578034915355935,-2.5058741964693763 A3.18,3.18,0,0,0,-2.325704771148962,-2.1687547849987454 L-3.0570584727681323,-2.850753145061244 A4.18,4.18,0,0,1,-2.5734649668612515,-3.2938849500760976 Z" fill="#7b97a0" stroke="black" stroke-width="0.07" />
<path d="M-0.44257046105300785,-3.149052458598194 A3.18,3.18,0,0,0,-1.8691571022900644,-2.572674042112333 L-2.4569423545825373,-3.3816910364872803 A4.18,4.18,0,0,1,-0.5817435620130731,-4.1393205273397635 Z" fill="#79ad7d" stroke="black" stroke-width="0.07" />
<path d="M0.4974615988279344,-3.140848923092538 A3.18,3.18,0,0,0,-0.38754451202836865,-3.1562967622194043 L-0.5094138554335159,-4.148842913860726 A4.18,4.18,0,0,1,0.6538960638681652,-4.128537263687676 Z" fill="#85c655" stroke="black" stroke-width="0.07" />
<path d="M1.087624055775627,-2.988222534099189 A3.18,3.18,0,0,0,0.6611591768004751,-3.110509370333502 L0.8690708676182345,-4.088656971067307 A4.18,4.18,0,0,1,1.4296441991012956,-3.9279151548850963 Z" fill="#add839" stroke="black" stroke-width="0.07" />
<path d="M2.3999764651084154,-2.0862677121898128 A3.18,3.18,0,0,0,1.1912489670626,-2.948444657522384 L1.5658555604785118,-3.8756285120891714 A4.18,4.18,0,0,1,3.154686045331187,-2.7423267411803196 Z" fill="#e0f015" stroke="black" stroke-width="0.07" />
<path d="M3.110509370333502,-0.6611591768004746 A3.18,3.18,0,0,0,2.4713241574331675,-2.001238843538483 L3.2484701188901384,-2.63055923458832 A4.18,4.18,0,0,1,4.088656971067308,-0.8690708676182338 Z" fill="#f4e000" stroke="black" stroke-width="0.07" />
<path d="M3.041049123962453,0.9297420210183029 A3.18,3.18,0,0,0,3.131688654578822,-0.5522012049808385 L4.116496407591029,-0.7258493826477688 A4.18,4.18,0,0,1,3.997353879925488,1.2221137257410397 Z" fill="#e3ad00" stroke="black" stroke-width="0.07" />
<path d="M2.2090136180596116,2.2875005650769107 A3.18,3.18,0,0,0,3.0067490704058275,1.0353067311737583 L3.952267646005144,1.3608748856309147 A4.18,4.18,0,0,1,2.903671988518609,3.0068403654155613 Z" fill="#ee5800" stroke="black" stroke-width="0.07" />
<path d="M1.7319521313477866,2.6669724060664484 A3.18,3.18,0,0,0,2.1278353282211695,2.3632005450181133 L2.7969659345800273,3.1063453704955073 A4.18,4.18,0,0,1,2.2765911663628136,3.505642974011872 Z" fill="#fa1800" stroke="black" stroke-width="0.07" />
<path d="M0.22347453315737068,4.2641481134020305 A4.2700000000000005,4.2700000000000005,0,0,0,2.1350000000000007,3.697928474159553 L2.6350000000000007,4.563953877943992 A5.2700000000000005,5.2700000000000005,0,0,1,0.2758104894003146,5.262777648156605 Z" fill="#ff0000" stroke="black" stroke-width="0.07" />
<path d="M-0.4463365381528799,4.246608493222528 A4.2700000000000005,4.2700000000000005,0,0,0,0.07452177548719897,4.2693496583177915 L0.0919741819244821,5.2691973534741825 A5.2700000000000005,5.2700000000000005,0,0,1,-0.5508650014205333,5.241130388590801 Z" fill="#ff0000" stroke="black" stroke-width="0.07" />
<path d="M-1.1769715093385853,4.104587441656623 A4.2700000000000005,4.2700000000000005,0,0,0,-0.6679751657217866,4.217429214341238 L-0.8244096307620177,5.2051175549363755 A5.2700000000000005,5.2700000000000005,0,0,1,-1.4526088651555842,5.065849137594942 Z" fill="#ff0000" stroke="black" stroke-width="0.07" />
<path d="M-1.871844796789362,3.8378505776974428 A4.2700000000000005,4.2700000000000005,0,0,0,-1.390176019532059,4.037364317809083 L-1.7157441739892156,4.982882893408401 A5.2700000000000005,5.2700000000000005,0,0,1,-2.3102159435784397,4.736644623996609 Z" fill="#fc0203" stroke="black" stroke-width="0.07" />
<path d="M-2.2627552582757855,3.6211653705879394 A4.2700000000000005,4.2700000000000005,0,0,0,-2.0046435730957537,3.7701862215076187 L-2.4741151358816444,4.653133814366545 A5.2700000000000005,5.2700000000000005,0,0,1,-2.7926745225089906,4.469213466744365 Z" fill="#ed1118" stroke="black" stroke-width="0.07" />
<path d="M-2.687198069782805,3.318413255421267 A4.2700000000000005,4.2700000000000005,0,0,0,-2.4491713832189683,3.4977792291139944 L-3.022747819570015,4.316931273402986 A5.2700000000000005,5.2700000000000005,0,0,1,-3.316518460832642,4.095559216878238 Z" fill="#df202c" stroke="black" stroke-width="0.07" />
<path d="M-3.173228404788474,2.857187689152325 A4.2700000000000005,4.2700000000000005,0,0,0,-2.7447030933615237,3.271009772118036 L-3.3874907030480634,4.0370542152370135 A5.2700000000000005,5.2700000000000005,0,0,1,-3.916373230265868,3.5263182955111834 Z" fill="#d12e40" stroke="black" stroke-width="0.07" />
<path d="M-3.7701862215076183,2.004643573095754 A4.2700000000000005,4.2700000000000005,0,0,0,-3.581123325126961,2.3256086795141657 L-4.419793893072385,2.870247714529193 A5.2700000000000005,5.2700000000000005,0,0,1,-4.653133814366545,2.474115135881645 Z" fill="#b24f6c" stroke="black" stroke-width="0.07" />
<path d="M-4.104587441656622,1.1769715093385857 A4.2700000000000005,4.2700000000000005,0,0,0,-3.986388421143052,1.5302311445584331 L-4.919968847640254,1.8885990941037334 A5.2700000000000005,5.2700000000000005,0,0,1,-5.065849137594941,1.4526088651555848 Z" fill="#9a688e" stroke="black" stroke-width="0.07" />
<path d="M-4.2381720675084456,-0.5203820963399801 A4.2700000000000005,4.2700000000000005,0,0,0,-4.25959849460945,0.2978601428874131 L-5.257162544869274,0.3676166166315379 A5.2700000000000005,5.2700000000000005,0,0,1,-5.230718219149767,-0.6422514397451277 Z" fill="#8e759f" stroke="black" stroke-width="0.07" />
<path d="M-4.124503278254322,-1.105157322587765 A4.2700000000000005,4.2700000000000005,0,0,0,-4.205129105362129,-0.7414777186377923 L-5.189936858374336,-0.9151258963047226 A5.2700000000000005,5.2700000000000005,0,0,1,-5.09042910454339,-1.3639763676902859 Z" fill="#887ca7" stroke="black" stroke-width="0.07" />
<path d="M-3.93055572424192,-1.6684219186492009 A4.2700000000000005,4.2700000000000005,0,0,0,-4.083421307962162,-1.2484271791660873 L-5.0397260639251975,-1.5407988838888245 A5.2700000000000005,5.2700000000000005,0,0,1,-4.85106057769436,-2.059153047138475 Z" fill="#8480ac" stroke="black" stroke-width="0.07" />
<path d="M-3.2226099075512367,-2.8013720537894664 A4.2700000000000005,4.2700000000000005,0,0,0,-3.8699342506464958,-1.804579977632787 L-4.776242037683145,-2.2271982393734864 A5.2700000000000005,5.2700000000000005,0,0,1,-3.977319487774009,-3.4574310827799737 Z" fill="#7d88b6" stroke="black" stroke-width="0.07" />
<path d="M-2.628874499640561,-3.3648059179007035 A4.2700000000000005,4.2700000000000005,0,0,0,-3.122880305913858,-2.9121329974668693 L-3.854234007533029,-3.594131357529368 A5.2700000000000005,5.2700000000000005,0,0,1,-3.2445359749662193,-4.152816671507425 Z" fill="#7b97a0" stroke="black" stroke-width="0.07" />
<path d="M-1.3195025659810253,-4.061011324580306 A4.2700000000000005,4.2700000000000005,0,0,0,-2.50984302728886,-3.454502565981026 L-3.097628279581333,-4.263519560355974 A5.2700000000000005,5.2700000000000005,0,0,1,-1.6285195603559726,-5.01206784087546 Z" fill="#7aa785" stroke="black" stroke-width="0.07" />
<path d="M-0.5203820963399793,-4.2381720675084456 A4.2700000000000005,4.2700000000000005,0,0,0,-1.1051573225877642,-4.1245032782543225 L-1.363976367690285,-5.09042910454339 A5.2700000000000005,5.2700000000000005,0,0,1,-0.6422514397451267,-5.230718219149768 Z" fill="#78b86a" stroke="black" stroke-width="0.07" />
<path d="M0.741477718637793,-4.205129105362129 A4.2700000000000005,4.2700000000000005,0,0,0,-0.5203820963399793,-4.2381720675084456 L-0.6422514397451267,-5.230718219149768 A5.2700000000000005,5.2700000000000005,0,0,1,0.9151258963047234,-5.189936858374336 Z" fill="#87c754" stroke="black" stroke-width="0.07" />
<path d="M1.460426012000606,-4.012487490755829 A4.2700000000000005,4.2700000000000005,0,0,0,0.887782919791833,-4.176690255133351 L1.0956946106095924,-5.1548378558671555 A5.2700000000000005,5.2700000000000005,0,0,1,1.802446155326275,-4.952180111541737 Z" fill="#add839" stroke="black" stroke-width="0.07" />
<path d="M3.222609907551237,-2.801372053789466 A4.2700000000000005,4.2700000000000005,0,0,0,1.5995701538859441,-3.959075059000183 L1.974176747301856,-4.88625891356697 A5.2700000000000005,5.2700000000000005,0,0,1,3.9773194877740092,-3.4574310827799732 Z" fill="#e0f015" stroke="black" stroke-width="0.07" />
<path d="M4.176690255133351,-0.8877829197918323 A4.2700000000000005,4.2700000000000005,0,0,0,3.318413255421266,-2.6871980697828057 L4.095559216878237,-3.3165184608326435 A5.2700000000000005,5.2700000000000005,0,0,1,5.154837855867156,-1.0956946106095917 Z" fill="#f4e000" stroke="black" stroke-width="0.07" />
<path d="M4.083421307962162,1.2484271791660861 A4.2700000000000005,4.2700000000000005,0,0,0,4.205129105362129,-0.7414777186377925 L5.189936858374336,-0.915125896304723 A5.2700000000000005,5.2700000000000005,0,0,1,5.0397260639251975,1.540798883888823 Z" fill="#e3ad00" stroke="black" stroke-width="0.07" />
<path d="M2.966191241859919,3.0715809474460403 A4.2700000000000005,4.2700000000000005,0,0,0,4.037364317809083,1.390176019532059 L4.982882893408401,1.7157441739892156 A5.2700000000000005,5.2700000000000005,0,0,1,3.6608496123189163,3.7909207477846913 Z" fill="#ee5800" stroke="black" stroke-width="0.07" />
<path d="M2.325608679514166,3.5811233251269607 A4.2700000000000005,4.2700000000000005,0,0,0,2.857187689152325,3.1732284047884733 L3.5263182955111834,3.9163732302658674 A5.2700000000000005,5.2700000000000005,0,0,1,2.8702477145291936,4.419793893072384 Z" fill="#fa1800" stroke="black" stroke-width="0.07" />
</svg>