<?xml version="1.0" encoding="UTF-8"?>
<svg xmlns="http://www.w3.org/2000/svg" xmlns:xlink="http://www.w3.org/1999/xlink"
     width="600" height="600.0" viewBox="-7.0 -7.0 14 14">
<defs>
</defs>
<path d="M0.5000000000000001,0.8660254037844386 A1.0,1.0,0,1,0,0.4694715627858902,0.8829475928589272 L0.9389431255717804,1.7658951857178544 A2.0,2.0,0,1,1,1.0000000000000002,1.7320508075688772 Z" fill="red" stroke="black" stroke-width="0.07" />
<path d="M-0.6804374428154574,1.976133823002572 A2.09,2.09,0,0,0,1.0450000000000002,1.8099930939094766 L1.5450000000000004,2.676018497693915 A3.09,3.09,0,0,1,-1.006005597272614,2.9216523986018887 Z" fill="#ff0000" stroke="black" stroke-width="0.07" />
<path d="M-1.9761338230025718,0.6804374428154576 A2.09,2.09,0,0,0,-0.7829277802392567,1.9378142560445855 L-1.1575343736551689,2.864998110611373 A3.09,3.09,0,0,1,-2.9216523986018887,1.0060055972726143 Z" fill="#cc3447" stroke="black" stroke-width="0.07" />
<path d="M-1.7528214870059364,-1.1382955831814063 A2.09,2.09,0,0,0,-2.0090369445110863,0.5760820736575278 L-2.970298640449405,0.8517194294745268 A3.09,3.09,0,0,1,-2.5914920549513605,-1.6829346181964333 Z" fill="#8a79a4" stroke="black" stroke-width="0.07" />
<path d="M-0.1821555023426057,-2.082046919011748 A2.09,2.09,0,0,0,-1.69084551824364,-1.228471177291269 L-2.4998625126185874,-1.8162564295837422 A3.09,3.09,0,0,1,-0.26931124509026394,-3.0782416171034934 Z" fill="#7aa58a" stroke="black" stroke-width="0.07" />
<path d="M1.5285292363840663,-1.4253765725306218 A2.09,2.09,0,0,0,-0.07293994810822653,-2.08872682846991 L-0.10783944481072726,-3.0881176554890057 A3.09,3.09,0,0,1,2.259882938003237,-2.10737493259312 Z" fill="#bee02d" stroke="black" stroke-width="0.07" />
<path d="M2.064268631843838,0.3269480319340825 A2.09,2.09,0,0,0,1.601032886118664,-1.343426104244867 L2.367077329237642,-1.9862137139314062 A3.09,3.09,0,0,1,3.0519569724389757,0.48338249697431335 Z" fill="#efcf00" stroke="black" stroke-width="0.07" />
<path d="M1.1382955831814068,1.752821487005936 A2.09,2.09,0,0,0,2.044328485533654,0.4345354338091169 L3.0224760862674596,0.6424471246268763 A3.09,3.09,0,0,1,1.682934618196434,2.59149205495136 Z" fill="#f05100" stroke="black" stroke-width="0.07" />
<path d="M-1.0876240557756287,2.9882225340991884 A3.18,3.18,0,0,0,1.5900000000000005,2.753960784034515 L2.0900000000000003,3.619986187818953 A4.18,4.18,0,0,1,-1.4296441991012978,3.927915154885096 Z" fill="#ff0000" stroke="black" stroke-width="0.07" />
<path d="M-1.5900000000000014,2.7539607840345144 A3.18,3.18,0,0,0,-1.1912489670626012,2.948444657522384 L-1.5658555604785134,3.875628512089171 A4.18,4.18,0,0,1,-2.0900000000000016,3.6199861878189523 Z" fill="#f5090c" stroke="black" stroke-width="0.07" />
<path d="M-2.086267712189814,2.399976465108414 A3.18,3.18,0,0,0,-1.731952131347786,2.666972406066449 L-2.2765911663628127,3.5056429740118724 A4.18,4.18,0,0,1,-2.742326741180322,3.1546860453311854 Z" fill="#df202c" stroke="black" stroke-width="0.07" />
<path d="M-2.5058741964693767,1.957803491535592 A3.18,3.18,0,0,0,-2.2090136180596125,2.28750056507691 L-2.9036719885186097,3.0068403654155604 A4.18,4.18,0,0,1,-3.293884950076099,2.5734649668612497 Z" fill="#c9374b" stroke="black" stroke-width="0.07" />
<path d="M-2.833400746919011,1.443689789171757 A3.18,3.18,0,0,0,-2.604903500838995,1.8239730675963257 L-3.4240555451279864,2.3975495039473715 A4.18,4.18,0,0,1,-3.7244072711073786,1.8976802889113031 Z" fill="#b34e6a" stroke="black" stroke-width="0.07" />
<path d="M-3.0243597218185885,0.9826740421123338 A3.18,3.18,0,0,0,-2.9050745553034716,1.2934225249810436 L-3.8186200129460723,1.700159168056843 A4.18,4.18,0,0,1,-3.9754162381137417,1.2916910364872813 Z" fill="#9f6287" stroke="black" stroke-width="0.07" />
<path d="M-3.140848923092538,0.4974615988279337 A3.18,3.18,0,0,0,-3.056812193083854,0.8765267914980569 L-4.0180738890221726,1.1521641473150557 A4.18,4.18,0,0,1,-4.128537263687676,0.6538960638681645 Z" fill="#956d95" stroke="black" stroke-width="0.07" />
<path d="M-3.179515670597324,-0.055498652470561335 A3.18,3.18,0,0,0,-3.1625796272711098,0.3324005131911367 L-4.157101522639382,0.43692897645878975 A4.18,4.18,0,0,1,-4.179363365753715,-0.07295105890784477 Z" fill="#90739c" stroke="black" stroke-width="0.07" />
<path d="M-3.1215744433635715,-0.6067726052974131 A3.18,3.18,0,0,0,-3.172253679826241,-0.22182558650631917 L-4.169817730086065,-0.2915820602504447 A4.18,4.18,0,0,1,-4.103201626811235,-0.7975816006739579 Z" fill="#8b79a3" stroke="black" stroke-width="0.07" />
<path d="M-2.9687857562611017,-1.1396100795540547 A3.18,3.18,0,0,0,-3.085540409557669,-0.7693116280069434 L-4.055836135833665,-1.011233523606611 A4.18,4.18,0,0,1,-3.902366182758303,-1.4979780290993547 Z" fill="#857faa" stroke="black" stroke-width="0.07" />
<path d="M-2.725792016232717,-1.637821078213973 A3.18,3.18,0,0,0,-2.9050745553034707,-1.2934225249810454 L-3.818620012946071,-1.7001591680568457 A4.18,4.18,0,0,1,-3.582959316934829,-2.152859153124027 Z" fill="#8085b2" stroke="black" stroke-width="0.07" />
<path d="M-1.4436897891717586,-2.83340074691901 A3.18,3.18,0,0,0,-2.572674042112333,-1.869157102290065 L-3.38169103648728,-2.456942354582538 A4.18,4.18,0,0,1,-1.8976802889113051,-3.7244072711073777 Z" fill="#7b999c" stroke="black" stroke-width="0.07" />
<path d="M-0.22182558650631856,-3.172253679826241 A3.18,3.18,0,0,0,-1.2934225249810443,-2.905074555303471 L-1.700159168056844,-3.818620012946072 A4.18,4.18,0,0,1,-0.29158206025044386,-4.169817730086065 Z" fill="#78b56f" stroke="black" stroke-width="0.07" />
<path d="M0.823044563426016,-3.0716441275992374 A3.18,3.18,0,0,0,-0.11098039951395233,-3.1780628299207248 L-0.14587989621645306,-4.17745365693982 A4.18,4.18,0,0,1,1.0818636085285367,-4.037569953888306 Z" fill="#94cd4b" stroke="black" stroke-width="0.07" />
<path d="M1.8239730675963268,-2.604903500838994 A3.18,3.18,0,0,0,0.9826740421123329,-3.0243597218185885 L1.2916910364872802,-3.9754162381137417 A4.18,4.18,0,0,1,2.397549503947373,-3.4240555451279855 Z" fill="#c8e526" stroke="black" stroke-width="0.07" />
<path d="M2.3632005450181137,-2.1278353282211695 A3.18,3.18,0,0,0,1.9578034915355935,-2.5058741964693763 L2.5734649668612515,-3.2938849500760976 A4.18,4.18,0,0,1,3.1063453704955077,-2.7969659345800273 Z" fill="#f4f907" stroke="black" stroke-width="0.07" />
<path d="M3.0243597218185885,-0.9826740421123328 A3.18,3.18,0,0,0,2.43602132911835,-2.044064598803195 L3.202065772237328,-2.686852208489734 A4.18,4.18,0,0,1,3.9754162381137417,-1.29169103648728 Z" fill="#f6e600" stroke="black" stroke-width="0.07" />
<path d="M3.1562967622194043,0.387544512028369 A3.18,3.18,0,0,0,3.0716441275992374,-0.823044563426016 L4.037569953888306,-1.0818636085285367 A4.18,4.18,0,0,1,4.148842913860726,0.5094138554335164 Z" fill="#e8bb00" stroke="black" stroke-width="0.07" />
<path d="M2.2485995641732215,2.248599564173221 A3.18,3.18,0,0,0,3.110509370333502,0.6611591768004746 L4.088656971067308,0.8690708676182338 A4.18,4.18,0,0,1,2.9557063453597685,2.955706345359768 Z" fill="#ec6500" stroke="black" stroke-width="0.07" />
<path d="M1.7319521313477866,2.6669724060664484 A3.18,3.18,0,0,0,2.1278353282211695,2.3632005450181133 L2.7969659345800273,3.1063453704955073 A4.18,4.18,0,0,1,2.2765911663628136,3.505642974011872 Z" fill="#fa1800" stroke="black" stroke-width="0.07" />
<path d="M1.7367654659336684,3.9008391041339054 A4.2700000000000005,4.2700000000000005,0,0,0,2.1350000000000007,3.697928474159553 L2.6350000000000007,4.563953877943992 A5.2700000000000005,5.2700000000000005,0,0,1,2.1435021090094692,4.814384561776507 Z" fill="#ff0000" stroke="black" stroke-width="0.07" />
<path d="M1.1051573225877653,4.124503278254322 A4.2700000000000005,4.2700000000000005,0,0,0,1.5302311445584291,3.986388421143053 L1.8885990941037287,4.919968847640256 A5.2700000000000005,5.2700000000000005,0,0,1,1.3639763676902865,5.09042910454339 Z" fill="#ff0000" stroke="black" stroke-width="0.07" />
<path d="M0.44633653815287827,4.246608493222528 A4.2700000000000005,4.2700000000000005,0,0,0,0.8877829197918292,4.176690255133352 L1.0956946106095877,5.154837855867157 A5.2700000000000005,5.2700000000000005,0,0,1,0.5508650014205313,5.241130388590801 Z" fill="#ff0000" stroke="black" stroke-width="0.07" />
<path d="M-0.2234745331573722,4.2641481134020305 A4.2700000000000005,4.2700000000000005,0,0,0,0.22347453315737068,4.2641481134020305 L0.2758104894003146,5.262777648156605 A5.2700000000000005,5.2700000000000005,0,0,1,-0.2758104894003165,5.262777648156605 Z" fill="#ff0000" stroke="black" stroke-width="0.07" />
<path d="M-0.8877829197918344,4.176690255133351 A4.2700000000000005,4.2700000000000005,0,0,0,-0.4463365381528799,4.246608493222528 L-0.5508650014205333,5.241130388590801 A5.2700000000000005,5.2700000000000005,0,0,1,-1.0956946106095942,5.1548378558671555 Z" fill="#ff0000" stroke="black" stroke-width="0.07" />
<path d="M-1.5302311445584342,3.9863884211430514 A4.2700000000000005,4.2700000000000005,0,0,0,-1.1051573225877631,4.1245032782543225 L-1.3639763676902839,5.09042910454339 A5.2700000000000005,5.2700000000000005,0,0,1,-1.888599094103735,4.919968847640253 Z" fill="#ff0000" stroke="black" stroke-width="0.07" />
<path d="M-2.0701370784518587,3.734626149485221 A4.2700000000000005,4.2700000000000005,0,0,0,-1.5995701538859457,3.9590750590001824 L-1.9741767473018579,4.886258913566969 A5.2700000000000005,5.2700000000000005,0,0,1,-2.5549466986981955,4.609245856624617 Z" fill="#f6080b" stroke="black" stroke-width="0.07" />
<path d="M-2.687198069782805,3.318413255421267 A4.2700000000000005,4.2700000000000005,0,0,0,-2.3256086795141653,3.581123325126961 L-2.8702477145291923,4.419793893072385 A5.2700000000000005,5.2700000000000005,0,0,1,-3.316518460832642,4.095559216878238 Z" fill="#e11e29" stroke="black" stroke-width="0.07" />
<path d="M-3.173228404788474,2.857187689152325 A4.2700000000000005,4.2700000000000005,0,0,0,-2.96619124185992,3.0715809474460394 L-3.6608496123189176,3.7909207477846905 A5.2700000000000005,5.2700000000000005,0,0,1,-3.916373230265868,3.5263182955111834 Z" fill="#cd3345" stroke="black" stroke-width="0.07" />
<path d="M-3.8045978582843323,1.9385394338878628 A4.2700000000000005,4.2700000000000005,0,0,0,-3.497779229113996,2.449171383218966 L-4.3169312734029885,3.0227478195700117 A5.2700000000000005,5.2700000000000005,0,0,1,-4.6956043824727,2.392529933627409 Z" fill="#b34e6a" stroke="black" stroke-width="0.07" />
<path d="M-4.037364317809083,1.3901760195320596 A4.2700000000000005,4.2700000000000005,0,0,0,-3.900839104133907,1.7367654659336653 L-4.814384561776508,2.1435021090094653 A5.2700000000000005,5.2700000000000005,0,0,1,-4.9828828934084,1.7157441739892163 Z" fill="#a06185" stroke="black" stroke-width="0.07" />
<path d="M-4.2284446535265054,0.5942691410994798 A4.2700000000000005,4.2700000000000005,0,0,0,-4.104587441656622,1.1769715093385857 L-5.065849137594941,1.4526088651555848 A5.2700000000000005,5.2700000000000005,0,0,1,-5.218712722268076,0.7334422420595453 Z" fill="#956e95" stroke="black" stroke-width="0.07" />
<path d="M-4.2693496583177915,-0.07452177548720029 A4.2700000000000005,4.2700000000000005,0,0,0,-4.246608493222528,0.4463365381528786 L-5.241130388590801,0.5508650014205316 A5.2700000000000005,5.2700000000000005,0,0,1,-5.2691973534741825,-0.09197418192448373 Z" fill="#90739c" stroke="black" stroke-width="0.07" />
<path d="M-4.176690255133351,-0.8877829197918323 A4.2700000000000005,4.2700000000000005,0,0,0,-4.25959849460945,-0.297860142887416 L-5.257162544869274,-0.36761661663154155 A5.2700000000000005,5.2700000000000005,0,0,1,-5.154837855867156,-1.0956946106095917 Z" fill="#8a79a4" stroke="black" stroke-width="0.07" />
<path d="M-3.986388421143052,-1.530231144558432 A4.2700000000000005,4.2700000000000005,0,0,0,-4.143162751198505,-1.0330064942105812 L-5.113458477474502,-1.274928389810249 A5.2700000000000005,5.2700000000000005,0,0,1,-4.919968847640254,-1.8885990941037323 Z" fill="#857faa" stroke="black" stroke-width="0.07" />
<path d="M-3.6211653705879394,-2.262755258275785 A4.2700000000000005,4.2700000000000005,0,0,0,-3.9008391041339054,-1.736765465933668 L-4.814384561776507,-2.1435021090094684 A5.2700000000000005,5.2700000000000005,0,0,1,-4.469213466744365,-2.79267452250899 Z" fill="#8085b2" stroke="black" stroke-width="0.07" />
<path d="M-2.5697501488592467,-3.41017362790194 A4.2700000000000005,4.2700000000000005,0,0,0,-3.4545025659810253,-2.509843027288861 L-4.263519560355973,-3.0976282795813344 A5.2700000000000005,5.2700000000000005,0,0,1,-3.171565172011295,-4.208809137949233 Z" fill="#7c93a5" stroke="black" stroke-width="0.07" />
<path d="M-1.8718447967893612,-3.837850577697443 A4.2700000000000005,4.2700000000000005,0,0,0,-2.3877536978200884,-3.5399904348100284 L-2.9469466012908354,-4.3690280073650705 A5.2700000000000005,5.2700000000000005,0,0,1,-2.310215943578439,-4.73664462399661 Z" fill="#7aa48b" stroke="black" stroke-width="0.07" />
<path d="M-0.5942691410994791,-4.228444653526506 A4.2700000000000005,4.2700000000000005,0,0,0,-1.7367654659336664,-3.9008391041339068 L-2.1435021090094666,-4.8143845617765075 A5.2700000000000005,5.2700000000000005,0,0,1,-0.7334422420595444,-5.2187127222680765 Z" fill="#79b373" stroke="black" stroke-width="0.07" />
<path d="M1.1769715093385866,-4.104587441656622 A4.2700000000000005,4.2700000000000005,0,0,0,-0.14902085091967815,-4.26739883137154 L-0.18392034762217888,-5.2667896583906355 A5.2700000000000005,5.2700000000000005,0,0,1,1.4526088651555857,-5.065849137594941 Z" fill="#95cd4a" stroke="black" stroke-width="0.07" />
<path d="M2.5098430272888606,-3.454502565981026 A4.2700000000000005,4.2700000000000005,0,0,0,1.3195025659810258,-4.061011324580306 L1.6285195603559732,-5.01206784087546 A5.2700000000000005,5.2700000000000005,0,0,1,3.097628279581334,-4.263519560355974 Z" fill="#cae625" stroke="black" stroke-width="0.07" />
<path d="M3.173228404788474,-2.857187689152325 A4.2700000000000005,4.2700000000000005,0,0,0,2.628874499640561,-3.3648059179007035 L3.2445359749662193,-4.152816671507425 A5.2700000000000005,5.2700000000000005,0,0,1,3.916373230265868,-3.5263182955111834 Z" fill="#f4f907" stroke="black" stroke-width="0.07" />
<path d="M4.083421307962162,-1.2484271791660861 A4.2700000000000005,4.2700000000000005,0,0,0,3.2710097721180365,-2.744703093361523 L4.037054215237014,-3.387490703048062 A5.2700000000000005,5.2700000000000005,0,0,1,5.0397260639251975,-1.540798883888823 Z" fill="#f6e500" stroke="black" stroke-width="0.07" />
<path d="M4.2693496583177915,0.0745217754872006 A4.2700000000000005,4.2700000000000005,0,0,0,4.1245032782543225,-1.1051573225877638 L5.09042910454339,-1.3639763676902845 A5.2700000000000005,5.2700000000000005,0,0,1,5.2691973534741825,0.09197418192448412 Z" fill="#eac000" stroke="black" stroke-width="0.07" />
<path d="M4.228444653526506,0.5942691410994795 A4.2700000000000005,4.2700000000000005,0,0,0,4.25959849460945,0.2978601428874151 L5.257162544869274,0.3676166166315404 A5.2700000000000005,5.2700000000000005,0,0,1,5.2187127222680765,0.7334422420595449 Z" fill="#e2a900" stroke="black" stroke-width="0.07" />
<path d="M3.73462614948522,2.0701370784518596 A4.2700000000000005,4.2700000000000005,0,0,0,4.176690255133351,0.8877829197918323 L5.154837855867156,1.0956946106095917 A5.2700000000000005,5.2700000000000005,0,0,1,4.609245856624616,2.5549466986981964 Z" fill="#e77e00" stroke="black" stroke-width="0.07" />
<path d="M2.966191241859919,3.0715809474460403 A4.2700000000000005,4.2700000000000005,0,0,0,3.6211653705879394,2.262755258275785 L4.469213466744365,2.79267452250899 A5.2700000000000005,5.2700000000000005,0,0,1,3.6608496123189163,3.7909207477846913 Z" fill="#f24300" stroke="black" stroke-width="0.07" />
<path d="M2.325608679514166,3.5811233251269607 A4.2700000000000005,4.2700000000000005,0,0,0,2.857187689152325,3.1732284047884733 L3.5263182955111834,3.9163732302658674 A5.2700000000000005,5.2700000000000005,0,0,1,2.8702477145291936,4.419793893072384 Z" fill="#fa1800" stroke="black" stroke-width="0.07" />
</svg>