<?xml version="1.0" encoding="UTF-8"?>
<svg xmlns="http://www.w3.org/2000/svg" xmlns:xlink="http://www.w3.org/1999/xlink"
     width="600" height="600.0" viewBox="-7.0 -7.0 14 14">
<defs>
</defs>
<path d="M0.5000000000000001,0.8660254037844386 A1.0,1.0,0,1,0,0.4694715627858902,0.8829475928589272 L0.9389431255717804,1.7658951857178544 A2.0,2.0,0,1,1,1.0000000000000002,1.7320508075688772 Z" fill="red" stroke="black" stroke-width="0.07" />
<path d="M-1.5285292363840663,1.4253765725306216 A2.09,2.09,0,0,0,1.0450000000000002,1.8099930939094766 L1.5450000000000004,2.676018497693915 A3.09,3.09,0,0,1,-2.259882938003237,2.1073749325931197 Z" fill="#ff0000" stroke="black" stroke-width="0.07" />
<path d="M-1.8538526413424832,-0.9650546016612208 A2.09,2.09,0,0,0,-1.5653174564490149,1.3848759007708906 L-2.314273177238017,2.0474959489866276 A3.09,3.09,0,0,1,-2.740863474520705,-1.4268032148962546 Z" fill="#927099" stroke="black" stroke-width="0.07" />
<path d="M0.036475529453922254,-2.0896816828768574 A2.09,2.09,0,0,0,-1.827955187921337,-1.0132521063148445 L-2.702574895060733,-1.4980617265611818 A3.09,3.09,0,0,1,0.05392793589120563,-3.089529378033249 Z" fill="#7aa48b" stroke="black" stroke-width="0.07" />
<path d="M1.762688121748931,-1.1229561814448619 A2.09,2.09,0,0,0,0.0911645195935527,-2.088010783106083 L0.13478390695888895,-3.0870590046879403 A3.09,3.09,0,0,1,2.606079567561817,-1.6602557897916856 Z" fill="#d2ea1f" stroke="black" stroke-width="0.07" />
<path d="M1.9877081190568708,0.64584551824364 A2.09,2.09,0,0,0,1.7914796584674146,-1.076429576562013 L2.648646959169527,-1.5914676514720674 A3.09,3.09,0,0,1,2.9387646353520243,0.9548625126185875 Z" fill="#e9bf00" stroke="black" stroke-width="0.07" />
<path d="M0.7153443528134905,3.098496806017048 A3.18,3.18,0,0,0,1.5900000000000005,2.753960784034515 L2.0900000000000003,3.619986187818953 A4.18,4.18,0,0,1,0.9402954071573553,4.072866870802283 Z" fill="#ff0000" stroke="black" stroke-width="0.07" />
<path d="M-0.19413435572084747,3.174068658981537 A3.18,3.18,0,0,0,0.6339900314466863,3.1161605606942384 L0.8333579658638831,4.096085265315068 A4.18,4.18,0,0,1,-0.25518289525570514,4.172203457403404 Z" fill="#ff0000" stroke="black" stroke-width="0.07" />
<path d="M-0.9826740421123333,3.0243597218185885 A3.18,3.18,0,0,0,-0.27715526193755324,3.167899139931751 L-0.36431100468521144,4.164093838023496 A4.18,4.18,0,0,1,-1.2916910364872807,3.9754162381137417 Z" fill="#ff0000" stroke="black" stroke-width="0.07" />
<path d="M-1.613971994215039,2.7399807302040524 A3.18,3.18,0,0,0,-1.0615058123633925,2.997599941673127 L-1.3953126715971638,3.9402414327653053 A4.18,4.18,0,0,1,-2.121510357175743,3.6016098906455776 Z" fill="#f7070a" stroke="black" stroke-width="0.07" />
<path d="M-2.086267712189814,2.399976465108414 A3.18,3.18,0,0,0,-1.6851432602615921,2.696792945777435 L-2.215062524494797,3.5448410419338603 A4.18,4.18,0,0,1,-2.742326741180322,3.1546860453311854 Z" fill="#e01f2a" stroke="black" stroke-width="0.07" />
<path d="M-3.126750606053376,0.5795089710650275 A3.18,3.18,0,0,0,-2.381679192109028,2.107131753326044 L-3.1306349128980298,2.7697518015417812 A4.18,4.18,0,0,1,-4.11000551361733,0.7617444965571745 Z" fill="#a95878" stroke="black" stroke-width="0.07" />
<path d="M-3.0243597218185885,-0.9826740421123331 A3.18,3.18,0,0,0,-3.140848923092538,0.4974615988279337 L-4.128537263687676,0.6538960638681645 A4.18,4.18,0,0,1,-3.9754162381137417,-1.2916910364872805 Z" fill="#8c77a1" stroke="black" stroke-width="0.07" />
<path d="M-0.05549865247056146,-3.179515670597324 A3.18,3.18,0,0,0,-2.781290668703279,-1.5416945923833523 L-3.655910375842674,-2.026504212629689 A4.18,4.18,0,0,1,-0.07295105890784492,-4.179363365753715 Z" fill="#7aa38c" stroke="black" stroke-width="0.07" />
<path d="M1.9385394338878643,3.804597858284332 A4.2700000000000005,4.2700000000000005,0,0,0,2.1350000000000007,3.697928474159553 L2.6350000000000007,4.563953877943992 A5.2700000000000005,5.2700000000000005,0,0,1,2.392529933627411,4.6956043824727 Z" fill="#ff0000" stroke="black" stroke-width="0.07" />
<path d="M1.7026585243108017,3.91584651762448 A4.2700000000000005,4.2700000000000005,0,0,0,1.838282383371419,3.854039164173906 L2.268793480179714,4.756624448523766 A5.2700000000000005,5.2700000000000005,0,0,1,2.101407593236048,4.832906592009604 Z" fill="#ff0000" stroke="black" stroke-width="0.07" />
<path d="M1.4604260120006032,4.01248749075583 A4.2700000000000005,4.2700000000000005,0,0,0,1.5995701538859441,3.959075059000183 L1.974176747301856,4.88625891356697 A5.2700000000000005,5.2700000000000005,0,0,1,1.8024461553262714,4.952180111541739 Z" fill="#ff0000" stroke="black" stroke-width="0.07" />
<path d="M1.2127455218857484,4.094160267887185 A4.2700000000000005,4.2700000000000005,0,0,0,1.3548908828497441,4.049342007730472 L1.6721955392548364,4.9976656629366705 A5.2700000000000005,5.2700000000000005,0,0,1,1.4967608665896708,5.052980002755379 Z" fill="#ff0000" stroke="black" stroke-width="0.07" />
<path d="M0.3350203387578953,4.256837015040458 A4.2700000000000005,4.2700000000000005,0,0,0,0.851301079961431,4.184278488730944 L1.050669014378628,5.164203193351773 A5.2700000000000005,5.2700000000000005,0,0,1,0.4134794344857396,5.253754348773586 Z" fill="#ff0000" stroke="black" stroke-width="0.07" />
<path d="M-0.2234745331573722,4.2641481134020305 A4.2700000000000005,4.2700000000000005,0,0,0,0.22347453315737068,4.2641481134020305 L0.2758104894003146,5.262777648156605 A5.2700000000000005,5.2700000000000005,0,0,1,-0.2758104894003165,5.262777648156605 Z" fill="#ff0000" stroke="black" stroke-width="0.07" />
<path d="M-4.152019560098079,0.9968117036647175 A4.2700000000000005,4.2700000000000005,0,0,0,-3.1980409277690405,2.829387605881198 L-3.946996648558043,3.4920076540969354 A5.2700000000000005,5.2700000000000005,0,0,1,-5.124389480495756,1.2302570675206232 Z" fill="#ac5574" stroke="black" stroke-width="0.07" />
<path d="M-0.2978601428874152,-4.25959849460945 A4.2700000000000005,4.2700000000000005,0,0,0,-3.73462614948522,-2.07013707845186 L-4.609245856624616,-2.5549466986981972 A5.2700000000000005,5.2700000000000005,0,0,1,-0.36761661663154055,-5.257162544869274 Z" fill="#7aa18f" stroke="black" stroke-width="0.07" />
<path d="M2.5985795645203638,4.687961630267163 A5.36,5.36,0,0,0,2.6800000000000006,4.641896164284591 L3.180000000000001,5.50792156806903 A6.36,6.36,0,0,1,3.0833891847667,5.562581337406559 Z" fill="#ff0000" stroke="black" stroke-width="0.07" />
<path d="M2.2227557806374407,4.877392411898272 A5.36,5.36,0,0,0,2.30753947889246,4.837857124115254 L2.738050575700755,5.740442408465115 A6.36,6.36,0,0,1,2.6374490232936796,5.787353682774815 Z" fill="#ff0000" stroke="black" stroke-width="0.07" />
<path d="M-1.2967013604142195,5.200785092839341 A5.36,5.36,0,0,0,-0.46715478112744824,5.339603581771756 L-0.5543105238751065,6.335798279863502 A6.36,6.36,0,0,1,-1.5386232560138873,6.171080819115338 Z" fill="#ff0000" stroke="black" stroke-width="0.07" />
<path d="M-5.16505922919822,1.4323976957794564 A5.36,5.36,0,0,0,-4.0144026634290535,3.5516434584363514 L-4.763358384218056,4.214263506652088 A6.36,6.36,0,0,1,-6.128689682406843,1.6996360718577133 Z" fill="#ae5371" stroke="black" stroke-width="0.07" />
<path d="M-0.4671547811274482,-5.339603581771756 A5.36,5.36,0,0,0,-4.687961630267162,-2.5985795645203673 L-5.562581337406558,-3.0833891847667045 A6.36,6.36,0,0,1,-0.5543105238751064,-6.335798279863502 Z" fill="#7aa190" stroke="black" stroke-width="0.07" />
</svg>