<?xml version="1.0" encoding="UTF-8"?>
<svg xmlns="http://www.w3.org/2000/svg" xmlns:xlink="http://www.w3.org/1999/xlink"
     width="600" height="600.0" viewBox="-7.0 -7.0 14 14">
<defs>
</defs>
<path d="M0.5000000000000001,0.8660254037844386 A1.0,1.0,0,1,0,0.4694715627858902,0.8829475928589272 L0.9389431255717804,1.7658951857178544 A2.0,2.0,0,1,1,1.0000000000000002,1.7320508075688772 Z" fill="red" stroke="black" stroke-width="0.07" />
<path d="M-1.8454475820641256,1.022948298719771 A2.1100000000000003,2.1100000000000003,0,0,0,1.0550000000000004,1.8273136019851657 L1.5550000000000006,2.6933390057696043 A3.1100000000000003,3.1100000000000003,0,0,1,-2.7200672892035214,1.5077579189661081 Z" fill="#ff0000" stroke="black" stroke-width="0.07" />
<path d="M-1.25507608004533,-1.696137975902329 A2.1100000000000003,2.1100000000000003,0,0,0,-1.8715928580060484,0.9742895739259213 L-2.75860369118427,1.436038187160955 A3.1100000000000003,3.1100000000000003,0,0,1,-1.8498988667966711,-2.4999948365195466 Z" fill="#887ca7" stroke="black" stroke-width="0.07" />
<path d="M1.2698296988508222,-1.6851209261997881 A2.1100000000000003,2.1100000000000003,0,0,0,-1.2102462807007068,-1.7284108134497733 L-1.7838227170517527,-2.5475628577387655 A3.1100000000000003,3.1100000000000003,0,0,1,1.8716447220028707,-2.4837564362470808 Z" fill="#85c655" stroke="black" stroke-width="0.07" />
<path d="M2.05998457502306,0.45668758540939713 A2.1100000000000003,2.1100000000000003,0,0,0,1.3135058833053777,-1.6513032109585934 L1.9360205199429972,-2.433911367811007 A3.1100000000000003,3.1100000000000003,0,0,1,3.036280582142993,0.6731271993475 Z" fill="#f1d600" stroke="black" stroke-width="0.07" />
<path d="M0.16852177910227953,3.215587101909728 A3.22,3.22,0,0,0,1.6100000000000005,2.7886018001858925 L2.1100000000000008,3.6546272039703314 A4.220000000000001,4.220000000000001,0,0,1,0.2208577353452235,4.214216636664302 Z" fill="#ff0000" stroke="black" stroke-width="0.07" />
<path d="M-1.2322406522155882,2.9748920946863437 A3.22,3.22,0,0,0,0.08428977355135144,3.2188965864212946 L0.11046672185922456,4.218553911396852 A4.220000000000001,4.220000000000001,0,0,1,-1.614924084580678,3.898771627197631 Z" fill="#ff0000" stroke="black" stroke-width="0.07" />
<path d="M-2.2768838354206835,2.276883835420683 A3.22,3.22,0,0,0,-1.3096919907040765,2.9416163736091754 L-1.7164286337798766,3.8551618312517766 A4.220000000000001,4.220000000000001,0,0,1,-2.983990616607232,2.9839906166072305 Z" fill="#e41b25" stroke="black" stroke-width="0.07" />
<path d="M-3.199301375278612,-0.3645143483326602 A3.22,3.22,0,0,0,-2.8561748828338747,1.4868305346168087 L-3.7431857160120967,1.9485791478518426 A4.220000000000001,4.220000000000001,0,0,1,-4.1928732309551995,-0.47771756210056715 Z" fill="#946e96" stroke="black" stroke-width="0.07" />
<path d="M-2.537394626613645,-1.9824299505486203 A3.22,3.22,0,0,0,-3.1886631813478563,-0.4481373850914117 L-4.178931250089427,-0.5873104860514775 A4.220000000000001,4.220000000000001,0,0,1,-3.325405380220367,-2.5980914258742787 Z" fill="#8282ae" stroke="black" stroke-width="0.07" />
<path d="M0.8875522857307374,-3.095262660921387 A3.22,3.22,0,0,0,-1.8469161250503676,-2.6376695826105543 L-2.4204925614014137,-3.4568216268995466 A4.220000000000001,4.220000000000001,0,0,1,1.1631896415477367,-4.056524356859707 Z" fill="#78ba67" stroke="black" stroke-width="0.07" />
<path d="M1.7611696645182164,3.955651831592461 A4.33,4.33,0,0,0,2.1650000000000005,3.749889998386619 L2.6650000000000005,4.615915402171058 A5.33,5.33,0,0,1,2.167906307594017,4.869197289235062 Z" fill="#ff0000" stroke="black" stroke-width="0.07" />
<path d="M1.3020561118535006,4.129594396739823 A4.33,4.33,0,0,0,1.6570192621408397,4.000398375773871 L2.03970269450593,4.924277908285158 A5.33,5.33,0,0,1,1.6027619113577731,5.08331134748805 Z" fill="#ff0000" stroke="black" stroke-width="0.07" />
<path d="M0.9002576212408946,4.235379111177379 A4.33,4.33,0,0,0,1.1935097506876073,4.16226314341292 L1.4691471065046067,5.123524839351239 A5.33,5.33,0,0,1,1.108169312058653,5.213526711911185 Z" fill="#ff0000" stroke="black" stroke-width="0.07" />
<path d="M0.5651784123128257,4.292956249748599 A4.33,4.33,0,0,0,0.7890798253809983,4.257493749751924 L0.9713153508731457,5.240748657315878 A5.33,5.33,0,0,1,0.6957046045328779,5.28440111112241 Z" fill="#ff0000" stroke="black" stroke-width="0.07" />
<path d="M0.3020455313120622,4.319452337625039 A4.33,4.33,0,0,0,0.45260824594893745,4.306279806944624 L0.5571367092165904,5.3008017023128975 A5.33,5.33,0,0,1,0.37180200505618743,5.3170163878848635 Z" fill="#ff0000" stroke="black" stroke-width="0.07" />
<path d="M-0.7890798253809999,4.257493749751923 A4.33,4.33,0,0,0,0.11334618617309059,4.328516217144163 L0.1395231344809637,5.32817354211972 A5.33,5.33,0,0,1,-0.9713153508731477,5.240748657315877 Z" fill="#ff0000" stroke="black" stroke-width="0.07" />
<path d="M-1.6220465494909002,4.014706090274189 A4.33,4.33,0,0,0,-0.9002576212408999,4.235379111177378 L-1.1081693120586598,5.213526711911184 A5.33,5.33,0,0,1,-1.9966531429068126,4.941889944840977 Z" fill="#ff0000" stroke="black" stroke-width="0.07" />
<path d="M-2.724957293245795,3.365042013108685 A4.33,4.33,0,0,0,-1.7611696645182144,3.9556518315924625 L-2.1679063075940146,4.869197289235063 A5.33,5.33,0,0,1,-3.3542776842956323,4.1421879745656565 Z" fill="#ea141c" stroke="black" stroke-width="0.07" />
<path d="M2.7200000000000006,4.711178196587347 A5.44,5.44,0,0,0,2.7200000000000006,4.711178196587347 L3.220000000000001,5.577203600371785 A6.44,6.44,0,1,1,3.220000000000001,5.577203600371785 Z" fill="#ff0000" stroke="black" stroke-width="0.07" />
<path d="M2.5957436558122655,4.7807650928810945 A5.44,5.44,0,0,0,2.5957436558122655,4.7807650928810945 L3.072902416071873,5.65958220554306 A6.44,6.44,0,1,1,3.072902416071873,5.65958220554306 Z" fill="#ff0000" stroke="black" stroke-width="0.07" />
<path d="M2.3847390385325813,4.889439611867469 A5.44,5.44,0,0,0,2.469708318583134,4.8470754915847225 L2.9236988183226806,5.738082015773091 A6.44,6.44,0,0,1,2.8231101853216587,5.788233658166636 Z" fill="#ff0000" stroke="black" stroke-width="0.07" />
<path d="M1.9051281540515017,5.095496709511283 A5.44,5.44,0,0,0,2.08179787206609,5.0259046568614 L2.46448130443118,5.949784189372687 A6.44,6.44,0,0,1,2.255335535310969,6.032168898759681 Z" fill="#ff0000" stroke="black" stroke-width="0.07" />
<path d="M1.2237337356306253,5.30057315243168 A5.44,5.44,0,0,0,1.4994672156444768,5.229263625904455 L1.7751045714614762,6.190525321842773 A6.44,6.44,0,0,1,1.4486847899744901,6.274943217216915 Z" fill="#ff0000" stroke="black" stroke-width="0.07" />
<path d="M-0.8978589758820892,5.365393672362539 A5.44,5.44,0,0,0,0.14240259879482975,5.438135847867032 L0.16857954710270287,6.437793172842589 A6.44,6.44,0,0,1,-1.0629065817427674,6.35167927389977 Z" fill="#ff0000" stroke="black" stroke-width="0.07" />
<path d="M-5.434822325405307,-0.23728946726742822 A5.44,5.44,0,0,0,-4.825338932489527,2.511912455998584 L-5.712349765667749,2.9736610692336174 A6.44,6.44,0,0,1,-6.433870546987165,-0.2809088546327643 Z" fill="#956d95" stroke="black" stroke-width="0.07" />
</svg>