<?xml version="1.0" encoding="UTF-8"?>
<svg xmlns="http://www.w3.org/2000/svg" xmlns:xlink="http://www.w3.org/1999/xlink"
     width="600" height="600.0" viewBox="-7.0 -7.0 14 14">
<defs>
</defs>
<path d="M0.6427876096865393,0.7660444431189781 A1.0,1.0,0,1,0,0.615661475325659,0.7880107536067213 L1.231322950651318,1.5760215072134427 A2.0,2.0,0,1,1,1.2855752193730785,1.5320888862379562 Z" fill="red" stroke="black" stroke-width="0.07" />
<path d="M-1.1798970263232769,1.7492692780911376 A2.1100000000000003,2.1100000000000003,0,0,0,1.356281856438598,1.6163537749810442 L1.9990694661251374,2.3823982181000223 A3.1100000000000003,3.1100000000000003,0,0,1,-1.739089929794024,2.578306850646179 Z" fill="#ff0000" stroke="black" stroke-width="0.07" />
<path d="M-2.0676411267499506,-0.4206663416202872 A2.1100000000000003,2.1100000000000003,0,0,0,-1.2252832365500843,1.7177837437318328 L-1.8059861922610245,2.5318992620881517 A3.1100000000000003,3.1100000000000003,0,0,1,-3.04756583137078,-0.6200342760374848 Z" fill="#956e96" stroke="black" stroke-width="0.07" />
<path d="M-0.652025858131139,-2.0067292493827744 A2.1100000000000003,2.1100000000000003,0,0,0,-2.055920836696847,-0.47464672466555474 L-3.030290901482082,-0.6995977790094196 A3.1100000000000003,3.1100000000000003,0,0,1,-0.9610428525060863,-2.957785765677928 Z" fill="#7b9c97" stroke="black" stroke-width="0.07" />
<path d="M1.2550760800453304,-1.6961379759023287 A2.1100000000000003,2.1100000000000003,0,0,0,-0.5992723773252768,-2.023109640571888 L-0.8832877220291995,-2.981929375440081 A3.1100000000000003,3.1100000000000003,0,0,1,1.8498988667966718,-2.499994836519546 Z" fill="#b7dd32" stroke="black" stroke-width="0.07" />
<path d="M2.1019708129735832,-0.18389861719755876 A2.1100000000000003,2.1100000000000003,0,0,0,1.299045712937139,-1.6627026901101838 L1.9147071882627975,-2.450713443716906 A3.1100000000000003,3.1100000000000003,0,0,1,3.098165511065329,-0.2710543599452169 Z" fill="#f0d400" stroke="black" stroke-width="0.07" />
<path d="M1.6513032109585937,1.3135058833053774 A2.1100000000000003,2.1100000000000003,0,0,0,2.1060644246701394,-0.128812418418548 L3.1041992230920066,-0.1898609579534049 A3.1100000000000003,3.1100000000000003,0,0,1,2.4339113678110076,1.936020519942997 Z" fill="#ec6800" stroke="black" stroke-width="0.07" />
<path d="M1.2062332307992365,2.9855320117050557 A3.22,3.22,0,0,0,2.0697761031906565,2.4666631068431095 L2.712563712877196,3.2327075499620883 A4.220000000000001,4.220000000000001,0,0,1,1.5808398242151487,3.9127158662718435 Z" fill="#ff0000" stroke="black" stroke-width="0.07" />
<path d="M0.25263828824365875,3.2100738146206726 A3.22,3.22,0,0,0,1.1276677676554845,3.0160844493798407 L1.4778751489149518,3.9527566386282387 A4.220000000000001,4.220000000000001,0,0,1,0.33109738397150307,4.206991148353801 Z" fill="#ff0000" stroke="black" stroke-width="0.07" />
<path d="M-0.6144049651124764,3.160839530701478 A3.22,3.22,0,0,0,0.16852177910227953,3.215587101909728 L0.2208577353452235,4.214216636664302 A4.220000000000001,4.220000000000001,0,0,1,-0.805213960489022,4.142466714149142 Z" fill="#ff0000" stroke="black" stroke-width="0.07" />
<path d="M-1.3353122413530905,2.930075292222469 A3.22,3.22,0,0,0,-0.6969355568806911,3.1436731429261857 L-0.913375170818794,4.11996915004612 A4.220000000000001,4.220000000000001,0,0,1,-1.75000548400933,3.8400365630990123 Z" fill="#f00e14" stroke="black" stroke-width="0.07" />
<path d="M-2.9529334395200997,1.2839720019392933 A3.22,3.22,0,0,0,-1.869863517389228,2.621451969107347 L-2.4505664731001686,3.4355674874636657 A4.220000000000001,4.220000000000001,0,0,1,-3.869993513905224,1.6827210708645397 Z" fill="#af5270" stroke="black" stroke-width="0.07" />
<path d="M-3.2077469278554207,-0.28064149164746083 A3.22,3.22,0,0,0,-2.9855320117050557,1.2062332307992367 L-3.9127158662718435,1.580839824215149 A4.220000000000001,4.220000000000001,0,0,1,-4.2039416259471665,-0.3677972343951195 Z" fill="#8e759f" stroke="black" stroke-width="0.07" />
<path d="M2.6058590502483674,3.458091758504779 A4.33,4.33,0,0,0,2.783270349942715,3.3169724387051756 L3.4260579596292544,4.083016881824154 A5.33,5.33,0,0,1,3.2076740734004154,4.256727268552072 Z" fill="#ff0000" stroke="black" stroke-width="0.07" />
<path d="M2.3898871464012115,3.610725609550839 A4.33,4.33,0,0,0,2.5144437982283674,3.525120194482864 L3.0951467539393067,4.339235712839184 A5.33,5.33,0,0,1,2.941824131713269,4.444611431618007 Z" fill="#ff0000" stroke="black" stroke-width="0.07" />
<path d="M2.1650000000000005,3.749889998386619 A4.33,4.33,0,0,0,2.2945504141297763,3.6720482563573253 L2.824469678362981,4.520096352513751 A5.33,5.33,0,0,1,2.6650000000000005,4.615915402171058 Z" fill="#ff0000" stroke="black" stroke-width="0.07" />
<path d="M1.93203653076547,3.8750657857367696 A4.33,4.33,0,0,0,2.066097431924101,3.805278097826312 L2.5432561921837085,4.684095210488278 A5.33,5.33,0,0,1,2.3782343438752784,4.770000147338795 Z" fill="#ff0000" stroke="black" stroke-width="0.07" />
<path d="M1.6918657863585542,3.9857860154490674 A4.33,4.33,0,0,0,1.8299370733372293,3.9243127178686943 L2.252555335077929,4.830620504905344 A5.33,5.33,0,0,1,2.082596914847828,4.9062908689015075 Z" fill="#ff0000" stroke="black" stroke-width="0.07" />
<path d="M1.0108184254960677,4.210361755321941 A4.33,4.33,0,0,0,1.516397960853493,4.055790579445562 L1.8666053421129603,4.99246276869396 A5.33,5.33,0,0,1,1.2442637893519726,5.182731675719618 Z" fill="#ff0000" stroke="black" stroke-width="0.07" />
<path d="M0.45260824594893745,4.306279806944624 A4.33,4.33,0,0,0,0.9002576212408946,4.235379111177379 L1.108169312058653,5.213526711911185 A5.33,5.33,0,0,1,0.5571367092165904,5.3008017023128975 Z" fill="#ff0000" stroke="black" stroke-width="0.07" />
<path d="M-0.6026195271570812,4.287860737651 A4.33,4.33,0,0,0,0.2266146905319473,4.324065885487305 L0.27895064677489123,5.322695420241879 A5.33,5.33,0,0,1,-0.7417926281171461,5.27812880639257 Z" fill="#ff0000" stroke="black" stroke-width="0.07" />
<path d="M-1.8981470655967057,-3.891778220475393 A4.33,4.33,0,0,0,-4.219022380520069,-0.9740380653089346 L-5.193392445305304,-1.1989891196527993 A5.33,5.33,0,0,1,-2.336518212385783,-4.79057226677456 Z" fill="#7b989e" stroke="black" stroke-width="0.07" />
<path d="M3.496764596694774,4.167281770567241 A5.44,5.44,0,0,0,3.496764596694774,4.167281770567241 L4.139552206381313,4.933326213686219 A6.44,6.44,0,1,1,4.139552206381313,4.933326213686219 Z" fill="#ff0000" stroke="black" stroke-width="0.07" />
<path d="M3.386479623308649,4.2573883732771325 A5.44,5.44,0,0,0,3.386479623308649,4.2573883732771325 L4.0089942599462685,5.039996530129547 A6.44,6.44,0,1,1,4.0089942599462685,5.039996530129547 Z" fill="#ff0000" stroke="black" stroke-width="0.07" />
<path d="M2.8018071275106946,4.6629901158194915 A5.44,5.44,0,0,0,2.8827607974286336,4.613381643090959 L3.4126800616618382,5.461429739247385 A6.44,6.44,0,0,1,3.316845202420749,5.520157416521604 Z" fill="#ff0000" stroke="black" stroke-width="0.07" />
<path d="M1.4537767658657168,5.24214966545491 A5.44,5.44,0,0,0,1.9051281540515017,5.095496709511283 L2.255335535310969,6.032168898759681 A6.44,6.44,0,0,1,1.7210151419439734,6.205780118663533 Z" fill="#ff0000" stroke="black" stroke-width="0.07" />
<path d="M-4.825338932489527,2.511912455998584 A5.44,5.44,0,0,0,-3.1590240790675157,4.428788419858375 L-3.739727034778456,5.242903938214694 A6.44,6.44,0,0,1,-5.712349765667749,2.9736610692336174 Z" fill="#b34e6a" stroke="black" stroke-width="0.07" />
</svg>