<?xml version="1.0" encoding="UTF-8"?>
<svg xmlns="http://www.w3.org/2000/svg" xmlns:xlink="http://www.w3.org/1999/xlink"
     width="600" height="600.0" viewBox="-7.0 -7.0 14 14">
<defs>
</defs>
<path d="M0.5000000000000001,0.8660254037844386 A1.0,1.0,0,1,0,0.4694715627858902,0.8829475928589272 L0.9389431255717804,1.7658951857178544 A2.0,2.0,0,1,1,1.0000000000000002,1.7320508075688772 Z" fill="red" stroke="black" stroke-width="0.07" />
<path d="M-2.0582482037955145,-0.3629246913238843 A2.09,2.09,0,0,0,1.0450000000000002,1.8099930939094766 L1.5450000000000004,2.676018497693915 A3.09,3.09,0,0,1,-3.0430559568077227,-0.5365728689908146 Z" fill="#e31c26" stroke="black" stroke-width="0.07" />
<path d="M0.20031762276726828,-2.0803780545874035 A2.09,2.09,0,0,0,-2.0480426326575336,-0.41667898293194316 L-3.027967337278363,-0.6160469173491409 A3.09,3.09,0,0,1,0.29616337528749237,-3.075774252954582 Z" fill="#7b9d96" stroke="black" stroke-width="0.07" />
<path d="M1.7120277725639927,-1.1987747519736862 A2.09,2.09,0,0,0,0.25470692771675824,-2.074421456930363 L0.3765762711219057,-3.0669676085716846 A3.09,3.09,0,0,1,2.5311798168529847,-1.7723511883247323 Z" fill="#d4eb1d" stroke="black" stroke-width="0.07" />
<path d="M2.0835572275022374,0.16397951007119593 A2.09,2.09,0,0,0,1.7428213681203815,-1.1535482993022015 L2.5767071901875496,-1.7054852846142596 A3.09,3.09,0,0,1,3.0804745612353654,0.24243860579904086 Z" fill="#eecd00" stroke="black" stroke-width="0.07" />
<path d="M1.8622036355536888,0.9488401444556527 A2.09,2.09,0,0,0,2.078550761319691,0.2184644882293957 L3.0730726566879643,0.32299295149704915 A3.09,3.09,0,0,1,2.7532101597420566,1.4028306441951994 Z" fill="#e58b00" stroke="black" stroke-width="0.07" />
<path d="M1.7224237342200126,1.1837890351729006 A2.09,2.09,0,0,0,1.8367277654635075,0.9972618089425815 L2.7155448781254727,1.47442056920219 A3.09,3.09,0,0,1,2.5465499228420283,1.7501952720977334 Z" fill="#ee5b00" stroke="black" stroke-width="0.07" />
<path d="M-1.8239730675963275,2.604903500838993 A3.18,3.18,0,0,0,1.5900000000000005,2.753960784034515 L2.0900000000000003,3.619986187818953 A4.18,4.18,0,0,1,-2.3975495039473738,3.4240555451279846 Z" fill="#ff0000" stroke="black" stroke-width="0.07" />
<path d="M-3.1527946591687175,0.4150732912597632 A3.18,3.18,0,0,0,-1.8915364618692667,2.5562648167627504 L-2.4863592486206083,3.360121677379967 A4.18,4.18,0,0,1,-4.144239520542528,0.5455994834798145 Z" fill="#b24f6c" stroke="black" stroke-width="0.07" />
<path d="M-2.1483768602177995,-2.344541931056195 A3.18,3.18,0,0,0,-3.116160560694238,-0.6339900314466886 L-4.096085265315067,-0.8333579658638863 A4.18,4.18,0,0,1,-2.8239670678334594,-3.0818192678663183 Z" fill="#7f86b3" stroke="black" stroke-width="0.07" />
<path d="M-0.876526791498057,-3.056812193083854 A3.18,3.18,0,0,0,-2.086267712189814,-2.3999764651084146 L-2.742326741180321,-3.154686045331186 A4.18,4.18,0,0,1,-1.152164147315056,-4.0180738890221726 Z" fill="#7aa688" stroke="black" stroke-width="0.07" />
<path d="M1.5900000000000005,-2.753960784034515 A3.18,3.18,0,0,0,0.38754451202836904,-3.1562967622194043 L0.5094138554335165,-4.148842913860726 A4.18,4.18,0,0,1,2.0900000000000003,-3.619986187818953 Z" fill="#b3db34" stroke="black" stroke-width="0.07" />
<path d="M2.4886939387906764,-1.9795965445076302 A3.18,3.18,0,0,0,1.6615454357967177,-2.7113957226460133 L2.1840440005126665,-3.564035887000105 A4.18,4.18,0,0,1,3.27130209564309,-2.6021111811452493 Z" fill="#f0f80a" stroke="black" stroke-width="0.07" />
<path d="M2.937936913385892,-1.2169333149209856 A3.18,3.18,0,0,0,2.6517569141735953,-1.755159613292345 L3.485642736240763,-2.307096598604403 A4.18,4.18,0,0,1,3.8618164458971784,-1.5996167472860752 Z" fill="#f6e500" stroke="black" stroke-width="0.07" />
<path d="M3.098496806017048,-0.7153443528134907 A3.18,3.18,0,0,0,2.9687857562611017,-1.139610079554055 L3.902366182758303,-1.497978029099355 A4.18,4.18,0,0,1,4.072866870802283,-0.9402954071573556 Z" fill="#efd100" stroke="black" stroke-width="0.07" />
<path d="M3.170197121271347,-0.24949992441454694 A3.18,3.18,0,0,0,3.1161605606942384,-0.633990031446687 L4.096085265315067,-0.8333579658638841 A4.18,4.18,0,0,1,4.167114455004475,-0.32795902014239187 Z" fill="#eac200" stroke="black" stroke-width="0.07" />
<path d="M3.1756419205195447,0.1664283408525614 A3.18,3.18,0,0,0,3.1756419205195447,-0.1664283408525614 L4.174271455274118,-0.21876429709550518 A4.18,4.18,0,0,1,4.174271455274118,0.21876429709550518 Z" fill="#e6b400" stroke="black" stroke-width="0.07" />
<path d="M3.110509370333502,0.6611591768004746 A3.18,3.18,0,0,0,3.1625796272711093,0.332400513191138 L4.157101522639382,0.4369289764587914 A4.18,4.18,0,0,1,4.088656971067308,0.8690708676182338 Z" fill="#e1a300" stroke="black" stroke-width="0.07" />
<path d="M-3.519018825416007,2.418554631669037 A4.2700000000000005,4.2700000000000005,0,0,0,-2.5398932994282295,3.432468794835517 L-3.134716086179571,4.236325655452735 A5.2700000000000005,5.2700000000000005,0,0,1,-4.343145014038022,2.9849608685938698 Z" fill="#cd3345" stroke="black" stroke-width="0.07" />
<path d="M-2.3877536978200884,-3.5399904348100284 A4.2700000000000005,4.2700000000000005,0,0,0,-2.8013720537894673,-3.2226099075512358 L-3.457431082779975,-3.977319487774008 A5.2700000000000005,5.2700000000000005,0,0,1,-2.9469466012908354,-4.3690280073650705 Z" fill="#7b9c97" stroke="black" stroke-width="0.07" />
<path d="M2.5994113018672373,-3.3876187630435743 A4.2700000000000005,4.2700000000000005,0,0,0,2.231068871337102,-3.640773501791974 L2.753567436053051,-4.493413666146066 A5.2700000000000005,5.2700000000000005,0,0,1,3.2081727308759582,-4.18097210333481 Z" fill="#ddef17" stroke="black" stroke-width="0.07" />
<path d="M3.9995902480906587,1.4953855179779258 A4.2700000000000005,4.2700000000000005,0,0,0,4.152019560098079,0.9968117036647162 L5.124389480495756,1.2302570675206215 A5.2700000000000005,5.2700000000000005,0,0,1,4.936262437339056,1.8455928992373933 Z" fill="#e58900" stroke="black" stroke-width="0.07" />
<path d="M-4.8175360881635365,2.349669346789453 A5.36,5.36,0,0,0,-4.495274244187473,2.9192652276805453 L-5.333944812132898,3.4639042626955723 A6.36,6.36,0,0,1,-5.716330134462703,2.78804049357853 Z" fill="#b0516e" stroke="black" stroke-width="0.07" />
<path d="M-1.877111563550746,-5.020562934371411 A5.36,5.36,0,0,0,-2.8799259007389746,-4.5205781495570685 L-3.417225509085798,-5.363969595369954 A6.36,6.36,0,0,1,-2.2273189448102135,-5.9572351236198084 Z" fill="#7aa885" stroke="black" stroke-width="0.07" />
<path d="M-1.0227362152182802,-5.261521703279479 A5.36,5.36,0,0,0,-1.7450453078903585,-5.0679795652123385 L-2.0706134623475148,-6.013498140811655 A6.36,6.36,0,0,1,-1.213545210594825,-6.243148886727143 Z" fill="#79b471" stroke="black" stroke-width="0.07" />
<path d="M1.6563310898497183,-5.097662927342023 A5.36,5.36,0,0,0,0.6532196806515906,-5.320047372797486 L0.7750890240567381,-6.3125935244388085 A6.36,6.36,0,0,1,1.9653480842246658,-6.048719443637177 Z" fill="#a4d43f" stroke="black" stroke-width="0.07" />
<path d="M4.9697054604779805,-2.0078913407092887 A5.36,5.36,0,0,0,3.373157296027129,-4.165502353409364 L4.002477687076967,-4.942648314866334 A6.36,6.36,0,0,1,5.896889315044768,-2.3824979341252006 Z" fill="#fbf300" stroke="black" stroke-width="0.07" />
<path d="M5.301125027619874,-0.792258443654713 A5.36,5.36,0,0,0,5.020562934371412,-1.8771115635507452 L5.957235123619809,-2.2273189448102126 A6.36,6.36,0,0,1,6.2901408909817915,-0.9400678547843236 Z" fill="#eecd00" stroke="black" stroke-width="0.07" />
</svg>