<?xml version="1.0" encoding="UTF-8"?>
<svg xmlns="http://www.w3.org/2000/svg" xmlns:xlink="http://www.w3.org/1999/xlink"
     width="600" height="600.0" viewBox="-7.0 -7.0 14 14">
<defs>
</defs>
<path d="M0.5000000000000001,0.8660254037844386 A1.0,1.0,0,1,0,0.4694715627858902,0.8829475928589272 L0.9389431255717804,1.7658951857178544 A2.0,2.0,0,1,1,1.0000000000000002,1.7320508075688772 Z" fill="red" stroke="black" stroke-width="0.07" />
<path d="M-1.4518359942593049,1.5034201827077802 A2.09,2.09,0,0,0,1.0450000000000002,1.8099930939094766 L1.5450000000000004,2.676018497693915 A3.09,3.09,0,0,1,-2.1464943647183024,2.222759983046431 Z" fill="#ff0000" stroke="black" stroke-width="0.07" />
<path d="M-1.9445727170824312,-0.765987563853781 A2.09,2.09,0,0,0,-1.4906934387322395,1.4649003623866883 L-2.203943887886421,2.165809626686539 A3.09,3.09,0,0,1,-2.874990285064456,-1.132488790578078 Z" fill="#956e96" stroke="black" stroke-width="0.07" />
<path d="M-0.29087178100653655,-2.0696602636698818 A2.09,2.09,0,0,0,-1.9238551437155997,-0.8166280585425829 L-2.84435999716804,-1.2073591870318572 A3.09,3.09,0,0,1,-0.4300448819666019,-3.0599283324114523 Z" fill="#7b9c97" stroke="black" stroke-width="0.07" />
<path d="M1.5160324354156811,-1.4386610631999455 A2.09,2.09,0,0,0,-0.236594716774925,-2.0765651783640675 L-0.3497979305428317,-3.070137034040655 A3.09,3.09,0,0,1,2.241406806427969,-2.1270156388936994 Z" fill="#b7dd32" stroke="black" stroke-width="0.07" />
<path d="M2.082046919011748,0.18215550234260555 A2.09,2.09,0,0,0,1.5531726852477539,-1.3984829672900136 L2.296317510725148,-2.0676135736488717 A3.09,3.09,0,0,1,3.0782416171034934,0.2693112450902637 Z" fill="#f0d400" stroke="black" stroke-width="0.07" />
<path d="M1.3848759007708913,1.5653174564490142 A2.09,2.09,0,0,0,2.0765651783640675,0.23659471677492502 L3.070137034040655,0.34979793054283176 A3.09,3.09,0,0,1,2.047495948986629,2.3142731772380163 Z" fill="#ec6800" stroke="black" stroke-width="0.07" />
<path d="M0.49746159882793356,3.140848923092538 A3.18,3.18,0,0,0,1.5900000000000005,2.753960784034515 L2.0900000000000003,3.619986187818953 A4.18,4.18,0,0,1,0.6538960638681641,4.128537263687676 Z" fill="#ff0000" stroke="black" stroke-width="0.07" />
<path d="M-0.57950897106503,3.1267506060533754 A3.18,3.18,0,0,0,0.4150732912597658,3.152794659168717 L0.5455994834798179,4.144239520542527 A4.18,4.18,0,0,1,-0.7617444965571777,4.110005513617329 Z" fill="#ff0000" stroke="black" stroke-width="0.07" />
<path d="M-1.4929195696591326,2.807773345291388 A3.18,3.18,0,0,0,-0.6611591768004762,3.110509370333502 L-0.8690708676182358,4.088656971067307 A4.18,4.18,0,0,1,-1.9623911324450232,3.6907209381503145 Z" fill="#ff0000" stroke="black" stroke-width="0.07" />
<path d="M-2.188967550706138,2.3066904998190747 A3.18,3.18,0,0,0,-1.5659069211290257,2.767731113088881 L-2.0583304812324927,3.63808680902878 A4.18,4.18,0,0,1,-2.877322126399892,3.0320648708313622 Z" fill="#e01f2a" stroke="black" stroke-width="0.07" />
<path d="M-3.032819903379362,0.9562444424235884 A3.18,3.18,0,0,0,-2.2681364283102976,2.228891460473526 L-2.981386877464479,2.9298007247733766 A4.18,4.18,0,0,1,-3.9865368541275883,1.2569502419278613 Z" fill="#b34e6a" stroke="black" stroke-width="0.07" />
<path d="M-3.1490524585981934,-0.44257046105300907 A3.18,3.18,0,0,0,-3.056812193083854,0.8765267914980569 L-4.0180738890221726,1.1521641473150557 A4.18,4.18,0,0,1,-4.1393205273397635,-0.5817435620130748 Z" fill="#91729b" stroke="black" stroke-width="0.07" />
<path d="M-0.8230445634260164,-3.0716441275992374 A3.18,3.18,0,0,0,-2.92720543397876,-1.242524988595892 L-3.8477102874311995,-1.6332561170851658 A4.18,4.18,0,0,1,-1.0818636085285371,-4.037569953888306 Z" fill="#7b989d" stroke="black" stroke-width="0.07" />
<path d="M2.2681364283102976,-2.228891460473526 A3.18,3.18,0,0,0,-0.35998621978194334,-3.1595585010515483 L-0.47318943354985,-4.153130356728135 A4.18,4.18,0,0,1,2.981386877464479,-2.9298007247733766 Z" fill="#b6dd33" stroke="black" stroke-width="0.07" />
<path d="M1.8045799776327875,3.8699342506464958 A4.2700000000000005,4.2700000000000005,0,0,0,2.1350000000000007,3.697928474159553 L2.6350000000000007,4.563953877943992 A5.2700000000000005,5.2700000000000005,0,0,1,2.2271982393734873,4.776242037683145 Z" fill="#ff0000" stroke="black" stroke-width="0.07" />
<path d="M1.425355288928202,4.025079166963602 A4.2700000000000005,4.2700000000000005,0,0,0,1.7026585243108017,3.91584651762448 L2.101407593236048,4.832906592009604 A5.2700000000000005,5.2700000000000005,0,0,1,1.7591621481619728,4.9677206580557804 Z" fill="#ff0000" stroke="black" stroke-width="0.07" />
<path d="M1.1051573225877653,4.124503278254322 A4.2700000000000005,4.2700000000000005,0,0,0,1.3195025659810249,4.061011324580306 L1.6285195603559721,5.01206784087546 A5.2700000000000005,5.2700000000000005,0,0,1,1.3639763676902865,5.09042910454339 Z" fill="#ff0000" stroke="black" stroke-width="0.07" />
<path d="M0.851301079961431,4.184278488730944 A4.2700000000000005,4.2700000000000005,0,0,0,0.9968117036647135,4.15201956009808 L1.2302570675206184,5.124389480495757 A5.2700000000000005,5.2700000000000005,0,0,1,1.050669014378628,5.164203193351773 Z" fill="#ff0000" stroke="black" stroke-width="0.07" />
<path d="M-0.037262306578055175,4.269837411484012 A4.2700000000000005,4.2700000000000005,0,0,0,0.5573468407796226,4.2334695580661705 L0.6878730329996747,5.2249144194399815 A5.2700000000000005,5.2700000000000005,0,0,1,-0.04598884207642875,5.269799334548183 Z" fill="#ff0000" stroke="black" stroke-width="0.07" />
<path d="M-0.6679751657217866,4.217429214341238 A4.2700000000000005,4.2700000000000005,0,0,0,-0.14902085091968206,4.267398831371539 L-0.1839203476221837,5.266789658390635 A5.2700000000000005,5.2700000000000005,0,0,1,-0.8244096307620177,5.2051175549363755 Z" fill="#ff0000" stroke="black" stroke-width="0.07" />
<path d="M-1.871844796789362,3.8378505776974428 A4.2700000000000005,4.2700000000000005,0,0,0,-0.8877829197918344,4.176690255133351 L-1.0956946106095942,5.1548378558671555 A5.2700000000000005,5.2700000000000005,0,0,1,-2.3102159435784397,4.736644623996609 Z" fill="#ff0000" stroke="black" stroke-width="0.07" />
<path d="M-1.5995701538859448,-3.959075059000183 A4.2700000000000005,4.2700000000000005,0,0,0,-3.93055572424192,-1.6684219186492009 L-4.85106057769436,-2.059153047138475 A5.2700000000000005,5.2700000000000005,0,0,1,-1.9741767473018568,-4.88625891356697 Z" fill="#7b94a3" stroke="black" stroke-width="0.07" />
<path d="M2.5985795645203638,4.687961630267163 A5.36,5.36,0,0,0,2.6800000000000006,4.641896164284591 L3.180000000000001,5.50792156806903 A6.36,6.36,0,0,1,3.0833891847667,5.562581337406559 Z" fill="#ff0000" stroke="black" stroke-width="0.07" />
<path d="M2.30753947889246,4.837857124115254 A5.36,5.36,0,0,0,2.4749725669397784,4.754378065835271 L2.9367211801748114,5.641388899013492 A6.36,6.36,0,0,1,2.738050575700755,5.740442408465115 Z" fill="#ff0000" stroke="black" stroke-width="0.07" />
<path d="M1.9644465752422313,4.9870381643836525 A5.36,5.36,0,0,0,2.13729500943932,4.9154419987042655 L2.5360440783645664,5.8325020730893895 A6.36,6.36,0,0,1,2.330947801966528,5.917455732365677 Z" fill="#ff0000" stroke="black" stroke-width="0.07" />
<path d="M0.046774230271285154,5.359795907623958 A5.36,5.36,0,0,0,0.6996203902994794,5.314144456963624 L0.8301465825195316,6.305589318337434 A6.36,6.36,0,0,1,0.055500765769659254,6.35975783068813 Z" fill="#ff0000" stroke="black" stroke-width="0.07" />
<path d="M-2.180108406886289,4.896603652964342 A5.36,5.36,0,0,0,-1.1144066627831926,5.242871139933198 L-1.3223183536009524,6.221018740667004 A6.36,6.36,0,0,1,-2.5868450499620885,5.810149110606942 Z" fill="#ff0000" stroke="black" stroke-width="0.07" />
</svg>