<?xml version="1.0" encoding="UTF-8"?>
<svg xmlns="http://www.w3.org/2000/svg" xmlns:xlink="http://www.w3.org/1999/xlink"
     width="600" height="600.0" viewBox="-7.0 -7.0 14 14">
<defs>
</defs>
<path d="M0.5000000000000001,0.8660254037844386 A1.0,1.0,0,1,0,0.4694715627858902,0.8829475928589272 L0.9389431255717804,1.7658951857178544 A2.0,2.0,0,1,1,1.0000000000000002,1.7320508075688772 Z" fill="red" stroke="black" stroke-width="0.07" />
<path d="M-1.398482967290014,1.5531726852477534 A2.09,2.09,0,0,0,1.0450000000000002,1.8099930939094766 L1.5450000000000004,2.676018497693915 A3.09,3.09,0,0,1,-2.0676135736488725,2.2963175107251472 Z" fill="#ff0000" stroke="black" stroke-width="0.07" />
<path d="M-1.993268427063794,-0.6284751209639312 A2.09,2.09,0,0,0,-1.438661063199946,1.5160324354156811 L-2.1270156388937,2.241406806427969 A3.09,3.09,0,0,1,-2.9469853778120205,-0.9291809204682046 Z" fill="#966c93" stroke="black" stroke-width="0.07" />
<path d="M-0.5056167618033056,-2.0279180679168327 A2.09,2.09,0,0,0,-1.9761338230025718,-0.6804374428154581 L-2.9216523986018887,-1.0060055972726152 A3.09,3.09,0,0,1,-0.7475386574029734,-2.998213794192829 Z" fill="#7b97a0" stroke="black" stroke-width="0.07" />
<path d="M1.3010555905726249,-1.6356510478215447 A2.09,2.09,0,0,0,-0.4523587931306348,-2.0404586548806605 L-0.6687984070687376,-3.016754662000594 A3.09,3.09,0,0,1,1.9235702272102446,-2.4182592046739586 Z" fill="#a5d53f" stroke="black" stroke-width="0.07" />
<path d="M2.082046919011748,-0.18215550234260555 A2.09,2.09,0,0,0,1.3434261042448672,-1.601032886118664 L1.9862137139314064,-2.367077329237642 A3.09,3.09,0,0,1,3.0782416171034934,-0.2693112450902637 Z" fill="#f6e400" stroke="black" stroke-width="0.07" />
<path d="M1.680060838689984,1.243179624310303 A2.09,2.09,0,0,0,2.086101728701702,-0.12759144762785085 L3.0842365271235685,-0.18863998716270772 A3.09,3.09,0,0,1,2.4839176993072014,1.8380024110616444 Z" fill="#e58b00" stroke="black" stroke-width="0.07" />
<path d="M0.49746159882793356,3.140848923092538 A3.18,3.18,0,0,0,1.5900000000000005,2.753960784034515 L2.0900000000000003,3.619986187818953 A4.18,4.18,0,0,1,0.6538960638681641,4.128537263687676 Z" fill="#ff0000" stroke="black" stroke-width="0.07" />
<path d="M-0.57950897106503,3.1267506060533754 A3.18,3.18,0,0,0,0.4150732912597658,3.152794659168717 L0.5455994834798179,4.144239520542527 A4.18,4.18,0,0,1,-0.7617444965571777,4.110005513617329 Z" fill="#ff0000" stroke="black" stroke-width="0.07" />
<path d="M-1.4929195696591326,2.807773345291388 A3.18,3.18,0,0,0,-0.6611591768004762,3.110509370333502 L-0.8690708676182358,4.088656971067307 A4.18,4.18,0,0,1,-1.9623911324450232,3.6907209381503145 Z" fill="#ff0000" stroke="black" stroke-width="0.07" />
<path d="M-2.7399807302040524,1.6139719942150383 A3.18,3.18,0,0,0,-2.188967550706138,2.3066904998190747 L-2.877322126399892,3.0320648708313622 A4.18,4.18,0,0,1,-3.601609890645578,2.121510357175742 Z" fill="#c23e55" stroke="black" stroke-width="0.07" />
<path d="M-3.071644127599238,0.8230445634260147 A3.18,3.18,0,0,0,-2.781290668703279,1.5416945923833516 L-3.6559103758426743,2.026504212629688 A4.18,4.18,0,0,1,-4.037569953888306,1.081863608528535 Z" fill="#a16084" stroke="black" stroke-width="0.07" />
<path d="M-3.1789102934222724,0.0832426956190367 A3.18,3.18,0,0,0,-3.0921363468646117,0.7423562570617802 L-4.064506267262288,0.9758016209176859 A4.18,4.18,0,0,1,-4.178567618397829,0.10941964392690987 Z" fill="#927098" stroke="black" stroke-width="0.07" />
<path d="M-3.131688654578822,-0.5522012049808384 A3.18,3.18,0,0,0,-3.18,-3.8943768212885835e-16 L-4.18,-5.119023620435936e-16 A4.18,4.18,0,0,1,-4.116496407591029,-0.7258493826477685 Z" fill="#8c77a1" stroke="black" stroke-width="0.07" />
<path d="M-2.696792945777435,-1.6851432602615917 A3.18,3.18,0,0,0,-3.0067490704058275,-1.0353067311737594 L-3.9522676460051436,-1.3608748856309163 A4.18,4.18,0,0,1,-3.5448410419338603,-2.215062524494796 Z" fill="#8183b0" stroke="black" stroke-width="0.07" />
<path d="M-2.268136428310297,-2.2288914604735264 A3.18,3.18,0,0,0,-2.651756914173595,-1.7551596132923453 L-3.4856427362407625,-2.3070965986044034 A4.18,4.18,0,0,1,-2.981386877464478,-2.929800724773377 Z" fill="#7c8eae" stroke="black" stroke-width="0.07" />
<path d="M-1.8239730675963257,-2.604903500838995 A3.18,3.18,0,0,0,-2.2090136180596107,-2.2875005650769116 L-2.9036719885186075,-3.0068403654155627 A4.18,4.18,0,0,1,-2.3975495039473715,-3.4240555451279864 Z" fill="#7b9a9b" stroke="black" stroke-width="0.07" />
<path d="M-1.3690252878503792,-2.8702212042325566 A3.18,3.18,0,0,0,-1.755159613292345,-2.6517569141735953 L-2.307096598604403,-3.485642736240763 A4.18,4.18,0,0,1,-1.7995363846586745,-3.772806488582417 Z" fill="#7aa58a" stroke="black" stroke-width="0.07" />
<path d="M-0.9297420210183026,-3.0410491239624533 A3.18,3.18,0,0,0,-1.2934225249810443,-2.905074555303471 L-1.700159168056844,-3.818620012946072 A4.18,4.18,0,0,1,-1.222113725741039,-3.9973538799254884 Z" fill="#79ae7a" stroke="black" stroke-width="0.07" />
<path d="M0.08324269561903659,-3.1789102934222724 A3.18,3.18,0,0,0,-0.6882779723231669,-3.1046213026413882 L-0.9047175862612696,-4.080917309761321 A4.18,4.18,0,0,1,0.10941964392690971,-4.178567618397829 Z" fill="#78be61" stroke="black" stroke-width="0.07" />
<path d="M0.823044563426016,-3.0716441275992374 A3.18,3.18,0,0,0,0.16642834085256183,-3.1756419205195447 L0.21876429709550577,-4.174271455274118 A4.18,4.18,0,0,1,1.0818636085285367,-4.037569953888306 Z" fill="#9ad046" stroke="black" stroke-width="0.07" />
<path d="M1.4189090456891917,-2.84589126989444 A3.18,3.18,0,0,0,0.9031687961584737,-3.049046756880854 L1.1871841408623962,-4.007866491749047 A4.18,4.18,0,0,1,1.8651068587990003,-3.7408256314964645 Z" fill="#bbdf2f" stroke="black" stroke-width="0.07" />
<path d="M1.913771773623514,-2.539660921950391 A3.18,3.18,0,0,0,1.492919569659133,-2.8077733452913876 L1.9623911324450236,-3.690720938150314 A4.18,4.18,0,0,1,2.515586796775562,-3.338296431997684 Z" fill="#d8ed1b" stroke="black" stroke-width="0.07" />
<path d="M2.539660921950391,-1.9137717736235136 A3.18,3.18,0,0,0,2.044064598803195,-2.43602132911835 L2.6868522084897344,-3.202065772237328 A4.18,4.18,0,0,1,3.338296431997684,-2.5155867967755614 Z" fill="#fdfe01" stroke="black" stroke-width="0.07" />
<path d="M2.8936768413874074,-1.3187245116468402 A3.18,3.18,0,0,0,2.5888873483730954,-1.8466353991607887 L3.4030028667294143,-2.427338354871728 A4.18,4.18,0,0,1,3.8036381122639504,-1.733417754303079 Z" fill="#f7e800" stroke="black" stroke-width="0.07" />
<path d="M3.085540409557669,-0.7693116280069434 A3.18,3.18,0,0,0,2.9272054339787603,-1.2425249885958904 L3.8477102874312004,-1.633256117085164 A4.18,4.18,0,0,1,4.055836135833665,-1.011233523606611 Z" fill="#f0d400" stroke="black" stroke-width="0.07" />
<path d="M3.170197121271347,0.24949992441454694 A3.18,3.18,0,0,0,3.174068658981537,-0.19413435572084486 L4.172203457403404,-0.2551828952557017 A4.18,4.18,0,0,1,4.167114455004475,0.32795902014239187 Z" fill="#e5b300" stroke="black" stroke-width="0.07" />
<path d="M3.098496806017048,0.7153443528134907 A3.18,3.18,0,0,0,3.1625796272711093,0.332400513191138 L4.157101522639382,0.4369289764587914 A4.18,4.18,0,0,1,4.072866870802283,0.9402954071573556 Z" fill="#e1a200" stroke="black" stroke-width="0.07" />
<path d="M2.9786175618099047,1.1136594724051063 A3.18,3.18,0,0,0,3.0787094964023827,0.7962084128931238 L4.04685713678049,1.0465884169475652 A4.18,4.18,0,0,1,3.9152897510583022,1.4638668536645736 Z" fill="#e68800" stroke="black" stroke-width="0.07" />
<path d="M2.83340074691901,1.4436897891717588 A3.18,3.18,0,0,0,2.948444657522384,1.1912489670626003 L3.8756285120891714,1.565855560478512 A4.18,4.18,0,0,1,3.7244072711073777,1.8976802889113054 Z" fill="#ea7100" stroke="black" stroke-width="0.07" />
<path d="M2.6819847976849767,1.7086127545429 A3.18,3.18,0,0,0,2.79463841826505,1.5173648576255547 L3.673455530927015,1.994523617885163 A4.18,4.18,0,0,1,3.525376243497862,2.2459123628897237 Z" fill="#ed5e00" stroke="black" stroke-width="0.07" />
<path d="M1.8045799776327875,3.8699342506464958 A4.2700000000000005,4.2700000000000005,0,0,0,2.1350000000000007,3.697928474159553 L2.6350000000000007,4.563953877943992 A5.2700000000000005,5.2700000000000005,0,0,1,2.2271982393734873,4.776242037683145 Z" fill="#ff0000" stroke="black" stroke-width="0.07" />
<path d="M1.425355288928202,4.025079166963602 A4.2700000000000005,4.2700000000000005,0,0,0,1.7026585243108017,3.91584651762448 L2.101407593236048,4.832906592009604 A5.2700000000000005,5.2700000000000005,0,0,1,1.7591621481619728,4.9677206580557804 Z" fill="#ff0000" stroke="black" stroke-width="0.07" />
<path d="M1.1051573225877653,4.124503278254322 A4.2700000000000005,4.2700000000000005,0,0,0,1.3195025659810249,4.061011324580306 L1.6285195603559721,5.01206784087546 A5.2700000000000005,5.2700000000000005,0,0,1,1.3639763676902865,5.09042910454339 Z" fill="#ff0000" stroke="black" stroke-width="0.07" />
<path d="M0.851301079961431,4.184278488730944 A4.2700000000000005,4.2700000000000005,0,0,0,0.9968117036647135,4.15201956009808 L1.2302570675206184,5.124389480495757 A5.2700000000000005,5.2700000000000005,0,0,1,1.050669014378628,5.164203193351773 Z" fill="#ff0000" stroke="black" stroke-width="0.07" />
<path d="M0.26067726381383705,4.262035589261373 A4.2700000000000005,4.2700000000000005,0,0,0,0.5573468407796226,4.2334695580661705 L0.6878730329996747,5.2249144194399815 A5.2700000000000005,5.2700000000000005,0,0,1,0.3217258033486935,5.26017038768324 Z" fill="#ff0000" stroke="black" stroke-width="0.07" />
<path d="M-0.07452177548720054,4.2693496583177915 A4.2700000000000005,4.2700000000000005,0,0,0,0.14902085091968048,4.26739883137154 L0.18392034762218176,5.2667896583906355 A5.2700000000000005,5.2700000000000005,0,0,1,-0.09197418192448405,5.2691973534741825 Z" fill="#ff0000" stroke="black" stroke-width="0.07" />
<path d="M-0.3350203387579006,4.256837015040457 A4.2700000000000005,4.2700000000000005,0,0,0,-0.1862547840499853,4.265935906154533 L-0.22987417141532143,5.264984127736391 A5.2700000000000005,5.2700000000000005,0,0,1,-0.4134794344857462,5.253754348773585 Z" fill="#ff0000" stroke="black" stroke-width="0.07" />
<path d="M-0.5942691410994774,4.228444653526506 A4.2700000000000005,4.2700000000000005,0,0,0,-0.4463365381528799,4.246608493222528 L-0.5508650014205333,5.241130388590801 A5.2700000000000005,5.2700000000000005,0,0,1,-0.7334422420595423,5.2187127222680765 Z" fill="#ff0000" stroke="black" stroke-width="0.07" />
<path d="M-1.1769715093385853,4.104587441656623 A4.2700000000000005,4.2700000000000005,0,0,0,-0.8877829197918344,4.176690255133351 L-1.0956946106095942,5.1548378558671555 A5.2700000000000005,5.2700000000000005,0,0,1,-1.4526088651555842,5.065849137594942 Z" fill="#ff0000" stroke="black" stroke-width="0.07" />
<path d="M-1.4953855179779267,3.999590248090658 A4.2700000000000005,4.2700000000000005,0,0,0,-1.2840137638832492,4.072371379694928 L-1.584719563387523,5.026088330443155 A5.2700000000000005,5.2700000000000005,0,0,1,-1.8455928992373944,4.936262437339056 Z" fill="#ff0000" stroke="black" stroke-width="0.07" />
<path d="M-1.7367654659336667,3.9008391041339068 A4.2700000000000005,4.2700000000000005,0,0,0,-1.5995701538859457,3.9590750590001824 L-1.9741767473018579,4.886258913566969 A5.2700000000000005,5.2700000000000005,0,0,1,-2.1435021090094666,4.8143845617765075 Z" fill="#fb0304" stroke="black" stroke-width="0.07" />
<path d="M-1.971666578513597,3.787536257671006 A4.2700000000000005,4.2700000000000005,0,0,0,-1.8382823833714204,3.8540391641739054 L-2.2687934801797156,4.756624448523766 A5.2700000000000005,5.2700000000000005,0,0,1,-2.4334151917486313,4.674547090849227 Z" fill="#f40a0e" stroke="black" stroke-width="0.07" />
<path d="M-2.2942693276409396,3.6012814736210217 A4.2700000000000005,4.2700000000000005,0,0,0,-2.102648601641805,3.7164188216633716 L-2.5950721617452723,4.5867745176032715 A5.2700000000000005,5.2700000000000005,0,0,1,-2.831568935987764,4.444672919433907 Z" fill="#eb131b" stroke="black" stroke-width="0.07" />
<path d="M-2.509843027288861,3.4545025659810253 A4.2700000000000005,4.2700000000000005,0,0,0,-2.387753697820091,3.539990434810027 L-2.946946601290838,4.369028007365069 A5.2700000000000005,5.2700000000000005,0,0,1,-3.0976282795813344,4.263519560355973 Z" fill="#e31c26" stroke="black" stroke-width="0.07" />
<path d="M-2.716054000586052,3.294836971065565 A4.2700000000000005,4.2700000000000005,0,0,0,-2.5994113018672382,3.3876187630435735 L-3.208172730875959,4.180972103334809 A5.2700000000000005,5.2700000000000005,0,0,1,-3.352132220863816,4.0664615544532845 Z" fill="#dc2330" stroke="black" stroke-width="0.07" />
<path d="M-3.0973485642224694,2.939274038212329 A4.2700000000000005,4.2700000000000005,0,0,0,-2.93927403821233,3.0973485642224685 L-3.627628613906084,3.822722935234756 A5.2700000000000005,5.2700000000000005,0,0,1,-3.8227229352347574,3.627628613906083 Z" fill="#cf3142" stroke="black" stroke-width="0.07" />
<path d="M-3.2710097721180365,2.744703093361523 A4.2700000000000005,4.2700000000000005,0,0,0,-3.173228404788474,2.857187689152325 L-3.916373230265868,3.5263182955111834 A5.2700000000000005,5.2700000000000005,0,0,1,-4.037054215237014,3.387490703048062 Z" fill="#c7394e" stroke="black" stroke-width="0.07" />
<path d="M-3.4324687948355175,2.5398932994282286 A4.2700000000000005,4.2700000000000005,0,0,0,-3.3417368297598085,2.658137498442635 L-4.124344986612222,3.2806521350802544 A5.2700000000000005,5.2700000000000005,0,0,1,-4.236325655452735,3.1347160861795698 Z" fill="#c04058" stroke="black" stroke-width="0.07" />
<path d="M-3.581123325126961,2.3256086795141657 A4.2700000000000005,4.2700000000000005,0,0,0,-3.497779229113996,2.449171383218966 L-4.3169312734029885,3.0227478195700117 A5.2700000000000005,5.2700000000000005,0,0,1,-4.419793893072385,2.870247714529193 Z" fill="#b94762" stroke="black" stroke-width="0.07" />
<path d="M-3.8045978582843323,1.9385394338878628 A4.2700000000000005,4.2700000000000005,0,0,0,-3.7346261494852206,2.070137078451859 L-4.609245856624616,2.554946698698196 A5.2700000000000005,5.2700000000000005,0,0,1,-4.6956043824727,2.392529933627409 Z" fill="#ad5473" stroke="black" stroke-width="0.07" />
<path d="M-3.91584651762448,1.702658524310802 A4.2700000000000005,4.2700000000000005,0,0,0,-3.854039164173905,1.8382823833714212 L-4.756624448523765,2.2687934801797165 A5.2700000000000005,5.2700000000000005,0,0,1,-4.832906592009604,2.1014075932360483 Z" fill="#a65b7d" stroke="black" stroke-width="0.07" />
<path d="M-4.012487490755829,1.4604260120006054 A4.2700000000000005,4.2700000000000005,0,0,0,-3.959075059000183,1.5995701538859444 L-4.88625891356697,1.9741767473018565 A5.2700000000000005,5.2700000000000005,0,0,1,-4.952180111541738,1.802446155326274 Z" fill="#9f6287" stroke="black" stroke-width="0.07" />
<path d="M-4.094160267887185,1.2127455218857486 A4.2700000000000005,4.2700000000000005,0,0,0,-4.049342007730472,1.3548908828497426 L-4.997665662936671,1.6721955392548347 A5.2700000000000005,5.2700000000000005,0,0,1,-5.052980002755379,1.496760866589671 Z" fill="#986a90" stroke="black" stroke-width="0.07" />
<path d="M-4.184278488730944,0.8513010799614295 A4.2700000000000005,4.2700000000000005,0,0,0,-4.152019560098079,0.9968117036647175 L-5.124389480495756,1.2302570675206232 A5.2700000000000005,5.2700000000000005,0,0,1,-5.164203193351773,1.0506690143786261 Z" fill="#956d95" stroke="black" stroke-width="0.07" />
<path d="M-4.2284446535265054,0.5942691410994798 A4.2700000000000005,4.2700000000000005,0,0,0,-4.205129105362129,0.7414777186377932 L-5.189936858374336,0.9151258963047236 A5.2700000000000005,5.2700000000000005,0,0,1,-5.218712722268076,0.7334422420595453 Z" fill="#936f97" stroke="black" stroke-width="0.07" />
<path d="M-4.256837015040457,0.3350203387578974 A4.2700000000000005,4.2700000000000005,0,0,0,-4.242551823739029,0.4833777227889614 L-5.236123679415616,0.5965809365568681 A5.2700000000000005,5.2700000000000005,0,0,1,-5.253754348773585,0.4134794344857422 Z" fill="#91719a" stroke="black" stroke-width="0.07" />
<path d="M-4.2693496583177915,-0.07452177548720029 A4.2700000000000005,4.2700000000000005,0,0,0,-4.2700000000000005,-5.229241832359199e-16 L-5.2700000000000005,-6.453888631506552e-16 A5.2700000000000005,5.2700000000000005,0,0,1,-5.2691973534741825,-0.09197418192448373 Z" fill="#8e759e" stroke="black" stroke-width="0.07" />
<path d="M-4.256837015040457,-0.3350203387578985 A4.2700000000000005,4.2700000000000005,0,0,0,-4.265935906154533,-0.18625478404998505 L-5.264984127736391,-0.2298741714153211 A5.2700000000000005,5.2700000000000005,0,0,1,-5.253754348773585,-0.41347943448574354 Z" fill="#8d77a0" stroke="black" stroke-width="0.07" />
<path d="M-4.2284446535265054,-0.5942691410994808 A4.2700000000000005,4.2700000000000005,0,0,0,-4.246608493222527,-0.4463365381528815 L-5.2411303885908005,-0.5508650014205352 A5.2700000000000005,5.2700000000000005,0,0,1,-5.218712722268076,-0.7334422420595466 Z" fill="#8b79a3" stroke="black" stroke-width="0.07" />
<path d="M-4.184278488730943,-0.8513010799614342 A4.2700000000000005,4.2700000000000005,0,0,0,-4.184278488730943,-0.8513010799614342 L-5.164203193351772,-1.050669014378632 A5.2700000000000005,5.2700000000000005,0,1,1,-5.164203193351772,-1.050669014378632 Z" fill="#887ba6" stroke="black" stroke-width="0.07" />
<path d="M-4.143162751198505,-1.0330064942105812 A4.2700000000000005,4.2700000000000005,0,0,0,-4.160560176632955,-0.9605410020483027 L-5.13493024141819,-1.1854920563921676 A5.2700000000000005,5.2700000000000005,0,0,1,-5.113458477474502,-1.274928389810249 Z" fill="#877ca8" stroke="black" stroke-width="0.07" />
<path d="M-3.986388421143052,-1.530231144558432 A4.2700000000000005,4.2700000000000005,0,0,0,-4.037364317809083,-1.3901760195320607 L-4.9828828934084,-1.7157441739892176 A5.2700000000000005,5.2700000000000005,0,0,1,-4.919968847640254,-1.8885990941037323 Z" fill="#8480ac" stroke="black" stroke-width="0.07" />
<path d="M-3.8855346266428397,-1.7707401461421415 A4.2700000000000005,4.2700000000000005,0,0,0,-3.944965603823195,-1.634058256198934 L-4.868845136334482,-2.0167416885640237 A5.2700000000000005,5.2700000000000005,0,0,1,-4.795495897519382,-2.185433388798381 Z" fill="#8282af" stroke="black" stroke-width="0.07" />
<path d="M-3.770186221507618,-2.004643573095755 A4.2700000000000005,4.2700000000000005,0,0,0,-3.8378505776974436,-1.8718447967893603 L-4.736644623996611,-2.3102159435784375 A5.2700000000000005,5.2700000000000005,0,0,1,-4.653133814366544,-2.474115135881646 Z" fill="#8084b1" stroke="black" stroke-width="0.07" />
<path d="M-3.640773501791974,-2.231068871337102 A4.2700000000000005,4.2700000000000005,0,0,0,-3.716418821663372,-2.102648601641805 L-4.5867745176032715,-2.5950721617452723 A5.2700000000000005,5.2700000000000005,0,0,1,-4.493413666146066,-2.753567436053051 Z" fill="#7e86b4" stroke="black" stroke-width="0.07" />
<path d="M-3.4762732633814832,-2.4796016208857137 A4.2700000000000005,4.2700000000000005,0,0,0,-3.560692460226808,-2.356770927282489 L-4.394578282293976,-2.908707912594547 A5.2700000000000005,5.2700000000000005,0,0,1,-4.290388781737803,-3.0603045765966534 Z" fill="#7c89b6" stroke="black" stroke-width="0.07" />
<path d="M-3.318413255421265,-2.6871980697828075 A4.2700000000000005,4.2700000000000005,0,0,0,-3.410173627901941,-2.569750148859246 L-4.208809137949234,-3.171565172011294 A5.2700000000000005,5.2700000000000005,0,0,1,-4.095559216878236,-3.3165184608326452 Z" fill="#7c8cb0" stroke="black" stroke-width="0.07" />
<path d="M-3.1481742281792298,-2.88477018651887 A4.2700000000000005,4.2700000000000005,0,0,0,-3.2469334731121324,-2.773143166369885 L-4.0073394387121635,-3.4225912147000686 A5.2700000000000005,5.2700000000000005,0,0,1,-3.8854515649893537,-3.5603603941345305 Z" fill="#7c90aa" stroke="black" stroke-width="0.07" />
<path d="M-2.9121329974668684,-3.1228803059138586 A4.2700000000000005,4.2700000000000005,0,0,0,-2.9661912418599177,-3.071580947446042 L-3.6608496123189145,-3.790920747784693 A5.2700000000000005,5.2700000000000005,0,0,1,-3.5941313575293665,-3.8542340075330292 Z" fill="#7b96a2" stroke="black" stroke-width="0.07" />
<path d="M-2.7160540005860514,-3.294836971065566 A4.2700000000000005,4.2700000000000005,0,0,0,-2.8293876058812,-3.198040927769039 L-3.4920076540969376,-3.9469966485580414 A5.2700000000000005,5.2700000000000005,0,0,1,-3.3521322208638153,-4.066461554453286 Z" fill="#7b999c" stroke="black" stroke-width="0.07" />
<path d="M-2.50984302728886,-3.454502565981026 A4.2700000000000005,4.2700000000000005,0,0,0,-2.628874499640561,-3.3648059179007035 L-3.2445359749662193,-4.152816671507425 A5.2700000000000005,5.2700000000000005,0,0,1,-3.097628279581333,-4.263519560355974 Z" fill="#7b9d96" stroke="black" stroke-width="0.07" />
<path d="M-2.294269327640937,-3.601281473621023 A4.2700000000000005,4.2700000000000005,0,0,0,-2.3567709272824886,-3.5606924602268086 L-2.9087079125945468,-4.394578282293977 A5.2700000000000005,5.2700000000000005,0,0,1,-2.8315689359877605,-4.444672919433908 Z" fill="#7aa190" stroke="black" stroke-width="0.07" />
<path d="M-2.070137078451859,-3.7346261494852206 A4.2700000000000005,4.2700000000000005,0,0,0,-2.199212579865932,-3.66010437399802 L-2.714250654775986,-4.517271674700132 A5.2700000000000005,5.2700000000000005,0,0,1,-2.5549466986981964,-4.609245856624616 Z" fill="#7aa48b" stroke="black" stroke-width="0.07" />
<path d="M-1.6684219186491984,-3.9305557242419207 A4.2700000000000005,4.2700000000000005,0,0,0,-1.7367654659336664,-3.9008391041339068 L-2.1435021090094666,-4.8143845617765075 A5.2700000000000005,5.2700000000000005,0,0,1,-2.059153047138472,-4.851060577694361 Z" fill="#79ab7f" stroke="black" stroke-width="0.07" />
<path d="M-1.4253552889282024,-4.025079166963602 A4.2700000000000005,4.2700000000000005,0,0,0,-1.5649602381127492,-3.9728830152832453 L-1.9314614648370463,-4.90330058326527 A5.2700000000000005,5.2700000000000005,0,0,1,-1.7591621481619735,-4.9677206580557804 Z" fill="#79ae7a" stroke="black" stroke-width="0.07" />
<path d="M-1.141107865854157,-4.11470203520082 A4.2700000000000005,4.2700000000000005,0,0,0,-1.141107865854157,-4.11470203520082 L-1.4083462419324138,-5.078332488409443 A5.2700000000000005,5.2700000000000005,0,1,1,-1.4083462419324138,-5.078332488409443 Z" fill="#79b472" stroke="black" stroke-width="0.07" />
<path d="M-0.7047532770250939,-4.211439518563979 A4.2700000000000005,4.2700000000000005,0,0,0,-0.924197151515699,-4.168783950402116 L-1.1406367654538019,-5.145079957522049 A5.2700000000000005,5.2700000000000005,0,0,1,-0.8698008828857716,-5.19772512010121 Z" fill="#78b86a" stroke="black" stroke-width="0.07" />
<path d="M-0.44633653815287977,-4.246608493222528 A4.2700000000000005,4.2700000000000005,0,0,0,-0.5942691410994791,-4.228444653526506 L-0.7334422420595444,-5.2187127222680765 A5.2700000000000005,5.2700000000000005,0,0,1,-0.5508650014205331,-5.241130388590801 Z" fill="#78bd63" stroke="black" stroke-width="0.07" />
<path d="M-0.18625478404998427,-4.265935906154533 A4.2700000000000005,4.2700000000000005,0,0,0,-0.33502033875789766,-4.256837015040457 L-0.41347943448574254,-5.253754348773585 A5.2700000000000005,5.2700000000000005,0,0,1,-0.22987417141532016,-5.264984127736391 Z" fill="#7ac05d" stroke="black" stroke-width="0.07" />
<path d="M0.07452177548720003,-4.2693496583177915 A4.2700000000000005,4.2700000000000005,0,0,0,-0.07452177548720046,-4.2693496583177915 L-0.09197418192448394,-5.2691973534741825 A5.2700000000000005,5.2700000000000005,0,0,1,0.0919741819244834,-5.2691973534741825 Z" fill="#83c557" stroke="black" stroke-width="0.07" />
<path d="M0.3721550215325003,-4.253751360851754 A4.2700000000000005,4.2700000000000005,0,0,0,0.22347453315737076,-4.2641481134020305 L0.2758104894003147,-5.262777648156605 A5.2700000000000005,5.2700000000000005,0,0,1,0.45931076428015843,-5.249946058943499 Z" fill="#8dca4f" stroke="black" stroke-width="0.07" />
<path d="M0.631146185523438,-4.223097736555386 A4.2700000000000005,4.2700000000000005,0,0,0,0.4833777227889613,-4.242551823739029 L0.5965809365568678,-5.236123679415616 A5.2700000000000005,5.2700000000000005,0,0,1,0.7789555966530488,-5.212113599917302 Z" fill="#96ce49" stroke="black" stroke-width="0.07" />
<path d="M0.887782919791833,-4.176690255133351 A4.2700000000000005,4.2700000000000005,0,0,0,0.741477718637793,-4.205129105362129 L0.9151258963047234,-5.189936858374336 A5.2700000000000005,5.2700000000000005,0,0,1,1.0956946106095924,-5.1548378558671555 Z" fill="#a0d242" stroke="black" stroke-width="0.07" />
<path d="M1.3548908828497435,-4.049342007730472 A4.2700000000000005,4.2700000000000005,0,0,0,1.2127455218857492,-4.094160267887185 L1.496760866589672,-5.052980002755378 A5.2700000000000005,5.2700000000000005,0,0,1,1.6721955392548356,-4.9976656629366705 Z" fill="#b1da36" stroke="black" stroke-width="0.07" />
<path d="M1.5995701538859441,-3.959075059000183 A4.2700000000000005,4.2700000000000005,0,0,0,1.460426012000606,-4.012487490755829 L1.802446155326275,-4.952180111541737 A5.2700000000000005,5.2700000000000005,0,0,1,1.974176747301856,-4.88625891356697 Z" fill="#bade30" stroke="black" stroke-width="0.07" />
<path d="M1.8382823833714208,-3.854039164173905 A4.2700000000000005,4.2700000000000005,0,0,0,1.7026585243108017,-3.91584651762448 L2.101407593236048,-4.832906592009604 A5.2700000000000005,5.2700000000000005,0,0,1,2.268793480179716,-4.756624448523765 Z" fill="#c3e329" stroke="black" stroke-width="0.07" />
<path d="M2.0701370784518596,-3.73462614948522 A4.2700000000000005,4.2700000000000005,0,0,0,2.004643573095754,-3.7701862215076183 L2.474115135881645,-4.653133814366545 A5.2700000000000005,5.2700000000000005,0,0,1,2.554946698698197,-4.609245856624616 Z" fill="#cee822" stroke="black" stroke-width="0.07" />
<path d="M2.2942693276409383,-3.6012814736210226 A4.2700000000000005,4.2700000000000005,0,0,0,2.167188809842207,-3.679156515085315 L2.6747271728029114,-4.540785675526841 A5.2700000000000005,5.2700000000000005,0,0,1,2.8315689359877623,-4.444672919433908 Z" fill="#d5eb1c" stroke="black" stroke-width="0.07" />
<path d="M2.5098430272888606,-3.454502565981026 A4.2700000000000005,4.2700000000000005,0,0,0,2.3877536978200893,-3.5399904348100284 L2.946946601290836,-4.3690280073650705 A5.2700000000000005,5.2700000000000005,0,0,1,3.097628279581334,-4.263519560355974 Z" fill="#dff016" stroke="black" stroke-width="0.07" />
<path d="M2.912132997466869,-3.122880305913858 A4.2700000000000005,4.2700000000000005,0,0,0,2.7447030933615233,-3.2710097721180365 L3.3874907030480625,-4.037054215237014 A5.2700000000000005,5.2700000000000005,0,0,1,3.5941313575293674,-3.854234007533029 Z" fill="#f0f80a" stroke="black" stroke-width="0.07" />
<path d="M3.0973485642224685,-2.9392740382123295 A4.2700000000000005,4.2700000000000005,0,0,0,2.9928825585603636,-3.0455794178883555 L3.6937918228602147,-3.7588298670425373 A5.2700000000000005,5.2700000000000005,0,0,1,3.822722935234756,-3.6276286139060834 Z" fill="#fafc03" stroke="black" stroke-width="0.07" />
<path d="M3.2710097721180365,-2.744703093361523 A4.2700000000000005,4.2700000000000005,0,0,0,3.173228404788474,-2.857187689152325 L3.916373230265868,-3.5263182955111834 A5.2700000000000005,5.2700000000000005,0,0,1,4.037054215237014,-3.387490703048062 Z" fill="#fdfb00" stroke="black" stroke-width="0.07" />
<path d="M3.6012814736210226,-2.2942693276409383 A4.2700000000000005,4.2700000000000005,0,0,0,3.4762732633814837,-2.4796016208857132 L4.290388781737803,-3.060304576596653 A5.2700000000000005,5.2700000000000005,0,0,1,4.444672919433908,-2.8315689359877623 Z" fill="#f9ef00" stroke="black" stroke-width="0.07" />
<path d="M3.73462614948522,-2.0701370784518596 A4.2700000000000005,4.2700000000000005,0,0,0,3.66010437399802,-2.1992125798659314 L4.517271674700132,-2.7142506547759857 A5.2700000000000005,5.2700000000000005,0,0,1,4.609245856624616,-2.5549466986981964 Z" fill="#f7e800" stroke="black" stroke-width="0.07" />
<path d="M3.8540391641739054,-1.8382823833714201 A4.2700000000000005,4.2700000000000005,0,0,0,3.787536257671007,-1.971666578513595 L4.674547090849229,-2.433415191748629 A5.2700000000000005,5.2700000000000005,0,0,1,4.756624448523766,-2.268793480179715 Z" fill="#f5e200" stroke="black" stroke-width="0.07" />
<path d="M3.959075059000183,-1.5995701538859444 A4.2700000000000005,4.2700000000000005,0,0,0,3.9305557242419207,-1.6684219186491989 L4.851060577694361,-2.0591530471384725 A5.2700000000000005,5.2700000000000005,0,0,1,4.88625891356697,-1.9741767473018565 Z" fill="#f3db00" stroke="black" stroke-width="0.07" />
<path d="M4.049342007730472,-1.3548908828497437 A4.2700000000000005,4.2700000000000005,0,0,0,3.9995902480906587,-1.4953855179779258 L4.936262437339056,-1.8455928992373933 A5.2700000000000005,5.2700000000000005,0,0,1,4.9976656629366705,-1.6721955392548358 Z" fill="#f1d600" stroke="black" stroke-width="0.07" />
<path d="M4.1245032782543225,-1.1051573225877638 A4.2700000000000005,4.2700000000000005,0,0,0,4.083421307962162,-1.2484271791660861 L5.0397260639251975,-1.540798883888823 A5.2700000000000005,5.2700000000000005,0,0,1,5.09042910454339,-1.3639763676902845 Z" fill="#efd000" stroke="black" stroke-width="0.07" />
<path d="M4.198498455298087,-0.7781456938514698 A4.2700000000000005,4.2700000000000005,0,0,0,4.168783950402116,-0.9241971515156994 L5.145079957522049,-1.1406367654538023 A5.2700000000000005,5.2700000000000005,0,0,1,5.181753362862041,-0.9603812193436173 Z" fill="#ecc800" stroke="black" stroke-width="0.07" />
<path d="M4.2381720675084456,-0.5203820963399798 A4.2700000000000005,4.2700000000000005,0,0,0,4.217429214341239,-0.6679751657217858 L5.205117554936376,-0.8244096307620168 A5.2700000000000005,5.2700000000000005,0,0,1,5.230718219149767,-0.6422514397451272 Z" fill="#eac200" stroke="black" stroke-width="0.07" />
<path d="M4.265935906154533,-0.18625478404998475 A4.2700000000000005,4.2700000000000005,0,0,0,4.262035589261372,-0.2606772638138389 L5.260170387683239,-0.32172580334869577 A5.2700000000000005,5.2700000000000005,0,0,1,5.264984127736391,-0.22987417141532074 Z" fill="#e7b900" stroke="black" stroke-width="0.07" />
<path d="M4.2693496583177915,0.0745217754872006 A4.2700000000000005,4.2700000000000005,0,0,0,4.2693496583177915,-0.0745217754872006 L5.2691973534741825,-0.09197418192448412 A5.2700000000000005,5.2700000000000005,0,0,1,5.2691973534741825,0.09197418192448412 Z" fill="#e6b400" stroke="black" stroke-width="0.07" />
<path d="M4.2381720675084456,0.5203820963399798 A4.2700000000000005,4.2700000000000005,0,0,0,4.246608493222527,0.4463365381528803 L5.2411303885908005,0.5508650014205337 A5.2700000000000005,5.2700000000000005,0,0,1,5.230718219149767,0.6422514397451272 Z" fill="#e2a800" stroke="black" stroke-width="0.07" />
<path d="M4.198498455298087,0.7781456938514698 A4.2700000000000005,4.2700000000000005,0,0,0,4.223097736555386,0.6311461855234375 L5.212113599917302,0.778955596653048 A5.2700000000000005,5.2700000000000005,0,0,1,5.181753362862041,0.9603812193436173 Z" fill="#e1a200" stroke="black" stroke-width="0.07" />
<path d="M4.11470203520082,1.141107865854157 A4.2700000000000005,4.2700000000000005,0,0,0,4.13399042441452,1.069122617312465 L5.102138064792628,1.3195026213669065 A5.2700000000000005,5.2700000000000005,0,0,1,5.078332488409443,1.4083462419324138 Z" fill="#e49000" stroke="black" stroke-width="0.07" />
<path d="M4.037364317809083,1.390176019532059 A4.2700000000000005,4.2700000000000005,0,0,0,4.083421307962162,1.2484271791660861 L5.0397260639251975,1.540798883888823 A5.2700000000000005,5.2700000000000005,0,0,1,4.982882893408401,1.7157441739892156 Z" fill="#e68600" stroke="black" stroke-width="0.07" />
<path d="M3.959075059000183,1.5995701538859444 A4.2700000000000005,4.2700000000000005,0,0,0,3.959075059000183,1.5995701538859444 L4.88625891356697,1.9741767473018565 A5.2700000000000005,5.2700000000000005,0,1,1,4.88625891356697,1.9741767473018565 Z" fill="#e87900" stroke="black" stroke-width="0.07" />
<path d="M3.91584651762448,1.7026585243108014 A4.2700000000000005,4.2700000000000005,0,0,0,3.91584651762448,1.7026585243108014 L4.832906592009604,2.1014075932360474 A5.2700000000000005,5.2700000000000005,0,1,1,4.832906592009604,2.1014075932360474 Z" fill="#e97500" stroke="black" stroke-width="0.07" />
<path d="M3.8699342506464958,1.8045799776327869 A4.2700000000000005,4.2700000000000005,0,0,0,3.8699342506464958,1.8045799776327869 L4.776242037683145,2.2271982393734864 A5.2700000000000005,5.2700000000000005,0,1,1,4.776242037683145,2.2271982393734864 Z" fill="#ea7000" stroke="black" stroke-width="0.07" />
<path d="M3.7525490710665927,2.037467906308528 A4.2700000000000005,4.2700000000000005,0,0,0,3.7525490710665927,2.037467906308528 L4.631366183728558,2.5146266665681365 A5.2700000000000005,5.2700000000000005,0,1,1,4.631366183728558,2.5146266665681365 Z" fill="#ec6500" stroke="black" stroke-width="0.07" />
<path d="M3.66010437399802,2.1992125798659314 A4.2700000000000005,4.2700000000000005,0,0,0,3.6979284741595535,2.135 L4.563953877943993,2.635 A5.2700000000000005,5.2700000000000005,0,0,1,4.517271674700132,2.7142506547759857 Z" fill="#ed5e00" stroke="black" stroke-width="0.07" />
<path d="M2.5985795645203638,4.687961630267163 A5.36,5.36,0,0,0,2.6800000000000006,4.641896164284591 L3.180000000000001,5.50792156806903 A6.36,6.36,0,0,1,3.0833891847667,5.562581337406559 Z" fill="#ff0000" stroke="black" stroke-width="0.07" />
<path d="M2.30753947889246,4.837857124115254 A5.36,5.36,0,0,0,2.4749725669397784,4.754378065835271 L2.9367211801748114,5.641388899013492 A6.36,6.36,0,0,1,2.738050575700755,5.740442408465115 Z" fill="#ff0000" stroke="black" stroke-width="0.07" />
<path d="M2.0511831974768824,4.951994294260497 A5.36,5.36,0,0,0,2.13729500943932,4.9154419987042655 L2.5360440783645664,5.8325020730893895 A6.36,6.36,0,0,1,2.4338666298419724,5.875873826771783 Z" fill="#ff0000" stroke="black" stroke-width="0.07" />
<path d="M1.6563310898497172,5.097662927342024 A5.36,5.36,0,0,0,1.6563310898497172,5.097662927342024 L1.9653480842246644,6.048719443637178 A6.36,6.36,0,1,1,1.9653480842246644,6.048719443637178 Z" fill="#ff0000" stroke="black" stroke-width="0.07" />
<path d="M1.4323976957794562,5.16505922919822 A5.36,5.36,0,0,0,1.5223222476130236,5.139273778893515 L1.806337592316946,6.098093513761709 A6.36,6.36,0,0,1,1.6996360718577128,6.128689682406843 Z" fill="#ff0000" stroke="black" stroke-width="0.07" />
<path d="M1.2512671502676498,5.2119027733315475 A5.36,5.36,0,0,0,1.2512671502676498,5.2119027733315475 L1.4847125141235544,6.184272693729224 A6.36,6.36,0,1,1,1.4847125141235544,6.184272693729224 Z" fill="#ff0000" stroke="black" stroke-width="0.07" />
<path d="M1.114406662783186,5.242871139933199 A5.36,5.36,0,0,0,1.114406662783186,5.242871139933199 L1.3223183536009446,6.221018740667005 A6.36,6.36,0,1,1,1.3223183536009446,6.221018740667005 Z" fill="#ff0000" stroke="black" stroke-width="0.07" />
<path d="M0.9307542322947447,5.2785695561454355 A5.36,5.36,0,0,0,0.9307542322947447,5.2785695561454355 L1.1044024099616747,6.263377309157644 A6.36,6.36,0,1,1,1.1044024099616747,6.263377309157644 Z" fill="#ff0000" stroke="black" stroke-width="0.07" />
<path d="M0.6996203902994794,5.314144456963624 A5.36,5.36,0,0,0,0.6996203902994794,5.314144456963624 L0.8301465825195316,6.305589318337434 A6.36,6.36,0,1,1,0.8301465825195316,6.305589318337434 Z" fill="#ff0000" stroke="black" stroke-width="0.07" />
<path d="M0.56027256311462,5.330637359173946 A5.36,5.36,0,0,0,0.56027256311462,5.330637359173946 L0.664801026382273,6.3251592545422195 A6.36,6.36,0,1,1,0.664801026382273,6.3251592545422195 Z" fill="#ff0000" stroke="black" stroke-width="0.07" />
<path d="M0.09354489850383758,5.359183646038257 A5.36,5.36,0,0,0,0.18706130232540688,5.356734832822354 L0.22196079902790816,6.3561256598414495 A6.36,6.36,0,0,1,0.11099730494112071,6.359031341194648 Z" fill="#ff0000" stroke="black" stroke-width="0.07" />
<path d="M-0.23379991627820168,5.354898467678758 A5.36,5.36,0,0,0,-0.23379991627820168,5.354898467678758 L-0.27741930364353784,6.353946689260616 A6.36,6.36,0,1,1,-0.27741930364353784,6.353946689260616 Z" fill="#ff0000" stroke="black" stroke-width="0.07" />
<path d="M-0.37389469926851315,5.346943309392658 A5.36,5.36,0,0,0,-0.37389469926851315,5.346943309392658 L-0.44365117301263873,6.344507359652482 A6.36,6.36,0,1,1,-0.44365117301263873,6.344507359652482 Z" fill="#ff0000" stroke="black" stroke-width="0.07" />
<path d="M-0.560272563114622,5.330637359173946 A5.36,5.36,0,0,0,-0.560272563114622,5.330637359173946 L-0.6648010263822755,6.3251592545422195 A6.36,6.36,0,1,1,-0.6648010263822755,6.3251592545422195 Z" fill="#ff0000" stroke="black" stroke-width="0.07" />
<path d="M-0.6996203902994768,5.314144456963624 A5.36,5.36,0,0,0,-0.6996203902994768,5.314144456963624 L-0.8301465825195284,6.305589318337434 A6.36,6.36,0,1,1,-0.8301465825195284,6.305589318337434 Z" fill="#ff0000" stroke="black" stroke-width="0.07" />
<path d="M-0.8846551674132349,5.28649082423956 A5.36,5.36,0,0,0,-0.8846551674132349,5.28649082423956 L-1.049702773273913,6.272776425776792 A6.36,6.36,0,1,1,-1.049702773273913,6.272776425776792 Z" fill="#ff0000" stroke="black" stroke-width="0.07" />
<path d="M-1.1144066627831926,5.242871139933198 A5.36,5.36,0,0,0,-1.1144066627831926,5.242871139933198 L-1.3223183536009524,6.221018740667004 A6.36,6.36,0,1,1,-1.3223183536009524,6.221018740667004 Z" fill="#ff0000" stroke="black" stroke-width="0.07" />
<path d="M-1.2512671502676516,5.2119027733315475 A5.36,5.36,0,0,0,-1.2512671502676516,5.2119027733315475 L-1.4847125141235569,6.184272693729224 A6.36,6.36,0,1,1,-1.4847125141235569,6.184272693729224 Z" fill="#ff0000" stroke="black" stroke-width="0.07" />
<path d="M-1.7007529583312966,5.083014791905228 A5.36,5.36,0,0,0,-1.6117830853429076,5.111922856010495 L-1.9124888848471813,6.065639806758722 A6.36,6.36,0,0,1,-2.018057614736389,6.031338447111427 Z" fill="#ff0000" stroke="black" stroke-width="0.07" />
<path d="M-2.00789134070929,4.9697054604779805 A5.36,5.36,0,0,0,-2.00789134070929,4.9697054604779805 L-2.3824979341252024,5.896889315044768 A6.36,6.36,0,1,1,-2.3824979341252024,5.896889315044768 Z" fill="#fd0101" stroke="black" stroke-width="0.07" />
<path d="M-2.1372950094393173,4.915441998704266 A5.36,5.36,0,0,0,-2.1372950094393173,4.915441998704266 L-2.5360440783645632,5.83250207308939 A6.36,6.36,0,1,1,-2.5360440783645632,5.83250207308939 Z" fill="#fa0405" stroke="black" stroke-width="0.07" />
<path d="M-2.307539478892462,4.837857124115253 A5.36,5.36,0,0,0,-2.307539478892462,4.837857124115253 L-2.738050575700757,5.740442408465114 A6.36,6.36,0,1,1,-2.738050575700757,5.740442408465114 Z" fill="#f6080b" stroke="black" stroke-width="0.07" />
<path d="M-2.433389078603972,4.7757949696496516 A5.36,5.36,0,0,0,-2.433389078603972,4.7757949696496516 L-2.8873795783435185,5.66680149383802 A6.36,6.36,0,1,1,-2.8873795783435185,5.66680149383802 Z" fill="#f30b0f" stroke="black" stroke-width="0.07" />
<path d="M-2.6393902821545843,4.665106530237862 A5.36,5.36,0,0,0,-2.6393902821545843,4.665106530237862 L-3.1318138422580515,5.535462226177762 A6.36,6.36,0,1,1,-3.1318138422580515,5.535462226177762 Z" fill="#ee1016" stroke="black" stroke-width="0.07" />
<path d="M-2.840367256289979,4.5455377953984435 A5.36,5.36,0,0,0,-2.7606040815178923,4.594416731763321 L-3.2756421564279465,5.451584032465433 A6.36,6.36,0,0,1,-3.3702865205231842,5.39358589155487 Z" fill="#ea141c" stroke="black" stroke-width="0.07" />
<path d="M-2.9972739626032054,4.443641388895022 A5.36,5.36,0,0,0,-2.9972739626032054,4.443641388895022 L-3.5564668660739525,5.2726789614500635 A6.36,6.36,0,1,1,-3.5564668660739525,5.2726789614500635 Z" fill="#e51a23" stroke="black" stroke-width="0.07" />
<path d="M-3.1125678426106402,4.363659178389869 A5.36,5.36,0,0,0,-3.1125678426106402,4.363659178389869 L-3.6932707983215805,5.177774696746188 A6.36,6.36,0,1,1,-3.6932707983215805,5.177774696746188 Z" fill="#e21d27" stroke="black" stroke-width="0.07" />
<path d="M-3.2629612594867443,4.252373903961019 A5.36,5.36,0,0,0,-3.2629612594867443,4.252373903961019 L-3.871722688495465,5.045727244252254 A6.36,6.36,0,1,1,-3.871722688495465,5.045727244252254 Z" fill="#de212d" stroke="black" stroke-width="0.07" />
<path d="M-3.373157296027127,4.165502353409366 A5.36,5.36,0,0,0,-3.373157296027127,4.165502353409366 L-4.002477687076965,4.942648314866337 A6.36,6.36,0,1,1,-4.002477687076965,4.942648314866337 Z" fill="#db2431" stroke="black" stroke-width="0.07" />
<path d="M-3.516476395389121,4.045243349994056 A5.36,5.36,0,0,0,-3.516476395389121,4.045243349994056 L-4.172535424379628,4.799952930216828 A6.36,6.36,0,1,1,-4.172535424379628,4.799952930216828 Z" fill="#d72837" stroke="black" stroke-width="0.07" />
<path d="M-3.7568736566472003,3.823022407466414 A5.36,5.36,0,0,0,-3.689580525718522,3.888006628625862 L-4.377935101412276,4.613380999638149 A6.36,6.36,0,0,1,-4.457782920947051,4.536272856620596 Z" fill="#d12e40" stroke="black" stroke-width="0.07" />
<path d="M-3.9832562645588334,3.5865400500834803 A5.36,5.36,0,0,0,-3.9832562645588334,3.5865400500834803 L-4.726401090036227,4.255670656442339 A6.36,6.36,0,1,1,-4.726401090036227,4.255670656442339 Z" fill="#c9374b" stroke="black" stroke-width="0.07" />
<path d="M-4.075775975616167,3.481041539049784 A5.36,5.36,0,0,0,-4.075775975616167,3.481041539049784 L-4.836181941216197,4.130489587379968 A6.36,6.36,0,1,1,-4.836181941216197,4.130489587379968 Z" fill="#c63a4f" stroke="black" stroke-width="0.07" />
<path d="M-4.194779720728939,3.3366784523776403 A5.36,5.36,0,0,0,-4.194779720728939,3.3366784523776403 L-4.977387877581354,3.9591930890152596 A6.36,6.36,0,1,1,-4.977387877581354,3.9591930890152596 Z" fill="#c23e55" stroke="black" stroke-width="0.07" />
<path d="M-4.280686333853491,3.225728524094978 A5.36,5.36,0,0,0,-4.280686333853491,3.225728524094978 L-5.079321843900784,3.827543547247026 A6.36,6.36,0,1,1,-5.079321843900784,3.827543547247026 Z" fill="#bf4159" stroke="black" stroke-width="0.07" />
<path d="M-4.390654957388998,3.074369698841606 A5.36,5.36,0,0,0,-4.390654957388998,3.074369698841606 L-5.20980700167799,3.6479461351926514 A6.36,6.36,0,1,1,-5.20980700167799,3.6479461351926514 Z" fill="#bb455f" stroke="black" stroke-width="0.07" />
<path d="M-4.469628006280021,2.9583822412726337 A5.36,5.36,0,0,0,-4.469628006280021,2.9583822412726337 L-5.303513828347189,3.5103192265846923 A6.36,6.36,0,1,1,-5.303513828347189,3.5103192265846923 Z" fill="#b84863" stroke="black" stroke-width="0.07" />
<path d="M-4.570151280937935,2.800592306877485 A5.36,5.36,0,0,0,-4.570151280937935,2.800592306877485 L-5.422791445292027,3.323090871593434 A6.36,6.36,0,1,1,-5.422791445292027,3.323090871593434 Z" fill="#b44d69" stroke="black" stroke-width="0.07" />
<path d="M-4.687961630267162,2.598579564520366 A5.36,5.36,0,0,0,-4.687961630267162,2.598579564520366 L-5.562581337406558,3.083389184766703 A6.36,6.36,0,1,1,-5.562581337406558,3.083389184766703 Z" fill="#af5270" stroke="black" stroke-width="0.07" />
<path d="M-4.75437806583527,2.474972566939781 A5.36,5.36,0,0,0,-4.75437806583527,2.474972566939781 L-5.641388899013491,2.936721180174815 A6.36,6.36,0,1,1,-5.641388899013491,2.936721180174815 Z" fill="#ac5574" stroke="black" stroke-width="0.07" />
<path d="M-4.837857124115253,2.307539478892463 A5.36,5.36,0,0,0,-4.837857124115253,2.307539478892463 L-5.740442408465113,2.738050575700758 A6.36,6.36,0,1,1,-5.740442408465113,2.738050575700758 Z" fill="#a8597a" stroke="black" stroke-width="0.07" />
<path d="M-4.896603652964342,2.180108406886287 A5.36,5.36,0,0,0,-4.896603652964342,2.180108406886287 L-5.810149110606943,2.586845049962087 A6.36,6.36,0,1,1,-5.810149110606943,2.586845049962087 Z" fill="#a55c7e" stroke="black" stroke-width="0.07" />
<path d="M-4.9697054604779805,2.0078913407092887 A5.36,5.36,0,0,0,-4.9697054604779805,2.0078913407092887 L-5.896889315044768,2.3824979341252006 A6.36,6.36,0,1,1,-5.896889315044768,2.3824979341252006 Z" fill="#a16084" stroke="black" stroke-width="0.07" />
<path d="M-5.020562934371412,1.8771115635507447 A5.36,5.36,0,0,0,-5.020562934371412,1.8771115635507447 L-5.957235123619809,2.2273189448102118 A6.36,6.36,0,1,1,-5.957235123619809,2.2273189448102118 Z" fill="#9e6488" stroke="black" stroke-width="0.07" />
<path d="M-5.083014791905229,1.7007529583312928 A5.36,5.36,0,0,0,-5.083014791905229,1.7007529583312928 L-6.031338447111429,2.0180576147363847 A6.36,6.36,0,1,1,-6.031338447111429,2.0180576147363847 Z" fill="#9a688e" stroke="black" stroke-width="0.07" />
<path d="M-5.125793491961871,1.5671123373138671 A5.36,5.36,0,0,0,-5.125793491961871,1.5671123373138671 L-6.082098247924907,1.8594840420366034 A6.36,6.36,0,1,1,-6.082098247924907,1.8594840420366034 Z" fill="#976b92" stroke="black" stroke-width="0.07" />
<path d="M-5.211902773331547,1.2512671502676547 A5.36,5.36,0,0,0,-5.211902773331547,1.2512671502676547 L-6.184272693729223,1.4847125141235604 A6.36,6.36,0,1,1,-6.184272693729223,1.4847125141235604 Z" fill="#966d94" stroke="black" stroke-width="0.07" />
<path d="M-5.242871139933198,1.1144066627831886 A5.36,5.36,0,0,0,-5.242871139933198,1.1144066627831886 L-6.221018740667004,1.3223183536009477 A6.36,6.36,0,1,1,-6.221018740667004,1.3223183536009477 Z" fill="#956e95" stroke="black" stroke-width="0.07" />
<path d="M-5.2785695561454355,0.9307542322947474 A5.36,5.36,0,0,0,-5.2785695561454355,0.9307542322947474 L-6.263377309157644,1.1044024099616778 A6.36,6.36,0,1,1,-6.263377309157644,1.1044024099616778 Z" fill="#946f97" stroke="black" stroke-width="0.07" />
<path d="M-5.301125027619874,0.7922584436547129 A5.36,5.36,0,0,0,-5.301125027619874,0.7922584436547129 L-6.2901408909817915,0.9400678547843234 A6.36,6.36,0,1,1,-6.2901408909817915,0.9400678547843234 Z" fill="#937098" stroke="black" stroke-width="0.07" />
<path d="M-5.325545146426509,0.6067692257959796 A5.36,5.36,0,0,0,-5.325545146426509,0.6067692257959796 L-6.319117002103097,0.7199724395638862 A6.36,6.36,0,1,1,-6.319117002103097,0.7199724395638862 Z" fill="#927199" stroke="black" stroke-width="0.07" />
<path d="M-5.339603581771756,0.4671547811274466 A5.36,5.36,0,0,0,-5.339603581771756,0.4671547811274466 L-6.335798279863502,0.5543105238751046 A6.36,6.36,0,1,1,-6.335798279863502,0.5543105238751046 Z" fill="#91729a" stroke="black" stroke-width="0.07" />
<path d="M-5.352654306284516,0.28052072546217754 A5.36,5.36,0,0,0,-5.352654306284516,0.28052072546217754 L-6.3512838410390895,0.33285668170512106 A6.36,6.36,0,1,1,-6.3512838410390895,0.33285668170512106 Z" fill="#90739c" stroke="black" stroke-width="0.07" />
<path d="M-5.36,-6.564106843429813e-16 A5.36,5.36,0,0,0,-5.36,-6.564106843429813e-16 L-6.36,-7.788753642577167e-16 A6.36,6.36,0,1,1,-6.36,-7.788753642577167e-16 Z" fill="#8f759e" stroke="black" stroke-width="0.07" />
<path d="M-5.354898467678758,-0.23379991627820135 A5.36,5.36,0,0,0,-5.354898467678758,-0.23379991627820135 L-6.353946689260616,-0.2774193036435374 A6.36,6.36,0,1,1,-6.353946689260616,-0.2774193036435374 Z" fill="#8d76a0" stroke="black" stroke-width="0.07" />
<path d="M-5.346943309392658,-0.3738946992685128 A5.36,5.36,0,0,0,-5.346943309392658,-0.3738946992685128 L-6.344507359652482,-0.44365117301263834 A6.36,6.36,0,1,1,-6.344507359652482,-0.44365117301263834 Z" fill="#8c77a1" stroke="black" stroke-width="0.07" />
<path d="M-5.330637359173945,-0.560272563114624 A5.36,5.36,0,0,0,-5.330637359173945,-0.560272563114624 L-6.325159254542219,-0.6648010263822778 A6.36,6.36,0,1,1,-6.325159254542219,-0.6648010263822778 Z" fill="#8b78a2" stroke="black" stroke-width="0.07" />
<path d="M-5.314144456963624,-0.6996203902994764 A5.36,5.36,0,0,0,-5.314144456963624,-0.6996203902994764 L-6.305589318337434,-0.830146582519528 A6.36,6.36,0,1,1,-6.305589318337434,-0.830146582519528 Z" fill="#8b79a3" stroke="black" stroke-width="0.07" />
<path d="M-5.28649082423956,-0.8846551674132347 A5.36,5.36,0,0,0,-5.28649082423956,-0.8846551674132347 L-6.272776425776792,-1.0497027732739128 A6.36,6.36,0,1,1,-6.272776425776792,-1.0497027732739128 Z" fill="#8a7aa5" stroke="black" stroke-width="0.07" />
<path d="M-5.222623547248861,-1.2057376512831153 A5.36,5.36,0,0,0,-5.222623547248861,-1.2057376512831153 L-6.196993612034096,-1.4306887056269801 A6.36,6.36,0,1,1,-6.196993612034096,-1.4306887056269801 Z" fill="#887ca7" stroke="black" stroke-width="0.07" />
<path d="M-5.165059229198219,-1.4323976957794577 A5.36,5.36,0,0,0,-5.165059229198219,-1.4323976957794577 L-6.128689682406843,-1.6996360718577146 A6.36,6.36,0,1,1,-6.128689682406843,-1.6996360718577146 Z" fill="#867ea9" stroke="black" stroke-width="0.07" />
<path d="M-5.12579349196187,-1.5671123373138707 A5.36,5.36,0,0,0,-5.12579349196187,-1.5671123373138707 L-6.082098247924906,-1.8594840420366077 A6.36,6.36,0,1,1,-6.082098247924906,-1.8594840420366077 Z" fill="#867eaa" stroke="black" stroke-width="0.07" />
<path d="M-5.067979565212338,-1.7450453078903618 A5.36,5.36,0,0,0,-5.067979565212338,-1.7450453078903618 L-6.013498140811655,-2.0706134623475188 A6.36,6.36,0,1,1,-6.013498140811655,-2.0706134623475188 Z" fill="#8580ac" stroke="black" stroke-width="0.07" />
<path d="M-5.020562934371411,-1.877111563550746 A5.36,5.36,0,0,0,-5.020562934371411,-1.877111563550746 L-5.9572351236198084,-2.2273189448102135 A6.36,6.36,0,1,1,-5.9572351236198084,-2.2273189448102135 Z" fill="#8480ad" stroke="black" stroke-width="0.07" />
<path d="M-4.951994294260497,-2.051183197476882 A5.36,5.36,0,0,0,-4.951994294260497,-2.051183197476882 L-5.875873826771784,-2.433866629841972 A6.36,6.36,0,1,1,-5.875873826771784,-2.433866629841972 Z" fill="#8382ae" stroke="black" stroke-width="0.07" />
<path d="M-4.89660365296434,-2.1801084068862906 A5.36,5.36,0,0,0,-4.89660365296434,-2.1801084068862906 L-5.810149110606941,-2.5868450499620907 A6.36,6.36,0,1,1,-5.810149110606941,-2.5868450499620907 Z" fill="#8283af" stroke="black" stroke-width="0.07" />
<path d="M-4.817536088163536,-2.3496693467894545 A5.36,5.36,0,0,0,-4.817536088163536,-2.3496693467894545 L-5.716330134462702,-2.788040493578532 A6.36,6.36,0,1,1,-5.716330134462702,-2.788040493578532 Z" fill="#8184b1" stroke="black" stroke-width="0.07" />
<path d="M-4.754378065835269,-2.474972566939782 A5.36,5.36,0,0,0,-4.754378065835269,-2.474972566939782 L-5.64138889901349,-2.936721180174816 A6.36,6.36,0,1,1,-5.64138889901349,-2.936721180174816 Z" fill="#8085b2" stroke="black" stroke-width="0.07" />
<path d="M-4.665106530237862,-2.6393902821545843 A5.36,5.36,0,0,0,-4.665106530237862,-2.6393902821545843 L-5.535462226177763,-3.1318138422580515 A6.36,6.36,0,1,1,-5.535462226177763,-3.1318138422580515 Z" fill="#7f86b3" stroke="black" stroke-width="0.07" />
<path d="M-4.594416731763322,-2.760604081517892 A5.36,5.36,0,0,0,-4.594416731763322,-2.760604081517892 L-5.451584032465434,-3.275642156427946 A6.36,6.36,0,1,1,-5.451584032465434,-3.275642156427946 Z" fill="#7e87b4" stroke="black" stroke-width="0.07" />
<path d="M-4.469628006280021,-2.9583822412726324 A5.36,5.36,0,0,0,-4.469628006280021,-2.9583822412726324 L-5.30351382834719,-3.5103192265846905 A6.36,6.36,0,1,1,-5.30351382834719,-3.5103192265846905 Z" fill="#7d88b6" stroke="black" stroke-width="0.07" />
<path d="M-4.390654957388995,-3.074369698841609 A5.36,5.36,0,0,0,-4.390654957388995,-3.074369698841609 L-5.209807001677986,-3.647946135192655 A6.36,6.36,0,1,1,-5.209807001677986,-3.647946135192655 Z" fill="#7c89b5" stroke="black" stroke-width="0.07" />
<path d="M-4.280686333853491,-3.2257285240949782 A5.36,5.36,0,0,0,-4.280686333853491,-3.2257285240949782 L-5.079321843900783,-3.8275435472470263 A6.36,6.36,0,1,1,-5.079321843900783,-3.8275435472470263 Z" fill="#7c8bb2" stroke="black" stroke-width="0.07" />
<path d="M-4.194779720728939,-3.3366784523776416 A5.36,5.36,0,0,0,-4.194779720728939,-3.3366784523776416 L-4.977387877581353,-3.959193089015261 A6.36,6.36,0,1,1,-4.977387877581353,-3.959193089015261 Z" fill="#7c8daf" stroke="black" stroke-width="0.07" />
<path d="M-4.075775975616166,-3.481041539049785 A5.36,5.36,0,0,0,-4.075775975616166,-3.481041539049785 L-4.836181941216197,-4.130489587379969 A6.36,6.36,0,1,1,-4.836181941216197,-4.130489587379969 Z" fill="#7c8fac" stroke="black" stroke-width="0.07" />
<path d="M-3.983256264558832,-3.5865400500834808 A5.36,5.36,0,0,0,-3.983256264558832,-3.5865400500834808 L-4.7264010900362265,-4.255670656442339 A6.36,6.36,0,1,1,-4.7264010900362265,-4.255670656442339 Z" fill="#7c91a9" stroke="black" stroke-width="0.07" />
<path d="M-3.8556613298151707,-3.723368865660225 A5.36,5.36,0,0,0,-3.8556613298151707,-3.723368865660225 L-4.575001130153821,-4.418027236119222 A6.36,6.36,0,1,1,-4.575001130153821,-4.418027236119222 Z" fill="#7c93a6" stroke="black" stroke-width="0.07" />
<path d="M-3.723368865660224,-3.8556613298151716 A5.36,5.36,0,0,0,-3.723368865660224,-3.8556613298151716 L-4.418027236119221,-4.575001130153823 A6.36,6.36,0,1,1,-4.418027236119221,-4.575001130153823 Z" fill="#7b95a2" stroke="black" stroke-width="0.07" />
<path d="M-3.5516434584363537,-4.014402663429052 A5.36,5.36,0,0,0,-3.5516434584363537,-4.014402663429052 L-4.214263506652092,-4.763358384218053 A6.36,6.36,0,1,1,-4.214263506652092,-4.763358384218053 Z" fill="#7b989e" stroke="black" stroke-width="0.07" />
<path d="M-3.445341587919851,-4.105998215117722 A5.36,5.36,0,0,0,-3.445341587919851,-4.105998215117722 L-4.08812919760639,-4.8720426582367 A6.36,6.36,0,1,1,-4.08812919760639,-4.8720426582367 Z" fill="#7b999c" stroke="black" stroke-width="0.07" />
<path d="M-3.299945507745529,-4.22373763933203 A5.36,5.36,0,0,0,-3.299945507745529,-4.22373763933203 L-3.915606983071187,-5.0117483929387525 A6.36,6.36,0,1,1,-3.915606983071187,-5.0117483929387525 Z" fill="#7b9b98" stroke="black" stroke-width="0.07" />
<path d="M-3.1882501369871887,-4.308672772908285 A5.36,5.36,0,0,0,-3.1882501369871887,-4.308672772908285 L-3.78307292373853,-5.112529633525503 A6.36,6.36,0,1,1,-3.78307292373853,-5.112529633525503 Z" fill="#7b9d96" stroke="black" stroke-width="0.07" />
<path d="M-2.958382241272632,-4.469628006280022 A5.36,5.36,0,0,0,-2.958382241272632,-4.469628006280022 L-3.51031922658469,-5.3035138283471905 A6.36,6.36,0,1,1,-3.51031922658469,-5.3035138283471905 Z" fill="#7aa090" stroke="black" stroke-width="0.07" />
<path d="M-2.760604081517891,-4.594416731763323 A5.36,5.36,0,0,0,-2.760604081517891,-4.594416731763323 L-3.275642156427945,-5.451584032465434 A6.36,6.36,0,1,1,-3.275642156427945,-5.451584032465434 Z" fill="#7aa38c" stroke="black" stroke-width="0.07" />
<path d="M-2.6393902821545834,-4.665106530237862 A5.36,5.36,0,0,0,-2.6393902821545834,-4.665106530237862 L-3.13181384225805,-5.535462226177763 A6.36,6.36,0,1,1,-3.13181384225805,-5.535462226177763 Z" fill="#7aa58a" stroke="black" stroke-width="0.07" />
<path d="M-2.474972566939781,-4.75437806583527 A5.36,5.36,0,0,0,-2.474972566939781,-4.75437806583527 L-2.936721180174815,-5.641388899013491 A6.36,6.36,0,1,1,-2.936721180174815,-5.641388899013491 Z" fill="#7aa786" stroke="black" stroke-width="0.07" />
<path d="M-2.349669346789456,-4.817536088163535 A5.36,5.36,0,0,0,-2.349669346789456,-4.817536088163535 L-2.7880404935785332,-5.7163301344627016 A6.36,6.36,0,1,1,-2.7880404935785332,-5.7163301344627016 Z" fill="#7aa884" stroke="black" stroke-width="0.07" />
<path d="M-2.1801084068862884,-4.896603652964342 A5.36,5.36,0,0,0,-2.1801084068862884,-4.896603652964342 L-2.5868450499620885,-5.810149110606942 A6.36,6.36,0,1,1,-2.5868450499620885,-5.810149110606942 Z" fill="#79aa80" stroke="black" stroke-width="0.07" />
<path d="M-1.964446575242233,-4.987038164383652 A5.36,5.36,0,0,0,-1.964446575242233,-4.987038164383652 L-2.33094780196653,-5.917455732365677 A6.36,6.36,0,1,1,-2.33094780196653,-5.917455732365677 Z" fill="#79ad7c" stroke="black" stroke-width="0.07" />
<path d="M-1.8332279682255843,-5.03675244741247 A5.36,5.36,0,0,0,-1.8332279682255843,-5.03675244741247 L-2.175248111551253,-5.976445068198378 A6.36,6.36,0,1,1,-2.175248111551253,-5.976445068198378 Z" fill="#79af79" stroke="black" stroke-width="0.07" />
<path d="M-1.6563310898497179,-5.097662927342024 A5.36,5.36,0,0,0,-1.6563310898497179,-5.097662927342024 L-1.9653480842246651,-6.048719443637178 A6.36,6.36,0,1,1,-1.9653480842246651,-6.048719443637178 Z" fill="#79b176" stroke="black" stroke-width="0.07" />
<path d="M-1.160116330708231,-5.232946598162843 A5.36,5.36,0,0,0,-1.160116330708231,-5.232946598162843 L-1.3765559446463338,-6.2092426052827765 A6.36,6.36,0,1,1,-1.3765559446463338,-6.2092426052827765 Z" fill="#78b76d" stroke="black" stroke-width="0.07" />
<path d="M-1.0227362152182802,-5.261521703279479 A5.36,5.36,0,0,0,-1.0227362152182802,-5.261521703279479 L-1.213545210594825,-6.243148886727143 A6.36,6.36,0,1,1,-1.213545210594825,-6.243148886727143 Z" fill="#78b86a" stroke="black" stroke-width="0.07" />
<path d="M-0.7459678211459504,-5.3078368484548175 A5.36,5.36,0,0,0,-0.7459678211459504,-5.3078368484548175 L-0.8851409221060157,-6.298104917196388 A6.36,6.36,0,1,1,-0.8851409221060157,-6.298104917196388 Z" fill="#78bc65" stroke="black" stroke-width="0.07" />
<path d="M-0.60676922579598,-5.325545146426509 A5.36,5.36,0,0,0,-0.60676922579598,-5.325545146426509 L-0.7199724395638867,-6.319117002103097 A6.36,6.36,0,1,1,-0.7199724395638867,-6.319117002103097 Z" fill="#78bd62" stroke="black" stroke-width="0.07" />
<path d="M-0.42054075310124855,-5.343476908809566 A5.36,5.36,0,0,0,-0.42054075310124855,-5.343476908809566 L-0.49899984882909343,-6.340394242542694 A6.36,6.36,0,1,1,-0.49899984882909343,-6.340394242542694 Z" fill="#78bf5f" stroke="black" stroke-width="0.07" />
<path d="M-0.2805207254621778,-5.352654306284516 A5.36,5.36,0,0,0,-0.2805207254621778,-5.352654306284516 L-0.33285668170512145,-6.3512838410390895 A6.36,6.36,0,1,1,-0.33285668170512145,-6.3512838410390895 Z" fill="#7bc15c" stroke="black" stroke-width="0.07" />
<path d="M-0.09354489850383944,-5.359183646038257 A5.36,5.36,0,0,0,-0.09354489850383944,-5.359183646038257 L-0.11099730494112292,-6.359031341194648 A6.36,6.36,0,1,1,-0.11099730494112292,-6.359031341194648 Z" fill="#80c458" stroke="black" stroke-width="0.07" />
<path d="M0.046774230271284085,-5.359795907623958 A5.36,5.36,0,0,0,0.046774230271284085,-5.359795907623958 L0.055500765769657984,-6.35975783068813 A6.36,6.36,0,1,1,0.055500765769657984,-6.35975783068813 Z" fill="#84c556" stroke="black" stroke-width="0.07" />
<path d="M0.28052072546217965,-5.352654306284516 A5.36,5.36,0,0,0,0.28052072546217965,-5.352654306284516 L0.33285668170512367,-6.3512838410390895 A6.36,6.36,0,1,1,0.33285668170512367,-6.3512838410390895 Z" fill="#8bc851" stroke="black" stroke-width="0.07" />
<path d="M0.4205407531012492,-5.343476908809566 A5.36,5.36,0,0,0,0.4205407531012492,-5.343476908809566 L0.4989998488290942,-6.340394242542694 A6.36,6.36,0,1,1,0.4989998488290942,-6.340394242542694 Z" fill="#8fca4e" stroke="black" stroke-width="0.07" />
<path d="M0.6067692257959795,-5.325545146426509 A5.36,5.36,0,0,0,0.6067692257959795,-5.325545146426509 L0.7199724395638861,-6.319117002103097 A6.36,6.36,0,1,1,0.7199724395638861,-6.319117002103097 Z" fill="#94cd4b" stroke="black" stroke-width="0.07" />
<path d="M0.7459678211459522,-5.307836848454817 A5.36,5.36,0,0,0,0.7459678211459522,-5.307836848454817 L0.8851409221060178,-6.298104917196387 A6.36,6.36,0,1,1,0.8851409221060178,-6.298104917196387 Z" fill="#98cf48" stroke="black" stroke-width="0.07" />
<path d="M0.9307542322947471,-5.2785695561454355 A5.36,5.36,0,0,0,0.9307542322947471,-5.2785695561454355 L1.1044024099616776,-6.263377309157644 A6.36,6.36,0,1,1,1.1044024099616776,-6.263377309157644 Z" fill="#9dd144" stroke="black" stroke-width="0.07" />
<path d="M1.0686121284761783,-5.252396416767647 A5.36,5.36,0,0,0,1.0686121284761783,-5.252396416767647 L1.2679800628933755,-6.232321121388477 A6.36,6.36,0,1,1,1.2679800628933755,-6.232321121388477 Z" fill="#a1d341" stroke="black" stroke-width="0.07" />
<path d="M1.2512671502676533,-5.211902773331547 A5.36,5.36,0,0,0,1.2512671502676533,-5.211902773331547 L1.4847125141235589,-6.184272693729223 A6.36,6.36,0,1,1,1.4847125141235589,-6.184272693729223 Z" fill="#a6d53e" stroke="black" stroke-width="0.07" />
<path d="M1.522322247613025,-5.139273778893515 A5.36,5.36,0,0,0,1.522322247613025,-5.139273778893515 L1.8063375923169473,-6.098093513761708 A6.36,6.36,0,1,1,1.8063375923169473,-6.098093513761708 Z" fill="#aed938" stroke="black" stroke-width="0.07" />
<path d="M1.6563310898497183,-5.097662927342023 A5.36,5.36,0,0,0,1.6563310898497183,-5.097662927342023 L1.9653480842246658,-6.048719443637177 A6.36,6.36,0,1,1,1.9653480842246658,-6.048719443637177 Z" fill="#b2db35" stroke="black" stroke-width="0.07" />
<path d="M1.833227968225585,-5.036752447412469 A5.36,5.36,0,0,0,1.833227968225585,-5.036752447412469 L2.175248111551254,-5.976445068198378 A6.36,6.36,0,1,1,2.175248111551254,-5.976445068198378 Z" fill="#b7dd32" stroke="black" stroke-width="0.07" />
<path d="M1.9644465752422338,-4.987038164383652 A5.36,5.36,0,0,0,1.9644465752422338,-4.987038164383652 L2.330947801966531,-5.917455732365677 A6.36,6.36,0,1,1,2.330947801966531,-5.917455732365677 Z" fill="#bbdf2f" stroke="black" stroke-width="0.07" />
<path d="M2.13729500943932,-4.9154419987042655 A5.36,5.36,0,0,0,2.13729500943932,-4.9154419987042655 L2.5360440783645664,-5.8325020730893895 A6.36,6.36,0,1,1,2.5360440783645664,-5.8325020730893895 Z" fill="#c0e22b" stroke="black" stroke-width="0.07" />
<path d="M2.2652338829301493,-4.857809738516444 A5.36,5.36,0,0,0,2.2652338829301493,-4.857809738516444 L2.6878521446708485,-5.764117525553094 A6.36,6.36,0,1,1,2.6878521446708485,-5.764117525553094 Z" fill="#c4e328" stroke="black" stroke-width="0.07" />
<path d="M2.516367576532375,-4.732599097723848 A5.36,5.36,0,0,0,2.516367576532375,-4.732599097723848 L2.985839139318266,-5.615546690582775 A6.36,6.36,0,1,1,2.985839139318266,-5.615546690582775 Z" fill="#cce723" stroke="black" stroke-width="0.07" />
<path d="M2.7204056254693745,-4.618332299966578 A5.36,5.36,0,0,0,2.7204056254693745,-4.618332299966578 L3.227943988430079,-5.479961460408104 A6.36,6.36,0,1,1,3.227943988430079,-5.479961460408104 Z" fill="#d3ea1e" stroke="black" stroke-width="0.07" />
<path d="M2.8403672562899787,-4.5455377953984435 A5.36,5.36,0,0,0,2.8403672562899787,-4.5455377953984435 L3.3702865205231833,-5.39358589155487 A6.36,6.36,0,1,1,3.3702865205231833,-5.39358589155487 Z" fill="#d7ec1b" stroke="black" stroke-width="0.07" />
<path d="M2.997273962603203,-4.443641388895024 A5.36,5.36,0,0,0,2.997273962603203,-4.443641388895024 L3.55646686607395,-5.272678961450065 A6.36,6.36,0,1,1,3.55646686607395,-5.272678961450065 Z" fill="#dcee18" stroke="black" stroke-width="0.07" />
<path d="M3.112567842610638,-4.363659178389871 A5.36,5.36,0,0,0,3.112567842610638,-4.363659178389871 L3.693270798321578,-5.17777469674619 A6.36,6.36,0,1,1,3.693270798321578,-5.17777469674619 Z" fill="#e0f015" stroke="black" stroke-width="0.07" />
<path d="M3.445341587919851,-4.105998215117722 A5.36,5.36,0,0,0,3.445341587919851,-4.105998215117722 L4.08812919760639,-4.8720426582367 A6.36,6.36,0,1,1,4.08812919760639,-4.8720426582367 Z" fill="#ecf60d" stroke="black" stroke-width="0.07" />
<path d="M3.551643458436353,-4.014402663429052 A5.36,5.36,0,0,0,3.551643458436353,-4.014402663429052 L4.214263506652091,-4.763358384218053 A6.36,6.36,0,1,1,4.214263506652091,-4.763358384218053 Z" fill="#f0f80a" stroke="black" stroke-width="0.07" />
<path d="M3.756873656647201,-3.8230224074664134 A5.36,5.36,0,0,0,3.756873656647201,-3.8230224074664134 L4.457782920947052,-4.536272856620595 A6.36,6.36,0,1,1,4.457782920947052,-4.536272856620595 Z" fill="#f8fb04" stroke="black" stroke-width="0.07" />
<path d="M3.8556613298151707,-3.7233688656602255 A5.36,5.36,0,0,0,3.8556613298151707,-3.7233688656602255 L4.575001130153821,-4.418027236119222 A6.36,6.36,0,1,1,4.575001130153821,-4.418027236119222 Z" fill="#fcfd02" stroke="black" stroke-width="0.07" />
<path d="M3.9832562645588334,-3.5865400500834803 A5.36,5.36,0,0,0,3.9832562645588334,-3.5865400500834803 L4.726401090036227,-4.255670656442339 A6.36,6.36,0,1,1,4.726401090036227,-4.255670656442339 Z" fill="#fefd00" stroke="black" stroke-width="0.07" />
<path d="M4.075775975616166,-3.4810415390497846 A5.36,5.36,0,0,0,4.075775975616166,-3.4810415390497846 L4.836181941216197,-4.1304895873799685 A6.36,6.36,0,1,1,4.836181941216197,-4.1304895873799685 Z" fill="#fdfa00" stroke="black" stroke-width="0.07" />
<path d="M4.194779720728939,-3.3366784523776407 A5.36,5.36,0,0,0,4.194779720728939,-3.3366784523776407 L4.977387877581353,-3.9591930890152605 A6.36,6.36,0,1,1,4.977387877581353,-3.9591930890152605 Z" fill="#fcf700" stroke="black" stroke-width="0.07" />
<path d="M4.417316371014004,-3.0359374299171042 A5.36,5.36,0,0,0,4.363659178389871,-3.1125678426106376 L5.177774696746191,-3.6932707983215773 A6.36,6.36,0,0,1,5.24144255963602,-3.602343666841937 Z" fill="#faf100" stroke="black" stroke-width="0.07" />
<path d="M4.594416731763323,-2.7606040815178905 A5.36,5.36,0,0,0,4.594416731763323,-2.7606040815178905 L5.451584032465434,-3.2756421564279448 A6.36,6.36,0,1,1,5.451584032465434,-3.2756421564279448 Z" fill="#f8ea00" stroke="black" stroke-width="0.07" />
<path d="M4.665106530237862,-2.6393902821545834 A5.36,5.36,0,0,0,4.665106530237862,-2.6393902821545834 L5.535462226177763,-3.1318138422580506 A6.36,6.36,0,1,1,5.535462226177763,-3.1318138422580506 Z" fill="#f7e700" stroke="black" stroke-width="0.07" />
<path d="M4.754378065835269,-2.474972566939782 A5.36,5.36,0,0,0,4.754378065835269,-2.474972566939782 L5.64138889901349,-2.936721180174816 A6.36,6.36,0,1,1,5.64138889901349,-2.936721180174816 Z" fill="#f6e400" stroke="black" stroke-width="0.07" />
<path d="M4.817536088163536,-2.349669346789455 A5.36,5.36,0,0,0,4.817536088163536,-2.349669346789455 L5.716330134462702,-2.7880404935785323 A6.36,6.36,0,1,1,5.716330134462702,-2.7880404935785323 Z" fill="#f5e100" stroke="black" stroke-width="0.07" />
<path d="M4.933906014505081,-2.0943188487025073 A5.36,5.36,0,0,0,4.933906014505081,-2.0943188487025073 L5.854410867957521,-2.485049977191781 A6.36,6.36,0,1,1,5.854410867957521,-2.485049977191781 Z" fill="#f3dc00" stroke="black" stroke-width="0.07" />
<path d="M5.020562934371412,-1.8771115635507452 A5.36,5.36,0,0,0,5.020562934371412,-1.8771115635507452 L5.957235123619809,-2.2273189448102126 A6.36,6.36,0,1,1,5.957235123619809,-2.2273189448102126 Z" fill="#f1d700" stroke="black" stroke-width="0.07" />
<path d="M5.0679795652123385,-1.7450453078903596 A5.36,5.36,0,0,0,5.0679795652123385,-1.7450453078903596 L6.013498140811655,-2.0706134623475165 A6.36,6.36,0,1,1,6.013498140811655,-2.0706134623475165 Z" fill="#f1d500" stroke="black" stroke-width="0.07" />
<path d="M5.12579349196187,-1.5671123373138691 A5.36,5.36,0,0,0,5.12579349196187,-1.5671123373138691 L6.082098247924906,-1.8594840420366059 A6.36,6.36,0,1,1,6.082098247924906,-1.8594840420366059 Z" fill="#efd100" stroke="black" stroke-width="0.07" />
<path d="M5.165059229198219,-1.4323976957794569 A5.36,5.36,0,0,0,5.165059229198219,-1.4323976957794569 L6.128689682406843,-1.6996360718577137 A6.36,6.36,0,1,1,6.128689682406843,-1.6996360718577137 Z" fill="#efcf00" stroke="black" stroke-width="0.07" />
<path d="M5.232946598162843,-1.1601163307082314 A5.36,5.36,0,0,0,5.232946598162843,-1.1601163307082314 L6.2092426052827765,-1.3765559446463345 A6.36,6.36,0,1,1,6.2092426052827765,-1.3765559446463345 Z" fill="#edc900" stroke="black" stroke-width="0.07" />
<path d="M5.261521703279479,-1.0227362152182802 A5.36,5.36,0,0,0,5.261521703279479,-1.0227362152182802 L6.243148886727143,-1.213545210594825 A6.36,6.36,0,1,1,6.243148886727143,-1.213545210594825 Z" fill="#ecc700" stroke="black" stroke-width="0.07" />
<path d="M5.294009505589939,-0.8384887326156375 A5.36,5.36,0,0,0,5.294009505589939,-0.8384887326156375 L6.281697846185076,-0.9949231976558683 A6.36,6.36,0,1,1,6.281697846185076,-0.9949231976558683 Z" fill="#ebc300" stroke="black" stroke-width="0.07" />
<path d="M5.314144456963624,-0.6996203902994764 A5.36,5.36,0,0,0,5.314144456963624,-0.6996203902994764 L6.305589318337434,-0.830146582519528 A6.36,6.36,0,1,1,6.305589318337434,-0.830146582519528 Z" fill="#eac100" stroke="black" stroke-width="0.07" />
<path d="M5.335323623248079,-0.5137332335084006 A5.36,5.36,0,0,0,5.335323623248079,-0.5137332335084006 L6.330719821615258,-0.6095789860286246 A6.36,6.36,0,1,1,6.330719821615258,-0.6095789860286246 Z" fill="#e9bd00" stroke="black" stroke-width="0.07" />
<path d="M5.350002519541207,-0.32722017190683284 A5.36,5.36,0,0,0,5.350002519541207,-0.32722017190683284 L6.348137317963074,-0.38826871144168973 A6.36,6.36,0,1,1,6.348137317963074,-0.38826871144168973 Z" fill="#e8ba00" stroke="black" stroke-width="0.07" />
<path d="M5.359183646038257,-0.09354489850383962 A5.36,5.36,0,0,0,5.359183646038257,-0.09354489850383962 L6.359031341194648,-0.11099730494112314 A6.36,6.36,0,1,1,6.359031341194648,-0.11099730494112314 Z" fill="#e6b500" stroke="black" stroke-width="0.07" />
<path d="M5.359795907623958,0.046774230271284294 A5.36,5.36,0,0,0,5.359795907623958,0.046774230271284294 L6.35975783068813,0.05550076576965823 A6.36,6.36,0,1,1,6.35975783068813,0.05550076576965823 Z" fill="#e5b300" stroke="black" stroke-width="0.07" />
<path d="M5.354898467678758,0.233799916278201 A5.36,5.36,0,0,0,5.354898467678758,0.233799916278201 L6.353946689260616,0.27741930364353695 A6.36,6.36,0,1,1,6.353946689260616,0.27741930364353695 Z" fill="#e4af00" stroke="black" stroke-width="0.07" />
<path d="M5.346943309392658,0.37389469926851165 A5.36,5.36,0,0,0,5.346943309392658,0.37389469926851165 L6.344507359652482,0.44365117301263696 A6.36,6.36,0,1,1,6.344507359652482,0.44365117301263696 Z" fill="#e3ad00" stroke="black" stroke-width="0.07" />
<path d="M5.330637359173945,0.5602725631146226 A5.36,5.36,0,0,0,5.330637359173945,0.5602725631146226 L6.325159254542219,0.664801026382276 A6.36,6.36,0,1,1,6.325159254542219,0.664801026382276 Z" fill="#e2a900" stroke="black" stroke-width="0.07" />
<path d="M5.301125027619874,0.792258443654713 A5.36,5.36,0,0,0,5.301125027619874,0.792258443654713 L6.2901408909817915,0.9400678547843236 A6.36,6.36,0,1,1,6.2901408909817915,0.9400678547843236 Z" fill="#e1a500" stroke="black" stroke-width="0.07" />
<path d="M5.2785695561454355,0.9307542322947466 A5.36,5.36,0,0,0,5.2785695561454355,0.9307542322947466 L6.263377309157644,1.104402409961677 A6.36,6.36,0,1,1,6.263377309157644,1.104402409961677 Z" fill="#e1a000" stroke="black" stroke-width="0.07" />
<path d="M5.242871139933198,1.11440666278319 A5.36,5.36,0,0,0,5.242871139933198,1.11440666278319 L6.221018740667004,1.3223183536009493 A6.36,6.36,0,1,1,6.221018740667004,1.3223183536009493 Z" fill="#e39a00" stroke="black" stroke-width="0.07" />
<path d="M5.189271352426657,1.3420368217318062 A5.36,5.36,0,0,0,5.189271352426657,1.3420368217318062 L6.157418992804765,1.5924168257862477 A6.36,6.36,0,1,1,6.157418992804765,1.5924168257862477 Z" fill="#e49100" stroke="black" stroke-width="0.07" />
<path d="M5.12579349196187,1.5671123373138691 A5.36,5.36,0,0,0,5.12579349196187,1.5671123373138691 L6.082098247924906,1.8594840420366059 A6.36,6.36,0,1,1,6.082098247924906,1.8594840420366059 Z" fill="#e58900" stroke="black" stroke-width="0.07" />
<path d="M5.083014791905229,1.700752958331294 A5.36,5.36,0,0,0,5.083014791905229,1.700752958331294 L6.031338447111428,2.018057614736386 A6.36,6.36,0,1,1,6.031338447111428,2.018057614736386 Z" fill="#e68500" stroke="black" stroke-width="0.07" />
<path d="M4.796848178186855,2.3916202782685754 A5.36,5.36,0,0,0,4.796848178186855,2.3916202782685754 L5.69178253978888,2.837818091378384 A6.36,6.36,0,1,1,5.69178253978888,2.837818091378384 Z" fill="#eb6b00" stroke="black" stroke-width="0.07" />
<path d="M4.641896164284592,2.6799999999999997 A5.36,5.36,0,0,0,4.641896164284592,2.6799999999999997 L5.5079215680690305,3.1799999999999997 A6.36,6.36,0,1,1,5.5079215680690305,3.1799999999999997 Z" fill="#ed6000" stroke="black" stroke-width="0.07" />
</svg>