<?xml version="1.0" encoding="UTF-8"?>
<svg xmlns="http://www.w3.org/2000/svg" xmlns:xlink="http://www.w3.org/1999/xlink"
     width="600" height="600.0" viewBox="-7.0 -7.0 14 14">
<defs>
</defs>
<path d="M0.6427876096865393,0.7660444431189781 A1.0,1.0,0,1,0,0.615661475325659,0.7880107536067213 L1.231322950651318,1.5760215072134427 A2.0,2.0,0,1,1,1.2855752193730785,1.5320888862379562 Z" fill="red" stroke="black" stroke-width="0.07" />
<path d="M-0.1783417967009059,-2.0823770560466452 A2.09,2.09,0,0,0,-2.085612901959094,-0.13534704718525128 L-3.0835138119873684,-0.20010639990546722 A3.09,3.09,0,0,1,-0.263672799907081,-3.078729714442169 Z" fill="#9bd045" stroke="black" stroke-width="0.07" />
<path d="M-2.9936323616045617,-1.0726440619114506 A3.18,3.18,0,0,0,-3.1733248938899137,-0.2059347416502867 L-4.171225803918188,-0.27069409437050257 A4.18,4.18,0,0,1,-3.9350261860085114,-1.409953515342724 Z" fill="#79ab7f" stroke="black" stroke-width="0.07" />
<path d="M-2.5981036521378034,-1.8336459344017884 A3.18,3.18,0,0,0,-2.9645279704004732,-1.1506406531638147 L-3.896769470526408,-1.512477336548662 A4.18,4.18,0,0,1,-3.415117379225163,-2.4102641527671302 Z" fill="#78bd63" stroke="black" stroke-width="0.07" />
<path d="M-2.098261699074822,-2.3894974036804566 A3.18,3.18,0,0,0,-2.5492140920655246,-1.9010280147369063 L-3.3508537436584565,-2.4988355665409645 A4.18,4.18,0,0,1,-2.7580924220543253,-3.1409116815673923 Z" fill="#97ce48" stroke="black" stroke-width="0.07" />
<path d="M-1.5797493140160668,-2.7598536383050765 A3.18,3.18,0,0,0,-2.0349929271778633,-2.4436046706323165 L-2.6749278099381977,-3.2120338123405916 A4.18,4.18,0,0,1,-2.076525827857597,-3.627732140916735 Z" fill="#b8de31" stroke="black" stroke-width="0.07" />
<path d="M-1.0503528876691473,-3.001526080407279 A3.18,3.18,0,0,0,-1.5069634273540649,-2.8002609215245085 L-1.980851297591192,-3.680846116972467 A4.18,4.18,0,0,1,-1.3806525378795709,-3.9454022063215173 Z" fill="#d5eb1d" stroke="black" stroke-width="0.07" />
<path d="M-0.5405532361415281,-3.133720185162824 A3.18,3.18,0,0,0,-0.9714221649161369,-3.0279925656298508 L-1.2769008331287584,-3.9801914856392373 A4.18,4.18,0,0,1,-0.7105385305256563,-4.11916678427063 Z" fill="#eff70a" stroke="black" stroke-width="0.07" />
<path d="M-4.240725216742513,-0.49914891173293024 A4.2700000000000005,4.2700000000000005,0,0,0,-4.261036885820733,-0.27652243611532207 L-5.258937795849008,-0.341281788835538 A5.2700000000000005,5.2700000000000005,0,0,1,-5.233869295604928,-0.6160456123729607 Z" fill="#7aa48a" stroke="black" stroke-width="0.07" />
<path d="M-4.202343097304108,-0.7571079794458095 A4.2700000000000005,4.2700000000000005,0,0,0,-4.226205830864847,-0.6099871106539634 L-5.215949585165748,-0.7528412349288962 A5.2700000000000005,5.2700000000000005,0,0,1,-5.186498389412798,-0.9344166397375682 Z" fill="#7aa983" stroke="black" stroke-width="0.07" />
<path d="M-4.1482845439118075,-1.0122427291625335 A4.2700000000000005,4.2700000000000005,0,0,0,-4.181084282839091,-0.8668530554805267 L-5.160260929874007,-1.0698631387312356 A5.2700000000000005,5.2700000000000005,0,0,1,-5.119779753258835,-1.2493019163200356 Z" fill="#79ac7d" stroke="black" stroke-width="0.07" />
<path d="M-4.078751216763807,-1.2636014054074824 A4.2700000000000005,4.2700000000000005,0,0,0,-4.120365604808018,-1.120485288932905 L-5.085322420922308,-1.382894021704077 A5.2700000000000005,5.2700000000000005,0,0,1,-5.033962274553926,-1.5595267930907335 Z" fill="#79b077" stroke="black" stroke-width="0.07" />
<path d="M-3.924325077741501,-1.6830248614352565 A4.2700000000000005,4.2700000000000005,0,0,0,-3.980671205537743,-1.5450426380532984 L-4.912912705663678,-1.9068793214381459 A5.2700000000000005,5.2700000000000005,0,0,1,-4.8433707633952485,-2.0771758828486653 Z" fill="#78b66d" stroke="black" stroke-width="0.07" />
<path d="M-3.814259210621914,-1.9194599954638016 A4.2700000000000005,4.2700000000000005,0,0,0,-3.8789238547509086,-1.7851749855530565 L-4.787336935488826,-2.2032487526615006 A5.2700000000000005,5.2700000000000005,0,0,1,-4.707528346598943,-2.36898224264502 Z" fill="#78ba67" stroke="black" stroke-width="0.07" />
<path d="M-3.689964618904205,-2.1487347698669437 A4.2700000000000005,4.2700000000000005,0,0,0,-3.7627065541733966,-2.0186479106522186 L-4.643902468499719,-2.4913991777838858 A5.2700000000000005,5.2700000000000005,0,0,1,-4.554124951200272,-2.651951343606275 Z" fill="#78be61" stroke="black" stroke-width="0.07" />
<path d="M-3.5519049715256266,-2.3699938973025945 A4.2700000000000005,4.2700000000000005,0,0,0,-3.632452841190092,-2.2445904652140958 L-4.483144373084727,-2.77025567954995 A5.2700000000000005,5.2700000000000005,0,0,1,-4.383732833709614,-2.9250275969050756 Z" fill="#7dc25b" stroke="black" stroke-width="0.07" />
<path d="M-3.331830322332716,-2.670544270965054 A4.2700000000000005,4.2700000000000005,0,0,0,-3.423001312301821,-2.55263824620333 L-4.224640963894753,-3.1504457980073886 A5.2700000000000005,5.2700000000000005,0,0,1,-4.112118454026561,-3.2959644749381347 Z" fill="#8ac852" stroke="black" stroke-width="0.07" />
<path d="M-3.162582959651835,-2.868966542732739 A4.2700000000000005,4.2700000000000005,0,0,0,-3.2607818879606327,-2.756846292260034 L-4.024431042049773,-3.4024777424380277 A5.2700000000000005,5.2700000000000005,0,0,1,-3.903234706642897,-3.5408556628106638 Z" fill="#93cc4b" stroke="black" stroke-width="0.07" />
<path d="M-2.9815378875163137,-3.056686412654193 A4.2700000000000005,4.2700000000000005,0,0,0,-3.086398432572701,-2.95077019020675 L-3.8092083699433568,-3.6418170731591504 A5.2700000000000005,5.2700000000000005,0,0,1,-3.6797903201899236,-3.772538031542763 Z" fill="#9cd145" stroke="black" stroke-width="0.07" />
<path d="M-2.616345406276488,-3.3745572620798607 A4.2700000000000005,4.2700000000000005,0,0,0,-2.732521949386628,-3.281192435094337 L-3.3724568321469626,-4.049621576802613 A5.2700000000000005,5.2700000000000005,0,0,1,-3.229072667699553,-4.164851702847978 Z" fill="#add939" stroke="black" stroke-width="0.07" />
<path d="M-2.40545360226904,-3.5279870985210393 A4.2700000000000005,4.2700000000000005,0,0,0,-2.5271132390390196,-3.441888824043234 L-3.1189430374088136,-4.24795178049364 A5.2700000000000005,5.2700000000000005,0,0,1,-2.9687916824257234,-4.354213585294117 Z" fill="#b6dd32" stroke="black" stroke-width="0.07" />
<path d="M-2.1855884865514343,-3.668256120754631 A4.2700000000000005,4.2700000000000005,0,0,0,-2.3122773774882575,-3.5897455800594047 L-2.8537943277196995,-4.43043541145505 A5.2700000000000005,5.2700000000000005,0,0,1,-2.697435907289475,-4.527332495638619 Z" fill="#c0e12c" stroke="black" stroke-width="0.07" />
<path d="M-1.891042988518138,-3.8284274076409486 A4.2700000000000005,4.2700000000000005,0,0,0,-2.0235012059125337,-3.760098784562784 L-2.4973890761496613,-4.640683980010743 A5.2700000000000005,5.2700000000000005,0,0,1,-2.333910198943931,-4.725014622545152 Z" fill="#cbe723" stroke="black" stroke-width="0.07" />
<path d="M-1.6537959101999384,-3.9367320314451124 A4.2700000000000005,4.2700000000000005,0,0,0,-1.7901784289655642,-3.876617235743863 L-2.209423962681153,-4.784490124676852 A5.2700000000000005,5.2700000000000005,0,0,1,-2.0411017439704158,-4.858683326865513 Z" fill="#d5eb1d" stroke="black" stroke-width="0.07" />
<path d="M-1.2332356936208355,-4.088034946521317 A4.2700000000000005,4.2700000000000005,0,0,0,-1.3043939132678946,-4.065889388440083 L-1.6098725814805162,-5.01808830844947 A5.2700000000000005,5.2700000000000005,0,0,1,-1.522049673391523,-5.045420179898674 Z" fill="#e6f311" stroke="black" stroke-width="0.07" />
<path d="M-0.981366897406302,-4.15569717528541 A4.2700000000000005,4.2700000000000005,0,0,0,-1.1258008150735141,-4.118916426049431 L-1.3894544017417845,-5.083533856037588 A5.2700000000000005,5.2700000000000005,0,0,1,-1.2111952106162087,-5.128928363876841 Z" fill="#eef70b" stroke="black" stroke-width="0.07" />
</svg>