<?xml version="1.0" encoding="UTF-8"?>
<svg xmlns="http://www.w3.org/2000/svg" xmlns:xlink="http://www.w3.org/1999/xlink"
     width="600" height="600.0" viewBox="-7.0 -7.0 14 14">
<defs>
</defs>
<path d="M0.6427876096865393,0.7660444431189781 A1.0,1.0,0,1,0,0.615661475325659,0.7880107536067213 L1.231322950651318,1.5760215072134427 A2.0,2.0,0,1,1,1.2855752193730785,1.5320888862379562 Z" fill="red" stroke="black" stroke-width="0.07" />
<path d="M1.0598621642888255,-1.8013306727830418 A2.09,2.09,0,0,0,-1.198126454209391,-1.712481532666449 L-1.7713927002425927,-2.53185068705231 A3.09,3.09,0,0,1,1.566973247680608,-2.6632113774639232 Z" fill="#fbf500" stroke="black" stroke-width="0.07" />
<path d="M-0.9285905454584426,-3.0414009270211633 A3.18,3.18,0,0,0,-1.822986662385581,-2.6055939109470376 L-2.396252908418782,-3.424963065332898 A4.18,4.18,0,0,1,-1.2206001509485187,-3.997816312876875 Z" fill="#cfe821" stroke="black" stroke-width="0.07" />
<path d="M0.02895435386467727,-3.1798681805056446 A3.18,3.18,0,0,0,-0.8486577458204302,-3.0646663815918016 L-1.115531250795408,-4.028397948130103 A4.18,4.18,0,0,1,0.03805949658941855,-4.179826727834463 Z" fill="#fefe00" stroke="black" stroke-width="0.07" />
<path d="M0.8776841058382319,-3.0564801014171423 A3.18,3.18,0,0,0,0.11218367691770706,-3.178020582474762 L0.14746156274088537,-4.177398124133491 A4.18,4.18,0,0,1,1.1536853969823297,-4.0176373660137275 Z" fill="#f5e100" stroke="black" stroke-width="0.07" />
<path d="M1.6126132451858686,-2.7407806408852027 A3.18,3.18,0,0,0,0.9573926670346505,-3.0324576305545112 L1.2584595434606412,-3.986060659030772 A4.18,4.18,0,0,1,2.119724328577651,-3.6026613455660836 Z" fill="#ecc700" stroke="black" stroke-width="0.07" />
<path d="M-2.1978266252105243,-3.6609367825074117 A4.2700000000000005,4.2700000000000005,0,0,0,-2.447846870561771,-3.498706289227626 L-3.0211131165949725,-4.318075443613488 A5.2700000000000005,5.2700000000000005,0,0,1,-2.7125401205759867,-4.518299026654346 Z" fill="#bde02e" stroke="black" stroke-width="0.07" />
<path d="M-1.903817669740217,-3.8220908257634245 A4.2700000000000005,4.2700000000000005,0,0,0,-2.1012413320039207,-3.7172146648637865 L-2.593335320763621,-4.5877567409442985 A5.2700000000000005,5.2700000000000005,0,0,1,-2.349676608789448,-4.71719406364713 Z" fill="#cae625" stroke="black" stroke-width="0.07" />
<path d="M-1.666933603135707,-3.9311871442017376 A4.2700000000000005,4.2700000000000005,0,0,0,-1.8031146049996982,-3.8706172274246886 L-2.225389688137801,-4.777084962184569 A5.2700000000000005,5.2700000000000005,0,0,1,-2.0573161799824766,-4.851839871181067 Z" fill="#d4eb1d" stroke="black" stroke-width="0.07" />
<path d="M-1.4238312021567736,-4.025618549709448 A4.2700000000000005,4.2700000000000005,0,0,0,-1.563455903960164,-3.9734752593129494 L-1.9296048276042306,-4.904031526130971 A5.2700000000000005,5.2700000000000005,0,0,1,-1.7572811324042614,-4.968386359945853 Z" fill="#ddef17" stroke="black" stroke-width="0.07" />
<path d="M-0.8497167579283523,-4.184600510358872 A4.2700000000000005,4.2700000000000005,0,0,0,-1.1395498662431562,-4.115133789118552 L-1.4064233712181344,-5.078865355656854 A5.2700000000000005,5.2700000000000005,0,0,1,-1.0487136567406128,-5.164600629880857 Z" fill="#f0f80a" stroke="black" stroke-width="0.07" />
<path d="M-0.5187773927172552,-4.238368791977108 A4.2700000000000005,4.2700000000000005,0,0,0,-0.7398855099687965,-4.205409543925326 L-0.9131608050434561,-5.190282973416035 A5.2700000000000005,5.2700000000000005,0,0,1,-0.6402709273114602,-5.230961014922567 Z" fill="#fdfe01" stroke="black" stroke-width="0.07" />
<path d="M-0.25906354354534045,-4.262133981986692 A4.2700000000000005,4.2700000000000005,0,0,0,-0.40765205988423836,-4.250496417840173 L-0.5031209263676665,-5.245928834196185 A5.2700000000000005,5.2700000000000005,0,0,1,-0.31973416264260984,-5.260291823201374 Z" fill="#fdf900" stroke="black" stroke-width="0.07" />
<path d="M0.001616717087087527,-4.269999693937444 A4.2700000000000005,4.2700000000000005,0,0,0,-0.14740510801152892,-4.267454948108077 L-0.1819262105903413,-5.2668589172200395 A5.2700000000000005,5.2700000000000005,0,0,1,0.001995339355726292,-5.2699996222600305 Z" fill="#faf200" stroke="black" stroke-width="0.07" />
<path d="M0.29947290038309005,-4.2594854128094095 A4.2700000000000005,4.2700000000000005,0,0,0,0.15063657246497145,-4.267342102882778 L0.18591445828814976,-5.266719644541507 A5.2700000000000005,5.2700000000000005,0,0,1,0.36960706909107366,-5.257022980212081 Z" fill="#f8eb00" stroke="black" stroke-width="0.07" />
<path d="M0.5589496866787297,-4.233258230696747 A4.2700000000000005,4.2700000000000005,0,0,0,0.4108706079688827,-4.250186506908524 L0.5070932327859512,-5.24554634459202 A5.2700000000000005,5.2700000000000005,0,0,1,0.6898512526456453,-5.224653600883339 Z" fill="#f6e500" stroke="black" stroke-width="0.07" />
<path d="M0.816341365298987,-4.191239288719005 A4.2700000000000005,4.2700000000000005,0,0,0,0.6695719304600108,-4.21717600177418 L0.826380345087648,-5.2048050420023255 A5.2700000000000005,5.2700000000000005,0,0,1,1.007522012909991,-5.172794157271465 Z" fill="#f4df00" stroke="black" stroke-width="0.07" />
<path d="M1.0706877615135437,-4.1335853344699585 A4.2700000000000005,4.2700000000000005,0,0,0,0.9257754797084038,-4.168433729972288 L1.1425847255417536,-5.144647718256196 A5.2700000000000005,5.2700000000000005,0,0,1,1.3214343098773713,-5.101638106008591 Z" fill="#f2d900" stroke="black" stroke-width="0.07" />
<path d="M1.4268791713680682,-4.024539207203227 A4.2700000000000005,4.2700000000000005,0,0,0,1.2855555623389805,-4.071884931593637 L1.5866224387649712,-5.025487960069897 A5.2700000000000005,5.2700000000000005,0,0,1,1.7610429117352973,-4.96705424401897 Z" fill="#efd000" stroke="black" stroke-width="0.07" />
<path d="M1.669909994986355,-3.929923740817966 A4.2700000000000005,4.2700000000000005,0,0,0,1.53174037030311,-3.9858087558215454 L1.8904617685005598,-4.919253429316052 A5.2700000000000005,5.2700000000000005,0,0,1,2.060989619104939,-4.8502805887847025 Z" fill="#edca00" stroke="black" stroke-width="0.07" />
<path d="M1.9067113810886642,-3.8206480745060727 A4.2700000000000005,4.2700000000000005,0,0,0,1.7722111691552809,-3.8848639064864647 L2.1872489136881335,-4.794668100043014 A5.2700000000000005,5.2700000000000005,0,0,1,2.3532480042944406,-4.715413431533256 Z" fill="#ebc400" stroke="black" stroke-width="0.07" />
</svg>