<?xml version="1.0" encoding="UTF-8"?>
<svg xmlns="http://www.w3.org/2000/svg" xmlns:xlink="http://www.w3.org/1999/xlink"
     width="600" height="600.0" viewBox="-7.0 -7.0 14 14">
<defs>
</defs>
<path d="M0.6427876096865393,0.7660444431189781 A1.0,1.0,0,1,0,0.615661475325659,0.7880107536067213 L1.231322950651318,1.5760215072134427 A2.0,2.0,0,1,1,1.2855752193730785,1.5320888862379562 Z" fill="red" stroke="black" stroke-width="0.07" />
<path d="M0.947663677044946,-1.862802607688118 A2.09,2.09,0,0,0,-1.4956601772898221,-1.4598289742532777 L-2.2112870563758618,-2.158311737053889 A3.09,3.09,0,0,1,1.401091273717169,-2.75409572141449 Z" fill="#fbfd02" stroke="black" stroke-width="0.07" />
<path d="M-0.9476636770449466,1.8628026076881175 A2.09,2.09,0,0,0,1.495660177289822,1.459828974253278 L2.2112870563758613,2.1583117370538893 A3.09,3.09,0,0,1,-1.40109127371717,2.7540957214144894 Z" fill="#ce3244" stroke="black" stroke-width="0.07" />
<path d="M-1.3787657107254137,-2.865554940134257 A3.18,3.18,0,0,0,-2.2756934754936053,-2.2211751857059445 L-2.9913203545796443,-2.9196579485065555 A4.18,4.18,0,0,1,-1.8123398335950405,-3.7666728458368532 Z" fill="#b5dc33" stroke="black" stroke-width="0.07" />
<path d="M1.3787657107254134,2.865554940134257 A3.18,3.18,0,0,0,2.275693475493605,2.2211751857059445 L2.991320354579644,2.919657948506556 A4.18,4.18,0,0,1,1.81233983359504,3.7666728458368532 Z" fill="#ff0000" stroke="black" stroke-width="0.07" />
<path d="M-0.34313987089693715,-3.1614324330911825 A3.18,3.18,0,0,0,-1.303281758610524,-2.9006648647634323 L-1.7131187896201225,-3.8128236272676554 A4.18,4.18,0,0,1,-0.45104549067584815,-4.155593575572686 Z" fill="#ebf60d" stroke="black" stroke-width="0.07" />
<path d="M0.3431398708969374,3.1614324330911825 A3.18,3.18,0,0,0,1.3032817586105243,2.9006648647634323 L1.713118789620123,3.8128236272676554 A4.18,4.18,0,0,1,0.45104549067584854,4.155593575572686 Z" fill="#da2634" stroke="black" stroke-width="0.07" />
<path d="M0.6234027560194559,-3.1182958493041273 A3.18,3.18,0,0,0,-0.2602656320534297,-3.1693314438177382 L-0.3421101704350113,-4.165976551936524 A4.18,4.18,0,0,1,0.8194413585412973,-4.098892028330582 Z" fill="#f8eb00" stroke="black" stroke-width="0.07" />
<path d="M-0.6234027560194576,3.118295849304127 A3.18,3.18,0,0,0,0.2602656320534286,3.1693314438177382 L0.34211017043500985,4.165976551936524 A4.18,4.18,0,0,1,-0.8194413585412996,4.098892028330582 Z" fill="#b54c68" stroke="black" stroke-width="0.07" />
<path d="M1.441899757417669,-2.834312101649864 A3.18,3.18,0,0,0,0.7048166007206885,-3.1009085054784404 L0.9264570411988924,-4.076036966320717 A4.18,4.18,0,0,1,1.895327354089892,-3.725605215376236 Z" fill="#eece00" stroke="black" stroke-width="0.07" />
<path d="M-1.44189975741767,2.8343121016498634 A3.18,3.18,0,0,0,-0.7048166007206883,3.1009085054784404 L-0.926457041198892,4.076036966320717 A4.18,4.18,0,0,1,-1.8953273540898932,3.725605215376235 Z" fill="#966c93" stroke="black" stroke-width="0.07" />
<path d="M-2.7272288043972206,-3.285593256699025 A4.2700000000000005,4.2700000000000005,0,0,0,-3.0557267736973883,-2.982521397158611 L-3.7713536527834277,-3.6810041599592225 A5.2700000000000005,5.2700000000000005,0,0,1,-3.365924074747858,-4.055053035785448 Z" fill="#a3d440" stroke="black" stroke-width="0.07" />
<path d="M2.7272288043972224,3.2855932566990247 A4.2700000000000005,4.2700000000000005,0,0,0,3.055726773697388,2.9825213971586115 L3.7713536527834273,3.681004159959223 A5.2700000000000005,5.2700000000000005,0,0,1,3.3659240747478596,4.0550530357854475 Z" fill="#ff0000" stroke="black" stroke-width="0.07" />
<path d="M-2.3377580682470964,-3.573204054395104 A4.2700000000000005,4.2700000000000005,0,0,0,-2.640287446358707,-3.3558578933859255 L-3.258621742929833,-4.141773090900194 A5.2700000000000005,5.2700000000000005,0,0,1,-2.8852423933635123,-4.410019992192552 Z" fill="#b5dc33" stroke="black" stroke-width="0.07" />
<path d="M2.3377580682470964,3.573204054395104 A4.2700000000000005,4.2700000000000005,0,0,0,2.640287446358707,3.3558578933859255 L3.258621742929833,4.141773090900194 A5.2700000000000005,5.2700000000000005,0,0,1,2.8852423933635123,4.410019992192552 Z" fill="#ff0000" stroke="black" stroke-width="0.07" />
<path d="M-1.984519062333545,-3.780817912996445 A4.2700000000000005,4.2700000000000005,0,0,0,-2.2434213991185348,-3.633174978717243 L-2.7688128274835315,-4.484035629470696 A5.2700000000000005,5.2700000000000005,0,0,1,-2.4492776249409323,-4.666255363346901 Z" fill="#c5e428" stroke="black" stroke-width="0.07" />
<path d="M1.9845190623335445,3.780817912996445 A4.2700000000000005,4.2700000000000005,0,0,0,2.2434213991185343,3.633174978717243 L2.7688128274835306,4.484035629470696 A5.2700000000000005,5.2700000000000005,0,0,1,2.449277624940932,4.666255363346901 Z" fill="#f7080b" stroke="black" stroke-width="0.07" />
<path d="M-1.5437615489658347,-3.9811682054309903 A4.2700000000000005,4.2700000000000005,0,0,0,-1.7500041224109868,-3.8949179158930365 L-2.1598411534205857,-4.8070766783972605 A5.2700000000000005,5.2700000000000005,0,0,1,-1.9052982114871075,-4.913526098974548 Z" fill="#d8ec1b" stroke="black" stroke-width="0.07" />
<path d="M1.5437615489658334,3.9811682054309907 A4.2700000000000005,4.2700000000000005,0,0,0,1.7500041224109872,3.8949179158930365 L2.159841153420586,4.8070766783972605 A5.2700000000000005,5.2700000000000005,0,0,1,1.9052982114871058,4.913526098974549 Z" fill="#e9161e" stroke="black" stroke-width="0.07" />
<path d="M-1.2978376179042728,-4.06798691216584 A4.2700000000000005,4.2700000000000005,0,0,0,-1.4390177061207943,-4.0202149247858445 L-1.7760241946736735,-4.961717249091663 A5.2700000000000005,5.2700000000000005,0,0,1,-1.601780853947428,-5.020677055530205 Z" fill="#e2f114" stroke="black" stroke-width="0.07" />
<path d="M1.2978376179042732,4.06798691216584 A4.2700000000000005,4.2700000000000005,0,0,0,1.439017706120792,4.0202149247858445 L1.7760241946736708,4.961717249091663 A5.2700000000000005,5.2700000000000005,0,0,1,1.6017808539474283,5.020677055530205 Z" fill="#e11e2a" stroke="black" stroke-width="0.07" />
<path d="M-1.0470722292965617,-4.139630387683897 A4.2700000000000005,4.2700000000000005,0,0,0,-1.1909053982499662,-4.100566342887174 L-1.4698059599010123,-5.0608863295118045 A5.2700000000000005,5.2700000000000005,0,0,1,-1.2922882080545386,-5.1090988625513205 Z" fill="#ebf60d" stroke="black" stroke-width="0.07" />
<path d="M1.0470722292965622,4.139630387683897 A4.2700000000000005,4.2700000000000005,0,0,0,1.1909053982499649,4.100566342887174 L1.4698059599010105,5.060886329511805 A5.2700000000000005,5.2700000000000005,0,0,1,1.2922882080545393,5.10909886255132 Z" fill="#da2634" stroke="black" stroke-width="0.07" />
<path d="M-0.7924008391398434,-4.195831372937963 A4.2700000000000005,4.2700000000000005,0,0,0,-0.9383505331226913,-4.16562099536052 L-1.1581047563364364,-5.141176263594833 A5.2700000000000005,5.2700000000000005,0,0,1,-0.9779748061515162,-5.178461671049899 Z" fill="#f4fa07" stroke="black" stroke-width="0.07" />
<path d="M0.7924008391398409,4.195831372937964 A4.2700000000000005,4.2700000000000005,0,0,0,0.9383505331226918,4.16562099536052 L1.1581047563364368,5.141176263594833 A5.2700000000000005,5.2700000000000005,0,0,1,0.9779748061515133,5.1784616710499 Z" fill="#d32d3e" stroke="black" stroke-width="0.07" />
<path d="M-0.5347734743917689,-4.236380215595262 A4.2700000000000005,4.2700000000000005,0,0,0,-0.6822952422049735,-4.215136202124963 L-0.8420833551335387,-5.202287537517226 A5.2700000000000005,5.2700000000000005,0,0,1,-0.6600131639448764,-5.22850672978619 Z" fill="#fefe00" stroke="black" stroke-width="0.07" />
<path d="M0.5347734743917685,4.236380215595262 A4.2700000000000005,4.2700000000000005,0,0,0,0.682295242204974,4.215136202124963 L0.8420833551335393,5.202287537517226 A5.2700000000000005,5.2700000000000005,0,0,1,0.6600131639448759,5.22850672978619 Z" fill="#cc3448" stroke="black" stroke-width="0.07" />
<path d="M-0.051764018169885434,-4.269686228099544 A4.2700000000000005,4.2700000000000005,0,0,0,-0.3494761788893537,-4.255674611667215 L-0.43132071727093535,-5.2523197197860005 A5.2700000000000005,5.2700000000000005,0,0,1,-0.06388673905276258,-5.269612745218875 Z" fill="#fbf500" stroke="black" stroke-width="0.07" />
<path d="M0.05176401816988397,4.269686228099544 A4.2700000000000005,4.2700000000000005,0,0,0,0.3494761788893523,4.255674611667215 L0.4313207172709336,5.2523197197860005 A5.2700000000000005,5.2700000000000005,0,0,1,0.06388673905276078,5.269612745218875 Z" fill="#c14057" stroke="black" stroke-width="0.07" />
<path d="M0.2833912735210889,-4.260585568450902 A4.2700000000000005,4.2700000000000005,0,0,0,0.06002107575010552,-4.2695781372948085 L0.07407753377120752,-5.269479340408346 A5.2700000000000005,5.2700000000000005,0,0,1,0.34975925326841645,-5.258380783544791 Z" fill="#f9ed00" stroke="black" stroke-width="0.07" />
<path d="M-0.2833912735210913,4.260585568450902 A4.2700000000000005,4.2700000000000005,0,0,0,-0.06002107575010415,4.2695781372948085 L-0.07407753377120582,5.269479340408346 A5.2700000000000005,5.2700000000000005,0,0,1,-0.34975925326841945,5.258380783544791 Z" fill="#b74a65" stroke="black" stroke-width="0.07" />
<path d="M0.5429652181877027,-4.235338094159472 A4.2700000000000005,4.2700000000000005,0,0,0,0.3948232905961175,-4.251707253469229 L0.48728776146171876,-5.247423237888253 A5.2700000000000005,5.2700000000000005,0,0,1,0.6701233489108182,-5.22722055180806 Z" fill="#f6e600" stroke="black" stroke-width="0.07" />
<path d="M-0.5429652181877013,4.235338094159472 A4.2700000000000005,4.2700000000000005,0,0,0,-0.3948232905961171,4.251707253469229 L-0.48728776146171826,5.247423237888253 A5.2700000000000005,5.2700000000000005,0,0,1,-0.6701233489108164,5.22722055180806 Z" fill="#af5271" stroke="black" stroke-width="0.07" />
<path d="M0.8005136836906473,-4.194291101273734 A4.2700000000000005,4.2700000000000005,0,0,0,0.6536473839254678,-4.21967357712506 L0.8067263965543829,-5.207887529613364 A5.2700000000000005,5.2700000000000005,0,0,1,0.9879876142973564,-5.176560680026365 Z" fill="#f4e000" stroke="black" stroke-width="0.07" />
<path d="M-0.8005136836906488,4.194291101273734 A4.2700000000000005,4.2700000000000005,0,0,0,-0.6536473839254665,4.21967357712506 L-0.8067263965543814,5.207887529613364 A5.2700000000000005,5.2700000000000005,0,0,1,-0.9879876142973582,5.176560680026364 Z" fill="#a85a7b" stroke="black" stroke-width="0.07" />
<path d="M1.091142629672074,-4.128233007197186 A4.2700000000000005,4.2700000000000005,0,0,0,0.946404680841931,-4.163798527796522 L1.1680451213201348,-5.138926988638799 A5.2700000000000005,5.2700000000000005,0,0,1,1.3466795452861429,-5.095032306306597 Z" fill="#f2d900" stroke="black" stroke-width="0.07" />
<path d="M-1.0911426296720754,4.128233007197185 A4.2700000000000005,4.2700000000000005,0,0,0,-0.9464046808419306,4.163798527796522 L-1.1680451213201344,5.138926988638799 A5.2700000000000005,5.2700000000000005,0,0,1,-1.3466795452861446,5.095032306306596 Z" fill="#a06286" stroke="black" stroke-width="0.07" />
<path d="M1.3411300246662199,-4.053920356511557 A4.2700000000000005,4.2700000000000005,0,0,0,1.1988332643770367,-4.098255580637096 L1.4795904691491766,-5.058034405142271 A5.2700000000000005,5.2700000000000005,0,0,1,1.6552119976559667,-5.00331622454705 Z" fill="#f0d200" stroke="black" stroke-width="0.07" />
<path d="M-1.3411300246662203,4.053920356511557 A4.2700000000000005,4.2700000000000005,0,0,0,-1.1988332643770356,4.098255580637097 L-1.479590469149175,5.058034405142271 A5.2700000000000005,5.2700000000000005,0,0,1,-1.6552119976559674,5.00331622454705 Z" fill="#996990" stroke="black" stroke-width="0.07" />
<path d="M1.5861144639833875,-3.9644849485327462 A4.2700000000000005,4.2700000000000005,0,0,0,1.4467897165188748,-4.017424487924476 L1.785616348022124,-4.958273314136297 A5.2700000000000005,5.2700000000000005,0,0,1,1.9575698419654453,-4.892935756151656 Z" fill="#eecc00" stroke="black" stroke-width="0.07" />
<path d="M-1.5861144639833873,3.964484948532747 A4.2700000000000005,4.2700000000000005,0,0,0,-1.4467897165188752,4.017424487924476 L-1.7856163480221248,4.958273314136297 A5.2700000000000005,5.2700000000000005,0,0,1,-1.957569841965445,4.892935756151657 Z" fill="#966c94" stroke="black" stroke-width="0.07" />
<path d="M1.8251820568979131,-3.86026041338896 A4.2700000000000005,4.2700000000000005,0,0,0,1.6893490597357566,-3.921606782222042 L2.0849811580345285,-4.840015864709639 A5.2700000000000005,5.2700000000000005,0,0,1,2.252625161557846,-4.764302664768108 Z" fill="#ecc600" stroke="black" stroke-width="0.07" />
<path d="M-1.8251820568979147,3.8602604133889598 A4.2700000000000005,4.2700000000000005,0,0,0,-1.689349059735756,3.9216067822220424 L-2.084981158034528,4.84001586470964 A5.2700000000000005,5.2700000000000005,0,0,1,-2.2526251615578476,4.764302664768107 Z" fill="#946e96" stroke="black" stroke-width="0.07" />
</svg>