<?xml version="1.0" encoding="UTF-8"?>
<svg xmlns="http://www.w3.org/2000/svg" xmlns:xlink="http://www.w3.org/1999/xlink"
     width="600" height="600.0" viewBox="-7.0 -7.0 14 14">
<defs>
</defs>
<path d="M0.6427876096865393,0.7660444431189781 A1.0,1.0,0,1,0,0.615661475325659,0.7880107536067213 L1.231322950651318,1.5760215072134427 A2.0,2.0,0,1,1,1.2855752193730785,1.5320888862379562 Z" fill="red" stroke="black" stroke-width="0.07" />
<path d="M1.5898074227589667,1.3566916962009061 A2.09,2.09,0,0,0,1.81174116280986,-1.0419663905234062 L2.678602963197353,-1.5405149027355625 A3.09,3.09,0,0,1,2.350480830777611,2.0058264790721534 Z" fill="#ff0000" stroke="black" stroke-width="0.07" />
<path d="M3.0868248489585617,-0.7641415784080547 A3.18,3.18,0,0,0,2.756620525232228,-1.5853842688346567 L3.62348232561972,-2.0839327810468125 A4.18,4.18,0,0,1,4.057524486995845,-1.0044376722470656 Z" fill="#ef5600" stroke="black" stroke-width="0.07" />
<path d="M3.1787663826852226,0.08856796435679025 A3.18,3.18,0,0,0,3.1057699657758784,-0.6830760716673494 L4.082427187717978,-0.8978798677891573 A4.18,4.18,0,0,1,4.178378452712022,0.11641952547527773 Z" fill="#f82100" stroke="black" stroke-width="0.07" />
<path d="M3.0702610338291927,0.8281890992702683 A3.18,3.18,0,0,0,3.175358659812637,0.17174801760979544 L4.173899118873214,0.2257568281789135 A4.18,4.18,0,0,1,4.035751924970448,1.0886259229401638 Z" fill="#ff0000" stroke="black" stroke-width="0.07" />
<path d="M2.843510286655562,1.4236745589087432 A3.18,3.18,0,0,0,3.047529468813638,0.9082753639246567 L4.005872069069499,1.1938965475487624 A4.18,4.18,0,0,1,3.737695911390015,1.8713709610813039 Z" fill="#ff0000" stroke="black" stroke-width="0.07" />
<path d="M2.536451362690133,1.9180235881519732 A3.18,3.18,0,0,0,2.8052684313627907,1.497621122981159 L3.68742831543914,1.968571161654479 A4.18,4.18,0,0,1,3.334077577372564,2.5211756598978763 Z" fill="#ff0000" stroke="black" stroke-width="0.07" />
<path d="M3.8409809510488238,-1.8654129123816208 A4.2700000000000005,4.2700000000000005,0,0,0,3.7014998876545953,-2.128802147145907 L4.5683616880420885,-2.627350659358063 A5.2700000000000005,5.2700000000000005,0,0,1,4.740508105861195,-2.3022777630564732 Z" fill="#eb6900" stroke="black" stroke-width="0.07" />
<path d="M3.975499098903835,-1.5583025747956656 A4.2700000000000005,4.2700000000000005,0,0,0,3.8884955601877915,-1.7642285221591436 L4.799150258124042,-2.1773967943275614 A5.2700000000000005,5.2700000000000005,0,0,1,4.906529332839159,-1.9232446297829409 Z" fill="#ee5900" stroke="black" stroke-width="0.07" />
<path d="M4.063216088055375,-1.3126976124637295 A4.2700000000000005,4.2700000000000005,0,0,0,4.014928400601398,-1.4537021490127564 L4.955192663037322,-1.7941476171656265 A5.2700000000000005,5.2700000000000005,0,0,1,5.014788942400896,-1.6201209409095678 Z" fill="#f14c00" stroke="black" stroke-width="0.07" />
<path d="M4.1357756430874435,-1.0621957588150355 A4.2700000000000005,4.2700000000000005,0,0,0,4.096186142928417,-1.205885186276548 L5.055480321600177,-1.4882938950064188 A5.2700000000000005,5.2700000000000005,0,0,1,5.104341367463894,-1.3109535477646923 Z" fill="#f34100" stroke="black" stroke-width="0.07" />
<path d="M4.199796132045141,-0.771111178273712 A4.2700000000000005,4.2700000000000005,0,0,0,4.170326337692768,-0.9172122094401202 L5.146983559634868,-1.1320160055619282 A5.2700000000000005,5.2700000000000005,0,0,1,5.183354945170468,-0.9516992762300849 Z" fill="#f53400" stroke="black" stroke-width="0.07" />
<path d="M4.239037876924427,-0.5132814802815832 A4.2700000000000005,4.2700000000000005,0,0,0,4.218542304256233,-0.6609090914796978 L5.2064913216464515,-0.8156887381962545 A5.2700000000000005,5.2700000000000005,0,0,1,5.231786794236939,-0.6334879159447173 Z" fill="#f72900" stroke="black" stroke-width="0.07" />
<path d="M4.262466301528102,-0.25353703543535894 A4.2700000000000005,4.2700000000000005,0,0,0,4.251021407293058,-0.40214051615841456 L5.246576771998692,-0.49631862298708307 A5.2700000000000005,5.2700000000000005,0,0,1,5.260701969333278,-0.31291339033825327 Z" fill="#f91e00" stroke="black" stroke-width="0.07" />
<path d="M4.269994008387078,0.007153204768083751 A4.2700000000000005,4.2700000000000005,0,0,0,4.267642486654762,-0.14187179458639157 L5.267090375801076,-0.17509703922020695 A5.2700000000000005,5.2700000000000005,0,0,1,5.2699926051990404,0.008828428367166597 Z" fill="#fb1200" stroke="black" stroke-width="0.07" />
<path d="M4.245854820930441,0.4534499306227012 A4.2700000000000005,4.2700000000000005,0,0,0,4.263767760188667,0.23061762113013415 L5.2623082192492445,0.2846264316992522 A5.2700000000000005,5.2700000000000005,0,0,1,5.240200212249046,0.559644293766191 Z" fill="#fe0100" stroke="black" stroke-width="0.07" />
<path d="M4.21025298980122,0.711807390991334 A4.2700000000000005,4.2700000000000005,0,0,0,4.23252993713178,0.5644380668268717 L5.223754746764515,0.6966249677230946 A5.2700000000000005,5.2700000000000005,0,0,1,5.196260715749983,0.8785070141743163 Z" fill="#ff0000" stroke="black" stroke-width="0.07" />
<path d="M4.158945217630166,0.9675095228219593 A4.2700000000000005,4.2700000000000005,0,0,0,4.190177295975888,0.8217750472533224 L5.171483454284059,1.0142282199121802 A5.2700000000000005,5.2700000000000005,0,0,1,5.132937071876106,1.1940925492439638 Z" fill="#ff0000" stroke="black" stroke-width="0.07" />
<path d="M4.070214655233319,1.2908340948099868 A4.2700000000000005,4.2700000000000005,0,0,0,4.092122903092527,1.2196024540749322 L5.050465503348388,1.5052236376990382 A5.2700000000000005,5.2700000000000005,0,0,1,5.023426518285619,1.5931371615102177 Z" fill="#ff0000" stroke="black" stroke-width="0.07" />
<path d="M3.983819348165089,1.5369070893146044 A4.2700000000000005,4.2700000000000005,0,0,0,4.035029796952968,1.3969375568369868 L4.980001646356474,1.7240892094920188 A5.2700000000000005,5.2700000000000005,0,0,1,4.91679811822717,1.8968384919643948 Z" fill="#ff0000" stroke="black" stroke-width="0.07" />
<path d="M3.8825627888264704,1.7772468007623552 A4.2700000000000005,4.2700000000000005,0,0,0,3.9422226553415887,1.64066466278503 L4.86545981115929,2.0248952629688777 A5.2700000000000005,5.2700000000000005,0,0,1,4.791828078949766,2.1934638501212205 Z" fill="#ff0000" stroke="black" stroke-width="0.07" />
<path d="M3.7311529666153223,2.0763905075196436 A4.2700000000000005,4.2700000000000005,0,0,0,3.7668227050060117,2.0109566651350783 L4.648982589082361,2.4819067038083986 A5.2700000000000005,5.2700000000000005,0,0,1,4.604959281981908,2.5626646310605437 Z" fill="#ff0000" stroke="black" stroke-width="0.07" />
<path d="M3.597433006225622,2.3002990600612105 A4.2700000000000005,4.2700000000000005,0,0,0,3.6755208266989876,2.1733491786875834 L4.536298537869711,2.6823302509797573 A5.2700000000000005,5.2700000000000005,0,0,1,4.439923171618039,2.8390107837289413 Z" fill="#ff0000" stroke="black" stroke-width="0.07" />
<path d="M3.450293170395041,2.515626569728771 A4.2700000000000005,4.2700000000000005,0,0,0,3.5359854461944105,2.393680622869584 L4.364085082305514,2.9542615649936086 A5.2700000000000005,5.2700000000000005,0,0,1,4.258324357841186,3.104766281609045 Z" fill="#ff0000" stroke="black" stroke-width="0.07" />
</svg>