<?xml version="1.0" encoding="UTF-8"?>
<svg xmlns="http://www.w3.org/2000/svg" xmlns:xlink="http://www.w3.org/1999/xlink"
     width="600" height="600.0" viewBox="-7.0 -7.0 14 14">
<defs>
</defs>
<path d="M0.6427876096865393,0.7660444431189781 A1.0,1.0,0,1,0,0.615661475325659,0.7880107536067213 L1.231322950651318,1.5760215072134427 A2.0,2.0,0,1,1,1.2855752193730785,1.5320888862379562 Z" fill="red" stroke="black" stroke-width="0.07" />
<path d="M0.03010813276808321,-2.089783122800359 A2.09,2.09,0,0,0,-2.0025981059326003,-0.5980809528108727 L-2.960779017862074,-0.8842440881270798 A3.09,3.09,0,0,1,0.044513937920276136,-3.089679353805315 Z" fill="#b4dc34" stroke="black" stroke-width="0.07" />
<path d="M-0.030108132768086254,2.089783122800359 A2.09,2.09,0,0,0,2.0025981059326,0.5980809528108739 L2.9607790178620736,0.8842440881270816 A3.09,3.09,0,0,1,-0.04451393792028063,3.089679353805315 Z" fill="#ff0000" stroke="black" stroke-width="0.07" />
<path d="M-2.647817331050846,-1.7610972095221702 A3.18,3.18,0,0,0,-3.047015299935727,-0.9099987703055386 L-4.005196211865201,-1.1961619056217454 A4.18,4.18,0,0,1,-3.4804642905007976,-2.3149013634599593 Z" fill="#78ba68" stroke="black" stroke-width="0.07" />
<path d="M2.6478173310508453,1.7610972095221717 A3.18,3.18,0,0,0,3.0470152999357265,0.9099987703055403 L4.0051962118652,1.1961619056217478 A4.18,4.18,0,0,1,3.480464290500796,2.314901363459961 Z" fill="#ff0000" stroke="black" stroke-width="0.07" />
<path d="M-2.038600880318024,-2.4405955115025884 A3.18,3.18,0,0,0,-2.6008098395634067,-1.8298055028964606 L-3.4186745689858613,-2.4052160383984917 A4.18,4.18,0,0,1,-2.6796703395375276,-3.208078376754974 Z" fill="#97ce48" stroke="black" stroke-width="0.07" />
<path d="M2.0386008803180222,2.4405955115025892 A3.18,3.18,0,0,0,2.600809839563406,1.829805502896462 L3.41867456898586,2.4052160383984935 A4.18,4.18,0,0,1,2.679670339537526,3.208078376754975 Z" fill="#ff0000" stroke="black" stroke-width="0.07" />
<path d="M-1.362590317887359,-2.873281682258046 A3.18,3.18,0,0,0,-1.9740149601665011,-2.4931235302404993 L-2.5947743816025075,-3.2771246403790206 A4.18,4.18,0,0,1,-1.791077839235585,-3.7768293810813307 Z" fill="#bfe12c" stroke="black" stroke-width="0.07" />
<path d="M1.362590317887356,2.8732816822580474 A3.18,3.18,0,0,0,1.9740149601664996,2.4931235302405 L2.5947743816025057,3.277124640379022 A4.18,4.18,0,0,1,1.791077839235581,3.7768293810813325 Z" fill="#fb0304" stroke="black" stroke-width="0.07" />
<path d="M-0.7083995086503538,-3.1000919560787126 A3.18,3.18,0,0,0,-1.2869096461464433,-2.9079655367034936 L-1.691598214117023,-3.8224201079938998 A4.18,4.18,0,0,1,-0.9311666497353707,-4.074963640380194 Z" fill="#e3f213" stroke="black" stroke-width="0.07" />
<path d="M0.7083995086503527,3.100091956078713 A3.18,3.18,0,0,0,1.2869096461464407,2.9079655367034944 L1.6915982141170192,3.8224201079939015 A4.18,4.18,0,0,1,0.9311666497353692,4.0749636403801945 Z" fill="#e01f2b" stroke="black" stroke-width="0.07" />
<path d="M-0.13159040670637123,-3.17727618643121 A3.18,3.18,0,0,0,-0.6270058109474863,-3.1175733693111516 L-0.8241774496102177,-4.097942353371262 A4.18,4.18,0,0,1,-0.17297103774611058,-4.1764196412837915 Z" fill="#fefd00" stroke="black" stroke-width="0.07" />
<path d="M0.13159040670636943,3.17727618643121 A3.18,3.18,0,0,0,0.6270058109474845,3.117573369311152 L0.8241774496102153,4.097942353371262 A4.18,4.18,0,0,1,0.17297103774610822,4.1764196412837915 Z" fill="#c9374b" stroke="black" stroke-width="0.07" />
<path d="M-3.9962293776439006,-1.504343963744943 A4.2700000000000005,4.2700000000000005,0,0,0,-4.0914324939388536,-1.2219165878002043 L-5.049613405868327,-1.5080797231164114 A5.2700000000000005,5.2700000000000005,0,0,1,-4.932114477794697,-1.8566493416711591 Z" fill="#79b373" stroke="black" stroke-width="0.07" />
<path d="M3.9962293776438997,1.5043439637449454 A4.2700000000000005,4.2700000000000005,0,0,0,4.0914324939388536,1.2219165878002067 L5.049613405868327,1.5080797231164143 A5.2700000000000005,5.2700000000000005,0,0,1,4.932114477794696,1.856649341671162 Z" fill="#ff0000" stroke="black" stroke-width="0.07" />
<path d="M-3.8658808690876847,-1.813247116645123 A4.2700000000000005,4.2700000000000005,0,0,0,-3.955480835468025,-1.6084375524853856 L-4.881822951502691,-1.9851208200463657 A5.2700000000000005,5.2700000000000005,0,0,1,-4.77123938643843,-2.2378951533301636 Z" fill="#78b86b" stroke="black" stroke-width="0.07" />
<path d="M3.8658808690876825,1.8132471166451267 A4.2700000000000005,4.2700000000000005,0,0,0,3.955480835468024,1.6084375524853878 L4.8818229515026905,1.9851208200463684 A5.2700000000000005,5.2700000000000005,0,0,1,4.7712393864384275,2.237895153330168 Z" fill="#ff0000" stroke="black" stroke-width="0.07" />
<path d="M-3.7479741337028134,-2.045871426335157 A4.2700000000000005,4.2700000000000005,0,0,0,-3.8170908522245575,-1.9138227258196105 L-4.7110231361178965,-2.3620247693370837 A5.2700000000000005,5.2700000000000005,0,0,1,-4.625719832462254,-2.5249982240717275 Z" fill="#78bc64" stroke="black" stroke-width="0.07" />
<path d="M3.7479741337028116,2.0458714263351605 A4.2700000000000005,4.2700000000000005,0,0,0,3.8170908522245575,1.9138227258196112 L4.7110231361178965,2.3620247693370846 A5.2700000000000005,5.2700000000000005,0,0,1,4.625719832462252,2.524998224071732 Z" fill="#ff0000" stroke="black" stroke-width="0.07" />
<path d="M-3.616085943779973,-2.270863810799077 A4.2700000000000005,4.2700000000000005,0,0,0,-3.6931351260032055,-2.143280882451316 L-4.558037965816602,-2.645220199184645 A5.2700000000000005,5.2700000000000005,0,0,1,-4.462944478623058,-2.80268203346865 Z" fill="#79c05e" stroke="black" stroke-width="0.07" />
<path d="M3.6160859437799737,2.270863810799076 A4.2700000000000005,4.2700000000000005,0,0,0,3.6931351260032055,2.1432808824513163 L4.558037965816602,2.6452201991846453 A5.2700000000000005,5.2700000000000005,0,0,1,4.462944478623059,2.802682033468649 Z" fill="#ff0000" stroke="black" stroke-width="0.07" />
<path d="M-3.3589067421896748,-2.6364076879862015 A4.2700000000000005,4.2700000000000005,0,0,0,-3.492282394633883,-2.4570029865936753 L-4.310147124056337,-3.0324135220957067 A5.2700000000000005,5.2700000000000005,0,0,1,-4.145535955817233,-3.253833376039176 Z" fill="#87c754" stroke="black" stroke-width="0.07" />
<path d="M3.358906742189672,2.636407687986205 A4.2700000000000005,4.2700000000000005,0,0,0,3.4922823946338815,2.457002986593677 L4.310147124056336,3.032413522095709 A5.2700000000000005,5.2700000000000005,0,0,1,4.14553595581723,3.2538333760391804 Z" fill="#ff0000" stroke="black" stroke-width="0.07" />
<path d="M-3.191692865063316,-2.8365466072504306 A4.2700000000000005,4.2700000000000005,0,0,0,-3.2887426209728,-2.723430185078546 L-4.0589399560952355,-3.361235849031367 A5.2700000000000005,5.2700000000000005,0,0,1,-3.9391619201132726,-3.500843236583084 Z" fill="#92cc4c" stroke="black" stroke-width="0.07" />
<path d="M3.1916928650633154,2.836546607250431 A4.2700000000000005,4.2700000000000005,0,0,0,3.2887426209727995,2.7234301850785463 L4.058939956095235,3.3612358490313676 A5.2700000000000005,5.2700000000000005,0,0,1,3.9391619201132717,3.5008432365830844 Z" fill="#ff0000" stroke="black" stroke-width="0.07" />
<path d="M-3.012572686799291,-3.026104064098078 A4.2700000000000005,4.2700000000000005,0,0,0,-3.1163470177218984,-2.9191233727158283 L-3.8461706752680107,-3.6027588230005656 A5.2700000000000005,5.2700000000000005,0,0,1,-3.718093222349476,-3.7347935404676513 Z" fill="#9bd046" stroke="black" stroke-width="0.07" />
<path d="M3.0125726867992895,3.02610406409808 A4.2700000000000005,4.2700000000000005,0,0,0,3.1163470177218953,2.919123372715832 L3.8461706752680067,3.6027588230005696 A5.2700000000000005,5.2700000000000005,0,0,1,3.718093222349474,3.7347935404676535 Z" fill="#ff0000" stroke="black" stroke-width="0.07" />
<path d="M-2.8222143978759506,-3.2043729327938233 A4.2700000000000005,4.2700000000000005,0,0,0,-2.9323261837200656,-3.103927053310003 L-3.619053627214226,-3.8308420540851795 A5.2700000000000005,5.2700000000000005,0,0,1,-3.483154537893738,-3.9548115587408543 Z" fill="#a4d43f" stroke="black" stroke-width="0.07" />
<path d="M2.822214397875949,3.204372932793825 A4.2700000000000005,4.2700000000000005,0,0,0,2.9323261837200643,3.103927053310005 L3.619053627214224,3.8308420540851813 A5.2700000000000005,5.2700000000000005,0,0,1,3.4831545378937356,3.954811558740857 Z" fill="#ff0000" stroke="black" stroke-width="0.07" />
<path d="M-2.5321955170440713,-3.4381515183979183 A4.2700000000000005,4.2700000000000005,0,0,0,-2.6506427295317483,-3.347684740291488 L-3.271402150967755,-4.13168585043001 A5.2700000000000005,5.2700000000000005,0,0,1,-3.125215544454861,-4.243339227624597 Z" fill="#b1da36" stroke="black" stroke-width="0.07" />
<path d="M2.532195517044071,3.4381515183979188 A4.2700000000000005,4.2700000000000005,0,0,0,2.6506427295317465,3.3476847402914895 L3.2714021509677527,4.131685850430012 A5.2700000000000005,5.2700000000000005,0,0,1,3.1252155444548606,4.243339227624598 Z" fill="#ff0000" stroke="black" stroke-width="0.07" />
<path d="M-2.317578333071797,-3.586325510892194 A4.2700000000000005,4.2700000000000005,0,0,0,-2.441327482311638,-3.5032585008974038 L-3.013066939527478,-4.323693747009208 A5.2700000000000005,5.2700000000000005,0,0,1,-2.86033672489189,-4.426214389321279 Z" fill="#badf30" stroke="black" stroke-width="0.07" />
<path d="M2.3175783330717965,3.5863255108921943 A4.2700000000000005,4.2700000000000005,0,0,0,2.4413274823116358,3.503258500897405 L3.0130669395274756,4.32369374700921 A5.2700000000000005,5.2700000000000005,0,0,1,2.8603367248918894,4.426214389321279 Z" fill="#ff0000" stroke="black" stroke-width="0.07" />
<path d="M-2.0943156475709372,-3.72112106338124 A4.2700000000000005,4.2700000000000005,0,0,0,-2.2229050993460313,-3.6457636949343573 L-2.7434917736659448,-4.499572522787837 A5.2700000000000005,5.2700000000000005,0,0,1,-2.5847876961823983,-4.592577986889727 Z" fill="#c3e329" stroke="black" stroke-width="0.07" />
<path d="M2.0943156475709337,3.7211210633812417 A4.2700000000000005,4.2700000000000005,0,0,0,2.2229050993460273,3.645763694934359 L2.74349177366594,4.4995725227878385 A5.2700000000000005,5.2700000000000005,0,0,1,2.5847876961823935,4.592577986889729 Z" fill="#f80609" stroke="black" stroke-width="0.07" />
<path d="M-1.8632403203681605,-3.842035334110601 A4.2700000000000005,4.2700000000000005,0,0,0,-1.9961903841817443,-3.774668720576727 L-2.4636822774327385,-4.6586660790256085 A5.2700000000000005,5.2700000000000005,0,0,1,-2.2995963672927884,-4.741809417040484 Z" fill="#cde723" stroke="black" stroke-width="0.07" />
<path d="M1.8632403203681585,3.8420353341106024 A4.2700000000000005,4.2700000000000005,0,0,0,1.996190384181742,3.7746687205767278 L2.463682277432736,4.65866607902561 A5.2700000000000005,5.2700000000000005,0,0,1,2.2995963672927857,4.741809417040486 Z" fill="#f10d13" stroke="black" stroke-width="0.07" />
<path d="M-1.5212946852143698,-3.989807323761201 A4.2700000000000005,4.2700000000000005,0,0,0,-1.7280201852343753,-3.904721019410037 L-2.132708753204955,-4.819175590700444 A5.2700000000000005,5.2700000000000005,0,0,1,-1.8775697871381096,-4.924188430028461 Z" fill="#d8ed1a" stroke="black" stroke-width="0.07" />
<path d="M1.5212946852143685,3.9898073237612013 A4.2700000000000005,4.2700000000000005,0,0,0,1.7280201852343715,3.904721019410039 L2.1327087532049505,4.819175590700445 A5.2700000000000005,5.2700000000000005,0,0,1,1.8775697871381083,4.924188430028461 Z" fill="#e8171f" stroke="black" stroke-width="0.07" />
<path d="M-1.2748852538256046,-4.075238347578952 A4.2700000000000005,4.2700000000000005,0,0,0,-1.416332395448459,-4.028262968774908 L-1.7480261648743276,-4.9716500809001785 A5.2700000000000005,5.2700000000000005,0,0,1,-1.5734532289604066,-5.029626719377301 Z" fill="#e3f213" stroke="black" stroke-width="0.07" />
<path d="M1.274885253825605,4.075238347578952 A4.2700000000000005,4.2700000000000005,0,0,0,1.4163323954484568,4.028262968774909 L1.748026164874325,4.97165008090018 A5.2700000000000005,5.2700000000000005,0,0,1,1.5734532289604073,5.029626719377301 Z" fill="#e01f2b" stroke="black" stroke-width="0.07" />
<path d="M-1.0237199864620932,-4.1454670894023575 A4.2700000000000005,4.2700000000000005,0,0,0,-1.167771078923252,-4.107214470566448 L-1.4412537671956764,-5.0690913957576536 A5.2700000000000005,5.2700000000000005,0,0,1,-1.263467055891155,-5.116302473337336 Z" fill="#ecf60c" stroke="black" stroke-width="0.07" />
<path d="M1.0237199864620898,4.145467089402358 A4.2700000000000005,4.2700000000000005,0,0,0,1.1677710789232478,4.10721447056645 L1.441253767195671,5.069091395757655 A5.2700000000000005,5.2700000000000005,0,0,1,1.2634670558911507,5.1163024733373375 Z" fill="#d92635" stroke="black" stroke-width="0.07" />
<path d="M-0.7687358308299501,-4.200231567711261 A4.2700000000000005,4.2700000000000005,0,0,0,-0.8419228970898637,-4.186175561936673 L-1.0390945357525951,-5.166544545996783 A5.2700000000000005,5.2700000000000005,0,0,1,-0.9487676413287675,-5.183892356402422 Z" fill="#f7fb05" stroke="black" stroke-width="0.07" />
<path d="M0.7687358308299478,4.200231567711261 A4.2700000000000005,4.2700000000000005,0,0,0,0.8419228970898613,4.186175561936673 L1.0390945357525923,5.166544545996784 A5.2700000000000005,5.2700000000000005,0,0,1,0.9487676413287646,5.183892356402422 Z" fill="#d12f40" stroke="black" stroke-width="0.07" />
<path d="M-0.5108839806281431,-4.239327488922925 A4.2700000000000005,4.2700000000000005,0,0,0,-0.6585231596312561,-4.218915411362175 L-0.81274404010696,-5.206951807465729 A5.2700000000000005,5.2700000000000005,0,0,1,-0.6305289409626028,-5.232144231059441 Z" fill="#fefe00" stroke="black" stroke-width="0.07" />
<path d="M0.5108839806281388,4.239327488922925 A4.2700000000000005,4.2700000000000005,0,0,0,0.6585231596312527,4.218915411362175 L0.812744040106956,5.206951807465729 A5.2700000000000005,5.2700000000000005,0,0,1,0.6305289409625975,5.232144231059441 Z" fill="#cb3548" stroke="black" stroke-width="0.07" />
<path d="M-0.251126327212517,-4.262609009489465 A4.2700000000000005,4.2700000000000005,0,0,0,-0.39973625690991316,-4.25124816082426 L-0.4933513053665673,-5.24685662940137 A5.2700000000000005,5.2700000000000005,0,0,1,-0.3099381134449566,-5.260878098362875 Z" fill="#fcf800" stroke="black" stroke-width="0.07" />
<path d="M0.25112632721251266,4.2626090094894655 A4.2700000000000005,4.2700000000000005,0,0,0,0.3997362569099117,4.25124816082426 L0.4933513053665655,5.24685662940137 A5.2700000000000005,5.2700000000000005,0,0,1,0.30993811344495126,5.260878098362876 Z" fill="#c43c52" stroke="black" stroke-width="0.07" />
</svg>