<?xml version="1.0" encoding="UTF-8"?>
<svg xmlns="http://www.w3.org/2000/svg" xmlns:xlink="http://www.w3.org/1999/xlink"
     width="600" height="600.0" viewBox="-7.0 -7.0 14 14">
<defs>
</defs>
<path d="M0.6427876096865393,0.7660444431189781 A1.0,1.0,0,1,0,0.615661475325659,0.7880107536067213 L1.231322950651318,1.5760215072134427 A2.0,2.0,0,1,1,1.2855752193730785,1.5320888862379562 Z" fill="red" stroke="black" stroke-width="0.07" />
<path d="M-2.047360520066656,-0.4200177387592019 A2.09,2.09,0,0,0,-1.0246911838858905,1.8215674507595185 L-1.5149740469891875,2.6931308243286662 A3.09,3.09,0,0,1,-3.026958855026778,-0.6209831640028391 Z" fill="#7e86b4" stroke="black" stroke-width="0.07" />
<path d="M2.0473605200666554,0.4200177387592021 A2.09,2.09,0,0,0,1.0246911838858908,-1.8215674507595185 L1.514974046989188,-2.6931308243286662 A3.09,3.09,0,0,1,3.026958855026778,0.6209831640028395 Z" fill="#ed5e00" stroke="black" stroke-width="0.07" />
<path d="M-2.262651281416008,2.2344594824490547 A3.18,3.18,0,0,0,-1.5590995046684843,2.77157152794989 L-2.049382367771781,3.643134901519037 A4.18,4.18,0,0,1,-2.974176841609721,2.9371196970556754 Z" fill="#8d76a0" stroke="black" stroke-width="0.07" />
<path d="M2.2626512814160074,-2.2344594824490556 A3.18,3.18,0,0,0,1.5590995046684848,-2.77157152794989 L2.0493823677717815,-3.643134901519037 A4.18,4.18,0,0,1,2.97417684160972,-2.9371196970556763 Z" fill="#e4af00" stroke="black" stroke-width="0.07" />
<path d="M-2.777493003266327,1.548525949671687 A3.18,3.18,0,0,0,-2.3203672577009486,2.1744644833589213 L-3.0500424959716868,2.858258346050406 A4.18,4.18,0,0,1,-3.650918475991587,2.0354837954803933 Z" fill="#8580ab" stroke="black" stroke-width="0.07" />
<path d="M2.777493003266327,-1.5485259496716879 A3.18,3.18,0,0,0,2.320367257700949,-2.174464483358921 L3.050042495971687,-2.8582583460504054 A4.18,4.18,0,0,1,3.6509184759915865,-2.0354837954803946 Z" fill="#e78300" stroke="black" stroke-width="0.07" />
<path d="M-3.0622468542526002,0.8573471896612569 A3.18,3.18,0,0,0,-2.8170769095214987,1.4752890177320517 L-3.7029501515093908,1.9392163817987345 A4.18,4.18,0,0,1,-4.0252175631370655,1.1269532241459288 Z" fill="#7d88b6" stroke="black" stroke-width="0.07" />
<path d="M3.0622468542526,-0.8573471896612579 A3.18,3.18,0,0,0,2.817076909521499,-1.4752890177320515 L3.702950151509391,-1.939216381798734 A4.18,4.18,0,0,1,4.025217563137065,-1.1269532241459301 Z" fill="#ef5500" stroke="black" stroke-width="0.07" />
<path d="M-3.1716988824106975,0.2296218615784035 A3.18,3.18,0,0,0,-3.0836402318026326,0.7768931205823659 L-4.053338417904089,1.021199133344116 A4.18,4.18,0,0,1,-4.169088468074438,0.3018299941502285 Z" fill="#7b95a3" stroke="black" stroke-width="0.07" />
<path d="M3.1716988824106975,-0.22962186157840314 A3.18,3.18,0,0,0,3.0836402318026326,-0.7768931205823668 L4.053338417904089,-1.0211991333441173 A4.18,4.18,0,0,1,4.169088468074438,-0.301829994150228 Z" fill="#f62d00" stroke="black" stroke-width="0.07" />
<path d="M-3.1604337520546544,-0.352219390258033 A3.18,3.18,0,0,0,-3.176622820019538,0.14651777820837023 L-4.175560813736373,0.19259255122987026 A4.18,4.18,0,0,1,-4.15428084389574,-0.46298020480458424 Z" fill="#7aa190" stroke="black" stroke-width="0.07" />
<path d="M3.1604337520546544,0.352219390258032 A3.18,3.18,0,0,0,3.176622820019538,-0.14651777820837264 L4.175560813736373,-0.19259255122987345 A4.18,4.18,0,0,1,4.15428084389574,0.4629802048045829 Z" fill="#fd0a00" stroke="black" stroke-width="0.07" />
<path d="M-2.348012136594356,3.5664743103526786 A4.2700000000000005,4.2700000000000005,0,0,0,-2.093507825451078,3.721575605140261 L-2.583790688554375,4.593138978709409 A5.2700000000000005,5.2700000000000005,0,0,1,-2.8978978828693807,4.4017141956811745 Z" fill="#90729b" stroke="black" stroke-width="0.07" />
<path d="M2.348012136594359,-3.566474310352676 A4.2700000000000005,4.2700000000000005,0,0,0,2.093507825451079,-3.721575605140261 L2.5837906885543758,-4.593138978709409 A5.2700000000000005,5.2700000000000005,0,0,1,2.8978978828693847,-4.401714195681172 Z" fill="#e8ba00" stroke="black" stroke-width="0.07" />
<path d="M-2.620596348113532,3.3712571513092886 A4.2700000000000005,4.2700000000000005,0,0,0,-2.4405669451415166,3.503788376355314 L-3.012128290607914,4.324347715080212 A5.2700000000000005,5.2700000000000005,0,0,1,-3.2343191462665843,4.160778732412167 Z" fill="#8e759f" stroke="black" stroke-width="0.07" />
<path d="M2.6205963481135326,-3.3712571513092886 A4.2700000000000005,4.2700000000000005,0,0,0,2.44056694514152,-3.503788376355312 L3.0121282906079183,-4.324347715080209 A5.2700000000000005,5.2700000000000005,0,0,1,3.234319146266585,-4.160778732412167 Z" fill="#e5b100" stroke="black" stroke-width="0.07" />
<path d="M-2.8215187331532547,3.204985497387665 A4.2700000000000005,4.2700000000000005,0,0,0,-2.7079475593782596,3.301502690542192 L-3.3421273156729336,4.074688332355351 A5.2700000000000005,5.2700000000000005,0,0,1,-3.482295954032237,3.9555675810850106 Z" fill="#8c78a2" stroke="black" stroke-width="0.07" />
<path d="M2.821518733153255,-3.2049854973876646 A4.2700000000000005,4.2700000000000005,0,0,0,2.70794755937826,-3.3015026905421916 L3.342127315672934,-4.074688332355351 A5.2700000000000005,5.2700000000000005,0,0,1,3.4822959540322374,-3.9555675810850097 Z" fill="#e2aa00" stroke="black" stroke-width="0.07" />
<path d="M-3.0119157158053596,3.026757955450798 A4.2700000000000005,4.2700000000000005,0,0,0,-2.9044486088450063,3.13002847887656 L-3.584647346279434,3.863056225686059 A5.2700000000000005,5.2700000000000005,0,0,1,-3.717282393979917,3.735600567968549 Z" fill="#8a7aa4" stroke="black" stroke-width="0.07" />
<path d="M3.0119157158053587,-3.026757955450799 A4.2700000000000005,4.2700000000000005,0,0,0,2.9044486088450068,-3.1300284788765596 L3.5846473462794344,-3.863056225686058 A5.2700000000000005,5.2700000000000005,0,0,1,3.7172823939799158,-3.7356005679685502 Z" fill="#e1a400" stroke="black" stroke-width="0.07" />
<path d="M-3.264253804909202,2.7527344763227344 A4.2700000000000005,4.2700000000000005,0,0,0,-3.115713267416054,2.91979979369264 L-3.8453885056867927,3.6035936563841244 A5.2700000000000005,5.2700000000000005,0,0,1,-4.028716054302458,3.397402971948668 Z" fill="#877ca7" stroke="black" stroke-width="0.07" />
<path d="M3.2642538049092025,-2.752734476322734 A4.2700000000000005,4.2700000000000005,0,0,0,3.1157132674160546,-2.9197997936926394 L3.845388505686793,-3.603593656384124 A5.2700000000000005,5.2700000000000005,0,0,1,4.028716054302459,-3.397402971948667 Z" fill="#e39500" stroke="black" stroke-width="0.07" />
<path d="M-3.4262157330676093,2.548322144172512 A4.2700000000000005,4.2700000000000005,0,0,0,-3.335193414748818,2.6663429798538907 L-4.1162691559077915,3.2907792749016402 A5.2700000000000005,5.2700000000000005,0,0,1,-4.22860817640897,3.1451188992480414 Z" fill="#857faa" stroke="black" stroke-width="0.07" />
<path d="M3.4262157330676106,-2.54832214417251 A4.2700000000000005,4.2700000000000005,0,0,0,3.335193414748819,-2.666342979853889 L4.116269155907793,-3.290779274901638 A5.2700000000000005,5.2700000000000005,0,0,1,4.228608176408971,-3.1451188992480392 Z" fill="#e68800" stroke="black" stroke-width="0.07" />
<path d="M-3.5753964952413346,2.334403543052483 A4.2700000000000005,4.2700000000000005,0,0,0,-3.491748951547348,2.457761025683335 L-4.309488752846493,3.0333490879042566 A5.2700000000000005,5.2700000000000005,0,0,1,-4.412725885227595,2.8811022650788254 Z" fill="#8481ad" stroke="black" stroke-width="0.07" />
<path d="M3.575396495241337,-2.3344035430524794 A4.2700000000000005,4.2700000000000005,0,0,0,3.4917489515473483,-2.4577610256833347 L4.309488752846493,-3.033349087904256 A5.2700000000000005,5.2700000000000005,0,0,1,4.412725885227599,-2.8811022650788214 Z" fill="#e87d00" stroke="black" stroke-width="0.07" />
<path d="M-3.711239587044309,2.111776675587452 A4.2700000000000005,4.2700000000000005,0,0,0,-3.6352788570361363,2.2400106320252244 L-4.486632219339681,2.7646032858953005 A5.2700000000000005,5.2700000000000005,0,0,1,-4.580382347476231,2.606337957926434 Z" fill="#8283af" stroke="black" stroke-width="0.07" />
<path d="M3.71123958704431,-2.11177667558745 A4.2700000000000005,4.2700000000000005,0,0,0,3.6352788570361345,-2.240010632025227 L4.486632219339679,-2.764603285895304 A5.2700000000000005,5.2700000000000005,0,0,1,4.580382347476233,-2.6063379579264314 Z" fill="#ea7200" stroke="black" stroke-width="0.07" />
<path d="M-3.8495092881605903,1.847749506931432 A4.2700000000000005,4.2700000000000005,0,0,0,-3.782678743288302,1.9809698445647361 L-4.668551985276195,2.444897208631419 A5.2700000000000005,5.2700000000000005,0,0,1,-4.751033711617403,2.2804777286952334 Z" fill="#8085b2" stroke="black" stroke-width="0.07" />
<path d="M3.849509288160592,-1.8477495069314283 A4.2700000000000005,4.2700000000000005,0,0,0,3.7826787432883022,-1.980969844564736 L4.668551985276195,-2.444897208631419 A5.2700000000000005,5.2700000000000005,0,0,1,4.7510337116174055,-2.280477728695229 Z" fill="#ec6500" stroke="black" stroke-width="0.07" />
<path d="M-3.9551315861856913,1.6092961616670378 A4.2700000000000005,4.2700000000000005,0,0,0,-3.8965586008000197,1.7463479236771224 L-4.809101598645458,2.1553287020558396 A5.2700000000000005,5.2700000000000005,0,0,1,-4.881391910819342,1.9861805086616604 Z" fill="#7e87b5" stroke="black" stroke-width="0.07" />
<path d="M3.955131586185692,-1.6092961616670356 A4.2700000000000005,4.2700000000000005,0,0,0,3.896558600800021,-1.7463479236771187 L4.8091015986454595,-2.1553287020558347 A5.2700000000000005,5.2700000000000005,0,0,1,4.881391910819344,-1.9861805086616575 Z" fill="#ee5a00" stroke="black" stroke-width="0.07" />
<path d="M-4.0459996488582375,1.364839492921794 A4.2700000000000005,4.2700000000000005,0,0,0,-3.995902723808738,1.5052114209830834 L-4.93171132423233,1.8577199504873183 A5.2700000000000005,5.2700000000000005,0,0,1,-4.993540550230191,1.6844740345896614 Z" fill="#7c8ab5" stroke="black" stroke-width="0.07" />
<path d="M4.045999648858239,-1.3648394929217897 A4.2700000000000005,4.2700000000000005,0,0,0,3.9959027238087375,-1.5052114209830845 L4.931711324232329,-1.8577199504873199 A5.2700000000000005,5.2700000000000005,0,0,1,4.993540550230192,-1.6844740345896563 Z" fill="#f04f00" stroke="black" stroke-width="0.07" />
<path d="M-4.15818673733684,0.9707641615943627 A4.2700000000000005,4.2700000000000005,0,0,0,-4.140611254653221,1.0431866744926737 L-5.110309440754677,1.287492687254424 A5.2700000000000005,5.2700000000000005,0,0,1,-5.132000961537505,1.1981093985017075 Z" fill="#7c90aa" stroke="black" stroke-width="0.07" />
<path d="M4.158186737336841,-0.9707641615943604 A4.2700000000000005,4.2700000000000005,0,0,0,4.140611254653221,-1.043186674492675 L5.110309440754677,-1.2874926872544257 A5.2700000000000005,5.2700000000000005,0,0,1,5.132000961537506,-1.1981093985017048 Z" fill="#f43b00" stroke="black" stroke-width="0.07" />
<path d="M-4.209694615170304,0.7151022633205355 A4.2700000000000005,4.2700000000000005,0,0,0,-4.182173473872178,0.8615828656838076 L-5.161605200774328,1.0633587124481654 A5.2700000000000005,5.2700000000000005,0,0,1,-5.195571574226581,0.8825735193674994 Z" fill="#7c93a5" stroke="black" stroke-width="0.07" />
<path d="M4.209694615170303,-0.7151022633205387 A4.2700000000000005,4.2700000000000005,0,0,0,4.182173473872178,-0.8615828656838109 L5.161605200774327,-1.0633587124481694 A5.2700000000000005,5.2700000000000005,0,0,1,5.19557157422658,-0.8825735193675033 Z" fill="#f53200" stroke="black" stroke-width="0.07" />
<path d="M-4.245498634924419,0.45677274530656437 A4.2700000000000005,4.2700000000000005,0,0,0,-4.226971252946939,0.6046602573017275 L-5.21689426300477,0.7462668749367924 A5.2700000000000005,5.2700000000000005,0,0,1,-5.239760610316555,0.5637452851910056 Z" fill="#7b979f" stroke="black" stroke-width="0.07" />
<path d="M4.245498634924419,-0.4567727453065657 A4.2700000000000005,4.2700000000000005,0,0,0,4.226971252946939,-0.6046602573017308 L5.216894263004769,-0.7462668749367966 A5.2700000000000005,5.2700000000000005,0,0,1,5.239760610316555,-0.5637452851910073 Z" fill="#f72600" stroke="black" stroke-width="0.07" />
<path d="M-4.26973292888145,0.04775684270797999 A4.2700000000000005,4.2700000000000005,0,0,0,-4.2654652331708895,0.1967392808018053 L-5.264403226887725,0.24281405382330537 A5.2700000000000005,5.2700000000000005,0,0,1,-5.2696703829520475,0.0589411150049308 Z" fill="#7b9d96" stroke="black" stroke-width="0.07" />
<path d="M4.26973292888145,-0.04775684270798325 A4.2700000000000005,4.2700000000000005,0,0,0,4.2654652331708895,-0.19673928080180855 L5.264403226887725,-0.2428140538233094 A5.2700000000000005,5.2700000000000005,0,0,1,5.2696703829520475,-0.05894111500493483 Z" fill="#fb1500" stroke="black" stroke-width="0.07" />
<path d="M-4.264684501784412,-0.21299319294250588 A4.2700000000000005,4.2700000000000005,0,0,0,-4.269519926448596,-0.06402810053701458 L-5.269407497045457,-0.07902297185715851 A5.2700000000000005,5.2700000000000005,0,0,1,-5.263439654427132,-0.26287450276510677 Z" fill="#7aa190" stroke="black" stroke-width="0.07" />
<path d="M4.264684501784412,0.21299319294250452 A4.2700000000000005,4.2700000000000005,0,0,0,4.269519926448596,0.0640281005370132 L5.269407497045457,0.07902297185715682 A5.2700000000000005,5.2700000000000005,0,0,1,5.263439654427132,0.2628745027651051 Z" fill="#fd0a00" stroke="black" stroke-width="0.07" />
</svg>