<?xml version="1.0" encoding="UTF-8"?>
<svg xmlns="http://www.w3.org/2000/svg" xmlns:xlink="http://www.w3.org/1999/xlink"
     width="600" height="600.0" viewBox="-7.0 -7.0 14 14">
<defs>
</defs>
<path d="M0.6427876096865393,0.7660444431189781 A1.0,1.0,0,1,0,0.615661475325659,0.7880107536067213 L1.231322950651318,1.5760215072134427 A2.0,2.0,0,1,1,1.2855752193730785,1.5320888862379562 Z" fill="red" stroke="black" stroke-width="0.07" />
<path d="M-1.8683476106869235,-0.9366841546863403 A2.09,2.09,0,0,0,-1.1570827704126863,1.7404767916907433 L-1.7107108902273687,2.573240806853778 A3.09,3.09,0,0,1,-2.762293835895978,-1.3848583913783692 Z" fill="#7c8fad" stroke="black" stroke-width="0.07" />
<path d="M1.8683476106869235,0.9366841546863406 A2.09,2.09,0,0,0,1.1570827704126847,-1.740476791690744 L1.7107108902273664,-2.5732408068537795 A3.09,3.09,0,0,1,2.762293835895978,1.3848583913783696 Z" fill="#f33f00" stroke="black" stroke-width="0.07" />
<path d="M-2.4927061673396356,1.9745419629136638 A3.18,3.18,0,0,0,-1.76053742101069,2.6481895682184518 L-2.3141655408253725,3.4809535833814866 A4.18,4.18,0,0,1,-3.276576031282917,2.595467108483998 Z" fill="#8b79a3" stroke="black" stroke-width="0.07" />
<path d="M2.492706167339637,-1.9745419629136625 A3.18,3.18,0,0,0,1.760537421010688,-2.6481895682184526 L2.3141655408253694,-3.480953583381488 A4.18,4.18,0,0,1,3.2765760312829184,-2.595467108483996 Z" fill="#e1a600" stroke="black" stroke-width="0.07" />
<path d="M-2.971092344639148,1.133582939015339 A3.18,3.18,0,0,0,-2.5435394620877325,1.9086138962090917 L-3.343394638844881,2.508806945331447 A4.18,4.18,0,0,1,-3.905398113393596,1.4900555613472062 Z" fill="#8184b1" stroke="black" stroke-width="0.07" />
<path d="M2.971092344639148,-1.1335829390153374 A3.18,3.18,0,0,0,2.543539462087733,-1.9086138962090913 L3.3433946388448814,-2.5088069453314468 A4.18,4.18,0,0,1,3.9053981133935967,-1.4900555613472042 Z" fill="#eb6c00" stroke="black" stroke-width="0.07" />
<path d="M-3.165971926361769,0.2983651479130072 A3.18,3.18,0,0,0,-2.999747967494618,1.0554203577304682 L-3.9430649384048744,1.3873135519853321 A4.18,4.18,0,0,1,-4.161560582450376,0.39219066612464465 Z" fill="#7c91a8" stroke="black" stroke-width="0.07" />
<path d="M3.165971926361769,-0.2983651479130082 A3.18,3.18,0,0,0,2.999747967494619,-1.0554203577304653 L3.9430649384048757,-1.3873135519853284 A4.18,4.18,0,0,1,4.161560582450375,-0.392190666124646 Z" fill="#f43700" stroke="black" stroke-width="0.07" />
<path d="M-3.1481478305341457,-0.44896017318149173 A3.18,3.18,0,0,0,-3.1726973159083074,0.2153874221681046 L-4.1704008743700385,0.28311931593165945 A4.18,4.18,0,0,1,-4.138131425041738,-0.5901426175781872 Z" fill="#7aa18f" stroke="black" stroke-width="0.07" />
<path d="M3.1481478305341453,0.4489601731814935 A3.18,3.18,0,0,0,3.172697315908308,-0.2153874221681042 L4.170400874370039,-0.28311931593165895 A4.18,4.18,0,0,1,4.138131425041737,0.5901426175781894 Z" fill="#fd0900" stroke="black" stroke-width="0.07" />
<path d="M-2.9954395705760963,-1.067586895304964 A3.18,3.18,0,0,0,-3.135316631653702,-0.53121522876861 L-4.121265257959897,-0.6982640428467892 A4.18,4.18,0,0,1,-3.937401699688076,-1.4033060447719337 Z" fill="#79ae7a" stroke="black" stroke-width="0.07" />
<path d="M2.9954395705760963,1.0675868953049643 A3.18,3.18,0,0,0,3.135316631653702,0.5312152287686105 L4.121265257959897,0.6982640428467898 A4.18,4.18,0,0,1,3.937401699688076,1.403306044771934 Z" fill="#ff0000" stroke="black" stroke-width="0.07" />
<path d="M-2.8427489961647927,-1.425194072680652 A3.18,3.18,0,0,0,-2.9664669412754714,-1.1456325267378493 L-3.8993181806702735,-1.505894327598808 A4.18,4.18,0,0,1,-3.736695221373847,-1.8733683093726805 Z" fill="#78b86a" stroke="black" stroke-width="0.07" />
<path d="M2.8427489961647927,1.4251940726806522 A3.18,3.18,0,0,0,2.9664669412754714,1.1456325267378495 L3.8993181806702735,1.5058943275988086 A4.18,4.18,0,0,1,3.736695221373847,1.8733683093726812 Z" fill="#ff0000" stroke="black" stroke-width="0.07" />
<path d="M-2.6062807142840407,3.382336594478893 A4.2700000000000005,4.2700000000000005,0,0,0,-2.363992071608694,3.55590234474616 L-2.9176201914233766,4.3886663599091955 A5.2700000000000005,5.2700000000000005,0,0,1,-3.216650904982879,4.1744528929517015 Z" fill="#8e759e" stroke="black" stroke-width="0.07" />
<path d="M2.606280714284041,-3.382336594478893 A4.2700000000000005,4.2700000000000005,0,0,0,2.363992071608691,-3.5559023447461615 L2.917620191423373,-4.388666359909197 A5.2700000000000005,5.2700000000000005,0,0,1,3.2166509049828798,-4.1744528929517015 Z" fill="#e5b200" stroke="black" stroke-width="0.07" />
<path d="M-2.863621491294131,3.1674235515002382 A4.2700000000000005,4.2700000000000005,0,0,0,-2.6939268571700707,3.312953076670086 L-3.324823076647839,4.088820307740364 A5.2700000000000005,5.2700000000000005,0,0,1,-3.534258842885262,3.909208926558842 Z" fill="#8c78a2" stroke="black" stroke-width="0.07" />
<path d="M2.8636214912941296,-3.167423551500239 A4.2700000000000005,4.2700000000000005,0,0,0,2.6939268571700685,-3.312953076670088 L3.3248230766478364,-4.088820307740366 A5.2700000000000005,5.2700000000000005,0,0,1,3.5342588428852606,-3.9092089265588434 Z" fill="#e2aa00" stroke="black" stroke-width="0.07" />
<path d="M-3.0516468418767926,2.9866957582692284 A4.2700000000000005,4.2700000000000005,0,0,0,-2.945553682306369,3.0913772828063864 L-3.635378900645097,3.8153532272575306 A5.2700000000000005,5.2700000000000005,0,0,1,-3.7663182334170253,3.686156123203474 Z" fill="#897aa5" stroke="black" stroke-width="0.07" />
<path d="M3.051646841876793,-2.986695758269228 A4.2700000000000005,4.2700000000000005,0,0,0,2.945553682306368,-3.0913772828063872 L3.6353789006450956,-3.8153532272575315 A5.2700000000000005,5.2700000000000005,0,0,1,3.7663182334170258,-3.686156123203473 Z" fill="#e1a100" stroke="black" stroke-width="0.07" />
<path d="M-3.228288319448707,2.7948263857547655 A4.2700000000000005,4.2700000000000005,0,0,0,-3.1287836991962203,2.9057894905935666 L-3.861519928516178,3.586302251856697 A5.2700000000000005,5.2700000000000005,0,0,1,-3.9843277385233455,3.4493524714116193 Z" fill="#887ca7" stroke="black" stroke-width="0.07" />
<path d="M3.2282883194487075,-2.7948263857547655 A4.2700000000000005,4.2700000000000005,0,0,0,3.1287836991962203,-2.905789490593566 L3.861519928516178,-3.5863022518566967 A5.2700000000000005,5.2700000000000005,0,0,1,3.984327738523346,-3.4493524714116193 Z" fill="#e39600" stroke="black" stroke-width="0.07" />
<path d="M-3.5858354941919433,2.3183364312785204 A4.2700000000000005,4.2700000000000005,0,0,0,-3.4153816047530245,2.5628243197524596 L-4.215236781510173,3.1630173688748155 A5.2700000000000005,5.2700000000000005,0,0,1,-4.425609614611602,2.861272363662249 Z" fill="#8480ac" stroke="black" stroke-width="0.07" />
<path d="M3.585835494191942,-2.3183364312785217 A4.2700000000000005,4.2700000000000005,0,0,0,3.4153816047530254,-2.562824319752459 L4.215236781510174,-3.163017368874815 A5.2700000000000005,5.2700000000000005,0,0,1,4.4256096146116,-2.8612723636622506 Z" fill="#e77f00" stroke="black" stroke-width="0.07" />
<path d="M-3.756676140066477,2.029848363463448 A4.2700000000000005,4.2700000000000005,0,0,0,-3.6452936908481606,2.223675764913266 L-4.4989924474870735,2.744442922972579 A5.2700000000000005,5.2700000000000005,0,0,1,-4.636459779426308,2.5052226874595718 Z" fill="#8183b0" stroke="black" stroke-width="0.07" />
<path d="M3.756676140066479,-2.029848363463444 A4.2700000000000005,4.2700000000000005,0,0,0,3.64529369084816,-2.2236757649132675 L4.4989924474870735,-2.744442922972581 A5.2700000000000005,5.2700000000000005,0,0,1,4.6364597794263105,-2.505222687459567 Z" fill="#ea6f00" stroke="black" stroke-width="0.07" />
<path d="M-3.8735884598681536,1.7967226952360427 A4.2700000000000005,4.2700000000000005,0,0,0,-3.80852405666156,1.9308144679979422 L-4.700450065247406,2.382995842236336 A5.2700000000000005,5.2700000000000005,0,0,1,-4.780752033607768,2.2175008440032657 Z" fill="#7f85b3" stroke="black" stroke-width="0.07" />
<path d="M3.8735884598681545,-1.7967226952360407 A4.2700000000000005,4.2700000000000005,0,0,0,3.8085240566615624,-1.9308144679979382 L4.700450065247408,-2.382995842236331 A5.2700000000000005,5.2700000000000005,0,0,1,4.780752033607769,-2.217500844003263 Z" fill="#ec6300" stroke="black" stroke-width="0.07" />
<path d="M-3.976050733053062,1.556894526995394 A4.2700000000000005,4.2700000000000005,0,0,0,-3.919293794964764,1.6947082783625926 L-4.837161194253936,2.0915954629908344 A5.2700000000000005,5.2700000000000005,0,0,1,-4.907210155313733,1.9215068283994674 Z" fill="#7d88b5" stroke="black" stroke-width="0.07" />
<path d="M3.9760507330530626,-1.5568945269953933 A4.2700000000000005,4.2700000000000005,0,0,0,3.919293794964763,-1.694708278362594 L4.837161194253935,-2.091595462990836 A5.2700000000000005,5.2700000000000005,0,0,1,4.907210155313733,-1.9215068283994667 Z" fill="#ef5700" stroke="black" stroke-width="0.07" />
<path d="M-4.096612958491306,1.2044344184392557 A4.2700000000000005,4.2700000000000005,0,0,0,-4.027963465786798,1.4171839394682701 L-4.9712804366970555,1.7490771337231343 A5.2700000000000005,5.2700000000000005,0,0,1,-5.056007093969364,1.4865033688934137 Z" fill="#7c8cb2" stroke="black" stroke-width="0.07" />
<path d="M4.096612958491305,-1.2044344184392606 A4.2700000000000005,4.2700000000000005,0,0,0,4.0279634657868,-1.4171839394682662 L4.971280436697057,-1.7490771337231295 A5.2700000000000005,5.2700000000000005,0,0,1,5.056007093969362,-1.48650336889342 Z" fill="#f14900" stroke="black" stroke-width="0.07" />
<path d="M-4.162500911747359,0.9520956673057644 A4.2700000000000005,4.2700000000000005,0,0,0,-4.1267375690573305,1.0967848631936903 L-5.093186648461857,1.353643144972072 A5.2700000000000005,5.2700000000000005,0,0,1,-5.137325481243227,1.1750688914991518 Z" fill="#7c90ab" stroke="black" stroke-width="0.07" />
<path d="M4.162500911747359,-0.9520956673057639 A4.2700000000000005,4.2700000000000005,0,0,0,4.1267375690573305,-1.0967848631936878 L5.093186648461858,-1.3536431449720692 A5.2700000000000005,5.2700000000000005,0,0,1,5.137325481243228,-1.1750688914991512 Z" fill="#f33c00" stroke="black" stroke-width="0.07" />
<path d="M-4.212861058464269,0.6962052154898848 A4.2700000000000005,4.2700000000000005,0,0,0,-4.185997485712896,0.8428078367014125 L-5.166324765739335,1.0401867211748113 A5.2700000000000005,5.2700000000000005,0,0,1,-5.199479573327096,0.8592509334032068 Z" fill="#7b94a5" stroke="black" stroke-width="0.07" />
<path d="M4.212861058464269,-0.6962052154898862 A4.2700000000000005,4.2700000000000005,0,0,0,4.185997485712896,-0.842807836701412 L5.166324765739335,-1.0401867211748106 A5.2700000000000005,5.2700000000000005,0,0,1,5.199479573327096,-0.8592509334032086 Z" fill="#f63100" stroke="black" stroke-width="0.07" />
<path d="M-4.247505534991775,0.4377176375407329 A4.2700000000000005,4.2700000000000005,0,0,0,-4.229641944135637,0.5856867971949781 L-5.220190408804404,0.7228499815497739 A5.2700000000000005,5.2700000000000005,0,0,1,-5.2422375103996846,0.5402276229132699 Z" fill="#7b979f" stroke="black" stroke-width="0.07" />
<path d="M4.247505534991775,-0.4377176375407324 A4.2700000000000005,4.2700000000000005,0,0,0,4.229641944135637,-0.5856867971949795 L5.220190408804404,-0.7228499815497756 A5.2700000000000005,5.2700000000000005,0,0,1,5.2422375103996846,-0.5402276229132692 Z" fill="#f82600" stroke="black" stroke-width="0.07" />
<path d="M-4.269492099887762,0.06585749005232752 A4.2700000000000005,4.2700000000000005,0,0,0,-4.2601941946315955,0.28921518637037946 L-5.257897753093327,0.35694708013393434 A5.2700000000000005,5.2700000000000005,0,0,1,-5.269373153725645,0.08128078983039017 Z" fill="#7b9c97" stroke="black" stroke-width="0.07" />
<path d="M4.269492099887762,-0.06585749005232511 A4.2700000000000005,4.2700000000000005,0,0,0,4.260194194631596,-0.2892151863703789 L5.257897753093328,-0.3569470801339337 A5.2700000000000005,5.2700000000000005,0,0,1,5.269373153725645,-0.08128078983038718 Z" fill="#fa1700" stroke="black" stroke-width="0.07" />
<path d="M-4.265549140070351,-0.1949116046958079 A4.2700000000000005,4.2700000000000005,0,0,0,-4.269752999690861,-0.04592735166432127 L-5.269695154185208,-0.05668317172622321 A5.2700000000000005,5.2700000000000005,0,0,1,-5.264506784114929,-0.2405583505262079 Z" fill="#7aa090" stroke="black" stroke-width="0.07" />
<path d="M4.26554914007035,0.19491160469581223 A4.2700000000000005,4.2700000000000005,0,0,0,4.269752999690861,0.045927351664323685 L5.269695154185208,0.05668317172622619 A5.2700000000000005,5.2700000000000005,0,0,1,5.2645067841149285,0.24055835052621322 Z" fill="#fd0a00" stroke="black" stroke-width="0.07" />
<path d="M-4.245693962277613,-0.45495360057859324 A4.2700000000000005,4.2700000000000005,0,0,0,-4.2589852519137885,-0.30650387270121954 L-5.256405685617252,-0.37828463914178617 A5.2700000000000005,5.2700000000000005,0,0,1,-5.2400016817805675,-0.5615001112527368 Z" fill="#7aa48a" stroke="black" stroke-width="0.07" />
<path d="M4.245693962277612,0.45495360057859563 A4.2700000000000005,4.2700000000000005,0,0,0,4.2589852519137885,0.30650387270122387 L5.256405685617252,0.37828463914179156 A5.2700000000000005,5.2700000000000005,0,0,1,5.240001681780567,0.5615001112527398 Z" fill="#ff0000" stroke="black" stroke-width="0.07" />
<path d="M-4.18254225927238,-0.8597908172344602 A4.2700000000000005,4.2700000000000005,0,0,0,-4.210000634327455,-0.7132984361138255 L-5.19594926063365,-0.8803472501920048 A5.2700000000000005,5.2700000000000005,0,0,1,-5.162060352778792,-1.0611469805212188 Z" fill="#79aa81" stroke="black" stroke-width="0.07" />
<path d="M4.182542259272379,0.8597908172344643 A4.2700000000000005,4.2700000000000005,0,0,0,4.210000634327455,0.7132984361138262 L5.19594926063365,0.8803472501920055 A5.2700000000000005,5.2700000000000005,0,0,1,5.1620603527787905,1.061146980521224 Z" fill="#ff0000" stroke="black" stroke-width="0.07" />
<path d="M-4.122252001152132,-1.1135252305166903 A4.2700000000000005,4.2700000000000005,0,0,0,-4.15860230672312,-0.9689823809116173 L-5.132513853965069,-1.195910338970544 A5.2700000000000005,5.2700000000000005,0,0,1,-5.087650596269727,-1.374303973026454 Z" fill="#79ae7b" stroke="black" stroke-width="0.07" />
<path d="M4.122252001152131,1.1135252305166927 A4.2700000000000005,4.2700000000000005,0,0,0,4.158602306723121,0.9689823809116141 L5.13251385396507,1.19591033897054 A5.2700000000000005,5.2700000000000005,0,0,1,5.087650596269726,1.3743039730264568 Z" fill="#ff0000" stroke="black" stroke-width="0.07" />
<path d="M-4.046584081155862,-1.3631057457644191 A4.2700000000000005,4.2700000000000005,0,0,0,-4.09169071594813,-1.221051630777292 L-5.049932101416076,-1.5070122000459787 A5.2700000000000005,5.2700000000000005,0,0,1,-4.994261851918359,-1.682334257653042 Z" fill="#79b175" stroke="black" stroke-width="0.07" />
<path d="M4.046584081155863,1.363105745764416 A4.2700000000000005,4.2700000000000005,0,0,0,4.091690715948131,1.2210516307772907 L5.0499321014160765,1.5070122000459771 A5.2700000000000005,5.2700000000000005,0,0,1,4.99426185191836,1.682334257653038 Z" fill="#ff0000" stroke="black" stroke-width="0.07" />
<path d="M-3.983274792215806,-1.5383178896762946 A4.2700000000000005,4.2700000000000005,0,0,0,-3.983274792215806,-1.5383178896762946 L-4.916126031610609,-1.8985796905372534 A5.2700000000000005,5.2700000000000005,0,1,1,-4.916126031610609,-1.8985796905372534 Z" fill="#78b56f" stroke="black" stroke-width="0.07" />
<path d="M3.983274792215806,1.538317889676295 A4.2700000000000005,4.2700000000000005,0,0,0,3.983274792215806,1.538317889676295 L4.916126031610609,1.898579690537254 A5.2700000000000005,5.2700000000000005,0,1,1,4.916126031610609,1.898579690537254 Z" fill="#ff0000" stroke="black" stroke-width="0.07" />
<path d="M-3.9416413555498893,-1.6420607248877352 A4.2700000000000005,4.2700000000000005,0,0,0,-3.9416413555498893,-1.6420607248877352 L-4.864742375584992,-2.026618271699851 A5.2700000000000005,5.2700000000000005,0,1,1,-4.864742375584992,-2.026618271699851 Z" fill="#78b76c" stroke="black" stroke-width="0.07" />
<path d="M3.9416413555498884,1.6420607248877375 A4.2700000000000005,4.2700000000000005,0,0,0,3.9416413555498884,1.6420607248877375 L4.86474237558499,2.0266182716998538 A5.2700000000000005,5.2700000000000005,0,1,1,4.86474237558499,2.0266182716998538 Z" fill="#ff0000" stroke="black" stroke-width="0.07" />
<path d="M-3.897306514788257,-1.744678173701103 A4.2700000000000005,4.2700000000000005,0,0,0,-3.897306514788257,-1.744678173701103 L-4.810024668134453,-2.1532679099308694 A5.2700000000000005,5.2700000000000005,0,1,1,-4.810024668134453,-2.1532679099308694 Z" fill="#78b86a" stroke="black" stroke-width="0.07" />
<path d="M3.8973065147882573,1.744678173701102 A4.2700000000000005,4.2700000000000005,0,0,0,3.8973065147882573,1.744678173701102 L4.810024668134453,2.153267909930868 A5.2700000000000005,5.2700000000000005,0,1,1,4.810024668134453,2.153267909930868 Z" fill="#ff0000" stroke="black" stroke-width="0.07" />
</svg>