<?xml version="1.0" encoding="UTF-8"?>
<svg xmlns="http://www.w3.org/2000/svg" xmlns:xlink="http://www.w3.org/1999/xlink"
     width="600" height="600.0" viewBox="-7.0 -7.0 14 14">
<defs>
</defs>
<path d="M0.6427876096865393,0.7660444431189781 A1.0,1.0,0,1,0,0.615661475325659,0.7880107536067213 L1.231322950651318,1.5760215072134427 A2.0,2.0,0,1,1,1.2855752193730785,1.5320888862379562 Z" fill="red" stroke="black" stroke-width="0.07" />
<path d="M-2.0023562603561507,-0.5988901456966302 A2.09,2.09,0,0,0,-1.5118675981069982,1.4430372018053363 L-2.235249223995514,2.133485623721765 A3.09,3.09,0,0,1,-2.9604214566988065,-0.8854404546423864 Z" fill="#7c90aa" stroke="black" stroke-width="0.07" />
<path d="M-2.73530403687389,1.621885269019175 A3.18,3.18,0,0,0,-2.300353570325481,2.1956259816942443 L-3.0237351962139964,2.8860744036106727 A4.18,4.18,0,0,1,-3.5954625390354904,2.131912083176148 Z" fill="#857fab" stroke="black" stroke-width="0.07" />
<path d="M-3.0215066309374197,0.9914119624057426 A3.18,3.18,0,0,0,-2.7768227233446114,1.5497275770654069 L-3.650037416220275,2.0370632931237105 A4.18,4.18,0,0,1,-3.971665948842268,1.3031767304578628 Z" fill="#7e87b4" stroke="black" stroke-width="0.07" />
<path d="M-3.15158170305446,0.4241848287861666 A3.18,3.18,0,0,0,-3.046423375770512,0.9119784073973457 L-4.0044181480253895,1.1987640701009135 A4.18,4.18,0,0,1,-4.142645131687938,0.5575762843793007 Z" fill="#7c92a8" stroke="black" stroke-width="0.07" />
<path d="M-3.1783703462243786,-0.10179362574112356 A3.18,3.18,0,0,0,-3.1616055990534524,0.3415406799106982 L-4.155821196240073,0.4489434094423642 A4.18,4.18,0,0,1,-4.177857876483617,-0.13380419987355233 Z" fill="#7b9c97" stroke="black" stroke-width="0.07" />
<path d="M-3.128412636177475,-0.5704685598743395 A3.18,3.18,0,0,0,-3.1746165516092018,-0.18495877986432754 L-4.172923643310209,-0.24312191818644308 A4.18,4.18,0,0,1,-4.11219019472385,-0.7498611887656411 Z" fill="#7aa687" stroke="black" stroke-width="0.07" />
<path d="M-3.238904034059226,2.782516964576295 A4.2700000000000005,4.2700000000000005,0,0,0,-3.0888395425439636,2.948214761583152 L-3.8122211684324796,3.638663183499581 A5.2700000000000005,5.2700000000000005,0,0,1,-3.9974295689677097,3.4341602818072774 Z" fill="#887ca7" stroke="black" stroke-width="0.07" />
<path d="M-3.4027314220618234,2.5795966485699124 A4.2700000000000005,4.2700000000000005,0,0,0,-3.31063194528768,2.696778842033717 L-4.085955585870274,3.3283429736575387 A5.2700000000000005,5.2700000000000005,0,0,1,-4.199624026760143,3.1837176435511565 Z" fill="#867eaa" stroke="black" stroke-width="0.07" />
<path d="M-3.5538652500276338,2.3670533970838146 A4.2700000000000005,4.2700000000000005,0,0,0,-3.469091359113373,2.489639560684424 L-4.2815249326762235,3.0726933219688326 A5.2700000000000005,5.2700000000000005,0,0,1,-4.386152193828016,2.9213984549488767 Z" fill="#8480ac" stroke="black" stroke-width="0.07" />
<path d="M-3.7989785430046266,1.9495286686249191 A4.2700000000000005,4.2700000000000005,0,0,0,-3.728626738579085,2.0809235075689583 L-4.601841431454749,2.5682592236272623 A5.2700000000000005,5.2700000000000005,0,0,1,-4.6886690682984495,2.406092759637781 Z" fill="#8084b1" stroke="black" stroke-width="0.07" />
<path d="M-3.910908560231805,1.7139703129008963 A4.2700000000000005,4.2700000000000005,0,0,0,-3.8487094391228545,1.8494149488977978 L-4.750046544303851,2.282533203908992 A5.2700000000000005,5.2700000000000005,0,0,1,-4.826812204314194,2.115368512643495 Z" fill="#7f86b4" stroke="black" stroke-width="0.07" />
<path d="M-4.008249311822028,1.472018156911878 A4.2700000000000005,4.2700000000000005,0,0,0,-3.9544349018273706,1.6110073268640215 L-4.880532068531672,1.9882924151225745 A5.2700000000000005,5.2700000000000005,0,0,1,-4.946949384848264,1.8167530882729734 Z" fill="#7d88b6" stroke="black" stroke-width="0.07" />
<path d="M-4.1113864303655365,1.1529967997380295 A4.2700000000000005,4.2700000000000005,0,0,0,-4.0906376775283295,1.2245747797442348 L-5.048632449783208,1.5113604424478024 A5.2700000000000005,5.2700000000000005,0,0,1,-5.074240395322336,1.4230194694659053 Z" fill="#7c8daf" stroke="black" stroke-width="0.07" />
<path d="M-4.174106636619674,0.8998520912503304 A4.2700000000000005,4.2700000000000005,0,0,0,-4.140159498545903,1.0449781464701264 L-5.109751886964147,1.289703707704348 A5.2700000000000005,5.2700000000000005,0,0,1,-5.151649174469715,1.110590285922539 Z" fill="#7c91aa" stroke="black" stroke-width="0.07" />
<path d="M-4.221255742301976,0.6433505716812585 A4.2700000000000005,4.2700000000000005,0,0,0,-4.196231656203336,0.7902783607546223 L-5.178955697468754,0.9753552602287727 A5.2700000000000005,5.2700000000000005,0,0,1,-5.209840225276676,0.7940181528712488 Z" fill="#7b94a4" stroke="black" stroke-width="0.07" />
<path d="M-4.258719723711445,0.3101714281991781 A4.2700000000000005,4.2700000000000005,0,0,0,-4.2453005999868685,0.45860965510021423 L-5.239516197173489,0.5660123846318803 A5.2700000000000005,5.2700000000000005,0,0,1,-5.256077972824196,0.3828111069343486 Z" fill="#7b999c" stroke="black" stroke-width="0.07" />
<path d="M-4.2697118656589526,0.04960427654093737 A4.2700000000000005,4.2700000000000005,0,0,0,-4.2653797082685765,0.19858485413212731 L-5.264297672734285,0.24509184573215712 A5.2700000000000005,5.2700000000000005,0,0,1,-5.269644386890557,0.061221203131320824 Z" fill="#7b9d96" stroke="black" stroke-width="0.07" />
<path d="M-4.257787620514249,-0.32271439167723637 A4.2700000000000005,4.2700000000000005,0,0,0,-4.2627712815633,-0.24835660063543352 L-5.261078373264307,-0.3065197389575491 A5.2700000000000005,5.2700000000000005,0,0,1,-5.254927578480116,-0.39829153258525424 Z" fill="#7aa38c" stroke="black" stroke-width="0.07" />
<path d="M-4.230144746026336,-0.5820441801665829 A4.2700000000000005,4.2700000000000005,0,0,0,-4.247880905088176,-0.43405969196328464 L-5.242700789183767,-0.5357130156080819 A5.2700000000000005,5.2700000000000005,0,0,1,-5.220810962894331,-0.7183542926177732 Z" fill="#7aa687" stroke="black" stroke-width="0.07" />
</svg>