<?xml version="1.0" encoding="UTF-8"?>
<svg xmlns="http://www.w3.org/2000/svg" xmlns:xlink="http://www.w3.org/1999/xlink"
     width="600" height="600.0" viewBox="-7.0 -7.0 14 14">
<defs>
</defs>
<path d="M0.6427876096865393,0.7660444431189781 A1.0,1.0,0,1,0,0.615661475325659,0.7880107536067213 L1.231322950651318,1.5760215072134427 A2.0,2.0,0,1,1,1.2855752193730785,1.5320888862379562 Z" fill="red" stroke="black" stroke-width="0.07" />
<path d="M-2.086641350187632,0.11843933336158438 A2.09,2.09,0,0,0,-0.8054447556923962,1.9285639075559864 L-1.1908250215739256,2.851321758061243 A3.09,3.09,0,0,1,-3.08503434070803,0.17510887085516544 Z" fill="#8480ac" stroke="black" stroke-width="0.07" />
<path d="M2.0866413501876315,-0.11843933336158598 A2.09,2.09,0,0,0,0.8054447556923964,-1.9285639075559864 L1.1908250215739258,-2.851321758061243 A3.09,3.09,0,0,1,3.0850343407080296,-0.1751088708551678 Z" fill="#e78100" stroke="black" stroke-width="0.07" />
<path d="M-1.808818748992345,2.6154492412000216 A3.18,3.18,0,0,0,-1.2255092455032632,2.9343699646067165 L-1.6108895113847923,3.857127815111973 A4.18,4.18,0,0,1,-2.377629676348428,3.4379175560427955 Z" fill="#927199" stroke="black" stroke-width="0.07" />
<path d="M1.8088187489923477,-2.61544924120002 A3.18,3.18,0,0,0,1.2255092455032637,-2.9343699646067165 L1.6108895113847927,-3.857127815111973 A4.18,4.18,0,0,1,2.3776296763484317,-3.437917556042793 Z" fill="#e9bf00" stroke="black" stroke-width="0.07" />
<path d="M-2.2939428911100173,2.2023228674120006 A3.18,3.18,0,0,0,-1.8766633915720812,2.56720363717668 L-2.466809112192232,3.374500378427208 A4.18,4.18,0,0,1,-3.015308580138324,2.894877228233384 Z" fill="#8b78a2" stroke="black" stroke-width="0.07" />
<path d="M2.2939428911100164,-2.2023228674120015 A3.18,3.18,0,0,0,1.8766633915720794,-2.5672036371766818 L2.4668091121922298,-3.37450037842721 A4.18,4.18,0,0,1,3.0153085801383233,-2.8948772282333852 Z" fill="#e2a900" stroke="black" stroke-width="0.07" />
<path d="M-2.6568720704015694,1.747406879212761 A3.18,3.18,0,0,0,-2.350806906031225,2.141519761887781 L-3.090054360758025,2.8149536492738756 A4.18,4.18,0,0,1,-3.4923664321630685,2.296905897833126 Z" fill="#857faa" stroke="black" stroke-width="0.07" />
<path d="M2.6568720704015694,-1.7474068792127608 A3.18,3.18,0,0,0,2.3508069060312264,-2.14151976188778 L3.090054360758027,-2.8149536492738743 A4.18,4.18,0,0,1,3.4923664321630685,-2.2969058978331254 Z" fill="#e68900" stroke="black" stroke-width="0.07" />
<path d="M-2.908839990042026,1.2849318706967725 A3.18,3.18,0,0,0,-2.7017034062498775,1.677259283670181 L-3.551295672366191,2.2046993099815584 A4.18,4.18,0,0,1,-3.823569546659015,1.6889984967020466 Z" fill="#8084b1" stroke="black" stroke-width="0.07" />
<path d="M2.908839990042026,-1.284931870696772 A3.18,3.18,0,0,0,2.7017034062498766,-1.6772592836701832 L3.5512956723661895,-2.204699309981561 A4.18,4.18,0,0,1,3.823569546659015,-1.6889984967020462 Z" fill="#eb6900" stroke="black" stroke-width="0.07" />
<path d="M-3.0668139172824427,0.8408640774600381 A3.18,3.18,0,0,0,-2.9414787983857056,1.208347002581372 L-3.8664721312113985,1.5883303367264574 A4.18,4.18,0,0,1,-4.031220809509625,1.1052867433279745 Z" fill="#7c8bb3" stroke="black" stroke-width="0.07" />
<path d="M3.066813917282442,-0.8408640774600404 A3.18,3.18,0,0,0,2.941478798385707,-1.208347002581369 L3.8664721312114003,-1.5883303367264534 A4.18,4.18,0,0,1,4.031220809509624,-1.1052867433279776 Z" fill="#f14c00" stroke="black" stroke-width="0.07" />
<path d="M-3.150331685284849,0.4333708258412474 A3.18,3.18,0,0,0,-3.087774252237995,0.7602961049591739 L-4.058772444765666,0.9993829304180335 A4.18,4.18,0,0,1,-4.141002026569392,0.5696509597535893 Z" fill="#7c93a6" stroke="black" stroke-width="0.07" />
<path d="M3.1503316852848493,-0.43337082584124426 A3.18,3.18,0,0,0,3.087774252237995,-0.7602961049591749 L4.0587724447656655,-0.9993829304180347 A4.18,4.18,0,0,1,4.141002026569392,-0.5696509597535852 Z" fill="#f53200" stroke="black" stroke-width="0.07" />
<path d="M-1.7820814563316005,3.8803460777357275 A4.2700000000000005,4.2700000000000005,0,0,0,-1.6455737353141302,3.9401760216574466 L-2.0309540011956595,4.862933872162703 A5.2700000000000005,5.2700000000000005,0,0,1,-2.1994307435286964,4.789092231772198 Z" fill="#946e96" stroke="black" stroke-width="0.07" />
<path d="M1.782081456331601,-3.8803460777357275 A4.2700000000000005,4.2700000000000005,0,0,0,1.6455737353141306,-3.9401760216574466 L2.03095400119566,-4.862933872162703 A5.2700000000000005,5.2700000000000005,0,0,1,2.1994307435286973,-4.789092231772198 Z" fill="#ecc700" stroke="black" stroke-width="0.07" />
<path d="M-2.015646976122465,3.764314979866638 A4.2700000000000005,4.2700000000000005,0,0,0,-1.88304640021854,3.8323669258858812 L-2.324040873337636,4.7298767445945185 A5.2700000000000005,5.2700000000000005,0,0,1,-2.4876954482822926,4.645887574683181 Z" fill="#937098" stroke="black" stroke-width="0.07" />
<path d="M2.0156469761224654,-3.7643149798666378 A4.2700000000000005,4.2700000000000005,0,0,0,1.8830464002185405,-3.8323669258858812 L2.3240408733376365,-4.7298767445945185 A5.2700000000000005,5.2700000000000005,0,0,1,2.487695448282293,-4.64588757468318 Z" fill="#eac100" stroke="black" stroke-width="0.07" />
<path d="M-2.241693320071687,3.6342414695154726 A4.2700000000000005,4.2700000000000005,0,0,0,-2.113494542888176,3.7102615564380232 L-2.6084581360704187,4.579175269889551 A5.2700000000000005,5.2700000000000005,0,0,1,-2.7666800460837915,4.485351883921906 Z" fill="#91729b" stroke="black" stroke-width="0.07" />
<path d="M2.241693320071684,-3.6342414695154743 A4.2700000000000005,4.2700000000000005,0,0,0,2.1134945428881764,-3.7102615564380232 L2.608458136070419,-4.579175269889551 A5.2700000000000005,5.2700000000000005,0,0,1,2.766680046083788,-4.485351883921909 Z" fill="#e8bb00" stroke="black" stroke-width="0.07" />
<path d="M-2.638691205839185,3.357113152729135 A4.2700000000000005,4.2700000000000005,0,0,0,-2.519922227048046,3.4471570851397564 L-3.110067947668197,4.254453826390285 A5.2700000000000005,5.2700000000000005,0,0,1,-3.25665167559075,4.143322321986544 Z" fill="#8d769f" stroke="black" stroke-width="0.07" />
<path d="M2.638691205839188,-3.357113152729132 A4.2700000000000005,4.2700000000000005,0,0,0,2.5199222270480437,-3.447157085139758 L3.1100679476681945,-4.254453826390287 A5.2700000000000005,5.2700000000000005,0,0,1,3.2566516755907546,-4.14332232198654 Z" fill="#e4b000" stroke="black" stroke-width="0.07" />
<path d="M-2.8387163698652222,3.189763215578739 A4.2700000000000005,4.2700000000000005,0,0,0,-2.725665969728399,3.286889870601774 L-3.363995236643715,4.056653306339895 A5.2700000000000005,5.2700000000000005,0,0,1,-3.5035211403254616,3.9367803620842983 Z" fill="#8c78a2" stroke="black" stroke-width="0.07" />
<path d="M2.83871636986522,-3.189763215578741 A4.2700000000000005,4.2700000000000005,0,0,0,2.7256659697283996,-3.286889870601774 L3.363995236643716,-4.056653306339895 A5.2700000000000005,5.2700000000000005,0,0,1,3.5035211403254585,-3.9367803620843014 Z" fill="#e2aa00" stroke="black" stroke-width="0.07" />
<path d="M-3.0281519773853676,3.010514175661209 A4.2700000000000005,4.2700000000000005,0,0,0,-2.9212418794723507,3.114361231716201 L-3.6053734671707933,3.8437198339916576 A5.2700000000000005,5.2700000000000005,0,0,1,-3.7373210587402546,3.7155526242938106 Z" fill="#8a7aa4" stroke="black" stroke-width="0.07" />
<path d="M3.0281519773853653,-3.0105141756612115 A4.2700000000000005,4.2700000000000005,0,0,0,2.9212418794723507,-3.114361231716201 L3.6053734671707933,-3.8437198339916576 A5.2700000000000005,5.2700000000000005,0,0,1,3.737321058740252,-3.7155526242938137 Z" fill="#e1a300" stroke="black" stroke-width="0.07" />
<path d="M-3.2550194153319563,2.7636476992938186 A4.2700000000000005,4.2700000000000005,0,0,0,-3.156586631683438,2.8755626991386247 L-3.895834086410238,3.5489965865247193 A5.2700000000000005,5.2700000000000005,0,0,1,-4.017319044215318,3.410871984842722 Z" fill="#877ca8" stroke="black" stroke-width="0.07" />
<path d="M3.255019415331959,-2.763647699293815 A4.2700000000000005,4.2700000000000005,0,0,0,3.1565866316834397,-2.875562699138623 L3.8958340864102405,-3.5489965865247175 A5.2700000000000005,5.2700000000000005,0,0,1,4.017319044215322,-3.410871984842718 Z" fill="#e39400" stroke="black" stroke-width="0.07" />
<path d="M-3.4176648038123805,2.5597787577800712 A4.2700000000000005,4.2700000000000005,0,0,0,-3.3262478644398326,2.6774941912746435 L-4.105228628945648,3.3045420112452857 A5.2700000000000005,5.2700000000000005,0,0,1,-4.2180546876091904,3.1592585605388703 Z" fill="#857faa" stroke="black" stroke-width="0.07" />
<path d="M3.4176648038123822,-2.5597787577800695 A4.2700000000000005,4.2700000000000005,0,0,0,3.3262478644398357,-2.6774941912746395 L4.105228628945651,-3.3045420112452812 A5.2700000000000005,5.2700000000000005,0,0,1,4.218054687609193,-3.159258560538868 Z" fill="#e68900" stroke="black" stroke-width="0.07" />
<path d="M-3.666512218276861,2.188512772004426 A4.2700000000000005,4.2700000000000005,0,0,0,-3.6277589763166596,2.2521689123495827 L-4.477351242432974,2.7796089386609606 A5.2700000000000005,5.2700000000000005,0,0,1,-4.52518018508643,2.701045037110849 Z" fill="#8282af" stroke="black" stroke-width="0.07" />
<path d="M3.666512218276861,-2.1885127720044255 A4.2700000000000005,4.2700000000000005,0,0,0,3.6277589763166582,-2.252168912349586 L4.477351242432972,-2.779608938660964 A5.2700000000000005,5.2700000000000005,0,0,1,4.52518018508643,-2.7010450371108483 Z" fill="#e97400" stroke="black" stroke-width="0.07" />
<path d="M-3.7932789423853386,1.9605955384158076 A4.2700000000000005,4.2700000000000005,0,0,0,-3.7225443818167228,2.0917847225287685 L-4.594334635169585,2.581664048647918 A5.2700000000000005,5.2700000000000005,0,0,1,-4.681634666597362,2.4197514022134206 Z" fill="#8084b1" stroke="black" stroke-width="0.07" />
<path d="M3.793278942385338,-1.9605955384158087 A4.2700000000000005,4.2700000000000005,0,0,0,3.722544381816724,-2.0917847225287662 L4.594334635169586,-2.5816640486479154 A5.2700000000000005,5.2700000000000005,0,0,1,4.681634666597361,-2.419751402213422 Z" fill="#eb6a00" stroke="black" stroke-width="0.07" />
<path d="M-3.977437002161648,1.553349572322781 A4.2700000000000005,4.2700000000000005,0,0,0,-3.9497215311657117,1.6225288367995152 L-4.8747148639914055,2.002512170944601 A5.2700000000000005,5.2700000000000005,0,0,1,-4.908921077609341,1.917131673569334 Z" fill="#7d88b6" stroke="black" stroke-width="0.07" />
<path d="M3.9774370021616474,-1.5533495723227826 A4.2700000000000005,4.2700000000000005,0,0,0,3.9497215311657135,-1.6225288367995112 L4.874714863991407,-2.0025121709445957 A5.2700000000000005,5.2700000000000005,0,0,1,4.90892107760934,-1.9171316735693358 Z" fill="#ef5600" stroke="black" stroke-width="0.07" />
<path d="M-4.064848003165692,1.3076355421752237 A4.2700000000000005,4.2700000000000005,0,0,0,-4.016735985298463,1.4487001154167094 L-4.957423569677494,1.7879741471302244 A5.2700000000000005,5.2700000000000005,0,0,1,-5.016803039035877,1.6138733740663767 Z" fill="#7c8bb3" stroke="black" stroke-width="0.07" />
<path d="M4.064848003165692,-1.3076355421752233 A4.2700000000000005,4.2700000000000005,0,0,0,4.016735985298463,-1.4487001154167107 L4.957423569677494,-1.787974147130226 A5.2700000000000005,5.2700000000000005,0,0,1,5.016803039035877,-1.6138733740663762 Z" fill="#f14c00" stroke="black" stroke-width="0.07" />
<path d="M-4.146162282093157,1.020900744709331 A4.2700000000000005,4.2700000000000005,0,0,0,-4.146162282093157,1.020900744709331 L-5.117160474620829,1.2599875701681909 A5.2700000000000005,5.2700000000000005,0,1,1,-5.117160474620829,1.2599875701681909 Z" fill="#7c90ab" stroke="black" stroke-width="0.07" />
<path d="M4.146162282093157,-1.0209007447093323 A4.2700000000000005,4.2700000000000005,0,0,0,4.146162282093157,-1.0209007447093323 L5.117160474620828,-1.2599875701681924 A5.2700000000000005,5.2700000000000005,0,1,1,5.117160474620828,-1.2599875701681924 Z" fill="#f43c00" stroke="black" stroke-width="0.07" />
<path d="M-4.171465561853522,0.9120170317872776 A4.2700000000000005,4.2700000000000005,0,0,0,-4.171465561853522,0.9120170317872776 L-5.148389581022966,1.125604158669544 A5.2700000000000005,5.2700000000000005,0,1,1,-5.148389581022966,1.125604158669544 Z" fill="#7c91a8" stroke="black" stroke-width="0.07" />
<path d="M4.171465561853522,-0.912017031787279 A4.2700000000000005,4.2700000000000005,0,0,0,4.171465561853522,-0.912017031787279 L5.148389581022966,-1.1256041586695458 A5.2700000000000005,5.2700000000000005,0,1,1,5.148389581022966,-1.1256041586695458 Z" fill="#f43700" stroke="black" stroke-width="0.07" />
<path d="M-4.207276875153041,0.729192221435795 A4.2700000000000005,4.2700000000000005,0,0,0,-4.193909927487149,0.8025082679479044 L-5.176090238374068,0.9904493143057274 A5.2700000000000005,5.2700000000000005,0,0,1,-5.1925876187486,0.8999632334816485 Z" fill="#7b94a5" stroke="black" stroke-width="0.07" />
<path d="M4.20727687515304,-0.7291922214357981 A4.2700000000000005,4.2700000000000005,0,0,0,4.193909927487149,-0.802508267947902 L5.176090238374069,-0.9904493143057245 A5.2700000000000005,5.2700000000000005,0,0,1,5.1925876187485995,-0.8999632334816525 Z" fill="#f63100" stroke="black" stroke-width="0.07" />
</svg>