<?xml version="1.0" encoding="UTF-8"?>
<svg xmlns="http://www.w3.org/2000/svg" xmlns:xlink="http://www.w3.org/1999/xlink"
     width="600" height="600.0" viewBox="-7.0 -7.0 14 14">
<defs>
</defs>
<path d="M0.17364817766693041,-0.984807753012208 A1.0,1.0,0,1,0,0.20791169081775904,-0.9781476007338057 L0.4158233816355181,-1.9562952014676114 A2.0,2.0,0,1,1,0.34729635533386083,-1.969615506024416 Z" fill="red" stroke="black" stroke-width="0.07" />
<path d="M1.1687131682538607,-1.7326885266400371 A2.09,2.09,0,0,0,0.36292469132388455,-2.0582482037955145 L0.5365728689908149,-3.0430559568077227 A3.09,3.09,0,0,1,1.7279060717246075,-2.561726099195079 Z" fill="#99698f" stroke="black" stroke-width="0.07" />
<path d="M1.827955187921337,-1.0132521063148443 A2.09,2.09,0,0,0,1.257793398387781,-1.669148215998842 L1.8596084215398294,-2.4677837260461346 A3.09,3.09,0,0,1,2.702574895060733,-1.4980617265611815 Z" fill="#8a7aa4" stroke="black" stroke-width="0.07" />
<path d="M2.08872682846991,-0.07293994810822702 A2.09,2.09,0,0,0,1.878479556765259,-0.9161956967891717 L2.777273603064426,-1.3545668435782492 A3.09,3.09,0,0,1,3.0881176554890057,-0.10783944481072799 Z" fill="#7c8ab4" stroke="black" stroke-width="0.07" />
<path d="M1.8941832749065983,0.8832721670380618 A2.09,2.09,0,0,0,2.0896816828768574,0.03647552945392254 L3.089529378033249,0.05392793589120605 A3.09,3.09,0,0,1,2.8004910619432484,1.3058904287787612 Z" fill="#7aa785" stroke="black" stroke-width="0.07" />
<path d="M-0.576082073657528,2.0090369445110863 A2.09,2.09,0,0,0,0.29087178100653727,2.0696602636698818 L0.43004488196660295,3.059928332411452 A3.09,3.09,0,0,1,-0.8517194294745271,2.970298640449405 Z" fill="#fbf300" stroke="black" stroke-width="0.07" />
<path d="M-2.074421456930363,-0.25470692771675874 A2.09,2.09,0,0,0,-1.998676939962744,0.6110568628705204 L-2.9549816959257793,0.9034285675932574 A3.09,3.09,0,0,1,-3.0669676085716846,-0.3765762711219065 Z" fill="#f63000" stroke="black" stroke-width="0.07" />
<path d="M0.2547069277167586,-2.074421456930363 A2.09,2.09,0,0,0,0.03647552945392174,-2.0896816828768574 L0.05392793589120487,-3.089529378033249 A3.09,3.09,0,0,1,0.37657627112190634,-3.0669676085716846 Z" fill="#bd435c" stroke="black" stroke-width="0.07" />
<path d="M3.179515670597324,-0.05549865247056157 A3.18,3.18,0,0,0,2.858165067231351,-1.3940202467892662 L3.756959113530518,-1.8323913935783434 A4.18,4.18,0,0,1,4.179363365753715,-0.07295105890784508 Z" fill="#7c8bb3" stroke="black" stroke-width="0.07" />
<path d="M0.5522012049808388,3.131688654578822 A3.18,3.18,0,0,0,1.8239730675963268,2.604903500838994 L2.397549503947373,3.4240555451279855 A4.18,4.18,0,0,1,0.7258493826477691,4.116496407591029 Z" fill="#cbe624" stroke="black" stroke-width="0.07" />
<path d="M-0.9297420210183026,3.0410491239624533 A3.18,3.18,0,0,0,0.4425704610530089,3.1490524585981934 L0.5817435620130745,4.1393205273397635 A4.18,4.18,0,0,1,-1.222113725741039,3.9973538799254884 Z" fill="#faf200" stroke="black" stroke-width="0.07" />
<path d="M-2.2090136180596107,2.2875005650769116 A3.18,3.18,0,0,0,-1.0353067311737574,3.0067490704058275 L-1.3608748856309139,3.952267646005144 A4.18,4.18,0,0,1,-2.9036719885186075,3.0068403654155627 Z" fill="#eac200" stroke="black" stroke-width="0.07" />
<path d="M-3.0067490704058275,1.0353067311737594 A3.18,3.18,0,0,0,-2.2875005650769107,2.209013618059611 L-3.0068403654155618,2.903671988518608 A4.18,4.18,0,0,1,-3.9522676460051436,1.3608748856309163 Z" fill="#e68500" stroke="black" stroke-width="0.07" />
<path d="M-3.1490524585981934,-0.4425704610530084 A3.18,3.18,0,0,0,-3.041049123962453,0.9297420210183038 L-3.997353879925488,1.2221137257410408 A4.18,4.18,0,0,1,-4.1393205273397635,-0.5817435620130739 Z" fill="#f62e00" stroke="black" stroke-width="0.07" />
<path d="M-1.4929195696591326,-2.807773345291388 A3.18,3.18,0,0,0,-2.539660921950392,-1.913771773623513 L-3.338296431997685,-2.5155867967755605 A4.18,4.18,0,0,1,-1.9623911324450232,-3.6907209381503145 Z" fill="#ff0000" stroke="black" stroke-width="0.07" />
<path d="M-0.05549865247056152,-3.179515670597324 A3.18,3.18,0,0,0,-1.3940202467892673,-2.8581650672313508 L-1.832391393578345,-3.756959113530517 A4.18,4.18,0,0,1,-0.07295105890784502,-4.179363365753715 Z" fill="#e01f2a" stroke="black" stroke-width="0.07" />
<path d="M2.4491713832189674,-3.4977792291139953 A4.2700000000000005,4.2700000000000005,0,0,0,0.741477718637793,-4.205129105362129 L0.9151258963047234,-5.189936858374336 A5.2700000000000005,5.2700000000000005,0,0,1,3.0227478195700135,-4.316931273402987 Z" fill="#986a90" stroke="black" stroke-width="0.07" />
<path d="M4.2693496583177915,-0.0745217754872006 A4.2700000000000005,4.2700000000000005,0,0,0,3.8378505776974436,-1.8718447967893608 L4.736644623996611,-2.310215943578438 A5.2700000000000005,5.2700000000000005,0,0,1,5.2691973534741825,-0.09197418192448412 Z" fill="#7c8bb3" stroke="black" stroke-width="0.07" />
<path d="M3.8378505776974436,1.8718447967893608 A4.2700000000000005,4.2700000000000005,0,0,0,4.2693496583177915,0.0745217754872006 L5.2691973534741825,0.09197418192448412 A5.2700000000000005,5.2700000000000005,0,0,1,4.736644623996611,2.310215943578438 Z" fill="#7aa885" stroke="black" stroke-width="0.07" />
<path d="M2.5697501488592467,3.4101736279019406 A4.2700000000000005,4.2700000000000005,0,0,0,3.7701862215076187,2.004643573095754 L4.653133814366545,2.474115135881645 A5.2700000000000005,5.2700000000000005,0,0,1,3.171565172011295,4.208809137949234 Z" fill="#84c556" stroke="black" stroke-width="0.07" />
<path d="M0.741477718637793,4.205129105362129 A4.2700000000000005,4.2700000000000005,0,0,0,2.4491713832189674,3.4977792291139953 L3.0227478195700135,4.316931273402987 A5.2700000000000005,5.2700000000000005,0,0,1,0.9151258963047234,5.189936858374336 Z" fill="#cbe624" stroke="black" stroke-width="0.07" />
<path d="M-1.2484271791660857,4.083421307962162 A4.2700000000000005,4.2700000000000005,0,0,0,0.5942691410994806,4.2284446535265054 L0.7334422420595462,5.218712722268076 A5.2700000000000005,5.2700000000000005,0,0,1,-1.5407988838888222,5.0397260639251975 Z" fill="#faf200" stroke="black" stroke-width="0.07" />
<path d="M-2.9661912418599177,3.071580947446042 A4.2700000000000005,4.2700000000000005,0,0,0,-1.390176019532058,4.037364317809083 L-1.7157441739892145,4.982882893408401 A5.2700000000000005,5.2700000000000005,0,0,1,-3.6608496123189145,3.790920747784693 Z" fill="#eac200" stroke="black" stroke-width="0.07" />
<path d="M-2.0046435730957537,-3.7701862215076187 A4.2700000000000005,4.2700000000000005,0,0,0,-3.410173627901942,-2.5697501488592454 L-4.208809137949235,-3.1715651720112934 A5.2700000000000005,5.2700000000000005,0,0,1,-2.4741151358816444,-4.653133814366545 Z" fill="#ff0000" stroke="black" stroke-width="0.07" />
<path d="M4.732599097723849,-2.516367576532375 A5.36,5.36,0,0,0,3.2257285240949796,-4.28068633385349 L3.827543547247028,-5.079321843900782 A6.36,6.36,0,0,1,5.615546690582776,-2.9858391393182657 Z" fill="#8a7aa5" stroke="black" stroke-width="0.07" />
<path d="M5.359183646038257,-0.09354489850383962 A5.36,5.36,0,0,0,4.817536088163536,-2.349669346789455 L5.716330134462702,-2.7880404935785323 A6.36,6.36,0,0,1,6.359031341194648,-0.11099730494112314 Z" fill="#7c8bb3" stroke="black" stroke-width="0.07" />
<path d="M3.2257285240949796,4.28068633385349 A5.36,5.36,0,0,0,4.732599097723849,2.516367576532375 L5.615546690582776,2.9858391393182657 A6.36,6.36,0,0,1,3.827543547247028,5.079321843900782 Z" fill="#84c556" stroke="black" stroke-width="0.07" />
<path d="M-3.723368865660224,3.8556613298151716 A5.36,5.36,0,0,0,-1.7450453078903585,5.0679795652123385 L-2.0706134623475148,6.013498140811655 A6.36,6.36,0,0,1,-4.418027236119221,4.575001130153823 Z" fill="#eac200" stroke="black" stroke-width="0.07" />
<path d="M-0.09354489850383955,-5.359183646038257 A5.36,5.36,0,0,0,-2.3496693467894567,-4.817536088163535 L-2.7880404935785346,-5.7163301344627016 A6.36,6.36,0,0,1,-0.11099730494112305,-6.359031341194648 Z" fill="#e01f2a" stroke="black" stroke-width="0.07" />
<path d="M0.6532196806515916,-5.320047372797486 A5.36,5.36,0,0,0,0.09354489850383758,-5.359183646038257 L0.11099730494112071,-6.359031341194648 A6.36,6.36,0,0,1,0.7750890240567393,-6.3125935244388085 Z" fill="#bd435c" stroke="black" stroke-width="0.07" />
</svg>