<?xml version="1.0" encoding="UTF-8"?>
<svg xmlns="http://www.w3.org/2000/svg" xmlns:xlink="http://www.w3.org/1999/xlink"
     width="600" height="600.0" viewBox="-7.0 -7.0 14 14">
<defs>
</defs>
<path d="M0.17364817766693041,-0.984807753012208 A1.0,1.0,0,1,0,0.20791169081775904,-0.9781476007338057 L0.4158233816355181,-1.9562952014676114 A2.0,2.0,0,1,1,0.34729635533386083,-1.969615506024416 Z" fill="red" stroke="black" stroke-width="0.07" />
<path d="M1.257793398387781,-1.669148215998842 A2.09,2.09,0,0,0,0.36292469132388455,-2.0582482037955145 L0.5365728689908149,-3.0430559568077227 A3.09,3.09,0,0,1,1.8596084215398294,-2.4677837260461346 Z" fill="#976b92" stroke="black" stroke-width="0.07" />
<path d="M0.8166280585425825,1.9238551437156 A2.09,2.09,0,0,0,1.601032886118664,1.343426104244867 L2.367077329237642,1.9862137139314062 A3.09,3.09,0,0,1,1.2073591870318565,2.8443599971680404 Z" fill="#a6d53e" stroke="black" stroke-width="0.07" />
<path d="M-0.25470692771675796,2.074421456930363 A2.09,2.09,0,0,0,0.7148220995506478,1.9639575774425482 L1.0568422428763167,2.9036501982284566 A3.09,3.09,0,0,1,-0.37657627112190534,3.066967608571685 Z" fill="#f5fa06" stroke="black" stroke-width="0.07" />
<path d="M-1.257793398387781,1.6691482159988418 A2.09,2.09,0,0,0,-0.36292469132388433,2.0582482037955145 L-0.5365728689908146,3.0430559568077227 A3.09,3.09,0,0,1,-1.8596084215398294,2.4677837260461346 Z" fill="#efd000" stroke="black" stroke-width="0.07" />
<path d="M-1.9238551437155997,0.8166280585425829 A2.09,2.09,0,0,0,-1.3434261042448672,1.601032886118664 L-1.9862137139314064,2.367077329237642 A3.09,3.09,0,0,1,-2.84435999716804,1.2073591870318572 Z" fill="#e39500" stroke="black" stroke-width="0.07" />
<path d="M-0.8166280585425822,-1.9238551437156 A2.09,2.09,0,0,0,-1.601032886118664,-1.343426104244867 L-2.367077329237642,-1.9862137139314062 A3.09,3.09,0,0,1,-1.207359187031856,-2.8443599971680404 Z" fill="#ff0000" stroke="black" stroke-width="0.07" />
<path d="M0.2547069277167586,-2.074421456930363 A2.09,2.09,0,0,0,-0.7148220995506489,-1.963957577442548 L-1.0568422428763182,-2.903650198228456 A3.09,3.09,0,0,1,0.37657627112190634,-3.0669676085716846 Z" fill="#d22d3e" stroke="black" stroke-width="0.07" />
<path d="M1.8239730675963268,-2.604903500838994 A3.18,3.18,0,0,0,1.637821078213973,-2.725792016232717 L2.152859153124027,-3.582959316934829 A4.18,4.18,0,0,1,2.397549503947373,-3.4240555451279855 Z" fill="#927099" stroke="black" stroke-width="0.07" />
<path d="M2.858165067231351,-1.3940202467892662 A3.18,3.18,0,0,0,2.696792945777435,-1.6851432602615917 L3.5448410419338603,-2.215062524494796 A4.18,4.18,0,0,1,3.756959113530518,-1.8323913935783434 Z" fill="#8381ad" stroke="black" stroke-width="0.07" />
<path d="M3.140848923092538,-0.49746159882793417 A3.18,3.18,0,0,0,2.988222534099189,-1.0876240557756265 L3.927915154885097,-1.4296441991012951 A4.18,4.18,0,0,1,4.128537263687676,-0.653896063868165 Z" fill="#7c8ab4" stroke="black" stroke-width="0.07" />
<path d="M3.041049123962453,0.9297420210183029 A3.18,3.18,0,0,0,3.131688654578822,0.5522012049808385 L4.116496407591029,0.7258493826477688 A4.18,4.18,0,0,1,3.997353879925488,1.2221137257410397 Z" fill="#7aa885" stroke="black" stroke-width="0.07" />
<path d="M2.539660921950391,1.9137717736235136 A3.18,3.18,0,0,0,2.7539607840345153,1.5899999999999999 L3.6199861878189536,2.0899999999999994 A4.18,4.18,0,0,1,3.338296431997684,2.5155867967755614 Z" fill="#78bd62" stroke="black" stroke-width="0.07" />
<path d="M-2.948444657522384,1.191248967062601 A3.18,3.18,0,0,0,-2.044064598803195,2.43602132911835 L-2.6868522084897344,3.202065772237328 A4.18,4.18,0,0,1,-3.875628512089171,1.5658555604785132 Z" fill="#e49300" stroke="black" stroke-width="0.07" />
<path d="M-3.1756419205195447,-0.16642834085256053 A3.18,3.18,0,0,0,-2.988222534099189,1.0876240557756272 L-3.9279151548850963,1.4296441991012958 A4.18,4.18,0,0,1,-4.174271455274118,-0.21876429709550407 Z" fill="#f43b00" stroke="black" stroke-width="0.07" />
<path d="M-1.1912489670626012,-2.948444657522384 A3.18,3.18,0,0,0,-1.5416945923833512,-2.7812906687032792 L-2.0265042126296877,-3.6559103758426748 A4.18,4.18,0,0,1,-1.5658555604785134,-3.875628512089171 Z" fill="#f80608" stroke="black" stroke-width="0.07" />
<path d="M0.4425704610530082,-3.149052458598194 A3.18,3.18,0,0,0,-1.0876240557756287,-2.9882225340991884 L-1.4296441991012978,-3.927915154885096 A4.18,4.18,0,0,1,0.5817435620130736,-4.1393205273397635 Z" fill="#d12e40" stroke="black" stroke-width="0.07" />
<path d="M2.0701370784518596,-3.73462614948522 A4.2700000000000005,4.2700000000000005,0,0,0,1.736765465933667,-3.9008391041339063 L2.1435021090094675,-4.814384561776507 A5.2700000000000005,5.2700000000000005,0,0,1,2.554946698698197,-4.609245856624616 Z" fill="#966d94" stroke="black" stroke-width="0.07" />
<path d="M3.8699342506464958,-1.8045799776327869 A4.2700000000000005,4.2700000000000005,0,0,0,3.6211653705879394,-2.262755258275785 L4.469213466744365,-2.79267452250899 A5.2700000000000005,5.2700000000000005,0,0,1,4.776242037683145,-2.2271982393734864 Z" fill="#8381ad" stroke="black" stroke-width="0.07" />
<path d="M4.104587441656622,-1.1769715093385866 A4.2700000000000005,4.2700000000000005,0,0,0,4.012487490755829,-1.4604260120006056 L4.952180111541738,-1.8024461553262743 A5.2700000000000005,5.2700000000000005,0,0,1,5.065849137594941,-1.4526088651555857 Z" fill="#7e87b5" stroke="black" stroke-width="0.07" />
<path d="M4.217429214341239,-0.6679751657217858 A4.2700000000000005,4.2700000000000005,0,0,0,4.160560176632955,-0.9605410020483036 L5.13493024141819,-1.1854920563921687 A5.2700000000000005,5.2700000000000005,0,0,1,5.205117554936376,-0.8244096307620168 Z" fill="#7c8eae" stroke="black" stroke-width="0.07" />
<path d="M4.061011324580306,1.3195025659810256 A4.2700000000000005,4.2700000000000005,0,0,0,4.205129105362129,0.7414777186377925 L5.189936858374336,0.915125896304723 A5.2700000000000005,5.2700000000000005,0,0,1,5.01206784087546,1.628519560355973 Z" fill="#7aa884" stroke="black" stroke-width="0.07" />
<path d="M3.73462614948522,2.0701370784518596 A4.2700000000000005,4.2700000000000005,0,0,0,4.012487490755829,1.4604260120006056 L4.952180111541738,1.8024461553262743 A5.2700000000000005,5.2700000000000005,0,0,1,4.609245856624616,2.5549466986981964 Z" fill="#79b472" stroke="black" stroke-width="0.07" />
<path d="M1.460426012000606,4.012487490755829 A4.2700000000000005,4.2700000000000005,0,0,0,2.3877536978200893,3.5399904348100284 L2.946946601290836,4.3690280073650705 A5.2700000000000005,5.2700000000000005,0,0,1,1.802446155326275,4.952180111541737 Z" fill="#bfe12c" stroke="black" stroke-width="0.07" />
<path d="M-1.7367654659336664,3.9008391041339068 A4.2700000000000005,4.2700000000000005,0,0,0,-0.7414777186377924,4.205129105362129 L-0.9151258963047227,5.189936858374336 A5.2700000000000005,5.2700000000000005,0,0,1,-2.1435021090094666,4.8143845617765075 Z" fill="#f3dc00" stroke="black" stroke-width="0.07" />
<path d="M-2.3877536978200884,3.5399904348100284 A4.2700000000000005,4.2700000000000005,0,0,0,-1.9385394338878645,3.8045978582843314 L-2.392529933627411,4.695604382472699 A5.2700000000000005,5.2700000000000005,0,0,1,-2.9469466012908354,4.3690280073650705 Z" fill="#ebc400" stroke="black" stroke-width="0.07" />
<path d="M-3.6601043739980197,2.1992125798659323 A4.2700000000000005,4.2700000000000005,0,0,0,-2.7447030933615233,3.2710097721180365 L-3.3874907030480625,4.037054215237014 A5.2700000000000005,5.2700000000000005,0,0,1,-4.517271674700132,2.7142506547759866 Z" fill="#e1a200" stroke="black" stroke-width="0.07" />
<path d="M-4.246608493222527,0.4463365381528815 A4.2700000000000005,4.2700000000000005,0,0,0,-4.012487490755829,1.4604260120006063 L-4.952180111541737,1.8024461553262752 A5.2700000000000005,5.2700000000000005,0,0,1,-5.2411303885908005,0.5508650014205352 Z" fill="#f14900" stroke="black" stroke-width="0.07" />
<path d="M-3.697928474159553,-2.1350000000000007 A4.2700000000000005,4.2700000000000005,0,0,0,-4.205129105362129,-0.7414777186377932 L-5.189936858374336,-0.9151258963047236 A5.2700000000000005,5.2700000000000005,0,0,1,-4.563953877943992,-2.6350000000000007 Z" fill="#ff0000" stroke="black" stroke-width="0.07" />
<path d="M-2.1992125798659328,-3.6601043739980192 A4.2700000000000005,4.2700000000000005,0,0,0,-3.2710097721180365,-2.744703093361523 L-4.037054215237014,-3.387490703048062 A5.2700000000000005,5.2700000000000005,0,0,1,-2.7142506547759875,-4.517271674700131 Z" fill="#ff0000" stroke="black" stroke-width="0.07" />
<path d="M-1.5995701538859457,-3.9590750590001824 A4.2700000000000005,4.2700000000000005,0,0,0,-2.0701370784518587,-3.734626149485221 L-2.5549466986981955,-4.609245856624617 A5.2700000000000005,5.2700000000000005,0,0,1,-1.9741767473018579,-4.886258913566969 Z" fill="#f80608" stroke="black" stroke-width="0.07" />
<path d="M0.5942691410994796,-4.228444653526506 A4.2700000000000005,4.2700000000000005,0,0,0,-1.4604260120006085,-4.012487490755828 L-1.8024461553262778,-4.952180111541737 A5.2700000000000005,5.2700000000000005,0,0,1,0.7334422420595451,-5.2187127222680765 Z" fill="#d12e40" stroke="black" stroke-width="0.07" />
<path d="M2.007891340709288,-4.9697054604779805 A5.36,5.36,0,0,0,1.5671123373138691,-5.12579349196187 L1.8594840420366059,-6.082098247924906 A6.36,6.36,0,0,1,2.3824979341252,-5.896889315044768 Z" fill="#9e6488" stroke="black" stroke-width="0.07" />
<path d="M2.598579564520367,-4.687961630267162 A5.36,5.36,0,0,0,2.1801084068862893,-4.896603652964341 L2.5868450499620894,-5.810149110606941 A6.36,6.36,0,0,1,3.083389184766704,-5.562581337406558 Z" fill="#966d94" stroke="black" stroke-width="0.07" />
<path d="M3.9200558406787547,-3.6555112099349922 A5.36,5.36,0,0,0,3.445341587919851,-4.105998215117722 L4.08812919760639,-4.8720426582367 A6.36,6.36,0,0,1,4.651409542297925,-4.337509569997491 Z" fill="#8d77a0" stroke="black" stroke-width="0.07" />
<path d="M4.443641388895023,-2.9972739626032037 A5.36,5.36,0,0,0,4.045243349994059,-3.5164763953891187 L4.799952930216831,-4.1725354243796255 A6.36,6.36,0,0,1,5.272678961450065,-3.5564668660739507 Z" fill="#887ca7" stroke="black" stroke-width="0.07" />
<path d="M4.857809738516444,-2.2652338829301493 A5.36,5.36,0,0,0,4.5455377953984435,-2.8403672562899787 L5.39358589155487,-3.3702865205231833 A6.36,6.36,0,0,1,5.764117525553094,-2.6878521446708485 Z" fill="#8381ad" stroke="black" stroke-width="0.07" />
<path d="M4.390654957388996,3.074369698841607 A5.36,5.36,0,0,0,4.641896164284592,2.6799999999999997 L5.5079215680690305,3.1799999999999997 A6.36,6.36,0,0,1,5.209807001677988,3.647946135192653 Z" fill="#78bc64" stroke="black" stroke-width="0.07" />
<path d="M3.1505289522876563,4.336331089849718 A5.36,5.36,0,0,0,4.105998215117722,3.4453415879198506 L4.8720426582367,4.08812919760639 A6.36,6.36,0,0,1,3.738314204580129,5.145348084224666 Z" fill="#95cd4a" stroke="black" stroke-width="0.07" />
<path d="M-0.7459678211459504,5.3078368484548175 A5.36,5.36,0,0,0,0.0935448985038389,5.359183646038257 L0.11099730494112228,6.359031341194648 A6.36,6.36,0,0,1,-0.8851409221060157,6.298104917196388 Z" fill="#fbf300" stroke="black" stroke-width="0.07" />
<path d="M-4.390654957388995,3.074369698841609 A5.36,5.36,0,0,0,-3.445341587919851,4.105998215117722 L-4.08812919760639,4.8720426582367 A6.36,6.36,0,0,1,-5.209807001677986,3.647946135192655 Z" fill="#e1a600" stroke="black" stroke-width="0.07" />
<path d="M-5.339603581771756,0.46715478112745035 A5.36,5.36,0,0,0,-5.036752447412469,1.8332279682255852 L-5.976445068198378,2.1752481115512543 A6.36,6.36,0,0,1,-6.335798279863502,0.5543105238751089 Z" fill="#f14800" stroke="black" stroke-width="0.07" />
<path d="M-4.594416731763323,-2.7606040815178905 A5.36,5.36,0,0,0,-5.2785695561454355,-0.9307542322947474 L-6.263377309157644,-1.1044024099616778 A6.36,6.36,0,0,1,-5.451584032465434,-3.2756421564279448 Z" fill="#ff0000" stroke="black" stroke-width="0.07" />
<path d="M-0.18706130232540885,-5.356734832822353 A5.36,5.36,0,0,0,-1.833227968225588,-5.036752447412468 L-2.1752481115512574,-5.976445068198377 A6.36,6.36,0,0,1,-0.2219607990279105,-6.356125659841449 Z" fill="#db2431" stroke="black" stroke-width="0.07" />
</svg>