<?xml version="1.0" encoding="UTF-8"?>
<svg xmlns="http://www.w3.org/2000/svg" xmlns:xlink="http://www.w3.org/1999/xlink"
     width="600" height="600.0" viewBox="-7.0 -7.0 14 14">
<defs>
</defs>
<path d="M0.17364817766693041,-0.984807753012208 A1.0,1.0,0,1,0,0.20791169081775904,-0.9781476007338057 L0.4158233816355181,-1.9562952014676114 A2.0,2.0,0,1,1,0.34729635533386083,-1.969615506024416 Z" fill="red" stroke="black" stroke-width="0.07" />
<path d="M1.3278660251151573,-1.6397779786742086 A2.1100000000000003,2.1100000000000003,0,0,0,0.36639765487722326,-2.0779443588557593 L0.5400458325441536,-3.0627521118679675 A3.1100000000000003,3.1100000000000003,0,0,1,1.9571864161649948,-2.4169239401311793 Z" fill="#976b93" stroke="black" stroke-width="0.07" />
<path d="M1.995044194514559,-0.6869488059046006 A2.1100000000000003,2.1100000000000003,0,0,0,1.411865579417191,-1.568035581757302 L2.0809961857760495,-2.311180407234696 A3.1100000000000003,3.1100000000000003,0,0,1,2.9405627701138757,-1.0125169603617572 Z" fill="#867eaa" stroke="black" stroke-width="0.07" />
<path d="M1.4919953083036157,1.4919953083036153 A2.1100000000000003,2.1100000000000003,0,0,0,2.0282621784298533,0.5815948207738684 L2.9895238743681722,0.8572321765908675 A3.1100000000000003,3.1100000000000003,0,0,1,2.199102089490163,2.1991020894901627 Z" fill="#78ba67" stroke="black" stroke-width="0.07" />
<path d="M-1.6397779786742084,1.3278660251151577 A2.1100000000000003,2.1100000000000003,0,0,0,-0.7904199121075746,1.9563579331359218 L-1.1650265055234867,2.883541787702709 A3.1100000000000003,3.1100000000000003,0,0,1,-2.4169239401311793,1.9571864161649954 Z" fill="#e8ba00" stroke="black" stroke-width="0.07" />
<path d="M-2.0942723799631895,0.25714431458486137 A2.1100000000000003,2.1100000000000003,0,0,0,-1.707025858131139,1.2402268823371188 L-2.5160428525060863,1.828012134629592 A3.1100000000000003,3.1100000000000003,0,0,1,-3.0868185316045116,0.3790136579900089 Z" fill="#ec6500" stroke="black" stroke-width="0.07" />
<path d="M0.25714431458486164,-2.0942723799631895 A2.1100000000000003,2.1100000000000003,0,0,0,0.07363793804227771,-2.1087146450102923 L0.10853743474477899,-3.108105472029388 A3.1100000000000003,3.1100000000000003,0,0,1,0.37901365799000936,-3.0868185316045116 Z" fill="#bc445d" stroke="black" stroke-width="0.07" />
<path d="M2.069776103190657,-2.4666631068431095 A3.22,3.22,0,0,0,0.559147132087516,-3.17108096469931 L0.7327953097544465,-4.155888717711519 A4.220000000000001,4.220000000000001,0,0,1,2.7125637128771967,-3.232707549962088 Z" fill="#966c93" stroke="black" stroke-width="0.07" />
<path d="M2.3929263380372094,-2.154600552475524 A3.22,3.22,0,0,0,2.154600552475524,-2.3929263380372094 L2.823731158834382,-3.136071163514604 A4.220000000000001,4.220000000000001,0,0,1,3.1360711635146044,-2.823731158834382 Z" fill="#8c77a1" stroke="black" stroke-width="0.07" />
<path d="M2.7005192287842656,-1.7537376927483874 A3.22,3.22,0,0,0,2.5024099958914463,-2.0264116591804764 L3.2795559573484176,-2.655732050230314 A4.220000000000001,4.220000000000001,0,0,1,3.53918979672969,-2.2983767277634146 Z" fill="#877da8" stroke="black" stroke-width="0.07" />
<path d="M2.941616373609175,-1.3096919907040765 A3.22,3.22,0,0,0,2.788601800185893,-1.6099999999999999 L3.654627203970332,-2.11 A4.220000000000001,4.220000000000001,0,0,1,3.855161831251776,-1.7164286337798769 Z" fill="#8282ae" stroke="black" stroke-width="0.07" />
<path d="M2.9855320117050557,1.2062332307992367 A3.22,3.22,0,0,0,3.095262660921387,0.8875522857307374 L4.056524356859707,1.1631896415477367 A4.220000000000001,4.220000000000001,0,0,1,3.9127158662718435,1.580839824215149 Z" fill="#79ae7b" stroke="black" stroke-width="0.07" />
<path d="M2.760078708260802,1.6584226012103744 A3.22,3.22,0,0,0,2.918311074258013,1.3608308028050522 L3.824618861294663,1.783449064545752 A4.220000000000001,4.220000000000001,0,0,1,3.6172460089629146,2.173460676120429 Z" fill="#78b76c" stroke="black" stroke-width="0.07" />
<path d="M2.4666631068431095,2.0697761031906565 A3.22,3.22,0,0,0,2.669500983627234,1.8006011491758052 L3.498538556182276,2.3597940526465524 A4.220000000000001,4.220000000000001,0,0,1,3.232707549962088,2.712563712877196 Z" fill="#7bc15c" stroke="black" stroke-width="0.07" />
<path d="M-0.5591471320875157,3.17108096469931 A3.22,3.22,0,0,0,0.559147132087516,3.17108096469931 L0.7327953097544465,4.155888717711519 A4.220000000000001,4.220000000000001,0,0,1,-0.732795309754446,4.155888717711519 Z" fill="#fdfa00" stroke="black" stroke-width="0.07" />
<path d="M-2.276883835420683,2.2768838354206835 A3.22,3.22,0,0,0,-1.206233230799237,2.9855320117050557 L-1.5808398242151491,3.9127158662718435 A4.220000000000001,4.220000000000001,0,0,1,-2.9839906166072305,2.9839906166072314 Z" fill="#e9bf00" stroke="black" stroke-width="0.07" />
<path d="M-3.2077469278554207,-0.2806414916474586 A3.22,3.22,0,0,0,-3.212156241836634,0.2246158454560842 L-4.209720292096459,0.29437231920020973 A4.220000000000001,4.220000000000001,0,0,1,-4.2039416259471665,-0.3677972343951166 Z" fill="#f91e00" stroke="black" stroke-width="0.07" />
<path d="M-3.0793013142009746,-0.9414368892072112 A3.22,3.22,0,0,0,-3.1886631813478563,-0.448137385091411 L-4.178931250089427,-0.5873104860514766 A4.220000000000001,4.220000000000001,0,0,1,-4.03560607016401,-1.2338085939299477 Z" fill="#ff0000" stroke="black" stroke-width="0.07" />
<path d="M-1.7063400308309202,-2.7307148696236916 A3.22,3.22,0,0,0,-1.9378443745495955,-2.571606342352283 L-2.539659397701644,-3.3702418523995763 A4.220000000000001,4.220000000000001,0,0,1,-2.2362592950641256,-3.578762965780118 Z" fill="#ff0000" stroke="black" stroke-width="0.07" />
<path d="M-0.6144049651124764,-3.160839530701478 A3.22,3.22,0,0,0,-1.6100000000000014,-2.7886018001858917 L-2.110000000000002,-3.6546272039703305 A4.220000000000001,4.220000000000001,0,0,1,-0.805213960489022,-4.142466714149142 Z" fill="#ee1016" stroke="black" stroke-width="0.07" />
<path d="M-5.915044039881715e-16,-3.22 A3.22,3.22,0,0,0,-0.4481373850914091,-3.1886631813478568 L-0.5873104860514742,-4.178931250089428 A4.220000000000001,4.220000000000001,0,0,1,-7.752014238602747e-16,-4.220000000000001 Z" fill="#cd3345" stroke="black" stroke-width="0.07" />
<path d="M2.7832703499427156,-3.3169724387051747 A4.33,4.33,0,0,0,0.7518966092978087,-4.26421757054286 L0.9255447869647391,-5.249025323555069 A5.33,5.33,0,0,1,3.426057959629255,-4.083016881824153 Z" fill="#966c93" stroke="black" stroke-width="0.07" />
<path d="M3.267892482364603,-2.840735595528896 A4.33,4.33,0,0,0,2.8973355255338564,-3.2178170943171165 L3.5664661318927147,-3.960961919794511 A5.33,5.33,0,0,1,4.022602062587375,-3.4967946245194033 Z" fill="#8c78a2" stroke="black" stroke-width="0.07" />
<path d="M3.985786015449067,-1.6918657863585551 A4.33,4.33,0,0,0,3.7498899983866196,-2.1649999999999996 L4.6159154021710584,-2.6649999999999996 A5.33,5.33,0,0,1,4.9062908689015075,-2.0825969148478287 Z" fill="#8282af" stroke="black" stroke-width="0.07" />
<path d="M4.287860737651,0.6026195271570833 A4.33,4.33,0,0,0,4.324065885487305,-0.22661469053194677 L5.322695420241879,-0.2789506467748906 A5.33,5.33,0,0,1,5.27812880639257,0.7417926281171487 Z" fill="#7b9c97" stroke="black" stroke-width="0.07" />
<path d="M3.6720482563573245,2.2945504141297772 A4.33,4.33,0,0,0,3.9243127178686943,1.8299370733372287 L4.830620504905344,2.252555335077928 A5.33,5.33,0,0,1,4.52009635251375,2.8244696783629823 Z" fill="#78b86b" stroke="black" stroke-width="0.07" />
<path d="M3.267892482364603,2.840735595528896 A4.33,4.33,0,0,0,3.58973268916333,2.4213052720283343 L4.418770261718372,2.980498175499081 A5.33,5.33,0,0,1,4.022602062587375,3.4967946245194033 Z" fill="#7cc25b" stroke="black" stroke-width="0.07" />
<path d="M0.9002576212408985,4.235379111177378 A4.33,4.33,0,0,0,2.8973355255338564,3.2178170943171165 L3.5664661318927147,3.960961919794511 A5.33,5.33,0,0,1,1.108169312058658,5.213526711911184 Z" fill="#bfe12c" stroke="black" stroke-width="0.07" />
<path d="M0.07556891987343702,4.329340520027174 A4.33,4.33,0,0,0,0.7518966092978087,4.26421757054286 L0.9255447869647391,5.249025323555069 A5.33,5.33,0,0,1,0.0930213263107204,5.3291882151835654 Z" fill="#f8fb04" stroke="black" stroke-width="0.07" />
<path d="M-0.826202949980439,4.250445704328385 A4.33,4.33,0,0,0,-0.1511148207218282,4.327362280992685 L-0.18601431742432892,5.326753108011781 A5.33,5.33,0,0,1,-1.017011945356984,5.232072887776049 Z" fill="#f9ee00" stroke="black" stroke-width="0.07" />
<path d="M-2.0992256556666393,3.7871033319135843 A4.33,4.33,0,0,0,-1.6220465494908993,4.014706090274189 L-1.9966531429068113,4.941889944840977 A5.33,5.33,0,0,1,-2.584035275912976,4.66172303905298 Z" fill="#eecd00" stroke="black" stroke-width="0.07" />
<path d="M-3.1147413354663596,3.0078707440874575 A4.33,4.33,0,0,0,-2.8973355255338564,3.217817094317117 L-3.5664661318927147,3.9609619197945114 A5.33,5.33,0,0,1,-3.834081135805011,3.7025291145464547 Z" fill="#e3ad00" stroke="black" stroke-width="0.07" />
<path d="M-4.094095432345042,-1.4097101087994888 A4.33,4.33,0,0,0,-4.287860737650999,-0.6026195271570837 L-5.278128806392569,-0.7417926281171492 A5.33,5.33,0,0,1,-5.039614007944358,-1.7352782632566455 Z" fill="#ff0000" stroke="black" stroke-width="0.07" />
<path d="M-3.891778220475394,-1.8981470655967037 A4.33,4.33,0,0,0,-4.068869048002983,-1.4809472206001453 L-5.008561668788892,-1.822967363925814 A5.33,5.33,0,0,1,-4.790572266774561,-2.336518212385781 Z" fill="#ff0000" stroke="black" stroke-width="0.07" />
<path d="M-2.2945504141297777,-3.6720482563573245 A4.33,4.33,0,0,0,-2.605859050248369,-3.458091758504778 L-3.207674073400417,-4.256727268552071 A5.33,5.33,0,0,1,-2.824469678362983,-4.52009635251375 Z" fill="#ff0000" stroke="black" stroke-width="0.07" />
<path d="M-1.3380435856435229,-4.118074715558015 A4.33,4.33,0,0,0,-2.165000000000002,-3.7498899983866183 L-2.6650000000000023,-4.615915402171057 A5.33,5.33,0,0,1,-1.6470605800184706,-5.069131231853168 Z" fill="#f5090c" stroke="black" stroke-width="0.07" />
<path d="M3.4967645966947742,-4.16728177056724 A5.44,5.44,0,0,0,0.9446460865081016,-5.357354176386412 L1.118294264175032,-6.34216192939862 A6.44,6.44,0,0,1,4.139552206381314,-4.933326213686219 Z" fill="#966c93" stroke="black" stroke-width="0.07" />
<path d="M4.105620116411881,-3.5689611177083593 A5.44,5.44,0,0,0,3.640070498592189,-4.042707850597024 L4.309201104951048,-4.785852676074419 A6.44,6.44,0,0,1,4.860329696634653,-4.225020146698866 Z" fill="#8c78a2" stroke="black" stroke-width="0.07" />
<path d="M4.930314361479376,-2.299043343869405 A5.44,5.44,0,0,0,4.711178196587347,-2.7199999999999998 L5.577203600371786,-3.2199999999999998 A6.44,6.44,0,0,1,5.836622148516026,-2.7216616056101044 Z" fill="#8382ae" stroke="black" stroke-width="0.07" />
<path d="M5.3211229479919036,-1.1310395980486108 A5.44,5.44,0,0,0,5.229263625904455,-1.4994672156444755 L6.190525321842774,-1.7751045714614748 A6.44,6.44,0,0,1,6.299270548725709,-1.3389512888663702 Z" fill="#7c8ab4" stroke="black" stroke-width="0.07" />
<path d="M4.105620116411881,3.5689611177083593 A5.44,5.44,0,0,0,4.509964394699427,3.0420093948808633 L5.339001967254468,3.6012022983516103 A6.44,6.44,0,0,1,4.860329696634653,4.225020146698866 Z" fill="#7cc25b" stroke="black" stroke-width="0.07" />
<path d="M2.299043343869405,4.930314361479376 A5.44,5.44,0,0,0,3.640070498592189,4.042707850597024 L4.309201104951048,4.785852676074419 A6.44,6.44,0,0,1,2.7216616056101044,5.836622148516026 Z" fill="#aed938" stroke="black" stroke-width="0.07" />
<path d="M1.1310395980486114,5.321122947991903 A5.44,5.44,0,0,0,2.037859868182561,5.043880168843324 L2.412466461598473,5.971064023410111 A6.44,6.44,0,0,1,1.338951288866371,6.299270548725708 Z" fill="#d9ed1a" stroke="black" stroke-width="0.07" />
<path d="M3.3310392936808007e-16,5.44 A5.44,5.44,0,0,0,0.9446460865081016,5.357354176386412 L1.118294264175032,6.34216192939862 A6.44,6.44,0,0,1,3.9433626932544775e-16,6.44 Z" fill="#f9fc03" stroke="black" stroke-width="0.07" />
<path d="M-3.4967645966947742,4.16728177056724 A5.44,5.44,0,0,0,-2.8827607974286344,4.613381643090958 L-3.412680061661839,5.461429739247384 A6.44,6.44,0,0,1,-4.139552206381314,4.933326213686219 Z" fill="#e8bb00" stroke="black" stroke-width="0.07" />
<path d="M-3.913208513842263,3.7789415352969447 A5.44,5.44,0,0,0,-3.640070498592189,4.042707850597025 L-4.309201104951048,4.785852676074419 A6.44,6.44,0,0,1,-4.632548314180914,4.4735999057559415 Z" fill="#e3ad00" stroke="black" stroke-width="0.07" />
<path d="M-4.286778499620567,3.349198425771582 A5.44,5.44,0,0,0,-4.042707850597024,3.64007049859219 L-4.785852676074418,4.309201104951048 A6.44,6.44,0,0,1,-5.07478925322729,3.9648599010972405 Z" fill="#e1a000" stroke="black" stroke-width="0.07" />
<path d="M-4.711178196587347,2.7199999999999998 A5.44,5.44,0,0,0,-4.401052449399714,3.1975517724710545 L-5.210069443774661,3.785337024763528 A6.44,6.44,0,0,1,-5.577203600371786,3.2199999999999998 Z" fill="#e58900" stroke="black" stroke-width="0.07" />
<path d="M-5.111927857075342,-1.8605895796916376 A5.44,5.44,0,0,0,-5.3870582939541425,-0.7571016692227565 L-6.377326362695713,-0.896274770182822 A6.44,6.44,0,0,1,-6.051620477861251,-2.2026097230173063 Z" fill="#ff0000" stroke="black" stroke-width="0.07" />
<path d="M-3.6400704985921903,-4.042707850597024 A5.44,5.44,0,0,0,-4.8032349051525625,-2.5539253015552466 L-5.6861824980114895,-3.0233968643411373 A6.44,6.44,0,0,1,-4.309201104951049,-4.785852676074418 Z" fill="#ff0000" stroke="black" stroke-width="0.07" />
<path d="M-2.8827607974286353,-4.613381643090958 A5.44,5.44,0,0,0,-3.273873725947143,-4.344577174657274 L-3.875688749099191,-5.143212684704566 A6.44,6.44,0,0,1,-3.4126800616618405,-5.461429739247383 Z" fill="#ff0000" stroke="black" stroke-width="0.07" />
<path d="M-1.59050207369169,-5.202297872438913 A5.44,5.44,0,0,0,-2.7200000000000024,-4.711178196587345 L-3.220000000000003,-5.577203600371783 A6.44,6.44,0,0,1,-1.8828737784144272,-6.1586026284019475 Z" fill="#f40a0e" stroke="black" stroke-width="0.07" />
<path d="M0.6629692281240035,-5.399451064928792 A5.44,5.44,0,0,0,0.189853262061607,-5.436686098983881 L0.22475275876410827,-6.436076926002977 A6.44,6.44,0,0,1,0.7848385715291512,-6.391997216570114 Z" fill="#bc445d" stroke="black" stroke-width="0.07" />
</svg>