<?xml version="1.0" encoding="UTF-8"?>
<svg xmlns="http://www.w3.org/2000/svg" xmlns:xlink="http://www.w3.org/1999/xlink"
     width="600" height="600.0" viewBox="-7.0 -7.0 14 14">
<defs>
</defs>
<path d="M0.17364817766693041,-0.984807753012208 A1.0,1.0,0,1,0,0.20791169081775904,-0.9781476007338057 L0.4158233816355181,-1.9562952014676114 A2.0,2.0,0,1,1,0.34729635533386083,-1.969615506024416 Z" fill="red" stroke="black" stroke-width="0.07" />
<path d="M1.7914796584674146,-1.076429576562013 A2.09,2.09,0,0,0,0.36292469132388455,-2.0582482037955145 L0.5365728689908149,-3.0430559568077227 A3.09,3.09,0,0,1,2.648646959169527,-1.5914676514720674 Z" fill="#91719a" stroke="black" stroke-width="0.07" />
<path d="M1.9511830913791515,0.7489890145496775 A2.09,2.09,0,0,0,1.8453604690751573,-0.9811955662225117 L2.7283080619340843,-1.4506671290084026 A3.09,3.09,0,0,1,2.8847635178763533,1.1073569640949779 Z" fill="#7b96a2" stroke="black" stroke-width="0.07" />
<path d="M0.6110568628705199,1.998676939962744 A2.09,2.09,0,0,0,1.9093100064730357,0.8500795840284222 L2.8228554641156367,1.2568162271042225 A3.09,3.09,0,0,1,0.9034285675932566,2.9549816959257793 Z" fill="#99cf47" stroke="black" stroke-width="0.07" />
<path d="M-1.371163370590161,-1.5773430226655927 A2.09,2.09,0,0,0,-2.09,2.559511810217968e-16 L-3.09,3.784158609365321e-16 A3.09,3.09,0,0,1,-2.0272223995806686,-2.3320526028883646 Z" fill="#ff0000" stroke="black" stroke-width="0.07" />
<path d="M0.2547069277167586,-2.074421456930363 A2.09,2.09,0,0,0,-1.2867324834306253,-1.646942475038049 L-1.9023939587562833,-2.4349532286447713 A3.09,3.09,0,0,1,0.37657627112190634,-3.0669676085716846 Z" fill="#e41b25" stroke="black" stroke-width="0.07" />
<path d="M0.769311628006944,-3.085540409557669 A3.18,3.18,0,0,0,0.5522012049808388,-3.131688654578822 L0.7258493826477691,-4.116496407591029 A4.18,4.18,0,0,1,1.0112335236066117,-4.055836135833665 Z" fill="#ad5473" stroke="black" stroke-width="0.07" />
<path d="M1.492919569659133,-2.8077733452913876 A3.18,3.18,0,0,0,1.2934225249810447,-2.9050745553034707 L1.7001591680568449,-3.8186200129460715 A4.18,4.18,0,0,1,1.9623911324450236,-3.690720938150314 Z" fill="#966c94" stroke="black" stroke-width="0.07" />
<path d="M2.1278353282211695,-2.3632005450181133 A3.18,3.18,0,0,0,1.9578034915355935,-2.5058741964693763 L2.5734649668612515,-3.2938849500760976 A4.18,4.18,0,0,1,2.7969659345800273,-3.1063453704955073 Z" fill="#8f759e" stroke="black" stroke-width="0.07" />
<path d="M2.3999764651084154,-2.0862677121898128 A3.18,3.18,0,0,0,2.2485995641732215,-2.248599564173221 L2.9557063453597685,-2.955706345359768 A4.18,4.18,0,0,1,3.154686045331187,-2.7423267411803196 Z" fill="#8b79a3" stroke="black" stroke-width="0.07" />
<path d="M3.167899139931751,0.27715526193755297 A3.18,3.18,0,0,0,3.131688654578822,-0.5522012049808385 L4.116496407591029,-0.7258493826477688 A4.18,4.18,0,0,1,4.164093838023496,0.3643110046852111 Z" fill="#7b97a0" stroke="black" stroke-width="0.07" />
<path d="M1.541694592383352,2.781290668703279 A3.18,3.18,0,0,0,2.2875005650769107,2.209013618059611 L3.0068403654155618,2.9036719885186084 A4.18,4.18,0,0,1,2.026504212629689,3.655910375842674 Z" fill="#a4d43f" stroke="black" stroke-width="0.07" />
<path d="M-0.6067726052974125,3.1215744433635715 A3.18,3.18,0,0,0,0.769311628006944,3.085540409557669 L1.0112335236066117,4.055836135833665 A4.18,4.18,0,0,1,-0.7975816006739572,4.103201626811235 Z" fill="#fefc00" stroke="black" stroke-width="0.07" />
<path d="M-1.8691571022900644,2.572674042112333 A3.18,3.18,0,0,0,-0.7693116280069436,3.085540409557669 L-1.0112335236066112,4.055836135833665 A4.18,4.18,0,0,1,-2.4569423545825373,3.3816910364872803 Z" fill="#eece00" stroke="black" stroke-width="0.07" />
<path d="M-3.1780628299207248,0.11098039951395222 A3.18,3.18,0,0,0,-3.131688654578822,0.5522012049808384 L-4.116496407591029,0.7258493826477685 A4.18,4.18,0,0,1,-4.17745365693982,0.14587989621645292 Z" fill="#f53300" stroke="black" stroke-width="0.07" />
<path d="M0.38754451202836965,-3.1562967622194043 A3.18,3.18,0,0,0,-1.9578034915355929,-2.5058741964693767 L-2.5734649668612506,-3.293884950076098 A4.18,4.18,0,0,1,0.5094138554335172,-4.148842913860726 Z" fill="#e41b25" stroke="black" stroke-width="0.07" />
<path d="M1.1051573225877638,-4.1245032782543225 A4.2700000000000005,4.2700000000000005,0,0,0,0.741477718637793,-4.205129105362129 L0.9151258963047234,-5.189936858374336 A5.2700000000000005,5.2700000000000005,0,0,1,1.3639763676902845,-5.09042910454339 Z" fill="#ac5574" stroke="black" stroke-width="0.07" />
<path d="M2.5098430272888606,-3.454502565981026 A4.2700000000000005,4.2700000000000005,0,0,0,2.1992125798659323,-3.6601043739980197 L2.7142506547759866,-4.517271674700132 A5.2700000000000005,5.2700000000000005,0,0,1,3.097628279581334,-4.263519560355974 Z" fill="#927199" stroke="black" stroke-width="0.07" />
<path d="M3.581123325126961,-2.3256086795141657 A4.2700000000000005,4.2700000000000005,0,0,0,3.3648059179007035,-2.6288744996405606 L4.152816671507425,-3.244535974966219 A5.2700000000000005,5.2700000000000005,0,0,1,4.419793893072385,-2.870247714529193 Z" fill="#877da8" stroke="black" stroke-width="0.07" />
<path d="M3.9008391041339063,-1.7367654659336669 A4.2700000000000005,4.2700000000000005,0,0,0,3.7701862215076187,-2.004643573095754 L4.653133814366545,-2.474115135881645 A5.2700000000000005,5.2700000000000005,0,0,1,4.814384561776507,-2.143502109009467 Z" fill="#8283af" stroke="black" stroke-width="0.07" />
<path d="M4.083421307962162,-1.2484271791660861 A4.2700000000000005,4.2700000000000005,0,0,0,3.986388421143052,-1.5302311445584322 L4.919968847640254,-1.8885990941037325 A5.2700000000000005,5.2700000000000005,0,0,1,5.0397260639251975,-1.540798883888823 Z" fill="#7e87b4" stroke="black" stroke-width="0.07" />
<path d="M4.26739883137154,-0.14902085091967915 A4.2700000000000005,4.2700000000000005,0,0,0,4.205129105362129,-0.7414777186377925 L5.189936858374336,-0.915125896304723 A5.2700000000000005,5.2700000000000005,0,0,1,5.2667896583906355,-0.18392034762218012 Z" fill="#7c93a6" stroke="black" stroke-width="0.07" />
<path d="M4.246608493222527,0.4463365381528803 A4.2700000000000005,4.2700000000000005,0,0,0,4.2693496583177915,0.0745217754872006 L5.2691973534741825,0.09197418192448412 A5.2700000000000005,5.2700000000000005,0,0,1,5.2411303885908005,0.5508650014205337 Z" fill="#7b9d96" stroke="black" stroke-width="0.07" />
<path d="M3.173228404788474,2.857187689152325 A4.2700000000000005,4.2700000000000005,0,0,0,3.3648059179007035,2.6288744996405606 L4.152816671507425,3.244535974966219 A5.2700000000000005,5.2700000000000005,0,0,1,3.916373230265868,3.5263182955111834 Z" fill="#83c557" stroke="black" stroke-width="0.07" />
<path d="M1.1769715093385866,4.104587441656622 A4.2700000000000005,4.2700000000000005,0,0,0,1.871844796789361,3.8378505776974436 L2.3102159435784384,4.736644623996611 A5.2700000000000005,5.2700000000000005,0,0,1,1.4526088651555857,5.065849137594941 Z" fill="#cfe821" stroke="black" stroke-width="0.07" />
<path d="M-2.1349999999999993,3.6979284741595535 A4.2700000000000005,4.2700000000000005,0,0,0,-1.0330064942105817,4.143162751198505 L-1.2749283898102493,5.113458477474502 A5.2700000000000005,5.2700000000000005,0,0,1,-2.634999999999999,4.563953877943993 Z" fill="#f0d300" stroke="black" stroke-width="0.07" />
<path d="M-2.7447030933615237,-3.271009772118036 A4.2700000000000005,4.2700000000000005,0,0,0,-3.7346261494852206,-2.070137078451859 L-4.609245856624616,-2.554946698698196 A5.2700000000000005,5.2700000000000005,0,0,1,-3.3874907030480634,-4.0370542152370135 Z" fill="#ff0000" stroke="black" stroke-width="0.07" />
<path d="M0.5203820963399807,-4.2381720675084456 A4.2700000000000005,4.2700000000000005,0,0,0,0.22347453315737068,-4.2641481134020305 L0.2758104894003146,-5.262777648156605 A5.2700000000000005,5.2700000000000005,0,0,1,0.6422514397451283,-5.230718219149767 Z" fill="#bb455f" stroke="black" stroke-width="0.07" />
<path d="M3.6555112099349922,-3.920055840678754 A5.36,5.36,0,0,0,3.299945507745529,-4.22373763933203 L3.915606983071187,-5.0117483929387525 A6.36,6.36,0,0,1,4.337509569997491,-4.651409542297924 Z" fill="#8e759e" stroke="black" stroke-width="0.07" />
<path d="M4.495274244187473,-2.9192652276805453 A5.36,5.36,0,0,0,4.22373763933203,-3.299945507745528 L5.0117483929387525,-3.915606983071186 A6.36,6.36,0,0,1,5.333944812132898,-3.4639042626955723 Z" fill="#877da8" stroke="black" stroke-width="0.07" />
<path d="M5.152362690229389,-1.4774162271791156 A5.36,5.36,0,0,0,5.003991086025001,-1.9208522095628096 L5.9375715125222035,-2.27922015910811 A6.36,6.36,0,0,1,6.113624386167708,-1.7530535829961147 Z" fill="#7e87b4" stroke="black" stroke-width="0.07" />
<path d="M3.1505289522876563,4.336331089849718 A5.36,5.36,0,0,0,3.8556613298151707,3.7233688656602255 L4.575001130153821,4.418027236119222 A6.36,6.36,0,0,1,3.738314204580129,5.145348084224666 Z" fill="#9ad046" stroke="black" stroke-width="0.07" />
<path d="M2.516367576532375,4.732599097723848 A5.36,5.36,0,0,0,2.997273962603203,4.443641388895024 L3.55646686607395,5.272678961450065 A6.36,6.36,0,0,1,2.985839139318266,5.615546690582775 Z" fill="#b5dc33" stroke="black" stroke-width="0.07" />
<path d="M1.4774162271791156,5.152362690229389 A5.36,5.36,0,0,0,2.3496693467894554,4.817536088163536 L2.788040493578533,5.716330134462702 A6.36,6.36,0,0,1,1.7530535829961147,6.113624386167708 Z" fill="#cfe821" stroke="black" stroke-width="0.07" />
<path d="M-1.114406662783189,5.242871139933198 A5.36,5.36,0,0,0,-0.6532196806515899,5.320047372797487 L-0.7750890240567373,6.3125935244388085 A6.36,6.36,0,0,1,-1.3223183536009482,6.221018740667004 Z" fill="#f7e900" stroke="black" stroke-width="0.07" />
<path d="M-4.817536088163536,2.3496693467894545 A5.36,5.36,0,0,0,-3.299945507745529,4.22373763933203 L-3.915606983071187,5.0117483929387525 A6.36,6.36,0,0,1,-5.716330134462702,2.788040493578532 Z" fill="#e29d00" stroke="black" stroke-width="0.07" />
<path d="M-5.356734832822354,0.18706130232540374 A5.36,5.36,0,0,0,-5.2785695561454355,0.9307542322947463 L-6.263377309157644,1.1044024099616767 A6.36,6.36,0,0,1,-6.3561256598414495,0.22196079902790444 Z" fill="#f53300" stroke="black" stroke-width="0.07" />
<path d="M-3.445341587919852,-4.1059982151177215 A5.36,5.36,0,0,0,-4.687961630267162,-2.598579564520366 L-5.562581337406558,-3.083389184766703 A6.36,6.36,0,0,1,-4.088129197606391,-4.872042658236699 Z" fill="#ff0000" stroke="black" stroke-width="0.07" />
<path d="M0.09354489850383758,-5.359183646038257 A5.36,5.36,0,0,0,-3.2999455077455275,-4.223737639332031 L-3.9156069830711857,-5.011748392938753 A6.36,6.36,0,0,1,0.11099730494112071,-6.359031341194648 Z" fill="#ea141c" stroke="black" stroke-width="0.07" />
<path d="M0.6532196806515916,-5.320047372797486 A5.36,5.36,0,0,0,0.28052072546217954,-5.352654306284516 L0.3328566817051235,-6.3512838410390895 A6.36,6.36,0,0,1,0.7750890240567393,-6.3125935244388085 Z" fill="#bb455f" stroke="black" stroke-width="0.07" />
</svg>