<?xml version="1.0" encoding="UTF-8"?>
<svg xmlns="http://www.w3.org/2000/svg" xmlns:xlink="http://www.w3.org/1999/xlink"
     width="600" height="600.0" viewBox="-7.0 -7.0 14 14">
<defs>
</defs>
<path d="M0.5000000000000001,0.8660254037844386 A1.0,1.0,0,1,0,0.4694715627858902,0.8829475928589272 L0.9389431255717804,1.7658951857178544 A2.0,2.0,0,1,1,1.0000000000000002,1.7320508075688772 Z" fill="red" stroke="black" stroke-width="0.07" />
<path d="M-1.9378142560445857,0.782927780239256 A2.09,2.09,0,0,0,1.0450000000000002,1.8099930939094766 L1.5450000000000004,2.676018497693915 A3.09,3.09,0,0,1,-2.864998110611373,1.157534373655168 Z" fill="#8580ac" stroke="black" stroke-width="0.07" />
<path d="M-0.7998083736430375,-1.9309082229485892 A2.09,2.09,0,0,0,-1.9576448755291511,0.7319334268322866 L-2.8943170647775487,1.0821408080917538 A3.09,3.09,0,0,1,-1.1824918060081273,-2.854787755459876 Z" fill="#c0e22b" stroke="black" stroke-width="0.07" />
<path d="M1.7724205209669301,-1.107531262247398 A2.09,2.09,0,0,0,-0.7489890145496775,-1.9511830913791515 L-1.1073569640949779,-2.8847635178763533 A3.09,3.09,0,0,1,2.620468617123356,-1.637450526480603 Z" fill="#e68500" stroke="black" stroke-width="0.07" />
<path d="M1.5892484681040646,1.3573464210100838 A2.09,2.09,0,0,0,1.8008049453227888,-1.0607551785878715 L2.662434105764315,-1.5682935415485755 A3.09,3.09,0,0,1,2.3496544337040954,2.0067944693402673 Z" fill="#ff0000" stroke="black" stroke-width="0.07" />
<path d="M0.6067726052974107,3.121574443363572 A3.18,3.18,0,0,0,1.5900000000000005,2.753960784034515 L2.0900000000000003,3.619986187818953 A4.18,4.18,0,0,1,0.7975816006739549,4.103201626811235 Z" fill="#9e6488" stroke="black" stroke-width="0.07" />
<path d="M-0.4150732912597642,3.152794659168717 A3.18,3.18,0,0,0,0.5248513866369554,3.136388212888396 L0.6898989924976331,4.122673814425626 A4.18,4.18,0,0,1,-0.5455994834798158,4.144239520542527 Z" fill="#8f749d" stroke="black" stroke-width="0.07" />
<path d="M-1.2934225249810443,2.905074555303471 A3.18,3.18,0,0,0,-0.4974615988279347,3.140848923092538 L-0.6538960638681657,4.128537263687675 A4.18,4.18,0,0,1,-1.7001591680568442,3.818620012946072 Z" fill="#867eaa" stroke="black" stroke-width="0.07" />
<path d="M-1.9795965445076305,2.488693938790676 A3.18,3.18,0,0,0,-1.3690252878503786,2.870221204232557 L-1.7995363846586736,3.7728064885824173 A4.18,4.18,0,0,1,-2.6021111811452498,3.2713020956430894 Z" fill="#7e87b5" stroke="black" stroke-width="0.07" />
<path d="M-2.471324157433167,2.001238843538484 A3.18,3.18,0,0,0,-2.0440645988031956,2.4360213291183497 L-2.686852208489735,3.2020657722373276 A4.18,4.18,0,0,1,-3.2484701188901375,2.630559234588321 Z" fill="#7b94a3" stroke="black" stroke-width="0.07" />
<path d="M-2.79463841826505,1.5173648576255547 A3.18,3.18,0,0,0,-2.522863622126128,1.9358613442477317 L-3.316216962417363,2.544622773256452 A4.18,4.18,0,0,1,-3.673455530927015,1.994523617885163 Z" fill="#7aa190" stroke="black" stroke-width="0.07" />
<path d="M-3.170197121271347,-0.24949992441454732 A3.18,3.18,0,0,0,-2.9786175618099047,1.1136594724051059 L-3.9152897510583022,1.4638668536645731 A4.18,4.18,0,0,1,-4.167114455004475,-0.32795902014239237 Z" fill="#78bc65" stroke="black" stroke-width="0.07" />
<path d="M-2.807773345291387,-1.4929195696591337 A3.18,3.18,0,0,0,-3.1625796272711093,-0.3324005131911389 L-4.157101522639382,-0.4369289764587926 A4.18,4.18,0,0,1,-3.6907209381503137,-1.9623911324450245 Z" fill="#afda37" stroke="black" stroke-width="0.07" />
<path d="M-2.107131753326046,-2.3816791921090266 A3.18,3.18,0,0,0,-2.7677311130888813,-1.5659069211290257 L-3.6380868090287803,-2.0583304812324927 A4.18,4.18,0,0,1,-2.769751801541783,-3.1306349128980284 Z" fill="#e9f50f" stroke="black" stroke-width="0.07" />
<path d="M-1.2425249885958902,-2.9272054339787603 A3.18,3.18,0,0,0,-2.044064598803195,-2.43602132911835 L-2.6868522084897344,-3.202065772237328 A4.18,4.18,0,0,1,-1.6332561170851636,-3.8477102874312004 Z" fill="#f8eb00" stroke="black" stroke-width="0.07" />
<path d="M-0.3324005131911376,-3.1625796272711098 A3.18,3.18,0,0,0,-1.139610079554055,-2.9687857562611017 L-1.497978029099355,-3.902366182758303 A4.18,4.18,0,0,1,-0.4369289764587909,-4.157101522639382 Z" fill="#edcb00" stroke="black" stroke-width="0.07" />
<path d="M0.47003392739216227,-3.1450704454908958 A3.18,3.18,0,0,0,-0.24949992441454671,-3.170197121271347 L-0.32795902014239153,-4.167114455004475 A4.18,4.18,0,0,1,0.617843338521773,-4.134086308852812 Z" fill="#e4b000" stroke="black" stroke-width="0.07" />
<path d="M1.1396100795540554,-2.9687857562611017 A3.18,3.18,0,0,0,0.5522012049808388,-3.131688654578822 L0.7258493826477691,-4.116496407591029 A4.18,4.18,0,0,1,1.4979780290993554,-3.902366182758303 Z" fill="#e58e00" stroke="black" stroke-width="0.07" />
<path d="M1.6615454357967177,-2.7113957226460133 A3.18,3.18,0,0,0,1.2169333149209858,-2.937936913385892 L1.5996167472860754,-3.8618164458971784 A4.18,4.18,0,0,1,2.1840440005126665,-3.564035887000105 Z" fill="#eb6900" stroke="black" stroke-width="0.07" />
<path d="M2.086267712189813,-2.399976465108415 A3.18,3.18,0,0,0,1.7319521313477866,-2.6669724060664484 L2.2765911663628136,-3.505642974011872 A4.18,4.18,0,0,1,2.74232674118032,-3.1546860453311867 Z" fill="#f14900" stroke="black" stroke-width="0.07" />
<path d="M2.4180909706080986,-2.0652447936899843 A3.18,3.18,0,0,0,2.1483768602177995,-2.344541931056195 L2.8239670678334594,-3.0818192678663183 A4.18,4.18,0,0,1,3.1784969362081292,-2.7146928420201677 Z" fill="#f62c00" stroke="black" stroke-width="0.07" />
<path d="M2.666972406066449,-1.7319521313477861 A3.18,3.18,0,0,0,2.4713241574331675,-2.001238843538483 L3.2484701188901384,-2.63055923458832 A4.18,4.18,0,0,1,3.5056429740118724,-2.276591166362813 Z" fill="#fb1300" stroke="black" stroke-width="0.07" />
<path d="M3.049046756880854,-0.903168796158474 A3.18,3.18,0,0,0,2.7399807302040524,-1.613971994215039 L3.6016098906455776,-2.121510357175743 A4.18,4.18,0,0,1,4.007866491749047,-1.1871841408623967 Z" fill="#ff0000" stroke="black" stroke-width="0.07" />
<path d="M3.1756419205195447,-0.1664283408525614 A3.18,3.18,0,0,0,3.0716441275992374,-0.823044563426016 L4.037569953888306,-1.0818636085285367 A4.18,4.18,0,0,1,4.174271455274118,-0.21876429709550518 Z" fill="#ff0000" stroke="black" stroke-width="0.07" />
<path d="M3.1450704454908958,0.4700339273921618 A3.18,3.18,0,0,0,3.1789102934222724,-0.08324269561903662 L4.178567618397829,-0.10941964392690975 A4.18,4.18,0,0,1,4.134086308852812,0.6178433385217724 Z" fill="#ff0000" stroke="black" stroke-width="0.07" />
<path d="M3.0067490704058275,1.0353067311737583 A3.18,3.18,0,0,0,3.131688654578822,0.5522012049808385 L4.116496407591029,0.7258493826477688 A4.18,4.18,0,0,1,3.952267646005144,1.3608748856309147 Z" fill="#ff0000" stroke="black" stroke-width="0.07" />
<path d="M2.79463841826505,1.5173648576255547 A3.18,3.18,0,0,0,2.9786175618099047,1.1136594724051063 L3.9152897510583022,1.4638668536645736 A4.18,4.18,0,0,1,3.673455530927015,1.994523617885163 Z" fill="#f80608" stroke="black" stroke-width="0.07" />
<path d="M2.539660921950391,1.9137717736235136 A3.18,3.18,0,0,0,2.7539607840345153,1.5899999999999999 L3.6199861878189536,2.0899999999999994 A4.18,4.18,0,0,1,3.338296431997684,2.5155867967755614 Z" fill="#e61922" stroke="black" stroke-width="0.07" />
<path d="M1.7367654659336684,3.9008391041339054 A4.2700000000000005,4.2700000000000005,0,0,0,2.1350000000000007,3.697928474159553 L2.6350000000000007,4.563953877943992 A5.2700000000000005,5.2700000000000005,0,0,1,2.1435021090094692,4.814384561776507 Z" fill="#ab5676" stroke="black" stroke-width="0.07" />
<path d="M1.2840137638832443,4.07237137969493 A4.2700000000000005,4.2700000000000005,0,0,0,1.6340582561989345,3.9449656038231944 L2.0167416885640246,4.868845136334481 A5.2700000000000005,5.2700000000000005,0,0,1,1.5847195633875168,5.026088330443157 Z" fill="#9d6589" stroke="black" stroke-width="0.07" />
<path d="M0.8877829197918292,4.176690255133352 A4.2700000000000005,4.2700000000000005,0,0,0,1.1769715093385875,4.104587441656622 L1.4526088651555868,5.065849137594941 A5.2700000000000005,5.2700000000000005,0,0,1,1.0956946106095877,5.154837855867157 Z" fill="#966c94" stroke="black" stroke-width="0.07" />
<path d="M0.4833777227889612,4.24255182373903 A4.2700000000000005,4.2700000000000005,0,0,0,0.7047532770250943,4.211439518563978 L0.8698008828857721,5.197725120101209 A5.2700000000000005,5.2700000000000005,0,0,1,0.5965809365568677,5.236123679415617 Z" fill="#937098" stroke="black" stroke-width="0.07" />
<path d="M0.22347453315737068,4.2641481134020305 A4.2700000000000005,4.2700000000000005,0,0,0,0.37215502153249924,4.253751360851754 L0.4593107642801571,5.249946058943499 A5.2700000000000005,5.2700000000000005,0,0,1,0.2758104894003146,5.262777648156605 Z" fill="#91729b" stroke="black" stroke-width="0.07" />
<path d="M-0.037262306578055175,4.269837411484012 A4.2700000000000005,4.2700000000000005,0,0,0,0.11177556927461821,4.26853677764563 L0.13795251758249133,5.268194102621187 A5.2700000000000005,5.2700000000000005,0,0,1,-0.04598884207642875,5.269799334548183 Z" fill="#8f749d" stroke="black" stroke-width="0.07" />
<path d="M-0.29786014288741625,4.25959849460945 A4.2700000000000005,4.2700000000000005,0,0,0,-0.14902085091968206,4.267398831371539 L-0.1839203476221837,5.266789658390635 A5.2700000000000005,5.2700000000000005,0,0,1,-0.3676166166315418,5.257162544869274 Z" fill="#8d76a0" stroke="black" stroke-width="0.07" />
<path d="M-0.9605410020483047,4.160560176632955 A4.2700000000000005,4.2700000000000005,0,0,0,-0.6679751657217866,4.217429214341238 L-0.8244096307620177,5.2051175549363755 A5.2700000000000005,5.2700000000000005,0,0,1,-1.18549205639217,5.134930241418189 Z" fill="#897ba6" stroke="black" stroke-width="0.07" />
<path d="M-1.2840137638832492,4.072371379694928 A4.2700000000000005,4.2700000000000005,0,0,0,-1.0691226173124668,4.13399042441452 L-1.3195026213669085,5.102138064792627 A5.2700000000000005,5.2700000000000005,0,0,1,-1.584719563387523,5.026088330443155 Z" fill="#867ea9" stroke="black" stroke-width="0.07" />
<path d="M-1.5302311445584342,3.9863884211430514 A4.2700000000000005,4.2700000000000005,0,0,0,-1.390176019532059,4.037364317809083 L-1.7157441739892156,4.982882893408401 A5.2700000000000005,5.2700000000000005,0,0,1,-1.888599094103735,4.919968847640253 Z" fill="#8480ac" stroke="black" stroke-width="0.07" />
<path d="M-1.971666578513597,3.787536257671006 A4.2700000000000005,4.2700000000000005,0,0,0,-1.8382823833714204,3.8540391641739054 L-2.2687934801797156,4.756624448523766 A5.2700000000000005,5.2700000000000005,0,0,1,-2.4334151917486313,4.674547090849227 Z" fill="#8184b1" stroke="black" stroke-width="0.07" />
<path d="M-2.1992125798659328,3.6601043739980192 A4.2700000000000005,4.2700000000000005,0,0,0,-2.0701370784518587,3.734626149485221 L-2.5549466986981955,4.609245856624617 A5.2700000000000005,5.2700000000000005,0,0,1,-2.7142506547759875,4.517271674700131 Z" fill="#7f86b3" stroke="black" stroke-width="0.07" />
<path d="M-2.4185546316690365,3.5190188254160075 A4.2700000000000005,4.2700000000000005,0,0,0,-2.2942693276409396,3.6012814736210217 L-2.831568935987764,4.444672919433907 A5.2700000000000005,5.2700000000000005,0,0,1,-2.9849608685938693,4.343145014038023 Z" fill="#7d88b6" stroke="black" stroke-width="0.07" />
<path d="M-2.62887449964056,3.364805917900704 A4.2700000000000005,4.2700000000000005,0,0,0,-2.509843027288861,3.4545025659810253 L-3.0976282795813344,4.263519560355973 A5.2700000000000005,5.2700000000000005,0,0,1,-3.2445359749662184,4.152816671507426 Z" fill="#7c8bb2" stroke="black" stroke-width="0.07" />
<path d="M-2.857187689152326,3.173228404788473 A4.2700000000000005,4.2700000000000005,0,0,0,-2.7447030933615237,3.271009772118036 L-3.3874907030480634,4.0370542152370135 A5.2700000000000005,5.2700000000000005,0,0,1,-3.5263182955111843,3.916373230265867 Z" fill="#7c90ab" stroke="black" stroke-width="0.07" />
<path d="M-3.0455794178883555,2.9928825585603636 A4.2700000000000005,4.2700000000000005,0,0,0,-2.93927403821233,3.0973485642224685 L-3.627628613906084,3.822722935234756 A5.2700000000000005,5.2700000000000005,0,0,1,-3.7588298670425373,3.6937918228602147 Z" fill="#7c93a5" stroke="black" stroke-width="0.07" />
<path d="M-3.222609907551236,2.801372053789467 A4.2700000000000005,4.2700000000000005,0,0,0,-3.1228803059138586,2.9121329974668684 L-3.8542340075330292,3.5941313575293665 A5.2700000000000005,5.2700000000000005,0,0,1,-3.9773194877740083,3.457431082779974 Z" fill="#7b979f" stroke="black" stroke-width="0.07" />
<path d="M-3.4762732633814837,2.4796016208857132 A4.2700000000000005,4.2700000000000005,0,0,0,-3.3876187630435743,2.5994113018672373 L-4.18097210333481,3.2081727308759582 A5.2700000000000005,5.2700000000000005,0,0,1,-4.290388781737803,3.060304576596653 Z" fill="#7b9d96" stroke="black" stroke-width="0.07" />
<path d="M-3.62116537058794,2.2627552582757846 A4.2700000000000005,4.2700000000000005,0,0,0,-3.5399904348100293,2.3877536978200884 L-4.369028007365071,2.9469466012908354 A5.2700000000000005,5.2700000000000005,0,0,1,-4.469213466744366,2.7926745225089893 Z" fill="#7aa190" stroke="black" stroke-width="0.07" />
<path d="M-3.8045978582843323,1.9385394338878628 A4.2700000000000005,4.2700000000000005,0,0,0,-3.8045978582843323,1.9385394338878628 L-4.6956043824727,2.392529933627409 A5.2700000000000005,5.2700000000000005,0,1,1,-4.6956043824727,2.392529933627409 Z" fill="#7aa785" stroke="black" stroke-width="0.07" />
<path d="M-3.88553462664284,1.7707401461421406 A4.2700000000000005,4.2700000000000005,0,0,0,-3.854039164173905,1.8382823833714212 L-4.756624448523765,2.2687934801797165 A5.2700000000000005,5.2700000000000005,0,0,1,-4.795495897519383,2.1854333887983795 Z" fill="#7aa982" stroke="black" stroke-width="0.07" />
<path d="M-4.13399042441452,1.0691226173124655 A4.2700000000000005,4.2700000000000005,0,0,0,-3.9995902480906587,1.4953855179779254 L-4.936262437339056,1.8455928992373927 A5.2700000000000005,5.2700000000000005,0,0,1,-5.102138064792628,1.319502621366907 Z" fill="#79b175" stroke="black" stroke-width="0.07" />
<path d="M-4.2284446535265054,0.5942691410994798 A4.2700000000000005,4.2700000000000005,0,0,0,-4.160560176632955,0.9605410020483035 L-5.13493024141819,1.1854920563921685 A5.2700000000000005,5.2700000000000005,0,0,1,-5.218712722268076,0.7334422420595453 Z" fill="#78b969" stroke="black" stroke-width="0.07" />
<path d="M-4.265935906154533,0.18625478404998588 A4.2700000000000005,4.2700000000000005,0,0,0,-4.242551823739029,0.4833777227889614 L-5.236123679415616,0.5965809365568681 A5.2700000000000005,5.2700000000000005,0,0,1,-5.264984127736391,0.22987417141532215 Z" fill="#78bf5f" stroke="black" stroke-width="0.07" />
<path d="M-4.26739883137154,-0.149020850919678 A4.2700000000000005,4.2700000000000005,0,0,0,-4.2693496583177915,0.07452177548719924 L-5.2691973534741825,0.09197418192448244 A5.2700000000000005,5.2700000000000005,0,0,1,-5.2667896583906355,-0.1839203476221787 Z" fill="#84c556" stroke="black" stroke-width="0.07" />
<path d="M-4.176690255133351,-0.8877829197918323 A4.2700000000000005,4.2700000000000005,0,0,0,-4.246608493222527,-0.4463365381528815 L-5.2411303885908005,-0.5508650014205352 A5.2700000000000005,5.2700000000000005,0,0,1,-5.154837855867156,-1.0956946106095917 Z" fill="#9ad046" stroke="black" stroke-width="0.07" />
<path d="M-4.049342007730472,-1.3548908828497437 A4.2700000000000005,4.2700000000000005,0,0,0,-4.152019560098079,-0.9968117036647167 L-5.124389480495756,-1.2302570675206224 A5.2700000000000005,5.2700000000000005,0,0,1,-4.9976656629366705,-1.6721955392548358 Z" fill="#add839" stroke="black" stroke-width="0.07" />
<path d="M-3.9008391041339054,-1.736765465933668 A4.2700000000000005,4.2700000000000005,0,0,0,-4.012487490755829,-1.4604260120006063 L-4.952180111541737,-1.8024461553262752 A5.2700000000000005,5.2700000000000005,0,0,1,-4.814384561776507,-2.1435021090094684 Z" fill="#bde02e" stroke="black" stroke-width="0.07" />
<path d="M-3.560692460226808,-2.356770927282489 A4.2700000000000005,4.2700000000000005,0,0,0,-3.716418821663372,-2.102648601641805 L-4.5867745176032715,-2.5950721617452723 A5.2700000000000005,5.2700000000000005,0,0,1,-4.394578282293976,-2.908707912594547 Z" fill="#d5eb1c" stroke="black" stroke-width="0.07" />
<path d="M-3.364805917900703,-2.6288744996405615 A4.2700000000000005,4.2700000000000005,0,0,0,-3.4977792291139944,-2.4491713832189683 L-4.316931273402986,-3.022747819570015 A5.2700000000000005,5.2700000000000005,0,0,1,-4.152816671507424,-3.24453597496622 Z" fill="#e3f113" stroke="black" stroke-width="0.07" />
<path d="M-3.1980409277690396,-2.829387605881199 A4.2700000000000005,4.2700000000000005,0,0,0,-3.2948369710655636,-2.716054000586053 L-4.066461554453284,-3.3521322208638176 A5.2700000000000005,5.2700000000000005,0,0,1,-3.946996648558042,-3.4920076540969363 Z" fill="#edf60c" stroke="black" stroke-width="0.07" />
<path d="M-3.019345955666558,-3.0193459556665583 A4.2700000000000005,4.2700000000000005,0,0,0,-3.122880305913858,-2.9121329974668693 L-3.854234007533029,-3.594131357529368 A5.2700000000000005,5.2700000000000005,0,0,1,-3.7264527368531053,-3.726452736853106 Z" fill="#f6fb05" stroke="black" stroke-width="0.07" />
<path d="M-2.5697501488592467,-3.41017362790194 A4.2700000000000005,4.2700000000000005,0,0,0,-2.7447030933615233,-3.2710097721180365 L-3.3874907030480625,-4.037054215237014 A5.2700000000000005,5.2700000000000005,0,0,1,-3.171565172011295,-4.208809137949233 Z" fill="#fcf700" stroke="black" stroke-width="0.07" />
<path d="M-2.3567709272824886,-3.5606924602268086 A4.2700000000000005,4.2700000000000005,0,0,0,-2.4796016208857132,-3.4762732633814837 L-3.060304576596653,-4.290388781737803 A5.2700000000000005,5.2700000000000005,0,0,1,-2.9087079125945468,-4.394578282293977 Z" fill="#faf000" stroke="black" stroke-width="0.07" />
<path d="M-2.1349999999999993,-3.6979284741595535 A4.2700000000000005,4.2700000000000005,0,0,0,-2.2627552582757846,-3.62116537058794 L-2.7926745225089893,-4.469213466744366 A5.2700000000000005,5.2700000000000005,0,0,1,-2.634999999999999,-4.563953877943993 Z" fill="#f8ea00" stroke="black" stroke-width="0.07" />
<path d="M-1.905264661978884,-3.8213697240406472 A4.2700000000000005,4.2700000000000005,0,0,0,-2.037467906308528,-3.7525490710665927 L-2.514626666568137,-4.631366183728558 A5.2700000000000005,5.2700000000000005,0,0,1,-2.3514624750886925,-4.716304085642673 Z" fill="#f6e400" stroke="black" stroke-width="0.07" />
<path d="M-1.3195025659810253,-4.061011324580306 A4.2700000000000005,4.2700000000000005,0,0,0,-1.5302311445584322,-3.986388421143052 L-1.8885990941037325,-4.919968847640254 A5.2700000000000005,5.2700000000000005,0,0,1,-1.6285195603559726,-5.01206784087546 Z" fill="#f1d600" stroke="black" stroke-width="0.07" />
<path d="M-1.0691226173124648,-4.13399042441452 A4.2700000000000005,4.2700000000000005,0,0,0,-1.21274552188575,-4.094160267887185 L-1.4967608665896726,-5.052980002755378 A5.2700000000000005,5.2700000000000005,0,0,1,-1.3195026213669063,-5.102138064792628 Z" fill="#efcf00" stroke="black" stroke-width="0.07" />
<path d="M-0.8147544102578465,-4.191548073321526 A4.2700000000000005,4.2700000000000005,0,0,0,-0.9605410020483028,-4.160560176632955 L-1.1854920563921676,-5.13493024141819 A5.2700000000000005,5.2700000000000005,0,0,1,-1.0055634056343912,-5.1731752567691895 Z" fill="#edc900" stroke="black" stroke-width="0.07" />
<path d="M-0.5573468407796195,-4.233469558066171 A4.2700000000000005,4.2700000000000005,0,0,0,-0.7047532770250939,-4.211439518563979 L-0.8698008828857716,-5.19772512010121 A5.2700000000000005,5.2700000000000005,0,0,1,-0.6878730329996708,-5.2249144194399815 Z" fill="#eac200" stroke="black" stroke-width="0.07" />
<path d="M-0.18625478404998427,-4.265935906154533 A4.2700000000000005,4.2700000000000005,0,0,0,-0.33502033875789766,-4.256837015040457 L-0.41347943448574254,-5.253754348773585 A5.2700000000000005,5.2700000000000005,0,0,1,-0.22987417141532016,-5.264984127736391 Z" fill="#e8ba00" stroke="black" stroke-width="0.07" />
<path d="M0.07452177548720003,-4.2693496583177915 A4.2700000000000005,4.2700000000000005,0,0,0,-0.07452177548720046,-4.2693496583177915 L-0.09197418192448394,-5.2691973534741825 A5.2700000000000005,5.2700000000000005,0,0,1,0.0919741819244834,-5.2691973534741825 Z" fill="#e6b400" stroke="black" stroke-width="0.07" />
<path d="M0.33502033875789816,-4.256837015040457 A4.2700000000000005,4.2700000000000005,0,0,0,0.18625478404998572,-4.265935906154533 L0.22987417141532196,-5.264984127736391 A5.2700000000000005,5.2700000000000005,0,0,1,0.4134794344857432,-5.253754348773585 Z" fill="#e3ad00" stroke="black" stroke-width="0.07" />
<path d="M0.5942691410994806,-4.2284446535265054 A4.2700000000000005,4.2700000000000005,0,0,0,0.4463365381528803,-4.246608493222527 L0.5508650014205337,-5.2411303885908005 A5.2700000000000005,5.2700000000000005,0,0,1,0.7334422420595462,-5.218712722268076 Z" fill="#e1a700" stroke="black" stroke-width="0.07" />
<path d="M0.887782919791833,-4.176690255133351 A4.2700000000000005,4.2700000000000005,0,0,0,0.741477718637793,-4.205129105362129 L0.9151258963047234,-5.189936858374336 A5.2700000000000005,5.2700000000000005,0,0,1,1.0956946106095924,-5.1548378558671555 Z" fill="#e29d00" stroke="black" stroke-width="0.07" />
<path d="M1.1411078658541574,-4.11470203520082 A4.2700000000000005,4.2700000000000005,0,0,0,0.9968117036647165,-4.152019560098079 L1.230257067520622,-5.124389480495756 A5.2700000000000005,5.2700000000000005,0,0,1,1.4083462419324142,-5.078332488409443 Z" fill="#e49100" stroke="black" stroke-width="0.07" />
<path d="M1.3901760195320596,-4.037364317809083 A4.2700000000000005,4.2700000000000005,0,0,0,1.2484271791660861,-4.083421307962162 L1.540798883888823,-5.0397260639251975 A5.2700000000000005,5.2700000000000005,0,0,1,1.7157441739892163,-4.9828828934084 Z" fill="#e68600" stroke="black" stroke-width="0.07" />
<path d="M1.7707401461421404,-3.88553462664284 A4.2700000000000005,4.2700000000000005,0,0,0,1.6340582561989339,-3.944965603823195 L2.0167416885640237,-4.868845136334482 A5.2700000000000005,5.2700000000000005,0,0,1,2.1854333887983795,-4.795495897519383 Z" fill="#e97500" stroke="black" stroke-width="0.07" />
<path d="M2.004643573095754,-3.7701862215076183 A4.2700000000000005,4.2700000000000005,0,0,0,1.871844796789361,-3.8378505776974436 L2.3102159435784384,-4.736644623996611 A5.2700000000000005,5.2700000000000005,0,0,1,2.474115135881645,-4.653133814366545 Z" fill="#eb6900" stroke="black" stroke-width="0.07" />
<path d="M2.4491713832189674,-3.4977792291139953 A4.2700000000000005,4.2700000000000005,0,0,0,2.325608679514166,-3.5811233251269607 L2.8702477145291936,-4.419793893072384 A5.2700000000000005,5.2700000000000005,0,0,1,3.0227478195700135,-4.316931273402987 Z" fill="#ef5300" stroke="black" stroke-width="0.07" />
<path d="M2.658137498442636,-3.341736829759807 A4.2700000000000005,4.2700000000000005,0,0,0,2.5398932994282277,-3.4324687948355184 L3.1347160861795693,-4.2363256554527355 A5.2700000000000005,5.2700000000000005,0,0,1,3.2806521350802558,-4.124344986612221 Z" fill="#f14800" stroke="black" stroke-width="0.07" />
<path d="M2.9928825585603636,-3.0455794178883555 A4.2700000000000005,4.2700000000000005,0,0,0,2.8847701865188697,-3.14817422817923 L3.5603603941345296,-3.885451564989354 A5.2700000000000005,5.2700000000000005,0,0,1,3.6937918228602147,-3.7588298670425373 Z" fill="#f53400" stroke="black" stroke-width="0.07" />
<path d="M3.173228404788474,-2.857187689152325 A4.2700000000000005,4.2700000000000005,0,0,0,3.0715809474460407,-2.9661912418599186 L3.7909207477846922,-3.660849612318916 A5.2700000000000005,5.2700000000000005,0,0,1,3.916373230265868,-3.5263182955111834 Z" fill="#f72900" stroke="black" stroke-width="0.07" />
<path d="M3.318413255421266,-2.6871980697828057 A4.2700000000000005,4.2700000000000005,0,0,0,3.318413255421266,-2.6871980697828057 L4.095559216878237,-3.3165184608326435 A5.2700000000000005,5.2700000000000005,0,1,1,4.095559216878237,-3.3165184608326435 Z" fill="#f91c00" stroke="black" stroke-width="0.07" />
<path d="M3.4324687948355184,-2.5398932994282273 A4.2700000000000005,4.2700000000000005,0,0,0,3.3876187630435743,-2.5994113018672373 L4.18097210333481,-3.2081727308759582 A5.2700000000000005,5.2700000000000005,0,0,1,4.2363256554527355,-3.134716086179569 Z" fill="#fa1600" stroke="black" stroke-width="0.07" />
<path d="M3.787536257671007,-1.971666578513595 A4.2700000000000005,4.2700000000000005,0,0,0,3.6791565150853156,-2.1671888098422065 L4.540785675526841,-2.674727172802911 A5.2700000000000005,5.2700000000000005,0,0,1,4.674547090849229,-2.433415191748629 Z" fill="#ff0000" stroke="black" stroke-width="0.07" />
<path d="M3.9008391041339063,-1.7367654659336669 A4.2700000000000005,4.2700000000000005,0,0,0,3.8378505776974436,-1.8718447967893608 L4.736644623996611,-2.310215943578438 A5.2700000000000005,5.2700000000000005,0,0,1,4.814384561776507,-2.143502109009467 Z" fill="#ff0000" stroke="black" stroke-width="0.07" />
<path d="M3.9995902480906587,-1.4953855179779258 A4.2700000000000005,4.2700000000000005,0,0,0,3.944965603823195,-1.6340582561989336 L4.868845136334482,-2.0167416885640232 A5.2700000000000005,5.2700000000000005,0,0,1,4.936262437339056,-1.8455928992373933 Z" fill="#ff0000" stroke="black" stroke-width="0.07" />
<path d="M4.083421307962162,-1.2484271791660861 A4.2700000000000005,4.2700000000000005,0,0,0,4.037364317809083,-1.390176019532059 L4.982882893408401,-1.7157441739892156 A5.2700000000000005,5.2700000000000005,0,0,1,5.0397260639251975,-1.540798883888823 Z" fill="#ff0000" stroke="black" stroke-width="0.07" />
<path d="M4.176690255133351,-0.8877829197918323 A4.2700000000000005,4.2700000000000005,0,0,0,4.1245032782543225,-1.1051573225877638 L5.09042910454339,-1.3639763676902845 A5.2700000000000005,5.2700000000000005,0,0,1,5.154837855867156,-1.0956946106095917 Z" fill="#ff0000" stroke="black" stroke-width="0.07" />
<path d="M4.223097736555386,-0.6311461855234375 A4.2700000000000005,4.2700000000000005,0,0,0,4.198498455298087,-0.7781456938514698 L5.181753362862041,-0.9603812193436173 A5.2700000000000005,5.2700000000000005,0,0,1,5.212113599917302,-0.778955596653048 Z" fill="#ff0000" stroke="black" stroke-width="0.07" />
<path d="M4.253751360851754,-0.3721550215325004 A4.2700000000000005,4.2700000000000005,0,0,0,4.2381720675084456,-0.5203820963399798 L5.230718219149767,-0.6422514397451272 A5.2700000000000005,5.2700000000000005,0,0,1,5.249946058943499,-0.4593107642801586 Z" fill="#ff0000" stroke="black" stroke-width="0.07" />
<path d="M4.269837411484012,-0.0372623065780567 A4.2700000000000005,4.2700000000000005,0,0,0,4.26853677764563,-0.11177556927461836 L5.268194102621187,-0.1379525175824915 A5.2700000000000005,5.2700000000000005,0,0,1,5.269799334548183,-0.04598884207643064 Z" fill="#ff0000" stroke="black" stroke-width="0.07" />
<path d="M4.2641481134020305,0.22347453315737018 A4.2700000000000005,4.2700000000000005,0,0,0,4.2693496583177915,0.0745217754872006 L5.2691973534741825,0.09197418192448412 A5.2700000000000005,5.2700000000000005,0,0,1,5.262777648156605,0.275810489400314 Z" fill="#ff0000" stroke="black" stroke-width="0.07" />
<path d="M4.242551823739029,0.48337772278896174 A4.2700000000000005,4.2700000000000005,0,0,0,4.256837015040457,0.33502033875789794 L5.253754348773585,0.41347943448574287 A5.2700000000000005,5.2700000000000005,0,0,1,5.236123679415616,0.5965809365568685 Z" fill="#ff0000" stroke="black" stroke-width="0.07" />
<path d="M4.176690255133351,0.8877829197918323 A4.2700000000000005,4.2700000000000005,0,0,0,4.205129105362129,0.7414777186377925 L5.189936858374336,0.915125896304723 A5.2700000000000005,5.2700000000000005,0,0,1,5.154837855867156,1.0956946106095917 Z" fill="#ff0000" stroke="black" stroke-width="0.07" />
<path d="M4.11470203520082,1.141107865854157 A4.2700000000000005,4.2700000000000005,0,0,0,4.152019560098079,0.9968117036647162 L5.124389480495756,1.2302570675206215 A5.2700000000000005,5.2700000000000005,0,0,1,5.078332488409443,1.4083462419324138 Z" fill="#ff0000" stroke="black" stroke-width="0.07" />
<path d="M3.9728830152832453,1.5649602381127494 A4.2700000000000005,4.2700000000000005,0,0,0,3.9995902480906587,1.4953855179779258 L4.936262437339056,1.8455928992373933 A5.2700000000000005,5.2700000000000005,0,0,1,4.90330058326527,1.9314614648370467 Z" fill="#ff0000" stroke="black" stroke-width="0.07" />
<path d="M3.8699342506464958,1.8045799776327869 A4.2700000000000005,4.2700000000000005,0,0,0,3.9305557242419207,1.6684219186491989 L4.851060577694361,2.0591530471384725 A5.2700000000000005,5.2700000000000005,0,0,1,4.776242037683145,2.2271982393734864 Z" fill="#f90507" stroke="black" stroke-width="0.07" />
<path d="M3.6211653705879394,2.262755258275785 A4.2700000000000005,4.2700000000000005,0,0,0,3.6979284741595535,2.135 L4.563953877943993,2.635 A5.2700000000000005,5.2700000000000005,0,0,1,4.469213466744365,2.79267452250899 Z" fill="#eb131b" stroke="black" stroke-width="0.07" />
<path d="M3.4762732633814837,2.4796016208857132 A4.2700000000000005,4.2700000000000005,0,0,0,3.5606924602268086,2.3567709272824886 L4.394578282293977,2.9087079125945468 A5.2700000000000005,5.2700000000000005,0,0,1,4.290388781737803,3.060304576596653 Z" fill="#e41b25" stroke="black" stroke-width="0.07" />
</svg>