<?xml version="1.0" encoding="UTF-8"?>
<svg xmlns="http://www.w3.org/2000/svg" xmlns:xlink="http://www.w3.org/1999/xlink"
     width="600" height="600.0" viewBox="-7.0 -7.0 14 14">
<defs>
</defs>
<path d="M0.5000000000000001,0.8660254037844386 A1.0,1.0,0,1,0,0.4694715627858902,0.8829475928589272 L0.9389431255717804,1.7658951857178544 A2.0,2.0,0,1,1,1.0000000000000002,1.7320508075688772 Z" fill="red" stroke="black" stroke-width="0.07" />
<path d="M-1.465729161668485,1.5178069787145536 A2.1100000000000003,2.1100000000000003,0,0,0,1.0550000000000004,1.8273136019851657 L1.5550000000000006,2.6933390057696043 A3.1100000000000003,3.1100000000000003,0,0,1,-2.1603875321274826,2.2371467790532042 Z" fill="#8b79a3" stroke="black" stroke-width="0.07" />
<path d="M-1.963181068442072,-0.773317588388267 A2.1100000000000003,2.1100000000000003,0,0,0,-1.5049584477153233,1.4789185476726856 L-2.218208896869505,2.1798278119725367 A3.1100000000000003,3.1100000000000003,0,0,1,-2.893598636424097,-1.139818815112564 Z" fill="#78b86b" stroke="black" stroke-width="0.07" />
<path d="M-0.2936552430257379,-2.089465625044714 A2.1100000000000003,2.1100000000000003,0,0,0,-1.942265240784649,-0.8244426811123686 L-2.862770094237089,-1.2151738096016427 A3.1100000000000003,3.1100000000000003,0,0,1,-0.4328283439858033,-3.079733693786284 Z" fill="#fbf500" stroke="black" stroke-width="0.07" />
<path d="M1.530539922835927,-1.452428154713821 A2.1100000000000003,2.1100000000000003,0,0,0,-0.2388587810502832,-2.0964366154775997 L-0.3520619948181899,-3.0900084711541873 A3.1100000000000003,3.1100000000000003,0,0,1,2.255914293848215,-2.140782730407575 Z" fill="#e78000" stroke="black" stroke-width="0.07" />
<path d="M2.1019708129735832,0.18389861719755876 A2.1100000000000003,2.1100000000000003,0,0,0,1.5680355817573022,-1.411865579417191 L2.3111804072346964,-2.0809961857760495 A3.1100000000000003,3.1100000000000003,0,0,1,3.098165511065329,0.2710543599452169 Z" fill="#ff0000" stroke="black" stroke-width="0.07" />
<path d="M1.3981283017352064,1.5802965708647947 A2.1100000000000003,2.1100000000000003,0,0,0,2.0964366154775997,0.23885878105028321 L3.0900084711541873,0.35206199481818995 A3.1100000000000003,3.1100000000000003,0,0,1,2.060748349950944,2.3292522916537965 Z" fill="#f20c11" stroke="black" stroke-width="0.07" />
<path d="M0.7789885038309292,3.1243522386087093 A3.22,3.22,0,0,0,1.6100000000000005,2.7886018001858925 L2.1100000000000008,3.6546272039703314 A4.220000000000001,4.220000000000001,0,0,1,1.0209103994305968,4.0946479648847065 Z" fill="#a16084" stroke="black" stroke-width="0.07" />
<path d="M-0.08428977355135261,3.2188965864212946 A3.22,3.22,0,0,0,0.69693555688069,3.143673142926186 L0.9133751708187925,4.11996915004612 A4.220000000000001,4.220000000000001,0,0,1,-0.11046672185922611,4.218553911396852 Z" fill="#91719a" stroke="black" stroke-width="0.07" />
<path d="M-0.8333973252301164,3.1102811606508003 A3.22,3.22,0,0,0,-0.16852177910228067,3.215587101909728 L-0.22085773534522501,4.214216636664302 A4.220000000000001,4.220000000000001,0,0,1,-1.0922163703326373,4.0762069869398685 Z" fill="#8a7aa4" stroke="black" stroke-width="0.07" />
<path d="M-1.4367569582135864,2.88168864435852 A3.22,3.22,0,0,0,-0.914529409946631,3.0873995462755817 L-1.1985447546505537,4.046219281143776 A4.220000000000001,4.220000000000001,0,0,1,-1.882954771323396,3.7766230059605452 Z" fill="#8381ad" stroke="black" stroke-width="0.07" />
<path d="M-1.9378443745495955,2.571606342352283 A3.22,3.22,0,0,0,-1.5116984321705682,2.843091249005745 L-1.9811699949564592,3.7260388418646726 A4.220000000000001,4.220000000000001,0,0,1,-2.539659397701644,3.3702418523995763 Z" fill="#7d87b5" stroke="black" stroke-width="0.07" />
<path d="M-2.829791102771529,1.5364512080359392 A3.22,3.22,0,0,0,-2.2966664462764648,2.25692783104552 L-3.0099168954306466,2.957837095345371 A4.220000000000001,4.220000000000001,0,0,1,-3.7086082154334945,2.013609968295548 Z" fill="#7b9d96" stroke="black" stroke-width="0.07" />
<path d="M-3.1374716086084575,0.7243423949872453 A3.22,3.22,0,0,0,-2.8690410078865454,1.461849409161339 L-3.760047532074914,1.9158399089008855 A4.220000000000001,4.220000000000001,0,0,1,-4.111841673393694,0.9492934493311104 Z" fill="#79af79" stroke="black" stroke-width="0.07" />
<path d="M-3.219877392266632,-0.02809944430476558 A3.22,3.22,0,0,0,-3.155357548879072,0.6419647488233731 L-4.135282253499902,0.8413326832405696 A4.220000000000001,4.220000000000001,0,0,1,-4.219839315330804,-0.03682597980313999 Z" fill="#78be61" stroke="black" stroke-width="0.07" />
<path d="M-3.1496352743628546,-0.6694756444331851 A3.22,3.22,0,0,0,-3.2180384630014887,-0.11237637938205225 L-4.2174292900205845,-0.14727587608455298 A4.220000000000001,4.220000000000001,0,0,1,-4.127782875096661,-0.8773873352509445 Z" fill="#95cd4a" stroke="black" stroke-width="0.07" />
<path d="M-2.466663106843109,-2.0697761031906574 A3.22,3.22,0,0,0,-2.9640256281168575,-1.258154233735463 L-3.884530481569298,-1.6488853622247372 A4.220000000000001,4.220000000000001,0,0,1,-3.2327075499620874,-2.712563712877197 Z" fill="#d5eb1c" stroke="black" stroke-width="0.07" />
<path d="M-1.7772370927048273,-2.6851123470562817 A3.22,3.22,0,0,0,-2.411637420940587,-2.1336365552546743 L-3.16059314172959,-2.7962566034704124 A4.220000000000001,4.220000000000001,0,0,1,-2.329174078016886,-3.51899816912345 Z" fill="#fdfb00" stroke="black" stroke-width="0.07" />
<path d="M-1.0483294573520436,-3.0445698134298005 A3.22,3.22,0,0,0,-1.7063400308309196,-2.730714869623692 L-2.2362592950641247,-3.5787629657801188 A4.220000000000001,4.220000000000001,0,0,1,-1.3738976118092003,-3.990088389029118 Z" fill="#f4e000" stroke="black" stroke-width="0.07" />
<path d="M0.36451434833265933,-3.199301375278612 A3.22,3.22,0,0,0,-0.3645143483326596,-3.199301375278612 L-0.4777175621005664,-4.1928732309551995 A4.220000000000001,4.220000000000001,0,0,1,0.477717562100566,-4.1928732309551995 Z" fill="#e6b400" stroke="black" stroke-width="0.07" />
<path d="M1.0483294573520447,-3.0445698134298 A3.22,3.22,0,0,0,0.44813738509141154,-3.1886631813478563 L0.5873104860514773,-4.178931250089427 A4.220000000000001,4.220000000000001,0,0,1,1.3738976118092017,-3.9900883890291174 Z" fill="#e39500" stroke="black" stroke-width="0.07" />
<path d="M1.5856038635331642,-2.802545340926477 A3.22,3.22,0,0,0,1.1276677676554852,-3.01608444937984 L1.4778751489149529,-3.9527566386282382 A4.220000000000001,4.220000000000001,0,0,1,2.0780274236366316,-3.6729010368663775 Z" fill="#ea7000" stroke="black" stroke-width="0.07" />
<path d="M2.026411659180477,-2.5024099958914463 A3.22,3.22,0,0,0,1.658422601210375,-2.7600787082608016 L2.17346067612043,-3.617246008962914 A4.220000000000001,4.220000000000001,0,0,1,2.6557320502303146,-3.279555957348417 Z" fill="#f05000" stroke="black" stroke-width="0.07" />
<path d="M2.7005192287842656,-1.7537376927483874 A3.22,3.22,0,0,0,2.3929263380372094,-2.154600552475524 L3.1360711635146044,-2.823731158834382 A4.220000000000001,4.220000000000001,0,0,1,3.53918979672969,-2.2983767277634146 Z" fill="#fa1800" stroke="black" stroke-width="0.07" />
<path d="M2.9529334395200997,-1.2839720019392928 A3.22,3.22,0,0,0,2.745501329220177,-1.6824453783853552 L3.5981414935742695,-2.2049439431013043 A4.220000000000001,4.220000000000001,0,0,1,3.869993513905224,-1.6827210708645393 Z" fill="#ff0000" stroke="black" stroke-width="0.07" />
<path d="M3.1102811606508003,-0.8333973252301168 A3.22,3.22,0,0,0,2.9855320117050557,-1.2062332307992367 L3.9127158662718435,-1.580839824215149 A4.220000000000001,4.220000000000001,0,0,1,4.0762069869398685,-1.0922163703326377 Z" fill="#ff0000" stroke="black" stroke-width="0.07" />
<path d="M3.1924524536236696,-0.4202943389485661 A3.22,3.22,0,0,0,3.1310311436805187,-0.7516940716160154 L4.103401064078196,-0.985139435471921 A4.220000000000001,4.220000000000001,0,0,1,4.1838973149974805,-0.5508205311686177 Z" fill="#ff0000" stroke="black" stroke-width="0.07" />
<path d="M3.21950957840358,-0.056196748728052914 A3.22,3.22,0,0,0,3.20236050308584,-0.3365816517218442 L4.196882398454114,-0.44111011498949765 A4.220000000000001,4.220000000000001,0,0,1,4.219357273559972,-0.07364915516533643 Z" fill="#ff0000" stroke="black" stroke-width="0.07" />
<path d="M3.210073814620672,0.25263828824366075 A3.22,3.22,0,0,0,3.219877392266632,0.028099444304764073 L4.219839315330804,0.03682597980313801 A4.220000000000001,4.220000000000001,0,0,1,4.206991148353801,0.33109738397150573 Z" fill="#ff0000" stroke="black" stroke-width="0.07" />
<path d="M3.0873995462755817,0.914529409946631 A3.22,3.22,0,0,0,3.199301375278612,0.36451434833265967 L4.1928732309551995,0.47771756210056643 A4.220000000000001,4.220000000000001,0,0,1,4.046219281143776,1.1985447546505537 Z" fill="#ff0000" stroke="black" stroke-width="0.07" />
<path d="M2.869041007886545,1.4618494091613405 A3.22,3.22,0,0,0,3.0624019824703947,0.9950347218873307 L4.013458498765549,1.3040517162622782 A4.220000000000001,4.220000000000001,0,0,1,3.760047532074913,1.9158399089008875 Z" fill="#fc0203" stroke="black" stroke-width="0.07" />
<path d="M2.58841909118744,1.915329373339319 A3.22,3.22,0,0,0,2.829791102771529,1.5364512080359392 L3.7086082154334945,2.013609968295548 A4.220000000000001,4.220000000000001,0,0,1,3.3922759518046575,2.5101521600906604 Z" fill="#e8171f" stroke="black" stroke-width="0.07" />
<path d="M2.2768838354206835,2.276883835420683 A3.22,3.22,0,0,0,2.537394626613645,1.9824299505486194 L3.3254053802203676,2.5980914258742778 A4.220000000000001,4.220000000000001,0,0,1,2.9839906166072314,2.9839906166072305 Z" fill="#d62938" stroke="black" stroke-width="0.07" />
<path d="M1.8981470655967052,3.8917782204753935 A4.33,4.33,0,0,0,2.1650000000000005,3.749889998386619 L2.6650000000000005,4.615915402171058 A5.33,5.33,0,0,1,2.3365182123857826,4.790572266774561 Z" fill="#ad5473" stroke="black" stroke-width="0.07" />
<path d="M1.5869503117162054,4.028708069362167 A4.33,4.33,0,0,0,1.7956217407015145,3.940132302895432 L2.2103149833577533,4.850093573771975 A5.33,5.33,0,0,1,1.9534515384405022,4.959125637344192 Z" fill="#a35e81" stroke="black" stroke-width="0.07" />
<path d="M1.3380435856435215,4.1180747155580155 A4.33,4.33,0,0,0,1.480947220600143,4.068869048002984 L1.8229673639258113,5.008561668788893 A5.33,5.33,0,0,1,1.6470605800184688,5.069131231853169 Z" fill="#9b678c" stroke="black" stroke-width="0.07" />
<path d="M1.0841454175557315,4.192079282837207 A4.33,4.33,0,0,0,1.2297864425679836,4.151689451979276 L1.5138017872719058,5.1105091868474695 A5.33,5.33,0,0,1,1.334525421610173,5.160226923215315 Z" fill="#976b93" stroke="black" stroke-width="0.07" />
<path d="M0.7890798253809983,4.257493749751924 A4.33,4.33,0,0,0,0.9371835283519837,4.227361710829312 L1.1536231422900862,5.203657717949246 A5.33,5.33,0,0,1,0.9713153508731457,5.240748657315878 Z" fill="#956e96" stroke="black" stroke-width="0.07" />
<path d="M0.5276942569442895,4.297724836606924 A4.33,4.33,0,0,0,0.6773612336241989,4.276690514776947 L0.8337956986644295,5.264378855372084 A5.33,5.33,0,0,1,0.6495636003494372,5.290270988248246 Z" fill="#937098" stroke="black" stroke-width="0.07" />
<path d="M0.2643401761859284,4.3219236771666845 A4.33,4.33,0,0,0,0.4150121084125663,4.3100655389298845 L0.5108578609327895,5.305461737297064 A5.33,5.33,0,0,1,0.32538871572078487,5.320058475588551 Z" fill="#91729b" stroke="black" stroke-width="0.07" />
<path d="M-7.954080960462059e-16,4.33 A4.33,4.33,0,0,0,0.15111482072183055,4.327362280992685 L0.18601431742433183,5.326753108011781 A5.33,5.33,0,0,1,-9.791051159183088e-16,5.33 Z" fill="#8f749d" stroke="black" stroke-width="0.07" />
<path d="M-0.45260824594893906,4.306279806944624 A4.33,4.33,0,0,0,-0.22661469053194885,4.324065885487305 L-0.2789506467748932,5.322695420241879 A5.33,5.33,0,0,1,-0.5571367092165924,5.3008017023128975 Z" fill="#8c77a1" stroke="black" stroke-width="0.07" />
<path d="M-0.7146561333767364,4.270616654656211 A4.33,4.33,0,0,0,-0.5651784123128235,4.292956249748599 L-0.6957046045328752,5.28440111112241 A5.33,5.33,0,0,1,-0.8797037392374145,5.256902256193443 Z" fill="#8a79a4" stroke="black" stroke-width="0.07" />
<path d="M-0.9740380653089366,4.219022380520069 A4.33,4.33,0,0,0,-0.8262029499804419,4.250445704328385 L-1.0170119453569875,5.232072887776049 A5.33,5.33,0,0,1,-1.1989891196528017,5.193392445305303 Z" fill="#887ba6" stroke="black" stroke-width="0.07" />
<path d="M-1.3020561118535054,4.129594396739821 A4.33,4.33,0,0,0,-1.229786442567985,4.151689451979276 L-1.5138017872719076,5.1105091868474695 A5.33,5.33,0,0,1,-1.6027619113577793,5.083311347488048 Z" fill="#867eaa" stroke="black" stroke-width="0.07" />
<path d="M-1.5517332215311521,4.042403246732883 A4.33,4.33,0,0,0,-1.4097101087994883,4.094095432345042 L-1.735278263256645,5.039614007944359 A5.33,5.33,0,0,1,-1.9101011710764528,4.975983673230084 Z" fill="#8480ac" stroke="black" stroke-width="0.07" />
<path d="M-1.795621740701516,3.9401323028954316 A4.33,4.33,0,0,0,-1.6570192621408375,4.000398375773872 L-2.039702694505927,4.924277908285159 A5.33,5.33,0,0,1,-2.210314983357755,4.850093573771975 Z" fill="#8282af" stroke="black" stroke-width="0.07" />
<path d="M-2.0992256556666384,3.7871033319135847 A4.33,4.33,0,0,0,-2.032811866862907,3.823163077079154 L-2.5022834296487977,4.706110669938081 A5.33,5.33,0,0,1,-2.584035275912975,4.661723039052981 Z" fill="#8085b2" stroke="black" stroke-width="0.07" />
<path d="M-2.326507304141749,3.6518849603697943 A4.33,4.33,0,0,0,-2.197641111619849,3.730854264711807 L-2.705179474580553,4.592483425153333 A5.33,5.33,0,0,1,-2.863806912488573,4.49527640618268 Z" fill="#7e87b4" stroke="black" stroke-width="0.07" />
<path d="M-2.545110142426409,3.503043585643522 A4.33,4.33,0,0,0,-2.4213052720283357,3.589732689163329 L-2.9804981754990827,4.418770261718371 A5.33,5.33,0,0,1,-3.1328953947188825,4.3120605800184695 Z" fill="#7c89b5" stroke="black" stroke-width="0.07" />
<path d="M-2.6954883766408932,3.388693319170952 A4.33,4.33,0,0,0,-2.6954883766408932,3.388693319170952 L-3.3180030132785125,4.171301476023365 A5.33,5.33,0,1,1,-3.3180030132785125,4.171301476023365 Z" fill="#7c8daf" stroke="black" stroke-width="0.07" />
<path d="M-2.783270349942716,3.316972438705174 A4.33,4.33,0,0,0,-2.783270349942716,3.316972438705174 L-3.4260579596292553,4.083016881824152 A5.33,5.33,0,1,1,-3.4260579596292553,4.083016881824152 Z" fill="#7c8fad" stroke="black" stroke-width="0.07" />
<path d="M-2.8691448087741436,3.2429782710163795 A4.33,4.33,0,0,0,-2.8691448087741436,3.2429782710163795 L-3.5317648569898807,3.9919339918053818 A5.33,5.33,0,1,1,-3.5317648569898807,3.9919339918053818 Z" fill="#7c90aa" stroke="black" stroke-width="0.07" />
<path d="M-3.2429782710163804,2.869144808774142 A4.33,4.33,0,0,0,-3.0883744448376063,3.0349371144183546 L-3.8016248939917876,3.7358463787182052 A5.33,5.33,0,0,1,-3.991933991805383,3.531764856989879 Z" fill="#7b96a1" stroke="black" stroke-width="0.07" />
<path d="M-3.412086563117107,2.6658141881600987 A4.33,4.33,0,0,0,-3.3169724387051747,2.783270349942715 L-4.083016881824153,3.4260579596292544 A5.33,5.33,0,0,1,-4.20009731672383,3.2814756634857565 Z" fill="#7b9a9a" stroke="black" stroke-width="0.07" />
<path d="M-3.5684663967333274,2.452539005884527 A4.33,4.33,0,0,0,-3.4807002064725503,2.575582666633309 L-4.284557067089768,3.17040545338465 A5.33,5.33,0,0,1,-4.392592585355343,3.0189452428093597 Z" fill="#7b9e94" stroke="black" stroke-width="0.07" />
<path d="M-3.7115344120401463,2.2301148643605346 A4.33,4.33,0,0,0,-3.631443559203686,2.3582870216150673 L-4.4701141271491105,2.9029260566300943 A5.33,5.33,0,0,1,-4.568701712742259,2.745152939270589 Z" fill="#7aa28e" stroke="black" stroke-width="0.07" />
<path d="M-3.9243127178686947,1.829937073337228 A4.33,4.33,0,0,0,-3.858058249735634,1.9657788638722353 L-4.749064773924002,2.4197693636117816 A5.33,5.33,0,0,1,-4.830620504905345,2.2525553350779273 Z" fill="#7aa884" stroke="black" stroke-width="0.07" />
<path d="M-4.028708069362167,1.5869503117162056 A4.33,4.33,0,0,0,-3.9708701220875873,1.7265834684463166 L-4.887930196472711,2.125332537371563 A5.33,5.33,0,0,1,-4.959125637344192,1.9534515384405027 Z" fill="#79ac7e" stroke="black" stroke-width="0.07" />
<path d="M-4.118074715558015,1.3380435856435238 A4.33,4.33,0,0,0,-4.068869048002983,1.4809472206001453 L-5.008561668788892,1.822967363925814 A5.33,5.33,0,0,1,-5.069131231853168,1.6470605800184714 Z" fill="#79b078" stroke="black" stroke-width="0.07" />
<path d="M-4.192079282837207,1.084145417555732 A4.33,4.33,0,0,0,-4.151689451979276,1.2297864425679839 L-5.1105091868474695,1.5138017872719063 A5.33,5.33,0,0,1,-5.160226923215315,1.3345254216101734 Z" fill="#79b472" stroke="black" stroke-width="0.07" />
<path d="M-4.270616654656212,0.7146561333767333 A4.33,4.33,0,0,0,-4.243073971008193,0.8632631560264612 L-5.2229986756290225,1.0626310904436578 A5.33,5.33,0,0,1,-5.2569022561934435,0.8797037392374107 Z" fill="#78b969" stroke="black" stroke-width="0.07" />
<path d="M-4.306279806944624,0.4526082459489377 A4.33,4.33,0,0,0,-4.287860737650999,0.6026195271570837 L-5.278128806392569,0.7417926281171492 A5.33,5.33,0,0,1,-5.3008017023128975,0.5571367092165908 Z" fill="#78bd63" stroke="black" stroke-width="0.07" />
<path d="M-4.325878799449445,0.18887194729190607 A4.33,4.33,0,0,0,-4.316652055064444,0.33972788450156804 L-5.313569388797572,0.41818698022941286 A5.33,5.33,0,0,1,-5.324927021031302,0.23249133465724234 Z" fill="#7ac05d" stroke="black" stroke-width="0.07" />
<path d="M-4.324065885487305,-0.2266146905319467 A4.33,4.33,0,0,0,-4.327362280992685,-0.15111482072182802 L-5.326753108011781,-0.18601431742432872 A5.33,5.33,0,0,1,-5.322695420241879,-0.2789506467748905 Z" fill="#89c852" stroke="black" stroke-width="0.07" />
<path d="M-4.302166135079624,-0.4901699156150368 A4.33,4.33,0,0,0,-4.316652055064444,-0.33972788450156916 L-5.313569388797572,-0.4181869802294142 A5.33,5.33,0,0,1,-5.295737990756211,-0.6033731293829437 Z" fill="#91cb4c" stroke="black" stroke-width="0.07" />
<path d="M-4.26421757054286,-0.7518966092978081 A4.33,4.33,0,0,0,-4.287860737650999,-0.6026195271570847 L-5.278128806392569,-0.7417926281171504 A5.33,5.33,0,0,1,-5.249025323555069,-0.9255447869647384 Z" fill="#9ad046" stroke="black" stroke-width="0.07" />
<path d="M-4.192079282837207,-1.084145417555731 A4.33,4.33,0,0,0,-4.21036175532194,-1.010818425496071 L-5.182731675719616,-1.2442637893519766 A5.33,5.33,0,0,1,-5.160226923215315,-1.3345254216101723 Z" fill="#a8d63d" stroke="black" stroke-width="0.07" />
<path d="M-4.118074715558015,-1.3380435856435227 A4.33,4.33,0,0,0,-4.16226314341292,-1.1935097506876085 L-5.123524839351239,-1.4691471065046082 A5.33,5.33,0,0,1,-5.069131231853168,-1.6470605800184703 Z" fill="#afda37" stroke="black" stroke-width="0.07" />
<path d="M-3.8580582497356324,-1.965778863872238 A4.33,4.33,0,0,0,-3.985786015449066,-1.6918657863585571 L-4.906290868901506,-2.0825969148478314 A5.33,5.33,0,0,1,-4.749064773924,-2.4197693636117847 Z" fill="#c4e328" stroke="black" stroke-width="0.07" />
<path d="M-3.691931911653219,-2.262418785220059 A4.33,4.33,0,0,0,-3.8052780978263097,-2.0660974319241054 L-4.684095210488275,-2.5432561921837142 A5.33,5.33,0,0,1,-4.544572076007311,-2.784917349936008 Z" fill="#d2ea1f" stroke="black" stroke-width="0.07" />
<path d="M-3.5469283517713337,-2.483585969400031 A4.33,4.33,0,0,0,-3.631443559203687,-2.358287021615067 L-4.4701141271491105,-2.902926056630094 A5.33,5.33,0,0,1,-4.366080396060325,-3.057162405751077 Z" fill="#dcee18" stroke="black" stroke-width="0.07" />
<path d="M-3.3886933191709523,-2.6954883766408932 A4.33,4.33,0,0,0,-3.4807002064725507,-2.5755826666333075 L-4.284557067089768,-3.170405453384649 A5.33,5.33,0,0,1,-4.171301476023366,-3.3180030132785125 Z" fill="#e5f311" stroke="black" stroke-width="0.07" />
<path d="M-3.0349371144183546,-3.0883744448376063 A4.33,4.33,0,0,0,-3.2429782710163795,-2.869144808774143 L-3.9919339918053818,-3.5317648569898803 A5.33,5.33,0,0,1,-3.7358463787182052,-3.8016248939917876 Z" fill="#f5fa06" stroke="black" stroke-width="0.07" />
<path d="M-2.7832703499427156,-3.3169724387051747 A4.33,4.33,0,0,0,-2.953052899070618,-3.1667615280110084 L-3.6350512591331166,-3.898115229630179 A5.33,5.33,0,0,1,-3.426057959629255,-4.083016881824153 Z" fill="#fefc00" stroke="black" stroke-width="0.07" />
<path d="M-2.575582666633307,-3.480700206472551 A4.33,4.33,0,0,0,-2.695488376640892,-3.3886933191709527 L-3.3180030132785117,-4.171301476023367 A5.33,5.33,0,0,1,-3.170405453384648,-4.284557067089769 Z" fill="#fbf500" stroke="black" stroke-width="0.07" />
<path d="M-2.0992256556666393,-3.7871033319135843 A4.33,4.33,0,0,0,-2.294550414129777,-3.672048256357325 L-2.8244696783629815,-4.520096352513751 A5.33,5.33,0,0,1,-2.584035275912976,-4.66172303905298 Z" fill="#f7e900" stroke="black" stroke-width="0.07" />
<path d="M-1.864113049179919,-3.908194281234896 A4.33,4.33,0,0,0,-1.9993714953076962,-3.8407569076617007 L-2.46112010854273,-4.727767740839923 A5.33,5.33,0,0,1,-2.294624145988214,-4.810779565584757 Z" fill="#f5e200" stroke="black" stroke-width="0.07" />
<path d="M-1.6220465494908993,-4.014706090274189 A4.33,4.33,0,0,0,-1.7611696645182142,-3.9556518315924625 L-2.167906307594014,-4.869197289235063 A5.33,5.33,0,0,1,-1.9966531429068113,-4.941889944840977 Z" fill="#f3dc00" stroke="black" stroke-width="0.07" />
<path d="M-1.229786442567985,-4.151689451979276 A4.33,4.33,0,0,0,-1.302056111853502,-4.129594396739822 L-1.602761911357775,-5.08331134748805 A5.33,5.33,0,0,1,-1.5138017872719076,-5.1105091868474695 Z" fill="#efd100" stroke="black" stroke-width="0.07" />
<path d="M-0.9740380653089347,-4.219022380520069 A4.33,4.33,0,0,0,-1.1206864652939152,-4.182458827831666 L-1.3795055103964362,-5.1483846541207345 A5.33,5.33,0,0,1,-1.1989891196527995,-5.193392445305304 Z" fill="#eecc00" stroke="black" stroke-width="0.07" />
<path d="M-0.7146561333767345,-4.270616654656212 A4.33,4.33,0,0,0,-0.8632631560264634,-4.243073971008192 L-1.0626310904436604,-5.222998675629022 A5.33,5.33,0,0,1,-0.8797037392374122,-5.2569022561934435 Z" fill="#ecc600" stroke="black" stroke-width="0.07" />
<path d="M-0.3397278845015683,-4.316652055064444 A4.33,4.33,0,0,0,-0.49016991561503603,-4.302166135079624 L-0.6033731293829427,-5.295737990756211 A5.33,5.33,0,0,1,-0.4181869802294132,-5.313569388797572 Z" fill="#e9bd00" stroke="black" stroke-width="0.07" />
<path d="M-0.07556891987343746,-4.329340520027174 A4.33,4.33,0,0,0,-0.22661469053194588,-4.324065885487305 L-0.2789506467748895,-5.322695420241879 A5.33,5.33,0,0,1,-0.09302132631072094,-5.3291882151835654 Z" fill="#e7b700" stroke="black" stroke-width="0.07" />
<path d="M0.18887194729190587,-4.325878799449445 A4.33,4.33,0,0,0,0.037785898707958974,-4.329835126867862 L0.046512434206332866,-5.329797049932033 A5.33,5.33,0,0,1,0.23249133465724212,-5.324927021031302 Z" fill="#e5b100" stroke="black" stroke-width="0.07" />
<path d="M0.4526082459489395,-4.306279806944623 A4.33,4.33,0,0,0,0.30204553131206324,-4.319452337625039 L0.37180200505618866,-5.317016387884863 A5.33,5.33,0,0,1,0.557136709216593,-5.300801702312897 Z" fill="#e3ab00" stroke="black" stroke-width="0.07" />
<path d="M0.7518966092978087,-4.26421757054286 A4.33,4.33,0,0,0,0.6026195271570844,-4.287860737650999 L0.7417926281171501,-5.278128806392569 A5.33,5.33,0,0,1,0.9255447869647391,-5.249025323555069 Z" fill="#e1a300" stroke="black" stroke-width="0.07" />
<path d="M1.0108184254960708,-4.21036175532194 A4.33,4.33,0,0,0,0.8632631560264649,-4.243073971008192 L1.0626310904436622,-5.222998675629022 A5.33,5.33,0,0,1,1.2442637893519761,-5.182731675719616 Z" fill="#e39800" stroke="black" stroke-width="0.07" />
<path d="M1.2659694814494502,-4.140799593319944 A4.33,4.33,0,0,0,1.1206864652939148,-4.182458827831666 L1.3795055103964355,-5.1483846541207345 A5.33,5.33,0,0,1,1.558341186172187,-5.097104349282979 Z" fill="#e58d00" stroke="black" stroke-width="0.07" />
<path d="M1.657019262140839,-4.000398375773871 A4.33,4.33,0,0,0,1.516397960853494,-4.055790579445562 L1.8666053421129614,-4.992462768693959 A5.33,5.33,0,0,1,2.039702694505929,-4.924277908285158 Z" fill="#e87b00" stroke="black" stroke-width="0.07" />
<path d="M1.8981470655967054,-3.8917782204753935 A4.33,4.33,0,0,0,1.7611696645182149,-3.955651831592462 L2.167906307594015,-4.869197289235062 A5.33,5.33,0,0,1,2.336518212385783,-4.790572266774561 Z" fill="#ea7000" stroke="black" stroke-width="0.07" />
<path d="M2.2945504141297772,-3.6720482563573245 A4.33,4.33,0,0,0,2.2301148643605355,-3.711534412040146 L2.74515293927059,-4.568701712742258 A5.33,5.33,0,0,1,2.8244696783629823,-4.52009635251375 Z" fill="#ee5b00" stroke="black" stroke-width="0.07" />
<path d="M2.5144437982283696,-3.525120194482862 A4.33,4.33,0,0,0,2.3898871464012124,-3.6107256095508378 L2.9418241317132705,-4.444611431618006 A5.33,5.33,0,0,1,3.09514675393931,-4.339235712839181 Z" fill="#f05100" stroke="black" stroke-width="0.07" />
<path d="M2.8121100492696947,-3.2925578310481343 A4.33,4.33,0,0,0,2.8121100492696947,-3.2925578310481343 L3.4615580975998785,-4.052963796648165 A5.33,5.33,0,1,1,3.4615580975998785,-4.052963796648165 Z" fill="#f33e00" stroke="black" stroke-width="0.07" />
<path d="M2.9530528990706184,-3.166761528011008 A4.33,4.33,0,0,0,2.8973355255338564,-3.2178170943171165 L3.5664661318927147,-3.960961919794511 A5.33,5.33,0,0,1,3.635051259133117,-3.8981152296301786 Z" fill="#f43800" stroke="black" stroke-width="0.07" />
<path d="M3.267892482364603,-2.840735595528896 A4.33,4.33,0,0,0,3.217817094317117,-2.8973355255338564 L3.9609619197945114,-3.5664661318927147 A5.33,5.33,0,0,1,4.022602062587375,-3.4967946245194033 Z" fill="#f82400" stroke="black" stroke-width="0.07" />
<path d="M3.4352199634610483,-2.6359369876077605 A4.33,4.33,0,0,0,3.3411344460688275,-2.7542186938027178 L4.112759029456548,-3.3902969140804817 A5.33,5.33,0,0,1,4.228573303752284,-3.244698416616481 Z" fill="#fa1b00" stroke="black" stroke-width="0.07" />
<path d="M3.58973268916333,-2.4213052720283343 A4.33,4.33,0,0,0,3.5030435856435225,-2.5451101424264087 L4.31206058001847,-3.132895394718882 A5.33,5.33,0,0,1,4.418770261718372,-2.980498175499081 Z" fill="#fc1000" stroke="black" stroke-width="0.07" />
<path d="M3.730854264711807,-2.197641111619849 A4.33,4.33,0,0,0,3.691931911653219,-2.262418785220058 L4.544572076007311,-2.784917349936007 A5.33,5.33,0,0,1,4.592483425153333,-2.705179474580553 Z" fill="#fe0300" stroke="black" stroke-width="0.07" />
<path d="M3.8580582497356333,-1.9657788638722375 A4.33,4.33,0,0,0,3.787103331913584,-2.0992256556666393 L4.66172303905298,-2.5840352759129765 A5.33,5.33,0,0,1,4.749064773924001,-2.4197693636117843 Z" fill="#ff0000" stroke="black" stroke-width="0.07" />
<path d="M4.068869048002983,-1.4809472206001455 A4.33,4.33,0,0,0,4.014706090274189,-1.622046549490899 L4.941889944840977,-1.996653142906811 A5.33,5.33,0,0,1,5.008561668788892,-1.8229673639258142 Z" fill="#ff0000" stroke="black" stroke-width="0.07" />
<path d="M4.151689451979276,-1.229786442567985 A4.33,4.33,0,0,0,4.106241427042844,-1.373929162234049 L5.054565082249042,-1.6912338186391411 A5.33,5.33,0,0,1,5.1105091868474695,-1.5138017872719076 Z" fill="#ff0000" stroke="black" stroke-width="0.07" />
<path d="M4.227361710829311,-0.9371835283519855 A4.33,4.33,0,0,0,4.21036175532194,-1.0108184254960704 L5.182731675719616,-1.2442637893519757 A5.33,5.33,0,0,1,5.203657717949245,-1.1536231422900884 Z" fill="#ff0000" stroke="black" stroke-width="0.07" />
<path d="M4.276690514776947,-0.6773612336241996 A4.33,4.33,0,0,0,4.250445704328385,-0.826202949980439 L5.232072887776049,-1.017011945356984 A5.33,5.33,0,0,1,5.264378855372084,-0.8337956986644306 Z" fill="#ff0000" stroke="black" stroke-width="0.07" />
<path d="M4.306279806944623,-0.4526082459489395 A4.33,4.33,0,0,0,4.306279806944623,-0.4526082459489395 L5.300801702312897,-0.557136709216593 A5.33,5.33,0,1,1,5.300801702312897,-0.557136709216593 Z" fill="#ff0000" stroke="black" stroke-width="0.07" />
<path d="M4.321923677166684,-0.26434017618593025 A4.33,4.33,0,0,0,4.316652055064444,-0.3397278845015686 L5.313569388797572,-0.41818698022941353 A5.33,5.33,0,0,1,5.320058475588551,-0.32538871572078715 Z" fill="#ff0000" stroke="black" stroke-width="0.07" />
<path d="M4.328516217144163,0.11334618617309074 A4.33,4.33,0,0,0,4.329835126867862,0.03778589870795914 L5.329797049932033,0.046512434206333074 A5.33,5.33,0,0,1,5.32817354211972,0.13952313448096387 Z" fill="#ff0000" stroke="black" stroke-width="0.07" />
<path d="M4.2824386883571,0.640014750191214 A4.33,4.33,0,0,0,4.302166135079624,0.4901699156150361 L5.295737990756211,0.6033731293829429 A5.33,5.33,0,0,1,5.271454551719017,0.7878241613208247 Z" fill="#ff0000" stroke="black" stroke-width="0.07" />
<path d="M4.235379111177378,0.9002576212408978 A4.33,4.33,0,0,0,4.26421757054286,0.7518966092978083 L5.249025323555069,0.9255447869647386 A5.33,5.33,0,0,1,5.213526711911184,1.108169312058657 Z" fill="#ff0000" stroke="black" stroke-width="0.07" />
<path d="M4.1725198623933375,1.157142168418852 A4.33,4.33,0,0,0,4.21036175532194,1.0108184254960704 L5.182731675719616,1.2442637893519757 A5.33,5.33,0,0,1,5.13615031560196,1.424380544497109 Z" fill="#ff0000" stroke="black" stroke-width="0.07" />
<path d="M4.094095432345042,1.4097101087994883 A4.33,4.33,0,0,0,4.118074715558015,1.3380435856435222 L5.069131231853168,1.6470605800184697 A5.33,5.33,0,0,1,5.039614007944359,1.735278263256645 Z" fill="#ff0000" stroke="black" stroke-width="0.07" />
<path d="M4.000398375773871,1.6570192621408388 A4.33,4.33,0,0,0,4.055790579445562,1.5163979608534937 L4.99246276869396,1.8666053421129611 A5.33,5.33,0,0,1,4.924277908285158,2.0397026945059284 Z" fill="#fe0000" stroke="black" stroke-width="0.07" />
<path d="M3.8917782204753935,1.8981470655967052 A4.33,4.33,0,0,0,3.955651831592462,1.7611696645182147 L4.869197289235062,2.167906307594015 A5.33,5.33,0,0,1,4.790572266774561,2.3365182123857826 Z" fill="#f7070a" stroke="black" stroke-width="0.07" />
<path d="M3.7686401634197657,2.1321940152480123 A4.33,4.33,0,0,0,3.80527809782631,2.0660974319241046 L4.684095210488276,2.543256192183713 A5.33,5.33,0,0,1,4.638995859359666,2.6246175753514795 Z" fill="#ef0f15" stroke="black" stroke-width="0.07" />
<path d="M3.631443559203686,2.3582870216150673 A4.33,4.33,0,0,0,3.7115344120401463,2.2301148643605346 L4.568701712742259,2.745152939270589 A5.33,5.33,0,0,1,4.4701141271491105,2.9029260566300943 Z" fill="#e9151e" stroke="black" stroke-width="0.07" />
<path d="M3.3169724387051747,2.783270349942715 A4.33,4.33,0,0,0,3.4120865631171062,2.6658141881601 L4.200097316723828,3.2814756634857583 A5.33,5.33,0,0,1,4.083016881824153,3.4260579596292544 Z" fill="#db2431" stroke="black" stroke-width="0.07" />
<path d="M3.1408710264832056,2.9805753127539547 A4.33,4.33,0,0,0,3.2429782710163795,2.8691448087741436 L3.9919339918053818,3.5317648569898807 A5.33,5.33,0,0,1,3.866245397495493,3.6689298884477086 Z" fill="#d42b3b" stroke="black" stroke-width="0.07" />
</svg>