<?xml version="1.0" encoding="UTF-8"?>
<svg xmlns="http://www.w3.org/2000/svg" xmlns:xlink="http://www.w3.org/1999/xlink"
     width="600" height="600.0" viewBox="-7.0 -7.0 14 14">
<defs>
</defs>
<path d="M0.6427876096865393,0.7660444431189781 A1.0,1.0,0,1,0,0.615661475325659,0.7880107536067213 L1.231322950651318,1.5760215072134427 A2.0,2.0,0,1,1,1.2855752193730785,1.5320888862379562 Z" fill="#ff0000" stroke="black" stroke-width="0.07" />
<path d="M-1.7914796584674146,1.076429576562013 A2.09,2.09,0,0,0,1.343426104244867,1.6010328861186642 L1.9862137139314062,2.367077329237642 A3.09,3.09,0,0,1,-2.648646959169527,1.5914676514720674 Z" fill="#79b274" stroke="black" stroke-width="0.07" />
<path d="M-1.060755178587872,-1.8008049453227886 A2.09,2.09,0,0,0,-1.8190434045143904,1.029165240616246 L-2.68939910045429,1.5215888007197127 A3.09,3.09,0,0,1,-1.5682935415485764,-2.6624341057643144 Z" fill="#ff0000" stroke="black" stroke-width="0.07" />
<path d="M1.6242350594450692,-1.31527961729416 A2.09,2.09,0,0,0,-1.0132521063148443,-1.8279551879213372 L-1.4980617265611813,-2.702574895060733 A3.09,3.09,0,0,1,2.40138102090204,-1.9446000083439974 Z" fill="#a65c7d" stroke="black" stroke-width="0.07" />
<path d="M1.7224237342200126,1.1837890351729006 A2.09,2.09,0,0,0,1.6581084812086815,-1.272311386628226 L2.4514618214999166,-1.8810728156369467 A3.09,3.09,0,0,1,2.5465499228420283,1.7501952720977334 Z" fill="#7a9f93" stroke="black" stroke-width="0.07" />
<path d="M0.7153443528134905,3.098496806017048 A3.18,3.18,0,0,0,2.044064598803195,2.4360213291183506 L2.686852208489734,3.2020657722373285 A4.18,4.18,0,0,1,0.9402954071573553,4.072866870802283 Z" fill="#83c556" stroke="black" stroke-width="0.07" />
<path d="M-0.688277972323167,3.1046213026413882 A3.18,3.18,0,0,0,0.6339900314466863,3.1161605606942384 L0.8333579658638831,4.096085265315068 A4.18,4.18,0,0,1,-0.9047175862612697,4.080917309761321 Z" fill="#f7e900" stroke="black" stroke-width="0.07" />
<path d="M-1.8239730675963275,2.604903500838993 A3.18,3.18,0,0,0,-0.7693116280069436,3.085540409557669 L-1.0112335236066112,4.055836135833665 A4.18,4.18,0,0,1,-2.3975495039473738,3.4240555451279846 Z" fill="#897ba6" stroke="black" stroke-width="0.07" />
<path d="M-2.5888873483730954,1.8466353991607887 A3.18,3.18,0,0,0,-1.8915364618692667,2.5562648167627504 L-2.4863592486206083,3.360121677379967 A4.18,4.18,0,0,1,-3.4030028667294143,2.427338354871728 Z" fill="#79b077" stroke="black" stroke-width="0.07" />
<path d="M-3.1653599108076285,0.3047894930143127 A3.18,3.18,0,0,0,-2.7677311130888813,1.5659069211290249 L-3.638086809028781,2.058330481232492 A4.18,4.18,0,0,1,-4.160756109174807,0.4006352455345367 Z" fill="#ff0000" stroke="black" stroke-width="0.07" />
<path d="M-3.041049123962453,-0.9297420210183038 A3.18,3.18,0,0,0,-3.1722536798262415,0.22182558650631698 L-4.1698177300860655,0.29158206025044175 A4.18,4.18,0,0,1,-3.997353879925488,-1.2221137257410408 Z" fill="#f1d600" stroke="black" stroke-width="0.07" />
<path d="M-2.5562648167627513,-1.8915364618692654 A3.18,3.18,0,0,0,-3.015669223555714,-1.009028807368193 L-3.9639928787619128,-1.326333463773285 A4.18,4.18,0,0,1,-3.360121677379968,-2.486359248620606 Z" fill="#e4af00" stroke="black" stroke-width="0.07" />
<path d="M-1.8691571022900644,-2.572674042112333 A3.18,3.18,0,0,0,-2.505874196469376,-1.9578034915355937 L-3.293884950076097,-2.573464966861252 A4.18,4.18,0,0,1,-2.4569423545825373,-3.3816910364872803 Z" fill="#956e96" stroke="black" stroke-width="0.07" />
<path d="M-0.6067726052974125,-3.1215744433635715 A3.18,3.18,0,0,0,-1.5416945923833518,-2.781290668703279 L-2.0265042126296886,-3.6559103758426743 A4.18,4.18,0,0,1,-0.7975816006739572,-4.103201626811235 Z" fill="#e3ad00" stroke="black" stroke-width="0.07" />
<path d="M0.35998621978194306,-3.1595585010515483 A3.18,3.18,0,0,0,-0.5248513866369552,-3.136388212888396 L-0.6898989924976328,-4.122673814425627 A4.18,4.18,0,0,1,0.4731894335498496,-4.153130356728135 Z" fill="#b64a66" stroke="black" stroke-width="0.07" />
<path d="M1.1912489670626,-2.948444657522384 A3.18,3.18,0,0,0,0.4425704610530089,-3.1490524585981934 L0.5817435620130745,-4.1393205273397635 A4.18,4.18,0,0,1,1.5658555604785118,-3.8756285120891714 Z" fill="#e7b900" stroke="black" stroke-width="0.07" />
<path d="M1.846635399160789,-2.588887348373095 A3.18,3.18,0,0,0,1.2680220391822832,-2.9162510365446948 L1.6667711081075292,-3.8333111109298184 A4.18,4.18,0,0,1,2.4273383548717287,-3.403002866729414 Z" fill="#b1506e" stroke="black" stroke-width="0.07" />
<path d="M2.3257047711489625,-2.1687547849987454 A3.18,3.18,0,0,0,1.913771773623514,-2.539660921950391 L2.515586796775562,-3.338296431997684 A4.18,4.18,0,0,1,3.0570584727681327,-2.8507531450612436 Z" fill="#ebc400" stroke="black" stroke-width="0.07" />
<path d="M2.9975999416731276,-1.0615058123633916 A3.18,3.18,0,0,0,2.522863622126128,-1.9358613442477317 L3.316216962417363,-2.544622773256452 A4.18,4.18,0,0,1,3.9402414327653057,-1.3953126715971622 Z" fill="#86c654" stroke="black" stroke-width="0.07" />
<path d="M3.1780628299207248,-0.11098039951395308 A3.18,3.18,0,0,0,3.0243597218185885,-0.9826740421123328 L3.9754162381137417,-1.29169103648728 A4.18,4.18,0,0,1,4.17745365693982,-0.14587989621645403 Z" fill="#ed6000" stroke="black" stroke-width="0.07" />
<path d="M3.0921363468646117,0.7423562570617792 A3.18,3.18,0,0,0,3.179878915344065,-0.027750382884829113 L4.179840838408236,-0.03647691838320304 A4.18,4.18,0,0,1,4.064506267262288,0.9758016209176845 Z" fill="#e68600" stroke="black" stroke-width="0.07" />
<path d="M2.83340074691901,1.4436897891717588 A3.18,3.18,0,0,0,3.0716441275992374,0.823044563426016 L4.037569953888306,1.0818636085285367 A4.18,4.18,0,0,1,3.7244072711073777,1.8976802889113054 Z" fill="#8085b2" stroke="black" stroke-width="0.07" />
<path d="M2.3877536978200866,3.53999043481003 A4.2700000000000005,4.2700000000000005,0,0,0,2.744703093361523,3.271009772118037 L3.387490703048062,4.037054215237015 A5.2700000000000005,5.2700000000000005,0,0,1,2.9469466012908327,4.369028007365072 Z" fill="#e1a500" stroke="black" stroke-width="0.07" />
<path d="M1.971666578513592,3.7875362576710088 A4.2700000000000005,4.2700000000000005,0,0,0,2.2942693276409383,3.6012814736210226 L2.8315689359877623,4.444672919433908 A5.2700000000000005,5.2700000000000005,0,0,1,2.4334151917486255,4.674547090849231 Z" fill="#79b274" stroke="black" stroke-width="0.07" />
<path d="M1.5995701538859441,3.959075059000183 A4.2700000000000005,4.2700000000000005,0,0,0,1.8718447967893608,3.8378505776974436 L2.310215943578438,4.736644623996611 A5.2700000000000005,5.2700000000000005,0,0,1,1.974176747301856,4.88625891356697 Z" fill="#ff0000" stroke="black" stroke-width="0.07" />
<path d="M1.2840137638832443,4.07237137969493 A4.2700000000000005,4.2700000000000005,0,0,0,1.4953855179779252,3.9995902480906587 L1.8455928992373924,4.936262437339056 A5.2700000000000005,5.2700000000000005,0,0,1,1.5847195633875168,5.026088330443157 Z" fill="#95cd4a" stroke="black" stroke-width="0.07" />
<path d="M1.03300649421058,4.143162751198506 A4.2700000000000005,4.2700000000000005,0,0,0,1.1769715093385875,4.104587441656622 L1.4526088651555868,5.065849137594941 A5.2700000000000005,5.2700000000000005,0,0,1,1.2749283898102475,5.113458477474502 Z" fill="#9cd144" stroke="black" stroke-width="0.07" />
<path d="M0.5573468407796226,4.2334695580661705 A4.2700000000000005,4.2700000000000005,0,0,0,0.851301079961431,4.184278488730944 L1.050669014378628,5.164203193351773 A5.2700000000000005,5.2700000000000005,0,0,1,0.6878730329996747,5.2249144194399815 Z" fill="#8184b0" stroke="black" stroke-width="0.07" />
<path d="M0.22347453315737068,4.2641481134020305 A4.2700000000000005,4.2700000000000005,0,0,0,0.44633653815287827,4.246608493222528 L0.5508650014205313,5.241130388590801 A5.2700000000000005,5.2700000000000005,0,0,1,0.2758104894003146,5.262777648156605 Z" fill="#8b79a3" stroke="black" stroke-width="0.07" />
<path d="M-0.037262306578055175,4.269837411484012 A4.2700000000000005,4.2700000000000005,0,0,0,0.11177556927461821,4.26853677764563 L0.13795251758249133,5.268194102621187 A5.2700000000000005,5.2700000000000005,0,0,1,-0.04598884207642875,5.269799334548183 Z" fill="#89c852" stroke="black" stroke-width="0.07" />
<path d="M-0.29786014288741625,4.25959849460945 A4.2700000000000005,4.2700000000000005,0,0,0,-0.14902085091968206,4.267398831371539 L-0.1839203476221837,5.266789658390635 A5.2700000000000005,5.2700000000000005,0,0,1,-0.3676166166315418,5.257162544869274 Z" fill="#95cd49" stroke="black" stroke-width="0.07" />
<path d="M-0.5573468407796205,4.2334695580661705 A4.2700000000000005,4.2700000000000005,0,0,0,-0.40926136326135826,4.250341767027853 L-0.5051071157815827,5.2457379653950325 A5.2700000000000005,5.2700000000000005,0,0,1,-0.6878730329996722,5.2249144194399815 Z" fill="#f53500" stroke="black" stroke-width="0.07" />
<path d="M-0.8147544102578492,4.191548073321525 A4.2700000000000005,4.2700000000000005,0,0,0,-0.6679751657217866,4.217429214341238 L-0.8244096307620177,5.2051175549363755 A5.2700000000000005,5.2700000000000005,0,0,1,-1.0055634056343947,5.173175256769189 Z" fill="#be425b" stroke="black" stroke-width="0.07" />
<path d="M-1.4604260120006085,4.012487490755828 A4.2700000000000005,4.2700000000000005,0,0,0,-1.0330064942105817,4.143162751198505 L-1.2749283898102493,5.113458477474502 A5.2700000000000005,5.2700000000000005,0,0,1,-1.8024461553262778,4.952180111541737 Z" fill="#ae5372" stroke="black" stroke-width="0.07" />
<path d="M-1.9052646619788864,3.8213697240406463 A4.2700000000000005,4.2700000000000005,0,0,0,-1.5649602381127492,3.9728830152832453 L-1.9314614648370463,4.90330058326527 A5.2700000000000005,5.2700000000000005,0,0,1,-2.351462475088696,4.716304085642671 Z" fill="#79ad7b" stroke="black" stroke-width="0.07" />
<path d="M-2.2627552582757855,3.6211653705879394 A4.2700000000000005,4.2700000000000005,0,0,0,-2.0046435730957537,3.7701862215076187 L-2.4741151358816444,4.653133814366545 A5.2700000000000005,5.2700000000000005,0,0,1,-2.7926745225089906,4.469213466744365 Z" fill="#fafd02" stroke="black" stroke-width="0.07" />
<path d="M-2.716054000586052,3.294836971065565 A4.2700000000000005,4.2700000000000005,0,0,0,-2.5398932994282295,3.432468794835517 L-3.134716086179571,4.236325655452735 A5.2700000000000005,5.2700000000000005,0,0,1,-3.352132220863816,4.0664615544532845 Z" fill="#8cc950" stroke="black" stroke-width="0.07" />
<path d="M-2.9121329974668706,3.122880305913857 A4.2700000000000005,4.2700000000000005,0,0,0,-2.8013720537894677,3.2226099075512353 L-3.4574310827799755,3.977319487774007 A5.2700000000000005,5.2700000000000005,0,0,1,-3.5941313575293696,3.854234007533027 Z" fill="#f0f80a" stroke="black" stroke-width="0.07" />
<path d="M-3.0973485642224694,2.939274038212329 A4.2700000000000005,4.2700000000000005,0,0,0,-2.992882558560363,3.045579417888356 L-3.693791822860214,3.7588298670425377 A5.2700000000000005,5.2700000000000005,0,0,1,-3.8227229352347574,3.627628613906083 Z" fill="#b74964" stroke="black" stroke-width="0.07" />
<path d="M-3.2710097721180365,2.744703093361523 A4.2700000000000005,4.2700000000000005,0,0,0,-3.173228404788474,2.857187689152325 L-3.916373230265868,3.5263182955111834 A5.2700000000000005,5.2700000000000005,0,0,1,-4.037054215237014,3.387490703048062 Z" fill="#ff0000" stroke="black" stroke-width="0.07" />
<path d="M-3.4324687948355175,2.5398932994282286 A4.2700000000000005,4.2700000000000005,0,0,0,-3.3417368297598085,2.658137498442635 L-4.124344986612222,3.2806521350802544 A5.2700000000000005,5.2700000000000005,0,0,1,-4.236325655452735,3.1347160861795698 Z" fill="#79ac7e" stroke="black" stroke-width="0.07" />
<path d="M-3.5399904348100293,2.3877536978200884 A4.2700000000000005,4.2700000000000005,0,0,0,-3.5399904348100293,2.3877536978200884 L-4.369028007365071,2.9469466012908354 A5.2700000000000005,5.2700000000000005,0,1,1,-4.369028007365071,2.9469466012908354 Z" fill="#fbf400" stroke="black" stroke-width="0.07" />
<path d="M-3.601281473621023,2.294269327640937 A4.2700000000000005,4.2700000000000005,0,0,0,-3.601281473621023,2.294269327640937 L-4.444672919433908,2.8315689359877605 A5.2700000000000005,5.2700000000000005,0,1,1,-4.444672919433908,2.8315689359877605 Z" fill="#7b94a4" stroke="black" stroke-width="0.07" />
<path d="M-3.91584651762448,1.702658524310802 A4.2700000000000005,4.2700000000000005,0,0,0,-3.7164188216633725,2.1026486016418042 L-4.586774517603272,2.595072161745271 A5.2700000000000005,5.2700000000000005,0,0,1,-4.832906592009604,2.1014075932360483 Z" fill="#aa5777" stroke="black" stroke-width="0.07" />
<path d="M-4.083421307962162,1.2484271791660846 A4.2700000000000005,4.2700000000000005,0,0,0,-3.959075059000183,1.5995701538859444 L-4.88625891356697,1.9741767473018565 A5.2700000000000005,5.2700000000000005,0,0,1,-5.0397260639251975,1.540798883888821 Z" fill="#7c8cb0" stroke="black" stroke-width="0.07" />
<path d="M-4.184278488730944,0.8513010799614295 A4.2700000000000005,4.2700000000000005,0,0,0,-4.114702035200821,1.1411078658541567 L-5.078332488409444,1.4083462419324133 A5.2700000000000005,5.2700000000000005,0,0,1,-5.164203193351773,1.0506690143786261 Z" fill="#7c90ab" stroke="black" stroke-width="0.07" />
<path d="M-4.2381720675084456,0.5203820963399809 A4.2700000000000005,4.2700000000000005,0,0,0,-4.205129105362129,0.7414777186377932 L-5.189936858374336,0.9151258963047236 A5.2700000000000005,5.2700000000000005,0,0,1,-5.230718219149767,0.6422514397451287 Z" fill="#ff0000" stroke="black" stroke-width="0.07" />
<path d="M-4.2693496583177915,0.07452177548719924 A4.2700000000000005,4.2700000000000005,0,0,0,-4.25959849460945,0.2978601428874131 L-5.257162544869274,0.3676166166315379 A5.2700000000000005,5.2700000000000005,0,0,1,-5.2691973534741825,0.09197418192448244 Z" fill="#fa1800" stroke="black" stroke-width="0.07" />
<path d="M-4.265935906154533,-0.18625478404998505 A4.2700000000000005,4.2700000000000005,0,0,0,-4.269837411484012,-0.03726230657805871 L-5.269799334548183,-0.045988842076433105 A5.2700000000000005,5.2700000000000005,0,0,1,-5.264984127736391,-0.2298741714153211 Z" fill="#e4f212" stroke="black" stroke-width="0.07" />
<path d="M-4.246608493222527,-0.4463365381528815 A4.2700000000000005,4.2700000000000005,0,0,0,-4.25959849460945,-0.297860142887416 L-5.257162544869274,-0.36761661663154155 A5.2700000000000005,5.2700000000000005,0,0,1,-5.2411303885908005,-0.5508650014205352 Z" fill="#a95979" stroke="black" stroke-width="0.07" />
<path d="M-4.211439518563978,-0.7047532770250956 A4.2700000000000005,4.2700000000000005,0,0,0,-4.2334695580661705,-0.5573468407796203 L-5.2249144194399815,-0.6878730329996718 A5.2700000000000005,5.2700000000000005,0,0,1,-5.197725120101209,-0.8698008828857736 Z" fill="#e3ac00" stroke="black" stroke-width="0.07" />
<path d="M-4.160560176632955,-0.9605410020483027 A4.2700000000000005,4.2700000000000005,0,0,0,-4.191548073321526,-0.8147544102578471 L-5.1731752567691895,-1.005563405634392 A5.2700000000000005,5.2700000000000005,0,0,1,-5.13493024141819,-1.1854920563921676 Z" fill="#fefc00" stroke="black" stroke-width="0.07" />
<path d="M-4.094160267887185,-1.2127455218857497 A4.2700000000000005,4.2700000000000005,0,0,0,-4.13399042441452,-1.0691226173124646 L-5.102138064792628,-1.3195026213669059 A5.2700000000000005,5.2700000000000005,0,0,1,-5.052980002755378,-1.4967608665896721 Z" fill="#7f86b3" stroke="black" stroke-width="0.07" />
<path d="M-3.944965603823195,-1.634058256198934 A4.2700000000000005,4.2700000000000005,0,0,0,-4.049342007730472,-1.3548908828497437 L-4.9976656629366705,-1.6721955392548358 A5.2700000000000005,5.2700000000000005,0,0,1,-4.868845136334482,-2.0167416885640237 Z" fill="#79b373" stroke="black" stroke-width="0.07" />
<path d="M-3.804597858284331,-1.9385394338878652 A4.2700000000000005,4.2700000000000005,0,0,0,-3.9008391041339054,-1.736765465933668 L-4.814384561776507,-2.1435021090094684 A5.2700000000000005,5.2700000000000005,0,0,1,-4.695604382472698,-2.392529933627412 Z" fill="#fb0405" stroke="black" stroke-width="0.07" />
<path d="M-3.6791565150853147,-2.1671888098422083 A4.2700000000000005,4.2700000000000005,0,0,0,-3.7525490710665923,-2.037467906308529 L-4.631366183728558,-2.514626666568138 A5.2700000000000005,5.2700000000000005,0,0,1,-4.54078567552684,-2.6747271728029127 Z" fill="#956d94" stroke="black" stroke-width="0.07" />
<path d="M-3.539990434810028,-2.3877536978200897 A4.2700000000000005,4.2700000000000005,0,0,0,-3.6211653705879394,-2.262755258275785 L-4.469213466744365,-2.79267452250899 A5.2700000000000005,5.2700000000000005,0,0,1,-4.36902800736507,-2.9469466012908363 Z" fill="#887ca7" stroke="black" stroke-width="0.07" />
<path d="M-3.173228404788473,-2.8571876891523256 A4.2700000000000005,4.2700000000000005,0,0,0,-3.364805917900703,-2.6288744996405615 L-4.152816671507424,-3.24453597496622 A5.2700000000000005,5.2700000000000005,0,0,1,-3.916373230265867,-3.526318295511184 Z" fill="#7c8ab4" stroke="black" stroke-width="0.07" />
<path d="M-2.939274038212329,-3.0973485642224694 A4.2700000000000005,4.2700000000000005,0,0,0,-3.0973485642224685,-2.9392740382123295 L-3.822722935234756,-3.6276286139060834 A5.2700000000000005,5.2700000000000005,0,0,1,-3.627628613906083,-3.8227229352347574 Z" fill="#cbe723" stroke="black" stroke-width="0.07" />
<path d="M-2.7447030933615233,-3.2710097721180365 A4.2700000000000005,4.2700000000000005,0,0,0,-2.857187689152325,-3.173228404788474 L-3.5263182955111834,-3.916373230265868 A5.2700000000000005,5.2700000000000005,0,0,1,-3.3874907030480625,-4.037054215237014 Z" fill="#f8eb00" stroke="black" stroke-width="0.07" />
<path d="M-2.539893299428227,-3.432468794835519 A4.2700000000000005,4.2700000000000005,0,0,0,-2.658137498442635,-3.3417368297598085 L-3.2806521350802544,-4.124344986612222 A5.2700000000000005,5.2700000000000005,0,0,1,-3.134716086179568,-4.236325655452736 Z" fill="#c13f56" stroke="black" stroke-width="0.07" />
<path d="M-2.4185546316690356,-3.519018825416008 A4.2700000000000005,4.2700000000000005,0,0,0,-2.4185546316690356,-3.519018825416008 L-2.984960868593868,-4.343145014038024 A5.2700000000000005,5.2700000000000005,0,1,1,-2.984960868593868,-4.343145014038024 Z" fill="#e78200" stroke="black" stroke-width="0.07" />
<path d="M-2.3256086795141657,-3.5811233251269607 A4.2700000000000005,4.2700000000000005,0,0,0,-2.3256086795141657,-3.5811233251269607 L-2.870247714529193,-4.419793893072384 A5.2700000000000005,5.2700000000000005,0,1,1,-2.870247714529193,-4.419793893072384 Z" fill="#f43900" stroke="black" stroke-width="0.07" />
<path d="M-2.2310688713371016,-3.6407735017919745 A4.2700000000000005,4.2700000000000005,0,0,0,-2.2310688713371016,-3.6407735017919745 L-2.7535674360530504,-4.493413666146067 A5.2700000000000005,5.2700000000000005,0,1,1,-2.7535674360530504,-4.493413666146067 Z" fill="#df202b" stroke="black" stroke-width="0.07" />
<path d="M-1.8718447967893612,-3.837850577697443 A4.2700000000000005,4.2700000000000005,0,0,0,-2.070137078451859,-3.7346261494852206 L-2.5549466986981964,-4.609245856624616 A5.2700000000000005,5.2700000000000005,0,0,1,-2.310215943578439,-4.73664462399661 Z" fill="#ff0000" stroke="black" stroke-width="0.07" />
<path d="M-1.6340582561989334,-3.944965603823195 A4.2700000000000005,4.2700000000000005,0,0,0,-1.77074014614214,-3.8855346266428405 L-2.1854333887983786,-4.795495897519384 A5.2700000000000005,5.2700000000000005,0,0,1,-2.0167416885640232,-4.868845136334482 Z" fill="#e9be00" stroke="black" stroke-width="0.07" />
<path d="M-1.390176019532058,-4.037364317809083 A4.2700000000000005,4.2700000000000005,0,0,0,-1.5302311445584322,-3.986388421143052 L-1.8885990941037325,-4.919968847640254 A5.2700000000000005,5.2700000000000005,0,0,1,-1.7157441739892145,-4.982882893408401 Z" fill="#7aa982" stroke="black" stroke-width="0.07" />
<path d="M-1.141107865854157,-4.11470203520082 A4.2700000000000005,4.2700000000000005,0,0,0,-1.2840137638832456,-4.072371379694929 L-1.5847195633875186,-5.026088330443156 A5.2700000000000005,5.2700000000000005,0,0,1,-1.4083462419324138,-5.078332488409443 Z" fill="#ff0000" stroke="black" stroke-width="0.07" />
<path d="M-0.8877829197918315,-4.176690255133351 A4.2700000000000005,4.2700000000000005,0,0,0,-1.0330064942105817,-4.143162751198505 L-1.2749283898102493,-5.113458477474502 A5.2700000000000005,5.2700000000000005,0,0,1,-1.0956946106095906,-5.154837855867156 Z" fill="#80c359" stroke="black" stroke-width="0.07" />
<path d="M-0.4833777227889617,-4.242551823739029 A4.2700000000000005,4.2700000000000005,0,0,0,-0.7047532770250939,-4.211439518563979 L-0.8698008828857716,-5.19772512010121 A5.2700000000000005,5.2700000000000005,0,0,1,-0.5965809365568684,-5.236123679415616 Z" fill="#ff0000" stroke="black" stroke-width="0.07" />
<path d="M-0.2234745331573693,-4.2641481134020305 A4.2700000000000005,4.2700000000000005,0,0,0,-0.3721550215325007,-4.253751360851754 L-0.45931076428015893,-5.249946058943499 A5.2700000000000005,5.2700000000000005,0,0,1,-0.2758104894003129,-5.262777648156605 Z" fill="#ff0000" stroke="black" stroke-width="0.07" />
<path d="M0.03726230657805654,-4.269837411484012 A4.2700000000000005,4.2700000000000005,0,0,0,-0.11177556927461779,-4.26853677764563 L-0.1379525175824908,-5.268194102621187 A5.2700000000000005,5.2700000000000005,0,0,1,0.04598884207643044,-5.269799334548183 Z" fill="#eece00" stroke="black" stroke-width="0.07" />
<path d="M0.29786014288741575,-4.25959849460945 A4.2700000000000005,4.2700000000000005,0,0,0,0.14902085091967962,-4.26739883137154 L0.1839203476221807,-5.2667896583906355 A5.2700000000000005,5.2700000000000005,0,0,1,0.36761661663154116,-5.257162544869274 Z" fill="#fbf400" stroke="black" stroke-width="0.07" />
<path d="M0.741477718637793,-4.205129105362129 A4.2700000000000005,4.2700000000000005,0,0,0,0.5942691410994806,-4.2284446535265054 L0.7334422420595462,-5.218712722268076 A5.2700000000000005,5.2700000000000005,0,0,1,0.9151258963047234,-5.189936858374336 Z" fill="#7aa38c" stroke="black" stroke-width="0.07" />
<path d="M0.9968117036647165,-4.152019560098079 A4.2700000000000005,4.2700000000000005,0,0,0,0.851301079961433,-4.184278488730943 L1.0506690143786304,-5.1642031933517725 A5.2700000000000005,5.2700000000000005,0,0,1,1.230257067520622,-5.124389480495756 Z" fill="#a8597a" stroke="black" stroke-width="0.07" />
<path d="M1.2484271791660861,-4.083421307962162 A4.2700000000000005,4.2700000000000005,0,0,0,1.1051573225877638,-4.1245032782543225 L1.3639763676902845,-5.09042910454339 A5.2700000000000005,5.2700000000000005,0,0,1,1.540798883888823,-5.0397260639251975 Z" fill="#8184b1" stroke="black" stroke-width="0.07" />
<path d="M1.495385517977926,-3.999590248090658 A4.2700000000000005,4.2700000000000005,0,0,0,1.3548908828497435,-4.049342007730472 L1.6721955392548356,-4.9976656629366705 A5.2700000000000005,5.2700000000000005,0,0,1,1.8455928992373936,-4.936262437339056 Z" fill="#ff0000" stroke="black" stroke-width="0.07" />
<path d="M1.9052646619788833,-3.8213697240406477 A4.2700000000000005,4.2700000000000005,0,0,0,1.7026585243108017,-3.91584651762448 L2.101407593236048,-4.832906592009604 A5.2700000000000005,5.2700000000000005,0,0,1,2.351462475088692,-4.716304085642673 Z" fill="#a9d73c" stroke="black" stroke-width="0.07" />
<path d="M2.1350000000000007,-3.697928474159553 A4.2700000000000005,4.2700000000000005,0,0,0,2.004643573095754,-3.7701862215076183 L2.474115135881645,-4.653133814366545 A5.2700000000000005,5.2700000000000005,0,0,1,2.6350000000000007,-4.563953877943992 Z" fill="#79ab7f" stroke="black" stroke-width="0.07" />
<path d="M2.356770927282489,-3.560692460226808 A4.2700000000000005,4.2700000000000005,0,0,0,2.231068871337102,-3.640773501791974 L2.753567436053051,-4.493413666146066 A5.2700000000000005,5.2700000000000005,0,0,1,2.908707912594547,-4.394578282293976 Z" fill="#b34e6b" stroke="black" stroke-width="0.07" />
<path d="M2.6871980697828066,-3.3184132554212655 A4.2700000000000005,4.2700000000000005,0,0,0,2.5697501488592467,-3.4101736279019406 L3.171565172011295,-4.208809137949234 A5.2700000000000005,5.2700000000000005,0,0,1,3.316518460832644,-4.095559216878236 Z" fill="#7fc35a" stroke="black" stroke-width="0.07" />
<path d="M2.8847701865188697,-3.14817422817923 A4.2700000000000005,4.2700000000000005,0,0,0,2.7731431663698842,-3.246933473112133 L3.4225912147000677,-4.007339438712164 A5.2700000000000005,5.2700000000000005,0,0,1,3.5603603941345296,-3.885451564989354 Z" fill="#fdfa00" stroke="black" stroke-width="0.07" />
<path d="M3.0715809474460407,-2.9661912418599186 A4.2700000000000005,4.2700000000000005,0,0,0,2.966191241859919,-3.0715809474460403 L3.6608496123189163,-3.7909207477846913 A5.2700000000000005,5.2700000000000005,0,0,1,3.7909207477846922,-3.660849612318916 Z" fill="#79ab7f" stroke="black" stroke-width="0.07" />
<path d="M3.5190188254160075,-2.4185546316690365 A4.2700000000000005,4.2700000000000005,0,0,0,3.3876187630435743,-2.5994113018672373 L4.18097210333481,-3.2081727308759582 A5.2700000000000005,5.2700000000000005,0,0,1,4.343145014038023,-2.9849608685938693 Z" fill="#fb1200" stroke="black" stroke-width="0.07" />
<path d="M3.66010437399802,-2.1992125798659314 A4.2700000000000005,4.2700000000000005,0,0,0,3.581123325126961,-2.3256086795141657 L4.419793893072385,-2.870247714529193 A5.2700000000000005,5.2700000000000005,0,0,1,4.517271674700132,-2.7142506547759857 Z" fill="#d8ed1b" stroke="black" stroke-width="0.07" />
<path d="M3.787536257671007,-1.971666578513595 A4.2700000000000005,4.2700000000000005,0,0,0,3.716418821663372,-2.1026486016418047 L4.5867745176032715,-2.5950721617452714 A5.2700000000000005,5.2700000000000005,0,0,1,4.674547090849229,-2.433415191748629 Z" fill="#956d95" stroke="black" stroke-width="0.07" />
<path d="M3.9008391041339063,-1.7367654659336669 A4.2700000000000005,4.2700000000000005,0,0,0,3.8378505776974436,-1.8718447967893608 L4.736644623996611,-2.310215943578438 A5.2700000000000005,5.2700000000000005,0,0,1,4.814384561776507,-2.143502109009467 Z" fill="#7b9b99" stroke="black" stroke-width="0.07" />
<path d="M3.9995902480906587,-1.4953855179779258 A4.2700000000000005,4.2700000000000005,0,0,0,3.944965603823195,-1.6340582561989336 L4.868845136334482,-2.0167416885640232 A5.2700000000000005,5.2700000000000005,0,0,1,4.936262437339056,-1.8455928992373933 Z" fill="#78bd63" stroke="black" stroke-width="0.07" />
<path d="M4.1245032782543225,-1.1051573225877638 A4.2700000000000005,4.2700000000000005,0,0,0,4.061011324580306,-1.3195025659810256 L5.01206784087546,-1.628519560355973 A5.2700000000000005,5.2700000000000005,0,0,1,5.09042910454339,-1.3639763676902845 Z" fill="#f7e900" stroke="black" stroke-width="0.07" />
<path d="M4.184278488730943,-0.851301079961432 A4.2700000000000005,4.2700000000000005,0,0,0,4.152019560098079,-0.9968117036647162 L5.124389480495756,-1.2302570675206215 A5.2700000000000005,5.2700000000000005,0,0,1,5.1642031933517725,-1.050669014378629 Z" fill="#7a9f93" stroke="black" stroke-width="0.07" />
<path d="M4.228444653526506,-0.5942691410994795 A4.2700000000000005,4.2700000000000005,0,0,0,4.205129105362129,-0.7414777186377925 L5.189936858374336,-0.915125896304723 A5.2700000000000005,5.2700000000000005,0,0,1,5.2187127222680765,-0.7334422420595449 Z" fill="#e58b00" stroke="black" stroke-width="0.07" />
<path d="M4.256837015040457,-0.33502033875789794 A4.2700000000000005,4.2700000000000005,0,0,0,4.242551823739029,-0.48337772278896174 L5.236123679415616,-0.5965809365568685 A5.2700000000000005,5.2700000000000005,0,0,1,5.253754348773585,-0.41347943448574287 Z" fill="#7aa28e" stroke="black" stroke-width="0.07" />
<path d="M4.265935906154533,0.18625478404998475 A4.2700000000000005,4.2700000000000005,0,0,0,4.269837411484012,-0.0372623065780567 L5.269799334548183,-0.04598884207643064 A5.2700000000000005,5.2700000000000005,0,0,1,5.264984127736391,0.22987417141532074 Z" fill="#90739b" stroke="black" stroke-width="0.07" />
<path d="M4.246608493222527,0.4463365381528803 A4.2700000000000005,4.2700000000000005,0,0,0,4.25959849460945,0.2978601428874151 L5.257162544869274,0.3676166166315404 A5.2700000000000005,5.2700000000000005,0,0,1,5.2411303885908005,0.5508650014205337 Z" fill="#78bf60" stroke="black" stroke-width="0.07" />
<path d="M4.211439518563979,0.7047532770250935 A4.2700000000000005,4.2700000000000005,0,0,0,4.2334695580661705,0.5573468407796203 L5.2249144194399815,0.6878730329996718 A5.2700000000000005,5.2700000000000005,0,0,1,5.19772512010121,0.8698008828857712 Z" fill="#ff0000" stroke="black" stroke-width="0.07" />
<path d="M4.160560176632955,0.9605410020483036 A4.2700000000000005,4.2700000000000005,0,0,0,4.191548073321526,0.8147544102578465 L5.1731752567691895,1.0055634056343912 A5.2700000000000005,5.2700000000000005,0,0,1,5.13493024141819,1.1854920563921687 Z" fill="#f53300" stroke="black" stroke-width="0.07" />
<path d="M4.061011324580306,1.3195025659810256 A4.2700000000000005,4.2700000000000005,0,0,0,4.1245032782543225,1.1051573225877638 L5.09042910454339,1.3639763676902845 A5.2700000000000005,5.2700000000000005,0,0,1,5.01206784087546,1.628519560355973 Z" fill="#f72800" stroke="black" stroke-width="0.07" />
<path d="M3.9728830152832453,1.5649602381127494 A4.2700000000000005,4.2700000000000005,0,0,0,4.025079166963602,1.425355288928202 L4.9677206580557804,1.7591621481619728 A5.2700000000000005,5.2700000000000005,0,0,1,4.90330058326527,1.9314614648370467 Z" fill="#ff0000" stroke="black" stroke-width="0.07" />
<path d="M3.8699342506464958,1.8045799776327869 A4.2700000000000005,4.2700000000000005,0,0,0,3.9305557242419207,1.6684219186491989 L4.851060577694361,2.0591530471384725 A5.2700000000000005,5.2700000000000005,0,0,1,4.776242037683145,2.2271982393734864 Z" fill="#ff0000" stroke="black" stroke-width="0.07" />
</svg>