<?xml version="1.0" encoding="UTF-8"?>
<svg xmlns="http://www.w3.org/2000/svg" xmlns:xlink="http://www.w3.org/1999/xlink"
     width="600" height="600.0" viewBox="-7.0 -7.0 14 14">
<defs>
</defs>
<path d="M0.5000000000000001,0.8660254037844386 A1.0,1.0,0,1,0,0.4694715627858902,0.8829475928589272 L0.9389431255717804,1.7658951857178544 A2.0,2.0,0,1,1,1.0000000000000002,1.7320508075688772 Z" fill="red" stroke="black" stroke-width="0.07" />
<path d="M-1.4778531726798845,1.477853172679884 A2.09,2.09,0,0,0,1.0450000000000002,1.8099930939094766 L1.5450000000000004,2.676018497693915 A3.09,3.09,0,0,1,-2.184959953866432,2.1849599538664317 Z" fill="#8b79a3" stroke="black" stroke-width="0.07" />
<path d="M-1.916655555464909,-0.8333855540537652 A2.09,2.09,0,0,0,-1.5160324354156816,1.4386610631999452 L-2.2414068064279693,2.127015638893699 A3.09,3.09,0,0,1,-2.833715629850033,-1.2321346229790118 Z" fill="#78b968" stroke="black" stroke-width="0.07" />
<path d="M-0.1821555023426057,-2.082046919011748 A2.09,2.09,0,0,0,-1.8941832749065983,-0.8832721670380619 L-2.8004910619432484,-1.3058904287787614 A3.09,3.09,0,0,1,-0.26931124509026394,-3.0782416171034934 Z" fill="#faf100" stroke="black" stroke-width="0.07" />
<path d="M1.6126953792803347,-1.3294034803805266 A2.09,2.09,0,0,0,-0.12759144762785113,-2.086101728701702 L-0.18863998716270813,-3.0842365271235685 A3.09,3.09,0,0,1,2.3843199626680547,-1.9654817006582905 Z" fill="#e97500" stroke="black" stroke-width="0.07" />
<path d="M2.0582482037955145,0.3629246913238844 A2.09,2.09,0,0,0,1.6469424750380488,-1.2867324834306255 L2.434953228644771,-1.9023939587562837 A3.09,3.09,0,0,1,3.0430559568077227,0.5365728689908147 Z" fill="#ff0000" stroke="black" stroke-width="0.07" />
<path d="M1.2136691774358643,1.701501433364707 A2.09,2.09,0,0,0,2.0480426326575336,0.41667898293194205 L3.0279673372783633,0.6160469173491392 A3.09,3.09,0,0,1,1.794372133146804,2.515616951721026 Z" fill="#e71820" stroke="black" stroke-width="0.07" />
<path d="M0.49746159882793356,3.140848923092538 A3.18,3.18,0,0,0,1.5900000000000005,2.753960784034515 L2.0900000000000003,3.619986187818953 A4.18,4.18,0,0,1,0.6538960638681641,4.128537263687676 Z" fill="#9c668b" stroke="black" stroke-width="0.07" />
<path d="M-0.57950897106503,3.1267506060533754 A3.18,3.18,0,0,0,0.4150732912597658,3.152794659168717 L0.5455994834798179,4.144239520542527 A4.18,4.18,0,0,1,-0.7617444965571777,4.110005513617329 Z" fill="#8e759f" stroke="black" stroke-width="0.07" />
<path d="M-1.4929195696591326,2.807773345291388 A3.18,3.18,0,0,0,-0.6611591768004762,3.110509370333502 L-0.8690708676182358,4.088656971067307 A4.18,4.18,0,0,1,-1.9623911324450232,3.6907209381503145 Z" fill="#8480ac" stroke="black" stroke-width="0.07" />
<path d="M-2.188967550706138,2.3066904998190747 A3.18,3.18,0,0,0,-1.5659069211290257,2.767731113088881 L-2.0583304812324927,3.63808680902878 A4.18,4.18,0,0,1,-2.877322126399892,3.0320648708313622 Z" fill="#7c8bb3" stroke="black" stroke-width="0.07" />
<path d="M-2.7677311130888813,1.5659069211290249 A3.18,3.18,0,0,0,-2.3066904998190756,2.188967550706137 L-3.032064870831363,2.8773221263998905 A4.18,4.18,0,0,1,-3.638086809028781,2.058330481232492 Z" fill="#7b9d96" stroke="black" stroke-width="0.07" />
<path d="M-3.056812193083854,0.8765267914980569 A3.18,3.18,0,0,0,-2.8077733452913876,1.492919569659133 L-3.690720938150314,1.9623911324450236 A4.18,4.18,0,0,1,-4.0180738890221726,1.1521641473150557 Z" fill="#79ad7d" stroke="black" stroke-width="0.07" />
<path d="M-3.170197121271347,0.24949992441454655 A3.18,3.18,0,0,0,-3.0787094964023827,0.7962084128931242 L-4.04685713678049,1.0465884169475657 A4.18,4.18,0,0,1,-4.167114455004475,0.3279590201423913 Z" fill="#78ba67" stroke="black" stroke-width="0.07" />
<path d="M-3.1625796272711093,-0.3324005131911389 A3.18,3.18,0,0,0,-3.1756419205195447,0.16642834085256053 L-4.174271455274118,0.21876429709550407 A4.18,4.18,0,0,1,-4.157101522639382,-0.4369289764587926 Z" fill="#87c754" stroke="black" stroke-width="0.07" />
<path d="M-3.0643448412034213,-0.8498180359288573 A3.18,3.18,0,0,0,-3.152794659168717,-0.415073291259764 L-4.144239520542527,-0.5455994834798156 A4.18,4.18,0,0,1,-4.027975294412044,-1.1170564120071143 Z" fill="#a1d341" stroke="black" stroke-width="0.07" />
<path d="M-2.399976465108415,-2.086267712189813 A3.18,3.18,0,0,0,-2.882058762776547,-1.3439260723354245 L-3.7883665498131966,-1.7665443340761238 A4.18,4.18,0,0,1,-3.1546860453311867,-2.74232674118032 Z" fill="#d9ed1a" stroke="black" stroke-width="0.07" />
<path d="M-1.755159613292345,-2.6517569141735953 A3.18,3.18,0,0,0,-2.3445419310561944,-2.1483768602178 L-3.081819267866318,-2.8239670678334603 A4.18,4.18,0,0,1,-2.307096598604403,-3.485642736240763 Z" fill="#fdfa00" stroke="black" stroke-width="0.07" />
<path d="M-1.0876240557756265,-2.988222534099189 A3.18,3.18,0,0,0,-1.6851432602615912,-2.696792945777435 L-2.2150625244947957,-3.5448410419338607 A4.18,4.18,0,0,1,-1.4296441991012951,-3.927915154885097 Z" fill="#f5e100" stroke="black" stroke-width="0.07" />
<path d="M-0.4700339273921612,-3.1450704454908958 A3.18,3.18,0,0,0,-1.0090288073681926,-3.0156692235557143 L-1.3263334637732844,-3.963992878761913 A4.18,4.18,0,0,1,-0.6178433385217715,-4.134086308852812 Z" fill="#edcb00" stroke="black" stroke-width="0.07" />
<path d="M0.41507329125976444,-3.152794659168717 A3.18,3.18,0,0,0,-0.19413435572084528,-3.174068658981537 L-0.25518289525570226,-4.172203457403404 A4.18,4.18,0,0,1,0.5455994834798161,-4.144239520542527 Z" fill="#e4b000" stroke="black" stroke-width="0.07" />
<path d="M0.9826740421123329,-3.0243597218185885 A3.18,3.18,0,0,0,0.4974615988279344,-3.140848923092538 L0.6538960638681652,-4.128537263687676 A4.18,4.18,0,0,1,1.2916910364872802,-3.9754162381137417 Z" fill="#e39500" stroke="black" stroke-width="0.07" />
<path d="M1.4683605900874084,-2.8206944495067447 A3.18,3.18,0,0,0,1.0615058123633923,-2.997599941673127 L1.395312671597163,-3.9402414327653053 A4.18,4.18,0,0,1,1.9301092033224423,-3.707705282684966 Z" fill="#e97500" stroke="black" stroke-width="0.07" />
<path d="M1.8691571022900646,-2.572674042112333 A3.18,3.18,0,0,0,1.541694592383352,-2.781290668703279 L2.026504212629689,-3.655910375842674 A4.18,4.18,0,0,1,2.4569423545825377,-3.3816910364872803 Z" fill="#ee5800" stroke="black" stroke-width="0.07" />
<path d="M2.188967550706138,-2.3066904998190743 A3.18,3.18,0,0,0,1.9358613442477317,-2.522863622126128 L2.544622773256452,-3.316216962417363 A4.18,4.18,0,0,1,2.877322126399892,-3.032064870831362 Z" fill="#f33e00" stroke="black" stroke-width="0.07" />
<path d="M2.43602132911835,-2.044064598803195 A3.18,3.18,0,0,0,2.2485995641732215,-2.248599564173221 L2.9557063453597685,-2.955706345359768 A4.18,4.18,0,0,1,3.202065772237328,-2.686852208489734 Z" fill="#f72800" stroke="black" stroke-width="0.07" />
<path d="M2.83340074691901,-1.4436897891717588 A3.18,3.18,0,0,0,2.5058741964693763,-1.957803491535593 L3.2938849500760976,-2.573464966861251 A4.18,4.18,0,0,1,3.7244072711073777,-1.8976802889113054 Z" fill="#fd0800" stroke="black" stroke-width="0.07" />
<path d="M3.049046756880854,-0.903168796158474 A3.18,3.18,0,0,0,2.870221204232557,-1.3690252878503784 L3.7728064885824173,-1.7995363846586734 A4.18,4.18,0,0,1,4.007866491749047,-1.1871841408623967 Z" fill="#ff0000" stroke="black" stroke-width="0.07" />
<path d="M3.1562967622194043,-0.387544512028369 A3.18,3.18,0,0,0,3.0716441275992374,-0.823044563426016 L4.037569953888306,-1.0818636085285367 A4.18,4.18,0,0,1,4.148842913860726,-0.5094138554335164 Z" fill="#ff0000" stroke="black" stroke-width="0.07" />
<path d="M3.1789102934222724,0.08324269561903662 A3.18,3.18,0,0,0,3.165359910807629,-0.3047894930143123 L4.160756109174807,-0.4006352455345362 A4.18,4.18,0,0,1,4.178567618397829,0.10941964392690975 Z" fill="#ff0000" stroke="black" stroke-width="0.07" />
<path d="M3.140848923092538,0.49746159882793417 A3.18,3.18,0,0,0,3.1756419205195447,0.1664283408525614 L4.174271455274118,0.21876429709550518 A4.18,4.18,0,0,1,4.128537263687676,0.653896063868165 Z" fill="#ff0000" stroke="black" stroke-width="0.07" />
<path d="M2.9162510365446948,1.268022039182283 A3.18,3.18,0,0,0,3.1161605606942384,0.633990031446687 L4.096085265315067,0.8333579658638841 A4.18,4.18,0,0,1,3.8333111109298184,1.666771108107529 Z" fill="#ff0000" stroke="black" stroke-width="0.07" />
<path d="M2.604903500838994,1.8239730675963266 A3.18,3.18,0,0,0,2.882058762776547,1.3439260723354243 L3.7883665498131966,1.7665443340761235 A4.18,4.18,0,0,1,3.4240555451279855,2.3975495039473724 Z" fill="#ed1118" stroke="black" stroke-width="0.07" />
<path d="M2.228891460473526,2.2681364283102976 A3.18,3.18,0,0,0,2.5562648167627513,1.8915364618692654 L3.360121677379968,2.486359248620606 A4.18,4.18,0,0,1,2.9298007247733766,2.981386877464479 Z" fill="#d72837" stroke="black" stroke-width="0.07" />
<path d="M1.8045799776327875,3.8699342506464958 A4.2700000000000005,4.2700000000000005,0,0,0,2.1350000000000007,3.697928474159553 L2.6350000000000007,4.563953877943992 A5.2700000000000005,5.2700000000000005,0,0,1,2.2271982393734873,4.776242037683145 Z" fill="#ac5574" stroke="black" stroke-width="0.07" />
<path d="M1.425355288928202,4.025079166963602 A4.2700000000000005,4.2700000000000005,0,0,0,1.7026585243108017,3.91584651762448 L2.101407593236048,4.832906592009604 A5.2700000000000005,5.2700000000000005,0,0,1,1.7591621481619728,4.9677206580557804 Z" fill="#a06185" stroke="black" stroke-width="0.07" />
<path d="M1.1051573225877653,4.124503278254322 A4.2700000000000005,4.2700000000000005,0,0,0,1.3195025659810249,4.061011324580306 L1.6285195603559721,5.01206784087546 A5.2700000000000005,5.2700000000000005,0,0,1,1.3639763676902865,5.09042910454339 Z" fill="#976b92" stroke="black" stroke-width="0.07" />
<path d="M0.851301079961431,4.184278488730944 A4.2700000000000005,4.2700000000000005,0,0,0,0.9968117036647135,4.15201956009808 L1.2302570675206184,5.124389480495757 A5.2700000000000005,5.2700000000000005,0,0,1,1.050669014378628,5.164203193351773 Z" fill="#956d95" stroke="black" stroke-width="0.07" />
<path d="M0.26067726381383705,4.262035589261373 A4.2700000000000005,4.2700000000000005,0,0,0,0.5573468407796226,4.2334695580661705 L0.6878730329996747,5.2249144194399815 A5.2700000000000005,5.2700000000000005,0,0,1,0.3217258033486935,5.26017038768324 Z" fill="#91719a" stroke="black" stroke-width="0.07" />
<path d="M-0.07452177548720054,4.2693496583177915 A4.2700000000000005,4.2700000000000005,0,0,0,0.14902085091968048,4.26739883137154 L0.18392034762218176,5.2667896583906355 A5.2700000000000005,5.2700000000000005,0,0,1,-0.09197418192448405,5.2691973534741825 Z" fill="#8f749d" stroke="black" stroke-width="0.07" />
<path d="M-0.3350203387579006,4.256837015040457 A4.2700000000000005,4.2700000000000005,0,0,0,-0.1862547840499853,4.265935906154533 L-0.22987417141532143,5.264984127736391 A5.2700000000000005,5.2700000000000005,0,0,1,-0.4134794344857462,5.253754348773585 Z" fill="#8d77a0" stroke="black" stroke-width="0.07" />
<path d="M-0.5942691410994774,4.228444653526506 A4.2700000000000005,4.2700000000000005,0,0,0,-0.4463365381528799,4.246608493222528 L-0.5508650014205333,5.241130388590801 A5.2700000000000005,5.2700000000000005,0,0,1,-0.7334422420595423,5.2187127222680765 Z" fill="#8b79a3" stroke="black" stroke-width="0.07" />
<path d="M-1.1769715093385853,4.104587441656623 A4.2700000000000005,4.2700000000000005,0,0,0,-0.8877829197918344,4.176690255133351 L-1.0956946106095942,5.1548378558671555 A5.2700000000000005,5.2700000000000005,0,0,1,-1.4526088651555842,5.065849137594942 Z" fill="#877da8" stroke="black" stroke-width="0.07" />
<path d="M-1.4953855179779267,3.999590248090658 A4.2700000000000005,4.2700000000000005,0,0,0,-1.2840137638832492,4.072371379694928 L-1.584719563387523,5.026088330443155 A5.2700000000000005,5.2700000000000005,0,0,1,-1.8455928992373944,4.936262437339056 Z" fill="#8580ac" stroke="black" stroke-width="0.07" />
<path d="M-1.7367654659336667,3.9008391041339068 A4.2700000000000005,4.2700000000000005,0,0,0,-1.5995701538859457,3.9590750590001824 L-1.9741767473018579,4.886258913566969 A5.2700000000000005,5.2700000000000005,0,0,1,-2.1435021090094666,4.8143845617765075 Z" fill="#8282ae" stroke="black" stroke-width="0.07" />
<path d="M-1.971666578513597,3.787536257671006 A4.2700000000000005,4.2700000000000005,0,0,0,-1.8382823833714204,3.8540391641739054 L-2.2687934801797156,4.756624448523766 A5.2700000000000005,5.2700000000000005,0,0,1,-2.4334151917486313,4.674547090849227 Z" fill="#8184b1" stroke="black" stroke-width="0.07" />
<path d="M-2.2942693276409396,3.6012814736210217 A4.2700000000000005,4.2700000000000005,0,0,0,-2.102648601641805,3.7164188216633716 L-2.5950721617452723,4.5867745176032715 A5.2700000000000005,5.2700000000000005,0,0,1,-2.831568935987764,4.444672919433907 Z" fill="#7e87b4" stroke="black" stroke-width="0.07" />
<path d="M-2.509843027288861,3.4545025659810253 A4.2700000000000005,4.2700000000000005,0,0,0,-2.387753697820091,3.539990434810027 L-2.946946601290838,4.369028007365069 A5.2700000000000005,5.2700000000000005,0,0,1,-3.0976282795813344,4.263519560355973 Z" fill="#7c89b5" stroke="black" stroke-width="0.07" />
<path d="M-2.716054000586052,3.294836971065565 A4.2700000000000005,4.2700000000000005,0,0,0,-2.5994113018672382,3.3876187630435735 L-3.208172730875959,4.180972103334809 A5.2700000000000005,5.2700000000000005,0,0,1,-3.352132220863816,4.0664615544532845 Z" fill="#7c8daf" stroke="black" stroke-width="0.07" />
<path d="M-2.9121329974668706,3.122880305913857 A4.2700000000000005,4.2700000000000005,0,0,0,-2.8013720537894677,3.2226099075512353 L-3.4574310827799755,3.977319487774007 A5.2700000000000005,5.2700000000000005,0,0,1,-3.5941313575293696,3.854234007533027 Z" fill="#7c91a9" stroke="black" stroke-width="0.07" />
<path d="M-3.246933473112133,2.7731431663698842 A4.2700000000000005,4.2700000000000005,0,0,0,-3.0973485642224694,2.939274038212329 L-3.8227229352347574,3.627628613906083 A5.2700000000000005,5.2700000000000005,0,0,1,-4.007339438712164,3.4225912147000677 Z" fill="#7b979f" stroke="black" stroke-width="0.07" />
<path d="M-3.410173627901942,2.5697501488592454 A4.2700000000000005,4.2700000000000005,0,0,0,-3.3184132554212655,2.687198069782807 L-4.095559216878236,3.3165184608326443 A5.2700000000000005,5.2700000000000005,0,0,1,-4.208809137949235,3.1715651720112934 Z" fill="#7b9b98" stroke="black" stroke-width="0.07" />
<path d="M-3.5606924602268077,2.35677092728249 A4.2700000000000005,4.2700000000000005,0,0,0,-3.4762732633814837,2.4796016208857132 L-4.290388781737803,3.060304576596653 A5.2700000000000005,5.2700000000000005,0,0,1,-4.394578282293976,2.9087079125945485 Z" fill="#7a9f92" stroke="black" stroke-width="0.07" />
<path d="M-3.697928474159553,2.1350000000000007 A4.2700000000000005,4.2700000000000005,0,0,0,-3.62116537058794,2.2627552582757846 L-4.469213466744366,2.7926745225089893 A5.2700000000000005,5.2700000000000005,0,0,1,-4.563953877943992,2.6350000000000007 Z" fill="#7aa38c" stroke="black" stroke-width="0.07" />
<path d="M-3.837850577697444,1.8718447967893592 A4.2700000000000005,4.2700000000000005,0,0,0,-3.7701862215076183,2.004643573095754 L-4.653133814366545,2.474115135881645 A5.2700000000000005,5.2700000000000005,0,0,1,-4.736644623996611,2.310215943578436 Z" fill="#7aa785" stroke="black" stroke-width="0.07" />
<path d="M-3.9449656038231957,1.6340582561989312 A4.2700000000000005,4.2700000000000005,0,0,0,-3.88553462664284,1.7707401461421406 L-4.795495897519383,2.1854333887983795 A5.2700000000000005,5.2700000000000005,0,0,1,-4.868845136334483,2.0167416885640206 Z" fill="#79ab7f" stroke="black" stroke-width="0.07" />
<path d="M-4.037364317809083,1.3901760195320596 A4.2700000000000005,4.2700000000000005,0,0,0,-3.986388421143052,1.5302311445584331 L-4.919968847640254,1.8885990941037334 A5.2700000000000005,5.2700000000000005,0,0,1,-4.9828828934084,1.7157441739892163 Z" fill="#79af79" stroke="black" stroke-width="0.07" />
<path d="M-4.152019560098079,0.9968117036647175 A4.2700000000000005,4.2700000000000005,0,0,0,-4.13399042441452,1.0691226173124655 L-5.102138064792628,1.319502621366907 A5.2700000000000005,5.2700000000000005,0,0,1,-5.124389480495756,1.2302570675206232 Z" fill="#78b56f" stroke="black" stroke-width="0.07" />
<path d="M-4.205129105362129,0.7414777186377932 A4.2700000000000005,4.2700000000000005,0,0,0,-4.176690255133351,0.8877829197918313 L-5.154837855867156,1.0956946106095904 A5.2700000000000005,5.2700000000000005,0,0,1,-5.189936858374336,0.9151258963047236 Z" fill="#78b86a" stroke="black" stroke-width="0.07" />
<path d="M-4.242551823739029,0.4833777227889614 A4.2700000000000005,4.2700000000000005,0,0,0,-4.223097736555386,0.6311461855234374 L-5.212113599917302,0.7789555966530479 A5.2700000000000005,5.2700000000000005,0,0,1,-5.236123679415616,0.5965809365568681 Z" fill="#78bc64" stroke="black" stroke-width="0.07" />
<path d="M-4.2693496583177915,0.07452177548719924 A4.2700000000000005,4.2700000000000005,0,0,0,-4.2641481134020305,0.22347453315736904 L-5.262777648156605,0.2758104894003126 A5.2700000000000005,5.2700000000000005,0,0,1,-5.2691973534741825,0.09197418192448244 Z" fill="#7dc25a" stroke="black" stroke-width="0.07" />
<path d="M-4.265935906154533,-0.18625478404998505 A4.2700000000000005,4.2700000000000005,0,0,0,-4.269837411484012,-0.03726230657805871 L-5.269799334548183,-0.045988842076433105 A5.2700000000000005,5.2700000000000005,0,0,1,-5.264984127736391,-0.2298741714153211 Z" fill="#87c754" stroke="black" stroke-width="0.07" />
<path d="M-4.223097736555386,-0.6311461855234364 A4.2700000000000005,4.2700000000000005,0,0,0,-4.2334695580661705,-0.5573468407796203 L-5.2249144194399815,-0.6878730329996718 A5.2700000000000005,5.2700000000000005,0,0,1,-5.212113599917302,-0.7789555966530468 Z" fill="#98cf48" stroke="black" stroke-width="0.07" />
<path d="M-4.176690255133351,-0.8877829197918323 A4.2700000000000005,4.2700000000000005,0,0,0,-4.205129105362129,-0.7414777186377923 L-5.189936858374336,-0.9151258963047226 A5.2700000000000005,5.2700000000000005,0,0,1,-5.154837855867156,-1.0956946106095917 Z" fill="#a0d242" stroke="black" stroke-width="0.07" />
<path d="M-4.061011324580306,-1.319502565981026 A4.2700000000000005,4.2700000000000005,0,0,0,-4.083421307962162,-1.2484271791660873 L-5.0397260639251975,-1.5407988838888245 A5.2700000000000005,5.2700000000000005,0,0,1,-5.01206784087546,-1.6285195603559735 Z" fill="#b1da36" stroke="black" stroke-width="0.07" />
<path d="M-3.9728830152832453,-1.564960238112749 A4.2700000000000005,4.2700000000000005,0,0,0,-4.025079166963602,-1.425355288928203 L-4.9677206580557804,-1.7591621481619744 A5.2700000000000005,5.2700000000000005,0,0,1,-4.90330058326527,-1.931461464837046 Z" fill="#b9de31" stroke="black" stroke-width="0.07" />
<path d="M-3.770186221507618,-2.004643573095755 A4.2700000000000005,4.2700000000000005,0,0,0,-3.8699342506464958,-1.804579977632787 L-4.776242037683145,-2.2271982393734864 A5.2700000000000005,5.2700000000000005,0,0,1,-4.653133814366544,-2.474115135881646 Z" fill="#c8e526" stroke="black" stroke-width="0.07" />
<path d="M-3.640773501791974,-2.231068871337102 A4.2700000000000005,4.2700000000000005,0,0,0,-3.716418821663372,-2.102648601641805 L-4.5867745176032715,-2.5950721617452723 A5.2700000000000005,5.2700000000000005,0,0,1,-4.493413666146066,-2.753567436053051 Z" fill="#d3ea1e" stroke="black" stroke-width="0.07" />
<path d="M-3.4977792291139944,-2.4491713832189683 A4.2700000000000005,4.2700000000000005,0,0,0,-3.5811233251269616,-2.3256086795141653 L-4.419793893072386,-2.8702477145291923 A5.2700000000000005,5.2700000000000005,0,0,1,-4.316931273402986,-3.022747819570015 Z" fill="#dcee18" stroke="black" stroke-width="0.07" />
<path d="M-3.3417368297598076,-2.658137498442636 A4.2700000000000005,4.2700000000000005,0,0,0,-3.4324687948355184,-2.5398932994282273 L-4.2363256554527355,-3.134716086179569 A5.2700000000000005,5.2700000000000005,0,0,1,-4.124344986612222,-3.2806521350802558 Z" fill="#e5f311" stroke="black" stroke-width="0.07" />
<path d="M-3.045579417888355,-2.992882558560364 A4.2700000000000005,4.2700000000000005,0,0,0,-3.1481742281792298,-2.88477018651887 L-3.8854515649893537,-3.5603603941345305 A5.2700000000000005,5.2700000000000005,0,0,1,-3.7588298670425364,-3.693791822860215 Z" fill="#f5fa06" stroke="black" stroke-width="0.07" />
<path d="M-2.857187689152325,-3.173228404788474 A4.2700000000000005,4.2700000000000005,0,0,0,-2.9661912418599177,-3.071580947446042 L-3.6608496123189145,-3.790920747784693 A5.2700000000000005,5.2700000000000005,0,0,1,-3.5263182955111834,-3.916373230265868 Z" fill="#fefe00" stroke="black" stroke-width="0.07" />
<path d="M-2.658137498442635,-3.3417368297598085 A4.2700000000000005,4.2700000000000005,0,0,0,-2.7731431663698842,-3.246933473112133 L-3.4225912147000677,-4.007339438712164 A5.2700000000000005,5.2700000000000005,0,0,1,-3.2806521350802544,-4.124344986612222 Z" fill="#fdf900" stroke="black" stroke-width="0.07" />
<path d="M-2.449171383218966,-3.497779229113996 A4.2700000000000005,4.2700000000000005,0,0,0,-2.5697501488592467,-3.41017362790194 L-3.171565172011295,-4.208809137949233 A5.2700000000000005,5.2700000000000005,0,0,1,-3.0227478195700117,-4.3169312734029885 Z" fill="#fbf300" stroke="black" stroke-width="0.07" />
<path d="M-2.1349999999999993,-3.6979284741595535 A4.2700000000000005,4.2700000000000005,0,0,0,-2.2627552582757846,-3.62116537058794 L-2.7926745225089893,-4.469213466744366 A5.2700000000000005,5.2700000000000005,0,0,1,-2.634999999999999,-4.563953877943993 Z" fill="#f8ea00" stroke="black" stroke-width="0.07" />
<path d="M-1.905264661978884,-3.8213697240406472 A4.2700000000000005,4.2700000000000005,0,0,0,-2.037467906308528,-3.7525490710665927 L-2.514626666568137,-4.631366183728558 A5.2700000000000005,5.2700000000000005,0,0,1,-2.3514624750886925,-4.716304085642673 Z" fill="#f6e400" stroke="black" stroke-width="0.07" />
<path d="M-1.6684219186491984,-3.9305557242419207 A4.2700000000000005,4.2700000000000005,0,0,0,-1.8045799776327864,-3.869934250646496 L-2.2271982393734855,-4.776242037683146 A5.2700000000000005,5.2700000000000005,0,0,1,-2.059153047138472,-4.851060577694361 Z" fill="#f4de00" stroke="black" stroke-width="0.07" />
<path d="M-1.21274552188575,-4.094160267887185 A4.2700000000000005,4.2700000000000005,0,0,0,-1.3548908828497428,-4.049342007730472 L-1.6721955392548349,-4.997665662936671 A5.2700000000000005,5.2700000000000005,0,0,1,-1.4967608665896726,-5.052980002755378 Z" fill="#f0d200" stroke="black" stroke-width="0.07" />
<path d="M-0.9605410020483028,-4.160560176632955 A4.2700000000000005,4.2700000000000005,0,0,0,-1.1051573225877642,-4.1245032782543225 L-1.363976367690285,-5.09042910454339 A5.2700000000000005,5.2700000000000005,0,0,1,-1.1854920563921676,-5.13493024141819 Z" fill="#eecc00" stroke="black" stroke-width="0.07" />
<path d="M-0.7047532770250939,-4.211439518563979 A4.2700000000000005,4.2700000000000005,0,0,0,-0.8513010799614317,-4.184278488730943 L-1.0506690143786288,-5.1642031933517725 A5.2700000000000005,5.2700000000000005,0,0,1,-0.8698008828857716,-5.19772512010121 Z" fill="#ecc600" stroke="black" stroke-width="0.07" />
<path d="M-0.03726230657805602,-4.269837411484012 A4.2700000000000005,4.2700000000000005,0,0,0,-0.26067726381383943,-4.262035589261372 L-0.32172580334869644,-5.260170387683239 A5.2700000000000005,5.2700000000000005,0,0,1,-0.0459888420764298,-5.269799334548183 Z" fill="#e7b700" stroke="black" stroke-width="0.07" />
<path d="M0.22347453315737076,-4.2641481134020305 A4.2700000000000005,4.2700000000000005,0,0,0,0.07452177548720003,-4.2693496583177915 L0.0919741819244834,-5.2691973534741825 A5.2700000000000005,5.2700000000000005,0,0,1,0.2758104894003147,-5.262777648156605 Z" fill="#e4b000" stroke="black" stroke-width="0.07" />
<path d="M0.4833777227889613,-4.242551823739029 A4.2700000000000005,4.2700000000000005,0,0,0,0.33502033875789816,-4.256837015040457 L0.4134794344857432,-5.253754348773585 A5.2700000000000005,5.2700000000000005,0,0,1,0.5965809365568678,-5.236123679415616 Z" fill="#e2aa00" stroke="black" stroke-width="0.07" />
<path d="M0.741477718637793,-4.205129105362129 A4.2700000000000005,4.2700000000000005,0,0,0,0.6679751657217862,-4.217429214341239 L0.824409630762017,-5.205117554936376 A5.2700000000000005,5.2700000000000005,0,0,1,0.9151258963047234,-5.189936858374336 Z" fill="#e1a200" stroke="black" stroke-width="0.07" />
<path d="M0.9968117036647165,-4.152019560098079 A4.2700000000000005,4.2700000000000005,0,0,0,0.851301079961433,-4.184278488730943 L1.0506690143786304,-5.1642031933517725 A5.2700000000000005,5.2700000000000005,0,0,1,1.230257067520622,-5.124389480495756 Z" fill="#e39800" stroke="black" stroke-width="0.07" />
<path d="M1.2484271791660861,-4.083421307962162 A4.2700000000000005,4.2700000000000005,0,0,0,1.1051573225877638,-4.1245032782543225 L1.3639763676902845,-5.09042910454339 A5.2700000000000005,5.2700000000000005,0,0,1,1.540798883888823,-5.0397260639251975 Z" fill="#e58d00" stroke="black" stroke-width="0.07" />
<path d="M1.495385517977926,-3.999590248090658 A4.2700000000000005,4.2700000000000005,0,0,0,1.4253552889282028,-4.025079166963602 L1.759162148161974,-4.9677206580557804 A5.2700000000000005,5.2700000000000005,0,0,1,1.8455928992373936,-4.936262437339056 Z" fill="#e78000" stroke="black" stroke-width="0.07" />
<path d="M1.736765465933667,-3.9008391041339063 A4.2700000000000005,4.2700000000000005,0,0,0,1.5995701538859441,-3.959075059000183 L1.974176747301856,-4.88625891356697 A5.2700000000000005,5.2700000000000005,0,0,1,2.1435021090094675,-4.814384561776507 Z" fill="#e97600" stroke="black" stroke-width="0.07" />
<path d="M2.1350000000000007,-3.697928474159553 A4.2700000000000005,4.2700000000000005,0,0,0,2.0701370784518596,-3.73462614948522 L2.554946698698197,-4.609245856624616 A5.2700000000000005,5.2700000000000005,0,0,1,2.6350000000000007,-4.563953877943992 Z" fill="#ed6100" stroke="black" stroke-width="0.07" />
<path d="M2.356770927282489,-3.560692460226808 A4.2700000000000005,4.2700000000000005,0,0,0,2.231068871337102,-3.640773501791974 L2.753567436053051,-4.493413666146066 A5.2700000000000005,5.2700000000000005,0,0,1,2.908707912594547,-4.394578282293976 Z" fill="#ee5800" stroke="black" stroke-width="0.07" />
<path d="M2.5994113018672373,-3.3876187630435743 A4.2700000000000005,4.2700000000000005,0,0,0,2.5994113018672373,-3.3876187630435743 L3.2081727308759582,-4.18097210333481 A5.2700000000000005,5.2700000000000005,0,1,1,3.2081727308759582,-4.18097210333481 Z" fill="#f14800" stroke="black" stroke-width="0.07" />
<path d="M2.7447030933615233,-3.2710097721180365 A4.2700000000000005,4.2700000000000005,0,0,0,2.6871980697828066,-3.3184132554212655 L3.316518460832644,-4.095559216878236 A5.2700000000000005,5.2700000000000005,0,0,1,3.3874907030480625,-4.037054215237014 Z" fill="#f34100" stroke="black" stroke-width="0.07" />
<path d="M3.0715809474460407,-2.9661912418599186 A4.2700000000000005,4.2700000000000005,0,0,0,3.0193459556665583,-3.019345955666558 L3.726452736853106,-3.7264527368531053 A5.2700000000000005,5.2700000000000005,0,0,1,3.7909207477846922,-3.660849612318916 Z" fill="#f62e00" stroke="black" stroke-width="0.07" />
<path d="M3.2469334731121324,-2.7731431663698847 A4.2700000000000005,4.2700000000000005,0,0,0,3.1481742281792298,-2.8847701865188697 L3.8854515649893537,-3.5603603941345296 A5.2700000000000005,5.2700000000000005,0,0,1,4.0073394387121635,-3.422591214700068 Z" fill="#f82400" stroke="black" stroke-width="0.07" />
<path d="M3.4977792291139953,-2.449171383218967 A4.2700000000000005,4.2700000000000005,0,0,0,3.3648059179007035,-2.6288744996405606 L4.152816671507425,-3.244535974966219 A5.2700000000000005,5.2700000000000005,0,0,1,4.316931273402987,-3.022747819570013 Z" fill="#fb1400" stroke="black" stroke-width="0.07" />
<path d="M3.640773501791974,-2.2310688713371016 A4.2700000000000005,4.2700000000000005,0,0,0,3.5606924602268086,-2.3567709272824886 L4.394578282293977,-2.9087079125945468 A5.2700000000000005,5.2700000000000005,0,0,1,4.493413666146066,-2.7535674360530504 Z" fill="#fd0800" stroke="black" stroke-width="0.07" />
<path d="M3.7701862215076187,-2.004643573095754 A4.2700000000000005,4.2700000000000005,0,0,0,3.6979284741595535,-2.135 L4.563953877943993,-2.635 A5.2700000000000005,5.2700000000000005,0,0,1,4.653133814366545,-2.474115135881645 Z" fill="#ff0000" stroke="black" stroke-width="0.07" />
<path d="M3.88553462664284,-1.7707401461421408 A4.2700000000000005,4.2700000000000005,0,0,0,3.8540391641739054,-1.8382823833714201 L4.756624448523766,-2.268793480179715 A5.2700000000000005,5.2700000000000005,0,0,1,4.795495897519383,-2.18543338879838 Z" fill="#ff0000" stroke="black" stroke-width="0.07" />
<path d="M3.986388421143052,-1.5302311445584322 A4.2700000000000005,4.2700000000000005,0,0,0,3.9305557242419207,-1.6684219186491989 L4.851060577694361,-2.0591530471384725 A5.2700000000000005,5.2700000000000005,0,0,1,4.919968847640254,-1.8885990941037325 Z" fill="#ff0000" stroke="black" stroke-width="0.07" />
<path d="M4.072371379694929,-1.2840137638832463 A4.2700000000000005,4.2700000000000005,0,0,0,4.025079166963602,-1.425355288928202 L4.9677206580557804,-1.7591621481619728 A5.2700000000000005,5.2700000000000005,0,0,1,5.026088330443156,-1.5847195633875195 Z" fill="#ff0000" stroke="black" stroke-width="0.07" />
<path d="M4.160560176632955,-0.9605410020483036 A4.2700000000000005,4.2700000000000005,0,0,0,4.1245032782543225,-1.1051573225877638 L5.09042910454339,-1.3639763676902845 A5.2700000000000005,5.2700000000000005,0,0,1,5.13493024141819,-1.1854920563921687 Z" fill="#ff0000" stroke="black" stroke-width="0.07" />
<path d="M4.211439518563979,-0.7047532770250935 A4.2700000000000005,4.2700000000000005,0,0,0,4.184278488730943,-0.851301079961432 L5.1642031933517725,-1.050669014378629 A5.2700000000000005,5.2700000000000005,0,0,1,5.19772512010121,-0.8698008828857712 Z" fill="#ff0000" stroke="black" stroke-width="0.07" />
<path d="M4.256837015040457,-0.33502033875789794 A4.2700000000000005,4.2700000000000005,0,0,0,4.250341767027854,-0.4092613632613564 L5.245737965395033,-0.5051071157815804 A5.2700000000000005,5.2700000000000005,0,0,1,5.253754348773585,-0.41347943448574287 Z" fill="#ff0000" stroke="black" stroke-width="0.07" />
<path d="M4.2693496583177915,-0.0745217754872006 A4.2700000000000005,4.2700000000000005,0,0,0,4.2641481134020305,-0.22347453315737018 L5.262777648156605,-0.275810489400314 A5.2700000000000005,5.2700000000000005,0,0,1,5.2691973534741825,-0.09197418192448412 Z" fill="#ff0000" stroke="black" stroke-width="0.07" />
<path d="M4.25959849460945,0.2978601428874151 A4.2700000000000005,4.2700000000000005,0,0,0,4.2641481134020305,0.22347453315737018 L5.262777648156605,0.275810489400314 A5.2700000000000005,5.2700000000000005,0,0,1,5.257162544869274,0.3676166166315404 Z" fill="#ff0000" stroke="black" stroke-width="0.07" />
<path d="M4.2334695580661705,0.5573468407796203 A4.2700000000000005,4.2700000000000005,0,0,0,4.250341767027854,0.4092613632613564 L5.245737965395033,0.5051071157815804 A5.2700000000000005,5.2700000000000005,0,0,1,5.2249144194399815,0.6878730329996718 Z" fill="#ff0000" stroke="black" stroke-width="0.07" />
<path d="M4.152019560098079,0.9968117036647162 A4.2700000000000005,4.2700000000000005,0,0,0,4.184278488730943,0.851301079961432 L5.1642031933517725,1.050669014378629 A5.2700000000000005,5.2700000000000005,0,0,1,5.124389480495756,1.2302570675206215 Z" fill="#ff0000" stroke="black" stroke-width="0.07" />
<path d="M4.083421307962162,1.2484271791660861 A4.2700000000000005,4.2700000000000005,0,0,0,4.1245032782543225,1.1051573225877638 L5.09042910454339,1.3639763676902845 A5.2700000000000005,5.2700000000000005,0,0,1,5.0397260639251975,1.540798883888823 Z" fill="#ff0000" stroke="black" stroke-width="0.07" />
<path d="M3.9995902480906587,1.4953855179779258 A4.2700000000000005,4.2700000000000005,0,0,0,4.049342007730472,1.3548908828497437 L4.9976656629366705,1.6721955392548358 A5.2700000000000005,5.2700000000000005,0,0,1,4.936262437339056,1.8455928992373933 Z" fill="#ff0000" stroke="black" stroke-width="0.07" />
<path d="M3.8378505776974436,1.8718447967893608 A4.2700000000000005,4.2700000000000005,0,0,0,3.8699342506464958,1.8045799776327869 L4.776242037683145,2.2271982393734864 A5.2700000000000005,5.2700000000000005,0,0,1,4.736644623996611,2.310215943578438 Z" fill="#f6080b" stroke="black" stroke-width="0.07" />
<path d="M3.716418821663372,2.1026486016418047 A4.2700000000000005,4.2700000000000005,0,0,0,3.787536257671007,1.971666578513595 L4.674547090849229,2.433415191748629 A5.2700000000000005,5.2700000000000005,0,0,1,4.5867745176032715,2.5950721617452714 Z" fill="#f00e14" stroke="black" stroke-width="0.07" />
<path d="M3.581123325126961,2.3256086795141657 A4.2700000000000005,4.2700000000000005,0,0,0,3.66010437399802,2.1992125798659314 L4.517271674700132,2.7142506547759857 A5.2700000000000005,5.2700000000000005,0,0,1,4.419793893072385,2.870247714529193 Z" fill="#e9151e" stroke="black" stroke-width="0.07" />
<path d="M3.3417368297598076,2.6581374984426356 A4.2700000000000005,4.2700000000000005,0,0,0,3.4324687948355184,2.5398932994282273 L4.2363256554527355,3.134716086179569 A5.2700000000000005,5.2700000000000005,0,0,1,4.124344986612222,3.2806521350802553 Z" fill="#de212d" stroke="black" stroke-width="0.07" />
<path d="M3.173228404788474,2.857187689152325 A4.2700000000000005,4.2700000000000005,0,0,0,3.2710097721180365,2.744703093361523 L4.037054215237014,3.387490703048062 A5.2700000000000005,5.2700000000000005,0,0,1,3.916373230265868,3.5263182955111834 Z" fill="#d72837" stroke="black" stroke-width="0.07" />
</svg>