<?xml version="1.0" encoding="UTF-8"?>
<svg xmlns="http://www.w3.org/2000/svg" xmlns:xlink="http://www.w3.org/1999/xlink"
     width="600" height="600.0" viewBox="-7.0 -7.0 14 14">
<defs>
</defs>
<path d="M0.6427876096865393,0.7660444431189781 A1.0,1.0,0,1,0,0.615661475325659,0.7880107536067213 L1.231322950651318,1.5760215072134427 A2.0,2.0,0,1,1,1.2855752193730785,1.5320888862379562 Z" fill="red" stroke="black" stroke-width="0.07" />
<path d="M-1.7492692780911385,1.1798970263232758 A2.1100000000000003,2.1100000000000003,0,0,0,1.356281856438598,1.6163537749810442 L1.9990694661251374,2.3823982181000223 A3.1100000000000003,3.1100000000000003,0,0,1,-2.5783068506461806,1.7390899297940223 Z" fill="#857fab" stroke="black" stroke-width="0.07" />
<path d="M-1.25507608004533,-1.696137975902329 A2.1100000000000003,2.1100000000000003,0,0,0,-1.7795559506651895,1.1337021736117978 L-2.622947396478075,1.6710017819586214 A3.1100000000000003,3.1100000000000003,0,0,1,-1.8498988667966711,-2.4999948365195466 Z" fill="#b9de31" stroke="black" stroke-width="0.07" />
<path d="M1.411865579417191,-1.568035581757302 A2.1100000000000003,2.1100000000000003,0,0,0,-1.2102462807007068,-1.7284108134497733 L-1.7838227170517527,-2.5475628577387655 A3.1100000000000003,3.1100000000000003,0,0,1,2.0809961857760495,-2.311180407234696 Z" fill="#e39500" stroke="black" stroke-width="0.07" />
<path d="M1.9493858135988154,0.8074620422903396 A2.1100000000000003,2.1100000000000003,0,0,0,1.4524281547138211,-1.5305399228359269 L2.140782730407575,-2.2559142938482144 A3.1100000000000003,3.1100000000000003,0,0,1,2.873265346110102,1.1901454746554294 Z" fill="#ff0000" stroke="black" stroke-width="0.07" />
<path d="M0.9950347218873301,3.0624019824703947 A3.22,3.22,0,0,0,2.0697761031906565,2.4666631068431095 L2.712563712877196,3.2327075499620883 A4.220000000000001,4.220000000000001,0,0,1,1.3040517162622776,4.013458498765549 Z" fill="#9b678c" stroke="black" stroke-width="0.07" />
<path d="M-0.14045442731638236,3.2169352734935823 A3.22,3.22,0,0,0,0.9145294099466299,3.087399546275582 L1.1985447546505523,4.046219281143776 A4.220000000000001,4.220000000000001,0,0,1,-0.18407381468171852,4.215983495075441 Z" fill="#8d76a0" stroke="black" stroke-width="0.07" />
<path d="M-1.1539447975358683,3.0061289733209895 A3.22,3.22,0,0,0,-0.22461584545608437,3.212156241836634 L-0.29437231920021,4.209720292096459 A4.220000000000001,4.220000000000001,0,0,1,-1.5123127470811693,3.9397093998181916 Z" fill="#8382ae" stroke="black" stroke-width="0.07" />
<path d="M-1.9602118014080814,2.5545977557377766 A3.22,3.22,0,0,0,-1.2322406522155882,2.9748920946863437 L-1.614924084580678,3.898771627197631 A4.220000000000001,4.220000000000001,0,0,1,-2.5689732304168027,3.347951096029012 Z" fill="#7c8fad" stroke="black" stroke-width="0.07" />
<path d="M-2.537394626613646,1.9824299505486185 A3.22,3.22,0,0,0,-2.026411659180476,2.502409995891447 L-2.6557320502303132,3.2795559573484185 A4.220000000000001,4.220000000000001,0,0,1,-3.3254053802203685,2.5980914258742764 Z" fill="#7a9f92" stroke="black" stroke-width="0.07" />
<path d="M-3.166080802355934,0.5867983920847135 A3.22,3.22,0,0,0,-2.7157204555174927,1.7301047388767719 L-3.559111901330379,2.2674043472235956 A4.220000000000001,4.220000000000001,0,0,1,-4.149335709919889,0.7690339175768606 Z" fill="#78b86b" stroke="black" stroke-width="0.07" />
<path d="M-3.17108096469931,-0.5591471320875155 A3.22,3.22,0,0,0,-3.1803564567163436,0.503718977429543 L-4.168044797311482,0.6601534424697738 A4.220000000000001,4.220000000000001,0,0,1,-4.155888717711519,-0.7327953097544458 Z" fill="#9ed243" stroke="black" stroke-width="0.07" />
<path d="M-2.8297911027715283,-1.5364512080359398 A3.22,3.22,0,0,0,-3.155357548879071,-0.6419647488233766 L-4.135282253499901,-0.8413326832405744 A4.220000000000001,4.220000000000001,0,0,1,-3.708608215433494,-2.013609968295549 Z" fill="#d2ea1f" stroke="black" stroke-width="0.07" />
<path d="M-2.276883835420683,-2.2768838354206835 A3.22,3.22,0,0,0,-2.788601800185893,-1.6099999999999999 L-3.654627203970332,-2.11 A4.220000000000001,4.220000000000001,0,0,1,-2.9839906166072305,-2.9839906166072314 Z" fill="#fefe00" stroke="black" stroke-width="0.07" />
<path d="M-0.7243423949872447,-3.1374716086084575 A3.22,3.22,0,0,0,-1.8469161250503676,-2.6376695826105543 L-2.4204925614014137,-3.4568216268995466 A4.220000000000001,4.220000000000001,0,0,1,-0.9492934493311096,-4.111841673393694 Z" fill="#eecc00" stroke="black" stroke-width="0.07" />
<path d="M0.42029433894856655,-3.1924524536236696 A3.22,3.22,0,0,0,-0.6419647488233746,-3.1553575488790715 L-0.8413326832405718,-4.135282253499901 A4.220000000000001,4.220000000000001,0,0,1,0.5508205311686183,-4.1838973149974805 Z" fill="#e1a600" stroke="black" stroke-width="0.07" />
<path d="M1.4115550926608296,-2.894116829083318 A3.22,3.22,0,0,0,0.5037189774295436,-3.1803564567163436 L0.6601534424697746,-4.168044797311482 A4.220000000000001,4.220000000000001,0,0,1,1.8499262394499072,-3.7929108753824856 Z" fill="#ec6800" stroke="black" stroke-width="0.07" />
<path d="M2.829791102771529,-1.5364512080359392 A3.22,3.22,0,0,0,2.216501733733888,-2.335705474659566 L2.9048563094276423,-3.0610798456718538 A4.220000000000001,4.220000000000001,0,0,1,3.7086082154334945,-2.013609968295548 Z" fill="#ff0000" stroke="black" stroke-width="0.07" />
<path d="M3.160839530701478,-0.6144049651124743 A3.22,3.22,0,0,0,2.869041007886545,-1.4618494091613405 L3.760047532074913,-1.9158399089008875 A4.220000000000001,4.220000000000001,0,0,1,4.142466714149142,-0.8052139604890192 Z" fill="#ff0000" stroke="black" stroke-width="0.07" />
<path d="M3.210073814620672,0.25263828824366075 A3.22,3.22,0,0,0,3.1758396369498856,-0.531453290871382 L4.162125238487118,-0.6965008967320597 A4.220000000000001,4.220000000000001,0,0,1,4.206991148353801,0.33109738397150573 Z" fill="#ff0000" stroke="black" stroke-width="0.07" />
<path d="M3.0624019824703947,0.9950347218873307 A3.22,3.22,0,0,0,3.20236050308584,0.3365816517218442 L4.196882398454114,0.44111011498949765 A4.220000000000001,4.220000000000001,0,0,1,4.013458498765549,1.3040517162622782 Z" fill="#fd0101" stroke="black" stroke-width="0.07" />
<path d="M2.4213052720283312,3.5897326891633323 A4.33,4.33,0,0,0,2.783270349942715,3.3169724387051756 L3.4260579596292544,4.083016881824154 A5.33,5.33,0,0,1,2.9804981754990774,4.418770261718374 Z" fill="#ab5676" stroke="black" stroke-width="0.07" />
<path d="M1.999371495307694,3.8407569076617016 A4.33,4.33,0,0,0,2.3265073041417477,3.651884960369795 L2.863806912488571,4.495276406182681 A5.33,5.33,0,0,1,2.4611201085427274,4.727767740839924 Z" fill="#9d6589" stroke="black" stroke-width="0.07" />
<path d="M1.6220465494908989,4.014706090274189 A4.33,4.33,0,0,0,1.8981470655967052,3.8917782204753935 L2.3365182123857826,4.790572266774561 A5.33,5.33,0,0,1,1.9966531429068108,4.941889944840977 Z" fill="#966c94" stroke="black" stroke-width="0.07" />
<path d="M0.9371835283519837,4.227361710829312 A4.33,4.33,0,0,0,1.2297864425679836,4.151689451979276 L1.5138017872719058,5.1105091868474695 A5.33,5.33,0,0,1,1.1536231422900862,5.203657717949246 Z" fill="#91729b" stroke="black" stroke-width="0.07" />
<path d="M0.6026195271570834,4.287860737651 A4.33,4.33,0,0,0,0.8262029499804366,4.250445704328386 L1.0170119453569808,5.23207288777605 A5.33,5.33,0,0,1,0.741792628117149,5.27812880639257 Z" fill="#8e759e" stroke="black" stroke-width="0.07" />
<path d="M0.3397278845015659,4.316652055064445 A4.33,4.33,0,0,0,0.49016991561503553,4.3021661350796245 L0.6033731293829421,5.295737990756212 A5.33,5.33,0,0,1,0.4181869802294102,5.313569388797573 Z" fill="#8c77a1" stroke="black" stroke-width="0.07" />
<path d="M0.07556891987343596,4.329340520027174 A4.33,4.33,0,0,0,0.2266146905319473,4.324065885487305 L0.27895064677489123,5.322695420241879 A5.33,5.33,0,0,1,0.09302132631071909,5.3291882151835654 Z" fill="#8a79a4" stroke="black" stroke-width="0.07" />
<path d="M-0.6026195271570812,4.287860737651 A4.33,4.33,0,0,0,-0.30204553131206374,4.319452337625039 L-0.3718020050561893,5.317016387884863 A5.33,5.33,0,0,1,-0.7417926281171461,5.27812880639257 Z" fill="#867ea9" stroke="black" stroke-width="0.07" />
<path d="M-0.9371835283519853,4.227361710829311 A4.33,4.33,0,0,0,-0.7146561333767364,4.270616654656211 L-0.8797037392374145,5.256902256193443 A5.33,5.33,0,0,1,-1.153623142290088,5.203657717949245 Z" fill="#8381ad" stroke="black" stroke-width="0.07" />
<path d="M-1.1935097506876051,4.162263143412921 A4.33,4.33,0,0,0,-1.0475218079465616,4.201380494775065 L-1.2894437035462294,5.171676221051062 A5.33,5.33,0,0,1,-1.469147106504604,5.123524839351241 Z" fill="#8183b0" stroke="black" stroke-width="0.07" />
<path d="M-1.4453837004822294,4.081637656429132 A4.33,4.33,0,0,0,-1.3020561118535054,4.129594396739821 L-1.6027619113577793,5.083311347488048 A5.33,5.33,0,0,1,-1.7791905597160007,5.024279147521311 Z" fill="#8085b2" stroke="black" stroke-width="0.07" />
<path d="M-1.864113049179918,3.9081942812348966 A4.33,4.33,0,0,0,-1.6570192621408375,4.000398375773872 L-2.039702694505927,4.924277908285159 A5.33,5.33,0,0,1,-2.2946241459882133,4.810779565584757 Z" fill="#7d88b6" stroke="black" stroke-width="0.07" />
<path d="M-2.0992256556666384,3.7871033319135847 A4.33,4.33,0,0,0,-1.9657788638722382,3.8580582497356324 L-2.419769363611785,4.749064773924 A5.33,5.33,0,0,1,-2.584035275912975,4.661723039052981 Z" fill="#7c8cb0" stroke="black" stroke-width="0.07" />
<path d="M-2.326507304141749,3.6518849603697943 A4.33,4.33,0,0,0,-2.197641111619849,3.730854264711807 L-2.705179474580553,4.592483425153333 A5.33,5.33,0,0,1,-2.863806912488573,4.49527640618268 Z" fill="#7c90aa" stroke="black" stroke-width="0.07" />
<path d="M-2.545110142426409,3.503043585643522 A4.33,4.33,0,0,0,-2.4213052720283357,3.589732689163329 L-2.9804981754990827,4.418770261718371 A5.33,5.33,0,0,1,-3.1328953947188825,4.3120605800184695 Z" fill="#7b94a4" stroke="black" stroke-width="0.07" />
<path d="M-2.840735595528898,3.2678924823646014 A4.33,4.33,0,0,0,-2.724957293245795,3.365042013108685 L-3.3542776842956323,4.1421879745656565 A5.33,5.33,0,0,1,-3.4967946245194055,4.0226020625873735 Z" fill="#7b999c" stroke="black" stroke-width="0.07" />
<path d="M-3.034937114418354,3.0883744448376067 A4.33,4.33,0,0,0,-2.925305598975809,3.1924108683878365 L-3.6008958065914696,3.92968820519796 A5.33,5.33,0,0,1,-3.735846378718205,3.8016248939917885 Z" fill="#7b9d96" stroke="black" stroke-width="0.07" />
<path d="M-3.217817094317117,2.8973355255338564 A4.33,4.33,0,0,0,-3.114741335466359,3.007870744087459 L-3.83408113580501,3.702529114546456 A5.33,5.33,0,0,1,-3.9609619197945114,3.5664661318927147 Z" fill="#7aa190" stroke="black" stroke-width="0.07" />
<path d="M-3.3886933191709527,2.695488376640892 A4.33,4.33,0,0,0,-3.2925578310481343,2.8121100492696947 L-4.052963796648165,3.4615580975998785 A5.33,5.33,0,0,1,-4.171301476023367,3.3180030132785117 Z" fill="#7aa58a" stroke="black" stroke-width="0.07" />
<path d="M-3.80527809782631,2.0660974319241046 A4.33,4.33,0,0,0,-3.6518849603697956,2.326507304141746 L-4.495276406182682,2.8638069124885694 A5.33,5.33,0,0,1,-4.684095210488276,2.543256192183713 Z" fill="#79ae7a" stroke="black" stroke-width="0.07" />
<path d="M-3.955651831592463,1.7611696645182133 A4.33,4.33,0,0,0,-3.858058249735634,1.9657788638722353 L-4.749064773924002,2.4197693636117816 A5.33,5.33,0,0,1,-4.869197289235064,2.1679063075940133 Z" fill="#79b472" stroke="black" stroke-width="0.07" />
<path d="M-4.055790579445562,1.5163979608534932 A4.33,4.33,0,0,0,-4.000398375773873,1.6570192621408364 L-4.92427790828516,2.039702694505926 A5.33,5.33,0,0,1,-4.99246276869396,1.8666053421129605 Z" fill="#78b86b" stroke="black" stroke-width="0.07" />
<path d="M-4.140799593319944,1.2659694814494487 A4.33,4.33,0,0,0,-4.094095432345042,1.4097101087994888 L-5.039614007944358,1.7352782632566455 A5.33,5.33,0,0,1,-5.097104349282979,1.558341186172185 Z" fill="#78bc65" stroke="black" stroke-width="0.07" />
<path d="M-4.21036175532194,1.0108184254960717 A4.33,4.33,0,0,0,-4.1725198623933375,1.1571421684188519 L-5.136150315601961,1.4243805444971087 A5.33,5.33,0,0,1,-5.182731675719616,1.2442637893519775 Z" fill="#78bf5f" stroke="black" stroke-width="0.07" />
<path d="M-4.313523042737258,0.3773843660973589 A4.33,4.33,0,0,0,-4.276690514776947,0.6773612336241991 L-5.264378855372084,0.8337956986644298 A5.33,5.33,0,0,1,-5.3097177408290035,0.46454010884501684 Z" fill="#8bc851" stroke="black" stroke-width="0.07" />
<path d="M-4.329835126867862,0.037785898707958177 A4.33,4.33,0,0,0,-4.321923677166684,0.2643401761859306 L-5.320058475588551,0.3253887157207875 A5.33,5.33,0,0,1,-5.329797049932033,0.04651243420633189 Z" fill="#98cf48" stroke="black" stroke-width="0.07" />
<path d="M-4.324065885487305,-0.2266146905319467 A4.33,4.33,0,0,0,-4.329340520027174,-0.07556891987343729 L-5.3291882151835654,-0.09302132631072073 A5.33,5.33,0,0,1,-5.322695420241879,-0.2789506467748905 Z" fill="#a2d340" stroke="black" stroke-width="0.07" />
<path d="M-4.302166135079624,-0.4901699156150368 A4.33,4.33,0,0,0,-4.316652055064444,-0.33972788450156916 L-5.313569388797572,-0.4181869802294142 A5.33,5.33,0,0,1,-5.295737990756211,-0.6033731293829437 Z" fill="#abd83a" stroke="black" stroke-width="0.07" />
<path d="M-4.1725198623933375,-1.157142168418853 A4.33,4.33,0,0,0,-4.243073971008192,-0.863263156026466 L-5.222998675629021,-1.0626310904436638 A5.33,5.33,0,0,1,-5.13615031560196,-1.4243805444971098 Z" fill="#c0e22b" stroke="black" stroke-width="0.07" />
<path d="M-4.068869048002983,-1.4809472206001462 A4.33,4.33,0,0,0,-4.140799593319944,-1.2659694814494515 L-5.097104349282979,-1.5583411861721885 A5.33,5.33,0,0,1,-5.008561668788891,-1.822967363925815 Z" fill="#cee822" stroke="black" stroke-width="0.07" />
<path d="M-3.970870122087587,-1.7265834684463175 A4.33,4.33,0,0,0,-4.028708069362167,-1.5869503117162067 L-4.959125637344191,-1.9534515384405038 A5.33,5.33,0,0,1,-4.887930196472711,-2.125332537371564 Z" fill="#d8ed1b" stroke="black" stroke-width="0.07" />
<path d="M-3.8580582497356324,-1.965778863872238 A4.33,4.33,0,0,0,-3.9243127178686943,-1.8299370733372289 L-4.830620504905344,-2.252555335077928 A5.33,5.33,0,0,1,-4.749064773924,-2.4197693636117847 Z" fill="#e1f114" stroke="black" stroke-width="0.07" />
<path d="M-3.58973268916333,-2.4213052720283343 A4.33,4.33,0,0,0,-3.7498899983866196,-2.1649999999999996 L-4.6159154021710584,-2.6649999999999996 A5.33,5.33,0,0,1,-4.418770261718372,-2.980498175499081 Z" fill="#f1f809" stroke="black" stroke-width="0.07" />
<path d="M-3.3886933191709523,-2.6954883766408932 A4.33,4.33,0,0,0,-3.525120194482862,-2.5144437982283696 L-4.339235712839181,-3.09514675393931 A5.33,5.33,0,0,1,-4.171301476023366,-3.3180030132785125 Z" fill="#fefe00" stroke="black" stroke-width="0.07" />
<path d="M-3.217817094317116,-2.897335525533857 A4.33,4.33,0,0,0,-3.316972438705174,-2.783270349942716 L-4.083016881824152,-3.4260579596292553 A5.33,5.33,0,0,1,-3.96096191979451,-3.566466131892715 Z" fill="#fcf800" stroke="black" stroke-width="0.07" />
<path d="M-2.9253055989758088,-3.1924108683878374 A4.33,4.33,0,0,0,-2.980575312753954,-3.1408710264832065 L-3.6689298884477077,-3.8662453974954945 A5.33,5.33,0,0,1,-3.600895806591469,-3.9296882051979614 Z" fill="#f9ed00" stroke="black" stroke-width="0.07" />
<path d="M-2.7249572932457955,-3.3650420131086847 A4.33,4.33,0,0,0,-2.8407355955288973,-3.267892482364602 L-3.496794624519405,-4.0226020625873735 A5.33,5.33,0,0,1,-3.3542776842956328,-4.142187974565656 Z" fill="#f7e800" stroke="black" stroke-width="0.07" />
<path d="M-2.0992256556666393,-3.7871033319135843 A4.33,4.33,0,0,0,-2.4835859694000284,-3.5469283517713355 L-3.0571624057510745,-4.366080396060328 A5.33,5.33,0,0,1,-2.584035275912976,-4.66172303905298 Z" fill="#f2da00" stroke="black" stroke-width="0.07" />
<path d="M-1.6570192621408386,-4.000398375773871 A4.33,4.33,0,0,0,-1.9993714953076962,-3.8407569076617007 L-2.46112010854273,-4.727767740839923 A5.33,5.33,0,0,1,-2.0397026945059284,-4.924277908285158 Z" fill="#eece00" stroke="black" stroke-width="0.07" />
<path d="M-1.2659694814494498,-4.140799593319944 A4.33,4.33,0,0,0,-1.5517332215311501,-4.042403246732883 L-1.9101011710764504,-4.975983673230085 A5.33,5.33,0,0,1,-1.5583411861721863,-5.097104349282979 Z" fill="#ebc300" stroke="black" stroke-width="0.07" />
<path d="M-0.5651784123128225,-4.2929562497486 A4.33,4.33,0,0,0,-0.8632631560264634,-4.243073971008192 L-1.0626310904436604,-5.222998675629022 A5.33,5.33,0,0,1,-0.6957046045328739,-5.28440111112241 Z" fill="#e5b300" stroke="black" stroke-width="0.07" />
<path d="M-0.22661469053194588,-4.324065885487305 A4.33,4.33,0,0,0,-0.45260824594893895,-4.306279806944624 L-0.5571367092165923,-5.3008017023128975 A5.33,5.33,0,0,1,-0.2789506467748895,-5.322695420241879 Z" fill="#e2aa00" stroke="black" stroke-width="0.07" />
<path d="M0.037785898707958974,-4.329835126867862 A4.33,4.33,0,0,0,-0.11334618617309017,-4.328516217144163 L-0.13952313448096318,-5.32817354211972 A5.33,5.33,0,0,1,0.046512434206332866,-5.329797049932033 Z" fill="#e1a200" stroke="black" stroke-width="0.07" />
<path d="M0.30204553131206324,-4.319452337625039 A4.33,4.33,0,0,0,0.1511148207218297,-4.327362280992685 L0.18601431742433075,-5.326753108011781 A5.33,5.33,0,0,1,0.37180200505618866,-5.317016387884863 Z" fill="#e39600" stroke="black" stroke-width="0.07" />
<path d="M0.9740380653089351,-4.219022380520069 A4.33,4.33,0,0,0,0.6773612336241999,-4.276690514776947 L0.8337956986644308,-5.264378855372084 A5.33,5.33,0,0,1,1.1989891196528,-5.193392445305304 Z" fill="#e87d00" stroke="black" stroke-width="0.07" />
<path d="M1.3020561118535035,-4.129594396739822 A4.33,4.33,0,0,0,1.0841454175557317,-4.192079282837207 L1.3345254216101732,-5.160226923215315 A5.33,5.33,0,0,1,1.6027619113577767,-5.083311347488049 Z" fill="#eb6d00" stroke="black" stroke-width="0.07" />
<path d="M1.5517332215311506,-4.042403246732883 A4.33,4.33,0,0,0,1.4097101087994888,-4.094095432345042 L1.7352782632566455,-5.039614007944358 A5.33,5.33,0,0,1,1.910101171076451,-4.975983673230085 Z" fill="#ed6000" stroke="black" stroke-width="0.07" />
<path d="M1.7956217407015145,-3.940132302895432 A4.33,4.33,0,0,0,1.657019262140839,-4.000398375773871 L2.039702694505929,-4.924277908285158 A5.33,5.33,0,0,1,2.2103149833577533,-4.850093573771975 Z" fill="#ef5500" stroke="black" stroke-width="0.07" />
<path d="M2.1976411116198493,-3.7308542647118066 A4.33,4.33,0,0,0,1.9993714953076975,-3.8407569076616994 L2.461120108542732,-4.727767740839921 A5.33,5.33,0,0,1,2.7051794745805533,-4.592483425153332 Z" fill="#f24300" stroke="black" stroke-width="0.07" />
<path d="M2.4213052720283335,-3.589732689163331 A4.33,4.33,0,0,0,2.2945504141297772,-3.6720482563573245 L2.8244696783629823,-4.52009635251375 A5.33,5.33,0,0,1,2.9804981754990805,-4.418770261718373 Z" fill="#f53600" stroke="black" stroke-width="0.07" />
<path d="M2.6359369876077605,-3.4352199634610483 A4.33,4.33,0,0,0,2.5144437982283696,-3.525120194482862 L3.09514675393931,-4.339235712839181 A5.33,5.33,0,0,1,3.244698416616481,-4.228573303752284 Z" fill="#f72b00" stroke="black" stroke-width="0.07" />
<path d="M2.8407355955288964,-3.2678924823646027 A4.33,4.33,0,0,0,2.7249572932457964,-3.365042013108684 L3.354277684295634,-4.142187974565655 A5.33,5.33,0,0,1,3.4967946245194037,-4.022602062587375 Z" fill="#f92000" stroke="black" stroke-width="0.07" />
<path d="M3.192410868387837,-2.9253055989758088 A4.33,4.33,0,0,0,2.980575312753955,-3.140871026483205 L3.668929888447709,-3.8662453974954927 A5.33,5.33,0,0,1,3.929688205197961,-3.600895806591469 Z" fill="#fc0e00" stroke="black" stroke-width="0.07" />
<path d="M3.4120865631171062,-2.6658141881601 A4.33,4.33,0,0,0,3.267892482364603,-2.840735595528896 L4.022602062587375,-3.4967946245194033 A5.33,5.33,0,0,1,4.200097316723828,-3.2814756634857583 Z" fill="#ff0000" stroke="black" stroke-width="0.07" />
<path d="M3.568466396733328,-2.452539005884526 A4.33,4.33,0,0,0,3.4807002064725507,-2.5755826666333075 L4.284557067089768,-3.170405453384649 A5.33,5.33,0,0,1,4.392592585355343,-3.018945242809359 Z" fill="#ff0000" stroke="black" stroke-width="0.07" />
<path d="M3.7115344120401463,-2.2301148643605346 A4.33,4.33,0,0,0,3.631443559203686,-2.3582870216150673 L4.4701141271491105,-2.9029260566300943 A5.33,5.33,0,0,1,4.568701712742259,-2.745152939270589 Z" fill="#ff0000" stroke="black" stroke-width="0.07" />
<path d="M3.985786015449067,-1.6918657863585551 A4.33,4.33,0,0,0,3.8580582497356333,-1.9657788638722375 L4.749064773924001,-2.4197693636117843 A5.33,5.33,0,0,1,4.9062908689015075,-2.0825969148478287 Z" fill="#ff0000" stroke="black" stroke-width="0.07" />
<path d="M4.106241427042844,-1.373929162234049 A4.33,4.33,0,0,0,4.028708069362167,-1.5869503117162072 L4.959125637344191,-1.9534515384405045 A5.33,5.33,0,0,1,5.054565082249042,-1.6912338186391411 Z" fill="#ff0000" stroke="black" stroke-width="0.07" />
<path d="M4.182458827831666,-1.1206864652939148 A4.33,4.33,0,0,0,4.140799593319944,-1.2659694814494502 L5.097104349282979,-1.558341186172187 A5.33,5.33,0,0,1,5.1483846541207345,-1.3795055103964355 Z" fill="#ff0000" stroke="black" stroke-width="0.07" />
<path d="M4.243073971008192,-0.8632631560264638 A4.33,4.33,0,0,0,4.21036175532194,-1.0108184254960704 L5.182731675719616,-1.2442637893519757 A5.33,5.33,0,0,1,5.222998675629022,-1.0626310904436609 Z" fill="#ff0000" stroke="black" stroke-width="0.07" />
<path d="M4.292956249748599,-0.5651784123128233 A4.33,4.33,0,0,0,4.270616654656212,-0.7146561333767342 L5.2569022561934435,-0.8797037392374117 A5.33,5.33,0,0,1,5.28440111112241,-0.6957046045328749 Z" fill="#ff0000" stroke="black" stroke-width="0.07" />
<path d="M4.319452337625039,-0.3020455313120626 A4.33,4.33,0,0,0,4.306279806944623,-0.4526082459489395 L5.300801702312897,-0.557136709216593 A5.33,5.33,0,0,1,5.317016387884863,-0.3718020050561879 Z" fill="#ff0000" stroke="black" stroke-width="0.07" />
<path d="M4.329835126867862,-0.03778589870795914 A4.33,4.33,0,0,0,4.325878799449445,-0.18887194729190487 L5.324927021031302,-0.2324913346572409 A5.33,5.33,0,0,1,5.329797049932033,-0.046512434206333074 Z" fill="#ff0000" stroke="black" stroke-width="0.07" />
<path d="M4.324065885487305,0.22661469053194677 A4.33,4.33,0,0,0,4.329340520027174,0.07556891987343761 L5.3291882151835654,0.09302132631072112 A5.33,5.33,0,0,1,5.322695420241879,0.2789506467748906 Z" fill="#ff0000" stroke="black" stroke-width="0.07" />
<path d="M4.287860737651,0.6026195271570833 A4.33,4.33,0,0,0,4.306279806944623,0.4526082459489395 L5.300801702312897,0.557136709216593 A5.33,5.33,0,0,1,5.27812880639257,0.7417926281171487 Z" fill="#ff0000" stroke="black" stroke-width="0.07" />
<path d="M4.243073971008192,0.8632631560264638 A4.33,4.33,0,0,0,4.270616654656212,0.7146561333767342 L5.2569022561934435,0.8797037392374117 A5.33,5.33,0,0,1,5.222998675629022,1.0626310904436609 Z" fill="#ff0000" stroke="black" stroke-width="0.07" />
<path d="M4.182458827831666,1.1206864652939148 A4.33,4.33,0,0,0,4.219022380520069,0.9740380653089354 L5.193392445305304,1.1989891196528004 A5.33,5.33,0,0,1,5.1483846541207345,1.3795055103964355 Z" fill="#f90507" stroke="black" stroke-width="0.07" />
</svg>