<?xml version="1.0" encoding="UTF-8"?>
<svg xmlns="http://www.w3.org/2000/svg" xmlns:xlink="http://www.w3.org/1999/xlink"
     width="600" height="600.0" viewBox="-7.0 -7.0 14 14">
<defs>
</defs>
<path d="M0.5000000000000001,0.8660254037844386 A1.0,1.0,0,1,0,0.4694715627858902,0.8829475928589272 L0.9389431255717804,1.7658951857178544 A2.0,2.0,0,1,1,1.0000000000000002,1.7320508075688772 Z" fill="red" stroke="black" stroke-width="0.07" />
<path d="M-1.9877081190568708,0.6458455182436407 A2.09,2.09,0,0,0,1.0450000000000002,1.8099930939094766 L1.5450000000000004,2.676018497693915 A3.09,3.09,0,0,1,-2.9387646353520243,0.9548625126185885 Z" fill="#8381ad" stroke="black" stroke-width="0.07" />
<path d="M-0.5585282060035568,-2.013987647206022 A2.09,2.09,0,0,0,-2.0039332458745234,0.5935920704311977 L-2.962752980742717,0.8776074151351201 A3.09,3.09,0,0,1,-0.8257665820818136,-2.9776181004146447 Z" fill="#cfe821" stroke="black" stroke-width="0.07" />
<path d="M1.9238551437156002,-0.816628058542582 A2.09,2.09,0,0,0,-0.5056167618033056,-2.0279180679168327 L-0.7475386574029734,-2.998213794192829 A3.09,3.09,0,0,1,2.8443599971680404,-1.2073591870318556 Z" fill="#eb6b00" stroke="black" stroke-width="0.07" />
<path d="M1.3294034803805266,1.6126953792803347 A2.09,2.09,0,0,0,1.9445727170824312,-0.7659875638537812 L2.874990285064456,-1.1324887905780785 A3.09,3.09,0,0,1,1.9654817006582905,2.3843199626680547 Z" fill="#ff0000" stroke="black" stroke-width="0.07" />
<path d="M0.49746159882793356,3.140848923092538 A3.18,3.18,0,0,0,1.5900000000000005,2.753960784034515 L2.0900000000000003,3.619986187818953 A4.18,4.18,0,0,1,0.6538960638681641,4.128537263687676 Z" fill="#9c668b" stroke="black" stroke-width="0.07" />
<path d="M-0.57950897106503,3.1267506060533754 A3.18,3.18,0,0,0,0.4150732912597658,3.152794659168717 L0.5455994834798179,4.144239520542527 A4.18,4.18,0,0,1,-0.7617444965571777,4.110005513617329 Z" fill="#8e759f" stroke="black" stroke-width="0.07" />
<path d="M-1.4929195696591326,2.807773345291388 A3.18,3.18,0,0,0,-0.6611591768004762,3.110509370333502 L-0.8690708676182358,4.088656971067307 A4.18,4.18,0,0,1,-1.9623911324450232,3.6907209381503145 Z" fill="#8480ac" stroke="black" stroke-width="0.07" />
<path d="M-2.188967550706138,2.3066904998190747 A3.18,3.18,0,0,0,-1.5659069211290257,2.767731113088881 L-2.0583304812324927,3.63808680902878 A4.18,4.18,0,0,1,-2.877322126399892,3.0320648708313622 Z" fill="#7c8bb3" stroke="black" stroke-width="0.07" />
<path d="M-2.666972406066449,1.7319521313477861 A3.18,3.18,0,0,0,-2.248599564173222,2.248599564173221 L-2.955706345359769,2.955706345359768 A4.18,4.18,0,0,1,-3.5056429740118724,2.276591166362813 Z" fill="#7b9a9a" stroke="black" stroke-width="0.07" />
<path d="M-2.9587278661828385,1.1654739009832642 A3.18,3.18,0,0,0,-2.7113957226460137,1.661545435796717 L-3.5640358870001054,2.1840440005126656 A4.18,4.18,0,0,1,-3.889145434164863,1.531975127707561 Z" fill="#7aa885" stroke="black" stroke-width="0.07" />
<path d="M-3.1789102934222724,-0.0832426956190375 A3.18,3.18,0,0,0,-3.0490467568808546,0.9031687961584731 L-4.007866491749047,1.1871841408623953 A4.18,4.18,0,0,1,-4.178567618397829,-0.1094196439269109 Z" fill="#78bc64" stroke="black" stroke-width="0.07" />
<path d="M-3.0067490704058275,-1.0353067311737594 A3.18,3.18,0,0,0,-3.1756419205195447,-0.1664283408525613 L-4.174271455274118,-0.2187642970955051 A4.18,4.18,0,0,1,-3.9522676460051436,-1.3608748856309163 Z" fill="#a0d242" stroke="black" stroke-width="0.07" />
<path d="M-2.6207212798180093,-1.8011718334209696 A3.18,3.18,0,0,0,-2.9786175618099042,-1.1136594724051068 L-3.915289751058302,-1.4638668536645743 A4.18,4.18,0,0,1,-3.4448474684400243,-2.3675780703458025 Z" fill="#cbe624" stroke="black" stroke-width="0.07" />
<path d="M-2.1278353282211695,-2.3632005450181137 A3.18,3.18,0,0,0,-2.572674042112333,-1.869157102290065 L-3.38169103648728,-2.456942354582538 A4.18,4.18,0,0,1,-2.7969659345800273,-3.1063453704955077 Z" fill="#f1f809" stroke="black" stroke-width="0.07" />
<path d="M-1.61397199421504,-2.739980730204052 A3.18,3.18,0,0,0,-2.065244793689984,-2.4180909706080986 L-2.7146928420201673,-3.1784969362081297 A4.18,4.18,0,0,1,-2.121510357175744,-3.601609890645577 Z" fill="#faf200" stroke="black" stroke-width="0.07" />
<path d="M-1.0876240557756265,-2.988222534099189 A3.18,3.18,0,0,0,-1.5416945923833518,-2.781290668703279 L-2.0265042126296886,-3.6559103758426743 A4.18,4.18,0,0,1,-1.4296441991012951,-3.927915154885097 Z" fill="#f4de00" stroke="black" stroke-width="0.07" />
<path d="M0.4425704610530089,-3.1490524585981934 A3.18,3.18,0,0,0,-0.7693116280069436,-3.085540409557669 L-1.0112335236066112,-4.055836135833665 A4.18,4.18,0,0,1,0.5817435620130745,-4.1393205273397635 Z" fill="#e7b900" stroke="black" stroke-width="0.07" />
<path d="M1.5173648576255547,-2.79463841826505 A3.18,3.18,0,0,0,0.5248513866369555,-3.136388212888396 L0.6898989924976332,-4.122673814425626 A4.18,4.18,0,0,1,1.994523617885163,-3.673455530927015 Z" fill="#e78300" stroke="black" stroke-width="0.07" />
<path d="M2.3257047711489625,-2.1687547849987454 A3.18,3.18,0,0,0,1.5900000000000005,-2.753960784034515 L2.0900000000000003,-3.619986187818953 A4.18,4.18,0,0,1,3.0570584727681327,-2.8507531450612436 Z" fill="#f24400" stroke="black" stroke-width="0.07" />
<path d="M2.84589126989444,-1.418909045689192 A3.18,3.18,0,0,0,2.381679192109027,-2.1071317533260454 L3.130634912898029,-2.7697518015417826 A4.18,4.18,0,0,1,3.7408256314964645,-1.8651068587990005 Z" fill="#fc0c00" stroke="black" stroke-width="0.07" />
<path d="M3.176973344630308,-0.13870965182176848 A3.18,3.18,0,0,0,2.9587278661828385,-1.1654739009832653 L3.8891454341648624,-1.5319751277075624 A4.18,4.18,0,0,1,4.176021566212166,-0.18232903918710447 Z" fill="#ff0000" stroke="black" stroke-width="0.07" />
<path d="M3.056812193083854,0.8765267914980573 A3.18,3.18,0,0,0,3.179515670597324,-0.05549865247056157 L4.179363365753715,-0.07295105890784508 A4.18,4.18,0,0,1,4.0180738890221726,1.1521641473150563 Z" fill="#ff0000" stroke="black" stroke-width="0.07" />
<path d="M2.6819847976849767,1.7086127545429 A3.18,3.18,0,0,0,3.032819903379362,0.9562444424235885 L3.9865368541275883,1.2569502419278615 A4.18,4.18,0,0,1,3.525376243497862,2.2459123628897237 Z" fill="#f7070a" stroke="black" stroke-width="0.07" />
<path d="M2.1687547849987454,2.325704771148962 A3.18,3.18,0,0,0,2.6363394807250327,1.7782334330369753 L3.465377053280074,2.337426336507722 A4.18,4.18,0,0,1,2.8507531450612436,3.0570584727681323 Z" fill="#d82736" stroke="black" stroke-width="0.07" />
<path d="M1.8045799776327875,3.8699342506464958 A4.2700000000000005,4.2700000000000005,0,0,0,2.1350000000000007,3.697928474159553 L2.6350000000000007,4.563953877943992 A5.2700000000000005,5.2700000000000005,0,0,1,2.2271982393734873,4.776242037683145 Z" fill="#ac5574" stroke="black" stroke-width="0.07" />
<path d="M1.425355288928202,4.025079166963602 A4.2700000000000005,4.2700000000000005,0,0,0,1.7026585243108017,3.91584651762448 L2.101407593236048,4.832906592009604 A5.2700000000000005,5.2700000000000005,0,0,1,1.7591621481619728,4.9677206580557804 Z" fill="#a06185" stroke="black" stroke-width="0.07" />
<path d="M1.1051573225877653,4.124503278254322 A4.2700000000000005,4.2700000000000005,0,0,0,1.3195025659810249,4.061011324580306 L1.6285195603559721,5.01206784087546 A5.2700000000000005,5.2700000000000005,0,0,1,1.3639763676902865,5.09042910454339 Z" fill="#976b92" stroke="black" stroke-width="0.07" />
<path d="M0.851301079961431,4.184278488730944 A4.2700000000000005,4.2700000000000005,0,0,0,0.9968117036647135,4.15201956009808 L1.2302570675206184,5.124389480495757 A5.2700000000000005,5.2700000000000005,0,0,1,1.050669014378628,5.164203193351773 Z" fill="#956d95" stroke="black" stroke-width="0.07" />
<path d="M0.26067726381383705,4.262035589261373 A4.2700000000000005,4.2700000000000005,0,0,0,0.5573468407796226,4.2334695580661705 L0.6878730329996747,5.2249144194399815 A5.2700000000000005,5.2700000000000005,0,0,1,0.3217258033486935,5.26017038768324 Z" fill="#91719a" stroke="black" stroke-width="0.07" />
<path d="M-0.07452177548720054,4.2693496583177915 A4.2700000000000005,4.2700000000000005,0,0,0,0.14902085091968048,4.26739883137154 L0.18392034762218176,5.2667896583906355 A5.2700000000000005,5.2700000000000005,0,0,1,-0.09197418192448405,5.2691973534741825 Z" fill="#8f749d" stroke="black" stroke-width="0.07" />
<path d="M-0.3350203387579006,4.256837015040457 A4.2700000000000005,4.2700000000000005,0,0,0,-0.1862547840499853,4.265935906154533 L-0.22987417141532143,5.264984127736391 A5.2700000000000005,5.2700000000000005,0,0,1,-0.4134794344857462,5.253754348773585 Z" fill="#8d77a0" stroke="black" stroke-width="0.07" />
<path d="M-0.5942691410994774,4.228444653526506 A4.2700000000000005,4.2700000000000005,0,0,0,-0.4463365381528799,4.246608493222528 L-0.5508650014205333,5.241130388590801 A5.2700000000000005,5.2700000000000005,0,0,1,-0.7334422420595423,5.2187127222680765 Z" fill="#8b79a3" stroke="black" stroke-width="0.07" />
<path d="M-1.1051573225877631,4.1245032782543225 A4.2700000000000005,4.2700000000000005,0,0,0,-0.8877829197918344,4.176690255133351 L-1.0956946106095942,5.1548378558671555 A5.2700000000000005,5.2700000000000005,0,0,1,-1.3639763676902839,5.09042910454339 Z" fill="#877ca8" stroke="black" stroke-width="0.07" />
<path d="M-1.3548908828497457,4.049342007730471 A4.2700000000000005,4.2700000000000005,0,0,0,-1.21274552188575,4.094160267887185 L-1.4967608665896726,5.052980002755378 A5.2700000000000005,5.2700000000000005,0,0,1,-1.6721955392548384,4.9976656629366705 Z" fill="#857faa" stroke="black" stroke-width="0.07" />
<path d="M-1.5995701538859457,3.9590750590001824 A4.2700000000000005,4.2700000000000005,0,0,0,-1.4604260120006085,4.012487490755828 L-1.8024461553262778,4.952180111541737 A5.2700000000000005,5.2700000000000005,0,0,1,-1.9741767473018579,4.886258913566969 Z" fill="#8381ad" stroke="black" stroke-width="0.07" />
<path d="M-1.8382823833714204,3.8540391641739054 A4.2700000000000005,4.2700000000000005,0,0,0,-1.7026585243107994,3.915846517624481 L-2.101407593236045,4.832906592009605 A5.2700000000000005,5.2700000000000005,0,0,1,-2.2687934801797156,4.756624448523766 Z" fill="#8283af" stroke="black" stroke-width="0.07" />
<path d="M-2.2310688713371007,3.640773501791975 A4.2700000000000005,4.2700000000000005,0,0,0,-2.102648601641805,3.7164188216633716 L-2.5950721617452723,4.5867745176032715 A5.2700000000000005,5.2700000000000005,0,0,1,-2.753567436053049,4.4934136661460675 Z" fill="#7e86b4" stroke="black" stroke-width="0.07" />
<path d="M-2.4491713832189683,3.4977792291139944 A4.2700000000000005,4.2700000000000005,0,0,0,-2.3256086795141653,3.581123325126961 L-2.8702477145291923,4.419793893072385 A5.2700000000000005,5.2700000000000005,0,0,1,-3.022747819570015,4.316931273402986 Z" fill="#7d88b6" stroke="black" stroke-width="0.07" />
<path d="M-2.658137498442636,3.341736829759807 A4.2700000000000005,4.2700000000000005,0,0,0,-2.5398932994282295,3.432468794835517 L-3.134716086179571,4.236325655452735 A5.2700000000000005,5.2700000000000005,0,0,1,-3.2806521350802558,4.124344986612221 Z" fill="#7c8cb1" stroke="black" stroke-width="0.07" />
<path d="M-2.857187689152326,3.173228404788473 A4.2700000000000005,4.2700000000000005,0,0,0,-2.7447030933615237,3.271009772118036 L-3.3874907030480634,4.0370542152370135 A5.2700000000000005,5.2700000000000005,0,0,1,-3.5263182955111843,3.916373230265867 Z" fill="#7c90ab" stroke="black" stroke-width="0.07" />
<path d="M-3.1228803059138586,2.9121329974668684 A4.2700000000000005,4.2700000000000005,0,0,0,-3.0193459556665587,3.019345955666558 L-3.7264527368531066,3.7264527368531053 A5.2700000000000005,5.2700000000000005,0,0,1,-3.8542340075330292,3.5941313575293665 Z" fill="#7b95a2" stroke="black" stroke-width="0.07" />
<path d="M-3.294836971065566,2.716054000586051 A4.2700000000000005,4.2700000000000005,0,0,0,-3.1980409277690405,2.829387605881198 L-3.946996648558043,3.4920076540969354 A5.2700000000000005,5.2700000000000005,0,0,1,-4.066461554453286,3.3521322208638145 Z" fill="#7b999c" stroke="black" stroke-width="0.07" />
<path d="M-3.4545025659810267,2.50984302728886 A4.2700000000000005,4.2700000000000005,0,0,0,-3.3648059179007044,2.6288744996405593 L-4.152816671507426,3.244535974966217 A5.2700000000000005,5.2700000000000005,0,0,1,-4.263519560355974,3.097628279581333 Z" fill="#7b9d96" stroke="black" stroke-width="0.07" />
<path d="M-3.679156515085316,2.1671888098422056 A4.2700000000000005,4.2700000000000005,0,0,0,-3.6407735017919745,2.231068871337101 L-4.493413666146067,2.75356743605305 A5.2700000000000005,5.2700000000000005,0,0,1,-4.540785675526842,2.6747271728029096 Z" fill="#7aa38c" stroke="black" stroke-width="0.07" />
<path d="M-3.8045978582843323,1.9385394338878628 A4.2700000000000005,4.2700000000000005,0,0,0,-3.7346261494852206,2.070137078451859 L-4.609245856624616,2.554946698698196 A5.2700000000000005,5.2700000000000005,0,0,1,-4.6956043824727,2.392529933627409 Z" fill="#7aa687" stroke="black" stroke-width="0.07" />
<path d="M-3.91584651762448,1.702658524310802 A4.2700000000000005,4.2700000000000005,0,0,0,-3.854039164173905,1.8382823833714212 L-4.756624448523765,2.2687934801797165 A5.2700000000000005,5.2700000000000005,0,0,1,-4.832906592009604,2.1014075932360483 Z" fill="#79aa81" stroke="black" stroke-width="0.07" />
<path d="M-4.168783950402116,0.9241971515156996 A4.2700000000000005,4.2700000000000005,0,0,0,-4.094160267887185,1.2127455218857486 L-5.052980002755379,1.496760866589671 A5.2700000000000005,5.2700000000000005,0,0,1,-5.145079957522049,1.1406367654538025 Z" fill="#78b570" stroke="black" stroke-width="0.07" />
<path d="M-4.2284446535265054,0.5942691410994798 A4.2700000000000005,4.2700000000000005,0,0,0,-4.191548073321526,0.814754410257846 L-5.1731752567691895,1.0055634056343907 A5.2700000000000005,5.2700000000000005,0,0,1,-5.218712722268076,0.7334422420595453 Z" fill="#78ba67" stroke="black" stroke-width="0.07" />
<path d="M-4.256837015040457,0.3350203387578974 A4.2700000000000005,4.2700000000000005,0,0,0,-4.242551823739029,0.4833777227889614 L-5.236123679415616,0.5965809365568681 A5.2700000000000005,5.2700000000000005,0,0,1,-5.253754348773585,0.4134794344857422 Z" fill="#78be61" stroke="black" stroke-width="0.07" />
<path d="M-4.2693496583177915,0.07452177548719924 A4.2700000000000005,4.2700000000000005,0,0,0,-4.2641481134020305,0.22347453315736904 L-5.262777648156605,0.2758104894003126 A5.2700000000000005,5.2700000000000005,0,0,1,-5.2691973534741825,0.09197418192448244 Z" fill="#7dc25a" stroke="black" stroke-width="0.07" />
<path d="M-4.2381720675084456,-0.5203820963399801 A4.2700000000000005,4.2700000000000005,0,0,0,-4.2641481134020305,-0.2234745331573701 L-5.262777648156605,-0.2758104894003139 A5.2700000000000005,5.2700000000000005,0,0,1,-5.230718219149767,-0.6422514397451277 Z" fill="#90cb4d" stroke="black" stroke-width="0.07" />
<path d="M-4.184278488730943,-0.8513010799614342 A4.2700000000000005,4.2700000000000005,0,0,0,-4.223097736555386,-0.6311461855234364 L-5.212113599917302,-0.7789555966530468 A5.2700000000000005,5.2700000000000005,0,0,1,-5.164203193351772,-1.050669014378632 Z" fill="#9dd144" stroke="black" stroke-width="0.07" />
<path d="M-4.124503278254322,-1.105157322587765 A4.2700000000000005,4.2700000000000005,0,0,0,-4.160560176632955,-0.9605410020483027 L-5.13493024141819,-1.1854920563921676 A5.2700000000000005,5.2700000000000005,0,0,1,-5.09042910454339,-1.3639763676902859 Z" fill="#a8d63d" stroke="black" stroke-width="0.07" />
<path d="M-4.049342007730472,-1.3548908828497437 A4.2700000000000005,4.2700000000000005,0,0,0,-4.094160267887185,-1.2127455218857497 L-5.052980002755378,-1.4967608665896721 A5.2700000000000005,5.2700000000000005,0,0,1,-4.9976656629366705,-1.6721955392548358 Z" fill="#b1da36" stroke="black" stroke-width="0.07" />
<path d="M-3.944965603823195,-1.634058256198934 A4.2700000000000005,4.2700000000000005,0,0,0,-3.999590248090658,-1.4953855179779265 L-4.936262437339056,-1.845592899237394 A5.2700000000000005,5.2700000000000005,0,0,1,-4.868845136334482,-2.0167416885640237 Z" fill="#bbdf2f" stroke="black" stroke-width="0.07" />
<path d="M-3.8378505776974436,-1.8718447967893603 A4.2700000000000005,4.2700000000000005,0,0,0,-3.9008391041339054,-1.736765465933668 L-4.814384561776507,-2.1435021090094684 A5.2700000000000005,5.2700000000000005,0,0,1,-4.736644623996611,-2.3102159435784375 Z" fill="#c4e328" stroke="black" stroke-width="0.07" />
<path d="M-3.716418821663372,-2.102648601641805 A4.2700000000000005,4.2700000000000005,0,0,0,-3.787536257671007,-1.971666578513595 L-4.674547090849229,-2.433415191748629 A5.2700000000000005,5.2700000000000005,0,0,1,-4.5867745176032715,-2.5950721617452723 Z" fill="#cee822" stroke="black" stroke-width="0.07" />
<path d="M-3.5811233251269616,-2.3256086795141653 A4.2700000000000005,4.2700000000000005,0,0,0,-3.6601043739980197,-2.1992125798659323 L-4.517271674700132,-2.7142506547759866 A5.2700000000000005,5.2700000000000005,0,0,1,-4.419793893072386,-2.8702477145291923 Z" fill="#d7ec1b" stroke="black" stroke-width="0.07" />
<path d="M-3.364805917900703,-2.6288744996405615 A4.2700000000000005,4.2700000000000005,0,0,0,-3.4545025659810253,-2.509843027288861 L-4.263519560355973,-3.0976282795813344 A5.2700000000000005,5.2700000000000005,0,0,1,-4.152816671507424,-3.24453597496622 Z" fill="#e4f212" stroke="black" stroke-width="0.07" />
<path d="M-3.1980409277690396,-2.829387605881199 A4.2700000000000005,4.2700000000000005,0,0,0,-3.2948369710655636,-2.716054000586053 L-4.066461554453284,-3.3521322208638176 A5.2700000000000005,5.2700000000000005,0,0,1,-3.946996648558042,-3.4920076540969363 Z" fill="#edf60c" stroke="black" stroke-width="0.07" />
<path d="M-3.019345955666558,-3.0193459556665583 A4.2700000000000005,4.2700000000000005,0,0,0,-3.122880305913858,-2.9121329974668693 L-3.854234007533029,-3.594131357529368 A5.2700000000000005,5.2700000000000005,0,0,1,-3.7264527368531053,-3.726452736853106 Z" fill="#f6fb05" stroke="black" stroke-width="0.07" />
<path d="M-2.7160540005860514,-3.294836971065566 A4.2700000000000005,4.2700000000000005,0,0,0,-2.7731431663698842,-3.246933473112133 L-3.4225912147000677,-4.007339438712164 A5.2700000000000005,5.2700000000000005,0,0,1,-3.3521322208638153,-4.066461554453286 Z" fill="#fdfa00" stroke="black" stroke-width="0.07" />
<path d="M-2.50984302728886,-3.454502565981026 A4.2700000000000005,4.2700000000000005,0,0,0,-2.628874499640561,-3.3648059179007035 L-3.2445359749662193,-4.152816671507425 A5.2700000000000005,5.2700000000000005,0,0,1,-3.097628279581333,-4.263519560355974 Z" fill="#fbf400" stroke="black" stroke-width="0.07" />
<path d="M-2.294269327640937,-3.601281473621023 A4.2700000000000005,4.2700000000000005,0,0,0,-2.4185546316690356,-3.519018825416008 L-2.984960868593868,-4.343145014038024 A5.2700000000000005,5.2700000000000005,0,0,1,-2.8315689359877605,-4.444672919433908 Z" fill="#f9ee00" stroke="black" stroke-width="0.07" />
<path d="M-1.9385394338878645,-3.8045978582843314 A4.2700000000000005,4.2700000000000005,0,0,0,-2.070137078451859,-3.7346261494852206 L-2.5549466986981964,-4.609245856624616 A5.2700000000000005,5.2700000000000005,0,0,1,-2.392529933627411,-4.695604382472699 Z" fill="#f6e500" stroke="black" stroke-width="0.07" />
<path d="M-1.7026585243108006,-3.9158465176244808 A4.2700000000000005,4.2700000000000005,0,0,0,-1.8382823833714215,-3.854039164173905 L-2.268793480179717,-4.756624448523765 A5.2700000000000005,5.2700000000000005,0,0,1,-2.1014075932360465,-4.832906592009604 Z" fill="#f4de00" stroke="black" stroke-width="0.07" />
<path d="M-1.2840137638832456,-4.072371379694929 A4.2700000000000005,4.2700000000000005,0,0,0,-1.3548908828497428,-4.049342007730472 L-1.6721955392548349,-4.997665662936671 A5.2700000000000005,5.2700000000000005,0,0,1,-1.5847195633875186,-5.026088330443156 Z" fill="#f0d300" stroke="black" stroke-width="0.07" />
<path d="M-0.6679751657217866,-4.217429214341238 A4.2700000000000005,4.2700000000000005,0,0,0,-1.0330064942105817,-4.143162751198505 L-1.2749283898102493,-5.113458477474502 A5.2700000000000005,5.2700000000000005,0,0,1,-0.8244096307620177,-5.2051175549363755 Z" fill="#ecc800" stroke="black" stroke-width="0.07" />
<path d="M-0.26067726381383943,-4.262035589261372 A4.2700000000000005,4.2700000000000005,0,0,0,-0.5573468407796195,-4.233469558066171 L-0.6878730329996708,-5.2249144194399815 A5.2700000000000005,5.2700000000000005,0,0,1,-0.32172580334869644,-5.260170387683239 Z" fill="#e9bd00" stroke="black" stroke-width="0.07" />
<path d="M0.07452177548720003,-4.2693496583177915 A4.2700000000000005,4.2700000000000005,0,0,0,-0.14902085091967815,-4.26739883137154 L-0.18392034762217888,-5.2667896583906355 A5.2700000000000005,5.2700000000000005,0,0,1,0.0919741819244834,-5.2691973534741825 Z" fill="#e6b400" stroke="black" stroke-width="0.07" />
<path d="M0.33502033875789816,-4.256837015040457 A4.2700000000000005,4.2700000000000005,0,0,0,0.18625478404998572,-4.265935906154533 L0.22987417141532196,-5.264984127736391 A5.2700000000000005,5.2700000000000005,0,0,1,0.4134794344857432,-5.253754348773585 Z" fill="#e3ad00" stroke="black" stroke-width="0.07" />
<path d="M1.0691226173124653,-4.13399042441452 A4.2700000000000005,4.2700000000000005,0,0,0,0.7047532770250944,-4.211439518563978 L0.8698008828857722,-5.197725120101209 A5.2700000000000005,5.2700000000000005,0,0,1,1.3195026213669068,-5.102138064792628 Z" fill="#e39a00" stroke="black" stroke-width="0.07" />
<path d="M1.460426012000606,-4.012487490755829 A4.2700000000000005,4.2700000000000005,0,0,0,1.1769715093385866,-4.104587441656622 L1.4526088651555857,-5.065849137594941 A5.2700000000000005,5.2700000000000005,0,0,1,1.802446155326275,-4.952180111541737 Z" fill="#e68600" stroke="black" stroke-width="0.07" />
<path d="M1.7707401461421404,-3.88553462664284 A4.2700000000000005,4.2700000000000005,0,0,0,1.5649602381127496,-3.9728830152832453 L1.931461464837047,-4.90330058326527 A5.2700000000000005,5.2700000000000005,0,0,1,2.1854333887983795,-4.795495897519383 Z" fill="#e97600" stroke="black" stroke-width="0.07" />
<path d="M2.004643573095754,-3.7701862215076183 A4.2700000000000005,4.2700000000000005,0,0,0,1.871844796789361,-3.8378505776974436 L2.3102159435784384,-4.736644623996611 A5.2700000000000005,5.2700000000000005,0,0,1,2.474115135881645,-4.653133814366545 Z" fill="#eb6900" stroke="black" stroke-width="0.07" />
<path d="M2.3877536978200893,-3.5399904348100284 A4.2700000000000005,4.2700000000000005,0,0,0,2.1350000000000007,-3.697928474159553 L2.6350000000000007,-4.563953877943992 A5.2700000000000005,5.2700000000000005,0,0,1,2.946946601290836,-4.3690280073650705 Z" fill="#ee5900" stroke="black" stroke-width="0.07" />
<path d="M2.658137498442636,-3.341736829759807 A4.2700000000000005,4.2700000000000005,0,0,0,2.4796016208857137,-3.4762732633814832 L3.0603045765966534,-4.290388781737803 A5.2700000000000005,5.2700000000000005,0,0,1,3.2806521350802558,-4.124344986612221 Z" fill="#f14900" stroke="black" stroke-width="0.07" />
<path d="M2.857187689152325,-3.1732284047884733 A4.2700000000000005,4.2700000000000005,0,0,0,2.7447030933615233,-3.2710097721180365 L3.3874907030480625,-4.037054215237014 A5.2700000000000005,5.2700000000000005,0,0,1,3.5263182955111834,-3.9163732302658674 Z" fill="#f33c00" stroke="black" stroke-width="0.07" />
<path d="M3.0455794178883555,-2.9928825585603636 A4.2700000000000005,4.2700000000000005,0,0,0,2.93927403821233,-3.097348564222468 L3.627628613906084,-3.8227229352347556 A5.2700000000000005,5.2700000000000005,0,0,1,3.7588298670425373,-3.6937918228602147 Z" fill="#f53100" stroke="black" stroke-width="0.07" />
<path d="M3.3876187630435743,-2.5994113018672373 A4.2700000000000005,4.2700000000000005,0,0,0,3.1980409277690396,-2.8293876058811995 L3.946996648558042,-3.492007654096937 A5.2700000000000005,5.2700000000000005,0,0,1,4.18097210333481,-3.2081727308759582 Z" fill="#f91e00" stroke="black" stroke-width="0.07" />
<path d="M3.581123325126961,-2.3256086795141657 A4.2700000000000005,4.2700000000000005,0,0,0,3.454502565981026,-2.5098430272888606 L4.263519560355974,-3.097628279581334 A5.2700000000000005,5.2700000000000005,0,0,1,4.419793893072385,-2.870247714529193 Z" fill="#fc0e00" stroke="black" stroke-width="0.07" />
<path d="M3.716418821663372,-2.1026486016418047 A4.2700000000000005,4.2700000000000005,0,0,0,3.640773501791974,-2.2310688713371016 L4.493413666146066,-2.7535674360530504 A5.2700000000000005,5.2700000000000005,0,0,1,4.5867745176032715,-2.5950721617452714 Z" fill="#fe0100" stroke="black" stroke-width="0.07" />
<path d="M4.094160267887185,-1.21274552188575 A4.2700000000000005,4.2700000000000005,0,0,0,3.9728830152832453,-1.5649602381127494 L4.90330058326527,-1.9314614648370467 A5.2700000000000005,5.2700000000000005,0,0,1,5.052980002755378,-1.4967608665896726 Z" fill="#ff0000" stroke="black" stroke-width="0.07" />
<path d="M4.191548073321526,-0.8147544102578465 A4.2700000000000005,4.2700000000000005,0,0,0,4.1245032782543225,-1.1051573225877638 L5.09042910454339,-1.3639763676902845 A5.2700000000000005,5.2700000000000005,0,0,1,5.1731752567691895,-1.0055634056343912 Z" fill="#ff0000" stroke="black" stroke-width="0.07" />
<path d="M4.242551823739029,-0.48337772278896174 A4.2700000000000005,4.2700000000000005,0,0,0,4.211439518563979,-0.7047532770250935 L5.19772512010121,-0.8698008828857712 A5.2700000000000005,5.2700000000000005,0,0,1,5.236123679415616,-0.5965809365568685 Z" fill="#ff0000" stroke="black" stroke-width="0.07" />
<path d="M4.2641481134020305,-0.22347453315737018 A4.2700000000000005,4.2700000000000005,0,0,0,4.253751360851754,-0.3721550215325004 L5.249946058943499,-0.4593107642801586 A5.2700000000000005,5.2700000000000005,0,0,1,5.262777648156605,-0.275810489400314 Z" fill="#ff0000" stroke="black" stroke-width="0.07" />
<path d="M4.2641481134020305,0.22347453315737018 A4.2700000000000005,4.2700000000000005,0,0,0,4.2693496583177915,-0.0745217754872006 L5.2691973534741825,-0.09197418192448412 A5.2700000000000005,5.2700000000000005,0,0,1,5.262777648156605,0.275810489400314 Z" fill="#ff0000" stroke="black" stroke-width="0.07" />
<path d="M4.2334695580661705,0.5573468407796203 A4.2700000000000005,4.2700000000000005,0,0,0,4.256837015040457,0.33502033875789794 L5.253754348773585,0.41347943448574287 A5.2700000000000005,5.2700000000000005,0,0,1,5.2249144194399815,0.6878730329996718 Z" fill="#ff0000" stroke="black" stroke-width="0.07" />
<path d="M4.191548073321526,0.8147544102578465 A4.2700000000000005,4.2700000000000005,0,0,0,4.217429214341239,0.6679751657217858 L5.205117554936376,0.8244096307620168 A5.2700000000000005,5.2700000000000005,0,0,1,5.1731752567691895,1.0055634056343912 Z" fill="#ff0000" stroke="black" stroke-width="0.07" />
<path d="M4.13399042441452,1.069122617312465 A4.2700000000000005,4.2700000000000005,0,0,0,4.168783950402116,0.9241971515156994 L5.145079957522049,1.1406367654538023 A5.2700000000000005,5.2700000000000005,0,0,1,5.102138064792628,1.3195026213669065 Z" fill="#ff0000" stroke="black" stroke-width="0.07" />
<path d="M3.9995902480906587,1.4953855179779258 A4.2700000000000005,4.2700000000000005,0,0,0,4.072371379694929,1.2840137638832463 L5.026088330443156,1.5847195633875195 A5.2700000000000005,5.2700000000000005,0,0,1,4.936262437339056,1.8455928992373933 Z" fill="#ff0000" stroke="black" stroke-width="0.07" />
<path d="M3.9008391041339063,1.7367654659336669 A4.2700000000000005,4.2700000000000005,0,0,0,3.959075059000183,1.5995701538859444 L4.88625891356697,1.9741767473018565 A5.2700000000000005,5.2700000000000005,0,0,1,4.814384561776507,2.143502109009467 Z" fill="#fb0304" stroke="black" stroke-width="0.07" />
<path d="M3.787536257671007,1.971666578513595 A4.2700000000000005,4.2700000000000005,0,0,0,3.8540391641739054,1.8382823833714201 L4.756624448523766,2.268793480179715 A5.2700000000000005,5.2700000000000005,0,0,1,4.674547090849229,2.433415191748629 Z" fill="#f40a0e" stroke="black" stroke-width="0.07" />
<path d="M3.66010437399802,2.1992125798659314 A4.2700000000000005,4.2700000000000005,0,0,0,3.73462614948522,2.0701370784518596 L4.609245856624616,2.5549466986981964 A5.2700000000000005,5.2700000000000005,0,0,1,4.517271674700132,2.7142506547759857 Z" fill="#ed1118" stroke="black" stroke-width="0.07" />
<path d="M3.4101736279019406,2.5697501488592462 A4.2700000000000005,4.2700000000000005,0,0,0,3.539990434810028,2.3877536978200897 L4.36902800736507,2.9469466012908363 A5.2700000000000005,5.2700000000000005,0,0,1,4.208809137949234,3.1715651720112947 Z" fill="#e21d27" stroke="black" stroke-width="0.07" />
<path d="M3.2469334731121324,2.7731431663698847 A4.2700000000000005,4.2700000000000005,0,0,0,3.3417368297598076,2.6581374984426356 L4.124344986612222,3.2806521350802553 A5.2700000000000005,5.2700000000000005,0,0,1,4.0073394387121635,3.422591214700068 Z" fill="#da2533" stroke="black" stroke-width="0.07" />
<path d="M3.0715809474460407,2.9661912418599186 A4.2700000000000005,4.2700000000000005,0,0,0,3.173228404788474,2.857187689152325 L3.916373230265868,3.5263182955111834 A5.2700000000000005,5.2700000000000005,0,0,1,3.7909207477846922,3.660849612318916 Z" fill="#d32c3d" stroke="black" stroke-width="0.07" />
</svg>