<?xml version="1.0" encoding="UTF-8"?>
<svg xmlns="http://www.w3.org/2000/svg" xmlns:xlink="http://www.w3.org/1999/xlink"
     width="600" height="600.0" viewBox="-7.0 -7.0 14 14">
<defs>
</defs>
<path d="M0.6427876096865393,0.7660444431189781 A1.0,1.0,0,1,0,0.615661475325659,0.7880107536067213 L1.231322950651318,1.5760215072134427 A2.0,2.0,0,1,1,1.2855752193730785,1.5320888862379562 Z" fill="#e5b200" stroke="black" stroke-width="0.07" />
<path d="M-1.1075312622473985,1.7724205209669301 A2.09,2.09,0,0,0,1.343426104244867,1.6010328861186642 L1.9862137139314062,2.367077329237642 A3.09,3.09,0,0,1,-1.6374505264806034,2.620468617123356 Z" fill="#9b678d" stroke="black" stroke-width="0.07" />
<path d="M-2.0721197602712635,-0.2727997417399078 A2.09,2.09,0,0,0,-1.153548299302202,1.7428213681203812 L-1.7054852846142603,2.576707190187549 A3.09,3.09,0,0,1,-3.063564621645074,-0.40332593395995936 Z" fill="#c33e54" stroke="black" stroke-width="0.07" />
<path d="M-0.850079584028422,-1.909310006473036 A2.09,2.09,0,0,0,-2.0642686318438375,-0.32694803193408273 L-3.0519569724389752,-0.4833824969743137 A3.09,3.09,0,0,1,-1.256816227104222,-2.8228554641156367 Z" fill="#78bc64" stroke="black" stroke-width="0.07" />
<path d="M0.9972618089425815,-1.8367277654635075 A2.09,2.09,0,0,0,-0.7998083736430375,-1.9309082229485892 L-1.1824918060081273,-2.854787755459876 A3.09,3.09,0,0,1,1.47442056920219,-2.7155448781254727 Z" fill="#ff0000" stroke="black" stroke-width="0.07" />
<path d="M2.018784976944153,-0.5409318042642683 A2.09,2.09,0,0,0,1.0450000000000002,-1.8099930939094766 L1.5450000000000004,-2.676018497693915 A3.09,3.09,0,0,1,2.984710803233221,-0.7997508493667891 Z" fill="#e29e00" stroke="black" stroke-width="0.07" />
<path d="M1.8704128157482323,0.9325534293995003 A2.09,2.09,0,0,0,2.032253133631144,-0.48790081045884226 L3.0046230540288206,-0.7213461743147477 A3.09,3.09,0,0,1,2.7653471773502574,1.3787512425093091 Z" fill="#b44d69" stroke="black" stroke-width="0.07" />
<path d="M1.3940202467892662,2.858165067231351 A3.18,3.18,0,0,0,2.044064598803195,2.4360213291183506 L2.686852208489734,3.2020657722373285 A4.18,4.18,0,0,1,1.8323913935783434,3.756959113530518 Z" fill="#efd100" stroke="black" stroke-width="0.07" />
<path d="M0.6882779723231659,3.1046213026413887 A3.18,3.18,0,0,0,1.3187245116468398,2.8936768413874074 L1.7334177543030787,3.8036381122639504 A4.18,4.18,0,0,1,0.9047175862612682,4.080917309761322 Z" fill="#f3dc00" stroke="black" stroke-width="0.07" />
<path d="M0.05549865247056036,3.179515670597324 A3.18,3.18,0,0,0,0.6067726052974107,3.121574443363572 L0.7975816006739549,4.103201626811235 A4.18,4.18,0,0,1,0.07295105890784348,4.179363365753715 Z" fill="#ff0000" stroke="black" stroke-width="0.07" />
<path d="M-0.5248513866369565,3.136388212888396 A3.18,3.18,0,0,0,-0.027750382884827972,3.179878915344065 L-0.036476918383201544,4.179840838408236 A4.18,4.18,0,0,1,-0.6898989924976346,4.122673814425626 Z" fill="#faf000" stroke="black" stroke-width="0.07" />
<path d="M-1.0353067311737583,3.0067490704058275 A3.18,3.18,0,0,0,-0.6067726052974146,3.121574443363571 L-0.79758160067396,4.103201626811234 A4.18,4.18,0,0,1,-1.3608748856309147,3.952267646005144 Z" fill="#ff0000" stroke="black" stroke-width="0.07" />
<path d="M-1.4683605900874093,2.8206944495067443 A3.18,3.18,0,0,0,-1.113659472405107,2.9786175618099042 L-1.4638668536645745,3.915289751058302 A4.18,4.18,0,0,1,-1.9301092033224434,3.7077052826849655 Z" fill="#fc0e00" stroke="black" stroke-width="0.07" />
<path d="M-2.2681364283102976,2.228891460473526 A3.18,3.18,0,0,0,-1.7551596132923457,2.651756914173595 L-2.307096598604404,3.4856427362407625 A4.18,4.18,0,0,1,-2.981386877464479,2.9298007247733766 Z" fill="#8282ae" stroke="black" stroke-width="0.07" />
<path d="M-2.666972406066449,1.7319521313477861 A3.18,3.18,0,0,0,-2.3257047711489625,2.168754784998745 L-3.0570584727681327,2.850753145061243 A4.18,4.18,0,0,1,-3.5056429740118724,2.276591166362813 Z" fill="#dd222e" stroke="black" stroke-width="0.07" />
<path d="M-2.937936913385893,1.2169333149209838 A3.18,3.18,0,0,0,-2.7113957226460137,1.661545435796717 L-3.5640358870001054,2.1840440005126656 A4.18,4.18,0,0,1,-3.8618164458971793,1.599616747286073 Z" fill="#eecd00" stroke="black" stroke-width="0.07" />
<path d="M-3.098496806017048,0.7153443528134906 A3.18,3.18,0,0,0,-2.9687857562611017,1.1396100795540554 L-3.902366182758303,1.4979780290993556 A4.18,4.18,0,0,1,-4.072866870802283,0.9402954071573555 Z" fill="#8282af" stroke="black" stroke-width="0.07" />
<path d="M-3.170197121271347,0.24949992441454655 A3.18,3.18,0,0,0,-3.1161605606942384,0.6339900314466852 L-4.096085265315068,0.8333579658638817 A4.18,4.18,0,0,1,-4.167114455004475,0.3279590201423913 Z" fill="#eecc00" stroke="black" stroke-width="0.07" />
<path d="M-3.1756419205195447,-0.1664283408525613 A3.18,3.18,0,0,0,-3.1756419205195447,0.16642834085256053 L-4.174271455274118,0.21876429709550407 A4.18,4.18,0,0,1,-4.174271455274118,-0.2187642970955051 Z" fill="#c8384d" stroke="black" stroke-width="0.07" />
<path d="M-2.948444657522384,-1.191248967062601 A3.18,3.18,0,0,0,-3.140848923092538,-0.49746159882793456 L-4.128537263687675,-0.6538960638681655 A4.18,4.18,0,0,1,-3.875628512089171,-1.5658555604785132 Z" fill="#ee5800" stroke="black" stroke-width="0.07" />
<path d="M-2.6207212798180093,-1.8011718334209696 A3.18,3.18,0,0,0,-2.9162510365446943,-1.268022039182284 L-3.833311110929818,-1.6667711081075305 A4.18,4.18,0,0,1,-3.4448474684400243,-2.3675780703458025 Z" fill="#ff0000" stroke="black" stroke-width="0.07" />
<path d="M-2.248599564173221,-2.2485995641732215 A3.18,3.18,0,0,0,-2.572674042112333,-1.869157102290065 L-3.38169103648728,-2.456942354582538 A4.18,4.18,0,0,1,-2.955706345359768,-2.9557063453597685 Z" fill="#fbfd02" stroke="black" stroke-width="0.07" />
<path d="M-1.8466353991607887,-2.5888873483730954 A3.18,3.18,0,0,0,-2.188967550706137,-2.3066904998190756 L-2.8773221263998905,-3.032064870831363 A4.18,4.18,0,0,1,-2.427338354871728,-3.4030028667294143 Z" fill="#ff0000" stroke="black" stroke-width="0.07" />
<path d="M-1.4436897891717586,-2.83340074691901 A3.18,3.18,0,0,0,-1.7782334330369745,-2.6363394807250327 L-2.337426336507721,-3.4653770532800743 A4.18,4.18,0,0,1,-1.8976802889113051,-3.7244072711073777 Z" fill="#7dc25b" stroke="black" stroke-width="0.07" />
<path d="M-0.6339900314466868,-3.1161605606942384 A3.18,3.18,0,0,0,-1.2169333149209853,-2.937936913385892 L-1.599616747286075,-3.8618164458971784 A4.18,4.18,0,0,1,-0.8333579658638838,-4.096085265315067 Z" fill="#92719a" stroke="black" stroke-width="0.07" />
<path d="M-0.05549865247056146,-3.179515670597324 A3.18,3.18,0,0,0,-0.5522012049808384,-3.131688654578822 L-0.7258493826477687,-4.116496407591029 A4.18,4.18,0,0,1,-0.07295105890784492,-4.179363365753715 Z" fill="#f6e600" stroke="black" stroke-width="0.07" />
<path d="M0.47003392739216227,-3.1450704454908958 A3.18,3.18,0,0,0,0.027750382884828992,-3.179878915344065 L0.03647691838320288,-4.179840838408236 A4.18,4.18,0,0,1,0.617843338521773,-4.134086308852812 Z" fill="#df202c" stroke="black" stroke-width="0.07" />
<path d="M0.9297420210183029,-3.041049123962453 A3.18,3.18,0,0,0,0.5522012049808388,-3.131688654578822 L0.7258493826477691,-4.116496407591029 A4.18,4.18,0,0,1,1.2221137257410397,-3.997353879925488 Z" fill="#c8384c" stroke="black" stroke-width="0.07" />
<path d="M1.3187245116468398,-2.8936768413874074 A3.18,3.18,0,0,0,1.009028807368193,-3.015669223555714 L1.3263334637732849,-3.9639928787619128 A4.18,4.18,0,0,1,1.7334177543030787,-3.8036381122639504 Z" fill="#91729b" stroke="black" stroke-width="0.07" />
<path d="M2.0012388435384834,-2.471324157433167 A3.18,3.18,0,0,0,1.5900000000000005,-2.753960784034515 L2.0900000000000003,-3.619986187818953 A4.18,4.18,0,0,1,2.6305592345883206,-3.2484701188901375 Z" fill="#7c92a7" stroke="black" stroke-width="0.07" />
<path d="M2.381679192109027,-2.1071317533260454 A3.18,3.18,0,0,0,2.065244793689984,-2.4180909706080986 L2.7146928420201673,-3.1784969362081297 A4.18,4.18,0,0,1,3.130634912898029,-2.7697518015417826 Z" fill="#f43800" stroke="black" stroke-width="0.07" />
<path d="M2.666972406066449,-1.7319521313477861 A3.18,3.18,0,0,0,2.43602132911835,-2.044064598803195 L3.202065772237328,-2.686852208489734 A4.18,4.18,0,0,1,3.5056429740118724,-2.276591166362813 Z" fill="#8084b2" stroke="black" stroke-width="0.07" />
<path d="M2.870221204232557,-1.3690252878503784 A3.18,3.18,0,0,0,2.7113957226460133,-1.6615454357967172 L3.564035887000105,-2.184044000512666 A4.18,4.18,0,0,1,3.7728064885824173,-1.7995363846586734 Z" fill="#ec6400" stroke="black" stroke-width="0.07" />
<path d="M3.0067490704058275,-1.0353067311737583 A3.18,3.18,0,0,0,2.9050745553034707,-1.2934225249810445 L3.8186200129460715,-1.7001591680568444 A4.18,4.18,0,0,1,3.952267646005144,-1.3608748856309147 Z" fill="#e8bb00" stroke="black" stroke-width="0.07" />
<path d="M3.174068658981537,-0.19413435572084486 A3.18,3.18,0,0,0,3.0921363468646117,-0.7423562570617792 L4.064506267262288,-0.9758016209176845 A4.18,4.18,0,0,1,4.172203457403404,-0.2551828952557017 Z" fill="#e87b00" stroke="black" stroke-width="0.07" />
<path d="M3.1562967622194043,0.387544512028369 A3.18,3.18,0,0,0,3.1780628299207248,-0.11098039951395308 L4.17745365693982,-0.14587989621645403 A4.18,4.18,0,0,1,4.148842913860726,0.5094138554335164 Z" fill="#8c78a2" stroke="black" stroke-width="0.07" />
<path d="M3.049046756880854,0.903168796158474 A3.18,3.18,0,0,0,3.1450704454908958,0.4700339273921618 L4.134086308852812,0.6178433385217724 A4.18,4.18,0,0,1,4.007866491749047,1.1871841408623967 Z" fill="#7b989d" stroke="black" stroke-width="0.07" />
<path d="M2.882058762776547,1.3439260723354243 A3.18,3.18,0,0,0,3.0243597218185885,0.9826740421123328 L3.9754162381137417,1.29169103648728 A4.18,4.18,0,0,1,3.7883665498131966,1.7665443340761235 Z" fill="#fefc00" stroke="black" stroke-width="0.07" />
<path d="M2.569750148859245,3.410173627901942 A4.2700000000000005,4.2700000000000005,0,0,0,2.744703093361523,3.271009772118037 L3.387490703048062,4.037054215237015 A5.2700000000000005,5.2700000000000005,0,0,1,3.171565172011293,4.208809137949235 Z" fill="#e1a500" stroke="black" stroke-width="0.07" />
<path d="M2.356770927282488,3.560692460226809 A4.2700000000000005,4.2700000000000005,0,0,0,2.479601620885711,3.476273263381485 L3.0603045765966503,4.290388781737804 A5.2700000000000005,5.2700000000000005,0,0,1,2.9087079125945463,4.394578282293978 Z" fill="#bf4159" stroke="black" stroke-width="0.07" />
<path d="M2.1350000000000007,3.697928474159553 A4.2700000000000005,4.2700000000000005,0,0,0,2.262755258275784,3.6211653705879403 L2.792674522508989,4.469213466744367 A5.2700000000000005,5.2700000000000005,0,0,1,2.6350000000000007,4.563953877943992 Z" fill="#d72938" stroke="black" stroke-width="0.07" />
<path d="M1.9052646619788818,3.8213697240406486 A4.2700000000000005,4.2700000000000005,0,0,0,2.0374679063085246,3.7525490710665945 L2.514626666568132,4.63136618372856 A5.2700000000000005,5.2700000000000005,0,0,1,2.35146247508869,4.716304085642674 Z" fill="#927199" stroke="black" stroke-width="0.07" />
<path d="M1.6340582561989345,3.9449656038231944 A4.2700000000000005,4.2700000000000005,0,0,0,1.7707401461421404,3.88553462664284 L2.1854333887983795,4.795495897519383 A5.2700000000000005,5.2700000000000005,0,0,1,2.0167416885640246,4.868845136334481 Z" fill="#ecc800" stroke="black" stroke-width="0.07" />
<path d="M1.3901760195320576,4.037364317809084 A4.2700000000000005,4.2700000000000005,0,0,0,1.5302311445584291,3.986388421143053 L1.8885990941037287,4.919968847640256 A5.2700000000000005,5.2700000000000005,0,0,1,1.7157441739892139,4.982882893408401 Z" fill="#877da9" stroke="black" stroke-width="0.07" />
<path d="M1.1411078658541565,4.114702035200821 A4.2700000000000005,4.2700000000000005,0,0,0,1.2840137638832443,4.07237137969493 L1.5847195633875168,5.026088330443157 A5.2700000000000005,5.2700000000000005,0,0,1,1.408346241932413,5.078332488409444 Z" fill="#b7dd32" stroke="black" stroke-width="0.07" />
<path d="M0.6679751657217851,4.217429214341239 A4.2700000000000005,4.2700000000000005,0,0,0,0.814754410257844,4.191548073321526 L1.0055634056343883,5.17317525676919 A5.2700000000000005,5.2700000000000005,0,0,1,0.8244096307620157,5.205117554936376 Z" fill="#79ac7e" stroke="black" stroke-width="0.07" />
<path d="M0.40926136326135293,4.250341767027854 A4.2700000000000005,4.2700000000000005,0,0,0,0.5573468407796226,4.2334695580661705 L0.6878730329996747,5.2249144194399815 A5.2700000000000005,5.2700000000000005,0,0,1,0.5051071157815761,5.245737965395033 Z" fill="#e11f2a" stroke="black" stroke-width="0.07" />
<path d="M0.14902085091968048,4.26739883137154 A4.2700000000000005,4.2700000000000005,0,0,0,0.2978601428874147,4.25959849460945 L0.36761661663153994,5.257162544869274 A5.2700000000000005,5.2700000000000005,0,0,1,0.18392034762218176,5.2667896583906355 Z" fill="#92719a" stroke="black" stroke-width="0.07" />
<path d="M-0.11177556927461978,4.26853677764563 A4.2700000000000005,4.2700000000000005,0,0,0,-0.037262306578055175,4.269837411484012 L-0.04598884207642875,5.269799334548183 A5.2700000000000005,5.2700000000000005,0,0,1,-0.13795251758249327,5.268194102621187 Z" fill="#f72700" stroke="black" stroke-width="0.07" />
<path d="M-0.37215502153250074,4.253751360851754 A4.2700000000000005,4.2700000000000005,0,0,0,-0.2234745331573722,4.2641481134020305 L-0.2758104894003165,5.262777648156605 A5.2700000000000005,5.2700000000000005,0,0,1,-0.459310764280159,5.249946058943499 Z" fill="#ff0000" stroke="black" stroke-width="0.07" />
<path d="M-0.6311461855234367,4.223097736555386 A4.2700000000000005,4.2700000000000005,0,0,0,-0.4833777227889627,4.242551823739029 L-0.5965809365568696,5.236123679415616 A5.2700000000000005,5.2700000000000005,0,0,1,-0.7789555966530473,5.212113599917302 Z" fill="#867ea9" stroke="black" stroke-width="0.07" />
<path d="M-0.8877829197918344,4.176690255133351 A4.2700000000000005,4.2700000000000005,0,0,0,-0.8147544102578492,4.191548073321525 L-1.0055634056343947,5.173175256769189 A5.2700000000000005,5.2700000000000005,0,0,1,-1.0956946106095942,5.1548378558671555 Z" fill="#7f85b3" stroke="black" stroke-width="0.07" />
<path d="M-1.1411078658541578,4.11470203520082 A4.2700000000000005,4.2700000000000005,0,0,0,-0.996811703664715,4.15201956009808 L-1.2302570675206201,5.124389480495757 A5.2700000000000005,5.2700000000000005,0,0,1,-1.4083462419324149,5.078332488409443 Z" fill="#d72938" stroke="black" stroke-width="0.07" />
<path d="M-1.6340582561989323,3.9449656038231953 A4.2700000000000005,4.2700000000000005,0,0,0,-1.4953855179779267,3.999590248090658 L-1.8455928992373944,4.936262437339056 A5.2700000000000005,5.2700000000000005,0,0,1,-2.016741688564022,4.868845136334482 Z" fill="#ff0000" stroke="black" stroke-width="0.07" />
<path d="M-1.871844796789362,3.8378505776974428 A4.2700000000000005,4.2700000000000005,0,0,0,-1.7367654659336667,3.9008391041339068 L-2.1435021090094666,4.8143845617765075 A5.2700000000000005,5.2700000000000005,0,0,1,-2.3102159435784397,4.736644623996609 Z" fill="#b74a65" stroke="black" stroke-width="0.07" />
<path d="M-2.0701370784518587,3.734626149485221 A4.2700000000000005,4.2700000000000005,0,0,0,-2.0701370784518587,3.734626149485221 L-2.5549466986981955,4.609245856624617 A5.2700000000000005,5.2700000000000005,0,1,1,-2.5549466986981955,4.609245856624617 Z" fill="#8a79a4" stroke="black" stroke-width="0.07" />
<path d="M-2.1671888098422065,3.6791565150853156 A4.2700000000000005,4.2700000000000005,0,0,0,-2.1671888098422065,3.6791565150853156 L-2.674727172802911,4.540785675526841 A5.2700000000000005,5.2700000000000005,0,1,1,-2.674727172802911,4.540785675526841 Z" fill="#c04058" stroke="black" stroke-width="0.07" />
<path d="M-2.5398932994282295,3.432468794835517 A4.2700000000000005,4.2700000000000005,0,0,0,-2.3567709272824895,3.560692460226808 L-2.908707912594548,4.394578282293976 A5.2700000000000005,5.2700000000000005,0,0,1,-3.134716086179571,4.236325655452735 Z" fill="#fb1500" stroke="black" stroke-width="0.07" />
<path d="M-2.7447030933615237,3.271009772118036 A4.2700000000000005,4.2700000000000005,0,0,0,-2.62887449964056,3.364805917900704 L-3.2445359749662184,4.152816671507426 A5.2700000000000005,5.2700000000000005,0,0,1,-3.3874907030480634,4.0370542152370135 Z" fill="#f2da00" stroke="black" stroke-width="0.07" />
<path d="M-2.93927403821233,3.0973485642224685 A4.2700000000000005,4.2700000000000005,0,0,0,-2.8293876058811995,3.1980409277690396 L-3.492007654096937,3.946996648558042 A5.2700000000000005,5.2700000000000005,0,0,1,-3.627628613906084,3.822722935234756 Z" fill="#7f86b4" stroke="black" stroke-width="0.07" />
<path d="M-3.173228404788474,2.857187689152325 A4.2700000000000005,4.2700000000000005,0,0,0,-3.1228803059138586,2.9121329974668684 L-3.8542340075330292,3.5941313575293665 A5.2700000000000005,5.2700000000000005,0,0,1,-3.916373230265868,3.5263182955111834 Z" fill="#fc0f00" stroke="black" stroke-width="0.07" />
<path d="M-3.3417368297598085,2.658137498442635 A4.2700000000000005,4.2700000000000005,0,0,0,-3.246933473112133,2.7731431663698842 L-4.007339438712164,3.4225912147000677 A5.2700000000000005,5.2700000000000005,0,0,1,-4.124344986612222,3.2806521350802544 Z" fill="#7fc359" stroke="black" stroke-width="0.07" />
<path d="M-3.497779229113996,2.449171383218966 A4.2700000000000005,4.2700000000000005,0,0,0,-3.410173627901942,2.5697501488592454 L-4.208809137949235,3.1715651720112934 A5.2700000000000005,5.2700000000000005,0,0,1,-4.3169312734029885,3.0227478195700117 Z" fill="#eecd00" stroke="black" stroke-width="0.07" />
<path d="M-3.7164188216633725,2.1026486016418042 A4.2700000000000005,4.2700000000000005,0,0,0,-3.6407735017919745,2.231068871337101 L-4.493413666146067,2.75356743605305 A5.2700000000000005,5.2700000000000005,0,0,1,-4.586774517603272,2.595072161745271 Z" fill="#8382ae" stroke="black" stroke-width="0.07" />
<path d="M-3.837850577697444,1.8718447967893592 A4.2700000000000005,4.2700000000000005,0,0,0,-3.7701862215076183,2.004643573095754 L-4.653133814366545,2.474115135881645 A5.2700000000000005,5.2700000000000005,0,0,1,-4.736644623996611,2.310215943578436 Z" fill="#ecc700" stroke="black" stroke-width="0.07" />
<path d="M-4.037364317809083,1.3901760195320596 A4.2700000000000005,4.2700000000000005,0,0,0,-3.986388421143052,1.5302311445584331 L-4.919968847640254,1.8885990941037334 A5.2700000000000005,5.2700000000000005,0,0,1,-4.9828828934084,1.7157441739892163 Z" fill="#e1a700" stroke="black" stroke-width="0.07" />
<path d="M-4.114702035200821,1.1411078658541567 A4.2700000000000005,4.2700000000000005,0,0,0,-4.072371379694929,1.284013763883246 L-5.026088330443156,1.5847195633875193 A5.2700000000000005,5.2700000000000005,0,0,1,-5.078332488409444,1.4083462419324133 Z" fill="#7aa883" stroke="black" stroke-width="0.07" />
<path d="M-4.198498455298087,0.7781456938514679 A4.2700000000000005,4.2700000000000005,0,0,0,-4.184278488730944,0.8513010799614295 L-5.164203193351773,1.0506690143786261 A5.2700000000000005,5.2700000000000005,0,0,1,-5.181753362862041,0.9603812193436149 Z" fill="#8381ae" stroke="black" stroke-width="0.07" />
<path d="M-4.2381720675084456,0.5203820963399809 A4.2700000000000005,4.2700000000000005,0,0,0,-4.217429214341239,0.6679751657217853 L-5.205117554936376,0.824409630762016 A5.2700000000000005,5.2700000000000005,0,0,1,-5.230718219149767,0.6422514397451287 Z" fill="#c3e329" stroke="black" stroke-width="0.07" />
<path d="M-4.26739883137154,0.14902085091967887 A4.2700000000000005,4.2700000000000005,0,0,0,-4.2641481134020305,0.22347453315736904 L-5.262777648156605,0.2758104894003126 A5.2700000000000005,5.2700000000000005,0,0,1,-5.2667896583906355,0.18392034762217976 Z" fill="#da2533" stroke="black" stroke-width="0.07" />
<path d="M-4.26853677764563,-0.11177556927461953 A4.2700000000000005,4.2700000000000005,0,0,0,-4.269837411484012,0.03726230657805576 L-5.269799334548183,0.04598884207642947 A5.2700000000000005,5.2700000000000005,0,0,1,-5.268194102621187,-0.13795251758249294 Z" fill="#eece00" stroke="black" stroke-width="0.07" />
<path d="M-4.250341767027854,-0.40926136326135615 A4.2700000000000005,4.2700000000000005,0,0,0,-4.256837015040457,-0.3350203387578985 L-5.253754348773585,-0.41347943448574354 A5.2700000000000005,5.2700000000000005,0,0,1,-5.245737965395033,-0.5051071157815801 Z" fill="#7dc25b" stroke="black" stroke-width="0.07" />
<path d="M-4.191548073321526,-0.8147544102578471 A4.2700000000000005,4.2700000000000005,0,0,0,-4.217429214341238,-0.6679751657217864 L-5.2051175549363755,-0.8244096307620173 A5.2700000000000005,5.2700000000000005,0,0,1,-5.1731752567691895,-1.005563405634392 Z" fill="#ecc700" stroke="black" stroke-width="0.07" />
<path d="M-4.13399042441452,-1.0691226173124646 A4.2700000000000005,4.2700000000000005,0,0,0,-4.168783950402116,-0.9241971515157007 L-5.145079957522048,-1.1406367654538039 A5.2700000000000005,5.2700000000000005,0,0,1,-5.102138064792628,-1.3195026213669059 Z" fill="#fe0000" stroke="black" stroke-width="0.07" />
<path d="M-4.061011324580306,-1.319502565981026 A4.2700000000000005,4.2700000000000005,0,0,0,-4.104587441656621,-1.1769715093385886 L-5.06584913759494,-1.4526088651555884 A5.2700000000000005,5.2700000000000005,0,0,1,-5.01206784087546,-1.6285195603559735 Z" fill="#ebc500" stroke="black" stroke-width="0.07" />
<path d="M-3.9728830152832453,-1.564960238112749 A4.2700000000000005,4.2700000000000005,0,0,0,-4.025079166963602,-1.425355288928203 L-4.9677206580557804,-1.7591621481619744 A5.2700000000000005,5.2700000000000005,0,0,1,-4.90330058326527,-1.931461464837046 Z" fill="#f8ea00" stroke="black" stroke-width="0.07" />
<path d="M-3.8540391641739054,-1.8382823833714201 A4.2700000000000005,4.2700000000000005,0,0,0,-3.9158465176244794,-1.7026585243108028 L-4.8329065920096035,-2.101407593236049 A5.2700000000000005,5.2700000000000005,0,0,1,-4.756624448523766,-2.268793480179715 Z" fill="#7ec35a" stroke="black" stroke-width="0.07" />
<path d="M-3.73462614948522,-2.07013707845186 A4.2700000000000005,4.2700000000000005,0,0,0,-3.804597858284331,-1.9385394338878652 L-4.695604382472698,-2.392529933627412 A5.2700000000000005,5.2700000000000005,0,0,1,-4.609245856624616,-2.5549466986981972 Z" fill="#ea151c" stroke="black" stroke-width="0.07" />
<path d="M-3.6012814736210226,-2.294269327640938 A4.2700000000000005,4.2700000000000005,0,0,0,-3.6791565150853147,-2.1671888098422083 L-4.54078567552684,-2.6747271728029127 A5.2700000000000005,5.2700000000000005,0,0,1,-4.444672919433908,-2.8315689359877614 Z" fill="#ff0000" stroke="black" stroke-width="0.07" />
<path d="M-3.364805917900703,-2.6288744996405615 A4.2700000000000005,4.2700000000000005,0,0,0,-3.4545025659810253,-2.509843027288861 L-4.263519560355973,-3.0976282795813344 A5.2700000000000005,5.2700000000000005,0,0,1,-4.152816671507424,-3.24453597496622 Z" fill="#91729a" stroke="black" stroke-width="0.07" />
<path d="M-3.1980409277690396,-2.829387605881199 A4.2700000000000005,4.2700000000000005,0,0,0,-3.2948369710655636,-2.716054000586053 L-4.066461554453284,-3.3521322208638176 A5.2700000000000005,5.2700000000000005,0,0,1,-3.946996648558042,-3.4920076540969363 Z" fill="#8282ae" stroke="black" stroke-width="0.07" />
<path d="M-2.8293876058812,-3.198040927769039 A4.2700000000000005,4.2700000000000005,0,0,0,-2.939274038212329,-3.0973485642224694 L-3.627628613906083,-3.8227229352347574 A5.2700000000000005,5.2700000000000005,0,0,1,-3.4920076540969376,-3.9469966485580414 Z" fill="#7c8bb2" stroke="black" stroke-width="0.07" />
<path d="M-2.628874499640561,-3.3648059179007035 A4.2700000000000005,4.2700000000000005,0,0,0,-2.7447030933615233,-3.2710097721180365 L-3.3874907030480625,-4.037054215237014 A5.2700000000000005,5.2700000000000005,0,0,1,-3.2445359749662193,-4.152816671507425 Z" fill="#8580ab" stroke="black" stroke-width="0.07" />
<path d="M-2.3256086795141657,-3.5811233251269607 A4.2700000000000005,4.2700000000000005,0,0,0,-2.3877536978200884,-3.5399904348100284 L-2.9469466012908354,-4.3690280073650705 A5.2700000000000005,5.2700000000000005,0,0,1,-2.870247714529193,-4.419793893072384 Z" fill="#7b9e94" stroke="black" stroke-width="0.07" />
<path d="M-2.1026486016418042,-3.716418821663372 A4.2700000000000005,4.2700000000000005,0,0,0,-2.2310688713371016,-3.6407735017919745 L-2.7535674360530504,-4.493413666146067 A5.2700000000000005,5.2700000000000005,0,0,1,-2.5950721617452714,-4.5867745176032715 Z" fill="#79b373" stroke="black" stroke-width="0.07" />
<path d="M-1.4953855179779265,-3.999590248090658 A4.2700000000000005,4.2700000000000005,0,0,0,-1.6340582561989334,-3.944965603823195 L-2.0167416885640232,-4.868845136334482 A5.2700000000000005,5.2700000000000005,0,0,1,-1.845592899237394,-4.936262437339056 Z" fill="#d12f40" stroke="black" stroke-width="0.07" />
<path d="M-1.2484271791660857,-4.083421307962162 A4.2700000000000005,4.2700000000000005,0,0,0,-1.390176019532058,-4.037364317809083 L-1.7157441739892145,-4.982882893408401 A5.2700000000000005,5.2700000000000005,0,0,1,-1.5407988838888222,-5.0397260639251975 Z" fill="#f62f00" stroke="black" stroke-width="0.07" />
<path d="M-0.9968117036647149,-4.15201956009808 A4.2700000000000005,4.2700000000000005,0,0,0,-1.141107865854157,-4.11470203520082 L-1.4083462419324138,-5.078332488409443 A5.2700000000000005,5.2700000000000005,0,0,1,-1.2302570675206201,-5.124389480495757 Z" fill="#8fca4e" stroke="black" stroke-width="0.07" />
<path d="M-0.5942691410994791,-4.228444653526506 A4.2700000000000005,4.2700000000000005,0,0,0,-0.7414777186377924,-4.205129105362129 L-0.9151258963047227,-5.189936858374336 A5.2700000000000005,5.2700000000000005,0,0,1,-0.7334422420595444,-5.2187127222680765 Z" fill="#e41b24" stroke="black" stroke-width="0.07" />
<path d="M-0.33502033875789766,-4.256837015040457 A4.2700000000000005,4.2700000000000005,0,0,0,-0.4833777227889617,-4.242551823739029 L-0.5965809365568684,-5.236123679415616 A5.2700000000000005,5.2700000000000005,0,0,1,-0.41347943448574254,-5.253754348773585 Z" fill="#ff0000" stroke="black" stroke-width="0.07" />
<path d="M0.11177556927461832,-4.26853677764563 A4.2700000000000005,4.2700000000000005,0,0,0,0.03726230657805654,-4.269837411484012 L0.04598884207643044,-5.269799334548183 A5.2700000000000005,5.2700000000000005,0,0,1,0.13795251758249144,-5.268194102621187 Z" fill="#b54c68" stroke="black" stroke-width="0.07" />
<path d="M0.3721550215325003,-4.253751360851754 A4.2700000000000005,4.2700000000000005,0,0,0,0.22347453315737076,-4.2641481134020305 L0.2758104894003147,-5.262777648156605 A5.2700000000000005,5.2700000000000005,0,0,1,0.45931076428015843,-5.249946058943499 Z" fill="#83c557" stroke="black" stroke-width="0.07" />
<path d="M0.8147544102578469,-4.191548073321526 A4.2700000000000005,4.2700000000000005,0,0,0,0.741477718637793,-4.205129105362129 L0.9151258963047234,-5.189936858374336 A5.2700000000000005,5.2700000000000005,0,0,1,1.0055634056343918,-5.1731752567691895 Z" fill="#7c8cb0" stroke="black" stroke-width="0.07" />
<path d="M1.0691226173124653,-4.13399042441452 A4.2700000000000005,4.2700000000000005,0,0,0,0.9241971515156995,-4.168783950402116 L1.1406367654538023,-5.145079957522049 A5.2700000000000005,5.2700000000000005,0,0,1,1.3195026213669068,-5.102138064792628 Z" fill="#ea6e00" stroke="black" stroke-width="0.07" />
<path d="M1.4253552889282028,-4.025079166963602 A4.2700000000000005,4.2700000000000005,0,0,0,1.3548908828497435,-4.049342007730472 L1.6721955392548356,-4.9976656629366705 A5.2700000000000005,5.2700000000000005,0,0,1,1.759162148161974,-4.9677206580557804 Z" fill="#877da8" stroke="black" stroke-width="0.07" />
<path d="M1.6684219186492,-3.9305557242419202 A4.2700000000000005,4.2700000000000005,0,0,0,1.5302311445584327,-3.986388421143052 L1.8885990941037332,-4.919968847640254 A5.2700000000000005,5.2700000000000005,0,0,1,2.059153047138474,-4.85106057769436 Z" fill="#877da8" stroke="black" stroke-width="0.07" />
<path d="M2.262755258275785,-3.6211653705879394 A4.2700000000000005,4.2700000000000005,0,0,0,2.1350000000000007,-3.697928474159553 L2.6350000000000007,-4.563953877943992 A5.2700000000000005,5.2700000000000005,0,0,1,2.79267452250899,-4.469213466744365 Z" fill="#e8bc00" stroke="black" stroke-width="0.07" />
<path d="M2.4796016208857137,-3.4762732633814832 A4.2700000000000005,4.2700000000000005,0,0,0,2.356770927282489,-3.560692460226808 L2.908707912594547,-4.394578282293976 A5.2700000000000005,5.2700000000000005,0,0,1,3.0603045765966534,-4.290388781737803 Z" fill="#eef70b" stroke="black" stroke-width="0.07" />
<path d="M2.8847701865188697,-3.14817422817923 A4.2700000000000005,4.2700000000000005,0,0,0,2.7731431663698842,-3.246933473112133 L3.4225912147000677,-4.007339438712164 A5.2700000000000005,5.2700000000000005,0,0,1,3.5603603941345296,-3.885451564989354 Z" fill="#b24f6c" stroke="black" stroke-width="0.07" />
<path d="M3.0715809474460407,-2.9661912418599186 A4.2700000000000005,4.2700000000000005,0,0,0,2.966191241859919,-3.0715809474460403 L3.6608496123189163,-3.7909207477846913 A5.2700000000000005,5.2700000000000005,0,0,1,3.7909207477846922,-3.660849612318916 Z" fill="#ebc500" stroke="black" stroke-width="0.07" />
<path d="M3.3648059179007035,-2.6288744996405606 A4.2700000000000005,4.2700000000000005,0,0,0,3.2710097721180365,-2.744703093361523 L4.037054215237014,-3.387490703048062 A5.2700000000000005,5.2700000000000005,0,0,1,4.152816671507425,-3.244535974966219 Z" fill="#96ce49" stroke="black" stroke-width="0.07" />
<path d="M3.5190188254160075,-2.4185546316690365 A4.2700000000000005,4.2700000000000005,0,0,0,3.4324687948355184,-2.5398932994282273 L4.2363256554527355,-3.134716086179569 A5.2700000000000005,5.2700000000000005,0,0,1,4.343145014038023,-2.9849608685938693 Z" fill="#7aa28e" stroke="black" stroke-width="0.07" />
<path d="M3.640773501791974,-2.2310688713371016 A4.2700000000000005,4.2700000000000005,0,0,0,3.640773501791974,-2.2310688713371016 L4.493413666146066,-2.7535674360530504 A5.2700000000000005,5.2700000000000005,0,1,1,4.493413666146066,-2.7535674360530504 Z" fill="#7aa983" stroke="black" stroke-width="0.07" />
<path d="M3.6979284741595535,-2.135 A4.2700000000000005,4.2700000000000005,0,0,0,3.6979284741595535,-2.135 L4.563953877943993,-2.635 A5.2700000000000005,5.2700000000000005,0,1,1,4.563953877943993,-2.635 Z" fill="#ff0000" stroke="black" stroke-width="0.07" />
<path d="M3.7525490710665927,-2.037467906308528 A4.2700000000000005,4.2700000000000005,0,0,0,3.7525490710665927,-2.037467906308528 L4.631366183728558,-2.5146266665681365 A5.2700000000000005,5.2700000000000005,0,1,1,4.631366183728558,-2.5146266665681365 Z" fill="#e39700" stroke="black" stroke-width="0.07" />
<path d="M3.8378505776974436,-1.8718447967893608 A4.2700000000000005,4.2700000000000005,0,0,0,3.8045978582843314,-1.9385394338878648 L4.695604382472699,-2.3925299336274115 A5.2700000000000005,5.2700000000000005,0,0,1,4.736644623996611,-2.310215943578438 Z" fill="#85c655" stroke="black" stroke-width="0.07" />
<path d="M3.9008391041339063,-1.7367654659336669 A4.2700000000000005,4.2700000000000005,0,0,0,3.9008391041339063,-1.7367654659336669 L4.814384561776507,-2.143502109009467 A5.2700000000000005,5.2700000000000005,0,1,1,4.814384561776507,-2.143502109009467 Z" fill="#82c557" stroke="black" stroke-width="0.07" />
<path d="M3.9728830152832453,-1.5649602381127494 A4.2700000000000005,4.2700000000000005,0,0,0,3.944965603823195,-1.6340582561989336 L4.868845136334482,-2.0167416885640232 A5.2700000000000005,5.2700000000000005,0,0,1,4.90330058326527,-1.9314614648370467 Z" fill="#8f749d" stroke="black" stroke-width="0.07" />
<path d="M4.168783950402116,-0.9241971515156994 A4.2700000000000005,4.2700000000000005,0,0,0,4.152019560098079,-0.9968117036647162 L5.124389480495756,-1.2302570675206215 A5.2700000000000005,5.2700000000000005,0,0,1,5.145079957522049,-1.1406367654538023 Z" fill="#e21d28" stroke="black" stroke-width="0.07" />
<path d="M4.217429214341239,-0.6679751657217858 A4.2700000000000005,4.2700000000000005,0,0,0,4.191548073321526,-0.8147544102578465 L5.1731752567691895,-1.0055634056343912 A5.2700000000000005,5.2700000000000005,0,0,1,5.205117554936376,-0.8244096307620168 Z" fill="#e31c26" stroke="black" stroke-width="0.07" />
<path d="M4.250341767027854,-0.4092613632613564 A4.2700000000000005,4.2700000000000005,0,0,0,4.2334695580661705,-0.5573468407796203 L5.2249144194399815,-0.6878730329996718 A5.2700000000000005,5.2700000000000005,0,0,1,5.245737965395033,-0.5051071157815804 Z" fill="#937098" stroke="black" stroke-width="0.07" />
<path d="M4.2700000000000005,-0.0 A4.2700000000000005,4.2700000000000005,0,0,0,4.26739883137154,-0.14902085091967915 L5.2667896583906355,-0.18392034762218012 A5.2700000000000005,5.2700000000000005,0,0,1,5.2700000000000005,-0.0 Z" fill="#cee821" stroke="black" stroke-width="0.07" />
<path d="M4.262035589261372,0.2606772638138389 A4.2700000000000005,4.2700000000000005,0,0,0,4.26853677764563,0.11177556927461836 L5.268194102621187,0.1379525175824915 A5.2700000000000005,5.2700000000000005,0,0,1,5.260170387683239,0.32172580334869577 Z" fill="#79af79" stroke="black" stroke-width="0.07" />
<path d="M4.198498455298087,0.7781456938514698 A4.2700000000000005,4.2700000000000005,0,0,0,4.223097736555386,0.6311461855234375 L5.212113599917302,0.778955596653048 A5.2700000000000005,5.2700000000000005,0,0,1,5.181753362862041,0.9603812193436173 Z" fill="#ff0000" stroke="black" stroke-width="0.07" />
<path d="M4.143162751198505,1.0330064942105812 A4.2700000000000005,4.2700000000000005,0,0,0,4.176690255133351,0.8877829197918323 L5.154837855867156,1.0956946106095917 A5.2700000000000005,5.2700000000000005,0,0,1,5.113458477474502,1.274928389810249 Z" fill="#f1d500" stroke="black" stroke-width="0.07" />
<path d="M4.012487490755829,1.4604260120006056 A4.2700000000000005,4.2700000000000005,0,0,0,4.061011324580306,1.3195025659810256 L5.01206784087546,1.628519560355973 A5.2700000000000005,5.2700000000000005,0,0,1,4.952180111541738,1.8024461553262743 Z" fill="#ff0000" stroke="black" stroke-width="0.07" />
<path d="M3.91584651762448,1.7026585243108014 A4.2700000000000005,4.2700000000000005,0,0,0,3.9728830152832453,1.5649602381127494 L4.90330058326527,1.9314614648370467 A5.2700000000000005,5.2700000000000005,0,0,1,4.832906592009604,2.1014075932360474 Z" fill="#7aa28d" stroke="black" stroke-width="0.07" />
</svg>