<?xml version="1.0" encoding="UTF-8"?>
<svg xmlns="http://www.w3.org/2000/svg" xmlns:xlink="http://www.w3.org/1999/xlink"
     width="600" height="600.0" viewBox="-7.0 -7.0 14 14">
<defs>
</defs>
<path d="M0.5000000000000001,0.8660254037844386 A1.0,1.0,0,1,0,0.4694715627858902,0.8829475928589272 L0.9389431255717804,1.7658951857178544 A2.0,2.0,0,1,1,1.0000000000000002,1.7320508075688772 Z" fill="red" stroke="black" stroke-width="0.07" />
<path d="M-1.6469424750380495,1.2867324834306249 A2.09,2.09,0,0,0,1.0450000000000002,1.8099930939094766 L1.5450000000000004,2.676018497693915 A3.09,3.09,0,0,1,-2.4349532286447717,1.9023939587562826 Z" fill="#897ba6" stroke="black" stroke-width="0.07" />
<path d="M-1.680060838689984,-1.243179624310303 A2.09,2.09,0,0,0,-1.6800608386899838,1.2431796243103037 L-2.483917699307201,1.838002411061645 A3.09,3.09,0,0,1,-2.4839176993072014,-1.8380024110616444 Z" fill="#83c557" stroke="black" stroke-width="0.07" />
<path d="M0.47014770357867763,-2.0364334354011415 A2.09,2.09,0,0,0,-1.6469424750380486,-1.286732483430626 L-2.4349532286447704,-1.9023939587562844 A3.09,3.09,0,0,1,0.6950987579225426,-3.010803500186377 Z" fill="#f1d600" stroke="black" stroke-width="0.07" />
<path d="M1.9932684270637941,-0.6284751209639308 A2.09,2.09,0,0,0,0.5232942084737827,-2.023428568390245 L0.7736742125282242,-2.9915762087683526 A3.09,3.09,0,0,1,2.946985377812021,-0.9291809204682039 Z" fill="#f53400" stroke="black" stroke-width="0.07" />
<path d="M1.6908455182436402,1.2284711772912689 A2.09,2.09,0,0,0,2.0090369445110863,-0.5760820736575282 L2.970298640449405,-0.8517194294745274 A3.09,3.09,0,0,1,2.4998625126185874,1.816256429583742 Z" fill="#ff0000" stroke="black" stroke-width="0.07" />
<path d="M0.49746159882793356,3.140848923092538 A3.18,3.18,0,0,0,1.5900000000000005,2.753960784034515 L2.0900000000000003,3.619986187818953 A4.18,4.18,0,0,1,0.6538960638681641,4.128537263687676 Z" fill="#9c668b" stroke="black" stroke-width="0.07" />
<path d="M-0.57950897106503,3.1267506060533754 A3.18,3.18,0,0,0,0.4150732912597658,3.152794659168717 L0.5455994834798179,4.144239520542527 A4.18,4.18,0,0,1,-0.7617444965571777,4.110005513617329 Z" fill="#8e759f" stroke="black" stroke-width="0.07" />
<path d="M-1.4929195696591326,2.807773345291388 A3.18,3.18,0,0,0,-0.6611591768004762,3.110509370333502 L-0.8690708676182358,4.088656971067307 A4.18,4.18,0,0,1,-1.9623911324450232,3.6907209381503145 Z" fill="#8480ac" stroke="black" stroke-width="0.07" />
<path d="M-2.188967550706138,2.3066904998190747 A3.18,3.18,0,0,0,-1.5659069211290257,2.767731113088881 L-2.0583304812324927,3.63808680902878 A4.18,4.18,0,0,1,-2.877322126399892,3.0320648708313622 Z" fill="#7c8bb3" stroke="black" stroke-width="0.07" />
<path d="M-2.9587278661828385,1.1654739009832642 A3.18,3.18,0,0,0,-2.556264816762751,1.891536461869266 L-3.3601216773799676,2.4863592486206074 A4.18,4.18,0,0,1,-3.889145434164863,1.531975127707561 Z" fill="#7aa589" stroke="black" stroke-width="0.07" />
<path d="M-3.1562967622194043,0.3875445120283698 A3.18,3.18,0,0,0,-2.988222534099189,1.0876240557756265 L-3.927915154885097,1.429644199101295 A4.18,4.18,0,0,1,-4.148842913860726,0.5094138554335175 Z" fill="#78b66e" stroke="black" stroke-width="0.07" />
<path d="M-3.165359910807629,-0.3047894930143121 A3.18,3.18,0,0,0,-3.1653599108076285,0.3047894930143127 L-4.160756109174807,0.4006352455345367 A4.18,4.18,0,0,1,-4.160756109174807,-0.40063524553453594 Z" fill="#83c557" stroke="black" stroke-width="0.07" />
<path d="M-3.0568121930838537,-0.876526791498059 A3.18,3.18,0,0,0,-3.1562967622194043,-0.3875445120283692 L-4.148842913860726,-0.5094138554335167 A4.18,4.18,0,0,1,-4.018073889022172,-1.1521641473150586 Z" fill="#a1d341" stroke="black" stroke-width="0.07" />
<path d="M-2.870221204232557,-1.3690252878503784 A3.18,3.18,0,0,0,-3.0328199033793615,-0.9562444424235893 L-3.986536854127588,-1.2569502419278624 A4.18,4.18,0,0,1,-3.7728064885824173,-1.7995363846586734 Z" fill="#bbdf2f" stroke="black" stroke-width="0.07" />
<path d="M-2.6363394807250327,-1.7782334330369753 A3.18,3.18,0,0,0,-2.83340074691901,-1.443689789171759 L-3.7244072711073772,-1.8976802889113058 A4.18,4.18,0,0,1,-3.465377053280074,-2.337426336507722 Z" fill="#d3ea1e" stroke="black" stroke-width="0.07" />
<path d="M-1.8691571022900644,-2.572674042112333 A3.18,3.18,0,0,0,-2.505874196469376,-1.9578034915355937 L-3.293884950076097,-2.573464966861252 A4.18,4.18,0,0,1,-2.4569423545825373,-3.3816910364872803 Z" fill="#fcfd02" stroke="black" stroke-width="0.07" />
<path d="M-1.1136594724051068,-2.9786175618099042 A3.18,3.18,0,0,0,-1.8011718334209679,-2.6207212798180106 L-2.3675780703458003,-3.4448474684400257 A4.18,4.18,0,0,1,-1.4638668536645743,-3.915289751058302 Z" fill="#f6e400" stroke="black" stroke-width="0.07" />
<path d="M-0.38754451202836865,-3.1562967622194043 A3.18,3.18,0,0,0,-1.0353067311737574,-3.0067490704058275 L-1.3608748856309139,-3.952267646005144 A4.18,4.18,0,0,1,-0.5094138554335159,-4.148842913860726 Z" fill="#edca00" stroke="black" stroke-width="0.07" />
<path d="M0.2494999244145471,-3.170197121271347 A3.18,3.18,0,0,0,-0.3047894930143122,-3.165359910807629 L-0.4006352455345361,-4.160756109174807 A4.18,4.18,0,0,1,0.3279590201423921,-4.167114455004475 Z" fill="#e6b400" stroke="black" stroke-width="0.07" />
<path d="M1.6139719942150395,-2.739980730204052 A3.18,3.18,0,0,0,0.796208412893124,-3.0787094964023827 L1.0465884169475654,-4.04685713678049 A4.18,4.18,0,0,1,2.1215103571757434,-3.601609890645577 Z" fill="#e97800" stroke="black" stroke-width="0.07" />
<path d="M2.2875005650769107,-2.209013618059611 A3.18,3.18,0,0,0,1.6851432602615917,-2.696792945777435 L2.215062524494796,-3.5448410419338603 A4.18,4.18,0,0,1,3.0068403654155618,-2.9036719885186084 Z" fill="#f24300" stroke="black" stroke-width="0.07" />
<path d="M2.7399807302040524,-1.613971994215039 A3.18,3.18,0,0,0,2.3445419310561944,-2.1483768602177995 L3.081819267866318,-2.8239670678334594 A4.18,4.18,0,0,1,3.6016098906455776,-2.121510357175743 Z" fill="#fb1400" stroke="black" stroke-width="0.07" />
<path d="M3.0067490704058275,-1.0353067311737583 A3.18,3.18,0,0,0,2.781290668703279,-1.5416945923833518 L3.655910375842674,-2.0265042126296886 A4.18,4.18,0,0,1,3.952267646005144,-1.3608748856309147 Z" fill="#ff0000" stroke="black" stroke-width="0.07" />
<path d="M3.172253679826241,-0.22182558650631848 A3.18,3.18,0,0,0,3.056812193083854,-0.8765267914980573 L4.0180738890221726,-1.1521641473150563 A4.18,4.18,0,0,1,4.169817730086065,-0.29158206025044375 Z" fill="#ff0000" stroke="black" stroke-width="0.07" />
<path d="M3.152794659168717,0.415073291259764 A3.18,3.18,0,0,0,3.176973344630308,-0.13870965182176848 L4.176021566212166,-0.18232903918710447 A4.18,4.18,0,0,1,4.144239520542527,0.5455994834798156 Z" fill="#ff0000" stroke="black" stroke-width="0.07" />
<path d="M3.0243597218185885,0.9826740421123328 A3.18,3.18,0,0,0,3.140848923092538,0.49746159882793417 L4.128537263687676,0.653896063868165 A4.18,4.18,0,0,1,3.9754162381137417,1.29169103648728 Z" fill="#ff0000" stroke="black" stroke-width="0.07" />
<path d="M2.820694449506745,1.468360590087408 A3.18,3.18,0,0,0,2.9975999416731276,1.0615058123633916 L3.9402414327653057,1.3953126715971622 A4.18,4.18,0,0,1,3.7077052826849664,1.9301092033224416 Z" fill="#fa0405" stroke="black" stroke-width="0.07" />
<path d="M1.7367654659336684,3.9008391041339054 A4.2700000000000005,4.2700000000000005,0,0,0,2.1350000000000007,3.697928474159553 L2.6350000000000007,4.563953877943992 A5.2700000000000005,5.2700000000000005,0,0,1,2.1435021090094692,4.814384561776507 Z" fill="#ab5676" stroke="black" stroke-width="0.07" />
<path d="M1.2840137638832443,4.07237137969493 A4.2700000000000005,4.2700000000000005,0,0,0,1.6340582561989345,3.9449656038231944 L2.0167416885640246,4.868845136334481 A5.2700000000000005,5.2700000000000005,0,0,1,1.5847195633875168,5.026088330443157 Z" fill="#9d6589" stroke="black" stroke-width="0.07" />
<path d="M0.8877829197918292,4.176690255133352 A4.2700000000000005,4.2700000000000005,0,0,0,1.1769715093385875,4.104587441656622 L1.4526088651555868,5.065849137594941 A5.2700000000000005,5.2700000000000005,0,0,1,1.0956946106095877,5.154837855867157 Z" fill="#966c94" stroke="black" stroke-width="0.07" />
<path d="M0.3350203387578953,4.256837015040458 A4.2700000000000005,4.2700000000000005,0,0,0,0.5573468407796226,4.2334695580661705 L0.6878730329996747,5.2249144194399815 A5.2700000000000005,5.2700000000000005,0,0,1,0.4134794344857396,5.253754348773586 Z" fill="#92719a" stroke="black" stroke-width="0.07" />
<path d="M0.07452177548719897,4.2693496583177915 A4.2700000000000005,4.2700000000000005,0,0,0,0.22347453315737068,4.2641481134020305 L0.2758104894003146,5.262777648156605 A5.2700000000000005,5.2700000000000005,0,0,1,0.0919741819244821,5.2691973534741825 Z" fill="#90739c" stroke="black" stroke-width="0.07" />
<path d="M-0.1862547840499853,4.265935906154533 A4.2700000000000005,4.2700000000000005,0,0,0,-0.037262306578055175,4.269837411484012 L-0.04598884207642875,5.269799334548183 A5.2700000000000005,5.2700000000000005,0,0,1,-0.22987417141532143,5.264984127736391 Z" fill="#8e759f" stroke="black" stroke-width="0.07" />
<path d="M-0.4463365381528799,4.246608493222528 A4.2700000000000005,4.2700000000000005,0,0,0,-0.29786014288741625,4.25959849460945 L-0.3676166166315418,5.257162544869274 A5.2700000000000005,5.2700000000000005,0,0,1,-0.5508650014205333,5.241130388590801 Z" fill="#8c77a1" stroke="black" stroke-width="0.07" />
<path d="M-0.7047532770250958,4.211439518563978 A4.2700000000000005,4.2700000000000005,0,0,0,-0.5573468407796205,4.2334695580661705 L-0.6878730329996722,5.2249144194399815 A5.2700000000000005,5.2700000000000005,0,0,1,-0.869800882885774,5.197725120101209 Z" fill="#8a79a4" stroke="black" stroke-width="0.07" />
<path d="M-1.1769715093385853,4.104587441656623 A4.2700000000000005,4.2700000000000005,0,0,0,-0.8877829197918344,4.176690255133351 L-1.0956946106095942,5.1548378558671555 A5.2700000000000005,5.2700000000000005,0,0,1,-1.4526088651555842,5.065849137594942 Z" fill="#877da8" stroke="black" stroke-width="0.07" />
<path d="M-1.4953855179779267,3.999590248090658 A4.2700000000000005,4.2700000000000005,0,0,0,-1.2840137638832492,4.072371379694928 L-1.584719563387523,5.026088330443155 A5.2700000000000005,5.2700000000000005,0,0,1,-1.8455928992373944,4.936262437339056 Z" fill="#8580ac" stroke="black" stroke-width="0.07" />
<path d="M-1.7367654659336667,3.9008391041339068 A4.2700000000000005,4.2700000000000005,0,0,0,-1.5995701538859457,3.9590750590001824 L-1.9741767473018579,4.886258913566969 A5.2700000000000005,5.2700000000000005,0,0,1,-2.1435021090094666,4.8143845617765075 Z" fill="#8282ae" stroke="black" stroke-width="0.07" />
<path d="M-1.971666578513597,3.787536257671006 A4.2700000000000005,4.2700000000000005,0,0,0,-1.8382823833714204,3.8540391641739054 L-2.2687934801797156,4.756624448523766 A5.2700000000000005,5.2700000000000005,0,0,1,-2.4334151917486313,4.674547090849227 Z" fill="#8184b1" stroke="black" stroke-width="0.07" />
<path d="M-2.2310688713371007,3.640773501791975 A4.2700000000000005,4.2700000000000005,0,0,0,-2.102648601641805,3.7164188216633716 L-2.5950721617452723,4.5867745176032715 A5.2700000000000005,5.2700000000000005,0,0,1,-2.753567436053049,4.4934136661460675 Z" fill="#7e86b4" stroke="black" stroke-width="0.07" />
<path d="M-2.4491713832189683,3.4977792291139944 A4.2700000000000005,4.2700000000000005,0,0,0,-2.3256086795141653,3.581123325126961 L-2.8702477145291923,4.419793893072385 A5.2700000000000005,5.2700000000000005,0,0,1,-3.022747819570015,4.316931273402986 Z" fill="#7d88b6" stroke="black" stroke-width="0.07" />
<path d="M-2.658137498442636,3.341736829759807 A4.2700000000000005,4.2700000000000005,0,0,0,-2.5398932994282295,3.432468794835517 L-3.134716086179571,4.236325655452735 A5.2700000000000005,5.2700000000000005,0,0,1,-3.2806521350802558,4.124344986612221 Z" fill="#7c8cb1" stroke="black" stroke-width="0.07" />
<path d="M-2.857187689152326,3.173228404788473 A4.2700000000000005,4.2700000000000005,0,0,0,-2.7447030933615237,3.271009772118036 L-3.3874907030480634,4.0370542152370135 A5.2700000000000005,5.2700000000000005,0,0,1,-3.5263182955111843,3.916373230265867 Z" fill="#7c90ab" stroke="black" stroke-width="0.07" />
<path d="M-3.0715809474460403,2.966191241859919 A4.2700000000000005,4.2700000000000005,0,0,0,-3.0193459556665587,3.019345955666558 L-3.7264527368531066,3.7264527368531053 A5.2700000000000005,5.2700000000000005,0,0,1,-3.7909207477846913,3.6608496123189163 Z" fill="#7b94a3" stroke="black" stroke-width="0.07" />
<path d="M-3.246933473112133,2.7731431663698842 A4.2700000000000005,4.2700000000000005,0,0,0,-3.1481742281792315,2.8847701865188675 L-3.885451564989356,3.5603603941345274 A5.2700000000000005,5.2700000000000005,0,0,1,-4.007339438712164,3.4225912147000677 Z" fill="#7b989e" stroke="black" stroke-width="0.07" />
<path d="M-3.5606924602268077,2.35677092728249 A4.2700000000000005,4.2700000000000005,0,0,0,-3.4324687948355175,2.5398932994282286 L-4.236325655452735,3.1347160861795698 A5.2700000000000005,5.2700000000000005,0,0,1,-4.394578282293976,2.9087079125945485 Z" fill="#7a9f93" stroke="black" stroke-width="0.07" />
<path d="M-3.697928474159553,2.1350000000000007 A4.2700000000000005,4.2700000000000005,0,0,0,-3.62116537058794,2.2627552582757846 L-4.469213466744366,2.7926745225089893 A5.2700000000000005,5.2700000000000005,0,0,1,-4.563953877943992,2.6350000000000007 Z" fill="#7aa38c" stroke="black" stroke-width="0.07" />
<path d="M-3.8213697240406477,1.9052646619788836 A4.2700000000000005,4.2700000000000005,0,0,0,-3.7525490710665927,2.037467906308528 L-4.631366183728558,2.5146266665681365 A5.2700000000000005,5.2700000000000005,0,0,1,-4.716304085642673,2.3514624750886925 Z" fill="#7aa786" stroke="black" stroke-width="0.07" />
<path d="M-3.9305557242419207,1.6684219186491982 A4.2700000000000005,4.2700000000000005,0,0,0,-3.869934250646496,1.804579977632786 L-4.776242037683146,2.2271982393734855 A5.2700000000000005,5.2700000000000005,0,0,1,-4.851060577694361,2.0591530471384716 Z" fill="#79aa80" stroke="black" stroke-width="0.07" />
<path d="M-4.061011324580306,1.3195025659810269 A4.2700000000000005,4.2700000000000005,0,0,0,-4.012487490755829,1.4604260120006054 L-4.952180111541738,1.802446155326274 A5.2700000000000005,5.2700000000000005,0,0,1,-5.01206784087546,1.6285195603559748 Z" fill="#79b078" stroke="black" stroke-width="0.07" />
<path d="M-4.13399042441452,1.0691226173124655 A4.2700000000000005,4.2700000000000005,0,0,0,-4.094160267887185,1.2127455218857486 L-5.052980002755379,1.496760866589671 A5.2700000000000005,5.2700000000000005,0,0,1,-5.102138064792628,1.319502621366907 Z" fill="#79b472" stroke="black" stroke-width="0.07" />
<path d="M-4.191548073321526,0.814754410257846 A4.2700000000000005,4.2700000000000005,0,0,0,-4.160560176632955,0.9605410020483035 L-5.13493024141819,1.1854920563921685 A5.2700000000000005,5.2700000000000005,0,0,1,-5.1731752567691895,1.0055634056343907 Z" fill="#78b76c" stroke="black" stroke-width="0.07" />
<path d="M-4.233469558066171,0.5573468407796192 A4.2700000000000005,4.2700000000000005,0,0,0,-4.211439518563979,0.7047532770250927 L-5.19772512010121,0.8698008828857702 A5.2700000000000005,5.2700000000000005,0,0,1,-5.2249144194399815,0.6878730329996705 Z" fill="#78bb66" stroke="black" stroke-width="0.07" />
<path d="M-4.265935906154533,0.18625478404998588 A4.2700000000000005,4.2700000000000005,0,0,0,-4.250341767027853,0.409261363261357 L-5.2457379653950325,0.5051071157815811 A5.2700000000000005,5.2700000000000005,0,0,1,-5.264984127736391,0.22987417141532215 Z" fill="#78c05e" stroke="black" stroke-width="0.07" />
<path d="M-4.2693496583177915,-0.07452177548720029 A4.2700000000000005,4.2700000000000005,0,0,0,-4.2693496583177915,0.07452177548719924 L-5.2691973534741825,0.09197418192448244 A5.2700000000000005,5.2700000000000005,0,0,1,-5.2691973534741825,-0.09197418192448373 Z" fill="#83c557" stroke="black" stroke-width="0.07" />
<path d="M-4.256837015040457,-0.3350203387578985 A4.2700000000000005,4.2700000000000005,0,0,0,-4.265935906154533,-0.18625478404998505 L-5.264984127736391,-0.2298741714153211 A5.2700000000000005,5.2700000000000005,0,0,1,-5.253754348773585,-0.41347943448574354 Z" fill="#8cc950" stroke="black" stroke-width="0.07" />
<path d="M-4.217429214341238,-0.6679751657217864 A4.2700000000000005,4.2700000000000005,0,0,0,-4.2381720675084456,-0.5203820963399801 L-5.230718219149767,-0.6422514397451277 A5.2700000000000005,5.2700000000000005,0,0,1,-5.2051175549363755,-0.8244096307620173 Z" fill="#98cf48" stroke="black" stroke-width="0.07" />
<path d="M-4.168783950402116,-0.9241971515157007 A4.2700000000000005,4.2700000000000005,0,0,0,-4.198498455298086,-0.7781456938514708 L-5.1817533628620405,-0.9603812193436185 A5.2700000000000005,5.2700000000000005,0,0,1,-5.145079957522048,-1.1406367654538039 Z" fill="#a1d341" stroke="black" stroke-width="0.07" />
<path d="M-4.025079166963602,-1.425355288928203 A4.2700000000000005,4.2700000000000005,0,0,0,-4.072371379694929,-1.2840137638832474 L-5.026088330443156,-1.5847195633875206 A5.2700000000000005,5.2700000000000005,0,0,1,-4.9677206580557804,-1.7591621481619744 Z" fill="#b3db34" stroke="black" stroke-width="0.07" />
<path d="M-3.93055572424192,-1.6684219186492009 A4.2700000000000005,4.2700000000000005,0,0,0,-3.986388421143052,-1.530231144558432 L-4.919968847640254,-1.8885990941037323 A5.2700000000000005,5.2700000000000005,0,0,1,-4.85106057769436,-2.059153047138475 Z" fill="#bde02e" stroke="black" stroke-width="0.07" />
<path d="M-3.770186221507618,-2.004643573095755 A4.2700000000000005,4.2700000000000005,0,0,0,-3.804597858284331,-1.9385394338878652 L-4.695604382472698,-2.392529933627412 A5.2700000000000005,5.2700000000000005,0,0,1,-4.653133814366544,-2.474115135881646 Z" fill="#cbe624" stroke="black" stroke-width="0.07" />
<path d="M-3.640773501791974,-2.231068871337102 A4.2700000000000005,4.2700000000000005,0,0,0,-3.716418821663372,-2.102648601641805 L-4.5867745176032715,-2.5950721617452723 A5.2700000000000005,5.2700000000000005,0,0,1,-4.493413666146066,-2.753567436053051 Z" fill="#d3ea1e" stroke="black" stroke-width="0.07" />
<path d="M-3.173228404788473,-2.8571876891523256 A4.2700000000000005,4.2700000000000005,0,0,0,-3.364805917900703,-2.6288744996405615 L-4.152816671507424,-3.24453597496622 A5.2700000000000005,5.2700000000000005,0,0,1,-3.916373230265867,-3.526318295511184 Z" fill="#ecf60d" stroke="black" stroke-width="0.07" />
<path d="M-2.939274038212329,-3.0973485642224694 A4.2700000000000005,4.2700000000000005,0,0,0,-3.0973485642224685,-2.9392740382123295 L-3.822722935234756,-3.6276286139060834 A5.2700000000000005,5.2700000000000005,0,0,1,-3.627628613906083,-3.8227229352347574 Z" fill="#f9fc03" stroke="black" stroke-width="0.07" />
<path d="M-2.7447030933615233,-3.2710097721180365 A4.2700000000000005,4.2700000000000005,0,0,0,-2.857187689152325,-3.173228404788474 L-3.5263182955111834,-3.916373230265868 A5.2700000000000005,5.2700000000000005,0,0,1,-3.3874907030480625,-4.037054215237014 Z" fill="#fdfb00" stroke="black" stroke-width="0.07" />
<path d="M-2.539893299428227,-3.432468794835519 A4.2700000000000005,4.2700000000000005,0,0,0,-2.658137498442635,-3.3417368297598085 L-3.2806521350802544,-4.124344986612222 A5.2700000000000005,5.2700000000000005,0,0,1,-3.134716086179568,-4.236325655452736 Z" fill="#fbf500" stroke="black" stroke-width="0.07" />
<path d="M-2.294269327640937,-3.601281473621023 A4.2700000000000005,4.2700000000000005,0,0,0,-2.4185546316690356,-3.519018825416008 L-2.984960868593868,-4.343145014038024 A5.2700000000000005,5.2700000000000005,0,0,1,-2.8315689359877605,-4.444672919433908 Z" fill="#f9ee00" stroke="black" stroke-width="0.07" />
<path d="M-2.070137078451859,-3.7346261494852206 A4.2700000000000005,4.2700000000000005,0,0,0,-2.199212579865932,-3.66010437399802 L-2.714250654775986,-4.517271674700132 A5.2700000000000005,5.2700000000000005,0,0,1,-2.5549466986981964,-4.609245856624616 Z" fill="#f7e800" stroke="black" stroke-width="0.07" />
<path d="M-1.8382823833714215,-3.854039164173905 A4.2700000000000005,4.2700000000000005,0,0,0,-1.9716665785135943,-3.7875362576710074 L-2.433415191748628,-4.674547090849229 A5.2700000000000005,5.2700000000000005,0,0,1,-2.268793480179717,-4.756624448523765 Z" fill="#f5e200" stroke="black" stroke-width="0.07" />
<path d="M-1.5995701538859448,-3.959075059000183 A4.2700000000000005,4.2700000000000005,0,0,0,-1.7367654659336664,-3.9008391041339068 L-2.1435021090094666,-4.8143845617765075 A5.2700000000000005,5.2700000000000005,0,0,1,-1.9741767473018568,-4.88625891356697 Z" fill="#f3dc00" stroke="black" stroke-width="0.07" />
<path d="M-1.2484271791660857,-4.083421307962162 A4.2700000000000005,4.2700000000000005,0,0,0,-1.390176019532058,-4.037364317809083 L-1.7157441739892145,-4.982882893408401 A5.2700000000000005,5.2700000000000005,0,0,1,-1.5407988838888222,-5.0397260639251975 Z" fill="#f0d300" stroke="black" stroke-width="0.07" />
<path d="M-0.9968117036647149,-4.15201956009808 A4.2700000000000005,4.2700000000000005,0,0,0,-1.141107865854157,-4.11470203520082 L-1.4083462419324138,-5.078332488409443 A5.2700000000000005,5.2700000000000005,0,0,1,-1.2302570675206201,-5.124389480495757 Z" fill="#eecd00" stroke="black" stroke-width="0.07" />
<path d="M-0.7414777186377924,-4.205129105362129 A4.2700000000000005,4.2700000000000005,0,0,0,-0.8877829197918315,-4.176690255133351 L-1.0956946106095906,-5.154837855867156 A5.2700000000000005,5.2700000000000005,0,0,1,-0.9151258963047227,-5.189936858374336 Z" fill="#ecc700" stroke="black" stroke-width="0.07" />
<path d="M-0.26067726381383943,-4.262035589261372 A4.2700000000000005,4.2700000000000005,0,0,0,-0.4092613632613563,-4.250341767027854 L-0.5051071157815803,-5.245737965395033 A5.2700000000000005,5.2700000000000005,0,0,1,-0.32172580334869644,-5.260170387683239 Z" fill="#e8bb00" stroke="black" stroke-width="0.07" />
<path d="M2.6146209161795996e-16,-4.2700000000000005 A4.2700000000000005,4.2700000000000005,0,0,0,-0.14902085091967815,-4.26739883137154 L-0.18392034762217888,-5.2667896583906355 A5.2700000000000005,5.2700000000000005,0,0,1,3.226944315753276e-16,-5.2700000000000005 Z" fill="#e6b500" stroke="black" stroke-width="0.07" />
<path d="M0.26067726381383904,-4.262035589261372 A4.2700000000000005,4.2700000000000005,0,0,0,0.11177556927461832,-4.26853677764563 L0.13795251758249144,-5.268194102621187 A5.2700000000000005,5.2700000000000005,0,0,1,0.32172580334869594,-5.260170387683239 Z" fill="#e4af00" stroke="black" stroke-width="0.07" />
<path d="M0.5203820963399799,-4.2381720675084456 A4.2700000000000005,4.2700000000000005,0,0,0,0.4463365381528803,-4.246608493222527 L0.5508650014205337,-5.2411303885908005 A5.2700000000000005,5.2700000000000005,0,0,1,0.6422514397451273,-5.230718219149767 Z" fill="#e2a800" stroke="black" stroke-width="0.07" />
<path d="M0.7781456938514697,-4.198498455298087 A4.2700000000000005,4.2700000000000005,0,0,0,0.631146185523438,-4.223097736555386 L0.7789555966530488,-5.212113599917302 A5.2700000000000005,5.2700000000000005,0,0,1,0.9603812193436171,-5.181753362862041 Z" fill="#e1a200" stroke="black" stroke-width="0.07" />
<path d="M1.3548908828497435,-4.049342007730472 A4.2700000000000005,4.2700000000000005,0,0,0,1.0691226173124653,-4.13399042441452 L1.3195026213669068,-5.102138064792628 A5.2700000000000005,5.2700000000000005,0,0,1,1.6721955392548356,-4.9976656629366705 Z" fill="#e58b00" stroke="black" stroke-width="0.07" />
<path d="M1.6684219186492,-3.9305557242419202 A4.2700000000000005,4.2700000000000005,0,0,0,1.460426012000606,-4.012487490755829 L1.802446155326275,-4.952180111541737 A5.2700000000000005,5.2700000000000005,0,0,1,2.059153047138474,-4.85106057769436 Z" fill="#e87b00" stroke="black" stroke-width="0.07" />
<path d="M1.9052646619788833,-3.8213697240406477 A4.2700000000000005,4.2700000000000005,0,0,0,1.7707401461421404,-3.88553462664284 L2.1854333887983795,-4.795495897519383 A5.2700000000000005,5.2700000000000005,0,0,1,2.351462475088692,-4.716304085642673 Z" fill="#ea6e00" stroke="black" stroke-width="0.07" />
<path d="M2.1350000000000007,-3.697928474159553 A4.2700000000000005,4.2700000000000005,0,0,0,2.004643573095754,-3.7701862215076183 L2.474115135881645,-4.653133814366545 A5.2700000000000005,5.2700000000000005,0,0,1,2.6350000000000007,-4.563953877943992 Z" fill="#ec6300" stroke="black" stroke-width="0.07" />
<path d="M2.3877536978200893,-3.5399904348100284 A4.2700000000000005,4.2700000000000005,0,0,0,2.262755258275785,-3.6211653705879394 L2.79267452250899,-4.469213466744365 A5.2700000000000005,5.2700000000000005,0,0,1,2.946946601290836,-4.3690280073650705 Z" fill="#ef5600" stroke="black" stroke-width="0.07" />
<path d="M2.5994113018672373,-3.3876187630435743 A4.2700000000000005,4.2700000000000005,0,0,0,2.4796016208857137,-3.4762732633814832 L3.0603045765966534,-4.290388781737803 A5.2700000000000005,5.2700000000000005,0,0,1,3.2081727308759582,-4.18097210333481 Z" fill="#f14b00" stroke="black" stroke-width="0.07" />
<path d="M2.8013720537894664,-3.2226099075512367 A4.2700000000000005,4.2700000000000005,0,0,0,2.6871980697828066,-3.3184132554212655 L3.316518460832644,-4.095559216878236 A5.2700000000000005,5.2700000000000005,0,0,1,3.4574310827799737,-3.977319487774009 Z" fill="#f34000" stroke="black" stroke-width="0.07" />
<path d="M2.9928825585603636,-3.0455794178883555 A4.2700000000000005,4.2700000000000005,0,0,0,2.8847701865188697,-3.14817422817923 L3.5603603941345296,-3.885451564989354 A5.2700000000000005,5.2700000000000005,0,0,1,3.6937918228602147,-3.7588298670425373 Z" fill="#f53400" stroke="black" stroke-width="0.07" />
<path d="M3.2469334731121324,-2.7731431663698847 A4.2700000000000005,4.2700000000000005,0,0,0,3.1481742281792298,-2.8847701865188697 L3.8854515649893537,-3.5603603941345296 A5.2700000000000005,5.2700000000000005,0,0,1,4.0073394387121635,-3.422591214700068 Z" fill="#f82400" stroke="black" stroke-width="0.07" />
<path d="M3.4101736279019406,-2.5697501488592462 A4.2700000000000005,4.2700000000000005,0,0,0,3.318413255421266,-2.6871980697828057 L4.095559216878237,-3.3165184608326435 A5.2700000000000005,5.2700000000000005,0,0,1,4.208809137949234,-3.1715651720112947 Z" fill="#fa1900" stroke="black" stroke-width="0.07" />
<path d="M3.5606924602268086,-2.3567709272824886 A4.2700000000000005,4.2700000000000005,0,0,0,3.4762732633814837,-2.4796016208857132 L4.290388781737803,-3.060304576596653 A5.2700000000000005,5.2700000000000005,0,0,1,4.394578282293977,-2.9087079125945468 Z" fill="#fc0e00" stroke="black" stroke-width="0.07" />
<path d="M3.7701862215076187,-2.004643573095754 A4.2700000000000005,4.2700000000000005,0,0,0,3.73462614948522,-2.0701370784518596 L4.609245856624616,-2.5549466986981964 A5.2700000000000005,5.2700000000000005,0,0,1,4.653133814366545,-2.474115135881645 Z" fill="#ff0000" stroke="black" stroke-width="0.07" />
<path d="M3.88553462664284,-1.7707401461421408 A4.2700000000000005,4.2700000000000005,0,0,0,3.8213697240406477,-1.9052646619788836 L4.716304085642673,-2.3514624750886925 A5.2700000000000005,5.2700000000000005,0,0,1,4.795495897519383,-2.18543338879838 Z" fill="#ff0000" stroke="black" stroke-width="0.07" />
<path d="M3.986388421143052,-1.5302311445584322 A4.2700000000000005,4.2700000000000005,0,0,0,3.9305557242419207,-1.6684219186491989 L4.851060577694361,-2.0591530471384725 A5.2700000000000005,5.2700000000000005,0,0,1,4.919968847640254,-1.8885990941037325 Z" fill="#ff0000" stroke="black" stroke-width="0.07" />
<path d="M4.160560176632955,-0.9605410020483036 A4.2700000000000005,4.2700000000000005,0,0,0,4.104587441656622,-1.1769715093385866 L5.065849137594941,-1.4526088651555857 A5.2700000000000005,5.2700000000000005,0,0,1,5.13493024141819,-1.1854920563921687 Z" fill="#ff0000" stroke="black" stroke-width="0.07" />
<path d="M4.211439518563979,-0.7047532770250935 A4.2700000000000005,4.2700000000000005,0,0,0,4.184278488730943,-0.851301079961432 L5.1642031933517725,-1.050669014378629 A5.2700000000000005,5.2700000000000005,0,0,1,5.19772512010121,-0.8698008828857712 Z" fill="#ff0000" stroke="black" stroke-width="0.07" />
<path d="M4.246608493222527,-0.4463365381528803 A4.2700000000000005,4.2700000000000005,0,0,0,4.228444653526506,-0.5942691410994795 L5.2187127222680765,-0.7334422420595449 A5.2700000000000005,5.2700000000000005,0,0,1,5.2411303885908005,-0.5508650014205337 Z" fill="#ff0000" stroke="black" stroke-width="0.07" />
<path d="M4.269837411484012,-0.0372623065780567 A4.2700000000000005,4.2700000000000005,0,0,0,4.265935906154533,-0.18625478404998475 L5.264984127736391,-0.22987417141532074 A5.2700000000000005,5.2700000000000005,0,0,1,5.269799334548183,-0.04598884207643064 Z" fill="#ff0000" stroke="black" stroke-width="0.07" />
<path d="M4.2641481134020305,0.22347453315737018 A4.2700000000000005,4.2700000000000005,0,0,0,4.2693496583177915,0.0745217754872006 L5.2691973534741825,0.09197418192448412 A5.2700000000000005,5.2700000000000005,0,0,1,5.262777648156605,0.275810489400314 Z" fill="#ff0000" stroke="black" stroke-width="0.07" />
<path d="M4.242551823739029,0.48337772278896174 A4.2700000000000005,4.2700000000000005,0,0,0,4.256837015040457,0.33502033875789794 L5.253754348773585,0.41347943448574287 A5.2700000000000005,5.2700000000000005,0,0,1,5.236123679415616,0.5965809365568685 Z" fill="#ff0000" stroke="black" stroke-width="0.07" />
<path d="M4.205129105362129,0.7414777186377925 A4.2700000000000005,4.2700000000000005,0,0,0,4.217429214341239,0.6679751657217858 L5.205117554936376,0.8244096307620168 A5.2700000000000005,5.2700000000000005,0,0,1,5.189936858374336,0.915125896304723 Z" fill="#ff0000" stroke="black" stroke-width="0.07" />
<path d="M4.152019560098079,0.9968117036647162 A4.2700000000000005,4.2700000000000005,0,0,0,4.184278488730943,0.851301079961432 L5.1642031933517725,1.050669014378629 A5.2700000000000005,5.2700000000000005,0,0,1,5.124389480495756,1.2302570675206215 Z" fill="#ff0000" stroke="black" stroke-width="0.07" />
<path d="M4.083421307962162,1.2484271791660861 A4.2700000000000005,4.2700000000000005,0,0,0,4.1245032782543225,1.1051573225877638 L5.09042910454339,1.3639763676902845 A5.2700000000000005,5.2700000000000005,0,0,1,5.0397260639251975,1.540798883888823 Z" fill="#ff0000" stroke="black" stroke-width="0.07" />
<path d="M3.9995902480906587,1.4953855179779258 A4.2700000000000005,4.2700000000000005,0,0,0,4.025079166963602,1.425355288928202 L4.9677206580557804,1.7591621481619728 A5.2700000000000005,5.2700000000000005,0,0,1,4.936262437339056,1.8455928992373933 Z" fill="#ff0000" stroke="black" stroke-width="0.07" />
<path d="M3.9008391041339063,1.7367654659336669 A4.2700000000000005,4.2700000000000005,0,0,0,3.959075059000183,1.5995701538859444 L4.88625891356697,1.9741767473018565 A5.2700000000000005,5.2700000000000005,0,0,1,4.814384561776507,2.143502109009467 Z" fill="#fb0304" stroke="black" stroke-width="0.07" />
</svg>