<?xml version="1.0" encoding="UTF-8"?>
<svg xmlns="http://www.w3.org/2000/svg" xmlns:xlink="http://www.w3.org/1999/xlink"
     width="600" height="600.0" viewBox="-7.0 -7.0 14 14">
<defs>
</defs>
<path d="M0.6427876096865393,0.7660444431189781 A1.0,1.0,0,1,0,0.615661475325659,0.7880107536067213 L1.231322950651318,1.5760215072134427 A2.0,2.0,0,1,1,1.2855752193730785,1.5320888862379562 Z" fill="#8f749d" stroke="black" stroke-width="0.07" />
<path d="M-1.398482967290014,1.5531726852477534 A2.09,2.09,0,0,0,1.343426104244867,1.6010328861186642 L1.9862137139314062,2.367077329237642 A3.09,3.09,0,0,1,-2.0676135736488725,2.2963175107251472 Z" fill="#7b95a3" stroke="black" stroke-width="0.07" />
<path d="M-1.870412815748232,-0.9325534293995007 A2.09,2.09,0,0,0,-1.438661063199946,1.5160324354156811 L-2.1270156388937,2.241406806427969 A3.09,3.09,0,0,1,-2.765347177350257,-1.3787512425093098 Z" fill="#ff0000" stroke="black" stroke-width="0.07" />
<path d="M0.10938214854775288,-2.087135727637059 A2.09,2.09,0,0,0,-1.8453604690751568,-0.9811955662225122 L-2.7283080619340834,-1.4506671290084034 A3.09,3.09,0,0,1,0.16171810479069684,-3.085765262391633 Z" fill="#aed938" stroke="black" stroke-width="0.07" />
<path d="M1.8538526413424832,-0.9650546016612208 A2.09,2.09,0,0,0,0.16397951007119604,-2.0835572275022374 L0.24243860579904103,-3.0804745612353654 A3.09,3.09,0,0,1,2.740863474520705,-1.4268032148962546 Z" fill="#7f85b3" stroke="black" stroke-width="0.07" />
<path d="M1.878479556765259,0.9161956967891717 A2.09,2.09,0,0,0,1.878479556765259,-0.9161956967891717 L2.777273603064426,-1.3545668435782492 A3.09,3.09,0,0,1,2.777273603064426,1.3545668435782492 Z" fill="#e1a400" stroke="black" stroke-width="0.07" />
<path d="M1.0353067311737572,3.006749070405828 A3.18,3.18,0,0,0,2.044064598803195,2.4360213291183506 L2.686852208489734,3.2020657722373285 A4.18,4.18,0,0,1,1.3608748856309132,3.9522676460051445 Z" fill="#fe0300" stroke="black" stroke-width="0.07" />
<path d="M-0.027750382884827972,3.179878915344065 A3.18,3.18,0,0,0,0.956244442423587,3.0328199033793624 L1.2569502419278595,3.9865368541275887 A4.18,4.18,0,0,1,-0.036476918383201544,4.179840838408236 Z" fill="#956d95" stroke="black" stroke-width="0.07" />
<path d="M-0.9826740421123333,3.0243597218185885 A3.18,3.18,0,0,0,-0.11098039951395525,3.1780628299207243 L-0.1458798962164569,4.17745365693982 A4.18,4.18,0,0,1,-1.2916910364872807,3.9754162381137417 Z" fill="#b24f6c" stroke="black" stroke-width="0.07" />
<path d="M-1.7551596132923457,2.651756914173595 A3.18,3.18,0,0,0,-1.0615058123633925,2.997599941673127 L-1.3953126715971638,3.9402414327653053 A4.18,4.18,0,0,1,-2.307096598604404,3.4856427362407625 Z" fill="#cf3143" stroke="black" stroke-width="0.07" />
<path d="M-2.84589126989444,1.418909045689192 A3.18,3.18,0,0,0,-2.188967550706138,2.3066904998190747 L-2.877322126399892,3.0320648708313622 A4.18,4.18,0,0,1,-3.7408256314964645,1.8651068587990005 Z" fill="#bade30" stroke="black" stroke-width="0.07" />
<path d="M-3.1562967622194043,0.3875445120283698 A3.18,3.18,0,0,0,-2.8820587627765475,1.3439260723354238 L-3.788366549813197,1.7665443340761229 A4.18,4.18,0,0,1,-4.148842913860726,0.5094138554335175 Z" fill="#8085b2" stroke="black" stroke-width="0.07" />
<path d="M-3.1267506060533754,-0.5795089710650297 A3.18,3.18,0,0,0,-3.1653599108076285,0.3047894930143127 L-4.160756109174807,0.4006352455345367 A4.18,4.18,0,0,1,-4.110005513617329,-0.7617444965571775 Z" fill="#7e86b4" stroke="black" stroke-width="0.07" />
<path d="M-2.858165067231351,-1.394020246789266 A3.18,3.18,0,0,0,-3.110509370333502,-0.6611591768004746 L-4.088656971067308,-0.8690708676182338 A4.18,4.18,0,0,1,-3.756959113530518,-1.832391393578343 Z" fill="#7aa48a" stroke="black" stroke-width="0.07" />
<path d="M-2.325704771148962,-2.1687547849987454 A3.18,3.18,0,0,0,-2.807773345291387,-1.4929195696591337 L-3.6907209381503137,-1.9623911324450245 A4.18,4.18,0,0,1,-3.0570584727681323,-2.850753145061244 Z" fill="#e1a600" stroke="black" stroke-width="0.07" />
<path d="M-1.708612754542899,-2.681984797684977 A3.18,3.18,0,0,0,-2.268136428310297,-2.2288914604735264 L-2.981386877464478,-2.929800724773377 A4.18,4.18,0,0,1,-2.2459123628897224,-3.5253762434978624 Z" fill="#ff0000" stroke="black" stroke-width="0.07" />
<path d="M-1.0876240557756265,-2.988222534099189 A3.18,3.18,0,0,0,-1.6378210782139726,-2.725792016232717 L-2.1528591531240266,-3.5829593169348293 A4.18,4.18,0,0,1,-1.4296441991012951,-3.927915154885097 Z" fill="#e61822" stroke="black" stroke-width="0.07" />
<path d="M-0.5248513866369552,-3.136388212888396 A3.18,3.18,0,0,0,-1.0090288073681926,-3.0156692235557143 L-1.3263334637732844,-3.963992878761913 A4.18,4.18,0,0,1,-0.6898989924976328,-4.122673814425627 Z" fill="#7aa982" stroke="black" stroke-width="0.07" />
<path d="M1.9471884106442917e-16,-3.18 A3.18,3.18,0,0,0,-0.44257046105300785,-3.149052458598194 L-0.5817435620130731,-4.1393205273397635 A4.18,4.18,0,0,1,2.559511810217968e-16,-4.18 Z" fill="#e1a300" stroke="black" stroke-width="0.07" />
<path d="M0.9031687961584737,-3.049046756880854 A3.18,3.18,0,0,0,0.2494999244145471,-3.170197121271347 L0.3279590201423921,-4.167114455004475 A4.18,4.18,0,0,1,1.1871841408623962,-4.007866491749047 Z" fill="#f7070a" stroke="black" stroke-width="0.07" />
<path d="M1.492919569659133,-2.8077733452913876 A3.18,3.18,0,0,0,0.9826740421123329,-3.0243597218185885 L1.2916910364872802,-3.9754162381137417 A4.18,4.18,0,0,1,1.9623911324450236,-3.690720938150314 Z" fill="#8a7aa5" stroke="black" stroke-width="0.07" />
<path d="M1.9795965445076305,-2.488693938790676 A3.18,3.18,0,0,0,1.5659069211290255,-2.7677311130888813 L2.0583304812324923,-3.6380868090287803 A4.18,4.18,0,0,1,2.6021111811452498,-3.2713020956430894 Z" fill="#f14700" stroke="black" stroke-width="0.07" />
<path d="M2.3632005450181137,-2.1278353282211695 A3.18,3.18,0,0,0,2.044064598803195,-2.43602132911835 L2.6868522084897344,-3.202065772237328 A4.18,4.18,0,0,1,3.1063453704955077,-2.7969659345800273 Z" fill="#ff0000" stroke="black" stroke-width="0.07" />
<path d="M2.6517569141735953,-1.755159613292345 A3.18,3.18,0,0,0,2.4180909706080986,-2.0652447936899843 L3.1784969362081292,-2.7146928420201677 A4.18,4.18,0,0,1,3.485642736240763,-2.307096598604403 Z" fill="#cd3346" stroke="black" stroke-width="0.07" />
<path d="M3.098496806017048,-0.7153443528134907 A3.18,3.18,0,0,0,2.858165067231351,-1.3940202467892662 L3.756959113530518,-1.8323913935783434 A4.18,4.18,0,0,1,4.072866870802283,-0.9402954071573556 Z" fill="#986a90" stroke="black" stroke-width="0.07" />
<path d="M3.179878915344065,-0.027750382884829113 A3.18,3.18,0,0,0,3.1161605606942384,-0.633990031446687 L4.096085265315067,-0.8333579658638841 A4.18,4.18,0,0,1,4.179840838408236,-0.03647691838320304 Z" fill="#f0d300" stroke="black" stroke-width="0.07" />
<path d="M3.131688654578822,0.5522012049808385 A3.18,3.18,0,0,0,3.179515670597324,0.05549865247056157 L4.179363365753715,0.07295105890784508 A4.18,4.18,0,0,1,4.116496407591029,0.7258493826477688 Z" fill="#d4eb1d" stroke="black" stroke-width="0.07" />
<path d="M2.9975999416731276,1.0615058123633916 A3.18,3.18,0,0,0,3.1161605606942384,0.633990031446687 L4.096085265315067,0.8333579658638841 A4.18,4.18,0,0,1,3.9402414327653057,1.3953126715971622 Z" fill="#e4b000" stroke="black" stroke-width="0.07" />
<path d="M2.3877536978200866,3.53999043481003 A4.2700000000000005,4.2700000000000005,0,0,0,2.744703093361523,3.271009772118037 L3.387490703048062,4.037054215237015 A5.2700000000000005,5.2700000000000005,0,0,1,2.9469466012908327,4.369028007365072 Z" fill="#91729b" stroke="black" stroke-width="0.07" />
<path d="M1.971666578513592,3.7875362576710088 A4.2700000000000005,4.2700000000000005,0,0,0,2.2942693276409383,3.6012814736210226 L2.8315689359877623,4.444672919433908 A5.2700000000000005,5.2700000000000005,0,0,1,2.4334151917486255,4.674547090849231 Z" fill="#fefd00" stroke="black" stroke-width="0.07" />
<path d="M1.5995701538859441,3.959075059000183 A4.2700000000000005,4.2700000000000005,0,0,0,1.8718447967893608,3.8378505776974436 L2.310215943578438,4.736644623996611 A5.2700000000000005,5.2700000000000005,0,0,1,1.974176747301856,4.88625891356697 Z" fill="#966c94" stroke="black" stroke-width="0.07" />
<path d="M1.069122617312465,4.13399042441452 A4.2700000000000005,4.2700000000000005,0,0,0,1.2840137638832443,4.07237137969493 L1.5847195633875168,5.026088330443157 A5.2700000000000005,5.2700000000000005,0,0,1,1.3195026213669065,5.102138064792628 Z" fill="#8c78a2" stroke="black" stroke-width="0.07" />
<path d="M0.814754410257844,4.191548073321526 A4.2700000000000005,4.2700000000000005,0,0,0,0.9605410020483033,4.160560176632955 L1.1854920563921683,5.13493024141819 A5.2700000000000005,5.2700000000000005,0,0,1,1.0055634056343883,5.17317525676919 Z" fill="#7b979f" stroke="black" stroke-width="0.07" />
<path d="M0.5573468407796226,4.2334695580661705 A4.2700000000000005,4.2700000000000005,0,0,0,0.7047532770250943,4.211439518563978 L0.8698008828857721,5.197725120101209 A5.2700000000000005,5.2700000000000005,0,0,1,0.6878730329996747,5.2249144194399815 Z" fill="#ec6700" stroke="black" stroke-width="0.07" />
<path d="M0.2978601428874147,4.25959849460945 A4.2700000000000005,4.2700000000000005,0,0,0,0.44633653815287827,4.246608493222528 L0.5508650014205313,5.241130388590801 A5.2700000000000005,5.2700000000000005,0,0,1,0.36761661663153994,5.257162544869274 Z" fill="#fa1800" stroke="black" stroke-width="0.07" />
<path d="M0.037262306578057396,4.269837411484012 A4.2700000000000005,4.2700000000000005,0,0,0,0.18625478404998375,4.265935906154533 L0.2298741714153195,5.264984127736391 A5.2700000000000005,5.2700000000000005,0,0,1,0.04598884207643149,5.269799334548183 Z" fill="#f6fb05" stroke="black" stroke-width="0.07" />
<path d="M-0.4463365381528799,4.246608493222528 A4.2700000000000005,4.2700000000000005,0,0,0,-0.14902085091968206,4.267398831371539 L-0.1839203476221837,5.266789658390635 A5.2700000000000005,5.2700000000000005,0,0,1,-0.5508650014205333,5.241130388590801 Z" fill="#dff016" stroke="black" stroke-width="0.07" />
<path d="M-0.7781456938514711,4.198498455298086 A4.2700000000000005,4.2700000000000005,0,0,0,-0.5573468407796205,4.2334695580661705 L-0.6878730329996722,5.2249144194399815 A5.2700000000000005,5.2700000000000005,0,0,1,-0.9603812193436189,5.1817533628620405 Z" fill="#7b979f" stroke="black" stroke-width="0.07" />
<path d="M-1.0330064942105817,4.143162751198505 A4.2700000000000005,4.2700000000000005,0,0,0,-0.8877829197918344,4.176690255133351 L-1.0956946106095942,5.1548378558671555 A5.2700000000000005,5.2700000000000005,0,0,1,-1.2749283898102493,5.113458477474502 Z" fill="#946e96" stroke="black" stroke-width="0.07" />
<path d="M-1.2840137638832492,4.072371379694928 A4.2700000000000005,4.2700000000000005,0,0,0,-1.1411078658541578,4.11470203520082 L-1.4083462419324149,5.078332488409443 A5.2700000000000005,5.2700000000000005,0,0,1,-1.584719563387523,5.026088330443155 Z" fill="#7c90aa" stroke="black" stroke-width="0.07" />
<path d="M-1.5649602381127492,3.9728830152832453 A4.2700000000000005,4.2700000000000005,0,0,0,-1.4253552889282033,4.025079166963602 L-1.7591621481619746,4.9677206580557804 A5.2700000000000005,5.2700000000000005,0,0,1,-1.9314614648370463,4.90330058326527 Z" fill="#ff0000" stroke="black" stroke-width="0.07" />
<path d="M-1.8045799776327889,3.869934250646495 A4.2700000000000005,4.2700000000000005,0,0,0,-1.6684219186491995,3.9305557242419202 L-2.0591530471384734,4.85106057769436 A5.2700000000000005,5.2700000000000005,0,0,1,-2.227198239373489,4.7762420376831445 Z" fill="#f62d00" stroke="black" stroke-width="0.07" />
<path d="M-2.0374679063085295,3.7525490710665923 A4.2700000000000005,4.2700000000000005,0,0,0,-1.9052646619788864,3.8213697240406463 L-2.351462475088696,4.716304085642671 A5.2700000000000005,5.2700000000000005,0,0,1,-2.514626666568138,4.631366183728558 Z" fill="#ff0000" stroke="black" stroke-width="0.07" />
<path d="M-2.2627552582757855,3.6211653705879394 A4.2700000000000005,4.2700000000000005,0,0,0,-2.135000000000002,3.697928474159552 L-2.6350000000000025,4.563953877943991 A5.2700000000000005,5.2700000000000005,0,0,1,-2.7926745225089906,4.469213466744365 Z" fill="#e78300" stroke="black" stroke-width="0.07" />
<path d="M-2.5697501488592462,3.4101736279019406 A4.2700000000000005,4.2700000000000005,0,0,0,-2.4491713832189683,3.4977792291139944 L-3.022747819570015,4.316931273402986 A5.2700000000000005,5.2700000000000005,0,0,1,-3.1715651720112947,4.208809137949234 Z" fill="#ff0000" stroke="black" stroke-width="0.07" />
<path d="M-2.7731431663698864,3.246933473112131 A4.2700000000000005,4.2700000000000005,0,0,0,-2.658137498442636,3.341736829759807 L-3.2806521350802558,4.124344986612221 A5.2700000000000005,5.2700000000000005,0,0,1,-3.4225912147000703,4.007339438712162 Z" fill="#fd0a00" stroke="black" stroke-width="0.07" />
<path d="M-3.1481742281792315,2.8847701865188675 A4.2700000000000005,4.2700000000000005,0,0,0,-2.93927403821233,3.0973485642224685 L-3.627628613906084,3.822722935234756 A5.2700000000000005,5.2700000000000005,0,0,1,-3.885451564989356,3.5603603941345274 Z" fill="#ce3244" stroke="black" stroke-width="0.07" />
<path d="M-3.3648059179007044,2.6288744996405593 A4.2700000000000005,4.2700000000000005,0,0,0,-3.222609907551236,2.801372053789467 L-3.9773194877740083,3.457431082779974 A5.2700000000000005,5.2700000000000005,0,0,1,-4.152816671507426,3.244535974966217 Z" fill="#7f86b3" stroke="black" stroke-width="0.07" />
<path d="M-3.519018825416007,2.418554631669037 A4.2700000000000005,4.2700000000000005,0,0,0,-3.4324687948355175,2.5398932994282286 L-4.236325655452735,3.1347160861795698 A5.2700000000000005,5.2700000000000005,0,0,1,-4.343145014038022,2.9849608685938698 Z" fill="#eece00" stroke="black" stroke-width="0.07" />
<path d="M-3.66010437399802,2.1992125798659314 A4.2700000000000005,4.2700000000000005,0,0,0,-3.581123325126961,2.3256086795141657 L-4.419793893072385,2.870247714529193 A5.2700000000000005,5.2700000000000005,0,0,1,-4.517271674700132,2.7142506547759857 Z" fill="#d12f40" stroke="black" stroke-width="0.07" />
<path d="M-3.7875362576710074,1.9716665785135943 A4.2700000000000005,4.2700000000000005,0,0,0,-3.7164188216633725,2.1026486016418042 L-4.586774517603272,2.595072161745271 A5.2700000000000005,5.2700000000000005,0,0,1,-4.674547090849229,2.433415191748628 Z" fill="#f4df00" stroke="black" stroke-width="0.07" />
<path d="M-3.959075059000183,1.5995701538859444 A4.2700000000000005,4.2700000000000005,0,0,0,-3.869934250646496,1.804579977632786 L-4.776242037683146,2.2271982393734855 A5.2700000000000005,5.2700000000000005,0,0,1,-4.88625891356697,1.9741767473018565 Z" fill="#8282af" stroke="black" stroke-width="0.07" />
<path d="M-4.049342007730472,1.3548908828497426 A4.2700000000000005,4.2700000000000005,0,0,0,-3.9995902480906587,1.4953855179779254 L-4.936262437339056,1.8455928992373927 A5.2700000000000005,5.2700000000000005,0,0,1,-4.997665662936671,1.6721955392548347 Z" fill="#79b078" stroke="black" stroke-width="0.07" />
<path d="M-4.1245032782543225,1.105157322587762 A4.2700000000000005,4.2700000000000005,0,0,0,-4.083421307962162,1.2484271791660846 L-5.0397260639251975,1.540798883888821 A5.2700000000000005,5.2700000000000005,0,0,1,-5.090429104543391,1.3639763676902823 Z" fill="#7b9d95" stroke="black" stroke-width="0.07" />
<path d="M-4.184278488730944,0.8513010799614295 A4.2700000000000005,4.2700000000000005,0,0,0,-4.152019560098079,0.9968117036647175 L-5.124389480495756,1.2302570675206232 A5.2700000000000005,5.2700000000000005,0,0,1,-5.164203193351773,1.0506690143786261 Z" fill="#efd000" stroke="black" stroke-width="0.07" />
<path d="M-4.2284446535265054,0.5942691410994798 A4.2700000000000005,4.2700000000000005,0,0,0,-4.205129105362129,0.7414777186377932 L-5.189936858374336,0.9151258963047236 A5.2700000000000005,5.2700000000000005,0,0,1,-5.218712722268076,0.7334422420595453 Z" fill="#c4e328" stroke="black" stroke-width="0.07" />
<path d="M-4.26853677764563,0.11177556927461847 A4.2700000000000005,4.2700000000000005,0,0,0,-4.250341767027853,0.409261363261357 L-5.2457379653950325,0.5051071157815811 A5.2700000000000005,5.2700000000000005,0,0,1,-5.268194102621187,0.13795251758249166 Z" fill="#ec6700" stroke="black" stroke-width="0.07" />
<path d="M-4.2641481134020305,-0.2234745331573701 A4.2700000000000005,4.2700000000000005,0,0,0,-4.2700000000000005,-5.229241832359199e-16 L-5.2700000000000005,-6.453888631506552e-16 A5.2700000000000005,5.2700000000000005,0,0,1,-5.262777648156605,-0.2758104894003139 Z" fill="#ff0000" stroke="black" stroke-width="0.07" />
<path d="M-4.242551823739029,-0.48337772278896246 A4.2700000000000005,4.2700000000000005,0,0,0,-4.256837015040457,-0.3350203387578985 L-5.253754348773585,-0.41347943448574354 A5.2700000000000005,5.2700000000000005,0,0,1,-5.236123679415616,-0.5965809365568694 Z" fill="#78b66d" stroke="black" stroke-width="0.07" />
<path d="M-4.205129105362129,-0.7414777186377923 A4.2700000000000005,4.2700000000000005,0,0,0,-4.2284446535265054,-0.5942691410994808 L-5.218712722268076,-0.7334422420595466 A5.2700000000000005,5.2700000000000005,0,0,1,-5.189936858374336,-0.9151258963047226 Z" fill="#fefe00" stroke="black" stroke-width="0.07" />
<path d="M-4.143162751198505,-1.0330064942105812 A4.2700000000000005,4.2700000000000005,0,0,0,-4.176690255133351,-0.8877829197918323 L-5.154837855867156,-1.0956946106095917 A5.2700000000000005,5.2700000000000005,0,0,1,-5.113458477474502,-1.274928389810249 Z" fill="#8bc951" stroke="black" stroke-width="0.07" />
<path d="M-4.072371379694929,-1.2840137638832474 A4.2700000000000005,4.2700000000000005,0,0,0,-4.11470203520082,-1.1411078658541576 L-5.078332488409443,-1.4083462419324146 A5.2700000000000005,5.2700000000000005,0,0,1,-5.026088330443156,-1.5847195633875206 Z" fill="#dd222f" stroke="black" stroke-width="0.07" />
<path d="M-3.986388421143052,-1.530231144558432 A4.2700000000000005,4.2700000000000005,0,0,0,-4.037364317809083,-1.3901760195320607 L-4.9828828934084,-1.7157441739892176 A5.2700000000000005,5.2700000000000005,0,0,1,-4.919968847640254,-1.8885990941037323 Z" fill="#a45e80" stroke="black" stroke-width="0.07" />
<path d="M-3.8855346266428397,-1.7707401461421415 A4.2700000000000005,4.2700000000000005,0,0,0,-3.944965603823195,-1.634058256198934 L-4.868845136334482,-2.0167416885640237 A5.2700000000000005,5.2700000000000005,0,0,1,-4.795495897519382,-2.185433388798381 Z" fill="#ff0000" stroke="black" stroke-width="0.07" />
<path d="M-3.6211653705879394,-2.262755258275785 A4.2700000000000005,4.2700000000000005,0,0,0,-3.770186221507618,-2.004643573095755 L-4.653133814366544,-2.474115135881646 A5.2700000000000005,5.2700000000000005,0,0,1,-4.469213466744365,-2.79267452250899 Z" fill="#7b999c" stroke="black" stroke-width="0.07" />
<path d="M-3.4324687948355184,-2.5398932994282273 A4.2700000000000005,4.2700000000000005,0,0,0,-3.560692460226808,-2.356770927282489 L-4.394578282293976,-2.908707912594547 A5.2700000000000005,5.2700000000000005,0,0,1,-4.2363256554527355,-3.134716086179569 Z" fill="#e2a900" stroke="black" stroke-width="0.07" />
<path d="M-3.271009772118036,-2.7447030933615237 A4.2700000000000005,4.2700000000000005,0,0,0,-3.364805917900703,-2.6288744996405615 L-4.152816671507424,-3.24453597496622 A5.2700000000000005,5.2700000000000005,0,0,1,-4.0370542152370135,-3.3874907030480634 Z" fill="#8a7aa4" stroke="black" stroke-width="0.07" />
<path d="M-2.939274038212329,-3.0973485642224694 A4.2700000000000005,4.2700000000000005,0,0,0,-3.045579417888355,-2.992882558560364 L-3.7588298670425364,-3.693791822860215 A5.2700000000000005,5.2700000000000005,0,0,1,-3.627628613906083,-3.8227229352347574 Z" fill="#f40a0e" stroke="black" stroke-width="0.07" />
<path d="M-2.7447030933615233,-3.2710097721180365 A4.2700000000000005,4.2700000000000005,0,0,0,-2.857187689152325,-3.173228404788474 L-3.5263182955111834,-3.916373230265868 A5.2700000000000005,5.2700000000000005,0,0,1,-3.3874907030480625,-4.037054215237014 Z" fill="#faf100" stroke="black" stroke-width="0.07" />
<path d="M-2.539893299428227,-3.432468794835519 A4.2700000000000005,4.2700000000000005,0,0,0,-2.658137498442635,-3.3417368297598085 L-3.2806521350802544,-4.124344986612222 A5.2700000000000005,5.2700000000000005,0,0,1,-3.134716086179568,-4.236325655452736 Z" fill="#976b92" stroke="black" stroke-width="0.07" />
<path d="M-2.3256086795141657,-3.5811233251269607 A4.2700000000000005,4.2700000000000005,0,0,0,-2.449171383218966,-3.497779229113996 L-3.0227478195700117,-4.3169312734029885 A5.2700000000000005,5.2700000000000005,0,0,1,-2.870247714529193,-4.419793893072384 Z" fill="#ff0000" stroke="black" stroke-width="0.07" />
<path d="M-2.004643573095753,-3.770186221507619 A4.2700000000000005,4.2700000000000005,0,0,0,-2.199212579865932,-3.66010437399802 L-2.714250654775986,-4.517271674700132 A5.2700000000000005,5.2700000000000005,0,0,1,-2.474115135881643,-4.653133814366546 Z" fill="#f82100" stroke="black" stroke-width="0.07" />
<path d="M-1.77074014614214,-3.8855346266428405 A4.2700000000000005,4.2700000000000005,0,0,0,-1.905264661978884,-3.8213697240406472 L-2.3514624750886925,-4.716304085642673 A5.2700000000000005,5.2700000000000005,0,0,1,-2.1854333887983786,-4.795495897519384 Z" fill="#ff0000" stroke="black" stroke-width="0.07" />
<path d="M-1.5302311445584322,-3.986388421143052 A4.2700000000000005,4.2700000000000005,0,0,0,-1.6684219186491984,-3.9305557242419207 L-2.059153047138472,-4.851060577694361 A5.2700000000000005,5.2700000000000005,0,0,1,-1.8885990941037325,-4.919968847640254 Z" fill="#badf30" stroke="black" stroke-width="0.07" />
<path d="M-1.21274552188575,-4.094160267887185 A4.2700000000000005,4.2700000000000005,0,0,0,-1.3548908828497428,-4.049342007730472 L-1.6721955392548349,-4.997665662936671 A5.2700000000000005,5.2700000000000005,0,0,1,-1.4967608665896726,-5.052980002755378 Z" fill="#96ce49" stroke="black" stroke-width="0.07" />
<path d="M-0.9605410020483028,-4.160560176632955 A4.2700000000000005,4.2700000000000005,0,0,0,-1.1051573225877642,-4.1245032782543225 L-1.363976367690285,-5.09042910454339 A5.2700000000000005,5.2700000000000005,0,0,1,-1.1854920563921676,-5.13493024141819 Z" fill="#ed5e00" stroke="black" stroke-width="0.07" />
<path d="M-0.5203820963399793,-4.2381720675084456 A4.2700000000000005,4.2700000000000005,0,0,0,-0.5942691410994791,-4.228444653526506 L-0.7334422420595444,-5.2187127222680765 A5.2700000000000005,5.2700000000000005,0,0,1,-0.6422514397451267,-5.230718219149768 Z" fill="#8d76a0" stroke="black" stroke-width="0.07" />
<path d="M-0.26067726381383943,-4.262035589261372 A4.2700000000000005,4.2700000000000005,0,0,0,-0.4092613632613563,-4.250341767027854 L-0.5051071157815803,-5.245737965395033 A5.2700000000000005,5.2700000000000005,0,0,1,-0.32172580334869644,-5.260170387683239 Z" fill="#c23e55" stroke="black" stroke-width="0.07" />
<path d="M0.5573468407796208,-4.2334695580661705 A4.2700000000000005,4.2700000000000005,0,0,0,0.33502033875789816,-4.256837015040457 L0.4134794344857432,-5.253754348773585 A5.2700000000000005,5.2700000000000005,0,0,1,0.6878730329996726,-5.2249144194399815 Z" fill="#ff0000" stroke="black" stroke-width="0.07" />
<path d="M0.8147544102578469,-4.191548073321526 A4.2700000000000005,4.2700000000000005,0,0,0,0.6679751657217862,-4.217429214341239 L0.824409630762017,-5.205117554936376 A5.2700000000000005,5.2700000000000005,0,0,1,1.0055634056343918,-5.1731752567691895 Z" fill="#fa1900" stroke="black" stroke-width="0.07" />
<path d="M1.0691226173124653,-4.13399042441452 A4.2700000000000005,4.2700000000000005,0,0,0,0.9241971515156995,-4.168783950402116 L1.1406367654538023,-5.145079957522049 A5.2700000000000005,5.2700000000000005,0,0,1,1.3195026213669068,-5.102138064792628 Z" fill="#8f749d" stroke="black" stroke-width="0.07" />
<path d="M1.460426012000606,-4.012487490755829 A4.2700000000000005,4.2700000000000005,0,0,0,1.3195025659810258,-4.061011324580306 L1.6285195603559732,-5.01206784087546 A5.2700000000000005,5.2700000000000005,0,0,1,1.802446155326275,-4.952180111541737 Z" fill="#f3dd00" stroke="black" stroke-width="0.07" />
<path d="M1.7026585243108017,-3.91584651762448 A4.2700000000000005,4.2700000000000005,0,0,0,1.5649602381127496,-3.9728830152832453 L1.931461464837047,-4.90330058326527 A5.2700000000000005,5.2700000000000005,0,0,1,2.101407593236048,-4.832906592009604 Z" fill="#8283af" stroke="black" stroke-width="0.07" />
<path d="M1.938539433887865,-3.804597858284331 A4.2700000000000005,4.2700000000000005,0,0,0,1.8045799776327869,-3.8699342506464958 L2.2271982393734864,-4.776242037683145 A5.2700000000000005,5.2700000000000005,0,0,1,2.392529933627412,-4.695604382472698 Z" fill="#faf000" stroke="black" stroke-width="0.07" />
<path d="M2.167188809842207,-3.679156515085315 A4.2700000000000005,4.2700000000000005,0,0,0,2.1026486016418047,-3.716418821663372 L2.595072161745272,-4.5867745176032715 A5.2700000000000005,5.2700000000000005,0,0,1,2.6747271728029114,-4.540785675526841 Z" fill="#8282af" stroke="black" stroke-width="0.07" />
<path d="M2.3877536978200893,-3.5399904348100284 A4.2700000000000005,4.2700000000000005,0,0,0,2.262755258275785,-3.6211653705879394 L2.79267452250899,-4.469213466744365 A5.2700000000000005,5.2700000000000005,0,0,1,2.946946601290836,-4.3690280073650705 Z" fill="#ff0000" stroke="black" stroke-width="0.07" />
<path d="M2.5994113018672373,-3.3876187630435743 A4.2700000000000005,4.2700000000000005,0,0,0,2.4796016208857137,-3.4762732633814832 L3.0603045765966534,-4.290388781737803 A5.2700000000000005,5.2700000000000005,0,0,1,3.2081727308759582,-4.18097210333481 Z" fill="#85c655" stroke="black" stroke-width="0.07" />
<path d="M2.8013720537894664,-3.2226099075512367 A4.2700000000000005,4.2700000000000005,0,0,0,2.7447030933615233,-3.2710097721180365 L3.3874907030480625,-4.037054215237014 A5.2700000000000005,5.2700000000000005,0,0,1,3.4574310827799737,-3.977319487774009 Z" fill="#7b9a9a" stroke="black" stroke-width="0.07" />
<path d="M2.9928825585603636,-3.0455794178883555 A4.2700000000000005,4.2700000000000005,0,0,0,2.8847701865188697,-3.14817422817923 L3.5603603941345296,-3.885451564989354 A5.2700000000000005,5.2700000000000005,0,0,1,3.6937918228602147,-3.7588298670425373 Z" fill="#e97700" stroke="black" stroke-width="0.07" />
<path d="M3.294836971065565,-2.7160540005860523 A4.2700000000000005,4.2700000000000005,0,0,0,3.2469334731121324,-2.7731431663698847 L4.0073394387121635,-3.422591214700068 A5.2700000000000005,5.2700000000000005,0,0,1,4.0664615544532845,-3.3521322208638162 Z" fill="#e29c00" stroke="black" stroke-width="0.07" />
<path d="M3.454502565981026,-2.5098430272888606 A4.2700000000000005,4.2700000000000005,0,0,0,3.3648059179007035,-2.6288744996405606 L4.152816671507425,-3.244535974966219 A5.2700000000000005,5.2700000000000005,0,0,1,4.263519560355974,-3.097628279581334 Z" fill="#ef5600" stroke="black" stroke-width="0.07" />
<path d="M3.66010437399802,-2.1992125798659314 A4.2700000000000005,4.2700000000000005,0,0,0,3.6211653705879394,-2.262755258275785 L4.469213466744365,-2.79267452250899 A5.2700000000000005,5.2700000000000005,0,0,1,4.517271674700132,-2.7142506547759857 Z" fill="#be435c" stroke="black" stroke-width="0.07" />
<path d="M3.9008391041339063,-1.7367654659336669 A4.2700000000000005,4.2700000000000005,0,0,0,3.8378505776974436,-1.8718447967893608 L4.736644623996611,-2.310215943578438 A5.2700000000000005,5.2700000000000005,0,0,1,4.814384561776507,-2.143502109009467 Z" fill="#8b78a3" stroke="black" stroke-width="0.07" />
<path d="M3.9995902480906587,-1.4953855179779258 A4.2700000000000005,4.2700000000000005,0,0,0,3.944965603823195,-1.6340582561989336 L4.868845136334482,-2.0167416885640232 A5.2700000000000005,5.2700000000000005,0,0,1,4.936262437339056,-1.8455928992373933 Z" fill="#e51a24" stroke="black" stroke-width="0.07" />
<path d="M4.083421307962162,-1.2484271791660861 A4.2700000000000005,4.2700000000000005,0,0,0,4.037364317809083,-1.390176019532059 L4.982882893408401,-1.7157441739892156 A5.2700000000000005,5.2700000000000005,0,0,1,5.0397260639251975,-1.540798883888823 Z" fill="#78b76d" stroke="black" stroke-width="0.07" />
<path d="M4.152019560098079,-0.9968117036647162 A4.2700000000000005,4.2700000000000005,0,0,0,4.11470203520082,-1.141107865854157 L5.078332488409443,-1.4083462419324138 A5.2700000000000005,5.2700000000000005,0,0,1,5.124389480495756,-1.2302570675206215 Z" fill="#ff0000" stroke="black" stroke-width="0.07" />
<path d="M4.223097736555386,-0.6311461855234375 A4.2700000000000005,4.2700000000000005,0,0,0,4.184278488730943,-0.851301079961432 L5.1642031933517725,-1.050669014378629 A5.2700000000000005,5.2700000000000005,0,0,1,5.212113599917302,-0.778955596653048 Z" fill="#f7e800" stroke="black" stroke-width="0.07" />
<path d="M4.253751360851754,-0.3721550215325004 A4.2700000000000005,4.2700000000000005,0,0,0,4.2381720675084456,-0.5203820963399798 L5.230718219149767,-0.6422514397451272 A5.2700000000000005,5.2700000000000005,0,0,1,5.249946058943499,-0.4593107642801586 Z" fill="#ae5472" stroke="black" stroke-width="0.07" />
<path d="M4.26853677764563,-0.11177556927461836 A4.2700000000000005,4.2700000000000005,0,0,0,4.262035589261372,-0.2606772638138389 L5.260170387683239,-0.32172580334869577 A5.2700000000000005,5.2700000000000005,0,0,1,5.268194102621187,-0.1379525175824915 Z" fill="#ff0000" stroke="black" stroke-width="0.07" />
<path d="M4.2641481134020305,0.22347453315737018 A4.2700000000000005,4.2700000000000005,0,0,0,4.2693496583177915,0.0745217754872006 L5.2691973534741825,0.09197418192448412 A5.2700000000000005,5.2700000000000005,0,0,1,5.262777648156605,0.275810489400314 Z" fill="#edca00" stroke="black" stroke-width="0.07" />
<path d="M4.242551823739029,0.48337772278896174 A4.2700000000000005,4.2700000000000005,0,0,0,4.256837015040457,0.33502033875789794 L5.253754348773585,0.41347943448574287 A5.2700000000000005,5.2700000000000005,0,0,1,5.236123679415616,0.5965809365568685 Z" fill="#efcf00" stroke="black" stroke-width="0.07" />
<path d="M4.168783950402116,0.9241971515156994 A4.2700000000000005,4.2700000000000005,0,0,0,4.184278488730943,0.851301079961432 L5.1642031933517725,1.050669014378629 A5.2700000000000005,5.2700000000000005,0,0,1,5.145079957522049,1.1406367654538023 Z" fill="#f62e00" stroke="black" stroke-width="0.07" />
<path d="M4.104587441656622,1.1769715093385866 A4.2700000000000005,4.2700000000000005,0,0,0,4.143162751198505,1.0330064942105812 L5.113458477474502,1.274928389810249 A5.2700000000000005,5.2700000000000005,0,0,1,5.065849137594941,1.4526088651555857 Z" fill="#9ad046" stroke="black" stroke-width="0.07" />
</svg>