<?xml version="1.0" encoding="UTF-8"?>
<svg xmlns="http://www.w3.org/2000/svg" xmlns:xlink="http://www.w3.org/1999/xlink"
     width="600" height="600.0" viewBox="-7.0 -7.0 14 14">
<defs>
</defs>
<path d="M0.6427876096865393,0.7660444431189781 A1.0,1.0,0,1,0,0.615661475325659,0.7880107536067213 L1.231322950651318,1.5760215072134427 A2.0,2.0,0,1,1,1.2855752193730785,1.5320888862379562 Z" fill="#946e96" stroke="black" stroke-width="0.07" />
<path d="M-1.2577933983877807,1.669148215998842 A2.09,2.09,0,0,0,1.343426104244867,1.6010328861186642 L1.9862137139314062,2.367077329237642 A3.09,3.09,0,0,1,-1.859608421539829,2.4677837260461346 Z" fill="#fb1400" stroke="black" stroke-width="0.07" />
<path d="M-1.993268427063794,-0.6284751209639312 A2.09,2.09,0,0,0,-1.3010555905726249,1.6356510478215447 L-1.9235702272102446,2.4182592046739586 A3.09,3.09,0,0,1,-2.9469853778120205,-0.9291809204682046 Z" fill="#e0f015" stroke="black" stroke-width="0.07" />
<path d="M-0.32694803193408284,-2.0642686318438375 A2.09,2.09,0,0,0,-1.9761338230025718,-0.6804374428154581 L-2.9216523986018887,-1.0060055972726152 A3.09,3.09,0,0,1,-0.4833824969743139,-3.0519569724389752 Z" fill="#ff0000" stroke="black" stroke-width="0.07" />
<path d="M1.540909633933159,-1.4119835339167297 A2.09,2.09,0,0,0,-0.27279974173990734,-2.072119760271264 L-0.40332593395995875,-3.0635646216450745 A3.09,3.09,0,0,1,2.278186970743283,-2.08757374153239 Z" fill="#e1a400" stroke="black" stroke-width="0.07" />
<path d="M2.0696602636698818,0.29087178100653677 A2.09,2.09,0,0,0,1.5773430226655936,-1.3711633705901598 L2.332052602888366,-2.027222399580667 A3.09,3.09,0,0,1,3.0599283324114523,0.4300448819666022 Z" fill="#cfe821" stroke="black" stroke-width="0.07" />
<path d="M0.9826740421123322,3.024359721818589 A3.18,3.18,0,0,0,2.044064598803195,2.4360213291183506 L2.686852208489734,3.2020657722373285 A4.18,4.18,0,0,1,1.2916910364872793,3.975416238113742 Z" fill="#e4b000" stroke="black" stroke-width="0.07" />
<path d="M-0.13870965182176892,3.176973344630308 A3.18,3.18,0,0,0,0.903168796158473,3.0490467568808546 L1.187184140862395,4.007866491749047 A4.18,4.18,0,0,1,-0.18232903918710502,4.176021566212166 Z" fill="#c4e329" stroke="black" stroke-width="0.07" />
<path d="M-1.1396100795540562,2.9687857562611013 A3.18,3.18,0,0,0,-0.22182558650631937,3.172253679826241 L-0.2915820602504449,4.169817730086065 A4.18,4.18,0,0,1,-1.497978029099357,3.9023661827583025 Z" fill="#78b76d" stroke="black" stroke-width="0.07" />
<path d="M-2.5888873483730954,1.8466353991607887 A3.18,3.18,0,0,0,-1.9795965445076305,2.488693938790676 L-2.6021111811452498,3.2713020956430894 A4.18,4.18,0,0,1,-3.4030028667294143,2.427338354871728 Z" fill="#7c89b6" stroke="black" stroke-width="0.07" />
<path d="M-2.988222534099189,1.0876240557756265 A3.18,3.18,0,0,0,-2.636339480725033,1.7782334330369745 L-3.4653770532800747,2.337426336507721 A4.18,4.18,0,0,1,-3.927915154885097,1.429644199101295 Z" fill="#7aa18f" stroke="black" stroke-width="0.07" />
<path d="M-3.1595585010515483,0.3599862197819431 A3.18,3.18,0,0,0,-3.0156692235557143,1.0090288073681923 L-3.963992878761913,1.3263334637732842 A4.18,4.18,0,0,1,-4.153130356728135,0.4731894335498497 Z" fill="#8282af" stroke="black" stroke-width="0.07" />
<path d="M-3.167899139931751,-0.27715526193755446 A3.18,3.18,0,0,0,-3.167899139931751,0.2771552619375523 L-4.164093838023496,0.36431100468521016 A4.18,4.18,0,0,1,-4.164093838023496,-0.3643110046852131 Z" fill="#fefe00" stroke="black" stroke-width="0.07" />
<path d="M-3.0643448412034213,-0.8498180359288573 A3.18,3.18,0,0,0,-3.1595585010515483,-0.3599862197819439 L-4.153130356728135,-0.47318943354985077 A4.18,4.18,0,0,1,-4.027975294412044,-1.1170564120071143 Z" fill="#b1506d" stroke="black" stroke-width="0.07" />
<path d="M-2.6363394807250327,-1.7782334330369753 A3.18,3.18,0,0,0,-3.0067490704058275,-1.0353067311737594 L-3.9522676460051436,-1.3608748856309163 A4.18,4.18,0,0,1,-3.465377053280074,-2.337426336507722 Z" fill="#7b9c97" stroke="black" stroke-width="0.07" />
<path d="M-2.107131753326046,-2.3816791921090266 A3.18,3.18,0,0,0,-2.588887348373095,-1.846635399160789 L-3.403002866729414,-2.4273383548717287 A4.18,4.18,0,0,1,-2.769751801541783,-3.1306349128980284 Z" fill="#e87c00" stroke="black" stroke-width="0.07" />
<path d="M-1.5416945923833518,-2.781290668703279 A3.18,3.18,0,0,0,-2.044064598803195,-2.43602132911835 L-2.6868522084897344,-3.202065772237328 A4.18,4.18,0,0,1,-2.0265042126296886,-3.6559103758426743 Z" fill="#f7fb05" stroke="black" stroke-width="0.07" />
<path d="M-1.0090288073681926,-3.0156692235557143 A3.18,3.18,0,0,0,-1.4683605900874075,-2.8206944495067456 L-1.930109203322441,-3.707705282684967 A4.18,4.18,0,0,1,-1.3263334637732844,-3.963992878761913 Z" fill="#897ba6" stroke="black" stroke-width="0.07" />
<path d="M0.35998621978194306,-3.1595585010515483 A3.18,3.18,0,0,0,-0.4150732912597634,-3.1527946591687175 L-0.5455994834798147,-4.144239520542528 A4.18,4.18,0,0,1,0.4731894335498496,-4.153130356728135 Z" fill="#7aa982" stroke="black" stroke-width="0.07" />
<path d="M1.087624055775627,-2.988222534099189 A3.18,3.18,0,0,0,0.4425704610530089,-3.1490524585981934 L0.5817435620130745,-4.1393205273397635 A4.18,4.18,0,0,1,1.4296441991012956,-3.9279151548850963 Z" fill="#f2d800" stroke="black" stroke-width="0.07" />
<path d="M1.6615454357967177,-2.7113957226460133 A3.18,3.18,0,0,0,1.1654739009832655,-2.9587278661828385 L1.5319751277075626,-3.8891454341648624 A4.18,4.18,0,0,1,2.1840440005126665,-3.564035887000105 Z" fill="#8a79a4" stroke="black" stroke-width="0.07" />
<path d="M2.1278353282211695,-2.3632005450181133 A3.18,3.18,0,0,0,1.7319521313477866,-2.6669724060664484 L2.2765911663628136,-3.505642974011872 A4.18,4.18,0,0,1,2.7969659345800273,-3.1063453704955073 Z" fill="#8381ad" stroke="black" stroke-width="0.07" />
<path d="M2.725792016232717,-1.6378210782139724 A3.18,3.18,0,0,0,2.3999764651084154,-2.0862677121898128 L3.154686045331187,-2.7423267411803196 A4.18,4.18,0,0,1,3.5829593169348293,-2.152859153124026 Z" fill="#f4de00" stroke="black" stroke-width="0.07" />
<path d="M2.9786175618099047,-1.1136594724051063 A3.18,3.18,0,0,0,2.7677311130888813,-1.5659069211290253 L3.6380868090287803,-2.0583304812324923 A4.18,4.18,0,0,1,3.9152897510583022,-1.4638668536645736 Z" fill="#78b66d" stroke="black" stroke-width="0.07" />
<path d="M3.1215744433635715,-0.6067726052974125 A3.18,3.18,0,0,0,3.0067490704058275,-1.0353067311737583 L3.952267646005144,-1.3608748856309147 A4.18,4.18,0,0,1,4.103201626811235,-0.7975816006739572 Z" fill="#8c77a1" stroke="black" stroke-width="0.07" />
<path d="M3.176973344630308,-0.13870965182176848 A3.18,3.18,0,0,0,3.136388212888396,-0.5248513866369549 L4.122673814425627,-0.6898989924976324 A4.18,4.18,0,0,1,4.176021566212166,-0.18232903918710447 Z" fill="#78b969" stroke="black" stroke-width="0.07" />
<path d="M3.167899139931751,0.27715526193755297 A3.18,3.18,0,0,0,3.179515670597324,-0.05549865247056157 L4.179363365753715,-0.07295105890784508 A4.18,4.18,0,0,1,4.164093838023496,0.3643110046852111 Z" fill="#8c77a1" stroke="black" stroke-width="0.07" />
<path d="M2.449171383218967,3.4977792291139953 A4.2700000000000005,4.2700000000000005,0,0,0,2.744703093361523,3.271009772118037 L3.387490703048062,4.037054215237015 A5.2700000000000005,5.2700000000000005,0,0,1,3.022747819570013,4.316931273402987 Z" fill="#8d76a0" stroke="black" stroke-width="0.07" />
<path d="M2.102648601641804,3.7164188216633725 A4.2700000000000005,4.2700000000000005,0,0,0,2.356770927282488,3.560692460226809 L2.9087079125945463,4.394578282293978 A5.2700000000000005,5.2700000000000005,0,0,1,2.5950721617452706,4.586774517603272 Z" fill="#ed1219" stroke="black" stroke-width="0.07" />
<path d="M1.8045799776327875,3.8699342506464958 A4.2700000000000005,4.2700000000000005,0,0,0,2.0046435730957524,3.770186221507619 L2.4741151358816427,4.653133814366546 A5.2700000000000005,5.2700000000000005,0,0,1,2.2271982393734873,4.776242037683145 Z" fill="#7aa18f" stroke="black" stroke-width="0.07" />
<path d="M1.5649602381127476,3.9728830152832457 A4.2700000000000005,4.2700000000000005,0,0,0,1.7026585243108017,3.91584651762448 L2.101407593236048,4.832906592009604 A5.2700000000000005,5.2700000000000005,0,0,1,1.9314614648370445,4.9033005832652705 Z" fill="#ff0000" stroke="black" stroke-width="0.07" />
<path d="M0.851301079961431,4.184278488730944 A4.2700000000000005,4.2700000000000005,0,0,0,1.2127455218857484,4.094160267887185 L1.4967608665896708,5.052980002755379 A5.2700000000000005,5.2700000000000005,0,0,1,1.050669014378628,5.164203193351773 Z" fill="#936f97" stroke="black" stroke-width="0.07" />
<path d="M0.44633653815287827,4.246608493222528 A4.2700000000000005,4.2700000000000005,0,0,0,0.7414777186377911,4.205129105362129 L0.9151258963047211,5.189936858374337 A5.2700000000000005,5.2700000000000005,0,0,1,0.5508650014205313,5.241130388590801 Z" fill="#ecf60c" stroke="black" stroke-width="0.07" />
<path d="M0.11177556927461821,4.26853677764563 A4.2700000000000005,4.2700000000000005,0,0,0,0.3350203387578953,4.256837015040458 L0.4134794344857396,5.253754348773586 A5.2700000000000005,5.2700000000000005,0,0,1,0.13795251758249133,5.268194102621187 Z" fill="#956d95" stroke="black" stroke-width="0.07" />
<path d="M-0.14902085091968206,4.267398831371539 A4.2700000000000005,4.2700000000000005,0,0,0,-7.843862748538798e-16,4.2700000000000005 L-9.680832947259828e-16,5.2700000000000005 A5.2700000000000005,5.2700000000000005,0,0,1,-0.1839203476221837,5.266789658390635 Z" fill="#f9ee00" stroke="black" stroke-width="0.07" />
<path d="M-0.5942691410994774,4.228444653526506 A4.2700000000000005,4.2700000000000005,0,0,0,-0.29786014288741625,4.25959849460945 L-0.3676166166315418,5.257162544869274 A5.2700000000000005,5.2700000000000005,0,0,1,-0.7334422420595423,5.2187127222680765 Z" fill="#fd0102" stroke="black" stroke-width="0.07" />
<path d="M-0.9241971515156991,4.168783950402116 A4.2700000000000005,4.2700000000000005,0,0,0,-0.7047532770250958,4.211439518563978 L-0.869800882885774,5.197725120101209 A5.2700000000000005,5.2700000000000005,0,0,1,-1.1406367654538019,5.145079957522049 Z" fill="#ff0000" stroke="black" stroke-width="0.07" />
<path d="M-1.1769715093385853,4.104587441656623 A4.2700000000000005,4.2700000000000005,0,0,0,-1.0330064942105817,4.143162751198505 L-1.2749283898102493,5.113458477474502 A5.2700000000000005,5.2700000000000005,0,0,1,-1.4526088651555842,5.065849137594942 Z" fill="#8085b2" stroke="black" stroke-width="0.07" />
<path d="M-1.4253552889282033,4.025079166963602 A4.2700000000000005,4.2700000000000005,0,0,0,-1.2840137638832492,4.072371379694928 L-1.584719563387523,5.026088330443155 A5.2700000000000005,5.2700000000000005,0,0,1,-1.7591621481619746,4.9677206580557804 Z" fill="#f7e800" stroke="black" stroke-width="0.07" />
<path d="M-1.8382823833714204,3.8540391641739054 A4.2700000000000005,4.2700000000000005,0,0,0,-1.6340582561989323,3.9449656038231953 L-2.016741688564022,4.868845136334482 A5.2700000000000005,5.2700000000000005,0,0,1,-2.2687934801797156,4.756624448523766 Z" fill="#976b93" stroke="black" stroke-width="0.07" />
<path d="M-2.0701370784518587,3.734626149485221 A4.2700000000000005,4.2700000000000005,0,0,0,-1.9385394338878656,3.804597858284331 L-2.3925299336274124,4.695604382472698 A5.2700000000000005,5.2700000000000005,0,0,1,-2.5549466986981955,4.609245856624617 Z" fill="#e4b000" stroke="black" stroke-width="0.07" />
<path d="M-2.2942693276409396,3.6012814736210217 A4.2700000000000005,4.2700000000000005,0,0,0,-2.1671888098422065,3.6791565150853156 L-2.674727172802911,4.540785675526841 A5.2700000000000005,5.2700000000000005,0,0,1,-2.831568935987764,4.444672919433907 Z" fill="#e5f212" stroke="black" stroke-width="0.07" />
<path d="M-2.509843027288861,3.4545025659810253 A4.2700000000000005,4.2700000000000005,0,0,0,-2.387753697820091,3.539990434810027 L-2.946946601290838,4.369028007365069 A5.2700000000000005,5.2700000000000005,0,0,1,-3.0976282795813344,4.263519560355973 Z" fill="#9b678d" stroke="black" stroke-width="0.07" />
<path d="M-2.8293876058811995,3.1980409277690396 A4.2700000000000005,4.2700000000000005,0,0,0,-2.658137498442636,3.341736829759807 L-3.2806521350802558,4.124344986612221 A5.2700000000000005,5.2700000000000005,0,0,1,-3.492007654096937,3.946996648558042 Z" fill="#f7e800" stroke="black" stroke-width="0.07" />
<path d="M-3.0193459556665587,3.019345955666558 A4.2700000000000005,4.2700000000000005,0,0,0,-2.9121329974668706,3.122880305913857 L-3.5941313575293696,3.854234007533027 A5.2700000000000005,5.2700000000000005,0,0,1,-3.7264527368531066,3.7264527368531053 Z" fill="#efd000" stroke="black" stroke-width="0.07" />
<path d="M-3.1980409277690405,2.829387605881198 A4.2700000000000005,4.2700000000000005,0,0,0,-3.0973485642224694,2.939274038212329 L-3.8227229352347574,3.627628613906083 A5.2700000000000005,5.2700000000000005,0,0,1,-3.946996648558043,3.4920076540969354 Z" fill="#f2f908" stroke="black" stroke-width="0.07" />
<path d="M-3.3648059179007044,2.6288744996405593 A4.2700000000000005,4.2700000000000005,0,0,0,-3.2710097721180365,2.744703093361523 L-4.037054215237014,3.387490703048062 A5.2700000000000005,5.2700000000000005,0,0,1,-4.152816671507426,3.244535974966217 Z" fill="#7aa589" stroke="black" stroke-width="0.07" />
<path d="M-3.62116537058794,2.2627552582757846 A4.2700000000000005,4.2700000000000005,0,0,0,-3.5399904348100293,2.3877536978200884 L-4.369028007365071,2.9469466012908354 A5.2700000000000005,5.2700000000000005,0,0,1,-4.469213466744366,2.7926745225089893 Z" fill="#e9f50f" stroke="black" stroke-width="0.07" />
<path d="M-3.7525490710665927,2.037467906308528 A4.2700000000000005,4.2700000000000005,0,0,0,-3.679156515085316,2.1671888098422056 L-4.540785675526842,2.6747271728029096 A5.2700000000000005,5.2700000000000005,0,0,1,-4.631366183728558,2.5146266665681365 Z" fill="#ff0000" stroke="black" stroke-width="0.07" />
<path d="M-3.869934250646496,1.804579977632786 A4.2700000000000005,4.2700000000000005,0,0,0,-3.8045978582843323,1.9385394338878628 L-4.6956043824727,2.392529933627409 A5.2700000000000005,5.2700000000000005,0,0,1,-4.776242037683146,2.2271982393734855 Z" fill="#e7b800" stroke="black" stroke-width="0.07" />
<path d="M-3.9728830152832457,1.564960238112748 A4.2700000000000005,4.2700000000000005,0,0,0,-3.91584651762448,1.702658524310802 L-4.832906592009604,2.1014075932360483 A5.2700000000000005,5.2700000000000005,0,0,1,-4.9033005832652705,1.931461464837045 Z" fill="#bee12d" stroke="black" stroke-width="0.07" />
<path d="M-4.094160267887185,1.2127455218857486 A4.2700000000000005,4.2700000000000005,0,0,0,-4.049342007730472,1.3548908828497426 L-4.997665662936671,1.6721955392548347 A5.2700000000000005,5.2700000000000005,0,0,1,-5.052980002755379,1.496760866589671 Z" fill="#e39400" stroke="black" stroke-width="0.07" />
<path d="M-4.160560176632955,0.9605410020483035 A4.2700000000000005,4.2700000000000005,0,0,0,-4.1245032782543225,1.105157322587762 L-5.090429104543391,1.3639763676902823 A5.2700000000000005,5.2700000000000005,0,0,1,-5.13493024141819,1.1854920563921685 Z" fill="#ce3144" stroke="black" stroke-width="0.07" />
<path d="M-4.211439518563979,0.7047532770250927 A4.2700000000000005,4.2700000000000005,0,0,0,-4.184278488730944,0.8513010799614295 L-5.164203193351773,1.0506690143786261 A5.2700000000000005,5.2700000000000005,0,0,1,-5.19772512010121,0.8698008828857702 Z" fill="#daee19" stroke="black" stroke-width="0.07" />
<path d="M-4.25959849460945,0.2978601428874131 A4.2700000000000005,4.2700000000000005,0,0,0,-4.253751360851754,0.37215502153249946 L-5.249946058943499,0.4593107642801574 A5.2700000000000005,5.2700000000000005,0,0,1,-5.257162544869274,0.3676166166315379 Z" fill="#fdf900" stroke="black" stroke-width="0.07" />
<path d="M-4.269837411484012,0.03726230657805576 A4.2700000000000005,4.2700000000000005,0,0,0,-4.265935906154533,0.18625478404998588 L-5.264984127736391,0.22987417141532215 A5.2700000000000005,5.2700000000000005,0,0,1,-5.269799334548183,0.04598884207642947 Z" fill="#ff0000" stroke="black" stroke-width="0.07" />
<path d="M-4.2641481134020305,-0.2234745331573701 A4.2700000000000005,4.2700000000000005,0,0,0,-4.2693496583177915,-0.07452177548720029 L-5.2691973534741825,-0.09197418192448373 A5.2700000000000005,5.2700000000000005,0,0,1,-5.262777648156605,-0.2758104894003139 Z" fill="#d3ea1e" stroke="black" stroke-width="0.07" />
<path d="M-4.2334695580661705,-0.5573468407796203 A4.2700000000000005,4.2700000000000005,0,0,0,-4.242551823739029,-0.48337772278896246 L-5.236123679415616,-0.5965809365568694 A5.2700000000000005,5.2700000000000005,0,0,1,-5.2249144194399815,-0.6878730329996718 Z" fill="#7d88b6" stroke="black" stroke-width="0.07" />
<path d="M-4.191548073321526,-0.8147544102578471 A4.2700000000000005,4.2700000000000005,0,0,0,-4.217429214341238,-0.6679751657217864 L-5.2051175549363755,-0.8244096307620173 A5.2700000000000005,5.2700000000000005,0,0,1,-5.1731752567691895,-1.005563405634392 Z" fill="#7f86b3" stroke="black" stroke-width="0.07" />
<path d="M-4.13399042441452,-1.0691226173124646 A4.2700000000000005,4.2700000000000005,0,0,0,-4.168783950402116,-0.9241971515157007 L-5.145079957522048,-1.1406367654538039 A5.2700000000000005,5.2700000000000005,0,0,1,-5.102138064792628,-1.3195026213669059 Z" fill="#fdf900" stroke="black" stroke-width="0.07" />
<path d="M-3.9590750590001824,-1.5995701538859455 A4.2700000000000005,4.2700000000000005,0,0,0,-4.037364317809083,-1.3901760195320607 L-4.9828828934084,-1.7157441739892176 A5.2700000000000005,5.2700000000000005,0,0,1,-4.886258913566969,-1.9741767473018577 Z" fill="#8480ac" stroke="black" stroke-width="0.07" />
<path d="M-3.8540391641739054,-1.8382823833714201 A4.2700000000000005,4.2700000000000005,0,0,0,-3.9158465176244794,-1.7026585243108028 L-4.8329065920096035,-2.101407593236049 A5.2700000000000005,5.2700000000000005,0,0,1,-4.756624448523766,-2.268793480179715 Z" fill="#ff0000" stroke="black" stroke-width="0.07" />
<path d="M-3.73462614948522,-2.07013707845186 A4.2700000000000005,4.2700000000000005,0,0,0,-3.804597858284331,-1.9385394338878652 L-4.695604382472698,-2.392529933627412 A5.2700000000000005,5.2700000000000005,0,0,1,-4.609245856624616,-2.5549466986981972 Z" fill="#8084b1" stroke="black" stroke-width="0.07" />
<path d="M-3.6012814736210226,-2.294269327640938 A4.2700000000000005,4.2700000000000005,0,0,0,-3.6791565150853147,-2.1671888098422083 L-4.54078567552684,-2.6747271728029127 A5.2700000000000005,5.2700000000000005,0,0,1,-4.444672919433908,-2.8315689359877614 Z" fill="#e71821" stroke="black" stroke-width="0.07" />
<path d="M-3.3417368297598076,-2.658137498442636 A4.2700000000000005,4.2700000000000005,0,0,0,-3.4762732633814832,-2.4796016208857137 L-4.290388781737803,-3.0603045765966534 A5.2700000000000005,5.2700000000000005,0,0,1,-4.124344986612222,-3.2806521350802558 Z" fill="#fd0102" stroke="black" stroke-width="0.07" />
<path d="M-3.173228404788473,-2.8571876891523256 A4.2700000000000005,4.2700000000000005,0,0,0,-3.271009772118036,-2.7447030933615237 L-4.0370542152370135,-3.3874907030480634 A5.2700000000000005,5.2700000000000005,0,0,1,-3.916373230265867,-3.526318295511184 Z" fill="#ff0000" stroke="black" stroke-width="0.07" />
<path d="M-2.9928825585603636,-3.0455794178883555 A4.2700000000000005,4.2700000000000005,0,0,0,-3.0973485642224685,-2.9392740382123295 L-3.822722935234756,-3.6276286139060834 A5.2700000000000005,5.2700000000000005,0,0,1,-3.6937918228602147,-3.7588298670425373 Z" fill="#7aa687" stroke="black" stroke-width="0.07" />
<path d="M-2.628874499640561,-3.3648059179007035 A4.2700000000000005,4.2700000000000005,0,0,0,-2.7447030933615233,-3.2710097721180365 L-3.3874907030480625,-4.037054215237014 A5.2700000000000005,5.2700000000000005,0,0,1,-3.2445359749662193,-4.152816671507425 Z" fill="#8e769f" stroke="black" stroke-width="0.07" />
<path d="M-2.4185546316690356,-3.519018825416008 A4.2700000000000005,4.2700000000000005,0,0,0,-2.539893299428227,-3.432468794835519 L-3.134716086179568,-4.236325655452736 A5.2700000000000005,5.2700000000000005,0,0,1,-2.984960868593868,-4.343145014038024 Z" fill="#fdfe01" stroke="black" stroke-width="0.07" />
<path d="M-2.199212579865932,-3.66010437399802 A4.2700000000000005,4.2700000000000005,0,0,0,-2.3256086795141657,-3.5811233251269607 L-2.870247714529193,-4.419793893072384 A5.2700000000000005,5.2700000000000005,0,0,1,-2.714250654775986,-4.517271674700132 Z" fill="#ecc600" stroke="black" stroke-width="0.07" />
<path d="M-1.905264661978884,-3.8213697240406472 A4.2700000000000005,4.2700000000000005,0,0,0,-1.9716665785135943,-3.7875362576710074 L-2.433415191748628,-4.674547090849229 A5.2700000000000005,5.2700000000000005,0,0,1,-2.3514624750886925,-4.716304085642673 Z" fill="#93cc4b" stroke="black" stroke-width="0.07" />
<path d="M-1.6684219186491984,-3.9305557242419207 A4.2700000000000005,4.2700000000000005,0,0,0,-1.8045799776327864,-3.869934250646496 L-2.2271982393734855,-4.776242037683146 A5.2700000000000005,5.2700000000000005,0,0,1,-2.059153047138472,-4.851060577694361 Z" fill="#7d88b5" stroke="black" stroke-width="0.07" />
<path d="M-1.4253552889282024,-4.025079166963602 A4.2700000000000005,4.2700000000000005,0,0,0,-1.5649602381127492,-3.9728830152832453 L-1.9314614648370463,-4.90330058326527 A5.2700000000000005,5.2700000000000005,0,0,1,-1.7591621481619735,-4.9677206580557804 Z" fill="#d72938" stroke="black" stroke-width="0.07" />
<path d="M-1.1769715093385862,-4.104587441656622 A4.2700000000000005,4.2700000000000005,0,0,0,-1.2484271791660857,-4.083421307962162 L-1.5407988838888222,-5.0397260639251975 A5.2700000000000005,5.2700000000000005,0,0,1,-1.452608865155585,-5.065849137594941 Z" fill="#7b96a2" stroke="black" stroke-width="0.07" />
<path d="M-0.924197151515699,-4.168783950402116 A4.2700000000000005,4.2700000000000005,0,0,0,-1.0691226173124648,-4.13399042441452 L-1.3195026213669063,-5.102138064792628 A5.2700000000000005,5.2700000000000005,0,0,1,-1.1406367654538019,-5.145079957522049 Z" fill="#a45e80" stroke="black" stroke-width="0.07" />
<path d="M-0.4092613632613563,-4.250341767027854 A4.2700000000000005,4.2700000000000005,0,0,0,-0.5573468407796195,-4.233469558066171 L-0.6878730329996708,-5.2249144194399815 A5.2700000000000005,5.2700000000000005,0,0,1,-0.5051071157815803,-5.245737965395033 Z" fill="#a6d53e" stroke="black" stroke-width="0.07" />
<path d="M-0.14902085091967815,-4.26739883137154 A4.2700000000000005,4.2700000000000005,0,0,0,-0.2978601428874152,-4.25959849460945 L-0.36761661663154055,-5.257162544869274 A5.2700000000000005,5.2700000000000005,0,0,1,-0.18392034762217888,-5.2667896583906355 Z" fill="#927199" stroke="black" stroke-width="0.07" />
<path d="M0.11177556927461832,-4.26853677764563 A4.2700000000000005,4.2700000000000005,0,0,0,-0.03726230657805602,-4.269837411484012 L-0.0459888420764298,-5.269799334548183 A5.2700000000000005,5.2700000000000005,0,0,1,0.13795251758249144,-5.268194102621187 Z" fill="#877ca7" stroke="black" stroke-width="0.07" />
<path d="M0.3721550215325003,-4.253751360851754 A4.2700000000000005,4.2700000000000005,0,0,0,0.22347453315737076,-4.2641481134020305 L0.2758104894003147,-5.262777648156605 A5.2700000000000005,5.2700000000000005,0,0,1,0.45931076428015843,-5.249946058943499 Z" fill="#f9ee00" stroke="black" stroke-width="0.07" />
<path d="M0.8147544102578469,-4.191548073321526 A4.2700000000000005,4.2700000000000005,0,0,0,0.5942691410994806,-4.2284446535265054 L0.7334422420595462,-5.218712722268076 A5.2700000000000005,5.2700000000000005,0,0,1,1.0055634056343918,-5.1731752567691895 Z" fill="#f6fb05" stroke="black" stroke-width="0.07" />
<path d="M1.0691226173124653,-4.13399042441452 A4.2700000000000005,4.2700000000000005,0,0,0,0.9241971515156995,-4.168783950402116 L1.1406367654538023,-5.145079957522049 A5.2700000000000005,5.2700000000000005,0,0,1,1.3195026213669068,-5.102138064792628 Z" fill="#ff0000" stroke="black" stroke-width="0.07" />
<path d="M1.3195025659810258,-4.061011324580306 A4.2700000000000005,4.2700000000000005,0,0,0,1.1769715093385866,-4.104587441656622 L1.4526088651555857,-5.065849137594941 A5.2700000000000005,5.2700000000000005,0,0,1,1.6285195603559732,-5.01206784087546 Z" fill="#946e96" stroke="black" stroke-width="0.07" />
<path d="M1.6340582561989339,-3.944965603823195 A4.2700000000000005,4.2700000000000005,0,0,0,1.5649602381127496,-3.9728830152832453 L1.931461464837047,-4.90330058326527 A5.2700000000000005,5.2700000000000005,0,0,1,2.0167416885640237,-4.868845136334482 Z" fill="#ff0000" stroke="black" stroke-width="0.07" />
<path d="M1.871844796789361,-3.8378505776974436 A4.2700000000000005,4.2700000000000005,0,0,0,1.736765465933667,-3.9008391041339063 L2.1435021090094675,-4.814384561776507 A5.2700000000000005,5.2700000000000005,0,0,1,2.3102159435784384,-4.736644623996611 Z" fill="#ff0000" stroke="black" stroke-width="0.07" />
<path d="M2.1026486016418047,-3.716418821663372 A4.2700000000000005,4.2700000000000005,0,0,0,1.9716665785135958,-3.7875362576710065 L2.43341519174863,-4.674547090849228 A5.2700000000000005,5.2700000000000005,0,0,1,2.595072161745272,-4.5867745176032715 Z" fill="#8c78a2" stroke="black" stroke-width="0.07" />
<path d="M2.4491713832189674,-3.4977792291139953 A4.2700000000000005,4.2700000000000005,0,0,0,2.325608679514166,-3.5811233251269607 L2.8702477145291936,-4.419793893072384 A5.2700000000000005,5.2700000000000005,0,0,1,3.0227478195700135,-4.316931273402987 Z" fill="#f05100" stroke="black" stroke-width="0.07" />
<path d="M2.658137498442636,-3.341736829759807 A4.2700000000000005,4.2700000000000005,0,0,0,2.5398932994282277,-3.4324687948355184 L3.1347160861795693,-4.2363256554527355 A5.2700000000000005,5.2700000000000005,0,0,1,3.2806521350802558,-4.124344986612221 Z" fill="#b84964" stroke="black" stroke-width="0.07" />
<path d="M2.93927403821233,-3.097348564222468 A4.2700000000000005,4.2700000000000005,0,0,0,2.93927403821233,-3.097348564222468 L3.627628613906084,-3.8227229352347556 A5.2700000000000005,5.2700000000000005,0,1,1,3.627628613906084,-3.8227229352347556 Z" fill="#fafc03" stroke="black" stroke-width="0.07" />
<path d="M3.0193459556665583,-3.019345955666558 A4.2700000000000005,4.2700000000000005,0,0,0,3.0193459556665583,-3.019345955666558 L3.726452736853106,-3.7264527368531053 A5.2700000000000005,5.2700000000000005,0,1,1,3.726452736853106,-3.7264527368531053 Z" fill="#7c8db0" stroke="black" stroke-width="0.07" />
<path d="M3.0973485642224685,-2.9392740382123295 A4.2700000000000005,4.2700000000000005,0,0,0,3.0973485642224685,-2.9392740382123295 L3.822722935234756,-3.6276286139060834 A5.2700000000000005,5.2700000000000005,0,1,1,3.822722935234756,-3.6276286139060834 Z" fill="#f62e00" stroke="black" stroke-width="0.07" />
<path d="M3.318413255421266,-2.6871980697828057 A4.2700000000000005,4.2700000000000005,0,0,0,3.222609907551237,-2.801372053789466 L3.9773194877740092,-3.4574310827799732 A5.2700000000000005,5.2700000000000005,0,0,1,4.095559216878237,-3.3165184608326435 Z" fill="#7aa885" stroke="black" stroke-width="0.07" />
<path d="M3.4762732633814837,-2.4796016208857132 A4.2700000000000005,4.2700000000000005,0,0,0,3.3876187630435743,-2.5994113018672373 L4.18097210333481,-3.2081727308759582 A5.2700000000000005,5.2700000000000005,0,0,1,4.290388781737803,-3.060304576596653 Z" fill="#79b077" stroke="black" stroke-width="0.07" />
<path d="M3.6211653705879394,-2.262755258275785 A4.2700000000000005,4.2700000000000005,0,0,0,3.539990434810028,-2.3877536978200897 L4.36902800736507,-2.9469466012908363 A5.2700000000000005,5.2700000000000005,0,0,1,4.469213466744365,-2.79267452250899 Z" fill="#ebc300" stroke="black" stroke-width="0.07" />
<path d="M3.7525490710665927,-2.037467906308528 A4.2700000000000005,4.2700000000000005,0,0,0,3.716418821663372,-2.1026486016418047 L4.5867745176032715,-2.5950721617452714 A5.2700000000000005,5.2700000000000005,0,0,1,4.631366183728558,-2.5146266665681365 Z" fill="#8085b2" stroke="black" stroke-width="0.07" />
<path d="M3.8699342506464958,-1.8045799776327869 A4.2700000000000005,4.2700000000000005,0,0,0,3.8045978582843314,-1.9385394338878648 L4.695604382472699,-2.3925299336274115 A5.2700000000000005,5.2700000000000005,0,0,1,4.776242037683145,-2.2271982393734864 Z" fill="#8d769f" stroke="black" stroke-width="0.07" />
<path d="M3.9728830152832453,-1.5649602381127494 A4.2700000000000005,4.2700000000000005,0,0,0,3.91584651762448,-1.7026585243108014 L4.832906592009604,-2.1014075932360474 A5.2700000000000005,5.2700000000000005,0,0,1,4.90330058326527,-1.9314614648370467 Z" fill="#89c852" stroke="black" stroke-width="0.07" />
<path d="M4.083421307962162,-1.2484271791660861 A4.2700000000000005,4.2700000000000005,0,0,0,4.037364317809083,-1.390176019532059 L4.982882893408401,-1.7157441739892156 A5.2700000000000005,5.2700000000000005,0,0,1,5.0397260639251975,-1.540798883888823 Z" fill="#78b969" stroke="black" stroke-width="0.07" />
<path d="M4.152019560098079,-0.9968117036647162 A4.2700000000000005,4.2700000000000005,0,0,0,4.11470203520082,-1.141107865854157 L5.078332488409443,-1.4083462419324138 A5.2700000000000005,5.2700000000000005,0,0,1,5.124389480495756,-1.2302570675206215 Z" fill="#78bd62" stroke="black" stroke-width="0.07" />
<path d="M4.223097736555386,-0.6311461855234375 A4.2700000000000005,4.2700000000000005,0,0,0,4.211439518563979,-0.7047532770250935 L5.19772512010121,-0.8698008828857712 A5.2700000000000005,5.2700000000000005,0,0,1,5.212113599917302,-0.778955596653048 Z" fill="#9f6387" stroke="black" stroke-width="0.07" />
<path d="M4.253751360851754,-0.3721550215325004 A4.2700000000000005,4.2700000000000005,0,0,0,4.2381720675084456,-0.5203820963399798 L5.230718219149767,-0.6422514397451272 A5.2700000000000005,5.2700000000000005,0,0,1,5.249946058943499,-0.4593107642801586 Z" fill="#fafc03" stroke="black" stroke-width="0.07" />
<path d="M4.2693496583177915,-0.0745217754872006 A4.2700000000000005,4.2700000000000005,0,0,0,4.2693496583177915,-0.0745217754872006 L5.2691973534741825,-0.09197418192448412 A5.2700000000000005,5.2700000000000005,0,1,1,5.2691973534741825,-0.09197418192448412 Z" fill="#ff0000" stroke="black" stroke-width="0.07" />
<path d="M4.269837411484012,0.0372623065780567 A4.2700000000000005,4.2700000000000005,0,0,0,4.269837411484012,0.0372623065780567 L5.269799334548183,0.04598884207643064 A5.2700000000000005,5.2700000000000005,0,1,1,5.269799334548183,0.04598884207643064 Z" fill="#ff0000" stroke="black" stroke-width="0.07" />
<path d="M4.2641481134020305,0.22347453315737018 A4.2700000000000005,4.2700000000000005,0,0,0,4.26739883137154,0.14902085091967915 L5.2667896583906355,0.18392034762218012 A5.2700000000000005,5.2700000000000005,0,0,1,5.262777648156605,0.275810489400314 Z" fill="#f82100" stroke="black" stroke-width="0.07" />
</svg>