<?xml version="1.0" encoding="UTF-8"?>
<svg xmlns="http://www.w3.org/2000/svg" xmlns:xlink="http://www.w3.org/1999/xlink"
     width="600" height="600.0" viewBox="-7.0 -7.0 14 14">
<defs>
</defs>
<path d="M0.6427876096865393,0.7660444431189781 A1.0,1.0,0,1,0,0.615661475325659,0.7880107536067213 L1.231322950651318,1.5760215072134427 A2.0,2.0,0,1,1,1.2855752193730785,1.5320888862379562 Z" fill="#8f749d" stroke="black" stroke-width="0.07" />
<path d="M-1.439016539731873,1.5431563104164492 A2.1100000000000003,2.1100000000000003,0,0,0,1.356281856438598,1.6163537749810442 L1.9990694661251374,2.3823982181000223 A3.1100000000000003,3.1100000000000003,0,0,1,-2.121014899794372,2.2745100120356194 Z" fill="#a1d341" stroke="black" stroke-width="0.07" />
<path d="M-1.854304107716747,-1.0068049841477744 A2.1100000000000003,2.1100000000000003,0,0,0,-1.4789185476726854,1.5049584477153235 L-2.1798278119725363,2.218208896869505 A3.1100000000000003,3.1100000000000003,0,0,1,-2.7331212203787123,-1.483963744407383 Z" fill="#e39900" stroke="black" stroke-width="0.07" />
<path d="M0.22055505749474882,-2.098441199227057 A2.1100000000000003,2.1100000000000003,0,0,0,-1.827313601985166,-1.055 L-2.6933390057696047,-1.555 A3.1100000000000003,3.1100000000000003,0,0,1,0.32508352076240227,-3.0929630945953304 Z" fill="#ce3244" stroke="black" stroke-width="0.07" />
<path d="M1.934996756952612,-0.8413605354322696 A2.1100000000000003,2.1100000000000003,0,0,0,0.27541026558430914,-2.0919486574987403 L0.4059364578043609,-3.0833935188725508 A3.1100000000000003,3.1100000000000003,0,0,1,2.852056831337736,-1.2401096043575157 Z" fill="#a25f82" stroke="black" stroke-width="0.07" />
<path d="M1.8086230044814573,1.0867303380602145 A2.1100000000000003,2.1100000000000003,0,0,0,1.9563579331359218,-0.7904199121075745 L2.883541787702709,-1.1650265055234865 A3.1100000000000003,3.1100000000000003,0,0,1,2.66579030518357,1.6017684129702685 Z" fill="#fdfa00" stroke="black" stroke-width="0.07" />
<path d="M1.3096919907040778,2.9416163736091745 A3.22,3.22,0,0,0,2.0697761031906565,2.4666631068431095 L2.712563712877196,3.2327075499620883 A4.220000000000001,4.220000000000001,0,0,1,1.7164286337798786,3.8551618312517757 Z" fill="#f5e300" stroke="black" stroke-width="0.07" />
<path d="M0.4759463038373473,3.1846310800253725 A3.22,3.22,0,0,0,1.23224065221559,2.9748920946863433 L1.61492408458068,3.8987716271976303 A4.220000000000001,4.220000000000001,0,0,1,0.6237557149669584,4.17364694338729 Z" fill="#fdf900" stroke="black" stroke-width="0.07" />
<path d="M-0.2806414916474596,3.2077469278554207 A3.22,3.22,0,0,0,0.3924192857645756,3.195998608285057 L0.5142886291697233,4.188544759926379 A4.220000000000001,4.220000000000001,0,0,1,-0.36779723439511786,4.2039416259471665 Z" fill="#857fab" stroke="black" stroke-width="0.07" />
<path d="M-0.914529409946631,3.0873995462755817 A3.22,3.22,0,0,0,-0.3645143483326604,3.199301375278612 L-0.47771756210056737,4.1928732309551995 A4.220000000000001,4.220000000000001,0,0,1,-1.1985447546505537,4.046219281143776 Z" fill="#eb6c00" stroke="black" stroke-width="0.07" />
<path d="M-1.4618494091613412,2.8690410078865445 A3.22,3.22,0,0,0,-0.9950347218873312,3.0624019824703947 L-1.304051716262279,4.013458498765549 A4.220000000000001,4.220000000000001,0,0,1,-1.9158399089008882,3.7600475320749127 Z" fill="#ec1219" stroke="black" stroke-width="0.07" />
<path d="M-1.9153293733393204,2.588419091187439 A3.22,3.22,0,0,0,-1.53645120803594,2.8297911027715283 L-2.013609968295549,3.708608215433494 A4.220000000000001,4.220000000000001,0,0,1,-2.510152160090662,3.3922759518046566 Z" fill="#956d95" stroke="black" stroke-width="0.07" />
<path d="M-2.9300752922224693,1.3353122413530896 A3.22,3.22,0,0,0,-2.2569278310455196,2.296666446276465 L-2.9578370953453708,3.009916895430647 A4.220000000000001,4.220000000000001,0,0,1,-3.8400365630990128,1.7500054840093286 Z" fill="#d8ed1b" stroke="black" stroke-width="0.07" />
<path d="M-3.2077469278554207,0.2806414916474586 A3.22,3.22,0,0,0,-2.964025628116858,1.258154233735461 L-3.884530481569299,1.6488853622247346 A4.220000000000001,4.220000000000001,0,0,1,-4.2039416259471665,0.3677972343951166 Z" fill="#ff0000" stroke="black" stroke-width="0.07" />
<path d="M-3.1436731429261853,-0.6969355568806923 A3.22,3.22,0,0,0,-3.2139940509184117,0.19657629730223936 L-4.212128849340279,0.25762483683709636 A4.220000000000001,4.220000000000001,0,0,1,-4.119969150046119,-0.9133751708187956 Z" fill="#cd3346" stroke="black" stroke-width="0.07" />
<path d="M-2.8430912490057443,-1.5116984321705693 A3.22,3.22,0,0,0,-3.124352238608709,-0.7789885038309301 L-4.094647964884706,-1.020910399430598 A4.220000000000001,4.220000000000001,0,0,1,-3.7260388418646717,-1.9811699949564607 Z" fill="#e5b200" stroke="black" stroke-width="0.07" />
<path d="M-2.1125100733494344,-2.4301648483173253 A3.22,3.22,0,0,0,-2.788601800185893,-1.6099999999999999 L-3.654627203970332,-2.11 A4.220000000000001,4.220000000000001,0,0,1,-2.768569102339942,-3.1848744285400974 Z" fill="#d7ec1b" stroke="black" stroke-width="0.07" />
<path d="M-1.232240652215589,-2.9748920946863433 A3.22,3.22,0,0,0,-2.0481718692943995,-2.484631158508459 L-2.6842500895721635,-3.25625574189618 A4.220000000000001,4.220000000000001,0,0,1,-1.614924084580679,-3.8987716271976307 Z" fill="#ff0000" stroke="black" stroke-width="0.07" />
<path d="M-0.33658165172184373,-3.2023605030858406 A3.22,3.22,0,0,0,-1.153944797535867,-3.00612897332099 L-1.5123127470811673,-3.939709399818192 A4.220000000000001,4.220000000000001,0,0,1,-0.44111011498949715,-4.196882398454115 Z" fill="#ad5473" stroke="black" stroke-width="0.07" />
<path d="M1.3862457317227108,-2.906324615606551 A3.22,3.22,0,0,0,0.42029433894856655,-3.1924524536236696 L0.5508205311686183,-4.1838973149974805 A4.220000000000001,4.220000000000001,0,0,1,1.8167568285310063,-3.808909899956412 Z" fill="#9e6488" stroke="black" stroke-width="0.07" />
<path d="M2.1960347194012453,-2.354958919213729 A3.22,3.22,0,0,0,1.4618494091613408,-2.8690410078865445 L1.9158399089008877,-3.7600475320749127 A4.220000000000001,4.220000000000001,0,0,1,2.878033079463744,-3.0863126208328997 Z" fill="#f4fa07" stroke="black" stroke-width="0.07" />
<path d="M2.745501329220177,-1.6824453783853552 A3.22,3.22,0,0,0,2.25692783104552,-2.2966664462764648 L2.957837095345371,-3.0099168954306466 A4.220000000000001,4.220000000000001,0,0,1,3.5981414935742695,-2.2049439431013043 Z" fill="#f6090c" stroke="black" stroke-width="0.07" />
<path d="M3.1803564567163436,-0.5037189774295434 A3.22,3.22,0,0,0,2.9855320117050557,-1.2062332307992367 L3.9127158662718435,-1.580839824215149 A4.220000000000001,4.220000000000001,0,0,1,4.168044797311482,-0.6601534424697744 Z" fill="#ff0000" stroke="black" stroke-width="0.07" />
<path d="M3.2139940509184117,0.19657629730223913 A3.22,3.22,0,0,0,3.1924524536236696,-0.4202943389485661 L4.1838973149974805,-0.5508205311686177 A4.220000000000001,4.220000000000001,0,0,1,4.212128849340279,0.257624836837096 Z" fill="#79b175" stroke="black" stroke-width="0.07" />
<path d="M3.124352238608709,0.7789885038309301 A3.22,3.22,0,0,0,3.2077469278554207,0.28064149164745933 L4.2039416259471665,0.3677972343951175 A4.220000000000001,4.220000000000001,0,0,1,4.094647964884706,1.020910399430598 Z" fill="#c04159" stroke="black" stroke-width="0.07" />
<path d="M2.9529334395200997,1.2839720019392928 A3.22,3.22,0,0,0,3.102890059331766,0.860507570971987 L4.066520512540389,1.127745947050244 A4.220000000000001,4.220000000000001,0,0,1,3.869993513905224,1.6827210708645393 Z" fill="#ff0000" stroke="black" stroke-width="0.07" />
<path d="M2.6058590502483674,3.458091758504779 A4.33,4.33,0,0,0,2.783270349942715,3.3169724387051756 L3.4260579596292544,4.083016881824154 A5.33,5.33,0,0,1,3.2076740734004154,4.256727268552072 Z" fill="#ea6f00" stroke="black" stroke-width="0.07" />
<path d="M2.3898871464012115,3.610725609550839 A4.33,4.33,0,0,0,2.5144437982283674,3.525120194482864 L3.0951467539393067,4.339235712839184 A5.33,5.33,0,0,1,2.941824131713269,4.444611431618007 Z" fill="#edf60c" stroke="black" stroke-width="0.07" />
<path d="M2.1650000000000005,3.749889998386619 A4.33,4.33,0,0,0,2.2945504141297763,3.6720482563573253 L2.824469678362981,4.520096352513751 A5.33,5.33,0,0,1,2.6650000000000005,4.615915402171058 Z" fill="#b54c68" stroke="black" stroke-width="0.07" />
<path d="M1.93203653076547,3.8750657857367696 A4.33,4.33,0,0,0,2.066097431924101,3.805278097826312 L2.5432561921837085,4.684095210488278 A5.33,5.33,0,0,1,2.3782343438752784,4.770000147338795 Z" fill="#db2432" stroke="black" stroke-width="0.07" />
<path d="M1.445383700482228,4.081637656429133 A4.33,4.33,0,0,0,1.6570192621408397,4.000398375773871 L2.03970269450593,4.924277908285158 A5.33,5.33,0,0,1,1.779190559715999,5.024279147521311 Z" fill="#7aa091" stroke="black" stroke-width="0.07" />
<path d="M1.1935097506876073,4.16226314341292 A4.33,4.33,0,0,0,1.3380435856435215,4.1180747155580155 L1.6470605800184688,5.069131231853169 A5.33,5.33,0,0,1,1.4691471065046067,5.123524839351239 Z" fill="#e58a00" stroke="black" stroke-width="0.07" />
<path d="M0.9371835283519837,4.227361710829312 A4.33,4.33,0,0,0,1.0841454175557315,4.192079282837207 L1.334525421610173,5.160226923215315 A5.33,5.33,0,0,1,1.1536231422900862,5.203657717949246 Z" fill="#7b95a2" stroke="black" stroke-width="0.07" />
<path d="M0.6773612336241989,4.276690514776947 A4.33,4.33,0,0,0,0.8262029499804366,4.250445704328386 L1.0170119453569808,5.23207288777605 A5.33,5.33,0,0,1,0.8337956986644295,5.264378855372084 Z" fill="#8e759e" stroke="black" stroke-width="0.07" />
<path d="M0.3020455313120622,4.319452337625039 A4.33,4.33,0,0,0,0.5276942569442895,4.297724836606924 L0.6495636003494372,5.290270988248246 A5.33,5.33,0,0,1,0.37180200505618743,5.3170163878848635 Z" fill="#8183b0" stroke="black" stroke-width="0.07" />
<path d="M0.037785898707959835,4.329835126867862 A4.33,4.33,0,0,0,0.18887194729190387,4.325878799449445 L0.23249133465723962,5.324927021031302 A5.33,5.33,0,0,1,0.046512434206333934,5.329797049932033 Z" fill="#f6fb05" stroke="black" stroke-width="0.07" />
<path d="M-0.22661469053194885,4.324065885487305 A4.33,4.33,0,0,0,-0.07556891987343754,4.329340520027174 L-0.09302132631072105,5.3291882151835654 A5.33,5.33,0,0,1,-0.2789506467748932,5.322695420241879 Z" fill="#877ca8" stroke="black" stroke-width="0.07" />
<path d="M-0.6400147501912133,4.2824386883571 A4.33,4.33,0,0,0,-0.4901699156150371,4.302166135079624 L-0.603373129382944,5.295737990756211 A5.33,5.33,0,0,1,-0.7878241613208238,5.271454551719017 Z" fill="#bfe12c" stroke="black" stroke-width="0.07" />
<path d="M-0.9002576212408999,4.235379111177378 A4.33,4.33,0,0,0,-0.7518966092978083,4.26421757054286 L-0.9255447869647386,5.249025323555069 A5.33,5.33,0,0,1,-1.1081693120586598,5.213526711911184 Z" fill="#78ba67" stroke="black" stroke-width="0.07" />
<path d="M-1.1571421684188532,4.1725198623933375 A4.33,4.33,0,0,0,-1.0108184254960693,4.21036175532194 L-1.2442637893519743,5.182731675719617 A5.33,5.33,0,0,1,-1.4243805444971103,5.13615031560196 Z" fill="#ce3244" stroke="black" stroke-width="0.07" />
<path d="M-1.4097101087994883,4.094095432345042 A4.33,4.33,0,0,0,-1.3380435856435229,4.118074715558015 L-1.6470605800184706,5.069131231853168 A5.33,5.33,0,0,1,-1.735278263256645,5.039614007944359 Z" fill="#c33d53" stroke="black" stroke-width="0.07" />
<path d="M-1.6570192621408375,4.000398375773872 A4.33,4.33,0,0,0,-1.5163979608534948,4.055790579445562 L-1.8666053421129623,4.992462768693959 A5.33,5.33,0,0,1,-2.039702694505927,4.924277908285159 Z" fill="#c9374b" stroke="black" stroke-width="0.07" />
<path d="M-1.8981470655967065,3.8917782204753926 A4.33,4.33,0,0,0,-1.7611696645182144,3.9556518315924625 L-2.1679063075940146,4.869197289235063 A5.33,5.33,0,0,1,-2.3365182123857844,4.790572266774559 Z" fill="#ff0000" stroke="black" stroke-width="0.07" />
<path d="M-2.132194015248013,3.7686401634197653 A4.33,4.33,0,0,0,-2.0660974319241054,3.8052780978263097 L-2.5432561921837142,4.684095210488275 A5.33,5.33,0,0,1,-2.6246175753514804,4.638995859359665 Z" fill="#e1a600" stroke="black" stroke-width="0.07" />
<path d="M-2.358287021615067,3.631443559203686 A4.33,4.33,0,0,0,-2.230114864360536,3.7115344120401454 L-2.7451529392705907,4.568701712742258 A5.33,5.33,0,0,1,-2.902926056630094,4.4701141271491105 Z" fill="#e1a700" stroke="black" stroke-width="0.07" />
<path d="M-2.724957293245795,3.365042013108685 A4.33,4.33,0,0,0,-2.6658141881600996,3.4120865631171067 L-3.2814756634857574,4.200097316723829 A5.33,5.33,0,0,1,-3.3542776842956323,4.1421879745656565 Z" fill="#eac100" stroke="black" stroke-width="0.07" />
<path d="M-2.925305598975809,3.1924108683878365 A4.33,4.33,0,0,0,-2.8121100492696973,3.2925578310481325 L-3.461558097599881,4.0529637966481635 A5.33,5.33,0,0,1,-3.6008958065914696,3.92968820519796 Z" fill="#ff0000" stroke="black" stroke-width="0.07" />
<path d="M-3.1924108683878387,2.925305598975807 A4.33,4.33,0,0,0,-3.034937114418354,3.0883744448376067 L-3.735846378718205,3.8016248939917885 A5.33,5.33,0,0,1,-3.929688205197963,3.600895806591467 Z" fill="#ff0000" stroke="black" stroke-width="0.07" />
<path d="M-3.365042013108684,2.724957293245797 A4.33,4.33,0,0,0,-3.2678924823646023,2.840735595528897 L-4.022602062587374,3.4967946245194046 A5.33,5.33,0,0,1,-4.142187974565655,3.3542776842956346 Z" fill="#b44d69" stroke="black" stroke-width="0.07" />
<path d="M-3.5251201944828625,2.514443798228369 A4.33,4.33,0,0,0,-3.4352199634610483,2.6359369876077605 L-4.228573303752284,3.244698416616481 A5.33,5.33,0,0,1,-4.339235712839182,3.095146753939309 Z" fill="#e01f2b" stroke="black" stroke-width="0.07" />
<path d="M-3.672048256357325,2.294550414129777 A4.33,4.33,0,0,0,-3.5897326891633314,2.421305272028333 L-4.4187702617183735,2.98049817549908 A5.33,5.33,0,0,1,-4.520096352513751,2.8244696783629815 Z" fill="#f62c00" stroke="black" stroke-width="0.07" />
<path d="M-3.80527809782631,2.0660974319241046 A4.33,4.33,0,0,0,-3.7308542647118075,2.197641111619848 L-4.5924834251533335,2.7051794745805515 A5.33,5.33,0,0,1,-4.684095210488276,2.543256192183713 Z" fill="#7b989d" stroke="black" stroke-width="0.07" />
<path d="M-3.9243127178686947,1.829937073337228 A4.33,4.33,0,0,0,-3.858058249735634,1.9657788638722353 L-4.749064773924002,2.4197693636117816 A5.33,5.33,0,0,1,-4.830620504905345,2.2525553350779273 Z" fill="#b44d69" stroke="black" stroke-width="0.07" />
<path d="M-4.094095432345042,1.4097101087994888 A4.33,4.33,0,0,0,-3.985786015449067,1.6918657863585544 L-4.9062908689015075,2.082596914847828 A5.33,5.33,0,0,1,-5.039614007944358,1.7352782632566455 Z" fill="#ff0000" stroke="black" stroke-width="0.07" />
<path d="M-4.192079282837207,1.084145417555732 A4.33,4.33,0,0,0,-4.129594396739822,1.3020561118535023 L-5.08331134748805,1.6027619113577753 A5.33,5.33,0,0,1,-5.160226923215315,1.3345254216101734 Z" fill="#f7e900" stroke="black" stroke-width="0.07" />
<path d="M-4.250445704328385,0.8262029499804386 A4.33,4.33,0,0,0,-4.219022380520069,0.9740380653089353 L-5.193392445305304,1.1989891196528004 A5.33,5.33,0,0,1,-5.232072887776049,1.0170119453569835 Z" fill="#ff0000" stroke="black" stroke-width="0.07" />
<path d="M-4.2929562497486,0.5651784123128223 A4.33,4.33,0,0,0,-4.270616654656212,0.7146561333767333 L-5.2569022561934435,0.8797037392374107 A5.33,5.33,0,0,1,-5.28440111112241,0.6957046045328735 Z" fill="#ff0000" stroke="black" stroke-width="0.07" />
<path d="M-4.329835126867862,-0.03778589870796117 A4.33,4.33,0,0,0,-4.321923677166684,0.2643401761859306 L-5.320058475588551,0.3253887157207875 A5.33,5.33,0,0,1,-5.329797049932033,-0.04651243420633557 Z" fill="#acd839" stroke="black" stroke-width="0.07" />
<path d="M-4.313523042737258,-0.3773843660973619 A4.33,4.33,0,0,0,-4.327362280992685,-0.15111482072182802 L-5.326753108011781,-0.18601431742432872 A5.33,5.33,0,0,1,-5.3097177408290035,-0.46454010884502056 Z" fill="#7b96a0" stroke="black" stroke-width="0.07" />
<path d="M-4.2824386883571,-0.6400147501912129 A4.33,4.33,0,0,0,-4.302166135079624,-0.4901699156150368 L-5.295737990756211,-0.6033731293829437 A5.33,5.33,0,0,1,-5.271454551719017,-0.7878241613208233 Z" fill="#f43900" stroke="black" stroke-width="0.07" />
<path d="M-4.235379111177378,-0.9002576212408978 A4.33,4.33,0,0,0,-4.26421757054286,-0.7518966092978081 L-5.249025323555069,-0.9255447869647384 A5.33,5.33,0,0,1,-5.213526711911184,-1.108169312058657 Z" fill="#8184b1" stroke="black" stroke-width="0.07" />
<path d="M-4.16226314341292,-1.1935097506876085 A4.33,4.33,0,0,0,-4.201380494775065,-1.0475218079465614 L-5.171676221051062,-1.289443703546229 A5.33,5.33,0,0,1,-5.123524839351239,-1.4691471065046082 Z" fill="#7b9d96" stroke="black" stroke-width="0.07" />
<path d="M-4.081637656429132,-1.4453837004822292 A4.33,4.33,0,0,0,-4.129594396739822,-1.3020561118535037 L-5.083311347488049,-1.602761911357777 A5.33,5.33,0,0,1,-5.024279147521311,-1.7791905597160005 Z" fill="#faf100" stroke="black" stroke-width="0.07" />
<path d="M-3.985786015449066,-1.6918657863585571 A4.33,4.33,0,0,0,-4.042403246732883,-1.55173322153115 L-4.975983673230085,-1.9101011710764502 A5.33,5.33,0,0,1,-4.906290868901506,-2.0825969148478314 Z" fill="#7aa983" stroke="black" stroke-width="0.07" />
<path d="M-3.8750657857367683,-1.932036530765473 A4.33,4.33,0,0,0,-3.9401323028954316,-1.7956217407015158 L-4.850093573771975,-2.210314983357755 A5.33,5.33,0,0,1,-4.770000147338793,-2.378234343875282 Z" fill="#e68900" stroke="black" stroke-width="0.07" />
<path d="M-3.58973268916333,-2.4213052720283343 A4.33,4.33,0,0,0,-3.7498899983866196,-2.1649999999999996 L-4.6159154021710584,-2.6649999999999996 A5.33,5.33,0,0,1,-4.418770261718372,-2.980498175499081 Z" fill="#d3ea1e" stroke="black" stroke-width="0.07" />
<path d="M-3.3886933191709523,-2.6954883766408932 A4.33,4.33,0,0,0,-3.525120194482862,-2.5144437982283696 L-4.339235712839181,-3.09514675393931 A5.33,5.33,0,0,1,-4.171301476023366,-3.3180030132785125 Z" fill="#ff0000" stroke="black" stroke-width="0.07" />
<path d="M-3.217817094317116,-2.897335525533857 A4.33,4.33,0,0,0,-3.316972438705174,-2.783270349942716 L-4.083016881824152,-3.4260579596292553 A5.33,5.33,0,0,1,-3.96096191979451,-3.566466131892715 Z" fill="#e87a00" stroke="black" stroke-width="0.07" />
<path d="M-3.0349371144183546,-3.0883744448376063 A4.33,4.33,0,0,0,-3.1408710264832056,-2.9805753127539547 L-3.866245397495493,-3.6689298884477086 A5.33,5.33,0,0,1,-3.7358463787182052,-3.8016248939917876 Z" fill="#e4b000" stroke="black" stroke-width="0.07" />
<path d="M-2.575582666633307,-3.480700206472551 A4.33,4.33,0,0,0,-2.754218693802717,-3.341134446068829 L-3.390296914080481,-4.112759029456549 A5.33,5.33,0,0,1,-3.170405453384648,-4.284557067089769 Z" fill="#d62939" stroke="black" stroke-width="0.07" />
<path d="M-2.3582870216150673,-3.6314435592036856 A4.33,4.33,0,0,0,-2.4835859694000284,-3.5469283517713355 L-3.0571624057510745,-4.366080396060328 A5.33,5.33,0,0,1,-2.9029260566300943,-4.47011412714911 Z" fill="#fd0102" stroke="black" stroke-width="0.07" />
<path d="M-2.1321940152480123,-3.7686401634197657 A4.33,4.33,0,0,0,-2.262418785220058,-3.69193191165322 L-2.784917349936007,-4.544572076007312 A5.33,5.33,0,0,1,-2.624617575351479,-4.638995859359666 Z" fill="#a2d341" stroke="black" stroke-width="0.07" />
<path d="M-1.8981470655967057,-3.891778220475393 A4.33,4.33,0,0,0,-2.032811866862906,-3.8231630770791543 L-2.5022834296487964,-4.706110669938082 A5.33,5.33,0,0,1,-2.336518212385783,-4.79057226677456 Z" fill="#ff0000" stroke="black" stroke-width="0.07" />
<path d="M-1.2659694814494498,-4.140799593319944 A4.33,4.33,0,0,0,-1.5517332215311501,-4.042403246732883 L-1.9101011710764504,-4.975983673230085 A5.33,5.33,0,0,1,-1.5583411861721863,-5.097104349282979 Z" fill="#a16083" stroke="black" stroke-width="0.07" />
<path d="M-0.9371835283519852,-4.227361710829311 A4.33,4.33,0,0,0,-1.157142168418852,-4.1725198623933375 L-1.424380544497109,-5.13615031560196 A5.33,5.33,0,0,1,-1.153623142290088,-5.203657717949245 Z" fill="#7b9b99" stroke="black" stroke-width="0.07" />
<path d="M-0.6773612336242004,-4.276690514776946 A4.33,4.33,0,0,0,-0.826202949980439,-4.250445704328385 L-1.017011945356984,-5.232072887776049 A5.33,5.33,0,0,1,-0.8337956986644315,-5.264378855372084 Z" fill="#986a91" stroke="black" stroke-width="0.07" />
<path d="M-0.11334618617309017,-4.328516217144163 A4.33,4.33,0,0,0,-0.3397278845015683,-4.316652055064444 L-0.4181869802294132,-5.313569388797572 A5.33,5.33,0,0,1,-0.13952313448096318,-5.32817354211972 Z" fill="#db2532" stroke="black" stroke-width="0.07" />
<path d="M0.1511148207218297,-4.327362280992685 A4.33,4.33,0,0,0,2.65136032015402e-16,-4.33 L3.263683719727696e-16,-5.33 A5.33,5.33,0,0,1,0.18601431742433075,-5.326753108011781 Z" fill="#ff0000" stroke="black" stroke-width="0.07" />
<path d="M0.4150121084125702,-4.310065538929884 A4.33,4.33,0,0,0,0.2643401761859304,-4.321923677166684 L0.3253887157207873,-5.320058475588551 A5.33,5.33,0,0,1,0.5108578609327943,-5.305461737297063 Z" fill="#e2a900" stroke="black" stroke-width="0.07" />
<path d="M0.8632631560264649,-4.243073971008192 A4.33,4.33,0,0,0,0.565178412312824,-4.292956249748599 L0.6957046045328756,-5.28440111112241 A5.33,5.33,0,0,1,1.0626310904436622,-5.222998675629022 Z" fill="#b1506d" stroke="black" stroke-width="0.07" />
<path d="M1.1935097506876065,-4.162263143412921 A4.33,4.33,0,0,0,0.9740380653089351,-4.219022380520069 L1.1989891196528,-5.193392445305304 A5.33,5.33,0,0,1,1.4691471065046056,-5.12352483935124 Z" fill="#dff016" stroke="black" stroke-width="0.07" />
<path d="M1.445383700482229,-4.081637656429132 A4.33,4.33,0,0,0,1.3020561118535035,-4.129594396739822 L1.6027619113577767,-5.083311347488049 A5.33,5.33,0,0,1,1.779190559716,-5.024279147521311 Z" fill="#ff0000" stroke="black" stroke-width="0.07" />
<path d="M1.6918657863585562,-3.9857860154490665 A4.33,4.33,0,0,0,1.5517332215311506,-4.042403246732883 L1.910101171076451,-4.975983673230085 A5.33,5.33,0,0,1,2.08259691484783,-4.906290868901507 Z" fill="#ce3245" stroke="black" stroke-width="0.07" />
<path d="M2.1650000000000005,-3.749889998386619 A4.33,4.33,0,0,0,1.9657788638722378,-3.8580582497356324 L2.4197693636117843,-4.749064773924 A5.33,5.33,0,0,1,2.6650000000000005,-4.615915402171058 Z" fill="#e41b25" stroke="black" stroke-width="0.07" />
<path d="M2.3898871464012124,-3.6107256095508378 A4.33,4.33,0,0,0,2.262418785220059,-3.691931911653219 L2.784917349936008,-4.544572076007311 A5.33,5.33,0,0,1,2.9418241317132705,-4.444611431618006 Z" fill="#ac5574" stroke="black" stroke-width="0.07" />
<path d="M2.6058590502483696,-3.458091758504778 A4.33,4.33,0,0,0,2.4835859694000297,-3.5469283517713346 L3.0571624057510762,-4.366080396060326 A5.33,5.33,0,0,1,3.207674073400418,-4.256727268552071 Z" fill="#ff0000" stroke="black" stroke-width="0.07" />
<path d="M2.8121100492696947,-3.2925578310481343 A4.33,4.33,0,0,0,2.6954883766408932,-3.388693319170952 L3.3180030132785125,-4.171301476023365 A5.33,5.33,0,0,1,3.4615580975998785,-4.052963796648165 Z" fill="#8381ae" stroke="black" stroke-width="0.07" />
<path d="M3.1408710264832056,-2.9805753127539547 A4.33,4.33,0,0,0,3.0349371144183546,-3.0883744448376063 L3.7358463787182052,-3.8016248939917876 A5.33,5.33,0,0,1,3.866245397495493,-3.6689298884477086 Z" fill="#f4e000" stroke="black" stroke-width="0.07" />
<path d="M3.3169724387051747,-2.783270349942715 A4.33,4.33,0,0,0,3.217817094317117,-2.8973355255338564 L3.9609619197945114,-3.5664661318927147 A5.33,5.33,0,0,1,4.083016881824153,-3.4260579596292544 Z" fill="#f63000" stroke="black" stroke-width="0.07" />
<path d="M3.4807002064725507,-2.5755826666333075 A4.33,4.33,0,0,0,3.3886933191709523,-2.6954883766408924 L4.171301476023366,-3.318003013278512 A5.33,5.33,0,0,1,4.284557067089768,-3.170405453384649 Z" fill="#927099" stroke="black" stroke-width="0.07" />
<path d="M3.631443559203686,-2.3582870216150673 A4.33,4.33,0,0,0,3.5469283517713346,-2.4835859694000293 L4.366080396060326,-3.0571624057510753 A5.33,5.33,0,0,1,4.4701141271491105,-2.9029260566300943 Z" fill="#7f86b4" stroke="black" stroke-width="0.07" />
<path d="M3.823163077079154,-2.0328118668629074 A4.33,4.33,0,0,0,3.7498899983866196,-2.1649999999999996 L4.6159154021710584,-2.6649999999999996 A5.33,5.33,0,0,1,4.706110669938081,-2.502283429648798 Z" fill="#ff0000" stroke="black" stroke-width="0.07" />
<path d="M3.940132302895432,-1.795621740701515 A4.33,4.33,0,0,0,3.8750657857367687,-1.932036530765472 L4.770000147338794,-2.3782343438752807 A5.33,5.33,0,0,1,4.850093573771975,-2.2103149833577542 Z" fill="#ff0000" stroke="black" stroke-width="0.07" />
<path d="M4.094095432345042,-1.4097101087994883 A4.33,4.33,0,0,0,4.014706090274189,-1.622046549490899 L4.941889944840977,-1.996653142906811 A5.33,5.33,0,0,1,5.039614007944359,-1.735278263256645 Z" fill="#8d769f" stroke="black" stroke-width="0.07" />
<path d="M4.1725198623933375,-1.157142168418852 A4.33,4.33,0,0,0,4.129594396739822,-1.3020561118535026 L5.08331134748805,-1.6027619113577758 A5.33,5.33,0,0,1,5.13615031560196,-1.424380544497109 Z" fill="#eef70b" stroke="black" stroke-width="0.07" />
<path d="M4.235379111177378,-0.9002576212408978 A4.33,4.33,0,0,0,4.201380494775065,-1.0475218079465614 L5.171676221051062,-1.289443703546229 A5.33,5.33,0,0,1,5.213526711911184,-1.108169312058657 Z" fill="#f24700" stroke="black" stroke-width="0.07" />
<path d="M4.3100655389298845,-0.41501210841256986 A4.33,4.33,0,0,0,4.292956249748599,-0.5651784123128233 L5.28440111112241,-0.6957046045328749 A5.33,5.33,0,0,1,5.305461737297064,-0.5108578609327938 Z" fill="#7b94a4" stroke="black" stroke-width="0.07" />
<path d="M4.327362280992685,-0.1511148207218292 A4.33,4.33,0,0,0,4.319452337625039,-0.3020455313120626 L5.317016387884863,-0.3718020050561879 A5.33,5.33,0,0,1,5.326753108011781,-0.18601431742433017 Z" fill="#e5b200" stroke="black" stroke-width="0.07" />
<path d="M4.328516217144163,0.11334618617309074 A4.33,4.33,0,0,0,4.329835126867862,-0.03778589870795914 L5.329797049932033,-0.046512434206333074 A5.33,5.33,0,0,1,5.32817354211972,0.13952313448096387 Z" fill="#f6e500" stroke="black" stroke-width="0.07" />
<path d="M4.297724836606924,0.5276942569442886 A4.33,4.33,0,0,0,4.313523042737258,0.37738436609735987 L5.3097177408290035,0.464540108845018 A5.33,5.33,0,0,1,5.290270988248246,0.649563600349436 Z" fill="#e68700" stroke="black" stroke-width="0.07" />
<path d="M4.257493749751924,0.7890798253809985 A4.33,4.33,0,0,0,4.2824386883571,0.640014750191214 L5.271454551719017,0.7878241613208247 A5.33,5.33,0,0,1,5.240748657315878,0.971315350873146 Z" fill="#ff0000" stroke="black" stroke-width="0.07" />
<path d="M4.151689451979276,1.229786442567985 A4.33,4.33,0,0,0,4.1725198623933375,1.157142168418852 L5.13615031560196,1.424380544497109 A5.33,5.33,0,0,1,5.1105091868474695,1.5138017872719076 Z" fill="#7e87b5" stroke="black" stroke-width="0.07" />
<path d="M4.068869048002983,1.4809472206001455 A4.33,4.33,0,0,0,4.118074715558015,1.3380435856435222 L5.069131231853168,1.6470605800184697 A5.33,5.33,0,0,1,5.008561668788892,1.8229673639258142 Z" fill="#7c8eae" stroke="black" stroke-width="0.07" />
</svg>